<svg xmlns="http://www.w3.org/2000/svg" viewBox="0 0 512 512">
    <path fill="#d1e5f1" d="M8 56h496v400H8z"/>
    <path fill="#4dbaf8" d="M8 56h496v64H8z"/>
    <path d="M376 16c0-4.416-3.584-8-8-8H144c-4.416 0-8 3.584-8 8v480c0 4.416 3.584 8 8 8h224c4.416 0 8-3.584 8-8V16z" fill="#fa5419"/>
    <path d="M368 512H144c-8.824 0-16-7.176-16-16V16c0-8.824 7.176-16 16-16h224c8.824 0 16 7.176 16 16v480c0 8.824-7.176 16-16 16zm0-496.008L144 16v480h224V15.992z"/>
    <path fill="#f1d9d0" d="M168 72h176v320H168z"/>
    <path d="M200 400h-32c-4.416 0-8-3.576-8-8V72c0-4.424 3.584-8 8-8h32v16h-24v304h24v16zM344 400h-32v-16h24V80h-24V64h32c4.416 0 8 3.576 8 8v320c0 4.424-3.584 8-8 8zM216 64h80v16h-80z"/>
    <circle cx="256" cy="448" r="24" fill="#f1d9d0"/>
    <path d="M256 480c-17.648 0-32-14.352-32-32s14.352-32 32-32 32 14.352 32 32-14.352 32-32 32zm0-48c-8.824 0-16 7.176-16 16s7.176 16 16 16 16-7.176 16-16-7.176-16-16-16zM224 32h64v16h-64zM216 384h80v16h-80zM112 64V48H8c-4.416 0-8 3.576-8 8v400c0 4.424 3.584 8 8 8h104v-16H16V128h96v-16H16V64h96z"/>
    <path d="M32 80h16v16H32zM64 80h16v16H64zM96 80h16v16H96zM504 48H400v16h96v48h-96v16h96v320h-96v16h104c4.416 0 8-3.576 8-8V56c0-4.424-3.584-8-8-8z"/>
    <path d="M432 80h48v16h-48zM200 224h32v16h-32zM248 224h64v16h-64zM280 256h32v16h-32zM200 256h64v16h-64zM200 288h32v16h-32zM248 288h64v16h-64zM280 320h32v16h-32zM200 320h64v16h-64zM218.344 189.656l-24-24a7.991 7.991 0 0 1 0-11.312l24-24 11.312 11.312L211.312 160l18.344 18.344-11.312 11.312zM293.656 189.656l-11.312-11.312L300.688 160l-18.344-18.344 11.312-11.312 24 24a7.991 7.991 0 0 1 0 11.312l-24 24zM271.599 138.546l-16.01 47.998-15.178-5.062 16.01-47.999z"/>
</svg>
