<?xml version="1.0" encoding="iso-8859-1"?>
<!-- Generator: Adobe Illustrator 19.0.0, SVG Export Plug-In . SVG Version: 6.00 Build 0)  -->
<svg version="1.1" id="Capa_1" xmlns="http://www.w3.org/2000/svg" xmlns:xlink="http://www.w3.org/1999/xlink" x="0px" y="0px"
	 viewBox="0 0 512 512" style="enable-background:new 0 0 512 512;" xml:space="preserve">
<rect x="8" y="56" style="fill:#D1E5F1;" width="496" height="400"/>
<rect x="8" y="56" style="fill:#4DBAF8;" width="496" height="64"/>
<path style="fill:#FA5419;" d="M376,16c0-4.416-3.584-8-8-8H144c-4.416,0-8,3.584-8,8v480c0,4.416,3.584,8,8,8h224
	c4.416,0,8-3.584,8-8V16z"/>
<path d="M368,512H144c-8.824,0-16-7.176-16-16V16c0-8.824,7.176-16,16-16h224c8.824,0,16,7.176,16,16v480
	C384,504.824,376.824,512,368,512z M368,15.992L144,16v480h224V15.992z"/>
<rect x="168" y="72" style="fill:#F1D9D0;" width="176" height="320"/>
<path d="M200,400h-32c-4.416,0-8-3.576-8-8V72c0-4.424,3.584-8,8-8h32v16h-24v304h24V400z"/>
<path d="M344,400h-32v-16h24V80h-24V64h32c4.416,0,8,3.576,8,8v320C352,396.424,348.416,400,344,400z"/>
<rect x="216" y="64" width="80" height="16"/>
<circle style="fill:#F1D9D0;" cx="256" cy="448" r="24"/>
<path d="M256,480c-17.648,0-32-14.352-32-32s14.352-32,32-32s32,14.352,32,32S273.648,480,256,480z M256,432
	c-8.824,0-16,7.176-16,16s7.176,16,16,16s16-7.176,16-16S264.824,432,256,432z"/>
<rect x="224" y="32" width="64" height="16"/>
<rect x="216" y="384" width="80" height="16"/>
<path d="M112,64V48H8c-4.416,0-8,3.576-8,8v64v336c0,4.424,3.584,8,8,8h104v-16H16V128h96v-16H16V64H112z"/>
<rect x="32" y="80" width="16" height="16"/>
<rect x="64" y="80" width="16" height="16"/>
<rect x="96" y="80" width="16" height="16"/>
<path d="M504,48H400v16h96v48h-96v16h96v320h-96v16h104c4.416,0,8-3.576,8-8V120V56C512,51.576,508.416,48,504,48z"/>
<rect x="432" y="80" width="48" height="16"/>
<rect x="200" y="224" width="32" height="16"/>
<rect x="248" y="224" width="64" height="16"/>
<rect x="280" y="256" width="32" height="16"/>
<rect x="200" y="256" width="64" height="16"/>
<rect x="200" y="288" width="32" height="16"/>
<rect x="248" y="288" width="64" height="16"/>
<rect x="280" y="320" width="32" height="16"/>
<rect x="200" y="320" width="64" height="16"/>
<path d="M218.344,189.656l-24-24c-3.128-3.128-3.128-8.184,0-11.312l24-24l11.312,11.312L211.312,160l18.344,18.344L218.344,189.656
	z"/>
<path d="M293.656,189.656l-11.312-11.312L300.688,160l-18.344-18.344l11.312-11.312l24,24c3.128,3.128,3.128,8.184,0,11.312
	L293.656,189.656z"/>
<rect x="230.7" y="152.019" transform="matrix(-0.3164 0.9486 -0.9486 -0.3164 488.7973 -32.1975)" width="50.599" height="16"/>
<g>
</g>
<g>
</g>
<g>
</g>
<g>
</g>
<g>
</g>
<g>
</g>
<g>
</g>
<g>
</g>
<g>
</g>
<g>
</g>
<g>
</g>
<g>
</g>
<g>
</g>
<g>
</g>
<g>
</g>
</svg>
