<svg xmlns="http://www.w3.org/2000/svg" viewBox="0 0 512.002 512.002">
    <path fill="#ffc66c" d="M343.905 290.599l147.056 147.056c14.719 14.719 14.719 38.583 0 53.303-14.719 14.719-38.583 14.719-53.303 0L290.602 343.902l53.303-53.303z"/>
    <path fill="#fff" d="M290.602 343.895l53.3-53.3 42 42-53.3 53.3z"/>
    <path fill="#4dbaf6" d="M369.995 189.999c0-99.412-80.585-179.997-179.997-179.997S10.001 90.586 10.001 189.999s80.585 179.997 179.997 179.997 179.997-80.585 179.997-179.997z"/>
    <circle fill="#c9f3ff" cx="189.997" cy="189.998" r="136.008"/>
    <path d="M120.773 318.581c21.208 11.428 45.297 17.394 69.456 17.394 6.679 0 13.364-.456 19.993-1.379 31.651-4.404 60.357-18.707 83.013-41.361 56.924-56.925 56.924-149.547 0-206.472C265.66 59.187 228.997 44.002 190 44.002c-38.995 0-75.663 15.188-103.236 42.761-22.655 22.655-36.957 51.36-41.361 83.012-4.26 30.61 1.428 62.377 16.014 89.447 2.621 4.862 8.688 6.679 13.547 4.061 4.862-2.62 6.68-8.685 4.061-13.547-26.173-48.573-17.174-109.774 21.884-148.83 23.798-23.799 55.438-36.904 89.094-36.904 33.654 0 65.296 13.106 89.093 36.903 49.126 49.126 49.126 129.061 0 178.188-39.057 39.059-100.261 48.055-148.832 21.883-4.861-2.618-10.926-.802-13.547 4.061-2.623 4.859-.806 10.924 4.056 13.544z"/>
    <path d="M86.768 279.08l-.088.088c-3.905 3.905-3.905 10.237 0 14.143 1.953 1.952 4.512 2.929 7.071 2.929s5.118-.977 7.071-2.929l.088-.088c3.905-3.905 3.905-10.237 0-14.143-3.906-3.904-10.236-3.904-14.142 0zM310.808 70.4a9.967 9.967 0 0 0 7.118 2.977 9.968 9.968 0 0 0 7.023-2.881c3.932-3.879 3.974-10.21.095-14.142l-.698-.703c-3.906-3.905-10.236-3.905-14.143 0-3.905 3.905-3.905 10.237 0 14.143l.605.606z"/>
    <path d="M390.006 322.557a19.413 19.413 0 0 1 17.636-11.267c10.723 0 19.445 8.723 19.445 19.445V340c0 5.522 4.478 10 10 10s10-4.478 10-10v-9.265c0-21.75-17.695-39.444-39.444-39.444a39.368 39.368 0 0 0-32.218 16.684l-21.673-21.673c12.682-21.573 21.072-45.559 24.489-70.522a39.195 39.195 0 0 0 21.201 6.208c21.75 0 39.444-17.695 39.444-39.444v-19.459c0-21.75-17.695-39.445-39.444-39.445-10.74 0-20.487 4.32-27.607 11.307-5.253-17.414-12.984-34.076-23.062-49.366-3.039-4.612-9.244-5.887-13.853-2.847-4.611 3.039-5.886 9.241-2.847 13.853 44.138 66.969 34.94 156.808-21.87 213.618-32.108 32.109-74.799 49.793-120.205 49.793-45.407 0-88.097-17.684-120.206-49.793S20 235.405 20 189.999s17.684-88.097 49.793-120.206C126.399 13.183 216.03 3.851 282.92 47.6c4.622 3.023 10.82 1.727 13.843-2.895 3.022-4.622 1.727-10.82-2.896-13.843C257.903 7.34 214.411-3.301 171.401.907c-38.038 3.72-74.173 18.992-103.381 43.43V34.005C68.02 15.257 52.768.006 34.021.006s-34 15.252-34 33.999v35.999c0 14.397 8.999 26.724 21.665 31.673C7.519 128.594 0 158.716 0 189.999c0 50.749 19.765 98.461 55.65 134.348a194.518 194.518 0 0 0 5.232 5.021v22.362c0 10.723-8.723 19.445-19.445 19.445s-19.445-8.723-19.445-19.445v-19.46c0-5.522-4.478-10-10-10s-10 4.478-10 10v19.459c0 21.75 17.695 39.444 39.444 39.444s39.444-17.695 39.444-39.444v-6.133c31.734 22.356 69.5 34.4 109.116 34.4 34.44 0 67.478-9.113 96.375-26.181l144.212 144.212c9.008 9.008 20.984 13.969 33.723 13.969 12.74 0 24.716-4.961 33.723-13.969 18.594-18.595 18.594-48.85 0-67.445L390.006 322.557zm-10.012-159.472c0-10.723 8.724-19.446 19.446-19.446 10.722 0 19.445 8.723 19.445 19.446v19.459c0 10.722-8.724 19.445-19.445 19.445-10.723 0-19.446-8.723-19.446-19.445v-19.459zM20.021 70.005v-36c0-7.72 6.28-14 14-14s14 6.28 14 14v26.75c0 .9.13 1.767.353 2.596a191.16 191.16 0 0 0-16.04 20.542c-6.926-.839-12.313-6.741-12.313-13.888zm304.325 254.341a189.297 189.297 0 0 0 18.136-21.029l29.281 29.28-39.161 39.16-29.244-29.244a192.85 192.85 0 0 0 20.988-18.167zm159.544 159.54c-10.797 10.797-28.365 10.797-39.161 0l-97.985-97.985 39.161-39.16 97.985 97.985c10.796 10.796 10.796 28.365 0 39.16zM46.781 491.997h-7.944v-68.35a10.001 10.001 0 0 0-17.071-7.071L2.94 435.402c-3.905 3.905-3.905 10.237 0 14.143 3.906 3.904 10.236 3.904 14.143 0l1.755-1.755v44.207h-7.944c-5.522 0-10 4.478-10 10s4.478 10 10 10h35.888c5.522 0 10-4.478 10-10s-4.478-10-10.001-10z"/>
    <path d="M135.613 491.997h-7.944v-68.35a10.001 10.001 0 0 0-17.071-7.071l-18.826 18.826c-3.905 3.905-3.905 10.237 0 14.143 3.906 3.904 10.236 3.904 14.143 0l1.755-1.755v44.207h-7.944c-5.522 0-10 4.478-10 10s4.478 10 10 10h35.888c5.522 0 10-4.478 10-10s-4.478-10-10.001-10zM313.277 491.997h-7.944v-68.35a10.001 10.001 0 0 0-17.071-7.071l-18.826 18.826c-3.905 3.905-3.905 10.237 0 14.143 3.906 3.904 10.236 3.904 14.143 0l1.755-1.755v44.207h-7.944c-5.522 0-10 4.478-10 10s4.478 10 10 10h35.888c5.522 0 10-4.478 10-10s-4.479-10-10.001-10zM206.059 413.648c-21.75 0-39.444 17.695-39.444 39.444v19.46c0 21.75 17.695 39.444 39.444 39.444s39.444-17.695 39.444-39.444v-19.459c.002-21.75-17.694-39.445-39.444-39.445zm19.446 58.905c0 10.723-8.723 19.445-19.445 19.445s-19.445-8.723-19.445-19.445v-19.46c0-10.723 8.723-19.445 19.445-19.445s19.445 8.723 19.445 19.445v19.46zM502 371.174h-7.944v-68.349a10.001 10.001 0 0 0-17.071-7.071L458.16 314.58c-3.905 3.905-3.905 10.237 0 14.143 3.906 3.904 10.236 3.904 14.143 0l1.755-1.755v44.206h-7.944c-5.522 0-10 4.478-10 10s4.478 10 10 10h35.888c5.522 0 10-4.478 10-10s-4.48-10-10.002-10zM372.409 35.902l1.755-1.755v44.207h-7.944c-5.522 0-10 4.477-10 10s4.478 10 10 10h35.888c5.522 0 10-4.477 10-10s-4.478-10-10-10h-7.944V10.006a10.002 10.002 0 0 0-17.071-7.072L358.267 21.76c-3.905 3.905-3.905 10.237 0 14.143 3.907 3.904 10.237 3.904 14.142-.001zM472.555.006c-21.75 0-39.444 17.695-39.444 39.445V58.91c0 21.75 17.695 39.444 39.444 39.444 21.75 0 39.444-17.695 39.444-39.444V39.45C512 17.701 494.304.006 472.555.006zM492 58.91c0 10.722-8.723 19.445-19.445 19.445S453.11 69.632 453.11 58.91V39.45c0-10.723 8.723-19.446 19.445-19.446S492 28.727 492 39.45v19.46zM502 201.988h-7.944v-68.35a10.002 10.002 0 0 0-17.071-7.072l-18.826 18.826c-3.905 3.905-3.905 10.237 0 14.143 3.906 3.905 10.236 3.905 14.143 0l1.755-1.755v44.207h-7.944c-5.522 0-10 4.477-10 10s4.478 10 10 10h35.888c5.522 0 10-4.477 10-10 .001-5.523-4.479-9.999-10.001-9.999zM254.285 133.754a10.001 10.001 0 0 0-10.898 2.168l-22.589 22.59c-3.905 3.905-3.905 10.237 0 14.142 3.906 3.905 10.236 3.905 14.143 0l5.518-5.518v59.87h-11.531c-5.522 0-10 4.477-10 10s4.478 10 10 10h43.062c5.522 0 10-4.477 10-10s-4.478-10-10-10h-11.532v-84.013a10.002 10.002 0 0 0-6.173-9.239zM143.338 247.004c24.996 0 45.331-20.336 45.331-45.331v-23.35c0-24.996-20.336-45.331-45.331-45.331s-45.331 20.336-45.331 45.331v23.35c0 24.996 20.336 45.331 45.331 45.331zm-25.331-68.68c0-13.968 11.364-25.332 25.332-25.332s25.332 11.364 25.332 25.332v23.35c0 13.968-11.364 25.332-25.332 25.332s-25.332-11.364-25.332-25.332v-23.35z"/>
</svg>
