<svg width="100px" height="20px" viewBox="0 0 100 20" xmlns="http://www.w3.org/2000/svg" fill-rule="evenodd" clip-rule="evenodd" stroke-linejoin="round" stroke-miterlimit="1.414">
  <g fill-rule="nonzero">
    <path d="M9.6 18.676H4.28c-.765 0-1.314-.172-1.643-.517-.328-.344-.492-.891-.492-1.643V3.43c0-.768.168-1.32.504-1.657.337-.337.88-.505 1.632-.505h5.641c.831 0 1.55.053 2.16.154.61.104 1.155.302 1.64.594.411.245.776.557 1.092.932a4.128 4.128 0 0 1 .973 2.69c0 1.742-.87 3.016-2.612 3.823 2.287.73 3.432 2.146 3.432 4.251 0 .973-.251 1.85-.75 2.63a4.487 4.487 0 0 1-2.018 1.727 7.106 7.106 0 0 1-1.828.47 18.62 18.62 0 0 1-2.411.136zm-.26-7.729H5.67v5.08h3.788c2.383 0 3.575-.857 3.575-2.575 0-.88-.308-1.516-.926-1.911-.618-.397-1.54-.594-2.766-.594zm-3.67-7.03v4.501H8.9c.878 0 1.557-.083 2.037-.249a1.958 1.958 0 0 0 1.099-.95c.196-.333.296-.705.296-1.117 0-.88-.313-1.463-.939-1.75-.624-.29-1.578-.434-2.86-.434H5.67zM27.317.973c1.803 0 3.353.365 4.648 1.099a7.12 7.12 0 0 1 2.939 3.122c.664 1.35.996 2.935.996 4.754 0 1.346-.182 2.57-.547 3.67a7.917 7.917 0 0 1-1.637 2.861c-.727.809-1.623 1.425-2.683 1.852-1.062.428-2.276.643-3.645.643-1.362 0-2.582-.221-3.658-.66-1.076-.438-1.974-1.059-2.695-1.859-.72-.798-1.265-1.76-1.633-2.884-.367-1.124-.552-2.34-.552-3.645 0-1.337.193-2.565.576-3.682.385-1.114.94-2.065 1.668-2.85a7.215 7.215 0 0 1 2.66-1.799c1.044-.415 2.231-.622 3.563-.622zm5.009 8.953c0-1.275-.205-2.379-.616-3.313-.411-.934-1.001-1.642-1.763-2.12-.764-.478-1.641-.717-2.63-.717-.705 0-1.356.132-1.954.397A4.296 4.296 0 0 0 23.82 5.33c-.431.507-.772 1.153-1.021 1.941-.25.789-.373 1.672-.373 2.655 0 .989.124 1.882.373 2.683.25.798.602 1.463 1.058 1.988.454.527.976.92 1.566 1.181.59.262 1.236.393 1.941.393.902 0 1.733-.227 2.489-.676.756-.452 1.357-1.15 1.803-2.092.448-.94.67-2.101.67-3.477zM46.576.973c1.803 0 3.353.365 4.648 1.099a7.12 7.12 0 0 1 2.938 3.122c.665 1.35.997 2.935.997 4.754 0 1.346-.182 2.57-.547 3.67a7.917 7.917 0 0 1-1.637 2.861 7.162 7.162 0 0 1-2.683 1.852c-1.062.428-2.276.643-3.646.643-1.361 0-2.581-.221-3.657-.66-1.076-.438-1.976-1.059-2.695-1.859-.72-.798-1.265-1.76-1.634-2.884-.366-1.124-.55-2.34-.55-3.645 0-1.337.192-2.565.575-3.682.383-1.114.94-2.065 1.667-2.85a7.215 7.215 0 0 1 2.661-1.799c1.044-.415 2.231-.622 3.563-.622zm5.009 8.953c0-1.275-.205-2.379-.616-3.313-.414-.934-1.001-1.642-1.765-2.12-.764-.478-1.64-.717-2.628-.717-.706 0-1.356.132-1.954.397a4.296 4.296 0 0 0-1.544 1.157c-.432.507-.772 1.153-1.021 1.941-.25.789-.373 1.672-.373 2.655 0 .989.123 1.882.373 2.683.249.798.601 1.463 1.057 1.988.454.527.977.92 1.567 1.181.59.262 1.236.393 1.941.393.902 0 1.733-.227 2.489-.676.755-.452 1.355-1.15 1.803-2.092.448-.94.67-2.101.67-3.477zM71.403 13.452c0 1.052-.272 1.998-.815 2.837-.54.839-1.335 1.497-2.38 1.972-1.044.474-2.285.713-3.717.713-1.717 0-3.133-.326-4.25-.975a5.641 5.641 0 0 1-1.929-1.87c-.496-.78-.743-1.538-.743-2.274 0-.427.15-.792.445-1.098.298-.304.675-.456 1.135-.456.371 0 .687.117.943.355.257.239.478.59.66 1.057.221.554.46 1.018.717 1.388.258.373.62.68 1.087.92.468.244 1.082.363 1.842.363 1.043 0 1.892-.243 2.545-.73.654-.486.98-1.094.98-1.823 0-.578-.176-1.046-.528-1.406-.353-.361-.807-.635-1.366-.825-.557-.19-1.303-.391-2.237-.606-1.253-.292-2.298-.634-3.141-1.027-.843-.392-1.512-.927-2.006-1.603-.497-.677-.744-1.518-.744-2.523 0-.959.261-1.81.784-2.553.523-.744 1.279-1.316 2.268-1.715.99-.401 2.154-.6 3.491-.6 1.068 0 1.992.132 2.772.398.78.265 1.427.618 1.942 1.057.514.438.891.9 1.128 1.382.237.483.357.955.357 1.413 0 .42-.15.798-.446 1.135a1.421 1.421 0 0 1-1.11.504c-.404 0-.712-.101-.92-.302-.211-.202-.438-.533-.683-.993-.316-.656-.697-1.169-1.141-1.536-.442-.369-1.155-.553-2.136-.553-.91 0-1.645.2-2.203.6-.559.399-.836.881-.836 1.443 0 .348.095.648.283.901.19.254.452.473.784.653a5.16 5.16 0 0 0 1.01.427c.34.104.901.254 1.686.452.982.23 1.87.483 2.666.76.795.278 1.471.614 2.03 1.01.558.394.994.895 1.306 1.5.312.607.47 1.348.47 2.228zM85.697 4.18h-3.846v12.644c0 .727-.162 1.268-.486 1.62-.327.354-.746.53-1.26.53-.522 0-.947-.179-1.275-.535-.33-.357-.495-.896-.495-1.615V4.179H74.49c-.602 0-1.05-.134-1.341-.4-.294-.262-.44-.613-.44-1.049 0-.452.152-.808.458-1.068.304-.261.746-.393 1.323-.393h11.208c.61 0 1.064.136 1.36.403.298.27.446.623.446 1.058 0 .436-.15.787-.452 1.05-.3.265-.752.4-1.354.4zM88.475 18.974c-.49 0-.914-.16-1.27-.476-.355-.317-.533-.76-.533-1.33 0-.482.17-.897.51-1.246a1.69 1.69 0 0 1 1.259-.523c.498 0 .924.173 1.276.517.35.344.527.762.527 1.252 0 .562-.176 1.003-.527 1.324-.352.32-.766.482-1.242.482zM96.086 18.974c-.49 0-.914-.16-1.27-.476-.357-.317-.533-.76-.533-1.33 0-.482.17-.897.51-1.246.339-.348.76-.523 1.259-.523.498 0 .924.173 1.274.517.353.344.53.762.53 1.252 0 .562-.177 1.003-.53 1.324a1.78 1.78 0 0 1-1.24.482z"/>
  </g>
</svg>
