<?xml version="1.0" encoding="utf-8"?>
<!-- Generator: Adobe Illustrator 16.0.0, SVG Export Plug-In . SVG Version: 6.00 Build 0)  -->
<!DOCTYPE svg PUBLIC "-//W3C//DTD SVG 1.1//EN" "http://www.w3.org/Graphics/SVG/1.1/DTD/svg11.dtd">
<svg version="1.1" id="Layer_1" xmlns="http://www.w3.org/2000/svg" xmlns:xlink="http://www.w3.org/1999/xlink" x="0px" y="0px"
	 width="1065px" height="770px" viewBox="0 0 1065 770" enable-background="new 0 0 1065 770" xml:space="preserve">
<g>
	<defs>
		<rect id="SVGID_1_" width="1065" height="770"/>
	</defs>
	<clipPath id="SVGID_2_">
		<use xlink:href="#SVGID_1_"  overflow="visible"/>
	</clipPath>
	<rect opacity="0" clip-path="url(#SVGID_2_)" fill="#FFFFFF" width="1065" height="770"/>
	<path clip-path="url(#SVGID_2_)" fill-rule="evenodd" clip-rule="evenodd" fill="#0250C1" d="M898.013,678.603
		C696.025,800,368.72,800,166.987,678.603C-35,557.47-35,360.795,166.987,239.397C368.72,118,696.025,118,898.013,239.397
		C1100,360.795,1100,557.47,898.013,678.603z"/>
	<path clip-path="url(#SVGID_2_)" fill-rule="evenodd" clip-rule="evenodd" fill="#4579EE" d="M908.471,646.219
		C700.942,771,364.312,771,156.784,646.219C-51,521.438-51,319.297,156.784,194.516C364.312,70,700.942,70,908.471,194.516
		C1116,319.297,1116,521.438,908.471,646.219z"/>
	<path clip-path="url(#SVGID_2_)" fill-rule="evenodd" clip-rule="evenodd" fill="#79BBF7" d="M781.51,570.239
		C644.02,653,420.98,653,283.49,570.239C146,487.478,146,353.522,283.49,270.761C420.98,188,644.02,188,781.51,270.761
		C919,353.522,919,487.478,781.51,570.239z"/>
	<path clip-path="url(#SVGID_2_)" fill-rule="evenodd" clip-rule="evenodd" fill="#2192F9" d="M783.104,289.631
		C924,371.021,924,502.979,783.104,584.61c-140.896,81.39-369.311,81.39-510.208,0C132,502.979,132,371.021,272.896,289.631
		C413.792,208,642.208,208,783.104,289.631"/>
	<path clip-path="url(#SVGID_2_)" fill-rule="evenodd" clip-rule="evenodd" fill="#9FCEFF" d="M783.104,270.212
		C924,351.425,924,483.335,783.104,564.547C642.208,646,413.792,646,272.896,564.547C132,483.335,132,351.425,272.896,270.212
		C413.792,189,642.208,189,783.104,270.212"/>
	<path clip-path="url(#SVGID_2_)" fill-rule="evenodd" clip-rule="evenodd" fill="#79BBF7" d="M891.413,509.732
		C712.689,609.954,712.689,609.954,712.689,609.954c-20.687,12.046-54.362,12.046-75.05,0
		C204.422,359.401,204.422,359.401,204.422,359.401c-25.498-14.455-27.422-39.992-1.924-55.411
		c174.634-100.944,174.634-100.944,174.634-100.944c20.687-12.046,53.882-8.914,74.568,3.132
		c438.27,249.349,438.27,249.349,438.27,249.349C899.592,461.309,921,491.423,891.413,509.732z"/>
	<path clip-path="url(#SVGID_2_)" fill-rule="evenodd" clip-rule="evenodd" fill="#4579EE" d="M891.413,498.796
		C712.689,598.72,712.689,598.72,712.689,598.72c-20.687,12.28-54.362,12.28-75.05,0
		C204.422,348.307,204.422,348.307,204.422,348.307c-25.498-14.206-27.422-39.97-1.924-55.139
		C377.132,192.28,377.132,192.28,377.132,192.28c20.687-12.28,53.882-8.909,74.568,3.13
		c438.27,249.209,438.27,249.209,438.27,249.209C899.592,450.398,921,480.496,891.413,498.796z"/>
	<path clip-path="url(#SVGID_2_)" fill-rule="evenodd" clip-rule="evenodd" fill="#1B1464" d="M369.156,213.485
		c1.682,0.963,1.682,0.963,1.682,0.963c6.486,3.612,6.486,9.631,0,13.483c-98.972,57.304-98.972,57.304-98.972,57.304
		c-6.486,3.612-16.815,3.612-23.061,0c-1.922-0.963-1.922-0.963-1.922-0.963c-2.883-1.926-7.928-1.926-11.05,0
		c-21.38,12.279-21.38,12.279-21.38,12.279c-13.453,7.705-13.453,20.466,0,28.17c436.246,252.572,436.246,252.572,436.246,252.572
		c13.452,7.705,35.313,7.705,48.766,0c176.084-101.848,176.084-101.848,176.084-101.848c13.452-7.945,13.452-20.466,0-28.411
		C439.302,194.705,439.302,194.705,439.302,194.705c-13.453-7.705-35.313-7.705-48.766,0c-21.38,12.28-21.38,12.28-21.38,12.28
		C366.034,208.911,366.034,211.8,369.156,213.485z"/>
	<path clip-path="url(#SVGID_2_)" fill-rule="evenodd" clip-rule="evenodd" fill="#FFFFFF" d="M876.146,446.643
		c13.466,7.703,13.466,20.461,0,28.164C699.892,576.631,699.892,576.631,699.892,576.631c-13.466,7.944-35.347,7.944-48.812,0
		C214.412,324.357,214.412,324.357,214.412,324.357c-13.466-7.944-13.466-20.461,0-28.164c21.4-12.518,21.4-12.518,21.4-12.518
		c3.126-1.685,7.935-1.685,11.061,0c1.683,1.204,1.683,1.204,1.683,1.204c6.492,3.611,16.832,3.611,23.324,0
		c99.067-57.532,99.067-57.532,99.067-57.532c6.493-3.611,6.493-9.629,0-13.24c-1.683-0.963-1.683-0.963-1.683-0.963
		c-3.126-1.926-3.126-4.814,0-6.5c21.401-12.276,21.401-12.276,21.401-12.276c13.465-7.944,35.347-7.944,48.812,0L876.146,446.643z
		 M383.933,188.11c-179.62,103.75-179.62,103.75-179.62,103.75c-17.313,10.11-17.313,26.238,0,36.349
		C645.309,582.89,645.309,582.89,645.309,582.89c17.312,10.11,45.445,10.11,62.759,0c179.62-103.75,179.62-103.75,179.62-103.75
		c17.312-10.11,17.312-26.238,0-36.349C446.692,188.11,446.692,188.11,446.692,188.11C429.379,178,401.246,178,383.933,188.11z"/>
	<path clip-path="url(#SVGID_2_)" fill-rule="evenodd" clip-rule="evenodd" fill="#4579EE" d="M326.569,242.663
		c-28.132,16.605-28.132,16.605-28.132,16.605c-1.192,0.732-3.338,0.732-4.768,0c-1.431-0.977-1.669-2.198-0.238-2.93
		c28.132-16.605,28.132-16.605,28.132-16.605c1.192-0.732,3.338-0.732,4.768,0.244C327.762,240.709,328,241.93,326.569,242.663z"/>
	<path clip-path="url(#SVGID_2_)" fill-rule="evenodd" clip-rule="evenodd" fill="#4579EE" d="M342.25,231.412
		c2.75,1.412,2.75,3.765,0,5.177c-2.5,1.412-7,1.412-9.5,0c-2.75-1.412-2.75-3.765,0-5.177C335.25,230,339.75,230,342.25,231.412z"
		/>
	<path clip-path="url(#SVGID_2_)" fill-rule="evenodd" clip-rule="evenodd" fill="#689DDD" d="M240.286,361.488
		c-8.571-5.372-8.571-5.372-8.571-5.372c-0.979-0.512-1.714-2.046-1.714-3.326c0-1.279,0.735-1.791,1.714-1.279
		c8.571,5.116,8.571,5.116,8.571,5.116c0.979,0.768,1.714,2.046,1.714,3.582l0,0C242,361.488,241.265,362,240.286,361.488z"/>
	<path clip-path="url(#SVGID_2_)" fill-rule="evenodd" clip-rule="evenodd" fill="#689DDD" d="M219.461,357
		c-4.308-2.2-4.308-2.2-4.308-2.2c-2.154-5.133-1.346-14.422,0.269-19.8c4.577,2.444,4.577,2.444,4.577,2.444
		C218.385,342.822,218.115,352.111,219.461,357z"/>
	<path clip-path="url(#SVGID_2_)" fill-rule="evenodd" clip-rule="evenodd" fill="#689DDD" d="M286.67,390.024
		c-19.34-11.708-19.34-11.708-19.34-11.708c-1.398-0.731-2.33-2.683-2.33-4.634c0-1.708,0.932-2.683,2.33-1.708
		c19.34,11.463,19.34,11.463,19.34,11.463c1.165,0.976,2.33,2.927,2.33,4.878C289,390.024,287.835,391,286.67,390.024z"/>
	<path clip-path="url(#SVGID_2_)" fill-rule="evenodd" clip-rule="evenodd" fill="#689DDD" d="M316.573,407.259
		c-20.146-11.852-20.146-11.852-20.146-11.852c-1.457-0.74-2.427-2.716-2.427-4.691c0-1.729,0.971-2.716,2.427-1.975
		c20.146,11.852,20.146,11.852,20.146,11.852c1.214,0.987,2.427,2.963,2.427,4.938C319,407.259,317.787,408,316.573,407.259z"/>
	<path clip-path="url(#SVGID_2_)" fill-rule="evenodd" clip-rule="evenodd" fill="#689DDD" d="M604,579
		c-3.84-2.392-3.84-2.392-3.84-2.392c-2.16-6.217-1.92-13.391,0-19.608c3.84,2.392,3.84,2.392,3.84,2.392
		C602.32,565.848,602.56,573.021,604,579z"/>
	<path clip-path="url(#SVGID_2_)" fill-rule="evenodd" clip-rule="evenodd" fill="#1B56BF" d="M773,555.92
		c0,1.2-0.941,2.64-2.117,3.36c-0.941,0.72-1.883,0-1.883-1.2s0.941-2.88,1.883-3.36C772.059,554,773,554.48,773,555.92z"/>
	<path clip-path="url(#SVGID_2_)" fill-rule="evenodd" clip-rule="evenodd" fill="#1B56BF" d="M821,528.458c0,1.25-0.75,2.5-2,3.125
		c-1,0.417-2,0-2-1.041c0-1.042,1-2.5,2-2.917C820.25,527,821,527.417,821,528.458z"/>
	<path clip-path="url(#SVGID_2_)" fill-rule="evenodd" clip-rule="evenodd" fill="#1B56BF" d="M762,562.25c0,2-1.137,4-2.5,5
		c-1.363,0.75-2.5,0-2.5-1.75s1.137-3.75,2.5-4.75C760.863,560,762,560.5,762,562.25z"/>
	<path clip-path="url(#SVGID_2_)" fill-rule="evenodd" clip-rule="evenodd" fill="#1B56BF" d="M753,567.424
		c0,1.697-1.137,3.637-2.5,4.606s-2.5,0.242-2.5-1.454c0-1.697,1.137-3.879,2.5-4.849C751.863,565,753,565.728,753,567.424z"/>
	<path clip-path="url(#SVGID_2_)" fill-rule="evenodd" clip-rule="evenodd" fill="#1B56BF" d="M744,572.424
		c0,1.697-1.137,3.879-2.5,4.606c-1.363,0.97-2.5,0.242-2.5-1.454c0-1.697,1.137-3.879,2.5-4.606
		C742.863,570,744,570.728,744,572.424z"/>
	<path clip-path="url(#SVGID_2_)" fill-rule="evenodd" clip-rule="evenodd" fill="#1B56BF" d="M735,577.25c0,2-1.137,4-2.5,5
		c-1.363,0.75-2.5,0-2.5-1.75s1.137-3.75,2.5-4.75C733.863,575,735,575.5,735,577.25z"/>
	<path clip-path="url(#SVGID_2_)" fill-rule="evenodd" clip-rule="evenodd" fill="#1B56BF" d="M726,582.5
		c0,1.75-1.137,3.75-2.5,4.75c-1.363,0.75-2.5,0.25-2.5-1.5c0-2,1.137-4,2.5-5C724.863,580,726,580.75,726,582.5z"/>
	<path clip-path="url(#SVGID_2_)" fill-rule="evenodd" clip-rule="evenodd" fill="#1B56BF" d="M717,587.424
		c0,1.697-1.137,3.879-2.5,4.606c-1.363,0.97-2.5,0.242-2.5-1.454c0-1.697,1.137-3.879,2.5-4.606
		C715.863,585,717,585.728,717,587.424z"/>
	<path clip-path="url(#SVGID_2_)" fill-rule="evenodd" clip-rule="evenodd" fill="#1B56BF" d="M877,495.5
		c0,1.75-1.137,3.75-2.5,4.75c-1.363,0.75-2.5,0-2.5-1.75s1.137-3.75,2.5-4.75C875.863,493,877,493.75,877,495.5z"/>
	<path clip-path="url(#SVGID_2_)" fill-rule="evenodd" clip-rule="evenodd" fill="#1B56BF" d="M869,500.424
		c0,1.697-1.363,3.879-3,4.606c-1.637,0.97-3,0.242-3-1.454c0-1.697,1.363-3.879,3-4.606C867.637,498,869,498.728,869,500.424z"/>
	<path clip-path="url(#SVGID_2_)" fill-rule="evenodd" clip-rule="evenodd" fill="#1B56BF" d="M860,505.424
		c0,1.697-1.363,3.879-3,4.606c-1.637,0.97-3,0.242-3-1.454c0-1.697,1.363-3.879,3-4.606C858.637,503,860,503.728,860,505.424z"/>
	<path clip-path="url(#SVGID_2_)" fill-rule="evenodd" clip-rule="evenodd" fill="#1B56BF" d="M851,510.5
		c0,1.75-0.909,3.75-2.5,4.75c-1.363,0.75-2.5,0-2.5-1.75s1.137-3.75,2.5-4.75C850.091,508,851,508.75,851,510.5z"/>
	<path clip-path="url(#SVGID_2_)" fill-rule="evenodd" clip-rule="evenodd" fill="#1B56BF" d="M842,516.121
		c0,1.485-1.087,3.395-2.608,4.03C838.087,521,837,520.363,837,518.879c0-1.485,1.087-3.395,2.392-4.242
		C840.913,514,842,514.637,842,516.121z"/>
	<path clip-path="url(#SVGID_2_)" fill-rule="evenodd" clip-rule="evenodd" fill="#1B56BF" d="M833,521.424
		c0,1.697-1.087,3.879-2.392,4.606c-1.521,0.97-2.608,0.242-2.608-1.454c0-1.697,1.087-3.879,2.608-4.606
		C831.913,519,833,519.728,833,521.424z"/>
	<path clip-path="url(#SVGID_2_)" fill-rule="evenodd" clip-rule="evenodd" fill="#1B56BF" d="M803.125,542.269
		c-17.011,9.756-17.011,9.756-17.011,9.756c-1.677,0.976-3.114,0-3.114-2.195s1.438-4.878,3.114-5.854
		c17.011-10,17.011-10,17.011-10c1.677-0.976,2.875,0,2.875,2.439C806,538.609,804.802,541.293,803.125,542.269z"/>
	<polygon clip-path="url(#SVGID_2_)" fill-rule="evenodd" clip-rule="evenodd" fill="#4579EE" points="213,222 187,222 199.86,196 	
		"/>
	<polygon clip-path="url(#SVGID_2_)" fill-rule="evenodd" clip-rule="evenodd" fill="#0250C1" points="198,222 172,222 184.86,248 	
		"/>
	<polygon clip-path="url(#SVGID_2_)" fill-rule="evenodd" clip-rule="evenodd" fill="#4579EE" points="909,248 869,248 889.069,222 
			"/>
	<polygon clip-path="url(#SVGID_2_)" fill-rule="evenodd" clip-rule="evenodd" fill="#0250C1" points="886,248 846,248 866,274 	"/>
	<polygon clip-path="url(#SVGID_2_)" fill-rule="evenodd" clip-rule="evenodd" fill="#4579EE" points="521,617 487,617 504,593 	"/>
	<polygon clip-path="url(#SVGID_2_)" fill-rule="evenodd" clip-rule="evenodd" fill="#0250C1" points="501,617 467,617 484.07,642 	
		"/>
	<polygon clip-path="url(#SVGID_2_)" fill-rule="evenodd" clip-rule="evenodd" fill="#4579EE" points="353,322.243 507.354,232 
		785,392.725 630.783,482 	"/>
	<polygon clip-path="url(#SVGID_2_)" fill-rule="evenodd" clip-rule="evenodd" fill="#DCEBF7" points="430,294.371 600,392 
		600,231.905 430,134 	"/>
	<polygon clip-path="url(#SVGID_2_)" fill-rule="evenodd" clip-rule="evenodd" fill="#4579EE" points="384,71.379 507.241,0 
		754,142.759 630.621,214 	"/>
	<path clip-path="url(#SVGID_2_)" fill-rule="evenodd" clip-rule="evenodd" fill="#548BEA" d="M600.039,410.585L414.685,303.34
		V124.691l185.354,107.106V410.585z M384,71v250.191L631,464V213.947L384,71z"/>
	<polygon clip-path="url(#SVGID_2_)" fill-rule="evenodd" clip-rule="evenodd" fill="#165AD3" points="631,214.303 754,143 
		754,392.836 631,464 	"/>
	<polygon clip-path="url(#SVGID_2_)" fill-rule="evenodd" clip-rule="evenodd" fill="#2E70E5" points="708,151.625 630.862,196 
		430,80.375 507.276,36 	"/>
	<polygon clip-path="url(#SVGID_2_)" fill-rule="evenodd" clip-rule="evenodd" fill="#548BEA" points="723,303 723,411 708,401.942 
		708,312.058 	"/>
	<polygon clip-path="url(#SVGID_2_)" fill-rule="evenodd" clip-rule="evenodd" fill="#4579EE" points="723,411 677,438 677,419.861 
		707.575,402 	"/>
	<polygon clip-path="url(#SVGID_2_)" fill-rule="evenodd" clip-rule="evenodd" fill="#0250C1" points="708,312 708,401.167 677,419 
		677,329.695 	"/>
	<polygon clip-path="url(#SVGID_2_)" fill-rule="evenodd" clip-rule="evenodd" fill="#2E70E5" points="600,411 414,303.849 
		429.535,295 600,392.888 	"/>
	<polygon clip-path="url(#SVGID_2_)" fill-rule="evenodd" clip-rule="evenodd" fill="#165AD3" points="430,133.824 430,294.176 
		414,303 414,125 	"/>
	<polygon clip-path="url(#SVGID_2_)" fill-rule="evenodd" clip-rule="evenodd" fill="#548BEA" points="353,322 353,338.913 631,500 
		631,482.256 	"/>
	<polygon clip-path="url(#SVGID_2_)" fill-rule="evenodd" clip-rule="evenodd" fill="#165AD3" points="785,393 785,410.833 631,500 
		631,482.305 	"/>
	<polygon clip-path="url(#SVGID_2_)" fill-rule="evenodd" clip-rule="evenodd" fill="#165AD3" points="429.523,80 414,71.1 507,17 
		507,35.219 	"/>
	<polygon clip-path="url(#SVGID_2_)" fill-rule="evenodd" clip-rule="evenodd" fill="#548BEA" points="507,17 723,143.093 
		707.532,152 507,35.232 	"/>
	<polygon clip-path="url(#SVGID_2_)" fill-rule="evenodd" clip-rule="evenodd" fill="#9FCEFF" points="383.774,71 337,151.329 
		399.226,187 446,106.533 	"/>
	<path clip-path="url(#SVGID_2_)" fill-rule="evenodd" clip-rule="evenodd" fill="#79BBF7" d="M337,152c0,17.28,0,17.28,0,17.28
		c0,11.28,6.031,21.84,15.922,27.6c29.673,16.8,29.673,16.8,29.673,16.8C389.833,218,399,212.72,399,204.32c0-16.8,0-16.8,0-16.8
		L337,152z"/>
	<polygon clip-path="url(#SVGID_2_)" fill-rule="evenodd" clip-rule="evenodd" fill="#1B1464" points="445.404,107 399,187.276 
		460.734,223 507,142.862 	"/>
	<path clip-path="url(#SVGID_2_)" fill-rule="evenodd" clip-rule="evenodd" fill="#0E0C51" d="M399,187c0,17.28,0,17.28,0,17.28
		c0,11.28,6.031,21.84,16.164,27.6c29.432,17.04,29.432,17.04,29.432,17.04c7.237,4.08,16.405-1.2,16.405-9.36c0-16.8,0-16.8,0-16.8
		L399,187z"/>
	<polygon clip-path="url(#SVGID_2_)" fill-rule="evenodd" clip-rule="evenodd" fill="#9FCEFF" points="507.266,143 461,223.425 
		522.734,259 569,178.575 	"/>
	<path clip-path="url(#SVGID_2_)" fill-rule="evenodd" clip-rule="evenodd" fill="#79BBF7" d="M461,223c0,17.04,0,17.04,0,17.04
		c0,11.52,6.031,22.08,16.164,27.84c29.432,16.8,29.432,16.8,29.432,16.8C513.833,289,523,283.72,523,275.32c0-16.8,0-16.8,0-16.8
		L461,223z"/>
	<polygon clip-path="url(#SVGID_2_)" fill-rule="evenodd" clip-rule="evenodd" fill="#1B1464" points="569.266,178 523,258.829 
		584.734,295 631,214.032 	"/>
	<path clip-path="url(#SVGID_2_)" fill-rule="evenodd" clip-rule="evenodd" fill="#0E0C51" d="M523,259c0,17.28,0,17.28,0,17.28
		c0,11.28,6.031,21.84,16.163,27.6c29.433,17.04,29.433,17.04,29.433,17.04c7.237,4.08,16.404-1.2,16.404-9.6
		c0-16.56,0-16.56,0-16.56L523,259z"/>
	<polygon clip-path="url(#SVGID_2_)" fill-rule="evenodd" clip-rule="evenodd" fill="#090949" points="585,295 631,267.861 631,214 
			"/>
	<path clip-path="url(#SVGID_2_)" fill-rule="evenodd" clip-rule="evenodd" fill="#F2F2F2" d="M607.358,449.912L607.358,449.912
		c-0.241-2.643-2.885-4.563-5.529-4.083c-0.48,0-0.962,0-1.442,0.239c-3.365,0.48-6.972,0.721-10.337,1.201
		c-0.721,0-1.442,0.24-1.923,0.48c-0.481,0-1.202-0.24-1.683,0c-1.202,0-2.404,0.24-3.606,0.24c-0.721,0.24-1.442,0.24-1.923,0.48
		c-0.48,0-1.202-0.24-1.683,0c-1.683,0-3.365,0.24-5.049,0.24l0,0c-9.375,0.961-18.75,1.441-28.126,1.441l0,0
		c-3.846,0.24-7.692,0.24-11.538,0.24l0,0c-3.606,0-7.453,0-11.059-0.24c-2.644,0-4.808,2.161-4.808,4.804
		c-0.24,2.642,1.923,4.804,4.567,5.044c3.846,0,7.692,0,11.299,0l0,0c9.135,0,18.029-0.24,27.164-0.721l0,0
		c6.01-0.24,12.26-0.721,18.27-1.201c0.722-0.24,1.202-0.24,1.924-0.721c0.48,0.24,1.201,0.24,1.683,0.24
		c1.442,0,2.644-0.24,3.846-0.24c0.24-0.239,0.722-0.239,0.962-0.239c0.24-0.24,0.48-0.24,0.721-0.48
		c0.722,0.24,1.202,0.24,1.924,0.24c4.086-0.48,8.173-0.961,12.26-1.441C605.916,454.956,607.599,452.554,607.358,449.912z
		 M490.768,448.471c-3.846-0.24-7.933-0.721-12.02-1.201c-0.48,0-1.202,0-1.683,0.24c-0.721-0.48-1.202-0.48-1.923-0.721
		c-1.202,0-2.404-0.24-3.605-0.479c-0.481,0-1.202,0-1.683,0.239c-0.721-0.239-1.202-0.48-1.923-0.72
		c-18.751-2.402-37.021-6.245-54.569-10.81c-2.404-0.72-5.048,0.721-5.77,3.363c-0.721,2.642,0.721,5.284,3.366,6.005
		c17.789,4.563,36.54,8.406,55.771,11.049c0.481,0,1.202,0,1.923,0c0.48,0.24,0.961,0.48,1.683,0.48
		c1.202,0.24,2.404,0.24,3.606,0.48c0.721,0,1.442,0,1.923-0.24c0.721,0.48,1.202,0.48,1.923,0.721
		c4.086,0.479,8.173,0.72,12.26,1.2c0,0,0.241,0,0.481,0c2.404,0,4.567-1.921,4.808-4.323
		C495.576,451.113,493.412,448.711,490.768,448.471z M715.054,418.927c-0.48-1.2-1.202-1.921-2.163-2.401l0,0
		c-1.202-0.721-2.885-0.721-4.087,0c-3.847,1.441-7.452,3.122-11.299,4.563c-0.48,0.24-0.961,0.48-1.442,0.961
		c-0.721,0-1.201,0.24-1.923,0.48c-0.961,0.24-2.163,0.721-3.365,1.201c-0.48,0.239-0.962,0.479-1.442,0.96
		c-0.722,0-1.202,0-1.923,0.24c-3.125,1.201-6.491,2.402-9.856,3.604c-13.942,4.563-28.366,8.406-43.511,11.529
		c-1.202,0.24-2.164,1.2-2.885,2.161c-0.722,0.961-0.962,2.402-0.722,3.604c0,0.72,0.24,1.2,0.722,1.681
		c0.961,1.441,2.403,2.162,3.846,2.162c0.481,0,0.722,0,1.202,0c12.02-2.643,23.799-5.765,35.338-9.128l0,0
		c6.49-2.161,12.981-4.323,19.231-6.484c0.721-0.24,1.202-0.721,1.683-0.961c0.48,0,1.202-0.24,1.683-0.48
		c1.202-0.24,2.404-0.721,3.606-1.201c0.48-0.24,1.201-0.721,1.683-0.961c0.48,0,1.202-0.24,1.683-0.48
		c3.846-1.44,7.692-3.122,11.539-4.804C715.054,424.211,716.016,421.329,715.054,418.927z M382.351,425.172
		c-3.846-1.201-7.452-2.642-11.298-4.323c-0.481-0.24-1.202-0.24-1.683-0.24l0,0c-0.481-0.48-0.961-0.721-1.683-0.961
		c-0.962-0.48-2.164-0.96-3.366-1.44c-0.481-0.24-0.961-0.48-1.683-0.48c-0.481-0.48-0.962-0.721-1.442-0.961
		c-10.337-4.563-19.953-9.368-29.087-14.652c-6.731-3.843-13.222-7.926-19.231-12.249c-2.164-1.441-5.048-0.961-6.731,1.2
		c-1.442,2.162-0.962,5.284,1.202,6.726c6.25,4.323,12.981,8.647,19.953,12.73c9.375,5.284,19.472,10.328,30.049,15.132
		c0.48,0.24,1.202,0.24,1.683,0.24c0.481,0.48,0.961,0.961,1.683,1.201c1.202,0.48,2.164,0.961,3.366,1.441
		c0.721,0.24,1.202,0.24,1.923,0.24c0.481,0.48,0.962,0.96,1.442,1.2c3.846,1.441,7.693,2.883,11.779,4.324
		c0.481,0.24,0.962,0.24,1.442,0.24c2.164,0,3.846-1.201,4.567-3.123C386.197,429.016,384.995,426.133,382.351,425.172z
		 M803.037,350.953c-1.923-1.441-5.048-1.201-6.73,0.961c-2.163,3.123-4.808,6.245-7.452,9.127c-0.48,0.48-0.722,0.96-0.962,1.681
		c-0.48,0.24-0.961,0.48-1.442,0.961c-0.721,0.96-1.683,1.681-2.403,2.642c-0.48,0.48-0.722,0.96-0.962,1.441
		c-0.48,0.24-1.202,0.721-1.442,1.201c-4.567,4.323-9.375,8.647-14.664,12.73c-3.846,3.123-7.933,6.245-12.26,9.127
		c-5.289,3.844-11.058,7.446-17.068,10.809c-0.721,0.48-1.201,0.961-1.441,1.441l0,0c-1.202,1.682-1.202,3.604-0.241,5.284
		c0.722,1.441,2.404,2.402,4.087,2.402c0.721,0,1.683-0.24,2.404-0.721c12.26-7.206,23.559-14.892,33.414-23.299
		c4.327-3.603,8.654-7.206,12.501-11.049c0.48-0.48,0.721-0.96,0.961-1.681c0.722-0.24,1.202-0.48,1.683-0.961
		c0.722-0.96,1.684-1.921,2.404-2.882c0.48-0.48,0.962-0.96,1.202-1.441c0.48-0.24,0.961-0.721,1.442-1.201
		c2.885-3.123,5.529-6.485,7.933-9.848C805.682,355.517,805.201,352.634,803.037,350.953z M288.117,369.448
		c-2.884-2.882-5.529-5.765-8.173-8.647c-0.48-0.48-0.961-0.721-1.442-0.961c-0.24-0.721-0.48-1.201-0.961-1.681
		c-0.721-0.961-1.442-1.922-2.164-2.642c-0.48-0.721-0.961-0.961-1.442-1.201c0-0.721-0.48-1.201-0.721-1.681
		c-11.779-15.373-19.231-31.706-22.116-48.519c-0.481-2.642-3.125-4.323-5.77-3.843c-2.404,0.48-4.327,2.882-3.846,5.524
		c3.125,18.255,11.298,36.029,24.039,52.603c0.481,0.48,0.961,0.96,1.442,1.441c0.24,0.48,0.481,0.961,0.961,1.681
		c0.721,0.961,1.442,1.922,2.404,2.882c0.48,0.48,0.961,0.961,1.442,1.201c0.241,0.48,0.481,1.201,0.962,1.681
		c2.644,2.882,5.529,6.005,8.654,9.127c0.962,0.721,2.164,1.201,3.366,1.201s2.404-0.48,3.365-1.441
		C290.04,374.251,290.04,371.369,288.117,369.448z M827.558,270.488c0-0.721-0.24-1.201-0.721-1.921c0.24-0.48,0.24-1.201,0-1.921
		c-0.241-1.201-0.481-2.402-0.962-3.603c0-0.721-0.24-1.441-0.722-1.921c0-0.48,0-1.201-0.24-1.922
		c-0.961-3.843-2.403-7.926-4.086-12.009c-0.962-2.402-3.847-3.603-6.251-2.642c-2.645,1.201-3.605,3.843-2.645,6.245
		c1.443,3.843,2.645,7.446,3.847,11.048c0.24,0.721,0.48,1.201,0.722,1.682c0,0.48,0,1.201,0.24,1.681
		c0.24,1.201,0.48,2.402,0.721,3.603c0,0.48,0.24,0.96,0.722,1.441c-0.24,0.721-0.24,1.201,0,1.922
		c0.721,5.284,1.202,10.568,1.202,15.853c0,12.25-2.404,24.5-7.212,36.509c-0.962,2.402,0.24,5.284,2.644,6.245
		c0.481,0.24,1.202,0.48,1.684,0.48c1.923,0,3.846-1.201,4.567-3.123c5.288-12.97,7.933-26.661,7.933-40.112
		C829,282.258,828.52,276.253,827.558,270.488z M287.396,200.593c-1.683-1.922-4.808-1.922-6.731,0
		c-14.905,14.651-25.963,30.744-32.694,47.558c-0.24,0.48-0.48,1.201-0.48,1.922c-0.241,0.24-0.721,0.96-0.962,1.441
		c-0.48,1.201-0.721,2.402-1.202,3.603c-0.24,0.721-0.24,1.441-0.24,2.162c-0.481,0.48-0.721,0.961-0.962,1.681
		c-1.202,4.083-2.164,8.167-2.885,12.49c-0.24,2.402,1.442,5.044,4.087,5.524c0.24,0,0.48,0,0.721,0
		c2.404,0,4.327-1.682,4.808-4.083c0.721-3.843,1.442-7.686,2.645-11.289c0-0.72,0.24-1.201,0-1.681
		c0.481-0.48,0.721-1.201,0.961-1.681c0.24-1.201,0.721-2.162,1.202-3.363c0.24-0.48,0.24-1.201,0.24-1.682
		c0.481-0.48,0.721-0.96,0.961-1.441c6.25-15.612,16.587-30.504,30.53-44.436C289.319,205.396,289.319,202.514,287.396,200.593z
		 M803.519,217.646c-10.817-13.931-24.761-27.382-41.828-39.151c-0.481-0.48-0.962-0.72-1.683-0.96
		c-0.241-0.48-0.722-0.961-1.202-1.201c-1.202-0.721-2.164-1.441-3.125-2.162c-0.481-0.24-0.722-0.24-0.962-0.48
		c0,11.289,0,11.289,0,11.289c0.24,0,0.24,0,0.24,0c0.24,0.48,0.722,0.96,1.202,1.201c16.106,11.529,29.568,24.019,39.665,37.47
		c0.961,1.201,2.403,1.921,3.846,1.921c1.202,0,2.164-0.48,3.125-0.96C804.721,222.931,805.201,219.808,803.519,217.646z
		 M337.638,169.127c0-9.127,0-9.127,0-9.127c-3.606,1.921-6.971,3.843-10.337,5.765c-0.721,0.48-0.721,0.48-0.721,0.48
		c-0.721,0.24-1.202,0.721-1.442,1.201c-0.721,0-1.202,0.24-1.923,0.48c-0.961,0.721-2.164,1.441-3.125,1.921
		c-0.48,0.48-0.961,0.961-1.442,1.441c-0.481,0-1.202,0.24-1.683,0.721c-3.606,2.162-6.971,4.563-10.337,6.965
		c-2.164,1.441-2.644,4.564-1.202,6.726c0.961,1.201,2.404,1.921,3.846,1.921c0.961,0,2.164-0.24,2.885-0.961
		c3.125-2.162,6.491-4.323,9.856-6.485c0.721-0.48,0.961-0.961,1.442-1.441c0.481,0,1.202-0.24,1.683-0.48
		c0.962-0.72,2.164-1.441,3.125-1.921c0.48-0.48,0.961-0.721,1.442-1.201c0.481-0.24,0.962-0.48,1.683-0.72
		c0.721-0.48,0.721-0.48,0.721-0.48c1.683-0.961,3.606-1.921,5.529-3.123C337.638,170.328,337.638,169.608,337.638,169.127z"/>
	<path clip-path="url(#SVGID_2_)" fill-rule="evenodd" clip-rule="evenodd" fill="#4579EE" d="M293.889,410.629
		c-31.777-18.301-31.777-18.301-31.777-18.301C256.333,389.198,252,380.53,252,373.065c0-33.229,0-33.229,0-33.229
		c0-7.465,4.333-10.836,10.111-7.706c31.777,18.541,31.777,18.541,31.777,18.541c5.537,3.13,10.111,11.799,10.111,19.263
		c0,33.229,0,33.229,0,33.229C304,410.629,299.426,414,293.889,410.629z"/>
	<path clip-path="url(#SVGID_2_)" fill-rule="evenodd" clip-rule="evenodd" fill="#0250C1" d="M283.889,412.87
		c-31.777-18.301-31.777-18.301-31.777-18.301C246.574,391.198,242,382.53,242,375.065c0-32.989,0-32.989,0-32.989
		c0-7.465,4.574-11.077,10.111-7.706c31.777,18.3,31.777,18.3,31.777,18.3c5.778,3.371,10.111,12.04,10.111,19.263
		c0,33.229,0,33.229,0,33.229C294,412.629,289.667,416,283.889,412.87z"/>
	<path clip-path="url(#SVGID_2_)" fill-rule="evenodd" clip-rule="evenodd" fill="#9FCEFF" d="M263.456,386.588
		c-0.491-0.471-0.982-0.235-0.982,0.471c0,0.471,0.491,1.177,0.982,1.647c9.088,4.941,9.088,4.941,9.088,4.941
		c0.491,0.235,0.982,0,0.982-0.471c0-0.706-0.491-1.412-0.982-1.647L263.456,386.588z M272.544,395.294
		c-9.088-4.941-9.088-4.941-9.088-4.941c-1.228-0.705-2.456-2.588-2.456-4.235c0-1.411,1.228-2.117,2.456-1.411
		c9.088,5.177,9.088,5.177,9.088,5.177c1.474,0.705,2.456,2.588,2.456,4C275,395.529,274.018,396,272.544,395.294z"/>
	<path clip-path="url(#SVGID_2_)" fill-rule="evenodd" clip-rule="evenodd" fill="#9FCEFF" d="M263.456,382.353
		c-0.491-0.235-0.982,0-0.982,0.706c0,0.471,0.491,1.177,0.982,1.412c9.088,5.177,9.088,5.177,9.088,5.177
		c0.491,0.235,0.982,0,0.982-0.706c0-0.471-0.491-1.177-0.982-1.412L263.456,382.353z M272.544,391.294
		c-9.088-4.941-9.088-4.941-9.088-4.941c-1.228-0.94-2.456-2.823-2.456-4.235s1.228-2.118,2.456-1.412
		c9.088,4.941,9.088,4.941,9.088,4.941c1.474,0.94,2.456,2.823,2.456,4.235C275,391.294,274.018,392,272.544,391.294z"/>
	<path clip-path="url(#SVGID_2_)" fill-rule="evenodd" clip-rule="evenodd" fill="#9FCEFF" d="M268.116,396.457
		c-2.326-1.285-4.186-4.371-5.116-7.457c1.396,0.257,1.396,0.257,1.396,0.257c0.697,2.058,2.093,4.372,3.721,5.4
		s3.023,0.515,3.488-0.771c1.396,1.286,1.396,1.286,1.396,1.286C272.302,397.485,270.209,398,268.116,396.457z"/>
	<path clip-path="url(#SVGID_2_)" fill-rule="evenodd" clip-rule="evenodd" fill="#9FCEFF" d="M263.443,381.516
		c-1.432-0.954-1.432-0.954-1.432-0.954c0-0.954-0.477-2.385-1.67-4.054c-2.147-3.577-3.341-7.631-3.341-10.969
		c0-6.677,4.534-9.539,10.5-6.2c5.728,3.338,10.5,11.446,10.5,18.123c0,3.577-1.193,5.961-3.58,7.154l0,0
		c-0.955,0.477-1.432,1.192-1.432,2.385c-1.432-0.954-1.432-0.954-1.432-0.954c0-1.431,0.478-2.623,1.909-3.338
		c0,0.239,0,0.239,0,0.239c0-0.239,0-0.239,0-0.239c1.909-0.954,3.103-3.1,3.103-5.961c0-5.723-4.057-12.877-9.068-15.738
		c-5.011-2.862-9.068-0.477-9.068,5.246c0,3.1,1.193,6.438,3.103,9.539C262.728,378.177,263.443,380.084,263.443,381.516z"/>
	<path clip-path="url(#SVGID_2_)" fill-rule="evenodd" clip-rule="evenodd" fill="#9FCEFF" d="M269.704,385
		c-1.555-1.187-1.555-1.187-1.555-1.187c1.037-7.593,1.037-7.593,1.037-7.593c-0.259,0-0.259,0-0.259,0
		c-0.519-0.237-1.037-0.712-1.555-1.424c-0.259,0-0.519,0-0.778,0c-0.259-0.237-0.519-0.237-0.778-0.475
		c1.037,9.017,1.037,9.017,1.037,9.017c-1.555-0.712-1.555-0.712-1.555-0.712C264,371.712,264,371.712,264,371.712
		c0-0.475,0.259-0.712,0.519-0.712c0.259,0.237,0.778,0.475,1.037,0.949c0,0,0.259,0.712,0.778,0.949c0.259,0.237,0.518,0,0.518,0
		c0-0.475,0.26-0.475,0.778-0.237c0.259,0.237,0.519,0.475,0.778,0.949c0,0.237,0.259,0.711,0.259,0.711
		c0.519,0,0.778-0.237,1.037-0.237c0-0.237,0.519,0,0.778,0.237c0.519,0.237,0.519,0.712,0.519,1.187L269.704,385z"/>
	<path clip-path="url(#SVGID_2_)" fill-rule="evenodd" clip-rule="evenodd" fill="#9FCEFF" d="M273.963,372.775
		c-0.259,0-0.519-0.45-0.778-0.9c-0.519-2.25-2.074-4.275-4.667-6.075c-0.259-0.45-0.519-0.9-0.519-1.35
		c0.259-0.45,0.519-0.45,1.037,0c3.111,2.25,4.926,4.95,5.704,7.875c0.259,0.45,0,0.675-0.519,0.675L273.963,372.775z"/>
	<path clip-path="url(#SVGID_2_)" fill-rule="evenodd" clip-rule="evenodd" fill="#9FCEFF" d="M254.28,365.762
		c-4.56-2.619-4.56-2.619-4.56-2.619c-0.48-0.238-0.72-0.953-0.72-1.429s0.24-0.714,0.72-0.476c4.56,2.619,4.56,2.619,4.56,2.619
		c0.48,0.238,0.72,0.953,0.72,1.429S254.76,366,254.28,365.762z"/>
	<path clip-path="url(#SVGID_2_)" fill-rule="evenodd" clip-rule="evenodd" fill="#9FCEFF" d="M285.28,383.75
		c-4.56-2.75-4.56-2.75-4.56-2.75c-0.48-0.25-0.72-0.75-0.72-1.25s0.24-0.75,0.72-0.5c4.56,2.75,4.56,2.75,4.56,2.75
		c0.48,0.25,0.72,0.75,0.72,1.25S285.76,384,285.28,383.75z"/>
	<path clip-path="url(#SVGID_2_)" fill-rule="evenodd" clip-rule="evenodd" fill="#9FCEFF" d="M276.965,368
		c-0.241-0.238-0.482-0.238-0.724-0.476c-0.241-0.714-0.241-1.19,0-1.429c5.552-2.857,5.552-2.857,5.552-2.857
		c0.242-0.238,0.724,0,0.966,0.476c0.241,0.476,0.241,1.19,0,1.19C277.448,368,277.448,368,277.448,368
		C277.207,368,276.965,368,276.965,368z"/>
	<path clip-path="url(#SVGID_2_)" fill-rule="evenodd" clip-rule="evenodd" fill="#9FCEFF" d="M268,358.742
		c-0.667-0.258-1-1.032-1-1.548c0-5.677,0-5.677,0-5.677c0-0.516,0.333-0.516,1-0.258c0.333,0.258,1,0.774,1,1.29
		c0,5.677,0,5.677,0,5.677C269,358.742,268.333,359,268,358.742z"/>
	<path clip-path="url(#SVGID_2_)" fill-rule="evenodd" clip-rule="evenodd" fill="#9FCEFF" d="M258.276,357.766
		c-0.241,0-0.483-0.234-0.483-0.468c-5.31-9.127-5.31-9.127-5.31-9.127c-0.483-0.468-0.483-0.937,0-1.17
		c0.241,0,0.724,0.234,0.965,0.702c5.311,8.894,5.311,8.894,5.311,8.894c0.241,0.468,0.241,1.17,0,1.17
		C258.759,358,258.517,357.766,258.276,357.766z"/>
	<path clip-path="url(#SVGID_2_)" fill-rule="evenodd" clip-rule="evenodd" fill="#0250C1" d="M843.488,334.381
		c-36.216-20.993-36.216-20.993-36.216-20.993C801.037,309.527,796,299.634,796,291.189c0-37.883,0-37.883,0-37.883
		c0-8.445,5.037-12.306,11.272-8.687c36.216,20.993,36.216,20.993,36.216,20.993c6.475,3.62,11.512,13.513,11.512,22.199
		c0,37.642,0,37.642,0,37.642C855,334.139,849.963,338,843.488,334.381z"/>
	<path clip-path="url(#SVGID_2_)" fill-rule="evenodd" clip-rule="evenodd" fill="#9FCEFF" d="M833.525,279.75
		c-0.238,0-0.476-0.5-0.476-0.75c0-1,0-1,0-1c0-2.75-1.899-6.5-4.274-7.75c-8.312-5-8.312-5-8.312-5
		c-2.375-1.5-4.275-0.25-4.275,2.5c0,0.75,0,0.75,0,0.75c0,0.5-0.237,0.5-0.713,0.5c-0.237-0.25-0.475-0.75-0.475-1
		c0-0.75,0-0.75,0-0.75c0-3.75,2.375-5.25,5.463-3.25c8.312,5,8.312,5,8.312,5c2.85,1.75,5.225,6,5.225,9.75c0,0.75,0,0.75,0,0.75
		C834,280,833.763,280,833.525,279.75z"/>
	<path clip-path="url(#SVGID_2_)" fill-rule="evenodd" clip-rule="evenodd" fill="#9FCEFF" d="M831.509,278
		c-0.491-0.25-0.737-0.75-0.737-1c0-0.75,0-0.75,0-0.75c0-1-0.736-2.5-1.719-3c-8.351-5-8.351-5-8.351-5c-0.982-0.5-1.72,0-1.72,1
		c0,0.75,0,0.75,0,0.75c0,0.5-0.246,0.5-0.491,0.25c-0.245,0-0.491-0.5-0.491-0.75c0-0.75,0-0.75,0-0.75c0-2,1.229-2.75,2.702-1.75
		c8.351,5,8.351,5,8.351,5c1.719,0.75,2.947,3,2.947,5c0,0.5,0,0.5,0,0.5C832,278,831.754,278,831.509,278z"/>
	<path clip-path="url(#SVGID_2_)" fill-rule="evenodd" clip-rule="evenodd" fill="#9FCEFF" d="M814.412,268.633
		c-0.235-0.233-0.471,0-0.471,0.233s0.235,0.467,0.471,0.7c4.941,2.8,4.941,2.8,4.941,2.8c0.234,0.233,0.47,0,0.47-0.233
		s-0.235-0.7-0.47-0.7L814.412,268.633z M819.354,273.533c-4.941-2.8-4.941-2.8-4.941-2.8c-0.706-0.467-1.412-1.633-1.412-2.567
		c0-0.933,0.706-1.167,1.412-0.7c4.941,2.8,4.941,2.8,4.941,2.8c0.94,0.467,1.646,1.633,1.646,2.567
		C821,273.767,820.294,274,819.354,273.533z"/>
	<path clip-path="url(#SVGID_2_)" fill-rule="evenodd" clip-rule="evenodd" fill="#9FCEFF" d="M830.412,276.807
		c-0.235,0-0.471,0-0.471,0.258c0,0.516,0.235,0.774,0.471,1.032c5.176,3.097,5.176,3.097,5.176,3.097
		c0.235,0.258,0.235,0,0.235-0.258c0-0.258,0-0.774-0.235-0.774L830.412,276.807z M835.588,282.484
		c-5.176-3.097-5.176-3.097-5.176-3.097c-0.706-0.516-1.412-1.807-1.412-2.839s0.706-1.548,1.412-1.032
		c5.176,3.355,5.176,3.355,5.176,3.355c0.706,0.516,1.412,1.548,1.412,2.581S836.294,283,835.588,282.484z"/>
	<path clip-path="url(#SVGID_2_)" fill-rule="evenodd" clip-rule="evenodd" fill="#9FCEFF" d="M808.084,266.636
		c-1.682-1.198-3.123-0.24-3.123,1.678c0,25.645,0,25.645,0,25.645c0,2.157,1.441,4.554,3.123,5.513
		c34.592,19.893,34.592,19.893,34.592,19.893c1.922,1.198,3.363,0.24,3.363-1.678c0-25.645,0-25.645,0-25.645
		c0-2.157-1.441-4.554-3.363-5.513L808.084,266.636z M842.676,320.802c-34.592-19.893-34.592-19.893-34.592-19.893
		c-2.162-1.438-4.084-4.793-4.084-7.43c0-25.645,0-25.645,0-25.645c0-2.876,1.922-3.834,4.084-2.636
		c34.592,19.893,34.592,19.893,34.592,19.893c2.402,1.438,4.324,4.793,4.324,7.43c0,25.645,0,25.645,0,25.645
		C847,321.042,845.078,322,842.676,320.802z"/>
	<path clip-path="url(#SVGID_2_)" fill-rule="evenodd" clip-rule="evenodd" fill="#9FCEFF" d="M830.51,297
		c-11.02-6.5-11.02-6.5-11.02-6.5c-0.245-0.25-0.49-0.75-0.49-1c0-0.5,0.245-0.5,0.49-0.25c11.02,6.25,11.02,6.25,11.02,6.25
		c0.245,0.25,0.49,0.75,0.49,1C831,297,830.755,297,830.51,297z"/>
	<path clip-path="url(#SVGID_2_)" fill-rule="evenodd" clip-rule="evenodd" fill="#9FCEFF" d="M839.878,301.768
		c-5.388-3.018-5.388-3.018-5.388-3.018c-0.245,0-0.49-0.464-0.49-0.929c0-0.232,0.245-0.464,0.49-0.232
		c5.143,2.786,5.143,2.786,5.143,2.786c5.388-11.143,5.388-11.143,5.388-11.143c0-0.232,0.245-0.232,0.734,0
		c0.245,0.232,0.245,0.697,0.245,0.929c-5.633,11.607-5.633,11.607-5.633,11.607C840.367,302,840.122,302,839.878,301.768z"/>
	<path clip-path="url(#SVGID_2_)" fill-rule="evenodd" clip-rule="evenodd" fill="#9FCEFF" d="M815.52,287.769
		c-5.52-3.011-5.52-3.011-5.52-3.011c0-0.231-0.24-0.463-0.48-0.695c-5.279-17.6-5.279-17.6-5.279-17.6
		c-0.24-0.232,0-0.463,0.24-0.463c0.239,0,0.479,0.231,0.72,0.695c5.28,17.137,5.28,17.137,5.28,17.137
		c5.039,2.779,5.039,2.779,5.039,2.779c0.24,0,0.48,0.463,0.48,0.926C816,287.769,815.76,288,815.52,287.769z"/>
	<path clip-path="url(#SVGID_2_)" fill-rule="evenodd" clip-rule="evenodd" fill="#9FCEFF" d="M829.487,281.741
		c-8.975-5.185-8.975-5.185-8.975-5.185c-0.256-0.259-0.513-0.778-0.513-1.037s0.257-0.519,0.513-0.259
		c8.975,5.185,8.975,5.185,8.975,5.185c0.256,0.259,0.513,0.519,0.513,1.037C830,281.741,829.743,282,829.487,281.741z"/>
	<path clip-path="url(#SVGID_2_)" fill-rule="evenodd" clip-rule="evenodd" fill="#9FCEFF" d="M815.952,290.818
		c3.096,1.591,3.096,1.591,3.096,1.591c0-5.228,0-5.228,0-5.228c-3.096-1.591-3.096-1.591-3.096-1.591V290.818z M819.523,293.772
		c-4.047-2.045-4.047-2.045-4.047-2.045c-0.238-0.228-0.477-0.682-0.477-0.909c0-6.364,0-6.364,0-6.364
		c0-0.227,0.238-0.455,0.477-0.227c4.047,2.272,4.047,2.272,4.047,2.272c0.238,0,0.477,0.455,0.477,0.682c0,6.364,0,6.364,0,6.364
		C820,294,819.762,294,819.523,293.772z"/>
	<path clip-path="url(#SVGID_2_)" fill-rule="evenodd" clip-rule="evenodd" fill="#9FCEFF" d="M830.952,299.25
		c3.096,2,3.096,2,3.096,2c0-5.75,0-5.75,0-5.75c-3.096-1.75-3.096-1.75-3.096-1.75V299.25z M834.523,302.75
		c-4.047-2.5-4.047-2.5-4.047-2.5c-0.238,0-0.477-0.5-0.477-1c0-6.75,0-6.75,0-6.75c0-0.5,0.238-0.5,0.477-0.25
		c4.047,2.25,4.047,2.25,4.047,2.25c0.238,0.25,0.477,0.75,0.477,1c0,7,0,7,0,7C835,302.75,834.762,303,834.523,302.75z"/>
	<path clip-path="url(#SVGID_2_)" fill-rule="evenodd" clip-rule="evenodd" fill="#9FCEFF" d="M823.283,304.768
		c-14.806-8.372-14.806-8.372-14.806-8.372c-0.239,0-0.478-0.465-0.478-0.931c0-0.232,0.238-0.465,0.478-0.232
		c14.806,8.372,14.806,8.372,14.806,8.372c0.479,0.233,0.717,0.698,0.717,0.931C824,305,823.762,305,823.283,304.768z"/>
	<path clip-path="url(#SVGID_2_)" fill-rule="evenodd" clip-rule="evenodd" fill="#9FCEFF" d="M827.5,308c-3-2.154-3-2.154-3-2.154
		c-0.25-0.308-0.5-0.615-0.5-1.231c0-0.308,0.25-0.615,0.5-0.308c3,2.154,3,2.154,3,2.154c0.25,0,0.5,0.616,0.5,0.923
		C828,308,827.75,308,827.5,308z"/>
	<path opacity="0.4" clip-path="url(#SVGID_2_)" fill-rule="evenodd" clip-rule="evenodd" fill="#FFFFFF" d="M833.488,341.381
		c-35.977-20.993-35.977-20.993-35.977-20.993C791.037,316.769,786,306.875,786,298.43c0-37.883,0-37.883,0-37.883
		c0-8.687,5.037-12.547,11.512-8.928c35.977,20.993,35.977,20.993,35.977,20.993c6.475,3.861,11.512,13.754,11.512,22.199
		c0,37.883,0,37.883,0,37.883C845,341.139,839.963,345,833.488,341.381z"/>
	<path clip-path="url(#SVGID_2_)" fill-rule="evenodd" clip-rule="evenodd" fill="#0250C1" d="M555.534,477.14
		c-36.068-20.993-36.068-20.993-36.068-20.993C513.255,452.527,508,442.635,508,434.189c0-37.884,0-37.884,0-37.884
		c0-8.445,5.255-12.306,11.466-8.687c36.068,20.993,36.068,20.993,36.068,20.993c6.211,3.619,11.466,13.512,11.466,21.957
		c0,37.884,0,37.884,0,37.884C567,476.898,561.745,481,555.534,477.14z"/>
	<path clip-path="url(#SVGID_2_)" fill-rule="evenodd" clip-rule="evenodd" fill="#9FCEFF" d="M516.189,405.936
		c-0.487-0.242-0.973,0-0.973,0.483c0,30.484,0,30.484,0,30.484c0,0.483,0.486,1.21,0.973,1.451
		c40.864,23.468,40.864,23.468,40.864,23.468c0.487,0.242,0.73,0,0.73-0.483c0-30.242,0-30.242,0-30.242
		c0-0.726-0.243-1.21-0.73-1.693L516.189,405.936z M557.054,463.274c-40.864-23.468-40.864-23.468-40.864-23.468
		c-1.216-0.726-2.189-2.42-2.189-3.629c0-30.242,0-30.242,0-30.242c0-1.451,0.973-1.936,2.189-1.21
		c40.864,23.468,40.864,23.468,40.864,23.468c1.217,0.484,1.946,2.178,1.946,3.629c0,30.242,0,30.242,0,30.242
		C559,463.274,558.271,464,557.054,463.274z"/>
	<path clip-path="url(#SVGID_2_)" fill-rule="evenodd" clip-rule="evenodd" fill="#9FCEFF" d="M527.949,423.606
		c2.051,0.97,2.051,0.97,2.051,0.97C525.897,435,525.897,435,525.897,435c-2.051-1.212-2.051-1.212-2.051-1.212
		C520,419,520,419,520,419c1.795,1.212,1.795,1.212,1.795,1.212c2.564,9.212,2.564,9.212,2.564,9.212
		c0,0.243,0.256,0.97,0.256,1.455c0.257,0.728,0.257,1.212,0.257,1.454c0-0.242,0.256-0.727,0.256-1.212
		c0.257-0.484,0.257-0.97,0.513-1.212L527.949,423.606z"/>
	<polygon clip-path="url(#SVGID_2_)" fill-rule="evenodd" clip-rule="evenodd" fill="#9FCEFF" points="531,437.701 531,425 
		533,426.011 533,439 	"/>
	<path clip-path="url(#SVGID_2_)" fill-rule="evenodd" clip-rule="evenodd" fill="#9FCEFF" d="M542,440.627
		c0,1.187-0.482,1.898-0.966,2.136c-0.724,0.237-1.689,0-2.896-0.712s-2.413-1.424-3.138-2.373c0-1.898,0-1.898,0-1.898
		c0.482,0.475,0.966,0.949,1.689,1.424c0.483,0.475,0.966,0.949,1.448,1.187c0.725,0.475,1.207,0.475,1.689,0.475
		c0.242-0.237,0.483-0.475,0.483-0.949s-0.241-0.949-0.483-1.424c-0.482-0.475-0.965-1.187-1.931-2.372
		c-0.966-0.949-1.689-1.898-2.172-2.61c-0.483-0.949-0.483-1.661-0.483-2.61s0.241-1.424,0.966-1.661
		c0.482-0.237,1.448-0.237,2.414,0.475c1.206,0.712,2.172,1.424,3.138,2.61c-0.483,1.187-0.483,1.187-0.483,1.187
		c-0.965-0.949-1.931-1.661-2.654-2.136c-0.483-0.237-0.966-0.475-1.207-0.237c-0.241,0-0.483,0.475-0.483,0.949
		c0,0.237,0,0.475,0.242,0.712c0,0.475,0.241,0.712,0.482,1.187c0.241,0.237,0.724,0.712,1.448,1.424
		c0.724,0.948,1.448,1.66,1.689,2.135c0.482,0.475,0.725,1.187,0.966,1.661S542,440.152,542,440.627z"/>
	<path clip-path="url(#SVGID_2_)" fill-rule="evenodd" clip-rule="evenodd" fill="#9FCEFF" d="M548.927,442.728
		c-0.878-3.879-0.878-3.879-0.878-3.879c0-0.242-0.22-0.728-0.22-1.455c-0.22-0.484-0.22-0.97-0.438-1.212
		c0,0.728-0.22,1.455-0.439,1.939c-0.878,2.909-0.878,2.909-0.878,2.909L548.927,442.728z M550.463,449.03
		c-1.097-4.121-1.097-4.121-1.097-4.121c-3.732-2.424-3.732-2.424-3.732-2.424c-1.097,2.908-1.097,2.908-1.097,2.908
		C543,444.182,543,444.182,543,444.182C546.731,434,546.731,434,546.731,434c1.757,0.97,1.757,0.97,1.757,0.97
		C552,450,552,450,552,450L550.463,449.03z"/>
	<polygon clip-path="url(#SVGID_2_)" fill-rule="evenodd" clip-rule="evenodd" fill="#9FCEFF" points="558,436 515,410.547 515,409 
		558,434.453 	"/>
	<path opacity="0.4" clip-path="url(#SVGID_2_)" fill-rule="evenodd" clip-rule="evenodd" fill="#FFFFFF" d="M545.534,484.381
		c-36.068-20.993-36.068-20.993-36.068-20.993c-6.211-3.86-11.466-13.512-11.466-22.198c0-37.884,0-37.884,0-37.884
		c0-8.445,5.255-12.306,11.466-8.687c36.068,20.993,36.068,20.993,36.068,20.993c6.211,3.619,11.466,13.512,11.466,22.198
		c0,37.884,0,37.884,0,37.884C557,484.14,551.745,488,545.534,484.381z"/>
	<path clip-path="url(#SVGID_2_)" fill-rule="evenodd" clip-rule="evenodd" fill="#0250C1" d="M306.534,230.418
		c-36.068-20.776-36.068-20.776-36.068-20.776C264.255,206.06,259,196.269,259,187.911c0-37.493,0-37.493,0-37.493
		c0-8.597,5.255-12.418,11.466-8.836c36.068,20.776,36.068,20.776,36.068,20.776c6.211,3.821,11.466,13.612,11.466,21.97
		c0,37.492,0,37.492,0,37.492C318,230.179,312.745,234,306.534,230.418z"/>
	<path clip-path="url(#SVGID_2_)" fill-rule="evenodd" clip-rule="evenodd" fill="#9FCEFF" d="M301.6,191.783
		c-0.4,0-0.6-0.435-0.6-0.87c0-3.479,0-3.479,0-3.479c0-0.217,0.2-0.435,0.6-0.217c0.2,0.217,0.4,0.652,0.4,0.87
		c0,3.479,0,3.479,0,3.479C302,191.783,301.8,192,301.6,191.783z"/>
	<path clip-path="url(#SVGID_2_)" fill-rule="evenodd" clip-rule="evenodd" fill="#9FCEFF" d="M301.53,217
		c-26.061-15.628-26.061-15.628-26.061-15.628c-0.235-0.244-0.47-0.732-0.47-0.977c0-1.954,0-1.954,0-1.954
		c0-0.244,0.235-0.488,0.47-0.244c0.234,0.244,0.469,0.488,0.469,0.977c0,1.221,0,1.221,0,1.221
		c24.887,14.895,24.887,14.895,24.887,14.895c0-18.802,0-18.802,0-18.802c0-0.488,0.235-0.488,0.704-0.488
		c0.235,0.244,0.47,0.732,0.47,0.977c0,19.535,0,19.535,0,19.535C302,217,301.765,217,301.53,217z"/>
	<path clip-path="url(#SVGID_2_)" fill-rule="evenodd" clip-rule="evenodd" fill="#9FCEFF" d="M301.667,182.761
		c-0.333-0.239-0.5-0.478-0.5-0.957c0-7.652,0-7.652,0-7.652c-0.833-0.718-0.833-0.718-0.833-0.718
		c-0.167,0-0.333-0.478-0.333-0.956c0-0.239,0.167-0.479,0.333-0.239c1.333,1.195,1.333,1.195,1.333,1.195
		c0.167,0,0.333,0.479,0.333,0.718c0,8.369,0,8.369,0,8.369C302,182.761,301.833,183,301.667,182.761z"/>
	<path clip-path="url(#SVGID_2_)" fill-rule="evenodd" clip-rule="evenodd" fill="#9FCEFF" d="M300.513,214
		c-27.026-15.36-27.026-15.36-27.026-15.36c-0.243-0.24-0.487-0.72-0.487-0.96c0-43.2,0-43.2,0-43.2c0-0.48,0.244-0.48,0.487-0.48
		c3.652,2.16,3.652,2.16,3.652,2.16c0.244,0.24,0.487,0.48,0.487,0.96c0,0.24-0.243,0.48-0.487,0.24
		c-3.165-1.68-3.165-1.68-3.165-1.68c0,42,0,42,0,42c26.052,14.64,26.052,14.64,26.052,14.64c0-42,0-42,0-42
		c-18.017-10.08-18.017-10.08-18.017-10.08c-0.244-0.24-0.487-0.72-0.487-0.96c0-0.48,0.244-0.48,0.487-0.24
		c18.504,10.32,18.504,10.32,18.504,10.32c0.243,0.24,0.487,0.72,0.487,0.96c0,43.2,0,43.2,0,43.2C301,214,300.756,214,300.513,214z
		"/>
	<path clip-path="url(#SVGID_2_)" fill-rule="evenodd" clip-rule="evenodd" fill="#9FCEFF" d="M276.988,173.76
		c18.776,10.56,18.776,10.56,18.776,10.56c0-10.08,0-10.08,0-10.08c-18.776-10.56-18.776-10.56-18.776-10.56V173.76z M296.259,186
		c-19.765-11.28-19.765-11.28-19.765-11.28c-0.247,0-0.494-0.479-0.494-0.96c0-11.28,0-11.28,0-11.28c0-0.48,0.247-0.48,0.494-0.24
		c19.765,11.04,19.765,11.04,19.765,11.04c0.494,0.24,0.741,0.479,0.741,0.96c0,11.28,0,11.28,0,11.28
		C297,186,296.753,186,296.259,186z"/>
	<path clip-path="url(#SVGID_2_)" fill-rule="evenodd" clip-rule="evenodd" fill="#9FCEFF" d="M279.429,180.833
		C276.571,180,276.571,180,276.571,180c-0.286-0.167-0.571-0.5-0.571-0.667c0-0.333,0.286-0.333,0.571-0.333
		c2.857,1,2.857,1,2.857,1c0.286,0.167,0.571,0.5,0.571,0.667C280,180.833,279.714,181,279.429,180.833z"/>
	<path clip-path="url(#SVGID_2_)" fill-rule="evenodd" clip-rule="evenodd" fill="#9FCEFF" d="M296.508,191
		c-14.017-7.615-14.017-7.615-14.017-7.615c-0.246-0.231-0.492-0.692-0.492-0.923c0-0.23,0.246-0.461,0.492-0.23
		c14.017,7.384,14.017,7.384,14.017,7.384c0.246,0.231,0.492,0.692,0.492,0.923C297,191,296.754,191,296.508,191z"/>
	<path clip-path="url(#SVGID_2_)" fill-rule="evenodd" clip-rule="evenodd" fill="#9FCEFF" d="M279.429,184.75
		c-2.857-1.25-2.857-1.25-2.857-1.25c-0.286-0.25-0.571-0.75-0.571-1c0-0.5,0.286-0.5,0.571-0.25c2.857,1.25,2.857,1.25,2.857,1.25
		c0.286,0.25,0.571,0.75,0.571,1S279.714,185,279.429,184.75z"/>
	<path clip-path="url(#SVGID_2_)" fill-rule="evenodd" clip-rule="evenodd" fill="#9FCEFF" d="M296.508,194
		c-14.017-7.615-14.017-7.615-14.017-7.615c-0.246-0.231-0.492-0.462-0.492-0.923c0-0.23,0.246-0.461,0.492-0.23
		c14.017,7.384,14.017,7.384,14.017,7.384c0.246,0.231,0.492,0.692,0.492,0.923C297,194,296.754,194,296.508,194z"/>
	<path clip-path="url(#SVGID_2_)" fill-rule="evenodd" clip-rule="evenodd" fill="#9FCEFF" d="M279.429,187.75
		c-2.857-1.25-2.857-1.25-2.857-1.25c-0.286-0.25-0.571-0.75-0.571-1c0-0.5,0.286-0.5,0.571-0.25c2.857,1.25,2.857,1.25,2.857,1.25
		c0.286,0.25,0.571,0.75,0.571,1S279.714,188,279.429,187.75z"/>
	<path clip-path="url(#SVGID_2_)" fill-rule="evenodd" clip-rule="evenodd" fill="#9FCEFF" d="M296.508,198
		c-14.017-8.461-14.017-8.461-14.017-8.461c-0.246-0.256-0.492-0.513-0.492-1.026c0-0.256,0.246-0.513,0.492-0.256
		c14.017,8.461,14.017,8.461,14.017,8.461c0.246,0,0.492,0.513,0.492,0.77C297,198,296.754,198,296.508,198z"/>
	<path clip-path="url(#SVGID_2_)" fill-rule="evenodd" clip-rule="evenodd" fill="#9FCEFF" d="M279.429,191.75
		c-2.857-1.25-2.857-1.25-2.857-1.25c-0.286-0.25-0.571-0.75-0.571-1c0-0.5,0.286-0.5,0.571-0.25c2.857,1.25,2.857,1.25,2.857,1.25
		c0.286,0.25,0.571,0.75,0.571,1S279.714,192,279.429,191.75z"/>
	<path clip-path="url(#SVGID_2_)" fill-rule="evenodd" clip-rule="evenodd" fill="#9FCEFF" d="M296.508,201
		c-14.017-7.615-14.017-7.615-14.017-7.615c-0.246-0.231-0.492-0.462-0.492-0.923c0-0.23,0.246-0.461,0.492-0.23
		c14.017,7.615,14.017,7.615,14.017,7.615c0.246,0,0.492,0.461,0.492,0.692C297,201,296.754,201,296.508,201z"/>
	<path clip-path="url(#SVGID_2_)" fill-rule="evenodd" clip-rule="evenodd" fill="#9FCEFF" d="M277,155.556c0,4.667,0,4.667,0,4.667
		c1.75,0,1.75,0,1.75,0c0.25,0,0.5,0,0.5,0.222c1.75,1.778,1.75,1.778,1.75,1.778c0-4.667,0-4.667,0-4.667L277,155.556z
		 M276.5,161.333c0,0-0.25,0-0.25-0.222c-0.25,0-0.25-0.445-0.25-0.445c0-6.222,0-6.222,0-6.222c0-0.444,0.25-0.444,0.5-0.222
		c5,2.444,5,2.444,5,2.444c0.25,0.222,0.5,0.667,0.5,0.889c0,6.222,0,6.222,0,6.222c0,0.222,0,0.222-0.25,0.222
		c0,0-0.25,0-0.5-0.222c-2.25-2.222-2.25-2.222-2.25-2.222c-2.25,0-2.25,0-2.25,0L276.5,161.333z"/>
	<path clip-path="url(#SVGID_2_)" fill-rule="evenodd" clip-rule="evenodd" fill="#9FCEFF" d="M271.867,158.92
		c-0.267-0.24-0.8,0-0.8,0.48s0.533,1.2,0.8,1.44c1.066,0.48,1.066,0.48,1.066,0.48c0-1.92,0-1.92,0-1.92L271.867,158.92z
		 M273.467,162.76c-1.6-0.72-1.6-0.72-1.6-0.72c-1.067-0.48-1.867-2.16-1.867-3.36c0-1.2,0.8-1.68,1.867-0.96
		c1.6,0.72,1.6,0.72,1.6,0.72c0.267,0.24,0.533,0.72,0.533,0.96c0,3.12,0,3.12,0,3.12C274,163,273.733,163,273.467,162.76z"/>
	<path clip-path="url(#SVGID_2_)" fill-rule="evenodd" clip-rule="evenodd" fill="#9FCEFF" d="M271.867,166.68
		c-0.267-0.24-0.8,0-0.8,0.48c0,0.72,0.533,1.2,0.8,1.68c1.066,0.48,1.066,0.48,1.066,0.48c0-2.16,0-2.16,0-2.16L271.867,166.68z
		 M273.467,170.76c-1.6-0.72-1.6-0.72-1.6-0.72c-1.067-0.72-1.867-2.16-1.867-3.36c0-1.2,0.8-1.68,1.867-1.2
		c1.6,0.96,1.6,0.96,1.6,0.96c0.267,0,0.533,0.48,0.533,0.72c0,3.36,0,3.36,0,3.36C274,170.76,273.733,171,273.467,170.76z"/>
	<path clip-path="url(#SVGID_2_)" fill-rule="evenodd" clip-rule="evenodd" fill="#9FCEFF" d="M271.867,174.92
		c-0.267-0.24-0.8,0-0.8,0.48s0.533,1.2,0.8,1.44c1.066,0.48,1.066,0.48,1.066,0.48c0-1.92,0-1.92,0-1.92L271.867,174.92z
		 M273.467,178.76c-1.6-0.72-1.6-0.72-1.6-0.72c-1.067-0.48-1.867-2.16-1.867-3.36c0-1.2,0.8-1.68,1.867-0.96
		c1.6,0.72,1.6,0.72,1.6,0.72c0.267,0.24,0.533,0.48,0.533,0.96c0,3.12,0,3.12,0,3.12C274,179,273.733,179,273.467,178.76z"/>
	<path clip-path="url(#SVGID_2_)" fill-rule="evenodd" clip-rule="evenodd" fill="#9FCEFF" d="M271.867,182.68
		c-0.267-0.24-0.8,0-0.8,0.48c0,0.72,0.533,1.2,0.8,1.44c1.066,0.48,1.066,0.48,1.066,0.48c0-1.92,0-1.92,0-1.92L271.867,182.68z
		 M273.467,186.76c-1.6-0.72-1.6-0.72-1.6-0.72c-1.067-0.72-1.867-2.16-1.867-3.36c0-1.2,0.8-1.68,1.867-1.2
		c1.6,0.96,1.6,0.96,1.6,0.96c0.267,0,0.533,0.48,0.533,0.72c0,3.36,0,3.36,0,3.36C274,186.76,273.733,187,273.467,186.76z"/>
	<path clip-path="url(#SVGID_2_)" fill-rule="evenodd" clip-rule="evenodd" fill="#9FCEFF" d="M271.867,190.92
		c-0.267-0.24-0.8,0-0.8,0.48s0.533,1.2,0.8,1.44c1.066,0.48,1.066,0.48,1.066,0.48c0-1.92,0-1.92,0-1.92L271.867,190.92z
		 M273.467,194.76c-1.6-0.72-1.6-0.72-1.6-0.72c-1.067-0.72-1.867-2.16-1.867-3.36c0-1.2,0.8-1.68,1.867-0.96
		c1.6,0.72,1.6,0.72,1.6,0.72c0.267,0.24,0.533,0.48,0.533,0.96c0,3.12,0,3.12,0,3.12C274,194.76,273.733,195,273.467,194.76z"/>
	<path clip-path="url(#SVGID_2_)" fill-rule="evenodd" clip-rule="evenodd" fill="#9FCEFF" d="M300.909,195.625
		c3.182,1.8,3.182,1.8,3.182,1.8c0-4.05,0-4.05,0-4.05c-3.182-1.8-3.182-1.8-3.182-1.8V195.625z M304.545,198.775
		c-4.091-2.25-4.091-2.25-4.091-2.25c-0.227-0.225-0.455-0.45-0.455-0.9c0-5.175,0-5.175,0-5.175c0-0.225,0.228-0.45,0.455-0.225
		c4.091,2.25,4.091,2.25,4.091,2.25c0.227,0.225,0.455,0.45,0.455,0.9c0,5.175,0,5.175,0,5.175
		C305,198.775,304.772,199,304.545,198.775z"/>
	<path clip-path="url(#SVGID_2_)" fill-rule="evenodd" clip-rule="evenodd" fill="#9FCEFF" d="M300.909,186.25
		c3.182,2,3.182,2,3.182,2c0-4.5,0-4.5,0-4.5c-3.182-2-3.182-2-3.182-2V186.25z M304.545,189.75c-4.091-2.5-4.091-2.5-4.091-2.5
		c-0.227-0.25-0.455-0.75-0.455-1c0-5.75,0-5.75,0-5.75c0-0.5,0.228-0.5,0.455-0.5c4.091,2.75,4.091,2.75,4.091,2.75
		c0.227,0,0.455,0.5,0.455,1c0,5.75,0,5.75,0,5.75C305,189.75,304.772,190,304.545,189.75z"/>
	<path opacity="0.4" clip-path="url(#SVGID_2_)" fill-rule="evenodd" clip-rule="evenodd" fill="#FFFFFF" d="M296.488,238.372
		c-35.976-21.045-35.976-21.045-35.976-21.045C254.037,213.698,249,203.78,249,195.314c0-37.978,0-37.978,0-37.978
		c0-8.467,5.037-12.337,11.512-8.708c35.976,21.045,35.976,21.045,35.976,21.045c6.476,3.628,11.512,13.546,11.512,22.012
		c0,37.978,0,37.978,0,37.978C308,238.13,302.963,242,296.488,238.372z"/>
	<polygon clip-path="url(#SVGID_2_)" fill-rule="evenodd" clip-rule="evenodd" fill="#EEBCC5" points="188.97,614.553 188,627 
		202,626.032 202,614 	"/>
	<path clip-path="url(#SVGID_2_)" fill-rule="evenodd" clip-rule="evenodd" fill="#0E0C51" d="M151.681,609.575
		c3.168-6.283,8.042-10.634,12.916-14.742c5.849-4.35,9.748-4.833,12.429-2.899c0.975,2.416-0.244,7.733-2.681,15.225
		c-3.412,5.8-8.286,9.667-14.622,11.358C151.924,619,149,616.1,151.681,609.575z"/>
	<path clip-path="url(#SVGID_2_)" fill-rule="evenodd" clip-rule="evenodd" fill="#EEBCC5" d="M155.5,601.529
		c-0.5,8.667-0.5,8.667-0.5,8.667c3,2.804,6.25,2.549,10-0.765c0-9.432,0-9.432,0-9.432L155.5,601.529z"/>
	<path clip-path="url(#SVGID_2_)" fill-rule="evenodd" clip-rule="evenodd" fill="#1B1464" d="M213,535.5c0,0.482,0,0.964,0,1.446
		c0,0.241,0,0.241,0,0.241c-2.857,28.922-6.429,54.229-10.238,78.812c-16.667,0-16.667,0-16.667,0
		c0-31.332,0.714-60.736,3.333-83.874c-5-19.764-7.619-34.948-9.048-52.783c-1.905-1.205-3.333-1.688-4.762-1.688l0,0
		c-0.953,0.241-1.905,0.482-2.619,1.205c-0.238,0.241-0.476,0.241-0.476,0.482c0.952,46.517,0.952,46.517,0.952,46.517
		c-5.952,77.366-5.952,77.366-5.952,77.366c-13.81,0-13.81,0-13.81,0c-1.429-27.234-2.381-53.747,0-76.402
		c-2.619-31.091-6.19-55.916-10.714-71.823c62.857,5.303,62.857,5.303,62.857,5.303C210.381,487.537,213,515.736,213,535.5z"/>
	<path clip-path="url(#SVGID_2_)" fill-rule="evenodd" clip-rule="evenodd" fill="#0E0C51" d="M201.858,619
		c6.108,3.582,15.392,6.926,24.188,9.313c1.955,1.91,0.977,2.865,0,3.821c0.245,0.478-17.102,2.865-18.08,1.91
		c-1.222-0.955-11.727,0.238-11.238,0.716c-3.909,0-7.574,0-9.773-1.193c-1.955-2.389-1.955-5.493-1.222-9.553
		c4.398,2.389,9.284,2.627,15.392,1.194C202.835,624.254,202.103,621.865,201.858,619z"/>
	<path clip-path="url(#SVGID_2_)" fill-rule="evenodd" clip-rule="evenodd" fill="#EEBCC5" d="M197.813,341.775L197.813,341.775
		c-0.49,0.723-0.736,1.445-1.226,1.927c-3.677,5.298-12.993,5.298-20.103,3.131l0,0c-4.413-1.445-8.09-3.854-9.071-6.262
		c-4.413-8.67-3.678-14.932,0-26.011c3.677-6.262,11.277-8.67,18.387-9.152c8.336-2.408,13.975,1.686,14.71,16.618
		C201,330.456,200.02,336.958,197.813,341.775z"/>
	<path clip-path="url(#SVGID_2_)" fill-rule="evenodd" clip-rule="evenodd" fill="#EEBCC5" d="M168,351.589
		c1.378-0.493,1.378-6.411,1.378-11.589C185,342.959,185,342.959,185,342.959c-0.459,7.15-1.149,12.329-2.527,15.041L168,351.589z"
		/>
	<path clip-path="url(#SVGID_2_)" fill-rule="evenodd" clip-rule="evenodd" fill="#0E0C51" d="M174.579,324.541
		c1.681,11.189,1.681,11.189,1.681,11.189v0.244c-2.162,6.081-6.966,8.027-13.931,6.081c-0.24-0.244-0.24-0.244-0.24-0.244
		c-5.044-4.135-8.167-10.216-8.887-18.973l0,0c-1.201-7.784-0.721-15.324,4.083-22.865c0.24-0.244,0.24-0.244,0.24-0.244
		c7.687-5.837,16.093-9,24.74-9.729c0.24,0,0.24,0,0.24,0c8.407,0,15.132,2.919,17.534,11.919l0,0
		c0.961,6.811-0.721,11.676-7.206,12.892l-0.24,0.244c-6.726,8.027-6.726,8.027-6.726,8.027c0,0.243-0.24,0.243-0.24,0.486
		c0.721,6.568,0.721,6.568,0.721,6.568c0,0.729-0.961,0.973-1.201,0.243c-4.083-7.054-4.083-7.054-4.083-7.054
		c0-0.243-0.24-0.486-0.48-0.486c-5.525,0.973-5.525,0.973-5.525,0.973C174.818,324.054,174.579,324.297,174.579,324.541z"/>
	<path clip-path="url(#SVGID_2_)" fill-rule="evenodd" clip-rule="evenodd" fill="#E6E6E6" d="M211,461.777
		c-19.129,14.223-58.355,4.821-73.61-10.124c6.296-22.9,6.538-45.8-0.726-76.896c-2.664-11.57-1.211-20.249,6.295-24.346
		c24.456-2.411,41.89,2.893,55.45,12.776c4.117,14.222,5.812,28.686,7.264,44.354c0.969,12.053,1.695,24.829,3.39,38.569l0,0
		C209.547,451.172,210.273,456.475,211,461.777z"/>
	<path clip-path="url(#SVGID_2_)" fill-rule="evenodd" clip-rule="evenodd" fill="#E8A7B5" d="M182.318,327.41
		c-0.682-2.213-1.818-3.935-2.955-4.918c-1.591-0.492-3.182-0.246-4.545,1.229c-1.818,1.721-1.591,4.426,0,7.377
		c0,0.246,0.227,0.246,0.227,0.491c1.364,1.476,2.273,2.705,3.182,3.935c1.136,1.476,3.182,0.984,3.636-0.737
		c0.455-1.722,0.455-1.722,0.455-1.722C182.772,331.099,183,329.131,182.318,327.41z"/>
	<polygon clip-path="url(#SVGID_2_)" fill-rule="evenodd" clip-rule="evenodd" fill="#E8A7B5" points="263,390 263,392.087 
		261.364,394 260,394 260,392.782 	"/>
	<polygon clip-path="url(#SVGID_2_)" fill-rule="evenodd" clip-rule="evenodd" fill="#E8A7B5" points="265,393 264.385,394.286 
		262.539,395.571 261.461,396 261,395.286 	"/>
	<path clip-path="url(#SVGID_2_)" fill-rule="evenodd" clip-rule="evenodd" fill="#E8A7B5" d="M265,397c-1.846,2-1.846,2-1.846,2
		c-0.923,0-1.154-0.2-0.692-0.6L265,397z"/>
	<path clip-path="url(#SVGID_2_)" fill-rule="evenodd" clip-rule="evenodd" fill="#EEBCC5" d="M250,397.014
		c3.461-4.31,7.154-8.38,11.308-11.014c0.923,0,1.615,0.479,1.846,1.197c-0.923,1.915-2.769,3.592-4.615,5.507
		C262,390.07,262,390.07,262,390.07c0.461,0,1.154,0.719,1.385,0.958c0,0.718-2.077,2.155-2.77,2.873
		c2.539-1.437,2.539-1.437,2.539-1.437c1.154,0,1.615,0.479,1.615,1.197c-3,2.634-3,2.634-3,2.634
		c2.539-1.437,2.539-1.437,2.539-1.437c0.692,0.239,0.692,1.197,0.461,2.154c-1.615,0.958-3.23,2.634-4.615,4.789
		C256.461,403,256.461,403,256.461,403"/>
	<path clip-path="url(#SVGID_2_)" fill-rule="evenodd" clip-rule="evenodd" fill="#E6E6E6" d="M230,427
		c14.859-4.007,25.884-10.371,28.042-22.393c0.958-7.543-2.397-10.607-9.827-8.957c-3.834,5.421-8.628,9.899-13.901,13.671L230,427z
		"/>
	<path clip-path="url(#SVGID_2_)" fill-rule="evenodd" clip-rule="evenodd" fill="#C9C9C9" d="M209,446
		c-6-16.442-10.25-35.304-11-59c6.75,12.09,6.75,12.09,6.75,12.09C205.75,411.181,207.25,432.217,209,446z"/>
	<path clip-path="url(#SVGID_2_)" fill-rule="evenodd" clip-rule="evenodd" fill="#E6E6E6" d="M198,363
		c8.763,7.403,15.335,26.508,37,46.09C230.618,427,230.618,427,230.618,427c-14.849-14.09-29.697-28.179-32.618-40.119V363z"/>
	<path clip-path="url(#SVGID_2_)" fill-rule="evenodd" clip-rule="evenodd" fill="#C9C9C9" d="M148.967,392c0,0,0,0.968-0.242,2.66
		c0,1.936,0,4.354,0,7.498c0,1.451,0.242,3.145,0.483,4.837c0,1.693,0.483,3.628,0.725,5.321c0.483,1.935,0.725,3.869,1.45,5.805
		c0.483,1.693,1.208,3.628,2.175,5.562c0.242,0.726,0.725,1.693,1.208,2.66c0.725,1.21,0.725,1.21,0.725,1.21
		c0.725,1.209,0.725,1.209,0.725,1.209c1.208,1.693,2.417,3.386,3.625,4.596c0.725,0.726,1.208,1.451,1.933,1.935
		c0.725,0.726,1.45,1.209,1.934,1.935c0.725,0.484,1.45,0.968,2.175,1.451c0.483,0.484,1.208,0.726,1.934,1.21
		c0.483,0.483,1.208,0.726,1.933,0.967c0.483,0.242,1.208,0.726,1.692,0.968c1.208,0.483,2.175,0.968,2.9,1.209
		C176.033,443.517,177,444,177,444s-0.967-0.242-2.658-0.726c-0.967-0.242-1.934-0.726-3.142-0.968
		c-0.483-0.241-1.208-0.726-1.692-0.967c-0.725-0.242-1.45-0.484-2.175-0.968c-0.483-0.242-1.208-0.726-1.934-1.209
		c-0.725-0.242-1.45-0.726-2.175-1.21c-0.725-0.726-1.45-1.209-2.175-1.935c-0.725-0.483-1.208-1.209-1.933-1.935
		c-1.45-1.451-2.658-2.902-3.867-4.596c-0.725-1.209-0.725-1.209-0.725-1.209c-0.725-1.451-0.725-1.451-0.725-1.451
		c-0.483-0.968-0.966-1.693-1.45-2.661c-0.725-1.935-1.45-3.869-2.175-5.804c-0.483-1.936-0.966-3.87-1.208-5.805
		c-0.725-3.87-0.967-7.498-0.967-10.4c0-3.145,0.242-5.562,0.483-7.498C148.725,392.968,148.967,392,148.967,392z"/>
	<path clip-path="url(#SVGID_2_)" fill-rule="evenodd" clip-rule="evenodd" fill="#E8A7B5" d="M197,342
		c-0.46,0.7-0.689,1.4-1.149,1.867C192.402,349,183.667,349,177,346.9C191.023,347.133,196.54,342.467,197,342z"/>
	<path clip-path="url(#SVGID_2_)" fill-rule="evenodd" clip-rule="evenodd" fill="#0E0C51" d="M172.75,478.715
		c1,47.285,1,47.285,1,47.285C165,477,165,477,165,477c11,0,11,0,11,0c-1,0.245-2,0.49-2.75,1.225
		C173,478.47,172.75,478.47,172.75,478.715z"/>
	<path clip-path="url(#SVGID_2_)" fill-rule="evenodd" clip-rule="evenodd" fill="#0E0C51" d="M213,537
		c-2.717,28.991-6.113,54.357-9.736,79C201,616,201,616,201,616C201.453,584.352,205.076,557.535,213,537z"/>
	<path clip-path="url(#SVGID_2_)" fill-rule="evenodd" clip-rule="evenodd" fill="#0250C1" d="M976.414,387
		c-52.828,0-52.828,0-52.828,0C920,387,920,387,920,387c0,8.597,0,8.597,0,8.597c0,4.421,2.868,9.088,8.845,12.526
		c11.713,6.877,30.598,6.877,42.55,0c5.737-3.438,8.605-8.105,8.605-12.526c0-8.597,0-8.597,0-8.597H976.414z"/>
	<path clip-path="url(#SVGID_2_)" fill-rule="evenodd" clip-rule="evenodd" fill="#4579EE" d="M976.414,385
		c-52.828,0-52.828,0-52.828,0C920,385,920,385,920,385c0,8.597,0,8.597,0,8.597c0,4.421,2.868,9.088,8.845,12.526
		c11.713,6.877,30.598,6.877,42.55,0c5.737-3.438,8.605-8.105,8.605-12.526c0-8.597,0-8.597,0-8.597H976.414z"/>
	<path clip-path="url(#SVGID_2_)" fill-rule="evenodd" clip-rule="evenodd" fill="#79BBF7" d="M971.282,397.309
		c-11.956,6.691-30.848,6.691-42.564,0c-11.718-6.932-11.718-17.925,0-24.617c11.717-6.692,30.608-6.692,42.564,0
		C983,379.384,983,390.377,971.282,397.309z"/>
	<path clip-path="url(#SVGID_2_)" fill-rule="evenodd" clip-rule="evenodd" fill="#2E70E5" d="M961.044,391.633
		c-6.204,3.367-15.884,3.367-21.84,0c-6.204-3.367-6.204-8.898,0-12.266c5.956-3.367,15.636-3.367,21.84,0
		C967,382.734,967,388.266,961.044,391.633z"/>
	<path clip-path="url(#SVGID_2_)" fill-rule="evenodd" clip-rule="evenodd" fill="#1B1464" d="M952.857,317.966
		c-1.601-0.966-4.114-0.966-5.715,0c-0.686,0.483-1.143,0.966-1.143,1.69c0,65.688,0,65.688,0,65.688
		c0,0.725,0.457,1.207,1.143,1.69c1.601,0.966,4.114,0.966,5.715,0c0.686-0.483,1.143-0.966,1.143-1.69c0-65.688,0-65.688,0-65.688
		C954,318.932,953.543,318.449,952.857,317.966z"/>
	<polygon clip-path="url(#SVGID_2_)" fill-rule="evenodd" clip-rule="evenodd" fill="#E6E6E6" points="950,243 913,350.616 950,372 
			"/>
	<polygon clip-path="url(#SVGID_2_)" fill-rule="evenodd" clip-rule="evenodd" fill="#C9C9C9" points="950,243 987,350.616 950,372 
			"/>
	<path clip-path="url(#SVGID_2_)" fill-rule="evenodd" clip-rule="evenodd" fill="#0250C1" d="M102.354,370
		c-53.709,0-53.709,0-53.709,0C45,370,45,370,45,370c0,8.597,0,8.597,0,8.597c0,4.421,2.917,9.088,8.992,12.526
		c11.908,6.877,31.351,6.877,43.259,0c5.833-3.438,8.749-8.105,8.749-12.526c0-8.597,0-8.597,0-8.597H102.354z"/>
	<path clip-path="url(#SVGID_2_)" fill-rule="evenodd" clip-rule="evenodd" fill="#4579EE" d="M102.354,368
		c-53.709,0-53.709,0-53.709,0C45,368,45,368,45,368c0,8.597,0,8.597,0,8.597c0,4.421,2.917,9.088,8.992,12.526
		c11.908,6.877,31.351,6.877,43.259,0c5.833-3.438,8.749-8.105,8.749-12.526c0-8.597,0-8.597,0-8.597H102.354z"/>
	<path clip-path="url(#SVGID_2_)" fill-rule="evenodd" clip-rule="evenodd" fill="#79BBF7" d="M97.283,380.35
		c-11.717,6.65-30.848,6.65-42.565,0c-11.717-6.888-11.717-17.812,0-24.462c11.717-6.888,30.848-6.888,42.565,0
		C109,362.538,109,373.462,97.283,380.35z"/>
	<path clip-path="url(#SVGID_2_)" fill-rule="evenodd" clip-rule="evenodd" fill="#2E70E5" d="M86.219,374.633
		c-6.021,3.367-15.416,3.367-21.197,0c-6.022-3.367-6.022-8.898,0-12.266c5.781-3.367,15.175-3.367,21.197,0
		C92,365.734,92,371.266,86.219,374.633z"/>
	<path clip-path="url(#SVGID_2_)" fill-rule="evenodd" clip-rule="evenodd" fill="#1B1464" d="M78.714,300.966
		c-1.8-0.966-4.628-0.966-6.429,0c-0.771,0.242-1.286,0.966-1.286,1.69c0,65.688,0,65.688,0,65.688c0,0.724,0.514,1.207,1.286,1.69
		c1.8,0.966,4.628,0.966,6.429,0c0.771-0.483,1.286-0.966,1.286-1.69c0-65.688,0-65.688,0-65.688
		C80,301.932,79.486,301.208,78.714,300.966z"/>
	<polygon clip-path="url(#SVGID_2_)" fill-rule="evenodd" clip-rule="evenodd" fill="#E6E6E6" points="76,226 39,332.896 76,354 	
		"/>
	<polygon clip-path="url(#SVGID_2_)" fill-rule="evenodd" clip-rule="evenodd" fill="#C9C9C9" points="76,226 113,332.896 76,354 	
		"/>
	<path clip-path="url(#SVGID_2_)" fill-rule="evenodd" clip-rule="evenodd" fill="#0250C1" d="M835.414,612
		c-52.828,0-52.828,0-52.828,0C779,612,779,612,779,612c0,8.351,0,8.351,0,8.351c0,4.667,2.868,9.088,8.845,12.526
		c11.713,7.123,30.598,7.123,42.311,0c5.977-3.438,8.845-7.859,8.845-12.526c0-8.351,0-8.351,0-8.351H835.414z"/>
	<path clip-path="url(#SVGID_2_)" fill-rule="evenodd" clip-rule="evenodd" fill="#4579EE" d="M835.414,610
		c-52.828,0-52.828,0-52.828,0C779,610,779,610,779,610c0,8.351,0,8.351,0,8.351c0,4.667,2.868,9.088,8.845,12.526
		c11.713,7.123,30.598,7.123,42.311,0c5.977-3.438,8.845-7.859,8.845-12.526c0-8.351,0-8.351,0-8.351H835.414z"/>
	<path clip-path="url(#SVGID_2_)" fill-rule="evenodd" clip-rule="evenodd" fill="#79BBF7" d="M830.282,622.309
		c-11.717,6.691-30.608,6.691-42.326,0c-11.956-6.692-11.956-17.686,0-24.617c11.718-6.691,30.609-6.691,42.326,0
		C842,604.623,842,615.616,830.282,622.309z"/>
	<path clip-path="url(#SVGID_2_)" fill-rule="evenodd" clip-rule="evenodd" fill="#2E70E5" d="M818.979,616.633
		c-5.781,3.367-15.176,3.367-20.957,0c-6.021-3.367-6.021-8.898,0-12.266c5.781-3.367,15.176-3.367,20.957,0
		C825,607.734,825,613.266,818.979,616.633z"/>
	<path clip-path="url(#SVGID_2_)" fill-rule="evenodd" clip-rule="evenodd" fill="#1B1464" d="M811.857,542.963
		c-1.601-0.963-4.114-0.963-5.715,0c-0.686,0.481-1.143,1.203-1.143,1.685c0,65.705,0,65.705,0,65.705
		c0,0.481,0.457,1.203,1.143,1.685c1.601,0.963,4.114,0.963,5.715,0c0.686-0.481,1.143-1.203,1.143-1.685
		c0-65.705,0-65.705,0-65.705C813,544.166,812.543,543.444,811.857,542.963z"/>
	<ellipse clip-path="url(#SVGID_2_)" fill="#E6E6E6" cx="808.5" cy="526" rx="29.5" ry="58"/>
	<path clip-path="url(#SVGID_2_)" fill-rule="evenodd" clip-rule="evenodd" fill="#C9C9C9" d="M824.204,477
		c1.902,8.176,2.854,17.072,2.854,26.449c0,36.308-14.748,65.643-33.063,65.643c-1.665,0-3.33-0.24-4.995-0.721
		c5.233,9.618,12.131,15.629,19.742,15.629C824.918,584,838,558.031,838,526.052C838,505.373,832.529,487.339,824.204,477z"/>
	<path clip-path="url(#SVGID_2_)" fill-rule="evenodd" clip-rule="evenodd" fill="#B2302F" d="M861.459,384.027
		c-5.771-3.279-15.147-3.279-20.918,0c-1.684,0.937-2.885,2.108-3.606,3.28c-1.442,2.811-0.481,5.855,2.885,8.198
		c0.241,0,0.481,0.233,0.722,0.233c5.771,3.279,15.147,3.279,20.918,0c0.24,0,0.48-0.233,0.722-0.233
		c3.366-2.343,4.327-5.388,2.885-8.198C864.344,386.135,863.143,384.964,861.459,384.027z M829.48,387.307
		c0.962-2.108,2.886-4.217,6.012-6.09c1.442-0.703,2.885-1.406,4.327-1.874c6.973-2.342,15.389-2.342,22.361,0
		c1.442,0.468,2.885,1.171,4.327,1.874c3.126,1.874,5.05,3.982,6.012,6.09c0.24,0.937,0.48,1.874,0.48,2.576
		c0,3.279-2.164,6.324-6.492,8.901c-1.202,0.468-2.404,1.171-3.847,1.64c-6.973,2.576-16.35,2.576-23.322,0
		c-1.442-0.469-2.645-1.172-3.847-1.64c-4.328-2.577-6.492-5.622-6.492-8.901C829,389.181,829.24,388.243,829.48,387.307z"/>
	<path clip-path="url(#SVGID_2_)" fill-rule="evenodd" clip-rule="evenodd" fill="#B2302F" d="M861.459,390.784
		c1.684-0.974,2.885-1.946,3.606-3.406c-0.722-1.216-1.923-2.432-3.606-3.405c-5.771-3.406-15.147-3.406-20.918,0
		c-1.684,0.973-2.885,2.189-3.606,3.405c0.722,1.46,1.923,2.433,3.606,3.406C846.312,394.189,855.688,394.189,861.459,390.784z
		 M835.492,375.703c1.202-0.729,2.404-1.216,3.847-1.703c23.322,0,23.322,0,23.322,0c1.442,0.486,2.645,0.973,3.847,1.703
		c4.328,2.433,6.492,5.838,6.492,9c0,5.351,0,5.351,0,5.351c0,3.406-2.164,6.568-6.492,9.243c-1.202,0.487-2.404,1.217-3.847,1.703
		c-23.322,0-23.322,0-23.322,0c-1.442-0.486-2.645-1.216-3.847-1.703c-4.328-2.675-6.492-5.837-6.492-9.243c0-5.351,0-5.351,0-5.351
		C829,381.541,831.164,378.135,835.492,375.703z"/>
	<path clip-path="url(#SVGID_2_)" fill-rule="evenodd" clip-rule="evenodd" fill="#FF3E3E" d="M836.935,387.2
		c0.722,1.473,1.923,2.454,3.606,3.437c5.771,3.436,15.147,3.436,20.918,0c1.684-0.982,2.885-1.964,3.606-3.437
		c1.442-2.7,0.481-5.891-2.885-8.346c-0.241-0.246-0.481-0.246-0.722-0.491c-5.771-3.437-15.147-3.437-20.918,0
		c-0.24,0.245-0.48,0.245-0.722,0.491C836.453,381.309,835.492,384.5,836.935,387.2z M835.492,375.418
		c1.202-0.736,2.404-1.227,3.847-1.718c6.973-2.7,16.35-2.7,23.322,0c1.442,0.491,2.645,0.981,3.847,1.718
		c4.328,2.455,6.492,5.891,6.492,9.082c0,0.981-0.24,1.964-0.48,2.7c-0.962,2.454-2.886,4.663-6.012,6.627
		c-1.442,0.736-2.885,1.228-4.327,1.964c-6.973,2.209-15.389,2.209-22.361,0c-1.442-0.736-2.885-1.228-4.327-1.964
		c-3.126-1.964-5.05-4.173-6.012-6.627c-0.24-0.736-0.48-1.719-0.48-2.7C829,381.309,831.164,377.873,835.492,375.418z"/>
	<polygon clip-path="url(#SVGID_2_)" fill-rule="evenodd" clip-rule="evenodd" fill="#E37965" points="83,467.358 66.794,477 
		51,467.358 66.794,458 	"/>
	<polygon clip-path="url(#SVGID_2_)" fill-rule="evenodd" clip-rule="evenodd" fill="#C46457" points="83,467 83,485.621 67,495 
		67,476.379 	"/>
	<polygon clip-path="url(#SVGID_2_)" fill-rule="evenodd" clip-rule="evenodd" fill="#9E5349" points="51,467 67,476.379 67,495 
		51,485.482 	"/>
	<path clip-path="url(#SVGID_2_)" fill-rule="evenodd" clip-rule="evenodd" fill="#B2302F" d="M331.68,619.535
		c8.512-4.838,15.37-16.931,15.37-26.847c0-5.562-2.128-9.19-5.438-10.642c-10.167,1.692-19.153,19.59-19.153,19.59
		c-3.074,11.852-3.074,11.852-3.074,11.852c0.709,6.53,0.709,6.53,0.709,6.53C322.931,622.195,327.187,622.195,331.68,619.535z
		 M313,612.763c0-12.335,8.276-27.33,18.68-33.377c5.202-3.144,9.931-3.386,13.242-1.451l0,0c0.236,0.242,0.236,0.242,0.236,0.242
		c4.965,2.902,4.965,2.902,4.965,2.902c-1.418,0.726-1.418,0.726-1.418,0.726c0.709,1.209,1.182,2.66,1.418,4.111
		c0.236,0.242,0.473,0.484,0.473,0.484s10.404,34.586-22.7,39.181c-1.892,0.726-3.783,0.968-5.438,0.968
		c0.709,1.451,0.709,1.451,0.709,1.451c-4.729-2.66-4.729-2.66-4.729-2.66c0-0.242-0.236-0.242-0.236-0.242
		c-0.237-0.242-0.237-0.242-0.237-0.242l0,0C314.892,622.679,313,618.567,313,612.763z"/>
	<path clip-path="url(#SVGID_2_)" fill-rule="evenodd" clip-rule="evenodd" fill="#FF3E3E" d="M336.377,586.43
		c8.83-4.851,15.943-0.728,15.943,9.217c0,9.945-7.113,22.072-15.943,26.924c-8.585,5.094-15.698,0.97-15.698-8.975
		S327.792,591.523,336.377,586.43z M336.377,626.937C347.17,620.63,356,605.834,356,593.464s-8.83-17.464-19.623-11.157
		C325.585,588.37,317,603.408,317,615.778S325.585,633,336.377,626.937z"/>
	<path clip-path="url(#SVGID_2_)" fill-rule="evenodd" clip-rule="evenodd" fill="#B2302F" d="M338.216,623.535
		c8.407-5.079,15.373-17.172,15.373-27.089c0-5.32-2.162-8.948-5.285-10.399c-10.328,1.451-19.696,19.59-19.696,19.59
		c-2.882,11.852-2.882,11.852-2.882,11.852c0.721,6.53,0.721,6.53,0.721,6.53C329.088,626.195,333.412,626.195,338.216,623.535z
		 M319,616.763c0-12.335,8.647-27.33,19.216-33.377c5.044-3.144,9.848-3.386,13.211-1.451c0.24,0,0.24,0,0.24,0l0,0
		c0.24,0,0.24,0,0.24,0c4.804,3.145,4.804,3.145,4.804,3.145c-1.441,0.726-1.441,0.726-1.441,0.726
		c0.721,1.209,1.201,2.66,1.441,4.111c0.48,0.242,0.48,0.484,0.48,0.484s10.809,34.586-22.819,39.181
		c-2.162,0.726-4.083,0.968-5.765,0.726c0.721,1.693,0.721,1.693,0.721,1.693c-4.564-2.902-4.564-2.902-4.564-2.902
		c-0.24,0-0.24,0-0.48,0c-0.24-0.242-0.24-0.242-0.24-0.242l0,0C320.921,626.679,319,622.567,319,616.763z"/>
	<path clip-path="url(#SVGID_2_)" fill-rule="evenodd" clip-rule="evenodd" fill="#FF3E3E" d="M343.12,590.247
		c8.365-4.767,15.295-0.715,15.295,9.055c0,9.532-6.931,21.447-15.295,26.451c-8.604,4.767-15.535,0.953-15.535-8.816
		C327.585,607.166,334.516,595.251,343.12,590.247z M343.12,630.043c10.276-6.196,18.88-20.971,18.88-32.886
		c0-12.153-8.604-17.157-18.88-10.962c-10.516,5.958-19.12,20.732-19.12,32.886C324,630.996,332.604,636,343.12,630.043z"/>
	<path clip-path="url(#SVGID_2_)" fill-rule="evenodd" clip-rule="evenodd" fill="#586879" d="M344.3,488
		c-6.46,3.921-6.46,3.921-6.46,3.921c-1.436-0.735-2.872-1.226-4.546-1.716c-1.675-0.49-3.35-0.734-5.025-0.979
		c-0.958,0-2.154,0-3.111,0c-1.915,0-3.829,0-5.743,0.489c-3.11,0.49-5.503,1.471-7.657,2.695c-2.632,1.471-4.068,3.431-4.307,5.637
		c0,0.734,0,1.47,0.479,2.205c0.239,0.734,0.718,1.47,1.196,2.205c0.718,0.735,1.196,1.47,1.914,2.205
		c0.718,0.49,1.436,1.226,2.154,1.96c-8.614,4.901-8.614,4.901-8.614,4.901c-1.196-1.226-2.393-2.205-3.35-3.431
		s-1.914-2.45-2.872-3.431C284,508.093,284,508.093,284,508.093c1.436,1.715,2.872,3.431,4.546,5.146
		c1.436,1.471,3.111,3.186,5.264,4.655c-6.46,3.676-6.46,3.676-6.46,3.676c5.503,3.431,5.503,3.431,5.503,3.431
		c6.222-3.676,6.222-3.676,6.222-3.676c1.196,0.49,2.632,1.226,4.068,1.716c1.436,0.49,2.871,0.734,4.307,0.979
		c1.436,0.49,2.871,0.735,4.546,0.735c0.479,0,0.957,0,1.436,0c1.196,0,2.154,0,3.35-0.245c1.914-0.245,3.829-0.735,5.982-1.225
		c1.915-0.735,3.589-1.226,5.025-2.206c1.915-1.225,3.35-2.45,4.068-3.92c0.479-1.226,0.718-2.695,0.479-4.166
		c-0.24-1.225-0.958-2.695-1.915-4.165c-0.957-1.471-2.153-2.695-3.589-3.921c6.939-4.165,6.939-4.165,6.939-4.165
		c0.718,0.979,1.436,1.715,2.153,2.695c0.479,0.979,1.197,1.715,1.915,2.695c2.153-0.245,4.307-0.49,6.46-0.735
		c2.154-0.49,4.307-0.735,6.7-0.98c-1.196-1.715-2.154-3.186-3.35-4.9c-1.196-1.47-2.632-2.94-4.307-4.41
		c6.461-3.676,6.461-3.676,6.461-3.676C344.3,488,344.3,488,344.3,488 M322.525,500.742c-0.239-0.245-0.239-0.735-0.239-1.226
		s0.239-0.98,0.957-1.226c0.958-0.734,1.915-0.979,3.111-0.979c0.479,0,1.196,0.245,1.915,0.245
		C322.525,500.742,322.525,500.742,322.525,500.742 M313.671,515.443h-0.239c-1.196-0.245-2.393-0.245-3.35-0.734
		c7.179-4.166,7.179-4.166,7.179-4.166c0.479,0.735,0.718,1.471,0.718,2.205c0,0.735-0.239,1.226-1.196,1.716
		C315.825,515.198,314.868,515.443,313.671,515.443"/>
	<path clip-path="url(#SVGID_2_)" fill-rule="evenodd" clip-rule="evenodd" fill="#C46457" d="M351,494.123L351,494.123
		c-0.957-1.203-1.675-2.406-2.393-3.369c1.197-0.722,1.197-0.722,1.197-0.722l0,0c0-0.241,0-0.241,0-0.241l0,0c0-0.24,0-0.24,0-0.24
		l0,0c0-0.24,0-0.24,0-0.24l0,0c0-0.241,0-0.241,0-0.241l0,0c0-0.24,0-0.24,0-0.24l0,0c0-0.241,0-0.241,0-0.241l0,0
		c0-0.24,0-0.24,0-0.24l0,0c0-0.24,0-0.24,0-0.24l0,0c0-0.241,0-0.241,0-0.241l0,0c0-0.24,0-0.24,0-0.24l0,0
		c0-0.241,0-0.241,0-0.241l0,0c0-0.24,0-0.24,0-0.24l0,0c0-0.241,0-0.241,0-0.241l0,0c0-0.24,0-0.24,0-0.24l0,0
		c0-0.24,0-0.24,0-0.24l0,0c0-0.241,0-0.241,0-0.241l0,0c0-0.24,0-0.24,0-0.24l0,0c0-0.241,0-0.241,0-0.241l0,0
		c0-0.24,0-0.24,0-0.24l0,0c0-0.241,0-0.241,0-0.241l0,0c0-0.24,0-0.24,0-0.24l0,0c0-0.24,0-0.24,0-0.24l0,0
		c0-0.241,0-0.241,0-0.241l0,0c0-0.24,0-0.24,0-0.24l0,0c0-0.241,0-0.241,0-0.241l0,0c0-0.24,0-0.24,0-0.24l0,0
		c0-0.24,0-0.24,0-0.24l0,0c0-0.241,0-0.241,0-0.241l0,0c0-0.24,0-0.24,0-0.24l0,0c0-0.241,0-0.241,0-0.241l0,0
		c0-0.24,0-0.24,0-0.24l0,0c0-0.241,0-0.241,0-0.241l0,0c0-0.24,0-0.24,0-0.24l0,0c0-0.24,0-0.24,0-0.24l0,0
		c0-0.241,0-0.241,0-0.241l0,0c0-0.24,0-0.24,0-0.24l0,0C344.3,478,344.3,478,344.3,478c-6.46,3.851-6.46,3.851-6.46,3.851
		c-1.436-0.723-2.872-1.203-4.546-1.685c-1.675-0.481-3.35-0.723-5.025-0.963c-3.111-0.24-5.982,0-8.854,0.481
		c-3.11,0.481-5.503,1.443-7.657,2.646c-2.632,1.444-4.068,3.369-4.307,5.535c0,0.241,0,0.481,0,0.481c0,0.24,0,0.24,0,0.24l0,0
		c0,0.241,0,0.241,0,0.241l0,0c0,0.24,0,0.24,0,0.24l0,0c0,0.241,0,0.241,0,0.241l0,0c0,0.24,0,0.24,0,0.24l0,0
		c0,0.24,0,0.24,0,0.24l0,0c0,0.241,0,0.241,0,0.241l0,0c0,0.24,0,0.24,0,0.24l0,0c0,0.241,0,0.241,0,0.241l0,0
		c0,0.24,0,0.24,0,0.24l0,0c0,0.241,0,0.241,0,0.241l0,0c0,0.24,0,0.24,0,0.24l0,0c0,0.24,0,0.24,0,0.24l0,0
		c0,0.241,0,0.241,0,0.241l0,0c0,0.24,0,0.24,0,0.24l0,0c0,0.241,0,0.241,0,0.241l0,0c0,0.24,0,0.24,0,0.24l0,0
		c0,0.24,0,0.24,0,0.24l0,0c0,0.241,0,0.241,0,0.241l0,0c0,0.24,0,0.24,0,0.24l0,0c0,0.241,0,0.241,0,0.241l0,0
		c0,0.24,0,0.24,0,0.24l0,0c0,0.241,0,0.241,0,0.241l0,0c0,0.24,0,0.24,0,0.24l0,0c0,0.24,0,0.24,0,0.24l0,0
		c0,0.241,0,0.241,0,0.241l0,0c0,0.24,0,0.24,0,0.24l0,0c0,0.241,0,0.241,0,0.241l0,0c0,0.24,0,0.24,0,0.24l0,0
		c0,0.24,0,0.24,0,0.24l0,0c0,0.241,0,0.241,0,0.241l0,0c0,0.24,0,0.24,0,0.24l0,0c0,0.241,0,0.241,0,0.241l0,0
		c0,0.24,0,0.24,0,0.24l0,0c0,0.241,0,0.241,0,0.241l0,0c0,0.24,0,0.24,0,0.24l0,0c0,0.722,0.239,1.203,0.479,1.685
		c0,0.24,0,0.24,0,0.481c-3.35,1.925-3.35,1.925-3.35,1.925c-1.196-1.203-2.393-2.166-3.35-3.369s-1.914-2.166-2.872-3.369
		C284,497.732,284,497.732,284,497.732l0,0c0,0.241,0,0.241,0,0.241l0,0c0,0.24,0,0.24,0,0.24l0,0c0,0.241,0,0.241,0,0.241l0,0
		c0,0.24,0,0.24,0,0.24l0,0c0,0.24,0,0.24,0,0.24l0,0c0,0.241,0,0.241,0,0.241l0,0c0,0.24,0,0.24,0,0.24l0,0
		c0,0.241,0,0.241,0,0.241l0,0c0,0.24,0,0.24,0,0.24l0,0c0,0.24,0,0.24,0,0.24l0,0c0,0.241,0,0.241,0,0.241l0,0
		c0,0.24,0,0.24,0,0.24l0,0c0,0.241,0,0.241,0,0.241l0,0c0,0.24,0,0.24,0,0.24l0,0c0,0.24,0,0.24,0,0.24l0,0
		c0,0.241,0,0.241,0,0.241l0,0c0,0.24,0,0.24,0,0.24l0,0c0,0.241,0,0.241,0,0.241l0,0c0,0.24,0,0.24,0,0.24l0,0
		c0,0.24,0,0.24,0,0.24l0,0c0,0.241,0,0.241,0,0.241l0,0c0,0.24,0,0.24,0,0.24l0,0c0,0.241,0,0.241,0,0.241l0,0
		c0,0.24,0,0.24,0,0.24l0,0c0,0.241,0,0.241,0,0.241l0,0c0,0.24,0,0.24,0,0.24l0,0c0,0.24,0,0.24,0,0.24l0,0
		c0,0.241,0,0.241,0,0.241l0,0c0,0.24,0,0.24,0,0.24l0,0c0,0.241,0,0.241,0,0.241l0,0c0,0.24,0,0.24,0,0.24l0,0
		c0,0.241,0,0.241,0,0.241l0,0c0,0.24,0,0.24,0,0.24l0,0c0,0.24,0,0.24,0,0.24l0,0c0,0.241,0,0.241,0,0.241l0,0
		c0,0.24,0,0.24,0,0.24l0,0c1.196,1.444,2.632,2.888,3.829,4.332c-0.479,0.24-0.479,0.24-0.479,0.24c0,0.241,0,0.241,0,0.241l0,0
		c0,0.24,0,0.24,0,0.24l0,0c0,0.24,0,0.24,0,0.24l0,0c0,0.241,0,0.241,0,0.241l0,0c0,0.24,0,0.24,0,0.24l0,0
		c0,0.241,0,0.241,0,0.241l0,0c0,0.24,0,0.24,0,0.24l0,0c0,0.24,0,0.24,0,0.24l0,0c0,0.241,0,0.241,0,0.241l0,0
		c0,0.24,0,0.24,0,0.24l0,0c0,0.241,0,0.241,0,0.241l0,0c0,0.24,0,0.24,0,0.24l0,0c0,0.241,0,0.241,0,0.241l0,0
		c0,0.24,0,0.24,0,0.24l0,0c0,0.24,0,0.24,0,0.24l0,0c0,0.241,0,0.241,0,0.241l0,0c0,0.24,0,0.24,0,0.24l0,0
		c0,0.241,0,0.241,0,0.241l0,0c0,0.24,0,0.24,0,0.24l0,0c0,0.24,0,0.24,0,0.24l0,0c0,0.241,0,0.241,0,0.241l0,0
		c0,0.24,0,0.24,0,0.24l0,0c0,0.241,0,0.241,0,0.241l0,0c0,0.24,0,0.24,0,0.24l0,0c0,0.241,0,0.241,0,0.241l0,0
		c0,0.24,0,0.24,0,0.24l0,0c0,0.24,0,0.24,0,0.24l0,0c0,0.241,0,0.241,0,0.241l0,0c0,0.24,0,0.24,0,0.24l0,0
		c0,0.241,0,0.241,0,0.241l0,0c0,0.24,0,0.24,0,0.24l0,0c0,0.241,0,0.241,0,0.241l0,0c0,0.24,0,0.24,0,0.24l0,0
		c0,0.24,0,0.24,0,0.24l0,0c0,0.241,0,0.241,0,0.241l0,0c0,0.24,0,0.24,0,0.24l0,0c5.503,3.369,5.503,3.369,5.503,3.369
		c6.222-3.609,6.222-3.609,6.222-3.609c1.196,0.481,2.632,1.203,4.068,1.685c1.436,0.481,2.871,0.722,4.307,0.962
		c1.436,0.481,2.871,0.723,4.546,0.723c1.675,0,3.11,0,4.786-0.241c1.914-0.24,3.829-0.722,5.982-1.203
		c1.915-0.722,3.589-1.203,5.025-2.166c1.915-1.203,3.35-2.406,4.068-3.85c0.479-0.963,0.718-1.926,0.718-2.888
		c0-0.241,0-0.241,0-0.241l0,0c0-0.24,0-0.24,0-0.24l0,0c0-0.241,0-0.241,0-0.241l0,0c0-0.24,0-0.24,0-0.24l0,0
		c0-0.24,0-0.24,0-0.24l0,0c0-0.241,0-0.241,0-0.241l0,0c0-0.24,0-0.24,0-0.24l0,0c0-0.241,0-0.241,0-0.241l0,0
		c0-0.24,0-0.24,0-0.24l0,0c0-0.241,0-0.241,0-0.241l0,0c0-0.24,0-0.24,0-0.24l0,0c0-0.24,0-0.24,0-0.24l0,0
		c0-0.241,0-0.241,0-0.241l0,0c0-0.24,0-0.24,0-0.24l0,0c0-0.241,0-0.241,0-0.241l0,0c0-0.24,0-0.24,0-0.24l0,0
		c0-0.24,0-0.24,0-0.24l0,0c0-0.241,0-0.241,0-0.241l0,0c0-0.24,0-0.24,0-0.24l0,0c0-0.241,0-0.241,0-0.241l0,0
		c0-0.24,0-0.24,0-0.24l0,0c0-0.241,0-0.241,0-0.241l0,0c0-0.24,0-0.24,0-0.24l0,0c0-0.24,0-0.24,0-0.24l0,0
		c0-0.241,0-0.241,0-0.241l0,0c0-0.24,0-0.24,0-0.24l0,0c0-0.241,0-0.241,0-0.241l0,0c0-0.24,0-0.24,0-0.24l0,0
		c0-0.24,0-0.24,0-0.24l0,0c0-0.241,0-0.241,0-0.241l0,0c0-0.24,0-0.24,0-0.24l0,0c0-0.241,0-0.241,0-0.241l0,0
		c0-0.24,0-0.24,0-0.24l0,0c0-0.241,0-0.241,0-0.241l0,0c0-0.24,0-0.24,0-0.24l0,0c0-0.24,0-0.24,0-0.24l0,0
		c0-0.481-0.239-0.723-0.239-1.204c0-0.722-0.24-1.443-0.718-2.165c2.154-1.203,2.154-1.203,2.154-1.203
		c0.718,0.962,1.436,1.685,2.153,2.646c0.479,0.963,1.197,1.685,1.915,2.647c2.153-0.241,4.307-0.481,6.46-0.722
		c2.154-0.481,4.307-0.723,6.7-0.963l0,0c0-0.241,0-0.241,0-0.241l0,0c0-0.24,0-0.24,0-0.24l0,0c0-0.24,0-0.24,0-0.24l0,0
		c0-0.241,0-0.241,0-0.241l0,0c0-0.24,0-0.24,0-0.24l0,0c0-0.241,0-0.241,0-0.241l0,0c0-0.24,0-0.24,0-0.24l0,0
		c0-0.24,0-0.24,0-0.24l0,0c0-0.241,0-0.241,0-0.241l0,0c0-0.24,0-0.24,0-0.24l0,0c0-0.241,0-0.241,0-0.241l0,0
		c0-0.24,0-0.24,0-0.24l0,0c0-0.24,0-0.24,0-0.24l0,0c0-0.241,0-0.241,0-0.241l0,0c0-0.24,0-0.24,0-0.24l0,0
		c0-0.241,0-0.241,0-0.241l0,0c0-0.24,0-0.24,0-0.24l0,0c0-0.24,0-0.24,0-0.24l0,0c0-0.241,0-0.241,0-0.241l0,0
		c0-0.24,0-0.24,0-0.24l0,0c0-0.241,0-0.241,0-0.241l0,0c0-0.24,0-0.24,0-0.24l0,0c0-0.241,0-0.241,0-0.241l0,0
		c0-0.24,0-0.24,0-0.24l0,0c0-0.24,0-0.24,0-0.24l0,0c0-0.241,0-0.241,0-0.241l0,0c0-0.24,0-0.24,0-0.24l0,0
		c0-0.241,0-0.241,0-0.241l0,0c0-0.24,0-0.24,0-0.24l0,0c0-0.241,0-0.241,0-0.241l0,0c0-0.24,0-0.24,0-0.24l0,0
		c0-0.24,0-0.24,0-0.24l0,0c0-0.241,0-0.241,0-0.241l0,0c0-0.24,0-0.24,0-0.24l0,0c0-0.241,0-0.241,0-0.241l0,0
		C351,494.123,351,494.123,351,494.123L351,494.123z"/>
	<path clip-path="url(#SVGID_2_)" fill-rule="evenodd" clip-rule="evenodd" fill="#E37965" d="M317.261,500.543
		c-7.179,4.166-7.179,4.166-7.179,4.166c0.957,0.489,2.154,0.489,3.35,0.734c1.196,0,2.393-0.245,3.35-0.979
		c0.957-0.49,1.196-0.98,1.196-1.716C317.979,502.014,317.739,501.278,317.261,500.543z M328.268,487.557
		c-1.915-0.49-3.589-0.245-5.025,0.734c-0.718,0.245-0.957,0.735-0.957,1.226s0,0.98,0.239,1.226L328.268,487.557z M299.075,511.324
		C292.854,515,292.854,515,292.854,515c-5.503-3.431-5.503-3.431-5.503-3.431c6.46-3.676,6.46-3.676,6.46-3.676
		c-2.153-1.47-3.829-3.185-5.264-4.655c-1.675-1.715-3.111-3.431-4.546-5.146c14.357-3.431,14.357-3.431,14.357-3.431
		c0.958,1.226,1.915,2.205,2.872,3.431s2.154,2.205,3.35,3.431c8.614-4.901,8.614-4.901,8.614-4.901
		c-0.718-0.734-1.436-1.47-2.154-1.96c-0.718-0.735-1.196-1.47-1.914-2.205c-0.479-0.735-0.957-1.471-1.196-2.205
		c-0.479-0.735-0.479-1.471-0.479-2.205c0.239-2.206,1.675-4.166,4.307-5.637c2.153-1.225,4.546-2.205,7.657-2.695
		c2.872-0.489,5.743-0.734,8.854-0.489c1.675,0.245,3.35,0.489,5.025,0.979c1.675,0.49,3.111,0.98,4.546,1.716
		C344.3,478,344.3,478,344.3,478c5.504,3.431,5.504,3.431,5.504,3.431c-6.461,3.676-6.461,3.676-6.461,3.676
		c1.675,1.47,3.111,2.94,4.307,4.41c1.196,1.715,2.154,3.186,3.35,4.9c-2.393,0.245-4.546,0.49-6.7,0.98
		c-2.153,0.245-4.307,0.49-6.46,0.735c-0.718-0.98-1.436-1.716-1.915-2.695c-0.718-0.98-1.436-1.716-2.153-2.695
		c-6.939,4.165-6.939,4.165-6.939,4.165c1.436,1.226,2.632,2.45,3.589,3.921c0.957,1.47,1.675,2.94,1.915,4.165
		c0.239,1.471,0,2.94-0.479,4.166c-0.718,1.47-2.153,2.695-4.068,3.92c-1.436,0.98-3.11,1.716-5.025,2.206
		c-2.153,0.489-4.068,0.979-5.982,1.225c-1.675,0.245-3.111,0.245-4.786,0.245c-1.675,0-3.111-0.245-4.546-0.735
		c-1.436-0.245-2.872-0.49-4.307-0.979C301.707,512.55,300.271,511.814,299.075,511.324z"/>
</g>
</svg>
