<svg width="24" height="22" viewBox="0 0 24 22" fill="none" xmlns="http://www.w3.org/2000/svg">
<path d="M16.9949 6.42132C16.7099 5.01434 16.0111 3.70546 14.9738 2.63599C13.9366 1.56651 12.6003 0.777093 11.1093 0.352957C9.61837 -0.0711797 8.02933 -0.113916 6.51379 0.229362C4.99826 0.572641 3.61381 1.28889 2.50994 2.30078C1.40606 3.31266 0.624699 4.58174 0.250213 5.97098C-0.124272 7.36022 -0.0776505 8.81684 0.385044 10.1836C0.847738 11.5503 1.70893 12.7752 2.87562 13.726C4.04232 14.6768 5.47019 15.3174 7.00507 15.5787C7.29006 16.9857 7.98891 18.2945 9.02617 19.364C10.0634 20.4335 11.3997 21.2229 12.8907 21.647C14.3816 22.0712 15.9707 22.1139 17.4862 21.7706C19.0017 21.4274 20.3862 20.7111 21.4901 19.6992C22.5939 18.6873 23.3753 17.4183 23.7498 16.029C24.1243 14.6398 24.0777 13.1832 23.615 11.8164C23.1523 10.4497 22.2911 9.22481 21.1244 8.27399C19.9577 7.32317 18.5298 6.68256 16.9949 6.42132ZM1.71664 7.85786C1.71335 6.32615 2.32045 4.84607 3.42384 3.69579C4.52723 2.54551 6.05094 1.80424 7.70859 1.61128C9.36624 1.41833 11.0437 1.78698 12.4257 2.64795C13.8077 3.50893 14.7991 4.80294 15.2135 6.28679C13.0163 6.33972 10.9251 7.16379 9.37136 8.58894C7.81765 10.0141 6.92001 11.9316 6.86368 13.9458C5.39152 13.5966 4.08743 12.8094 3.15593 11.7076C2.22443 10.6058 1.7182 9.25178 1.71664 7.85786ZM15.4278 20.4264C13.9079 20.4253 12.4313 19.9619 11.2294 19.109C10.0276 18.2561 9.16839 17.0618 8.78645 15.7132C10.9846 15.6615 13.0772 14.838 14.6321 13.4127C16.1869 11.9874 17.0853 10.0692 17.1417 8.05425C18.7604 8.43416 20.1721 9.34293 21.1113 10.6098C22.0506 11.8766 22.4527 13.4143 22.2422 14.9338C22.0317 16.4533 21.2231 17.85 19.9682 18.8615C18.7134 19.8729 17.0987 20.4294 15.4278 20.4264Z" fill="#2C2C2C"/>
</svg>
