<svg xmlns="http://www.w3.org/2000/svg" viewBox="0 0 505.698 505.698">
    <circle cx="252.849" cy="252.849" r="252.849" fill="#2aa0da"/>
    <g fill="#183651">
        <path d="M386.757 127.606H163.84V37.022h-54.351V21.268h70.105v90.584h207.163zM447.409 352.886h-74.043V181.957h-79.557v-15.754h95.311v170.929h42.535v-48.837h15.754zM331.618 297.748h-62.227v-55.139h-45.686v-15.754h61.44v55.139h46.473zM371.003 407.237H307.2v-50.412h-91.372v-50.413h15.754v34.659h91.372v50.412h48.049z"/>
        <path d="M447.409 460.012H269.391v-52.775h-45.686v-15.754h61.44v52.775h146.51V399.36h15.754zM223.705 484.431H163.84V247.335H37.809V89.797h71.68v15.754H53.563v126.031h126.031v237.095h44.111zM431.655 29.145h15.754v183.532h-15.754z"/>
    </g>
    <circle cx="439.532" cy="29.145" r="20.48" fill="#fcbd5e"/>
    <path d="M439.532 57.502c-15.754 0-28.357-12.603-28.357-28.357S423.778.788 439.532.788s28.357 12.603 28.357 28.357-12.603 28.357-28.357 28.357zm0-40.96c-7.089 0-12.603 5.514-12.603 12.603s5.514 12.603 12.603 12.603c7.089 0 12.603-5.514 12.603-12.603s-5.513-12.603-12.603-12.603z" fill="#183651"/>
    <circle cx="439.532" cy="210.314" r="20.48" fill="#fcbd5e"/>
    <path d="M439.532 238.671c-15.754 0-28.357-12.603-28.357-28.357s12.603-28.357 28.357-28.357 28.357 12.603 28.357 28.357-12.603 28.357-28.357 28.357zm0-40.96c-7.089 0-12.603 5.514-12.603 12.603 0 7.089 5.514 12.603 12.603 12.603 7.089 0 12.603-5.514 12.603-12.603 0-7.089-5.513-12.603-12.603-12.603z" fill="#183651"/>
    <circle cx="439.532" cy="287.508" r="20.48" fill="#fcbd5e"/>
    <path d="M439.532 315.865c-15.754 0-28.357-12.603-28.357-28.357s12.603-28.357 28.357-28.357 28.357 12.603 28.357 28.357-12.603 28.357-28.357 28.357zm0-40.96c-7.089 0-12.603 5.514-12.603 12.603 0 7.089 5.514 12.603 12.603 12.603 7.089 0 12.603-5.514 12.603-12.603s-5.513-12.603-12.603-12.603z" fill="#183651"/>
    <circle cx="439.532" cy="399.36" r="20.48" fill="#fcbd5e"/>
    <path d="M439.532 427.717c-15.754 0-28.357-12.603-28.357-28.357s12.603-28.357 28.357-28.357 28.357 12.603 28.357 28.357-12.603 28.357-28.357 28.357zm0-40.96c-7.089 0-12.603 5.514-12.603 12.603s5.514 12.603 12.603 12.603c7.089 0 12.603-5.514 12.603-12.603 0-6.302-5.513-12.603-12.603-12.603z" fill="#183651"/>
    <circle cx="371.003" cy="399.36" r="20.48" fill="#fcbd5e"/>
    <path d="M371.003 427.717c-15.754 0-28.357-12.603-28.357-28.357s12.603-28.357 28.357-28.357 28.357 12.603 28.357 28.357-13.391 28.357-28.357 28.357zm0-40.96c-7.089 0-12.603 5.514-12.603 12.603s5.514 12.603 12.603 12.603c7.089 0 12.603-5.514 12.603-12.603 0-6.302-6.301-12.603-12.603-12.603z" fill="#183651"/>
    <circle cx="223.705" cy="399.36" r="20.48" fill="#fcbd5e"/>
    <path d="M223.705 427.717c-15.754 0-28.357-12.603-28.357-28.357s12.603-28.357 28.357-28.357 28.357 12.603 28.357 28.357-12.604 28.357-28.357 28.357zm0-40.96c-7.089 0-12.603 5.514-12.603 12.603s5.514 12.603 12.603 12.603c7.089 0 12.603-5.514 12.603-12.603 0-6.302-5.514-12.603-12.603-12.603z" fill="#183651"/>
    <circle cx="223.705" cy="306.412" r="20.48" fill="#fcbd5e"/>
    <path d="M223.705 334.769c-15.754 0-28.357-12.603-28.357-28.357s12.603-28.357 28.357-28.357 28.357 12.603 28.357 28.357-12.604 28.357-28.357 28.357zm0-40.96c-7.089 0-12.603 5.514-12.603 12.603 0 7.089 5.514 12.603 12.603 12.603 7.089 0 12.603-5.514 12.603-12.603s-5.514-12.603-12.603-12.603z" fill="#183651"/>
    <circle cx="223.705" cy="234.732" r="20.48" fill="#fcbd5e"/>
    <path d="M223.705 263.089c-15.754 0-28.357-12.603-28.357-28.357s12.603-28.357 28.357-28.357 28.357 12.603 28.357 28.357-12.604 28.357-28.357 28.357zm0-40.96c-7.089 0-12.603 5.514-12.603 12.603 0 7.089 5.514 12.603 12.603 12.603 7.089 0 12.603-5.514 12.603-12.603s-5.514-12.603-12.603-12.603z" fill="#183651"/>
    <circle cx="330.043" cy="289.871" r="20.48" fill="#fcbd5e"/>
    <path d="M330.043 318.228c-15.754 0-28.357-12.603-28.357-28.357s12.603-28.357 28.357-28.357 28.357 12.603 28.357 28.357-12.603 28.357-28.357 28.357zm0-40.96c-7.089 0-12.603 5.514-12.603 12.603 0 7.089 5.514 12.603 12.603 12.603s12.603-5.514 12.603-12.603c0-7.089-5.514-12.603-12.603-12.603z" fill="#183651"/>
    <circle cx="386.757" cy="119.729" r="20.48" fill="#fcbd5e"/>
    <path d="M386.757 148.086c-15.754 0-28.357-12.603-28.357-28.357s12.603-28.357 28.357-28.357 28.357 12.603 28.357 28.357-12.603 28.357-28.357 28.357zm0-40.96c-7.089 0-12.603 5.514-12.603 12.603 0 7.089 5.514 12.603 12.603 12.603 7.089 0 12.603-5.514 12.603-12.603 0-7.089-5.514-12.603-12.603-12.603z" fill="#183651"/>
    <circle cx="293.809" cy="174.08" r="20.48" fill="#fcbd5e"/>
    <g fill="#183651">
        <path d="M293.809 202.437c-15.754 0-28.357-12.603-28.357-28.357s12.603-28.357 28.357-28.357 28.357 12.603 28.357 28.357-12.603 28.357-28.357 28.357zm0-40.96c-7.089 0-12.603 5.514-12.603 12.603s5.514 12.603 12.603 12.603 12.603-5.514 12.603-12.603-5.514-12.603-12.603-12.603zM101.612 294.597h15.754v181.957h-15.754z"/>
    </g>
    <circle cx="109.489" cy="294.597" r="20.48" fill="#fcbd5e"/>
    <path d="M109.489 322.954c-15.754 0-28.357-12.603-28.357-28.357s12.603-28.357 28.357-28.357 28.357 12.603 28.357 28.357a28.239 28.239 0 0 1-28.357 28.357zm0-40.96c-7.089 0-12.603 5.514-12.603 12.603 0 7.089 5.514 12.603 12.603 12.603 7.089 0 12.603-5.514 12.603-12.603 0-7.089-5.514-12.603-12.603-12.603z" fill="#183651"/>
    <circle cx="109.489" cy="476.554" r="20.48" fill="#fcbd5e"/>
    <g fill="#183651">
        <path d="M109.489 504.911c-15.754 0-28.357-12.603-28.357-28.357s12.603-28.357 28.357-28.357 28.357 12.603 28.357 28.357a28.239 28.239 0 0 1-28.357 28.357zm0-40.96c-7.089 0-12.603 5.514-12.603 12.603 0 7.089 5.514 12.603 12.603 12.603 7.089 0 12.603-5.514 12.603-12.603 0-7.089-5.514-12.603-12.603-12.603zM109.489 159.902h114.215v15.754H109.489z"/>
    </g>
    <circle cx="223.705" cy="167.778" r="20.48" fill="#fcbd5e"/>
    <path d="M223.705 196.135c-15.754 0-28.357-12.603-28.357-28.357s12.603-28.357 28.357-28.357 28.357 12.603 28.357 28.357-12.604 28.357-28.357 28.357zm0-40.172c-7.089 0-12.603 5.514-12.603 12.603 0 7.089 5.514 12.603 12.603 12.603 7.089 0 12.603-5.514 12.603-12.603s-5.514-12.603-12.603-12.603z" fill="#183651"/>
    <circle cx="109.489" cy="167.778" r="20.48" fill="#fcbd5e"/>
    <path d="M109.489 196.135c-15.754 0-28.357-12.603-28.357-28.357s12.603-28.357 28.357-28.357 28.357 12.603 28.357 28.357-12.603 28.357-28.357 28.357zm0-40.172c-7.089 0-12.603 5.514-12.603 12.603 0 7.089 5.514 12.603 12.603 12.603 7.089 0 12.603-5.514 12.603-12.603 0-7.089-5.514-12.603-12.603-12.603z" fill="#183651"/>
    <circle cx="109.489" cy="97.674" r="20.48" fill="#fcbd5e"/>
    <path d="M109.489 126.031c-15.754 0-28.357-12.603-28.357-28.357s12.603-28.357 28.357-28.357 28.357 12.603 28.357 28.357-12.603 28.357-28.357 28.357zm0-40.96c-7.089 0-12.603 5.514-12.603 12.603s5.514 12.603 12.603 12.603c7.089 0 12.603-5.514 12.603-12.603s-5.514-12.603-12.603-12.603z" fill="#183651"/>
    <circle cx="109.489" cy="29.145" r="20.48" fill="#fcbd5e"/>
    <path d="M109.489 57.502c-15.754 0-28.357-12.603-28.357-28.357S93.735.788 109.489.788s28.357 12.603 28.357 28.357a28.24 28.24 0 0 1-28.357 28.357zm0-40.96c-7.089 0-12.603 5.514-12.603 12.603s5.514 12.603 12.603 12.603c7.089 0 12.603-5.514 12.603-12.603 0-7.09-5.514-12.603-12.603-12.603z" fill="#183651"/>
    <circle cx="223.705" cy="476.554" r="20.48" fill="#fcbd5e"/>
    <g fill="#183651">
        <path d="M223.705 504.911c-15.754 0-28.357-12.603-28.357-28.357s12.603-28.357 28.357-28.357 28.357 12.603 28.357 28.357a28.24 28.24 0 0 1-28.357 28.357zm0-40.96c-7.089 0-12.603 5.514-12.603 12.603 0 7.089 5.514 12.603 12.603 12.603 7.089 0 12.603-5.514 12.603-12.603 0-7.089-5.514-12.603-12.603-12.603zM40.172 270.178h15.754v15.754H40.172zM40.172 319.015h15.754v15.754H40.172zM40.172 367.852h15.754v15.754H40.172z"/>
    </g>
</svg>
