<?xml version="1.0" encoding="iso-8859-1"?>
<!-- Generator: Adobe Illustrator 19.0.0, SVG Export Plug-In . SVG Version: 6.00 Build 0)  -->
<svg version="1.1" id="Capa_1" xmlns="http://www.w3.org/2000/svg" xmlns:xlink="http://www.w3.org/1999/xlink" x="0px" y="0px"
	 viewBox="0 0 505.698 505.698" style="enable-background:new 0 0 505.698 505.698;" xml:space="preserve">
<circle style="fill:#2AA0DA;" cx="252.849" cy="252.849" r="252.849"/>
<g>
	<polygon style="fill:#183651;" points="386.757,127.606 163.84,127.606 163.84,37.022 109.489,37.022 109.489,21.268 
		179.594,21.268 179.594,111.852 386.757,111.852 	"/>
	<polygon style="fill:#183651;" points="447.409,352.886 373.366,352.886 373.366,181.957 293.809,181.957 293.809,166.203 
		389.12,166.203 389.12,337.132 431.655,337.132 431.655,288.295 447.409,288.295 	"/>
	<polygon style="fill:#183651;" points="331.618,297.748 269.391,297.748 269.391,242.609 223.705,242.609 223.705,226.855 
		285.145,226.855 285.145,281.994 331.618,281.994 	"/>
	<polygon style="fill:#183651;" points="371.003,407.237 307.2,407.237 307.2,356.825 215.828,356.825 215.828,306.412 
		231.582,306.412 231.582,341.071 322.954,341.071 322.954,391.483 371.003,391.483 	"/>
	<polygon style="fill:#183651;" points="447.409,460.012 269.391,460.012 269.391,407.237 223.705,407.237 223.705,391.483 
		285.145,391.483 285.145,444.258 431.655,444.258 431.655,399.36 447.409,399.36 	"/>
	<polygon style="fill:#183651;" points="223.705,484.431 163.84,484.431 163.84,247.335 37.809,247.335 37.809,89.797 
		109.489,89.797 109.489,105.551 53.563,105.551 53.563,231.582 179.594,231.582 179.594,468.677 223.705,468.677 	"/>
	<rect x="431.655" y="29.145" style="fill:#183651;" width="15.754" height="183.532"/>
</g>
<circle style="fill:#FCBD5E;" cx="439.532" cy="29.145" r="20.48"/>
<path style="fill:#183651;" d="M439.532,57.502c-15.754,0-28.357-12.603-28.357-28.357s12.603-28.357,28.357-28.357
	c15.754,0,28.357,12.603,28.357,28.357S455.286,57.502,439.532,57.502z M439.532,16.542c-7.089,0-12.603,5.514-12.603,12.603
	s5.514,12.603,12.603,12.603c7.089,0,12.603-5.514,12.603-12.603S446.622,16.542,439.532,16.542z"/>
<circle style="fill:#FCBD5E;" cx="439.532" cy="210.314" r="20.48"/>
<path style="fill:#183651;" d="M439.532,238.671c-15.754,0-28.357-12.603-28.357-28.357s12.603-28.357,28.357-28.357
	c15.754,0,28.357,12.603,28.357,28.357S455.286,238.671,439.532,238.671z M439.532,197.711c-7.089,0-12.603,5.514-12.603,12.603
	c0,7.089,5.514,12.603,12.603,12.603c7.089,0,12.603-5.514,12.603-12.603C452.135,203.225,446.622,197.711,439.532,197.711z"/>
<circle style="fill:#FCBD5E;" cx="439.532" cy="287.508" r="20.48"/>
<path style="fill:#183651;" d="M439.532,315.865c-15.754,0-28.357-12.603-28.357-28.357s12.603-28.357,28.357-28.357
	c15.754,0,28.357,12.603,28.357,28.357S455.286,315.865,439.532,315.865z M439.532,274.905c-7.089,0-12.603,5.514-12.603,12.603
	c0,7.089,5.514,12.603,12.603,12.603c7.089,0,12.603-5.514,12.603-12.603S446.622,274.905,439.532,274.905z"/>
<circle style="fill:#FCBD5E;" cx="439.532" cy="399.36" r="20.48"/>
<path style="fill:#183651;" d="M439.532,427.717c-15.754,0-28.357-12.603-28.357-28.357s12.603-28.357,28.357-28.357
	c15.754,0,28.357,12.603,28.357,28.357S455.286,427.717,439.532,427.717z M439.532,386.757c-7.089,0-12.603,5.514-12.603,12.603
	s5.514,12.603,12.603,12.603c7.089,0,12.603-5.514,12.603-12.603C452.135,393.058,446.622,386.757,439.532,386.757z"/>
<circle style="fill:#FCBD5E;" cx="371.003" cy="399.36" r="20.48"/>
<path style="fill:#183651;" d="M371.003,427.717c-15.754,0-28.357-12.603-28.357-28.357s12.603-28.357,28.357-28.357
	s28.357,12.603,28.357,28.357S385.969,427.717,371.003,427.717z M371.003,386.757c-7.089,0-12.603,5.514-12.603,12.603
	s5.514,12.603,12.603,12.603c7.089,0,12.603-5.514,12.603-12.603C383.606,393.058,377.305,386.757,371.003,386.757z"/>
<circle style="fill:#FCBD5E;" cx="223.705" cy="399.36" r="20.48"/>
<path style="fill:#183651;" d="M223.705,427.717c-15.754,0-28.357-12.603-28.357-28.357s12.603-28.357,28.357-28.357
	s28.357,12.603,28.357,28.357S239.458,427.717,223.705,427.717z M223.705,386.757c-7.089,0-12.603,5.514-12.603,12.603
	s5.514,12.603,12.603,12.603c7.089,0,12.603-5.514,12.603-12.603C236.308,393.058,230.794,386.757,223.705,386.757z"/>
<circle style="fill:#FCBD5E;" cx="223.705" cy="306.412" r="20.48"/>
<path style="fill:#183651;" d="M223.705,334.769c-15.754,0-28.357-12.603-28.357-28.357s12.603-28.357,28.357-28.357
	s28.357,12.603,28.357,28.357S239.458,334.769,223.705,334.769z M223.705,293.809c-7.089,0-12.603,5.514-12.603,12.603
	c0,7.089,5.514,12.603,12.603,12.603c7.089,0,12.603-5.514,12.603-12.603S230.794,293.809,223.705,293.809z"/>
<circle style="fill:#FCBD5E;" cx="223.705" cy="234.732" r="20.48"/>
<path style="fill:#183651;" d="M223.705,263.089c-15.754,0-28.357-12.603-28.357-28.357s12.603-28.357,28.357-28.357
	s28.357,12.603,28.357,28.357S239.458,263.089,223.705,263.089z M223.705,222.129c-7.089,0-12.603,5.514-12.603,12.603
	c0,7.089,5.514,12.603,12.603,12.603c7.089,0,12.603-5.514,12.603-12.603S230.794,222.129,223.705,222.129z"/>
<circle style="fill:#FCBD5E;" cx="330.043" cy="289.871" r="20.48"/>
<path style="fill:#183651;" d="M330.043,318.228c-15.754,0-28.357-12.603-28.357-28.357s12.603-28.357,28.357-28.357
	s28.357,12.603,28.357,28.357S345.797,318.228,330.043,318.228z M330.043,277.268c-7.089,0-12.603,5.514-12.603,12.603
	c0,7.089,5.514,12.603,12.603,12.603s12.603-5.514,12.603-12.603C342.646,282.782,337.132,277.268,330.043,277.268z"/>
<circle style="fill:#FCBD5E;" cx="386.757" cy="119.729" r="20.48"/>
<path style="fill:#183651;" d="M386.757,148.086c-15.754,0-28.357-12.603-28.357-28.357s12.603-28.357,28.357-28.357
	c15.754,0,28.357,12.603,28.357,28.357S402.511,148.086,386.757,148.086z M386.757,107.126c-7.089,0-12.603,5.514-12.603,12.603
	c0,7.089,5.514,12.603,12.603,12.603c7.089,0,12.603-5.514,12.603-12.603C399.36,112.64,393.846,107.126,386.757,107.126z"/>
<circle style="fill:#FCBD5E;" cx="293.809" cy="174.08" r="20.48"/>
<g>
	<path style="fill:#183651;" d="M293.809,202.437c-15.754,0-28.357-12.603-28.357-28.357s12.603-28.357,28.357-28.357
		s28.357,12.603,28.357,28.357S309.563,202.437,293.809,202.437z M293.809,161.477c-7.089,0-12.603,5.514-12.603,12.603
		s5.514,12.603,12.603,12.603s12.603-5.514,12.603-12.603S300.898,161.477,293.809,161.477z"/>
	<rect x="101.612" y="294.597" style="fill:#183651;" width="15.754" height="181.957"/>
</g>
<circle style="fill:#FCBD5E;" cx="109.489" cy="294.597" r="20.48"/>
<path style="fill:#183651;" d="M109.489,322.954c-15.754,0-28.357-12.603-28.357-28.357s12.603-28.357,28.357-28.357
	s28.357,12.603,28.357,28.357C137.846,310.351,125.243,322.954,109.489,322.954z M109.489,281.994
	c-7.089,0-12.603,5.514-12.603,12.603c0,7.089,5.514,12.603,12.603,12.603c7.089,0,12.603-5.514,12.603-12.603
	C122.092,287.508,116.578,281.994,109.489,281.994z"/>
<circle style="fill:#FCBD5E;" cx="109.489" cy="476.554" r="20.48"/>
<g>
	<path style="fill:#183651;" d="M109.489,504.911c-15.754,0-28.357-12.603-28.357-28.357s12.603-28.357,28.357-28.357
		s28.357,12.603,28.357,28.357C137.846,492.308,125.243,504.911,109.489,504.911z M109.489,463.951
		c-7.089,0-12.603,5.514-12.603,12.603c0,7.089,5.514,12.603,12.603,12.603c7.089,0,12.603-5.514,12.603-12.603
		C122.092,469.465,116.578,463.951,109.489,463.951z"/>
	<rect x="109.489" y="159.902" style="fill:#183651;" width="114.215" height="15.754"/>
</g>
<circle style="fill:#FCBD5E;" cx="223.705" cy="167.778" r="20.48"/>
<path style="fill:#183651;" d="M223.705,196.135c-15.754,0-28.357-12.603-28.357-28.357s12.603-28.357,28.357-28.357
	s28.357,12.603,28.357,28.357S239.458,196.135,223.705,196.135z M223.705,155.963c-7.089,0-12.603,5.514-12.603,12.603
	c0,7.089,5.514,12.603,12.603,12.603c7.089,0,12.603-5.514,12.603-12.603S230.794,155.963,223.705,155.963z"/>
<circle style="fill:#FCBD5E;" cx="109.489" cy="167.778" r="20.48"/>
<path style="fill:#183651;" d="M109.489,196.135c-15.754,0-28.357-12.603-28.357-28.357s12.603-28.357,28.357-28.357
	s28.357,12.603,28.357,28.357S125.243,196.135,109.489,196.135z M109.489,155.963c-7.089,0-12.603,5.514-12.603,12.603
	c0,7.089,5.514,12.603,12.603,12.603c7.089,0,12.603-5.514,12.603-12.603C122.092,161.477,116.578,155.963,109.489,155.963z"/>
<circle style="fill:#FCBD5E;" cx="109.489" cy="97.674" r="20.48"/>
<path style="fill:#183651;" d="M109.489,126.031c-15.754,0-28.357-12.603-28.357-28.357s12.603-28.357,28.357-28.357
	s28.357,12.603,28.357,28.357S125.243,126.031,109.489,126.031z M109.489,85.071c-7.089,0-12.603,5.514-12.603,12.603
	s5.514,12.603,12.603,12.603c7.089,0,12.603-5.514,12.603-12.603S116.578,85.071,109.489,85.071z"/>
<circle style="fill:#FCBD5E;" cx="109.489" cy="29.145" r="20.48"/>
<path style="fill:#183651;" d="M109.489,57.502c-15.754,0-28.357-12.603-28.357-28.357S93.735,0.788,109.489,0.788
	s28.357,12.603,28.357,28.357C137.846,44.898,125.243,57.502,109.489,57.502z M109.489,16.542c-7.089,0-12.603,5.514-12.603,12.603
	s5.514,12.603,12.603,12.603c7.089,0,12.603-5.514,12.603-12.603C122.092,22.055,116.578,16.542,109.489,16.542z"/>
<circle style="fill:#FCBD5E;" cx="223.705" cy="476.554" r="20.48"/>
<g>
	<path style="fill:#183651;" d="M223.705,504.911c-15.754,0-28.357-12.603-28.357-28.357s12.603-28.357,28.357-28.357
		s28.357,12.603,28.357,28.357C252.062,492.308,239.458,504.911,223.705,504.911z M223.705,463.951
		c-7.089,0-12.603,5.514-12.603,12.603c0,7.089,5.514,12.603,12.603,12.603c7.089,0,12.603-5.514,12.603-12.603
		C236.308,469.465,230.794,463.951,223.705,463.951z"/>
	<rect x="40.172" y="270.178" style="fill:#183651;" width="15.754" height="15.754"/>
	<rect x="40.172" y="319.015" style="fill:#183651;" width="15.754" height="15.754"/>
	<rect x="40.172" y="367.852" style="fill:#183651;" width="15.754" height="15.754"/>
</g>
<g>
</g>
<g>
</g>
<g>
</g>
<g>
</g>
<g>
</g>
<g>
</g>
<g>
</g>
<g>
</g>
<g>
</g>
<g>
</g>
<g>
</g>
<g>
</g>
<g>
</g>
<g>
</g>
<g>
</g>
</svg>
