<svg width="25" height="25" viewBox="0 0 25 25" fill="none" xmlns="http://www.w3.org/2000/svg">
<path d="M23.415 2.09271C23.2404 2.01345 23.0468 1.98603 22.8571 2.01374C22.6674 2.04144 22.4896 2.12309 22.345 2.24896C18.845 5.27646 15.88 3.80896 12.4438 2.10771C8.88375 0.343964 4.8475 -1.65229 0.345 2.24896C0.237419 2.34221 0.150991 2.45736 0.0914936 2.5867C0.0319966 2.71604 0.000803345 2.8566 0 2.99896V23.999C0 24.2642 0.105357 24.5185 0.292893 24.7061C0.48043 24.8936 0.734784 24.999 1 24.999C1.26522 24.999 1.51957 24.8936 1.70711 24.7061C1.89464 24.5185 2 24.2642 2 23.999V18.4702C5.34875 15.8252 8.23375 17.2515 11.5562 18.8965C13.6062 19.9102 15.8137 21.0027 18.1812 21.0027C19.9225 21.0027 21.7488 20.409 23.6588 18.7527C23.7663 18.6595 23.8528 18.5443 23.9123 18.415C23.9718 18.2856 24.0029 18.1451 24.0037 18.0027V2.99896C24.0027 2.80738 23.9467 2.62012 23.8423 2.45946C23.738 2.2988 23.5896 2.1715 23.415 2.09271ZM2 16.054V10.234C4.10625 8.82396 6.08 8.78521 8 9.31646V15.284C6.10875 14.8077 4.10875 14.8377 2 16.054ZM22 17.5302C19.8913 19.1952 17.9662 19.2452 16 18.644V12.6852C13.2975 11.9352 10.7025 10.0602 8 9.31646V2.35771C9.15625 2.71146 10.3263 3.28896 11.5562 3.89771C12.9637 4.59396 14.445 5.32646 16 5.71771V12.6852C17.9188 13.2165 19.8925 13.1777 22 11.7665V17.5302Z" fill="#2C2C2C"/>
</svg>
