<?xml version="1.0" encoding="UTF-8" standalone="no"?>
<!DOCTYPE svg PUBLIC "-//W3C//DTD SVG 1.1//EN" "http://www.w3.org/Graphics/SVG/1.1/DTD/svg11.dtd">
<svg width="102px" height="21px" viewBox="0 0 204 42" version="1.1" xmlns="http://www.w3.org/2000/svg" xmlns:xlink="http://www.w3.org/1999/xlink" xml:space="preserve" xmlns:serif="http://www.serif.com/" style="fill-rule:evenodd;clip-rule:evenodd;stroke-linejoin:round;stroke-miterlimit:1.41421;">
    <g transform="matrix(4.23438,0,0,4.27792,-38.2385,-6.48197)">
        <path d="M13.182,10.719L10.557,10.719C10.179,10.719 9.908,10.634 9.746,10.464C9.584,10.294 9.503,10.024 9.503,9.653L9.503,3.196C9.503,2.817 9.586,2.544 9.752,2.378C9.918,2.212 10.186,2.129 10.557,2.129L13.341,2.129C13.751,2.129 14.106,2.155 14.407,2.205C14.708,2.256 14.977,2.354 15.216,2.498C15.419,2.619 15.599,2.773 15.755,2.958C15.911,3.144 16.03,3.349 16.112,3.574C16.194,3.798 16.235,4.035 16.235,4.285C16.235,5.145 15.806,5.774 14.946,6.172C16.075,6.532 16.64,7.231 16.64,8.27C16.64,8.75 16.516,9.183 16.27,9.568C16.024,9.952 15.692,10.237 15.274,10.42C15.013,10.53 14.712,10.607 14.372,10.652C14.032,10.697 13.636,10.719 13.182,10.719ZM13.054,6.905L11.243,6.905L11.243,9.412L13.112,9.412C14.288,9.412 14.876,8.989 14.876,8.141C14.876,7.707 14.724,7.393 14.419,7.198C14.114,7.002 13.659,6.905 13.054,6.905ZM11.243,3.436L11.243,5.657L12.837,5.657C13.27,5.657 13.605,5.616 13.842,5.534C14.078,5.451 14.259,5.295 14.384,5.065C14.481,4.901 14.53,4.717 14.53,4.514C14.53,4.08 14.376,3.792 14.067,3.65C13.759,3.507 13.288,3.436 12.655,3.436L11.243,3.436Z" style="fill-rule:nonzero;"/>
        <path d="M21.925,1.983C22.815,1.983 23.58,2.163 24.219,2.525C24.857,2.886 25.341,3.4 25.669,4.066C25.997,4.732 26.161,5.514 26.161,6.412C26.161,7.076 26.071,7.68 25.891,8.223C25.712,8.766 25.442,9.237 25.083,9.635C24.724,10.034 24.282,10.338 23.759,10.549C23.235,10.76 22.636,10.866 21.96,10.866C21.288,10.866 20.686,10.757 20.155,10.54C19.624,10.324 19.181,10.018 18.825,9.623C18.47,9.229 18.201,8.754 18.019,8.2C17.838,7.645 17.747,7.045 17.747,6.401C17.747,5.741 17.842,5.135 18.031,4.584C18.221,4.034 18.495,3.565 18.854,3.178C19.214,2.791 19.651,2.495 20.167,2.29C20.682,2.085 21.268,1.983 21.925,1.983ZM24.397,6.401C24.397,5.772 24.296,5.227 24.093,4.766C23.89,4.305 23.599,3.956 23.223,3.72C22.846,3.484 22.413,3.366 21.925,3.366C21.577,3.366 21.256,3.431 20.961,3.562C20.666,3.693 20.412,3.883 20.199,4.133C19.986,4.383 19.818,4.702 19.695,5.091C19.572,5.48 19.511,5.916 19.511,6.401C19.511,6.889 19.572,7.33 19.695,7.725C19.818,8.119 19.992,8.447 20.217,8.706C20.441,8.966 20.699,9.16 20.99,9.289C21.281,9.418 21.6,9.483 21.948,9.483C22.393,9.483 22.803,9.371 23.176,9.149C23.549,8.926 23.846,8.582 24.066,8.117C24.287,7.653 24.397,7.08 24.397,6.401Z" style="fill-rule:nonzero;"/>
        <path d="M31.429,1.983C32.319,1.983 33.084,2.163 33.723,2.525C34.361,2.886 34.845,3.4 35.173,4.066C35.501,4.732 35.665,5.514 35.665,6.412C35.665,7.076 35.575,7.68 35.395,8.223C35.216,8.766 34.946,9.237 34.587,9.635C34.227,10.034 33.786,10.338 33.263,10.549C32.739,10.76 32.14,10.866 31.464,10.866C30.792,10.866 30.19,10.757 29.659,10.54C29.128,10.324 28.684,10.018 28.329,9.623C27.974,9.229 27.705,8.754 27.523,8.2C27.342,7.645 27.251,7.045 27.251,6.401C27.251,5.741 27.346,5.135 27.535,4.584C27.724,4.034 27.999,3.565 28.358,3.178C28.718,2.791 29.155,2.495 29.671,2.29C30.186,2.085 30.772,1.983 31.429,1.983ZM33.901,6.401C33.901,5.772 33.8,5.227 33.597,4.766C33.393,4.305 33.103,3.956 32.726,3.72C32.349,3.484 31.917,3.366 31.429,3.366C31.081,3.366 30.76,3.431 30.465,3.562C30.17,3.693 29.916,3.883 29.703,4.133C29.49,4.383 29.322,4.702 29.199,5.091C29.076,5.48 29.015,5.916 29.015,6.401C29.015,6.889 29.076,7.33 29.199,7.725C29.322,8.119 29.496,8.447 29.721,8.706C29.945,8.966 30.203,9.16 30.494,9.289C30.785,9.418 31.104,9.483 31.452,9.483C31.897,9.483 32.307,9.371 32.68,9.149C33.053,8.926 33.349,8.582 33.57,8.117C33.791,7.653 33.901,7.08 33.901,6.401Z" style="fill-rule:nonzero;"/>
        <path d="M43.681,8.141C43.681,8.66 43.547,9.127 43.279,9.541C43.012,9.955 42.62,10.28 42.104,10.514C41.589,10.748 40.977,10.866 40.27,10.866C39.423,10.866 38.724,10.705 38.173,10.385C37.782,10.155 37.465,9.847 37.221,9.462C36.976,9.077 36.854,8.703 36.854,8.34C36.854,8.129 36.928,7.949 37.074,7.798C37.221,7.648 37.407,7.573 37.634,7.573C37.817,7.573 37.973,7.631 38.099,7.748C38.226,7.866 38.335,8.039 38.425,8.27C38.534,8.543 38.652,8.772 38.779,8.955C38.906,9.139 39.085,9.29 39.315,9.409C39.546,9.529 39.849,9.588 40.224,9.588C40.739,9.588 41.158,9.468 41.48,9.228C41.803,8.988 41.964,8.688 41.964,8.328C41.964,8.043 41.877,7.812 41.703,7.634C41.529,7.456 41.305,7.321 41.029,7.227C40.754,7.133 40.386,7.034 39.925,6.928C39.307,6.784 38.791,6.615 38.375,6.421C37.959,6.228 37.629,5.964 37.385,5.63C37.14,5.296 37.018,4.881 37.018,4.385C37.018,3.912 37.147,3.492 37.405,3.125C37.663,2.758 38.036,2.476 38.524,2.279C39.013,2.081 39.587,1.983 40.247,1.983C40.774,1.983 41.23,2.048 41.615,2.179C42,2.31 42.319,2.484 42.573,2.701C42.827,2.917 43.013,3.145 43.13,3.383C43.247,3.621 43.306,3.854 43.306,4.08C43.306,4.287 43.232,4.474 43.086,4.64C42.939,4.806 42.757,4.889 42.538,4.889C42.339,4.889 42.187,4.839 42.084,4.74C41.98,4.64 41.868,4.477 41.747,4.25C41.591,3.926 41.403,3.673 41.184,3.492C40.966,3.31 40.614,3.219 40.13,3.219C39.681,3.219 39.318,3.318 39.043,3.515C38.767,3.712 38.63,3.95 38.63,4.227C38.63,4.399 38.677,4.547 38.77,4.672C38.864,4.797 38.993,4.905 39.157,4.994C39.321,5.084 39.487,5.155 39.655,5.205C39.823,5.256 40.1,5.33 40.487,5.428C40.972,5.541 41.41,5.666 41.803,5.803C42.195,5.94 42.529,6.106 42.805,6.301C43.08,6.496 43.295,6.743 43.449,7.042C43.603,7.341 43.681,7.707 43.681,8.141Z" style="fill-rule:nonzero;"/>
        <path d="M50.735,3.565L48.837,3.565L48.837,9.805C48.837,10.164 48.757,10.431 48.597,10.605C48.436,10.779 48.229,10.866 47.975,10.866C47.718,10.866 47.508,10.778 47.346,10.602C47.183,10.426 47.102,10.16 47.102,9.805L47.102,3.565L45.204,3.565C44.907,3.565 44.686,3.499 44.542,3.368C44.397,3.238 44.325,3.065 44.325,2.85C44.325,2.627 44.4,2.451 44.551,2.323C44.701,2.194 44.919,2.129 45.204,2.129L50.735,2.129C51.036,2.129 51.26,2.196 51.406,2.328C51.553,2.461 51.626,2.635 51.626,2.85C51.626,3.065 51.552,3.238 51.403,3.368C51.255,3.499 51.032,3.565 50.735,3.565Z" style="fill-rule:nonzero;"/>
        <path d="M52.106,10.866C51.864,10.866 51.655,10.787 51.479,10.631C51.304,10.475 51.216,10.256 51.216,9.975C51.216,9.737 51.3,9.532 51.468,9.36C51.636,9.188 51.843,9.102 52.089,9.102C52.335,9.102 52.545,9.187 52.719,9.357C52.892,9.527 52.979,9.733 52.979,9.975C52.979,10.252 52.892,10.47 52.719,10.628C52.545,10.786 52.341,10.866 52.106,10.866Z" style="fill:rgb(26,122,255);fill-rule:nonzero;"/>
        <path d="M55.862,10.866C55.62,10.866 55.411,10.787 55.235,10.631C55.059,10.475 54.972,10.256 54.972,9.975C54.972,9.737 55.056,9.532 55.224,9.36C55.391,9.188 55.599,9.102 55.845,9.102C56.091,9.102 56.301,9.187 56.474,9.357C56.648,9.527 56.735,9.733 56.735,9.975C56.735,10.252 56.648,10.47 56.474,10.628C56.301,10.786 56.097,10.866 55.862,10.866Z" style="fill:rgb(26,122,255);fill-rule:nonzero;"/>
    </g>
</svg>
