<svg xmlns="http://www.w3.org/2000/svg" viewBox="0 0 74.87 16">
    <!-- Icon 1 -->
    <path fill="#1A7AFF" d="M15.781 10.13c-.003.794-.491 1.394-1.298 1.468-1.26.116-2.226.61-2.71 1.846-.158.403-.139.835-.224 1.25-.173.848-.754 1.306-1.609 1.254-.774-.047-1.382-.631-1.398-1.446-.029-1.463-1.217-2.727-2.702-2.805-1.146-.06-1.813-.983-1.535-1.941.212-.732.842-1.176 1.597-1.126a1.5 1.5 0 0 1 1.385 1.374c.051.556.129 1.093.436 1.572.637.996 1.848 1.52 2.879 1.245 1.25-.332 2.07-1.3 2.141-2.562.037-.652.219-1.209.848-1.516 1.079-.526 2.196.184 2.19 1.387zM0 5.889c.001-.853.504-1.442 1.358-1.516 1.188-.102 2.109-.58 2.601-1.719.165-.381.188-.79.236-1.197.097-.81.593-1.338 1.287-1.411.799-.083 1.408.26 1.65.958.071.205.089.43.116.647.201 1.591 1.17 2.52 2.759 2.637.898.067 1.504.694 1.505 1.557a1.525 1.525 0 0 1-1.358 1.503c-.836.082-1.503-.439-1.662-1.324-.111-.615-.159-1.232-.561-1.771-.724-.969-1.773-1.349-2.993-1.011-1.025.283-1.82 1.293-1.899 2.401-.016.218-.038.44-.093.651a1.487 1.487 0 0 1-1.68 1.116C.518 7.298-.001 6.675 0 5.889z"/>

    <!-- Icon 2 -->
    <path fill="#71ACFD" d="M7.331 14.476a1.524 1.524 0 0 1-1.394 1.517c-.739.074-1.418-.418-1.596-1.177-.057-.243-.058-.499-.101-.746-.233-1.335-1.204-2.201-2.592-2.319C.7 11.671.089 11.147.02 10.358c-.084-.961.535-1.64 1.57-1.722 1.262-.102 2.234-.879 2.522-2.047.082-.334.081-.687.147-1.026a1.506 1.506 0 0 1 1.5-1.249c.661-.007 1.297.507 1.468 1.187.238.951-.449 1.827-1.497 1.908-1.29.1-2.235.841-2.56 2.009a2.74 2.74 0 0 0 2.42 3.484c.187.017.377.024.56.064a1.52 1.52 0 0 1 1.181 1.51zm8.391-8.71c.014.904-.438 1.435-1.33 1.565-.54.079-1.09.104-1.564.437-.771.541-1.192 1.261-1.255 2.21-.065.984-.511 1.521-1.307 1.656a1.502 1.502 0 0 1-1.72-1.184c-.165-.845.351-1.68 1.17-1.813.699-.113 1.396-.178 1.974-.664.885-.747 1.243-1.89.9-2.973-.345-1.089-1.288-1.847-2.441-1.915-.527-.031-.989-.157-1.34-.575A1.55 1.55 0 0 1 8.656.744c.34-.583.899-.833 1.606-.716.601.1 1.06.554 1.184 1.19.051.262.056.533.107.794.234 1.177 1.117 2.016 2.3 2.197.155.024.311.039.467.054.88.087 1.388.631 1.402 1.503z"/>

    <!-- Text -->
    <path fill="#212529" d="M19.214 8.752v3.168h-1.056V6.256c0-.439.084-.854.252-1.242.168-.388.396-.726.684-1.014a3.226 3.226 0 0 1 1.014-.684 3.105 3.105 0 0 1 1.254-.253c.44 0 .854.084 1.242.253.388.169.726.396 1.014.684.288.288.516.626.684 1.014.168.389.252.803.252 1.242v5.664H23.51V8.752h-4.296zm4.296-2.496c0-.296-.056-.574-.168-.834a2.174 2.174 0 0 0-1.146-1.146c-.26-.112-.538-.168-.834-.168s-.574.056-.834.168a2.157 2.157 0 0 0-1.146 1.146c-.112.26-.168.538-.168.834v1.452h4.296V6.256zm2.28-3.12h1.02v7.225c0 .184.086.34.258.468.172.128.378.191.618.191v1.021c-.264 0-.51-.044-.738-.132s-.428-.208-.6-.36a1.7 1.7 0 0 1-.408-.534c-.1-.204-.15-.422-.15-.653V3.136zm5.28 2.652c.432 0 .838.082 1.218.246.379.165.712.386.996.667.284.28.508.611.672.996.164.384.246.792.246 1.224s-.082.838-.246 1.218-.388.71-.672.99c-.284.28-.616.502-.996.666a3.04 3.04 0 0 1-1.218.246c-.432 0-.836-.082-1.212-.246a3.23 3.23 0 0 1-.99-.666 3.099 3.099 0 0 1-.918-2.208c0-.432.082-.84.246-1.224a3.07 3.07 0 0 1 .672-.996c.284-.28.614-.502.99-.666.376-.164.78-.247 1.212-.247zm0 1.033a2.095 2.095 0 0 0-1.488.611 2.088 2.088 0 0 0-.612 1.488 2.074 2.074 0 0 0 1.284 1.931c.256.112.528.168.816.168s.56-.056.816-.168c.256-.111.48-.262.672-.449a2.078 2.078 0 0 0 .612-1.482 2.099 2.099 0 0 0-1.284-1.938 2.08 2.08 0 0 0-.816-.161zm5.256 5.099h-1.032v-3c0-.432.088-.84.264-1.224.176-.385.416-.716.72-.996a3.487 3.487 0 0 1 2.364-.912V6.82c-.32 0-.621.054-.9.161-.28.108-.526.259-.738.45a2.103 2.103 0 0 0-.498.672c-.12.257-.18.528-.18.816v3.001zm5.652-6.143a3.1 3.1 0 0 1 1.224.245 3.155 3.155 0 0 1 1.674 1.668c.164.381.246.786.246 1.219v3h-1.044v-.672c-.28.248-.598.441-.954.582-.355.14-.737.21-1.146.21-.433 0-.836-.083-1.212-.246a3.23 3.23 0 0 1-.99-.666 3.099 3.099 0 0 1-.918-2.208c0-.433.082-.838.246-1.219a3.18 3.18 0 0 1 1.662-1.668 3.01 3.01 0 0 1 1.212-.245zm0 1.031c-.288 0-.561.055-.816.162a2.02 2.02 0 0 0-.666.45 2.226 2.226 0 0 0-.45.672c-.111.256-.168.528-.168.816s.057.56.168.815c.112.257.263.479.45.666.188.188.41.338.666.45s.528.168.816.168c.296 0 .571-.056.828-.168a2.15 2.15 0 0 0 .666-.45c.188-.188.336-.409.443-.666.108-.256.162-.527.162-.815s-.054-.561-.162-.816a2.147 2.147 0 0 0-.443-.672 2.02 2.02 0 0 0-.666-.45 2.13 2.13 0 0 0-.828-.162zm6.888-3.636h1.044v7.704h4.691v1.044h-5.735V3.172zm9.204 2.605a3.1 3.1 0 0 1 1.224.245 3.155 3.155 0 0 1 1.674 1.668c.164.381.246.786.246 1.219v3H60.17v-.672c-.28.248-.598.441-.954.582-.355.14-.737.21-1.146.21-.433 0-.836-.083-1.212-.246a3.23 3.23 0 0 1-.99-.666 3.099 3.099 0 0 1-.918-2.208c0-.433.082-.838.246-1.219a3.18 3.18 0 0 1 1.662-1.668 3.01 3.01 0 0 1 1.212-.245zm0 1.031c-.288 0-.561.055-.816.162a2.02 2.02 0 0 0-.666.45 2.226 2.226 0 0 0-.45.672c-.111.256-.168.528-.168.816s.057.56.168.815c.112.257.263.479.45.666.188.188.41.338.666.45s.528.168.816.168c.296 0 .571-.056.828-.168a2.15 2.15 0 0 0 .666-.45c.188-.188.336-.409.443-.666.108-.256.162-.527.162-.815s-.054-.561-.162-.816a2.147 2.147 0 0 0-.443-.672 2.02 2.02 0 0 0-.666-.45 2.13 2.13 0 0 0-.828-.162zM65.498 5.8c.433 0 .84.082 1.225.246a3.098 3.098 0 0 1 1.674 1.662c.164.384.246.792.246 1.224 0 .433-.082.836-.246 1.212a3.152 3.152 0 0 1-2.899 1.908c-.432 0-.836-.082-1.212-.246a3.19 3.19 0 0 1-1.662-1.662 2.995 2.995 0 0 1-.246-1.212V3.148h1.021v3.469c.279-.248.6-.446.96-.595a2.953 2.953 0 0 1 1.139-.222zm0 1.032a2.07 2.07 0 0 0-1.481.612 2.196 2.196 0 0 0-.45.672c-.112.256-.168.527-.168.815s.056.561.168.816c.111.256.262.478.45.666.188.188.409.338.666.45.256.111.527.168.815.168.296 0 .572-.057.828-.168a2.067 2.067 0 0 0 1.11-1.116c.107-.256.162-.528.162-.816s-.055-.56-.162-.815a2.156 2.156 0 0 0-.444-.672 2.005 2.005 0 0 0-.666-.45 2.112 2.112 0 0 0-.828-.162zm5.748 2.533c-.225 0-.435-.04-.631-.12-.195-.08-.37-.19-.521-.33-.152-.14-.274-.306-.366-.498s-.142-.4-.149-.624a1.054 1.054 0 0 1-.013-.187c0-.075.004-.138.013-.186.008-.216.058-.42.149-.612.092-.191.214-.359.366-.504a1.665 1.665 0 0 1 1.152-.456h2.304V6.88h-2.304a.624.624 0 0 0-.438.174.663.663 0 0 0-.21.438.667.667 0 0 0 0 .252c.016.168.086.31.21.426s.271.174.438.174h.827a1.66 1.66 0 0 1 1.158.468c.148.145.269.312.36.505.092.191.142.399.15.623v.337c0 .231-.047.445-.139.642s-.212.37-.359.521c-.148.152-.324.271-.528.354s-.422.126-.654.126h-2.364V10.9h2.364c.16 0 .298-.053.414-.156a.772.772 0 0 0 .234-.372v-.048c0-.017.002-.03.006-.042a.137.137 0 0 0 .006-.042v-.229c-.008-.184-.074-.338-.198-.462s-.277-.186-.462-.186h-.815z"/>
</svg>


