<svg xmlns="http://www.w3.org/2000/svg" width="66.335" height="16">
    <path fill="#1a7aff" d="M15.781 10.13c-.003.794-.491 1.394-1.298 1.468-1.26.116-2.226.61-2.71 1.846-.158.403-.139.835-.224 1.25-.173.848-.754 1.306-1.609 1.254-.774-.047-1.382-.63-1.398-1.446-.029-1.463-1.217-2.727-2.702-2.805-1.146-.06-1.813-.983-1.535-1.94.212-.733.842-1.177 1.597-1.127a1.5 1.5 0 011.385 1.374c.051.556.129 1.093.436 1.572.637.996 1.848 1.52 2.879 1.245 1.25-.332 2.07-1.3 2.141-2.562.037-.652.219-1.209.848-1.516 1.079-.526 2.196.184 2.19 1.387zM0 5.89c.001-.854.504-1.443 1.358-1.517 1.188-.102 2.109-.58 2.601-1.719.165-.38.188-.79.236-1.197.097-.81.593-1.338 1.287-1.41.799-.084 1.408.26 1.65.957.071.205.089.43.116.647.201 1.591 1.17 2.52 2.759 2.637.898.067 1.504.694 1.505 1.557a1.525 1.525 0 01-1.358 1.503c-.836.082-1.503-.439-1.662-1.324-.111-.615-.159-1.232-.561-1.77-.724-.97-1.773-1.35-2.993-1.012-1.025.283-1.82 1.293-1.899 2.401-.016.218-.038.44-.093.651a1.487 1.487 0 01-1.68 1.116C.518 7.298-.001 6.675 0 5.89z" />
    <path fill="#71acfd" d="M7.331 14.476a1.524 1.524 0 01-1.394 1.517c-.739.074-1.418-.418-1.596-1.177-.057-.243-.058-.499-.101-.746-.233-1.335-1.204-2.2-2.592-2.319C.7 11.671.089 11.147.02 10.358c-.084-.96.535-1.64 1.57-1.722 1.262-.102 2.234-.879 2.522-2.047.082-.334.081-.687.147-1.026a1.506 1.506 0 011.5-1.249c.661-.007 1.297.507 1.468 1.187.238.951-.449 1.827-1.497 1.908-1.29.1-2.235.841-2.56 2.01a2.74 2.74 0 002.42 3.483c.187.017.377.024.56.064a1.52 1.52 0 011.181 1.51zm8.391-8.71c.014.904-.438 1.435-1.33 1.565-.54.08-1.09.104-1.564.437-.771.541-1.192 1.261-1.255 2.21-.065.984-.511 1.521-1.307 1.656a1.502 1.502 0 01-1.72-1.184c-.165-.845.351-1.68 1.17-1.813.699-.113 1.396-.178 1.974-.664.885-.747 1.243-1.89.9-2.973-.345-1.089-1.288-1.847-2.441-1.915-.527-.03-.989-.157-1.34-.575A1.55 1.55 0 018.656.744c.34-.583.899-.833 1.606-.716.601.1 1.06.554 1.184 1.19.051.262.056.533.107.794.234 1.177 1.117 2.016 2.3 2.197.155.024.311.04.467.054.88.087 1.388.631 1.402 1.503z" />
    <path fill="#000000" d="M22.338 9.802h-3.472l-.718 1.633h-.962l2.959-6.533h.924l2.968 6.533h-.98zm-.326-.747l-1.41-3.201-1.409 3.2zM24.88 4.51h.897v6.925h-.896zm4.726 6.98q-.737 0-1.325-.326t-.924-.896q-.327-.578-.327-1.306 0-.728.327-1.298.336-.578.924-.896.588-.326 1.325-.326.738 0 1.316.326.588.318.915.896.336.57.336 1.298 0 .728-.336 1.306-.327.57-.915.896-.578.327-1.316.327zm0-.783q.476 0 .85-.215.382-.224.597-.616.215-.401.215-.914 0-.514-.215-.906-.215-.401-.597-.616-.374-.214-.85-.214t-.858.214q-.374.215-.598.616-.214.392-.214.906 0 .513.214.914.224.392.598.616.382.215.858.215zm4.664-3.388q.234-.43.692-.653.457-.224 1.11-.224v.868q-.074-.01-.205-.01-.728 0-1.148.439-.41.43-.41 1.232v2.464h-.897V6.488h.859zm4.699-.877q1.026 0 1.568.504.55.504.55 1.502v2.987h-.849v-.653q-.224.345-.644.532-.41.177-.98.177-.83 0-1.335-.401-.494-.402-.494-1.055 0-.653.476-1.045.476-.402 1.512-.402h1.418v-.177q0-.579-.336-.887-.336-.308-.989-.308-.439 0-.859.15-.42.14-.709.382l-.373-.672q.382-.308.914-.466.532-.168 1.13-.168zm-.206 4.358q.514 0 .887-.224.373-.233.541-.653v-.69h-1.38q-1.14 0-1.14.765 0 .373.29.588.29.214.802.214zm6.629-5.898h.933v5.72h3.537v.813h-4.47zm7.248 1.54q1.027 0 1.569.504.55.504.55 1.502v2.987h-.85v-.653q-.223.345-.643.532-.41.177-.98.177-.83 0-1.335-.401-.494-.402-.494-1.055 0-.653.476-1.045.476-.402 1.512-.402h1.418v-.177q0-.579-.336-.887-.336-.308-.99-.308-.438 0-.858.15-.42.14-.71.382l-.372-.672q.382-.308.914-.466.532-.168 1.13-.168zm-.205 4.358q.514 0 .887-.224.373-.233.541-.653v-.69h-1.381q-1.139 0-1.139.765 0 .373.29.588.289.214.802.214zm6.605-4.358q.719 0 1.288.317.57.317.887.887.326.569.326 1.316 0 .746-.326 1.325-.318.57-.887.887-.57.317-1.288.317-.55 0-1.008-.215-.457-.214-.756-.625v.784h-.859V4.51h.896v2.725q.3-.392.747-.588.448-.205.98-.205zm-.075 4.265q.476 0 .85-.215.382-.224.597-.616.224-.401.224-.914 0-.514-.224-.906-.215-.401-.597-.616-.374-.214-.85-.214-.466 0-.849.214-.383.215-.597.616-.215.392-.215.906 0 .513.215.914.214.392.597.616.383.215.85.215zm5.233.783q-.607 0-1.167-.158-.56-.168-.877-.42l.373-.71q.327.234.794.374.466.14.942.14 1.176 0 1.176-.672 0-.224-.158-.354-.159-.131-.402-.187-.233-.065-.672-.14-.597-.093-.98-.215-.373-.121-.644-.41-.27-.29-.27-.812 0-.672.56-1.074.56-.41 1.502-.41.495 0 .99.12.494.122.812.328l-.383.709q-.607-.392-1.428-.392-.57 0-.868.187-.299.186-.299.494 0 .243.168.383t.411.205q.252.066.7.15.597.102.961.224.374.112.635.392t.261.784q0 .672-.578 1.073-.57.392-1.559.392z"/>
</svg>
