<?xml version="1.0" encoding="utf-8"?>
<!-- Generator: Adobe Illustrator 19.0.0, SVG Export Plug-In . SVG Version: 6.00 Build 0)  -->
<svg version="1.1" id="Layer_1" xmlns="http://www.w3.org/2000/svg" xmlns:xlink="http://www.w3.org/1999/xlink" x="0px" y="0px"
	 viewBox="0 0 612 792" style="enable-background:new 0 0 612 792;" xml:space="preserve">
<style type="text/css">
	.st0{fill:#EAF4FE;}
	.st1{fill:#006AFF;}
	.st2{fill:#00046D;}
	.st3{fill:#D58E76;}
	.st4{fill:#FCFCFC;}
	.st5{fill:#DCEAF8;}
	.st6{fill:none;stroke:#D7D0FA;stroke-width:0.25;stroke-miterlimit:10;}
	.st7{fill:#B5B5B5;}
	.st8{fill:#FFFFFF;}
	.st9{fill:#0A0A0A;}
	.st10{fill:#010569;}
	.st11{fill:none;stroke:#EEEDF6;stroke-width:0.25;stroke-miterlimit:10;}
	.st12{fill:#FE2326;}
</style>
<g>
	<path class="st0" d="M246.2,259.4c0,0,59.3,62.9,124.6,23.7s90.3-6.6,97,7.8c6.7,14.4,0,48,0,48s-6.1,28.8,31,48s51.1,127.6-64,168
		s-166.1,99.8-272.6,0s-55.2-246.1-55.2-246.1S156.1,209.6,246.2,259.4z"/>
	<path class="st1" d="M389.4,311.3c0,0,16.4,1.9,17.1-11.2c0.8-13.1-0.8-18.6,9.6-15.8c10.4,2.7,12.9,2.4,18.5-3
		c5.6-5.4,16.8,5.4,16.8,5.4s6.8,13.5-3.1,16c-9.9,2.5-9.2,13-9.2,13s9.5,11.9-14,8.1c0,0-11.4,4.4-10.6,20.6s10.8,6.9,13.3,5
		c2.5-1.9,8.1-7.5,13.7,4.4s12.2,0,12.2,0s8.3-5,9.6,8.7s-12.5,11.4-12.5,11.4s-11.7,2.5-11.8,9.5c-0.1,7.1-7.9,6.6-12.7,0
		c-4.8-6.6-8.7-12-18,0s-17.5-0.2-24-7.5s-7.1-60.3-7.1-60.3L389.4,311.3z"/>
	<path class="st1" d="M230.6,272.1c0,0-10.8-31.7-10.5-41.1c0,0-1.9-8.1,3.1-4.1c0,0,5.9,5.8,3-2.8c-3-8.6-5.9-15.7-2-19.6
		c3.9-3.9,41.2,19,48.9,41.1s4,26.5,4,26.5H230.6z"/>
	<path class="st2" d="M389.4,367.2c0,0,30.3-5,49.7,2.1c0,0-32.8-8.3-52.1-4.1"/>
	<path class="st2" d="M224.1,204.2l22.4,45.8c0,0,11.5-9.9,8.1-26.8l-2.5-2.3c0,0,3.1,18.8-5.6,25l-1.3-3.4c0,0,6.5-9.4,4.7-23.4
		l-2.5-1.3c0,0,3.7,14.9-4.1,22.1C241.3,234.1,224.1,204.2,224.1,204.2z"/>
	<path class="st2" d="M222.6,229.5c0,0,21.2,22.9,23.7,23.8v3c0,0-23.1-23.5-25.2-26.8C218.9,226.2,222.6,229.5,222.6,229.5z"/>
	<polygon class="st2" points="439.2,293.3 419.5,308.6 384.5,335.9 384.5,330.6 	"/>
	<path d="M356.4,189.2c0,0,2.4-8.9,0.9-13.2c0,0-1.1-8.6,9.6-8.9s14.7,5.6,14.7,5.6s1.8,4.5,0,6.1s-3.4,5-3.4,5s-3,5.3-7.6,4.8
		s-14,1.2-14,1.2"/>
	<path class="st3" d="M356.4,189.2c0,0,7.9-1.3,8.5-3.3c0.6-2-2.2-10.9,8.9-8.3c0,0,7.3,2,0.9,12.8c-0.8,0.9-3.7,3-8.9,2.3l-2,2.5
		l-5.6,0.8L356.4,189.2z"/>
	<path class="st1" d="M243.4,254.6v262.9c0,0-1,11.2,12.9,11.2c13.9,0,119.2,0,119.2,0s10.6,0.6,13.1-11.8c2.5-12.5,0-264.8,0-264.8
		s-1.3-14.3-21.8-9.4l-19.3,1.9l-95.3,0.6C252.2,245.3,243.4,248.4,243.4,254.6z"/>
	<path class="st4" d="M379.1,512.8H255.6c-1.2,0-2.2-1-2.2-2.2V260c0-1.2,1-2.2,2.2-2.2h123.5c1.2,0,2.2,1,2.2,2.2v250.6
		C381.3,511.8,380.3,512.8,379.1,512.8z"/>
	<path class="st5" d="M367.6,276.4h-85.6c-0.3,0-0.5-0.2-0.5-0.5v-4.6c0-0.3,0.2-0.5,0.5-0.5h85.6c0.3,0,0.5,0.2,0.5,0.5v4.6
		C368,276.2,367.8,276.4,367.6,276.4z"/>
	<path class="st5" d="M369.1,369.3h-105c-0.2,0-0.4-0.2-0.4-0.4v-3.4c0-0.2,0.2-0.4,0.4-0.4h105c0.2,0,0.4,0.2,0.4,0.4v3.4
		C369.5,369.1,369.4,369.3,369.1,369.3z"/>
	<path class="st5" d="M369,375.9H264c-0.2,0-0.4-0.2-0.4-0.4v-3.4c0-0.2,0.2-0.4,0.4-0.4h105c0.2,0,0.4,0.2,0.4,0.4v3.4
		C369.3,375.8,369.2,375.9,369,375.9z"/>
	<path class="st5" d="M339.8,381.9h-75.9c-0.2,0-0.3-0.1-0.3-0.3v-2.8c0-0.2,0.1-0.3,0.3-0.3h75.9c0.2,0,0.3,0.1,0.3,0.3v2.8
		C340,381.7,339.9,381.9,339.8,381.9z"/>
	<circle class="st1" cx="316.6" cy="410.2" r="13.8"/>
	<circle class="st2" cx="277" cy="410.2" r="13.8"/>
	<circle class="st6" cx="353.4" cy="410.7" r="15.2"/>
	<path d="M374.8,277.6l2.1,0.2l1.8,0.2l5.4,11.1c0,0,3.3,6-8.3-3.3c-4-3.2-5.4-4.3-5.4-4.3c-0.1,0,4.5,3.9,4.5,3.9l-5.5-4.8
		c0,0-0.4-1.7,4.1-3"/>
	<path class="st2" d="M342.5,230c0,0-2.2,14,5.9,15.6H378h3.7l-7.2,30.8c0,0-0.3,3.4,4,1.6l10.3-18.1l4.4,18.6h6.5l-3.7-31.1
		l-0.3-15.3l-26.3-2.2L342.5,230L342.5,230z"/>
	<path class="st1" d="M369.5,229.9c0,0,4.4-32.8-4.8-34.7c0,0-7.3,1.3-8.3-6c0,0-9.1,5.6-10.2,13.5c-1,7.9-3.7,27.3-3.7,27.3
		L369.5,229.9z"/>
	<path class="st3" d="M353.1,210.8h8.3v11.8l17,2.7c0,0,5.6-5,8.9,0s1.7,4.7,1.7,4.7s-5.8,1.1-8.1,0.9c-2.3-0.2-21.8-0.9-21.8-0.9
		s-5-0.3-6-7C352.1,216.4,353.1,210.8,353.1,210.8z"/>
	<path class="st7" d="M389,230h5l9.8-15.1c0,0,3.3-3.3,2.7,2.1l-9.8,15.4l-15.1-1.4L389,230z"/>
	<path d="M393.3,278.5c0.3-0.8,6.5,0,6.5,0l7.6,4.6c0,0,2.4,1.2,0,1.1s-15.1,0-15.1,0S390.8,284.2,393.3,278.5z"/>
	<path d="M425.2,416.2c0,0,8.9-2.5,11.8-6.9s11.4,3.4,11.4,3.4s13.1,14.4,23.1,13.2c0,0,4.1-0.3,3.7,4.2
		c-0.4,4.5,21.2,1.7,20.6-10.4s0-15,0-15s-1.7-7.3-9.6,0c-7.9,7.3-23-1.2-23-1.2s-8.9-9.3-21.6-3.9c-1.7,0.5-5.8,1-7.1-4.2
		c-1.3-5.2-16.3-0.5-14.9,5.4S425.2,416.2,425.2,416.2z"/>
	<path class="st3" d="M418.8,415.4c0,0-0.6,5,0,6.5s12.1,0,12.1,0V419c0,0-6.9-2-4-8.3c0,0,1.3-16.5-8.4-9.1c-9.7,7.5-4.1,14-4.1,14
		S417,417.9,418.8,415.4z"/>
	<path class="st2" d="M416.2,450.5l4.3,95.7h6.9l6.2-58.1l10.4,12c0,0,5.8,6.4,13.7-1.8c7.9-8.2,22.9-30.2,22.9-30.2
		s-2.1-2.5-6.6-1.3l-21.2,19.5c0,0-3,5.2-4.4-2.9c-1.4-8.1-9.4-33-9.4-33H416.2z"/>
	<path class="st1" d="M411.2,427.9c0,0,6.9-3.8,8-6.7c0,0,8.5,1.6,11.2-1.1c0,0,8.1-3.3,8.5,13.8c0.4,17.1,0,16.6,0,16.6h-22.8
		l-0.3-8.6l-3.1-9.8L411.2,427.9z"/>
	<path class="st3" d="M397.4,432l8.7,7c0,0,0.7,2.2,4.2,0s5.5-4.7,5.5-4.7s7.3,0.1,3.9,5.7l-7.9,5.1c0,0-1.9,4-6.9-0.8
		S393.9,433,393.9,433L397.4,432z"/>
	<path class="st3" d="M400.4,430.9c0.5-0.5,3.8,3.4,3.8,3.4s1.1,2.4,4.9,1.7l5.5-1.7l-1.3-7.3c0,0-7,3.7-10.1-1s-5.8,1.4-5.8,1.4"/>
	<path d="M420.9,545.2c-1.7,0-11.2,3.1-10.7,3.6c0.6,0.4,17.2,0.6,17.2,0.6l-0.2-4.1H420.9z"/>
	<path d="M474.5,466.9c0,0,4.1-1.6,5.7,1.2c0,0,6.1-1.2,7.1,0s1.8-7.8-12.9-6L474.5,466.9L474.5,466.9z"/>
	<path class="st2" d="M192,410.7l14,65.1h9l-5-92.4h-32.7v93.7c0,0,10.6,2.2,10.3,0s7.6-61.2,7.6-61.2"/>
	<path class="st3" d="M221.8,335.9c0,0-9.7,2.4-11.2,7.6c-1.5,5.2-8.3,0-8.3,0s4.5-5.2,5.3-11l13,3.4"/>
	<path d="M178.6,482h17.6l-8.6-5h-10.3C177.4,477.1,174.6,482,178.6,482z"/>
	<path d="M207.4,482H225l-8.6-6.7h-10.3C206.1,475.4,203.3,482,207.4,482z"/>
	<path class="st3" d="M217,352.5l3.4,3.7l10.6-12.5v-5.9l12.5,3.4c0,0-7.5,3.1-9.4,7.2c-1.9,4-10.9,16.7-10.9,16.7
		s-1.9,5.5-10.6-5.5c-8.7-11-3.4-11-3.4-11L217,352.5z"/>
	<polygon class="st1" points="184,259.2 169.1,327.8 277,349.3 292.9,278.5 	"/>
	<path class="st1" d="M189.2,335.9c0,0-16.8,5.5-11.8,47.5h32.7v-25.6l2.5,1.9l4.4-7.2c0,0-4.7-11.5-15.3-13.9
		C201.7,338.5,190.8,339.4,189.2,335.9z"/>
	<polygon class="st8" points="173.7,324.8 273.1,344.4 287.5,281.3 189.2,260.9 173.7,322.8 	"/>
	<path class="st2" d="M186.1,317.9l81,18.1c0,0,9.7-26.2,4.4-43.3c-5.3-17.1-18.1,7.8-18.1,7.8s-6.2,19.6-12.5,1.9
		s-22.4-3.7-22.4-3.7s-5.9,18.1-18.4,4.7C187.7,289.8,186.1,317.9,186.1,317.9z"/>
	<path class="st9" d="M205,316.5l2.3-8.7c0,0-36.6,0.8-18.1,23.7"/>
	<path class="st3" d="M198.4,333.8c0,0-1.1,1.7,2.3,4.8c0,0-8.2,4.4-11.5-2.6v-6.4c0,0,1.3-17.9,15.7-13.1c0,0,2,14-1.3,14.6
		C200.4,331.7,199.8,328.6,198.4,333.8z"/>
	<circle class="st10" cx="204.4" cy="283.8" r="9.2"/>
	<polyline class="st2" points="434.1,314.6 433.1,314.3 418.3,309.5 416.7,310.8 	"/>
	<path class="st2" d="M418,307.7c0.1-0.1-1.3-14.5-1.3-14.5v15.4"/>
	<circle class="st2" cx="277" cy="488.7" r="9.1"/>
	<circle class="st1" cx="277" cy="449.6" r="9.1"/>
	<path class="st5" d="M363.2,446.7h-72.1c-0.2,0-0.3-0.1-0.3-0.3v-2.9c0-0.2,0.1-0.3,0.3-0.3h72.1c0.2,0,0.3,0.1,0.3,0.3v2.9
		C363.5,446.6,363.4,446.7,363.2,446.7z"/>
	<path class="st5" d="M338.9,454.8h-47.8c-0.2,0-0.3-0.1-0.3-0.3v-2.9c0-0.2,0.1-0.3,0.3-0.3h47.8c0.2,0,0.3,0.1,0.3,0.3v2.9
		C339.2,454.7,339.1,454.8,338.9,454.8z"/>
	<path class="st5" d="M338.9,495.3h-47.8c-0.2,0-0.3-0.1-0.3-0.3v-2.9c0-0.2,0.1-0.3,0.3-0.3h47.8c0.2,0,0.3,0.1,0.3,0.3v2.9
		C339.2,495.2,339.1,495.3,338.9,495.3z"/>
	<path class="st5" d="M363.2,487.2h-72.1c-0.2,0-0.3-0.1-0.3-0.3V484c0-0.2,0.1-0.3,0.3-0.3h72.1c0.2,0,0.3,0.1,0.3,0.3v2.9
		C363.5,487.1,363.4,487.2,363.2,487.2z"/>
	<path class="st11" d="M368.7,506.3H266.1c-1.5,0-2.8-1.3-2.8-2.8v-27.1c0-1.5,1.3-2.8,2.8-2.8h102.6c1.5,0,2.8,1.3,2.8,2.8v27.1
		C371.5,505.1,370.2,506.3,368.7,506.3z"/>
	<path class="st11" d="M368.3,466.8H265.6c-1.5,0-2.8-1.3-2.8-2.8v-27.1c0-1.5,1.3-2.8,2.8-2.8h102.6c1.5,0,2.8,1.3,2.8,2.8V464
		C371.1,465.6,369.8,466.8,368.3,466.8z"/>
	<path class="st1" d="M437.8,399.7c0,0,0.4,8.2-0.2,8.9s3.3,0.6,3.7-0.3s0.2-8.6,0.2-8.6S438.9,398.4,437.8,399.7z"/>
	<circle class="st12" cx="390.7" cy="419" r="15.4"/>
</g>
</svg>
