<?xml version="1.0" encoding="UTF-8" standalone="no"?>
<svg
   xmlns:dc="http://purl.org/dc/elements/1.1/"
   xmlns:cc="http://creativecommons.org/ns#"
   xmlns:rdf="http://www.w3.org/1999/02/22-rdf-syntax-ns#"
   xmlns:svg="http://www.w3.org/2000/svg"
   xmlns="http://www.w3.org/2000/svg"
   width="113.99054mm"
   height="117.09602mm"
   viewBox="0 0 113.99054 117.09602"
   version="1.1"
   id="svg8">
  <defs
     id="defs2" />
  <metadata
     id="metadata5">
    <rdf:RDF>
      <cc:Work
         rdf:about="">
        <dc:format>image/svg+xml</dc:format>
        <dc:type
           rdf:resource="http://purl.org/dc/dcmitype/StillImage" />
        <dc:title></dc:title>
      </cc:Work>
    </rdf:RDF>
  </metadata>
  <g
     id="layer1"
     transform="translate(-17.088063,-30.654373)">
    <g
       id="g124"
       transform="matrix(0.26458333,0,0,0.26458333,-7.9544702,-13.554574)">
	<path
   class="st0"
   d="m 246.2,259.4 c 0,0 59.3,62.9 124.6,23.7 65.3,-39.2 90.3,-6.6 97,7.8 6.7,14.4 0,48 0,48 0,0 -6.1,28.8 31,48 37.1,19.2 51.1,127.6 -64,168 -115.1,40.4 -166.1,99.8 -272.6,0 C 55.7,455.1 107,308.8 107,308.8 c 0,0 49.1,-99.2 139.2,-49.4 z"
   id="path12" />

	<path
   class="st1"
   d="m 389.4,311.3 c 0,0 16.4,1.9 17.1,-11.2 0.8,-13.1 -0.8,-18.6 9.6,-15.8 10.4,2.7 12.9,2.4 18.5,-3 5.6,-5.4 16.8,5.4 16.8,5.4 0,0 6.8,13.5 -3.1,16 -9.9,2.5 -9.2,13 -9.2,13 0,0 9.5,11.9 -14,8.1 0,0 -11.4,4.4 -10.6,20.6 0.8,16.2 10.8,6.9 13.3,5 2.5,-1.9 8.1,-7.5 13.7,4.4 5.6,11.9 12.2,0 12.2,0 0,0 8.3,-5 9.6,8.7 1.3,13.7 -12.5,11.4 -12.5,11.4 0,0 -11.7,2.5 -11.8,9.5 -0.1,7.1 -7.9,6.6 -12.7,0 -4.8,-6.6 -8.7,-12 -18,0 -9.3,12 -17.5,-0.2 -24,-7.5 -6.5,-7.3 -7.1,-60.3 -7.1,-60.3 z"
   id="path14" />

	<path
   class="st1"
   d="m 230.6,272.1 c 0,0 -10.8,-31.7 -10.5,-41.1 0,0 -1.9,-8.1 3.1,-4.1 0,0 5.9,5.8 3,-2.8 -3,-8.6 -5.9,-15.7 -2,-19.6 3.9,-3.9 41.2,19 48.9,41.1 7.7,22.1 4,26.5 4,26.5 z"
   id="path16" />

	<path
   class="st2"
   d="m 389.4,367.2 c 0,0 30.3,-5 49.7,2.1 0,0 -32.8,-8.3 -52.1,-4.1"
   id="path18" />

	<path
   class="st2"
   d="m 224.1,204.2 22.4,45.8 c 0,0 11.5,-9.9 8.1,-26.8 l -2.5,-2.3 c 0,0 3.1,18.8 -5.6,25 l -1.3,-3.4 c 0,0 6.5,-9.4 4.7,-23.4 l -2.5,-1.3 c 0,0 3.7,14.9 -4.1,22.1 -2,-5.8 -19.2,-35.7 -19.2,-35.7 z"
   id="path20" />

	<path
   class="st2"
   d="m 222.6,229.5 c 0,0 21.2,22.9 23.7,23.8 v 3 c 0,0 -23.1,-23.5 -25.2,-26.8 -2.2,-3.3 1.5,0 1.5,0 z"
   id="path22" />

	<polygon
   class="st2"
   points="439.2,293.3 419.5,308.6 384.5,335.9 384.5,330.6 "
   id="polygon24" />

	<path
   d="m 356.4,189.2 c 0,0 2.4,-8.9 0.9,-13.2 0,0 -1.1,-8.6 9.6,-8.9 10.7,-0.3 14.7,5.6 14.7,5.6 0,0 1.8,4.5 0,6.1 -1.8,1.6 -3.4,5 -3.4,5 0,0 -3,5.3 -7.6,4.8 -4.6,-0.5 -14,1.2 -14,1.2"
   id="path26" />

	<path
   class="st3"
   d="m 356.4,189.2 c 0,0 7.9,-1.3 8.5,-3.3 0.6,-2 -2.2,-10.9 8.9,-8.3 0,0 7.3,2 0.9,12.8 -0.8,0.9 -3.7,3 -8.9,2.3 l -2,2.5 -5.6,0.8 z"
   id="path28" />

	<path
   class="st1"
   d="m 243.4,254.6 v 262.9 c 0,0 -1,11.2 12.9,11.2 13.9,0 119.2,0 119.2,0 0,0 10.6,0.6 13.1,-11.8 2.5,-12.5 0,-264.8 0,-264.8 0,0 -1.3,-14.3 -21.8,-9.4 l -19.3,1.9 -95.3,0.6 c 0,0.1 -8.8,3.2 -8.8,9.4 z"
   id="path30" />

	<path
   class="st4"
   d="M 379.1,512.8 H 255.6 c -1.2,0 -2.2,-1 -2.2,-2.2 V 260 c 0,-1.2 1,-2.2 2.2,-2.2 h 123.5 c 1.2,0 2.2,1 2.2,2.2 v 250.6 c 0,1.2 -1,2.2 -2.2,2.2 z"
   id="path32" />

	<path
   class="st5"
   d="M 367.6,276.4 H 282 c -0.3,0 -0.5,-0.2 -0.5,-0.5 v -4.6 c 0,-0.3 0.2,-0.5 0.5,-0.5 h 85.6 c 0.3,0 0.5,0.2 0.5,0.5 v 4.6 c -0.1,0.3 -0.3,0.5 -0.5,0.5 z"
   id="path34" />

	<path
   class="st5"
   d="m 369.1,369.3 h -105 c -0.2,0 -0.4,-0.2 -0.4,-0.4 v -3.4 c 0,-0.2 0.2,-0.4 0.4,-0.4 h 105 c 0.2,0 0.4,0.2 0.4,0.4 v 3.4 c 0,0.2 -0.1,0.4 -0.4,0.4 z"
   id="path36" />

	<path
   class="st5"
   d="M 369,375.9 H 264 c -0.2,0 -0.4,-0.2 -0.4,-0.4 v -3.4 c 0,-0.2 0.2,-0.4 0.4,-0.4 h 105 c 0.2,0 0.4,0.2 0.4,0.4 v 3.4 c -0.1,0.3 -0.2,0.4 -0.4,0.4 z"
   id="path38" />

	<path
   class="st5"
   d="m 339.8,381.9 h -75.9 c -0.2,0 -0.3,-0.1 -0.3,-0.3 v -2.8 c 0,-0.2 0.1,-0.3 0.3,-0.3 h 75.9 c 0.2,0 0.3,0.1 0.3,0.3 v 2.8 c -0.1,0.1 -0.2,0.3 -0.3,0.3 z"
   id="path40" />

	<circle
   class="st1"
   cx="316.60001"
   cy="410.20001"
   r="13.8"
   id="circle42" />

	<circle
   class="st2"
   cx="277"
   cy="410.20001"
   r="13.8"
   id="circle44" />

	<circle
   class="st6"
   cx="353.39999"
   cy="410.70001"
   r="15.2"
   id="circle46" />

	<path
   d="m 374.8,277.6 2.1,0.2 1.8,0.2 5.4,11.1 c 0,0 3.3,6 -8.3,-3.3 -4,-3.2 -5.4,-4.3 -5.4,-4.3 -0.1,0 4.5,3.9 4.5,3.9 l -5.5,-4.8 c 0,0 -0.4,-1.7 4.1,-3"
   id="path48" />

	<path
   class="st2"
   d="m 342.5,230 c 0,0 -2.2,14 5.9,15.6 h 29.6 3.7 l -7.2,30.8 c 0,0 -0.3,3.4 4,1.6 l 10.3,-18.1 4.4,18.6 h 6.5 l -3.7,-31.1 -0.3,-15.3 -26.3,-2.2 z"
   id="path50" />

	<path
   class="st1"
   d="m 369.5,229.9 c 0,0 4.4,-32.8 -4.8,-34.7 0,0 -7.3,1.3 -8.3,-6 0,0 -9.1,5.6 -10.2,13.5 -1,7.9 -3.7,27.3 -3.7,27.3 z"
   id="path52" />

	<path
   class="st3"
   d="m 353.1,210.8 h 8.3 v 11.8 l 17,2.7 c 0,0 5.6,-5 8.9,0 3.3,5 1.7,4.7 1.7,4.7 0,0 -5.8,1.1 -8.1,0.9 -2.3,-0.2 -21.8,-0.9 -21.8,-0.9 0,0 -5,-0.3 -6,-7 -1,-6.6 0,-12.2 0,-12.2 z"
   id="path54" />

	<path
   class="st7"
   d="m 389,230 h 5 l 9.8,-15.1 c 0,0 3.3,-3.3 2.7,2.1 l -9.8,15.4 -15.1,-1.4 z"
   id="path56" />

	<path
   d="m 393.3,278.5 c 0.3,-0.8 6.5,0 6.5,0 l 7.6,4.6 c 0,0 2.4,1.2 0,1.1 -2.4,-0.1 -15.1,0 -15.1,0 0,0 -1.5,0 1,-5.7 z"
   id="path58" />

	<path
   d="m 425.2,416.2 c 0,0 8.9,-2.5 11.8,-6.9 2.9,-4.4 11.4,3.4 11.4,3.4 0,0 13.1,14.4 23.1,13.2 0,0 4.1,-0.3 3.7,4.2 -0.4,4.5 21.2,1.7 20.6,-10.4 -0.6,-12.1 0,-15 0,-15 0,0 -1.7,-7.3 -9.6,0 -7.9,7.3 -23,-1.2 -23,-1.2 0,0 -8.9,-9.3 -21.6,-3.9 -1.7,0.5 -5.8,1 -7.1,-4.2 -1.3,-5.2 -16.3,-0.5 -14.9,5.4 1.4,5.9 5.6,15.4 5.6,15.4 z"
   id="path60" />

	<path
   class="st3"
   d="m 418.8,415.4 c 0,0 -0.6,5 0,6.5 0.6,1.5 12.1,0 12.1,0 V 419 c 0,0 -6.9,-2 -4,-8.3 0,0 1.3,-16.5 -8.4,-9.1 -9.7,7.5 -4.1,14 -4.1,14 0,0 2.6,2.3 4.4,-0.2 z"
   id="path62" />

	<path
   class="st2"
   d="m 416.2,450.5 4.3,95.7 h 6.9 l 6.2,-58.1 10.4,12 c 0,0 5.8,6.4 13.7,-1.8 7.9,-8.2 22.9,-30.2 22.9,-30.2 0,0 -2.1,-2.5 -6.6,-1.3 l -21.2,19.5 c 0,0 -3,5.2 -4.4,-2.9 -1.4,-8.1 -9.4,-33 -9.4,-33 h -22.8 z"
   id="path64" />

	<path
   class="st1"
   d="m 411.2,427.9 c 0,0 6.9,-3.8 8,-6.7 0,0 8.5,1.6 11.2,-1.1 0,0 8.1,-3.3 8.5,13.8 0.4,17.1 0,16.6 0,16.6 h -22.8 l -0.3,-8.6 -3.1,-9.8 z"
   id="path66" />

	<path
   class="st3"
   d="m 397.4,432 8.7,7 c 0,0 0.7,2.2 4.2,0 3.5,-2.2 5.5,-4.7 5.5,-4.7 0,0 7.3,0.1 3.9,5.7 l -7.9,5.1 c 0,0 -1.9,4 -6.9,-0.8 -5,-4.8 -11,-11.3 -11,-11.3 z"
   id="path68" />

	<path
   class="st3"
   d="m 400.4,430.9 c 0.5,-0.5 3.8,3.4 3.8,3.4 0,0 1.1,2.4 4.9,1.7 l 5.5,-1.7 -1.3,-7.3 c 0,0 -7,3.7 -10.1,-1 -3.1,-4.7 -5.8,1.4 -5.8,1.4"
   id="path70" />

	<path
   d="m 420.9,545.2 c -1.7,0 -11.2,3.1 -10.7,3.6 0.6,0.4 17.2,0.6 17.2,0.6 l -0.2,-4.1 h -6.3 z"
   id="path72" />

	<path
   d="m 474.5,466.9 c 0,0 4.1,-1.6 5.7,1.2 0,0 6.1,-1.2 7.1,0 1,1.2 1.8,-7.8 -12.9,-6 z"
   id="path74" />

	<path
   class="st2"
   d="m 192,410.7 14,65.1 h 9 l -5,-92.4 h -32.7 v 93.7 c 0,0 10.6,2.2 10.3,0 -0.3,-2.2 7.6,-61.2 7.6,-61.2"
   id="path76" />

	<path
   class="st3"
   d="m 221.8,335.9 c 0,0 -9.7,2.4 -11.2,7.6 -1.5,5.2 -8.3,0 -8.3,0 0,0 4.5,-5.2 5.3,-11 l 13,3.4"
   id="path78" />

	<path
   d="m 178.6,482 h 17.6 l -8.6,-5 h -10.3 c 0.1,0.1 -2.7,5 1.3,5 z"
   id="path80" />

	<path
   d="M 207.4,482 H 225 l -8.6,-6.7 h -10.3 c 0,0.1 -2.8,6.7 1.3,6.7 z"
   id="path82" />

	<path
   class="st3"
   d="m 217,352.5 3.4,3.7 10.6,-12.5 v -5.9 l 12.5,3.4 c 0,0 -7.5,3.1 -9.4,7.2 -1.9,4 -10.9,16.7 -10.9,16.7 0,0 -1.9,5.5 -10.6,-5.5 -8.7,-11 -3.4,-11 -3.4,-11 z"
   id="path84" />

	<polygon
   class="st1"
   points="184,259.2 169.1,327.8 277,349.3 292.9,278.5 "
   id="polygon86" />

	<path
   class="st1"
   d="m 189.2,335.9 c 0,0 -16.8,5.5 -11.8,47.5 h 32.7 v -25.6 l 2.5,1.9 4.4,-7.2 c 0,0 -4.7,-11.5 -15.3,-13.9 0,-0.1 -10.9,0.8 -12.5,-2.7 z"
   id="path88" />

	<polygon
   class="st8"
   points="173.7,322.8 173.7,324.8 273.1,344.4 287.5,281.3 189.2,260.9 "
   id="polygon90" />

	<path
   class="st2"
   d="m 186.1,317.9 81,18.1 c 0,0 9.7,-26.2 4.4,-43.3 -5.3,-17.1 -18.1,7.8 -18.1,7.8 0,0 -6.2,19.6 -12.5,1.9 -6.3,-17.7 -22.4,-3.7 -22.4,-3.7 0,0 -5.9,18.1 -18.4,4.7 -12.4,-13.6 -14,14.5 -14,14.5 z"
   id="path92" />

	<path
   class="st9"
   d="m 205,316.5 2.3,-8.7 c 0,0 -36.6,0.8 -18.1,23.7"
   id="path94" />

	<path
   class="st3"
   d="m 198.4,333.8 c 0,0 -1.1,1.7 2.3,4.8 0,0 -8.2,4.4 -11.5,-2.6 v -6.4 c 0,0 1.3,-17.9 15.7,-13.1 0,0 2,14 -1.3,14.6 -3.2,0.6 -3.8,-2.5 -5.2,2.7 z"
   id="path96" />

	<circle
   class="st10"
   cx="204.39999"
   cy="283.79999"
   r="9.1999998"
   id="circle98" />

	<polyline
   class="st2"
   points="434.1,314.6 433.1,314.3 418.3,309.5 416.7,310.8  "
   id="polyline100" />

	<path
   class="st2"
   d="m 418,307.7 c 0.1,-0.1 -1.3,-14.5 -1.3,-14.5 v 15.4"
   id="path102" />

	<circle
   class="st2"
   cx="277"
   cy="488.70001"
   r="9.1000004"
   id="circle104" />

	<circle
   class="st1"
   cx="277"
   cy="449.60001"
   r="9.1000004"
   id="circle106" />

	<path
   class="st5"
   d="m 363.2,446.7 h -72.1 c -0.2,0 -0.3,-0.1 -0.3,-0.3 v -2.9 c 0,-0.2 0.1,-0.3 0.3,-0.3 h 72.1 c 0.2,0 0.3,0.1 0.3,0.3 v 2.9 c 0,0.2 -0.1,0.3 -0.3,0.3 z"
   id="path108" />

	<path
   class="st5"
   d="m 338.9,454.8 h -47.8 c -0.2,0 -0.3,-0.1 -0.3,-0.3 v -2.9 c 0,-0.2 0.1,-0.3 0.3,-0.3 h 47.8 c 0.2,0 0.3,0.1 0.3,0.3 v 2.9 c 0,0.2 -0.1,0.3 -0.3,0.3 z"
   id="path110" />

	<path
   class="st5"
   d="m 338.9,495.3 h -47.8 c -0.2,0 -0.3,-0.1 -0.3,-0.3 v -2.9 c 0,-0.2 0.1,-0.3 0.3,-0.3 h 47.8 c 0.2,0 0.3,0.1 0.3,0.3 v 2.9 c 0,0.2 -0.1,0.3 -0.3,0.3 z"
   id="path112" />

	<path
   class="st5"
   d="m 363.2,487.2 h -72.1 c -0.2,0 -0.3,-0.1 -0.3,-0.3 V 484 c 0,-0.2 0.1,-0.3 0.3,-0.3 h 72.1 c 0.2,0 0.3,0.1 0.3,0.3 v 2.9 c 0,0.2 -0.1,0.3 -0.3,0.3 z"
   id="path114" />

	<path
   class="st11"
   d="M 368.7,506.3 H 266.1 c -1.5,0 -2.8,-1.3 -2.8,-2.8 v -27.1 c 0,-1.5 1.3,-2.8 2.8,-2.8 h 102.6 c 1.5,0 2.8,1.3 2.8,2.8 v 27.1 c 0,1.6 -1.3,2.8 -2.8,2.8 z"
   id="path116" />

	<path
   class="st11"
   d="M 368.3,466.8 H 265.6 c -1.5,0 -2.8,-1.3 -2.8,-2.8 v -27.1 c 0,-1.5 1.3,-2.8 2.8,-2.8 h 102.6 c 1.5,0 2.8,1.3 2.8,2.8 V 464 c 0.1,1.6 -1.2,2.8 -2.7,2.8 z"
   id="path118" />

	<path
   class="st1"
   d="m 437.8,399.7 c 0,0 0.4,8.2 -0.2,8.9 -0.6,0.7 3.3,0.6 3.7,-0.3 0.4,-0.9 0.2,-8.6 0.2,-8.6 0,0 -2.6,-1.3 -3.7,0 z"
   id="path120" />

	<circle
   class="st12"
   cx="390.70001"
   cy="419"
   r="15.4"
   id="circle122" />

</g>
  </g>
  <style
     type="text/css"
     id="style10">
	.st0{fill:#EAF4FE;}
	.st1{fill:#006AFF;}
	.st2{fill:#00046D;}
	.st3{fill:#D58E76;}
	.st4{fill:#FCFCFC;}
	.st5{fill:#DCEAF8;}
	.st6{fill:none;stroke:#D7D0FA;stroke-width:0.25;stroke-miterlimit:10;}
	.st7{fill:#B5B5B5;}
	.st8{fill:#FFFFFF;}
	.st9{fill:#0A0A0A;}
	.st10{fill:#010569;}
	.st11{fill:none;stroke:#EEEDF6;stroke-width:0.25;stroke-miterlimit:10;}
	.st12{fill:#FE2326;}
</style>
</svg>
