<svg width="26" height="22" viewBox="0 0 26 22" fill="none" xmlns="http://www.w3.org/2000/svg">
<path d="M24 0H2C1.46957 0 0.960859 0.210714 0.585786 0.585786C0.210714 0.960859 0 1.46957 0 2V20C0 20.5304 0.210714 21.0391 0.585786 21.4142C0.960859 21.7893 1.46957 22 2 22H3.67375C3.86301 22.0001 4.0484 21.9464 4.20838 21.8453C4.36836 21.7442 4.49636 21.5997 4.5775 21.4287C5.06377 20.4021 5.83151 19.5346 6.79143 18.9271C7.75135 18.3196 8.86401 17.9971 10 17.9971C11.136 17.9971 12.2486 18.3196 13.2086 18.9271C14.1685 19.5346 14.9362 20.4021 15.4225 21.4287C15.5036 21.5997 15.6316 21.7442 15.7916 21.8453C15.9516 21.9464 16.137 22.0001 16.3263 22H24C24.5304 22 25.0391 21.7893 25.4142 21.4142C25.7893 21.0391 26 20.5304 26 20V2C26 1.46957 25.7893 0.960859 25.4142 0.585786C25.0391 0.210714 24.5304 0 24 0ZM10 16C9.20887 16 8.43552 15.7654 7.77772 15.3259C7.11992 14.8864 6.60723 14.2616 6.30448 13.5307C6.00173 12.7998 5.92252 11.9956 6.07686 11.2196C6.2312 10.4437 6.61216 9.73098 7.17157 9.17157C7.73098 8.61216 8.44372 8.2312 9.21964 8.07686C9.99556 7.92252 10.7998 8.00173 11.5307 8.30448C12.2616 8.60723 12.8864 9.11992 13.3259 9.77772C13.7654 10.4355 14 11.2089 14 12C14 13.0609 13.5786 14.0783 12.8284 14.8284C12.0783 15.5786 11.0609 16 10 16ZM24 20H16.9287C16.4928 19.2483 15.9372 18.5728 15.2838 18H21C21.2652 18 21.5196 17.8946 21.7071 17.7071C21.8946 17.5196 22 17.2652 22 17V5C22 4.73478 21.8946 4.48043 21.7071 4.29289C21.5196 4.10536 21.2652 4 21 4H5C4.73478 4 4.48043 4.10536 4.29289 4.29289C4.10536 4.48043 4 4.73478 4 5V17C3.99989 17.2218 4.07351 17.4373 4.20928 17.6127C4.34505 17.788 4.53526 17.9133 4.75 17.9688C4.08152 18.5479 3.51417 19.2344 3.07125 20H2V2H24V20Z" fill="#2C2C2C"/>
</svg>
