<svg width="14" height="14" viewBox="0 0 14 14" fill="none" xmlns="http://www.w3.org/2000/svg">
<path d="M14 7C14.0016 7.20521 13.9392 7.40581 13.8216 7.57393C13.7039 7.74205 13.5368 7.86932 13.3435 7.93807L9.37733 9.38082L7.93565 13.3476C7.86459 13.5391 7.73665 13.7042 7.56901 13.8209C7.40137 13.9375 7.20206 14 6.99787 14C6.79367 14 6.59436 13.9375 6.42672 13.8209C6.25909 13.7042 6.13114 13.5391 6.06009 13.3476L4.61778 9.37644L0.652211 7.93807C0.460776 7.86699 0.295674 7.73901 0.179083 7.57132C0.0624929 7.40363 0 7.20426 0 7C0 6.79574 0.0624929 6.59637 0.179083 6.42868C0.295674 6.26099 0.460776 6.13301 0.652211 6.06193L4.62215 4.61918L6.06009 0.652409C6.13114 0.460917 6.25909 0.295764 6.42672 0.179138C6.59436 0.062512 6.79367 0 6.99787 0C7.20206 0 7.40137 0.062512 7.56901 0.179138C7.73665 0.295764 7.86459 0.460917 7.93565 0.652409L9.37796 4.62356L13.3435 6.06193C13.5368 6.13068 13.7039 6.25795 13.8216 6.42607C13.9392 6.59419 14.0016 6.79479 14 7Z" fill="#2C2C2C"/>
</svg>
