<?xml version="1.0" encoding="UTF-8" standalone="no"?>
<svg
   xmlns:dc="http://purl.org/dc/elements/1.1/"
   xmlns:cc="http://creativecommons.org/ns#"
   xmlns:rdf="http://www.w3.org/1999/02/22-rdf-syntax-ns#"
   xmlns:svg="http://www.w3.org/2000/svg"
   xmlns="http://www.w3.org/2000/svg"
   id="svg4570"
   version="1.1"
   viewBox="0 0 320.3222 254.35277"
   height="254.35277mm"
   width="320.3222mm">
  <defs
     id="defs4564">
    <clipPath
       clipPathUnits="userSpaceOnUse"
       id="clipPath4590">
      <path
         d="M 0,0 H 908 V 721 H 0 Z"
         id="path4588" />
    </clipPath>
  </defs>
  <metadata
     id="metadata4567">
    <rdf:RDF>
      <cc:Work
         rdf:about="">
        <dc:format>image/svg+xml</dc:format>
        <dc:type
           rdf:resource="http://purl.org/dc/dcmitype/StillImage" />
        <dc:title></dc:title>
      </cc:Work>
    </rdf:RDF>
  </metadata>
  <g
     transform="translate(114.04801,-19.389088)"
     id="layer1">
    <g
       id="g4580"
       transform="matrix(0.35277777,0,0,-0.35277777,-114.04801,273.74186)">
      <g
         id="g4582" />
      <g
         id="g4584">
        <g
           id="g4586"
           clip-path="url(#clipPath4590)">
          <path
             d="M 0,721 H 908 V 0 H 0 Z"
             style="fill:#ffffff;fill-opacity:0;fill-rule:nonzero;stroke:none"
             id="path4592" />
          <path
             d="m 766.5546,75.68129 c -172.4455,-99.6813 -451.8811,-99.6813 -624.1091,0 C -30,175.145 -30,336.6374 142.4455,436.3187 314.6735,536 594.1091,536 766.5546,436.3187 939,336.6374 939,175.145 766.5546,75.68129 Z"
             style="fill:#0250c1;fill-opacity:1;fill-rule:evenodd;stroke:none"
             id="path4594" />
          <path
             d="M 774.8802,102.5306 C 597.7604,-8.49925e-6 310.4569,-8.49925e-6 133.3371,102.5306 -44,205.0612 -44,371.1565 133.3371,473.6871 310.4569,576 597.7604,576 774.8802,473.6871 952,371.1565 952,205.0612 774.8802,102.5306 Z"
             style="fill:#4579ee;fill-opacity:1;fill-rule:evenodd;stroke:none"
             id="path4596" />
          <path
             d="M 666.6087,164.9886 C 549.2174,96.99999 358.7826,96.99999 241.3913,164.9886 124,232.9772 124,343.0228 241.3913,411.0114 358.7826,479 549.2174,479 666.6087,411.0114 784,343.0228 784,232.9772 666.6087,164.9886 Z"
             style="fill:#79bbf7;fill-opacity:1;fill-rule:evenodd;stroke:none"
             id="path4598" />
          <path
             d="M 189,293.9748 503.9499,476 714,354.775 399.0501,173 Z"
             style="fill:#fd7f72;fill-opacity:1;fill-rule:evenodd;stroke:none"
             id="path4600" />
          <path
             d="M 399,173.4427 C 406.3923,159.9618 406.3923,146.4809 399,133 713.6077,314.5573 713.6077,314.5573 713.6077,314.5573 721,328.0382 721,341.5191 713.6077,355 Z"
             style="fill:#ba4e49;fill-opacity:1;fill-rule:evenodd;stroke:none"
             id="path4602" />
          <path
             d="M 399.5806,133 C 189,253.6958 189,253.6958 189,253.6958 c 0,2.6003 0,2.6003 0,2.6003 3.2733,-1.9502 3.2733,-1.9502 3.2733,-1.9502 205.5615,-118.3123 205.5615,-118.3123 205.5615,-118.3123 5.2373,9.5344 5.8919,22.319 -0.4364,35.5371 -205.1251,117.8788 -205.1251,117.8788 -205.1251,117.8788 0,0 0,0 0,0 C 189,291.183 189,291.183 189,291.183 189,294 189,294 189,294 399.5806,173.3042 399.5806,173.3042 399.5806,173.3042 407,159.8694 407,146.4347 399.5806,133 Z"
             style="fill:#d35d57;fill-opacity:1;fill-rule:evenodd;stroke:none"
             id="path4604" />
          <path
             d="m 402,150.3559 c -0.2175,-2.3926 -0.435,-4.5678 -1.0874,-6.7429 -0.2175,-0.8701 -0.435,-1.7401 -0.8699,-2.6102 -0.435,-1.7401 -1.3049,-3.4802 -2.1748,-5.0028 C 193,254.7627 193,254.7627 193,254.7627 193,290 193,290 193,290 397.4329,171.6723 397.4329,171.6723 397.4329,171.6723 c 1.0874,-2.1751 1.9573,-4.5678 2.6098,-6.7429 0.4349,-1.3051 0.8699,-2.3927 1.0874,-3.6978 0.4349,-2.6101 0.8699,-5.2203 0.8699,-7.8305 0,-1.0875 0,-1.9576 0,-3.0452 z"
             style="fill:#f7eee3;fill-opacity:1;fill-rule:evenodd;stroke:none"
             id="path4606" />
          <path
             d="M 401,161 C 193,280.746 193,280.746 193,280.746 193,284 193,284 193,284 399.9133,164.6878 399.9133,164.6878 399.9133,164.6878 400.348,163.3862 400.7827,162.3016 401,161 Z"
             style="fill:#e4dfd8;fill-opacity:1;fill-rule:evenodd;stroke:none"
             id="path4608" />
          <path
             d="M 402,150 C 193,270.7311 193,270.7311 193,270.7311 193,274 193,274 193,274 402,153.051 402,153.051 402,153.051 c 0,-1.0897 0,-1.9614 0,-3.051 z"
             style="fill:#e4dfd8;fill-opacity:1;fill-rule:evenodd;stroke:none"
             id="path4610" />
          <path
             d="M 400,143.617 C 399.7835,142.7447 399.567,141.8723 399.1339,141 193,260.7287 193,260.7287 193,260.7287 193,264 193,264 193,264 Z"
             style="fill:#e4dfd8;fill-opacity:1;fill-rule:evenodd;stroke:none"
             id="path4612" />
          <path
             d="M 189,256.9939 192.2519,259 v -2.3823 L 398,137.5046 397.1245,136 Z"
             style="fill:#fd7f72;fill-opacity:1;fill-rule:evenodd;stroke:none"
             id="path4614" />
          <path
             d="M 380.2526,184 695,365.9959 691.7474,368 377,185.7536 Z"
             style="fill:#ba4e49;fill-opacity:1;fill-rule:evenodd;stroke:none"
             id="path4616" />
          <path
             d="M 755,238 717,207.0309 755,185 Z"
             style="fill:#2b2660;fill-opacity:1;fill-rule:evenodd;stroke:none"
             id="path4618" />
          <path
             d="M 793,207.0309 755,238 v -53 z"
             style="fill:#3a3079;fill-opacity:1;fill-rule:evenodd;stroke:none"
             id="path4620" />
          <path
             d="m 299.4286,467.4865 c 0.6428,1.9459 2.5714,3.8919 5.3571,5.6216 1.0714,0.6486 2.3572,1.2973 3.6429,1.7297 6.2143,2.1622 13.9285,2.1622 19.9285,0 1.5,-0.4324 2.7858,-1.0811 3.8572,-1.7297 2.7857,-1.7297 4.5,-3.6757 5.3571,-5.6216 0.2143,-0.8649 0.4286,-1.7298 0.4286,-2.3784 0,-3.027 -1.9286,-5.8378 -5.7857,-8.2162 -0.8572,-0.4324 -2.1429,-1.0811 -3.2143,-1.5135 -6.4286,-2.3784 -14.5714,-2.3784 -21,0 -1.0714,0.4324 -2.3571,1.0811 -3.2143,1.5135 -3.8571,2.3784 -5.7857,5.1892 -5.7857,8.2162 0,0.6486 0.2143,1.5135 0.4286,2.3784 z m 28.2857,3.027 c -5.1429,3.027 -13.5,3.027 -18.6429,0 -1.5,-0.8648 -2.5714,-1.9459 -3,-3.027 -1.5,-2.5946 -0.6428,-5.4054 2.3572,-7.5676 0.2143,0 0.4285,-0.2162 0.6428,-0.4324 5.1429,-2.8108 13.5,-2.8108 18.6429,0 0.2143,0.2162 0.4286,0.4324 0.6428,0.4324 3.2143,2.1622 4.0715,4.973 2.5715,7.5676 -0.4286,1.0811 -1.5,2.1622 -3.2143,3.027 z"
             style="fill:#b2302f;fill-opacity:1;fill-rule:evenodd;stroke:none"
             id="path4622" />
          <path
             d="m 304.7857,477.4865 c 0.8572,0.4324 2.1429,1.0811 3.2143,1.5135 21,0 21,0 21,0 1.0714,-0.4324 2.3571,-1.0811 3.2143,-1.5135 3.8571,-2.3784 5.7857,-5.1892 5.7857,-8 0,-4.7568 0,-4.7568 0,-4.7568 0,-3.027 -1.9286,-5.8378 -5.7857,-8.2162 -0.8572,-0.4324 -2.1429,-1.0811 -3.2143,-1.5135 -21,0 -21,0 -21,0 -1.0714,0.4324 -2.3571,1.0811 -3.2143,1.5135 -3.8571,2.3784 -5.7857,5.1892 -5.7857,8.2162 0,4.7568 0,4.7568 0,4.7568 0,2.8108 1.9286,5.6216 5.7857,8 z m 22.9286,-13.6216 c 1.7143,1.0811 2.7857,1.9459 3.2143,3.2432 -0.4286,1.0811 -1.5,2.1622 -3.2143,3.027 -5.1429,3.0271 -13.5,3.0271 -18.6429,0 -1.5,-0.8648 -2.5714,-1.9459 -3,-3.027 0.4286,-1.2973 1.5,-2.1621 3,-3.2432 5.1429,-2.8109 13.5,-2.8109 18.6429,0 z"
             style="fill:#b2302f;fill-opacity:1;fill-rule:evenodd;stroke:none"
             id="path4624" />
          <path
             d="m 304.7857,478.0727 c 0.8572,0.4364 2.1429,1.0909 3.2143,1.5273 6.4286,2.4 14.5714,2.4 21,0 1.0714,-0.4364 2.3571,-1.0909 3.2143,-1.5273 3.8571,-2.4 5.7857,-5.2363 5.7857,-8.0727 0,-0.8727 -0.2143,-1.7455 -0.4286,-2.4 -0.8571,-2.1818 -2.5714,-4.1454 -5.3571,-5.8909 -1.0714,-0.6546 -2.3572,-1.0909 -3.8572,-1.7455 -6,-1.9636 -13.7142,-1.9636 -19.9285,0 -1.2857,0.6546 -2.5715,1.0909 -3.6429,1.7455 -2.7857,1.7455 -4.7143,3.7091 -5.3571,5.8909 -0.2143,0.6545 -0.4286,1.5273 -0.4286,2.4 0,2.8364 1.9286,5.6727 5.7857,8.0727 z M 306.0714,467.6 c 0.4286,-1.3091 1.5,-2.1818 3,-3.2727 5.1429,-2.8364 13.5,-2.8364 18.6429,0 1.7143,1.0909 2.7857,1.9636 3.2143,3.2727 1.5,2.4 0.6428,5.2364 -2.5715,7.4182 -0.2142,0 -0.4285,0.2182 -0.6428,0.4364 -5.1429,2.8363 -13.5,2.8363 -18.6429,0 -0.2143,-0.2182 -0.4285,-0.4364 -0.6428,-0.4364 -3,-2.1818 -3.8572,-5.0182 -2.3572,-7.4182 z"
             style="fill:#ff3e3e;fill-opacity:1;fill-rule:evenodd;stroke:none"
             id="path4626" />
          <path
             d="m 447.8617,89.44299 c 1.7234,4.29824 5.3856,8.38157 10.9867,11.60521 2.3697,1.5044 5.1702,2.579 7.9708,3.6536 12.7101,4.2982 28.6515,4.2982 41.3616,0 2.8006,-1.0746 5.6011,-2.1492 7.9708,-3.6536 5.8165,-3.22364 9.2633,-7.30697 10.9867,-11.60521 C 527.7846,87.72369 528,86.2193 528,84.5 528,78.48245 524.1223,72.67982 516.1516,68.16666 513.9973,66.8772 511.6277,65.80264 509.258,64.94298 496.117,60 478.883,60 465.742,64.94298 c -2.3697,0.85966 -4.7393,1.93422 -6.8936,3.22368 C 450.8777,72.67982 447,78.48245 447,84.5 c 0,1.7193 0.4308,3.22369 0.8617,4.94299 z m 59.0266,6.23245 c -10.7713,6.23246 -28.0053,6.23246 -38.7766,0 -3.016,-1.7193 -5.3856,-3.86843 -6.6782,-6.23245 -2.8005,-5.1579 -1.0771,-10.96054 5.3857,-15.25878 0.4308,-0.21491 0.8616,-0.42982 1.2925,-0.85965 10.7713,-6.01755 28.0053,-6.01755 38.7766,0 0.4309,0.42983 0.8617,0.64474 1.2925,0.85965 6.4628,4.29824 8.1862,10.10088 5.3857,15.25878 -1.2926,2.36402 -3.6622,4.51315 -6.6782,6.23245 z"
             style="fill:#b2302f;fill-opacity:1;fill-rule:evenodd;stroke:none"
             id="path4628" />
          <path
             d="m 458.8484,110.7763 c 2.1543,1.2895 4.5239,2.3641 6.8936,3.2237 43.516,0 43.516,0 43.516,0 2.3697,-0.8596 4.7393,-1.9342 6.8936,-3.2237 C 524.1223,106.2632 528,100.2456 528,94.44299 c 0,-9.88598 0,-9.88598 0,-9.88598 0,-6.01754 -3.8777,-11.82017 -11.8484,-16.33332 -2.1543,-1.28948 -4.5239,-2.36404 -6.8936,-3.22369 -43.516,0 -43.516,0 -43.516,0 -2.3697,0.85965 -4.7393,1.93421 -6.8936,3.22369 C 450.8777,72.73684 447,78.53947 447,84.55701 c 0,9.88598 0,9.88598 0,9.88598 0,5.80261 3.8777,11.82021 11.8484,16.33331 z m 48.0399,-27.50875 c 3.016,1.71929 5.3856,3.86841 6.6782,6.23245 -1.2926,2.36404 -3.6622,4.51316 -6.6782,6.23245 -10.7713,6.23245 -28.0053,6.23245 -38.7766,0 -3.016,-1.71929 -5.3856,-3.86841 -6.6782,-6.23245 1.2926,-2.36404 3.6622,-4.51316 6.6782,-6.23245 10.7713,-6.23246 28.0053,-6.23246 38.7766,0 z"
             style="fill:#b2302f;fill-opacity:1;fill-rule:evenodd;stroke:none"
             id="path4630" />
          <path
             d="m 458.8484,110.8333 c 2.1543,1.2895 4.5239,2.3641 6.8936,3.2237 13.141,4.943 30.375,4.943 43.516,0 2.3697,-0.8596 4.7393,-1.9342 6.8936,-3.2237 C 524.1223,106.3202 528,100.3026 528,94.5 c 0,-1.7193 -0.2154,-3.4386 -0.8617,-4.94299 -1.7234,-4.29824 -5.1702,-8.38157 -10.9867,-11.60526 -2.3697,-1.50439 -5.1702,-2.57895 -7.9708,-3.6535 C 495.4707,70 479.5293,70 466.8192,74.29825 c -2.8006,1.07455 -5.6011,2.14911 -7.9708,3.6535 -5.6011,3.22369 -9.2633,7.30702 -10.9867,11.60526 C 447.4308,91.0614 447,92.7807 447,94.5 c 0,5.8026 3.8777,11.8202 11.8484,16.3333 z m 2.5851,-21.27629 c 1.2926,-2.36402 3.6622,-4.51315 6.6782,-6.23245 10.7713,-6.23246 28.0053,-6.23246 38.7766,0 3.016,1.7193 5.3856,3.86843 6.6782,6.23245 2.8005,5.1579 1.0771,10.96049 -5.3857,15.25879 -0.4308,0.2149 -0.8616,0.4298 -1.2925,0.6447 -10.7713,6.2325 -28.0053,6.2325 -38.7766,0 -0.4309,-0.2149 -0.8617,-0.4298 -1.2925,-0.6447 -6.4628,-4.2983 -8.1862,-10.10089 -5.3857,-15.25879 z"
             style="fill:#ff3e3e;fill-opacity:1;fill-rule:evenodd;stroke:none"
             id="path4632" />
          <path
             d="M 116,337.1194 101.3133,329 87,337.1194 101.3133,345 Z"
             style="fill:#e37965;fill-opacity:1;fill-rule:evenodd;stroke:none"
             id="path4634" />
          <path
             d="M 116,337 V 320.4975 L 101,312 v 16.6256 z"
             style="fill:#c46457;fill-opacity:1;fill-rule:evenodd;stroke:none"
             id="path4636" />
          <path
             d="m 87,337 14,-8.3744 V 312 l -14,8.4975 z"
             style="fill:#9e5349;fill-opacity:1;fill-rule:evenodd;stroke:none"
             id="path4638" />
          <path
             d="m 805.6685,335 c -34.337,0 -34.337,0 -34.337,0 C 769,335 769,335 769,335 c 0,-5.6548 0,-5.6548 0,-5.6548 0,-3.1666 1.9076,-6.1071 5.7228,-8.5952 7.6305,-4.75 19.9239,-4.75 27.5544,0 3.8152,2.4881 5.7228,5.4286 5.7228,8.5952 C 808,335 808,335 808,335 Z"
             style="fill:#0250c1;fill-opacity:1;fill-rule:evenodd;stroke:none"
             id="path4640" />
          <path
             d="m 805.6685,336 c -34.337,0 -34.337,0 -34.337,0 C 769,336 769,336 769,336 c 0,-5.3571 0,-5.3571 0,-5.3571 0,-3 1.9076,-6 5.7228,-8.1429 7.6305,-4.5 19.9239,-4.5 27.5544,0 3.8152,2.1429 5.7228,5.1429 5.7228,8.1429 C 808,336 808,336 808,336 Z"
             style="fill:#4579ee;fill-opacity:1;fill-rule:evenodd;stroke:none"
             id="path4642" />
          <path
             d="m 802.3366,327.6667 c -7.6633,-4.6667 -20.0099,-4.6667 -27.6732,0 -7.6634,4.6666 -7.6634,12.2222 0,16.6666 7.6633,4.6667 20.0099,4.6667 27.6732,0 7.6634,-4.4444 7.6634,-12 0,-16.6666 z"
             style="fill:#79bbf7;fill-opacity:1;fill-rule:evenodd;stroke:none"
             id="path4644" />
          <path
             d="m 795.22,332.069 c -3.78,-2.069 -9.66,-2.069 -13.44,0 -3.78,2.0689 -3.78,5.5862 0,7.6552 3.78,2.2758 9.66,2.2758 13.44,0 3.78,-2.069 3.78,-5.5863 0,-7.6552 z"
             style="fill:#2e70e5;fill-opacity:1;fill-rule:evenodd;stroke:none"
             id="path4646" />
          <path
             d="m 790.2308,380.3472 c -0.9616,0.6528 -2.5,0.6528 -3.4616,0 C 786.1923,379.912 786,379.4768 786,379.0417 c 0,-43.3009 0,-43.3009 0,-43.3009 0,-0.4353 0.1923,-0.8704 0.7692,-1.088 0.9616,-0.6528 2.5,-0.6528 3.4616,0 0.5769,0.2176 0.7692,0.6527 0.7692,1.088 0,43.3009 0,43.3009 0,43.3009 0,0.4351 -0.1923,0.8703 -0.7692,1.3055 z"
             style="fill:#1b1464;fill-opacity:1;fill-rule:evenodd;stroke:none"
             id="path4648" />
          <path
             d="M 788,430 764,359.125 788,345 Z"
             style="fill:#e6e6e6;fill-opacity:1;fill-rule:evenodd;stroke:none"
             id="path4650" />
          <path
             d="M 788,430 813,359.125 788,345 Z"
             style="fill:#c9c9c9;fill-opacity:1;fill-rule:evenodd;stroke:none"
             id="path4652" />
          <path
             d="m 224.7729,378 c -47.5458,0 -47.5458,0 -47.5458,0 C 174,378 174,378 174,378 c 0,-7.1579 0,-7.1579 0,-7.1579 0,-4 2.5817,-7.7895 7.9602,-10.7368 10.5418,-6.1053 27.5378,-6.1053 38.0796,0 5.3785,2.9473 7.9602,6.7368 7.9602,10.7368 C 228,378 228,378 228,378 Z"
             style="fill:#0250c1;fill-opacity:1;fill-rule:evenodd;stroke:none"
             id="path4654" />
          <path
             d="m 224.7729,380 c -47.5458,0 -47.5458,0 -47.5458,0 C 174,380 174,380 174,380 c 0,-7.4561 0,-7.4561 0,-7.4561 0,-4.1667 2.5817,-8.1141 7.9602,-11.1843 10.5418,-6.3596 27.5378,-6.3596 38.0796,0 5.3785,3.0702 7.9602,7.0176 7.9602,11.1843 C 228,380 228,380 228,380 Z"
             style="fill:#4579ee;fill-opacity:1;fill-rule:evenodd;stroke:none"
             id="path4656" />
          <path
             d="m 220.3478,369.1635 c -10.6522,-6.1635 -27.8261,-6.1635 -38.6956,0 -10.6522,6.1636 -10.6522,16.2893 0,22.673 10.8695,6.1635 28.0434,6.1635 38.6956,0 10.6522,-6.3837 10.6522,-16.5094 0,-22.673 z"
             style="fill:#79bbf7;fill-opacity:1;fill-rule:evenodd;stroke:none"
             id="path4658" />
          <path
             d="m 210.5255,375.0127 c -5.2554,-3.0127 -13.7956,-3.0127 -19.27,0 -5.2555,3.0126 -5.2555,7.962 0,10.9746 5.4744,3.0127 14.0146,3.0127 19.27,0 5.4745,-3.0126 5.4745,-7.962 0,-10.9746 z"
             style="fill:#2e70e5;fill-opacity:1;fill-rule:evenodd;stroke:none"
             id="path4660" />
          <path
             d="m 203.8571,441.1322 c -1.6,0.8678 -4.1142,0.8678 -5.7142,0 -0.6858,-0.4339 -1.1429,-0.8678 -1.1429,-1.5186 0,-59.2272 0,-59.2272 0,-59.2272 0,-0.4339 0.4571,-1.0847 1.1429,-1.5186 1.6,-0.8678 4.1142,-0.8678 5.7142,0 0.6858,0.4339 1.1429,1.0847 1.1429,1.5186 0,59.2272 0,59.2272 0,59.2272 0,0.6508 -0.4571,1.0847 -1.1429,1.5186 z"
             style="fill:#1b1464;fill-opacity:1;fill-rule:evenodd;stroke:none"
             id="path4662" />
          <path
             d="M 201,509 167,412.3542 201,393 Z"
             style="fill:#e6e6e6;fill-opacity:1;fill-rule:evenodd;stroke:none"
             id="path4664" />
          <path
             d="M 201,509 234,412.3542 201,393 Z"
             style="fill:#c9c9c9;fill-opacity:1;fill-rule:evenodd;stroke:none"
             id="path4666" />
          <path
             d="m 629.7729,99 c -47.5458,0 -47.5458,0 -47.5458,0 C 579,99 579,99 579,99 c 0,-7.45614 0,-7.45614 0,-7.45614 0,-4.16667 2.5817,-8.11404 7.9601,-11.18421 C 597.502,74 614.498,74 625.0399,80.35965 630.4183,83.42982 633,87.37719 633,91.54386 633,99 633,99 633,99 Z"
             style="fill:#0250c1;fill-opacity:1;fill-rule:evenodd;stroke:none"
             id="path4668" />
          <path
             d="m 629.7729,101 c -47.5458,0 -47.5458,0 -47.5458,0 C 579,101 579,101 579,101 c 0,-7.45614 0,-7.45614 0,-7.45614 0,-4.16667 2.5817,-8.11404 7.9601,-11.18421 C 597.502,76 614.498,76 625.0399,82.35965 630.4183,85.42982 633,89.37719 633,93.54386 633,101 633,101 633,101 Z"
             style="fill:#4579ee;fill-opacity:1;fill-rule:evenodd;stroke:none"
             id="path4670" />
          <path
             d="M 625.3478,89.98742 C 614.4783,84 597.3043,84 586.6522,89.98742 576,95.97485 576,105.8113 586.6522,112.0126 c 10.6521,5.9874 27.8261,5.9874 38.6956,0 10.6522,-6.2013 10.6522,-16.03775 0,-22.02518 z"
             style="fill:#79bbf7;fill-opacity:1;fill-rule:evenodd;stroke:none"
             id="path4672" />
          <path
             d="M 615.7445,95.18987 C 610.2701,92 601.7299,92 596.4744,95.18987 c -5.4744,3.18988 -5.4744,8.43043 0,11.62023 5.2555,3.1899 13.7957,3.1899 19.2701,0 5.2555,-3.1898 5.2555,-8.43035 0,-11.62023 z"
             style="fill:#2e70e5;fill-opacity:1;fill-rule:evenodd;stroke:none"
             id="path4674" />
          <path
             d="m 608.8571,162.1186 c -1.6,0.8814 -4.1142,0.8814 -5.7142,0 C 602.4572,161.678 602,161.2373 602,160.5763 c 0,-60.1526 0,-60.1526 0,-60.1526 0,-0.44065 0.4572,-1.10167 1.1429,-1.54234 1.6,-0.88136 4.1142,-0.88136 5.7142,0 0.6857,0.44067 1.1429,1.10169 1.1429,1.54234 0,60.1526 0,60.1526 0,60.1526 0,0.661 -0.4572,1.1017 -1.1429,1.5423 z"
             style="fill:#1b1464;fill-opacity:1;fill-rule:evenodd;stroke:none"
             id="path4676" />
          <path
             d="m 579,176.5 c 0,28.9949 12.0883,52.5 27,52.5 14.9117,0 27,-23.5051 27,-52.5 0,-28.9949 -12.0883,-52.5 -27,-52.5 -14.9117,0 -27,23.5051 -27,52.5 z"
             style="fill:#e6e6e6;fill-opacity:1;fill-rule:nonzero;stroke:none"
             id="path4678" />
          <path
             d="m 620.3301,221 c 1.7476,-7.4112 2.6214,-15.4764 2.6214,-23.9775 0,-32.9146 -13.5437,-59.5079 -30.3641,-59.5079 -1.5292,0 -3.0583,0.218 -4.5874,0.6539 C 592.8058,129.4494 599.1407,124 606.3495,124 620.9854,124 633,147.5416 633,176.5326 633,195.2787 627.9757,211.8449 620.3301,221 Z"
             style="fill:#c9c9c9;fill-opacity:1;fill-rule:evenodd;stroke:none"
             id="path4680" />
          <path
             d="m 146.5824,174 c -35.3846,0 -35.3846,0 -35.3846,0 C 109,174 109,174 109,174 c 0,-5.4217 0,-5.4217 0,-5.4217 0,-2.8193 1.978,-5.8554 5.7143,-8.0241 7.9121,-4.5542 20.6593,-4.5542 28.3516,0 C 147.022,162.7229 149,165.759 149,168.5783 149,174 149,174 149,174 Z"
             style="fill:#0250c1;fill-opacity:1;fill-rule:evenodd;stroke:none"
             id="path4682" />
          <path
             d="m 146.5824,175 c -35.3846,0 -35.3846,0 -35.3846,0 C 109,175 109,175 109,175 c 0,-5.4217 0,-5.4217 0,-5.4217 0,-2.8193 1.978,-5.8554 5.7143,-8.0241 7.9121,-4.5542 20.6593,-4.5542 28.3516,0 C 147.022,163.7229 149,166.759 149,169.5783 149,175 149,175 149,175 Z"
             style="fill:#4579ee;fill-opacity:1;fill-rule:evenodd;stroke:none"
             id="path4684" />
          <path
             d="m 143.08,167.5259 c -7.7,-4.5259 -20.46,-4.5259 -28.38,0 -7.7,4.3103 -7.7,11.6379 0,15.9482 7.92,4.5259 20.68,4.5259 28.38,0 7.92,-4.3103 7.92,-11.6379 0,-15.9482 z"
             style="fill:#79bbf7;fill-opacity:1;fill-rule:evenodd;stroke:none"
             id="path4686" />
          <path
             d="m 135.3939,171.2807 c -3.8181,-2.2807 -9.7575,-2.2807 -13.5757,0 -3.8182,2.5088 -3.8182,6.1579 0,8.4386 3.8182,2.2807 9.7576,2.2807 13.5757,0 3.6061,-2.2807 3.6061,-5.9298 0,-8.4386 z"
             style="fill:#2e70e5;fill-opacity:1;fill-rule:evenodd;stroke:none"
             id="path4688" />
          <path
             d="m 130.4,219.5681 c -1,0.4319 -2.6,0.4319 -3.6,0 -0.6,-0.4319 -0.8,-0.8639 -0.8,-1.2958 0,-42.5446 0,-42.5446 0,-42.5446 0,-0.4319 0.2,-0.8639 0.8,-1.0798 1,-0.6479 2.6,-0.6479 3.6,0 0.4,0.2159 0.6,0.6479 0.6,1.0798 0,42.5446 0,42.5446 0,42.5446 0,0.4319 -0.2,0.8639 -0.6,1.2958 z"
             style="fill:#1b1464;fill-opacity:1;fill-rule:evenodd;stroke:none"
             id="path4690" />
          <path
             d="m 109,230 c 0,20.9868 8.7304,38 19.5,38 10.7695,0 19.5,-17.0132 19.5,-38 0,-20.9868 -8.7305,-38 -19.5,-38 -10.7696,0 -19.5,17.0132 -19.5,38 z"
             style="fill:#e6e6e6;fill-opacity:1;fill-rule:nonzero;stroke:none"
             id="path4692" />
          <path
             d="m 139.04,262 c 1.0667,-5.2174 1.7067,-11.087 1.7067,-17.1739 0,-23.9131 -9.6,-43.0435 -21.3334,-43.0435 -1.28,0 -2.3466,0.2174 -3.4133,0.4348 C 119.4133,195.913 123.8933,192 129.0133,192 139.4667,192 148,208.9565 148,229.8261 c 0,13.6956 -3.6267,25.6522 -8.96,32.1739 z"
             style="fill:#c9c9c9;fill-opacity:1;fill-rule:evenodd;stroke:none"
             id="path4694" />
          <path
             d="M 423,225.4862 V 187 L 655,321.6391 V 360 Z"
             style="fill:#2e70e5;fill-opacity:1;fill-rule:evenodd;stroke:none"
             id="path4696" />
          <path
             d="M 225,339.9426 422.6149,226 655,360.0574 457.5102,474 Z"
             style="fill:#4579ee;fill-opacity:1;fill-rule:evenodd;stroke:none"
             id="path4698" />
          <path
             d="M 423,225.5324 225,340 v -4.0164 L 419.9924,223.2732 V 192.7736 L 225,305.484 v -4.0164 L 423,187 v 4.0164 0 30.4996 z"
             style="fill:#2e70e5;fill-opacity:1;fill-rule:evenodd;stroke:none"
             id="path4700" />
          <path
             d="M 420,223.3481 V 193 L 228,303.4021 V 334 Z"
             style="fill:#ffffff;fill-opacity:1;fill-rule:evenodd;stroke:none"
             id="path4702" />
          <path
             d="M 420,200.9868 V 198 L 228,308.0132 V 311 Z"
             style="fill:#e4dfd8;fill-opacity:1;fill-rule:evenodd;stroke:none"
             id="path4704" />
          <path
             d="M 420,210.1078 V 207 L 228,316.8922 V 320 Z"
             style="fill:#e4dfd8;fill-opacity:1;fill-rule:evenodd;stroke:none"
             id="path4706" />
          <path
             d="M 420,218.9868 V 216 L 228,326.1377 V 329 Z"
             style="fill:#e4dfd8;fill-opacity:1;fill-rule:evenodd;stroke:none"
             id="path4708" />
          <path
             d="M 413,290.1527 V 258 L 608,370.7222 V 403 Z"
             style="fill:#beb9b1;fill-opacity:1;fill-rule:evenodd;stroke:none"
             id="path4710" />
          <path
             d="M 288,362.451 413.326,290 608,402.6739 482.9239,475 Z"
             style="fill:#f7eee3;fill-opacity:1;fill-rule:evenodd;stroke:none"
             id="path4712" />
          <path
             d="M 413,290.2401 288,363 v -3.2617 l 122.3828,-71.129 V 262.767 L 288,334.0215 v -3.3871 L 413,258 v 3.2617 0 25.7168 z"
             style="fill:#e4dfd8;fill-opacity:1;fill-rule:evenodd;stroke:none"
             id="path4714" />
          <path
             d="M 411,288.6824 V 263 L 291,332.1929 V 358 Z"
             style="fill:#ffffff;fill-opacity:1;fill-rule:evenodd;stroke:none"
             id="path4716" />
          <path
             d="M 411,269.375 V 267 L 291,336.375 V 339 Z"
             style="fill:#e4dfd8;fill-opacity:1;fill-rule:evenodd;stroke:none"
             id="path4718" />
          <path
             d="M 411,276.625 V 274 L 291,343.625 V 346 Z"
             style="fill:#e4dfd8;fill-opacity:1;fill-rule:evenodd;stroke:none"
             id="path4720" />
          <path
             d="M 411,284.375 V 282 L 291,351.375 V 354 Z"
             style="fill:#e4dfd8;fill-opacity:1;fill-rule:evenodd;stroke:none"
             id="path4722" />
          <path
             d="M 350.2857,383 448,327.5152 431.589,318 334,373.7319 Z"
             style="fill:#e4dfd8;fill-opacity:1;fill-rule:evenodd;stroke:none"
             id="path4724" />
          <path
             d="M 372.0968,383 447,339.375 440.9032,336 366,379.25 Z"
             style="fill:#e4dfd8;fill-opacity:1;fill-rule:evenodd;stroke:none"
             id="path4726" />
          <path
             d="M 473.3547,432 529,399.2639 526.6453,398 471,430.7361 Z"
             style="fill:#e4dfd8;fill-opacity:1;fill-rule:evenodd;stroke:none"
             id="path4728" />
          <path
             d="M 477.2404,434 533,401.2592 530.8841,400 475,432.6148 Z"
             style="fill:#e4dfd8;fill-opacity:1;fill-rule:evenodd;stroke:none"
             id="path4730" />
          <path
             d="M 481.3547,436 537,403.3852 534.6453,402 479,434.7408 Z"
             style="fill:#e4dfd8;fill-opacity:1;fill-rule:evenodd;stroke:none"
             id="path4732" />
          <path
             d="M 484.279,438 541,406.2222 538.8477,405 482,436.6555 Z"
             style="fill:#e4dfd8;fill-opacity:1;fill-rule:evenodd;stroke:none"
             id="path4734" />
          <path
             d="M 513.125,433 532,422.3469 529.875,421 511,431.6531 Z"
             style="fill:#e4dfd8;fill-opacity:1;fill-rule:evenodd;stroke:none"
             id="path4736" />
          <path
             d="M 471.3827,412 496,398.1239 495.6173,398 471,411.7522 Z"
             style="fill:#e4dfd8;fill-opacity:1;fill-rule:evenodd;stroke:none"
             id="path4738" />
          <path
             d="m 454,697.9565 c -0.8539,0.4348 -1.9214,0.2174 -3.2022,-0.4348 -2.7753,-1.5217 -4.9102,-5.2174 -4.9102,-8.2608 0,-1.5218 0.6405,-2.6087 1.4944,-3.2609 -28.6067,16.5217 -28.6067,16.5217 -28.6067,16.5217 -0.427,0.2174 -0.427,0.2174 -0.427,0.2174 -1.4944,0.6522 -2.3483,2.3913 -2.3483,4.7826 0,4.3479 3.2022,10 6.8315,12.174 2.1348,1.0869 3.8427,1.3043 5.1235,0.4347 0,-0.2174 0,-0.2174 0,-0.2174 0.2135,0 0.427,0 0.427,-0.2173 z"
             style="fill:#6095f4;fill-opacity:1;fill-rule:evenodd;stroke:none"
             id="path4740" />
          <path
             d="m 456,694.2542 c 0,-3.0847 -2.2222,-6.8305 -4.8889,-8.3729 -1.5556,-0.8813 -2.6666,-0.8813 -3.5556,-0.4406 0,0 0,0 0,0 -0.8888,0.661 -1.5555,1.7627 -1.5555,3.3051 0,3.0847 2.2222,6.8305 5.1111,8.3729 1.3334,0.661 2.4444,0.8813 3.3334,0.4406 0.8888,-0.4406 1.5555,-1.5423 1.5555,-3.3051 z"
             style="fill:#165ad3;fill-opacity:1;fill-rule:evenodd;stroke:none"
             id="path4742" />
          <path
             d="m 455,692.2857 c 0,-1.2857 -0.9524,-3 -2.381,-3.8571 -0.7142,-0.4286 -1.4285,-0.4286 -1.9047,0 -0.4762,0.2143 -0.7143,0.6428 -0.7143,1.2857 0,1.5 1.1905,3.2143 2.619,3.8571 0.7143,0.4286 1.1905,0.4286 1.6667,0.2143 0.4762,-0.2143 0.7143,-0.6428 0.7143,-1.5 z"
             style="fill:#0250c1;fill-opacity:1;fill-rule:evenodd;stroke:none"
             id="path4744" />
          <path
             d="m 454,693.1724 c 0,0 0,0 0,0 -0.4348,0.2069 -0.8696,0.2069 -1.5217,-0.2069 -1.3044,-0.6207 -2.3914,-2.2759 -2.3914,-3.7241 0,-0.6207 0.2175,-1.0345 0.6522,-1.2414 -1.0869,0.6207 -1.0869,0.6207 -1.0869,0.6207 0,0 0,0 0,0 0,0 0,0 0,0 -0.2174,0 -0.2174,0 -0.2174,0 0,0 0,0 0,0 -0.2174,0.4138 -0.4348,0.8276 -0.4348,1.4483 0,1.2414 1.0869,2.8965 2.1739,3.7241 0.6522,0.2069 1.087,0.2069 1.5217,0.2069 0,0 0,0 0,0 0,0 0,0 0,0 z"
             style="fill:#4579ee;fill-opacity:1;fill-rule:evenodd;stroke:none"
             id="path4746" />
          <path
             d="m 454,691.1429 c 0,-0.6429 -0.9,-1.5 -1.5,-1.7143 -0.9,-0.4286 -1.5,0 -1.5,0.6428 0,0.4286 0.6,1.2857 1.5,1.7143 0.6,0.2143 1.5,0 1.5,-0.6428 z"
             style="fill:#79bbf7;fill-opacity:1;fill-rule:evenodd;stroke:none"
             id="path4748" />
          <path
             d="m 443,690.9565 c -0.8764,0.4348 -2.191,0.4348 -3.5056,-0.4348 -2.6292,-1.5217 -4.8202,-5.2174 -4.8202,-8.2608 0,-1.5218 0.4382,-2.6087 1.3146,-3.2609 -29.3596,16.5217 -29.3596,16.5217 -29.3596,16.5217 -0.4382,0.2174 -0.4382,0.2174 -0.4382,0.2174 -1.3146,0.6522 -2.191,2.3913 -2.191,4.7826 0,4.3479 3.0674,10 7.0112,12.174 1.972,1.0869 3.9438,1.3043 5.2585,0.4347 0,0 0,0 0,0 0.2191,-0.2174 0.2191,-0.2174 0.4382,-0.4347 z"
             style="fill:#4579ee;fill-opacity:1;fill-rule:evenodd;stroke:none"
             id="path4750" />
          <path
             d="m 444,687.2542 c 0,-3.0847 -2.0454,-6.8305 -5,-8.3729 -1.3636,-0.8813 -2.7273,-0.8813 -3.6364,-0.4406 0,0 0,0 0,0 -0.909,0.661 -1.3636,1.7627 -1.3636,3.3051 0,3.0847 2.2727,6.8305 5,8.3729 1.3636,0.8813 2.7273,0.8813 3.6364,0.4406 0.909,-0.4406 1.3636,-1.5423 1.3636,-3.3051 z"
             style="fill:#165ad3;fill-opacity:1;fill-rule:evenodd;stroke:none"
             id="path4752" />
          <path
             d="m 443,685.2857 c 0,-1.2857 -1.1905,-3 -2.619,-3.8571 -0.7143,-0.4286 -1.4286,-0.4286 -1.9048,0 -0.2381,0.2143 -0.4762,0.6428 -0.4762,1.2857 0,1.5 1.1905,3.2143 2.381,3.8571 0.7142,0.4286 1.4285,0.4286 1.9047,0.2143 0.4762,-0.2143 0.7143,-0.6428 0.7143,-1.5 z"
             style="fill:#0250c1;fill-opacity:1;fill-rule:evenodd;stroke:none"
             id="path4754" />
          <path
             d="m 442,686.8333 c 0,0 0,0 0,0 -0.4348,0.2334 -1.0869,0.2334 -1.7391,-0.2333 -1.087,-0.7 -2.174,-2.5667 -2.174,-4.2 0,-0.7 0.2175,-1.1667 0.4348,-1.4 -0.8695,0.7 -0.8695,0.7 -0.8695,0.7 0,0 0,0 0,0 0,0 0,0 0,0 -0.2174,0 -0.2174,0 -0.2174,0 0,0 0,0 0,0 C 437,682.1667 437,682.6334 437,683.3333 c 0,1.4 0.8696,3.2667 2.1739,4.2 0.4348,0.2334 1.087,0.4667 1.5217,0.2334 0,0 0,0 0,0 0,0 0,0 0,0 z"
             style="fill:#4579ee;fill-opacity:1;fill-rule:evenodd;stroke:none"
             id="path4756" />
          <path
             d="m 442,684.1429 c 0,-0.6429 -0.4445,-1.5 -1.1111,-1.7143 -0.4444,-0.4286 -0.8889,0 -0.8889,0.6428 0,0.6429 0.4445,1.2857 0.8889,1.7143 0.6666,0.2143 1.1111,0 1.1111,-0.6428 z"
             style="fill:#79bbf7;fill-opacity:1;fill-rule:evenodd;stroke:none"
             id="path4758" />
          <path
             d="m 472,697.7468 c -11.0114,0 -11.0114,0 -11.0114,0 -3.8863,-4.7342 -3.8863,-4.7342 -3.8863,-4.7342 -0.4319,-0.6455 -1.0796,-0.8607 -1.9432,-1.0759 -1.9432,-0.2152 -4.1023,-1.0759 -6.4773,-1.9367 -0.6477,0.2152 -0.6477,0.6456 -0.4318,1.2911 1.7273,0.8608 3.2386,2.3671 4.5341,3.8735 -5.3977,-1.076 -10.3637,-1.9368 -14.25,-1.9368 -0.6477,0.4304 -0.8637,0.8608 -0.6477,1.2912 3.2386,0.6456 6.0454,1.5063 7.7727,3.0126 -3.2387,-0.2151 -6.9091,0 -10.5795,0.6456 -1.0796,0.4304 -1.0796,0.8608 -0.6478,1.2912 3.8864,-0.2152 7.125,0.2151 9.5,1.2911 -2.5909,0.2152 -5.1818,0.8607 -7.5568,2.1519 -0.6477,0.4304 -0.6477,0.6455 0,1.076 3.6704,-0.6456 7.125,-0.8608 9.9318,-0.2152 -2.5909,0.6455 -4.75,1.2911 -6.6932,2.367 -0.2159,0.2152 -0.2159,0.6456 0,0.8608 1.5114,-0.2152 1.5114,-0.2152 1.5114,-0.2152 3.8864,-0.8607 19,-0.4304 30.0114,-0.6456 z"
             style="fill:#eebcc5;fill-opacity:1;fill-rule:evenodd;stroke:none"
             id="path4760" />
          <path
             d="m 453,695.1667 c 0,0 0.1667,0 0.3333,0.1666 0.1667,0 0.5,0 0.6667,0.1667 0.3333,0.1667 0.5,0.1667 0.6667,0.3333 0.1666,0 0.3333,0.1667 0.3333,0.1667 0,0 0,-0.1667 -0.1667,-0.3333 -0.1666,-0.1667 -0.3333,-0.5 -0.6666,-0.5 C 453.8333,695 453.6667,695 453.3333,695 453.1667,695 453,695.1667 453,695.1667 Z"
             style="fill:#e8a7b5;fill-opacity:1;fill-rule:evenodd;stroke:none"
             id="path4762" />
          <path
             d="m 447.2727,695 c 0,0 -0.3636,0 -0.5454,0 -0.3637,0 -0.5455,0.25 -0.5455,0.5 -0.1818,0.25 0,0.5 0.1818,0.75 0,0.5 0.3637,0.75 0.3637,0.75 0,0 0.3636,0 0.5454,0 0.3637,0 0.5455,-0.25 0.5455,-0.5 0.1818,-0.25 0,-0.5 -0.1818,-0.75 -0.1818,-0.5 -0.3637,-0.75 -0.3637,-0.75 z"
             style="fill:#e8a7b5;fill-opacity:1;fill-rule:evenodd;stroke:none"
             id="path4764" />
          <path
             d="m 446.2,699 c 0,0 -0.4,0 -0.6,0.1429 -0.2,0 -0.4,0 -0.6,0.1428 0,0.1429 0.2,0.2857 0.4,0.4286 0.2,0.1428 0.4,0.2857 0.4,0.2857 0,0 0.4,0 0.6,0 0.4,-0.1429 0.6,-0.1429 0.6,-0.2857 0,-0.1429 0,-0.2857 -0.2,-0.4286 C 446.6,699.1429 446.2,699 446.2,699 Z"
             style="fill:#e8a7b5;fill-opacity:1;fill-rule:evenodd;stroke:none"
             id="path4766" />
          <path
             d="m 446.2,701.2857 c 0,0 -0.6,0.2857 -0.6,0.5714 -0.3,0.5715 -0.6,0.8572 -0.3,0.8572 0,0.2857 0.3,0.2857 0.9,0.2857 0.3,0 0.9,-0.2857 0.9,-0.2857 0,0 0.3,-0.2857 0.6,-0.5714 0,-0.2858 0.3,-0.5715 0,-0.8572 C 447.7,701 447.4,701 447.1,701 c -0.6,0.2857 -0.9,0.2857 -0.9,0.2857 z"
             style="fill:#e8a7b5;fill-opacity:1;fill-rule:evenodd;stroke:none"
             id="path4768" />
          <path
             d="m 447.0909,704 c 0,0 -0.3636,0 -0.5455,0 -0.1818,0.2 -0.3636,0.2 -0.3636,0.2 -0.1818,0.2 0,0.4 0.1818,0.4 0.1818,0.2 0.5455,0.2 0.5455,0.2 0,0 0.3636,0.2 0.5455,0 0.1818,0 0.3636,0 0.5454,-0.2 0,0 -0.1818,-0.2 -0.3636,-0.2 -0.1818,-0.2 -0.5455,-0.4 -0.5455,-0.4 z"
             style="fill:#e8a7b5;fill-opacity:1;fill-rule:evenodd;stroke:none"
             id="path4770" />
          <path
             d="m 413,666 c 5.4688,9.6855 5.4688,9.6855 5.4688,9.6855 6.3437,1.1007 6.3437,1.1007 6.3437,1.1007 0.6563,0 1.3125,0.4402 1.75,1.1006 1.3125,1.5409 3.0625,3.0818 5.0313,4.6227 0.2187,0.8805 -0.2188,1.1005 -0.875,1.1005 -1.75,-1.1005 -3.7188,-1.7609 -5.6876,-1.9811 3.7188,4.1824 7,8.1447 8.9688,11.6667 0,0.6604 -0.2188,1.1006 -0.6562,1.1006 -2.4063,-2.6415 -4.5938,-4.4025 -6.7813,-5.283 1.75,2.8617 3.5,5.9434 4.8125,9.6856 0.2188,1.1006 -0.2188,1.3207 -0.6562,1.1006 -1.9688,-3.3019 -3.9376,-6.1636 -6.125,-7.7045 1.0937,2.4214 1.75,5.063 1.9687,7.9246 0,0.6603 -0.2187,0.8805 -0.875,0.4403 -1.3125,-3.5221 -2.8437,-6.6038 -5.0313,-8.8051 0.875,2.4214 1.3126,4.8428 1.5313,7.0441 -0.2187,0.4402 -0.4375,0.6603 -0.875,0.4402 -0.6563,-1.5409 -0.6563,-1.5409 -0.6563,-1.5409 C 419.5625,693.956 411.4688,680.7484 406,671.0629 Z"
             style="fill:#eebcc5;fill-opacity:1;fill-rule:evenodd;stroke:none"
             id="path4772" />
          <path
             d="m 425,681 c 0,0 -0.2,-0.125 -0.4,-0.25 -0.2,0 -0.4,-0.25 -0.6,-0.25 -0.2,-0.25 -0.4,-0.25 -0.6,-0.375 C 423.2,680 423,680 423,680 c 0,0 0.2,0 0.4,0 0.2,0 0.6,0 1,0.25 0.2,0.125 0.4,0.25 0.6,0.375 0,0.25 0,0.375 0,0.375 z"
             style="fill:#e8a7b5;fill-opacity:1;fill-rule:evenodd;stroke:none"
             id="path4774" />
          <path
             d="m 427.4,686.2222 c 0,0 0.2,0.4445 0.4,0.6667 0.2,0.2222 0.2,0.6666 0,0.8889 -0.2,0 -0.4,0.2222 -0.6,0.2222 -0.4,-0.2222 -0.6,-0.2222 -0.6,-0.2222 0,0 -0.2,-0.4445 -0.4,-0.6667 -0.2,-0.2222 -0.2,-0.6666 0,-0.6666 0,-0.2223 0.4,-0.4445 0.6,-0.2223 0.4,0 0.6,0 0.6,0 z"
             style="fill:#e8a7b5;fill-opacity:1;fill-rule:evenodd;stroke:none"
             id="path4776" />
          <path
             d="m 425.5555,688.5 c 0,0 0.2223,0.25 0.2223,0.75 0.2222,0.25 0.2222,0.5 0,0.75 -0.2223,0 -0.4445,0 -0.6667,0 -0.2222,0 -0.6666,-0.25 -0.6666,-0.25 0,0 -0.2223,-0.5 -0.2223,-0.75 -0.2222,-0.25 -0.2222,-0.75 0,-0.75 0,-0.25 0.4445,-0.25 0.6667,0 0.2222,0 0.6666,0.25 0.6666,0.25 z"
             style="fill:#e8a7b5;fill-opacity:1;fill-rule:evenodd;stroke:none"
             id="path4778" />
          <path
             d="m 423,690 c 0,0 -0.1667,0.4 -0.1667,0.6 -0.1666,0.4 -0.3333,0.4 -0.3333,0.4 -0.1667,0 -0.3333,0 -0.3333,-0.4 C 422,690.4 422,690 422,690 c 0,0 0,-0.2 0.1667,-0.6 0,-0.2 0.1666,-0.4 0.3333,-0.4 0.1667,0 0.1667,0.2 0.3333,0.4 0,0.4 0.1667,0.6 0.1667,0.6 z"
             style="fill:#e8a7b5;fill-opacity:1;fill-rule:evenodd;stroke:none"
             id="path4780" />
          <path
             d="m 420.25,690.75 c 0,0 0.25,0.25 0.5,0.5 0,0.5 0.25,0.75 0,0.75 0,0 -0.25,0 -0.5,-0.25 -0.25,0 -0.75,-0.5 -0.75,-0.5 0,0 -0.25,-0.25 -0.25,-0.5 -0.25,-0.25 -0.25,-0.5 0,-0.75 0,0 0.25,0 0.5,0.25 0.25,0.25 0.5,0.5 0.5,0.5 z"
             style="fill:#e8a7b5;fill-opacity:1;fill-rule:evenodd;stroke:none"
             id="path4782" />
          <path
             d="m 479.25,375.9863 c 1.75,-6.5754 -0.2188,-8.9863 -5.0312,-8.7671 -0.4376,0 -1.0938,0.2192 -1.5313,0.6575 -3.7187,3.0685 -7.4375,5.2603 -11.1563,6.5754 -0.2187,0.2191 -0.4374,0.2191 -0.6562,0.2191 -2.625,0 -4.8125,1.3151 -7,3.5069 -0.6562,0.6575 -0.875,1.7534 -0.2188,2.6301 1.3126,2.1918 4.5938,1.3151 8.0938,-0.6575 z"
             style="fill:#1b1464;fill-opacity:1;fill-rule:evenodd;stroke:none"
             id="path4784" />
          <path
             d="M 451.8015,379.3846 C 455,372.9231 453.5074,369.9231 448.8162,369 c -0.4265,0 -1.0662,0.2308 -1.4927,0.4615 -4.0514,2.3077 -8.1029,3.6923 -12.1544,4.1539 -0.2132,0 -0.4265,0 -0.6397,0 -2.3456,-0.6923 -4.6912,0.2308 -7.25,2.0769 -0.8529,0.4615 -1.2794,1.6154 -0.8529,2.5385 0.8529,2.7692 4.0514,2.5384 7.8897,1.3846 z"
             style="fill:#1b1464;fill-opacity:1;fill-rule:evenodd;stroke:none"
             id="path4786" />
          <path
             d="m 459.6562,379.1702 c 5.25,-4.0425 11.375,-6.1702 18.5938,-5.3191 0.4375,0 0.6562,0.4255 0.6562,0.851 0.2188,1.9149 0.2188,1.9149 0.2188,1.9149 0.6562,14.8937 0.6562,14.8937 0.6562,14.8937 0.2188,0.6382 0.2188,0.6382 0.2188,0.6382 0,0.4256 -0.4375,0.8511 -0.875,0.8511 -6.7812,0 -6.7812,0 -6.7812,0 -0.4376,0 -0.875,-0.2128 -0.875,-0.6383 0,-0.851 0,-0.851 0,-0.851 C 471.25,390.0213 471.25,390.0213 471.25,390.0213 471.0312,383 471.0312,383 471.0312,383 c 0,-0.2128 -0.2187,-0.4255 -0.2187,-0.4255 -1.5313,-1.2766 -4.8125,-1.7022 -9.1875,-1.9149 0,0 0,0 0,0 -0.4375,0 -0.875,0 -1.5312,0 -0.875,0 -1.0938,-1.0639 -0.4376,-1.4894 z"
             style="fill:#eebcc5;fill-opacity:1;fill-rule:evenodd;stroke:none"
             id="path4788" />
          <path
             d="M 449.9053,394.3465 C 453,376.4851 453,376.4851 453,376.4851 c 0,-0.2178 -0.221,-0.6534 -0.6631,-0.8712 -6.8527,-2.6139 -13.4843,-1.7426 -19.6738,1.3069 -0.6631,0.2178 -0.4421,1.3069 0.2211,1.5248 5.0842,1.0891 8.8421,2.396 10.1684,4.1386 0,0.2178 0,0.4356 0,0.6534 -1.5474,9.3664 -1.5474,9.3664 -1.5474,9.3664 0,0.4356 0.2211,0.8713 0.6632,0.8713 C 448.8,395 448.8,395 448.8,395 c 0.4421,0 0.8842,-0.2178 1.1053,-0.6535 z"
             style="fill:#eebcc5;fill-opacity:1;fill-rule:evenodd;stroke:none"
             id="path4790" />
          <path
             d="M 425,463.4297 C 440.3243,389 440.3243,389 440.3243,389 c 1.3135,0.4353 1.3135,0.4353 1.3135,0.4353 1.9703,0.4352 1.9703,0.4352 1.9703,0.4352 6.3487,1.3058 6.3487,1.3058 6.3487,1.3058 1.3135,0.4353 1.3135,0.4353 1.3135,0.4353 -2.1892,9.5757 -2.4081,19.3691 -0.6568,29.5978 0.8757,18.281 1.7514,36.3443 -5.254,43.5261 5.9108,7.3995 13.7918,22.416 19.4837,35.6915 0.219,0.2176 0.4379,0.2176 0.4379,0.4352 0.2189,0 0.2189,0 0.2189,0 0.4378,0.2177 1.0946,-0.2176 1.0946,-0.8705 -0.2189,-9.5757 -0.8757,-24.3746 2.4081,-35.2562 1.5324,-73.1239 1.5324,-73.1239 1.5324,-73.1239 11.8217,0 11.8217,0 11.8217,0 -0.4379,9.1405 1.0946,20.2396 4.5973,33.0799 3.5027,15.6694 6.7864,31.1212 1.7513,39.1735 -1.0946,15.6694 5.6919,31.3389 8.5379,48.7493 8.7567,11.7521 7.881,23.9394 -3.0649,34.3857 0,0 0,0 0,0 0,0 0,0 0,0 -50.7892,-5.0055 -50.7892,-5.0055 -50.7892,-5.0055 -4.8162,-0.4353 -4.8162,-0.4353 -4.8162,-0.4353 0,-0.4352 -0.2189,-0.8705 -0.4379,-1.3058 -8.1,-21.9807 -12.0405,-48.0964 -13.1351,-76.8237 z"
             style="fill:#0250c1;fill-opacity:1;fill-rule:evenodd;stroke:none"
             id="path4792" />
          <path
             d="M 425,463.1569 C 440.6471,389 440.6471,389 440.6471,389 c 1.3412,0.4337 1.3412,0.4337 1.3412,0.4337 2.0117,0.4336 2.0117,0.4336 2.0117,0.4336 -0.8941,4.3367 -0.8941,4.3367 -0.8941,4.3367 -14.5294,68.9529 -14.5294,68.9529 -14.5294,68.9529 1.1176,28.8388 5.3647,54.8588 13.6353,76.9758 0,0 0,0.2168 0,0.2168 0.2235,0.2168 0.2235,0.4336 0.2235,0.6505 -3.5765,0 -3.5765,0 -3.5765,0 0,-0.4337 -0.2235,-0.8673 -0.447,-1.301 C 430.1412,517.7988 426.1176,491.7789 425,463.1569 Z"
             style="fill:#044799;fill-opacity:1;fill-rule:evenodd;stroke:none"
             id="path4794" />
          <path
             d="M 477,700.3273 C 459.1341,707 459.1341,707 459.1341,707 c -19.1732,-7.7489 -19.1732,-7.7489 -19.1732,-7.7489 -1.743,-9.0403 -1.743,-9.0403 -1.743,-9.0403 -0.2179,-2.1525 -0.2179,-4.305 0,-6.4574 0.8715,-6.4574 0.8715,-6.4574 0.8715,-6.4574 0.2179,-1.9372 1.0894,-3.0135 1.3072,-4.305 1.0894,-3.0134 2.3967,-6.4574 4.7933,-9.4708 1.7431,-2.3677 19.609,-4.5202 26.7989,-1.0762 C 477,679.0179 477,679.0179 477,679.0179 Z"
             style="fill:#eebcc5;fill-opacity:1;fill-rule:evenodd;stroke:none"
             id="path4796" />
          <path
             d="M 470.5446,666 C 472,639.7518 472,639.7518 472,639.7518 451,637 451,637 451,637 c 3.5347,6.7737 3.9505,16.5109 2.4951,27.9416 z"
             style="fill:#e8a7b5;fill-opacity:1;fill-rule:evenodd;stroke:none"
             id="path4798" />
          <path
             d="m 435.4807,596.8857 c -0.2175,-1.3028 -0.4351,-2.8228 -0.2175,-4.3429 0,-4.3428 1.7403,-8.2514 4.3508,-11.2914 1.5228,-1.52 2.6105,-3.4742 3.0456,-5.4285 2.393,-9.3372 0.4351,-21.0629 -4.1333,-34.3086 1.0877,-0.2172 1.9579,-0.4343 3.0456,-0.8686 0,0 0,0 0.2176,0 C 462.2386,535 479.8596,535 494,546.2914 c -0.2175,0.2171 -0.2175,0.4343 -0.2175,0.6515 0,0 0,0 0,0 -3.4807,11.9428 -5.8737,24.7542 -6.9615,38 -1.3052,15.2 -1.0877,31.0514 0.6527,46.6857 -4.1333,16.2857 -4.1333,16.2857 -4.1333,16.2857 -4.1334,1.0857 -7.8316,1.0857 -11.5299,0.2171 -5.6561,-1.3028 -11.0947,-4.56 -17.621,-8.0342 -0.8702,-0.4344 -1.9579,-0.8686 -2.8281,-1.3029 -2.1754,-1.0857 -4.3509,-2.1714 -6.7438,-3.04 -3.6983,-1.52 -7.6141,-2.8228 -11.965,-3.6914 -0.2175,-0.2172 -0.4351,-0.2172 -0.6526,-0.2172 5.8737,-28.88 5.8737,-28.88 5.8737,-28.88 -1.0878,-1.7371 -1.7404,-3.6914 -2.1755,-5.8629 0,0 0,0 -0.2175,-0.2171 z"
             style="fill:#e6e6e6;fill-opacity:1;fill-rule:evenodd;stroke:none"
             id="path4800" />
          <path
             d="M 450,626.054 C 437.636,610 437.636,610 437.636,610 c -6.9411,3.9585 -31.0184,28.3693 -44.6838,40.0249 -1.3015,1.0996 -1.9522,2.8589 -1.5184,4.6182 1.0846,2.4192 3.6875,5.0581 6.9412,8.3569 23.8603,-14.5145 45.9853,-28.1494 51.625,-36.946 z"
             style="fill:#e6e6e6;fill-opacity:1;fill-rule:evenodd;stroke:none"
             id="path4802" />
          <path
             d="m 402.595,641 c 6.4463,16.4062 12.0331,25.5938 17.1901,34.3438 0.2149,0.4374 0.2149,1.0937 0,1.5312 -0.8595,2.8438 -2.5785,4.5938 -5.157,5.6875 -0.8595,0.4375 -1.9339,0 -2.3636,-0.875 -3.4381,-7.6563 -8.1653,-8.75 -18.2645,-23.625 z"
             style="fill:#e6e6e6;fill-opacity:1;fill-rule:evenodd;stroke:none"
             id="path4804" />
          <path
             d="m 478.0381,706.4609 c 15.0682,-8.2829 20.2344,-18.9634 19.1581,-31.1697 -0.8611,-9.3727 2.7984,-18.7454 9.4714,-25.2845 8.1798,-7.847 10.3324,-18.5275 8.8256,-30.5159 C 512.0491,591.5907 493.752,582 467.921,582.4359 c -3.6594,0.218 -6.8883,1.5258 -9.4714,3.7055 -11.8392,10.8985 -13.1308,25.7205 -5.5967,44.2479 0.2152,0.8719 0.6457,1.7438 0.861,2.6157 1.9373,10.4625 1.5068,20.0532 -1.0763,28.5541 -0.6458,1.9617 -1.7221,3.7054 -3.0136,5.2312 -4.7357,5.4493 -8.3951,13.2962 -10.763,23.7588 -0.861,4.1414 0.2153,8.7188 3.2289,12.2063 6.673,7.847 17.2207,10.2446 32.7194,5.0133 1.2915,-0.4359 2.3678,-0.8718 3.2288,-1.3078 z"
             style="fill:#0e0c51;fill-opacity:1;fill-rule:evenodd;stroke:none"
             id="path4806" />
          <path
             d="m 449.7132,667.3767 c -4.772,5.4367 -8.4595,13.2655 -10.8456,23.7038 -0.8676,4.1318 0.217,8.6986 3.2537,12.178 2.8199,3.2621 6.5074,5.6542 10.8456,6.7415 -1.9522,-1.0873 -3.6875,-2.6096 -5.2059,-4.3493 -2.8198,-3.262 -3.9044,-7.8288 -3.0367,-12.1781 2.386,-10.4384 5.8566,-18.2671 10.8456,-23.4863 1.3014,-1.5222 2.1691,-3.262 2.8198,-5.2191 2.8199,-8.6987 3.2537,-18.0497 1.0846,-28.4881 -0.2169,-0.8699 -0.4339,-1.9572 -0.8677,-2.8271 -7.5919,-18.2671 -6.0735,-33.0547 5.6397,-43.928 2.603,-2.3922 6.0736,-3.697 9.5441,-3.697 8.6765,-0.2174 16.4853,0.8699 23.2096,3.0446 -7.8088,-4.1319 -17.5699,-5.8716 -28.8493,-5.6541 -3.6875,0.2174 -6.9411,1.5222 -9.5441,3.6969 -11.9301,10.8733 -13.2316,25.6609 -5.6397,44.1455 0.2169,0.8699 0.6507,1.7398 0.8677,2.6096 1.9522,10.4383 1.5183,20.0069 -1.0846,28.488 -0.6507,1.9572 -1.7353,3.6969 -3.0368,5.2192 z"
             style="fill:#1b1464;fill-opacity:1;fill-rule:evenodd;stroke:none"
             id="path4808" />
          <path
             d="m 439.1945,541.8571 c 1.0647,-0.2142 1.9166,-0.4285 2.9814,-0.8571 0,0 0,0.2143 0.213,0.2143 0.4259,0.2143 0.8519,0.6428 1.4907,1.0714 4.6852,3.6429 15.1204,14.1429 4.2593,31.2857 -10.4352,16.2857 -9.1574,25.5 -8.0926,29.1429 0.2129,0.4286 0.4259,0.8571 0.6389,1.2857 -3.8334,-6.4286 -3.8334,-6.4286 -3.8334,-6.4286 C 436.213,596.5 436.213,596.5 436.213,596.5 436,592.2143 436,592.2143 436,592.2143 c 0,-4.2857 1.7037,-8.1429 4.2592,-11.1429 1.4908,-1.5 2.5556,-3.4285 2.9816,-5.3571 2.3425,-9.2143 0.4259,-20.7857 -4.0463,-33.8572 z"
             style="fill:#c9c9c9;fill-opacity:1;fill-rule:evenodd;stroke:none"
             id="path4810" />
          <path
             d="m 466,500.3371 c 0.4314,0.2178 1.0784,-0.2178 1.0784,-0.8712 -0.2157,-9.5833 -0.8627,-24.3939 2.3726,-35.2841 C 470.9608,391 470.9608,391 470.9608,391 c 2.3725,0 2.3725,0 2.3725,0 0,1.5246 0,1.5246 0,1.5246 3.0196,23.9583 3.6667,47.6989 -0.647,71.2216 -0.8628,14.375 -1.0785,28.5322 -1.9412,42.2538 -0.4314,-0.4356 -0.4314,-0.4356 -0.4314,-0.4356 C 466,500.5549 466,500.5549 466,500.5549 c 0,0 0,0 0,0 z"
             style="fill:#044799;fill-opacity:1;fill-rule:evenodd;stroke:none"
             id="path4812" />
          <path
             d="m 440,604 c 0,1 1,1 1,1 z"
             style="fill:#c9c9c9;fill-opacity:1;fill-rule:evenodd;stroke:none"
             id="path4814" />
          <path
             d="m 485.2439,580 c 0,0 0,-0.6626 0,-1.7668 0,-1.3252 0,-2.8713 -0.2195,-5.0798 0,-0.8834 0,-1.9878 -0.2195,-3.0921 0,-1.3251 -0.2195,-2.4294 -0.2195,-3.7545 -0.2196,-1.1043 -0.4391,-2.4295 -0.6586,-3.7547 -0.439,-1.3251 -0.6585,-2.4294 -1.0975,-3.7546 -0.439,-1.3251 -0.8781,-2.4294 -1.5366,-3.5337 -0.439,-1.3251 -1.0976,-2.4294 -1.7561,-3.3129 -0.2195,-0.2209 -0.439,-0.4417 -0.439,-0.6626 -0.2195,-0.4417 -0.4391,-0.6625 -0.6586,-0.8834 -0.439,-0.4417 -0.6585,-0.8834 -1.0975,-1.1043 -0.4391,-0.4417 -0.8781,-0.8834 -1.3171,-1.1043 -0.2195,-0.4417 -0.6586,-0.6625 -1.0976,-1.1043 -0.878,-0.6626 -1.5365,-0.8834 -2.1951,-1.546 -0.878,-0.2209 -1.5366,-0.6626 -1.9756,-0.8834 C 469.6585,544.2209 469,544 469,544 c 0,0 0.6585,0 1.9756,0.2209 0.439,0 1.3171,0.2208 1.9756,0.4417 0.8781,0.4417 1.7561,0.6625 2.8537,1.1042 0.439,0.2209 0.878,0.6626 1.317,0.8835 0.4391,0.4417 1.0976,0.6626 1.5366,1.1043 0.4391,0.4417 0.8781,0.8835 1.3171,1.3252 0.2195,0.2208 0.439,0.4417 0.6586,0.6625 0.2195,0.2209 0.439,0.4417 0.6585,0.6626 0.878,1.1043 1.7561,2.4295 2.4146,3.5338 0.6585,1.3251 1.0976,2.6502 1.5366,3.9754 0.439,1.3252 0.878,2.8712 1.0976,4.1963 0.2195,1.3252 0.439,2.6503 0.439,3.9755 0.2195,1.3252 0,2.6503 0,3.7546 0,1.3251 0,2.4295 -0.2195,3.5337 -0.2195,1.9877 -0.6586,3.7546 -0.8781,4.859 -0.2195,1.3251 -0.439,1.7668 -0.439,1.7668 z"
             style="fill:#c9c9c9;fill-opacity:1;fill-rule:evenodd;stroke:none"
             id="path4816" />
          <path
             d="m 469.1892,643 c 0,0 -0.4325,-0.6613 -1.5135,-1.9837 -0.6487,-0.6612 -1.2973,-1.5429 -1.946,-2.4244 -0.2162,-0.6613 -0.6486,-1.1021 -1.081,-1.5429 -0.2163,-0.6612 -0.6487,-1.3225 -1.0811,-1.9837 -0.6487,-1.102 -1.5136,-2.6449 -2.3784,-3.9673 -0.6487,-1.5429 -1.5135,-3.3062 -2.1622,-5.0694 -0.6486,-1.5429 -1.2973,-3.5266 -1.7297,-5.5102 -0.6486,-1.7633 -0.8649,-3.747 -1.0811,-5.9511 C 456,612.5837 456,610.6 456.4324,608.3959 c 0.2163,-1.9837 0.6487,-3.9673 1.5136,-5.7306 0.6486,-1.7633 1.5135,-3.3061 2.5945,-4.849 1.0811,-1.5428 2.1622,-2.6449 3.2433,-3.5265 0.6486,-0.6612 1.0811,-1.1021 1.7297,-1.5429 0.4325,-0.4408 1.0811,-0.6612 1.5135,-1.102 0.4325,-0.2204 0.8649,-0.6613 1.2973,-0.8817 0.4324,-0.2204 0.8649,-0.4408 1.2973,-0.6611 0.8649,-0.4408 1.2973,-0.6613 1.7297,-0.8817 C 471.7838,589 472,589 472,589 c 0,0 -0.2162,0.2204 -0.4324,0.4408 -0.4325,0.2205 -0.8649,0.6613 -1.5136,1.3224 -0.4324,0.2204 -0.6486,0.4409 -1.081,0.8817 -0.4325,0.2204 -0.6487,0.6612 -1.0811,1.102 -0.8649,0.8817 -1.7297,1.7633 -2.5946,2.8653 -0.4324,0.4408 -0.8649,1.1021 -1.2973,1.7633 -0.2162,0.2204 -0.4324,0.6612 -0.6487,0.8816 -0.2162,0.4408 -0.4324,0.6613 -0.6486,1.1021 -0.8649,1.3224 -1.5135,2.8653 -1.946,4.4081 -1.081,3.3062 -1.5134,6.8327 -1.081,10.5796 0.2162,1.7633 0.4324,3.747 0.8648,5.5102 0.4325,1.7633 0.8649,3.5266 1.2973,5.2898 0.6487,1.5429 1.0811,3.3062 1.7298,4.849 0.6486,1.5429 1.2973,2.8653 1.7297,4.1878 0.6487,1.3224 1.0811,2.6449 1.5135,3.7469 0.6487,0.8817 1.0811,1.9837 1.2973,2.6449 0.8649,1.5428 1.0811,2.4245 1.0811,2.4245 z"
             style="fill:#1b1464;fill-opacity:1;fill-rule:evenodd;stroke:none"
             id="path4818" />
          <path
             d="m 489.9787,683 c 0,0 -0.2127,-0.2177 -0.4255,-0.8705 -0.2128,-0.6529 -0.4255,-1.5234 -0.6383,-2.6116 -0.6383,-2.1763 -1.2766,-5.4408 -1.7021,-9.5758 0,-1.9586 -0.2128,-4.1349 0,-6.5289 0,-2.1763 0.2127,-4.7878 0.6383,-7.1818 0.6382,-2.6116 1.2766,-5.2232 2.1276,-7.6171 1.0638,-2.6116 2.1277,-5.0055 3.617,-7.3994 0.4256,-0.6529 0.8511,-1.0882 1.2766,-1.7411 0.2128,-0.4352 0.6384,-1.0881 1.2766,-1.5234 1.0639,-1.5234 1.0639,-1.5234 1.0639,-1.5234 0.4255,-0.4352 0.851,-1.0881 1.2765,-1.5234 1.4894,-1.9587 2.766,-3.9174 3.8299,-6.0937 0.851,-2.1763 1.4893,-4.3526 1.9148,-6.3113 0.4256,-2.1763 0.4256,-4.3526 0.4256,-6.0936 -0.2128,-1.9587 -0.6383,-3.6997 -0.8511,-5.2232 -0.4255,-1.5234 -0.851,-2.8292 -1.4893,-3.9173 -0.8511,-2.1764 -1.4894,-3.2645 -1.4894,-3.2645 0,0 1.0638,1.0881 2.1277,3.0468 1.2765,1.9587 2.7659,5.0056 3.617,9.1405 0.2127,1.9587 0.4255,4.135 0.2127,6.5289 -0.2127,2.394 -0.851,5.0055 -1.7021,7.3995 -1.0638,2.3939 -2.3404,4.7879 -4.0426,6.9642 -0.4255,0.4352 -0.851,0.8705 -1.2765,1.5234 -1.0639,1.5234 -1.0639,1.5234 -1.0639,1.5234 -0.4255,0.4353 -0.851,0.8706 -1.2766,1.5234 -0.2127,0.4353 -0.6383,0.8706 -0.851,1.5234 -1.4894,1.9587 -2.5532,4.3527 -3.617,6.529 -0.8511,2.3939 -1.4894,4.7879 -2.1277,7.1818 -0.4255,2.1763 -0.8511,4.5702 -1.0638,6.7466 -0.2128,2.1763 -0.4256,4.3526 -0.4256,6.3112 -0.2127,3.9174 0,7.1819 0.2128,9.3582 0,1.3058 0.2128,2.1763 0.2128,2.8292 0,0.6528 0.2127,0.8705 0.2127,0.8705 z"
             style="fill:#1b1464;fill-opacity:1;fill-rule:evenodd;stroke:none"
             id="path4820" />
          <path
             d="m 495,512 c 0,0 -0.2128,-0.2333 -0.6383,-0.9333 0,-0.2334 -0.4255,-0.4667 -0.6383,-0.9334 -0.2127,-0.2333 -0.6383,-0.7 -1.0638,-0.9333 -0.2128,-0.2333 -0.4256,-0.4667 -0.6383,-0.4667 -0.2128,-0.2333 -0.4256,-0.4666 -0.6383,-0.7 -0.6383,-0.2333 -1.0638,-0.7 -1.7022,-0.9333 -0.6383,-0.4667 -1.2765,-0.7 -1.9148,-0.9333 -0.6383,-0.2334 -1.2767,-0.4667 -1.9149,-0.7 -0.8511,-0.2334 -1.4894,-0.2334 -2.1277,-0.2334 -0.8511,-0.2333 -1.4894,0 -2.1277,0 -0.6382,0 -1.2765,0.2334 -1.9149,0.2334 -0.6383,0 -1.0638,0.2333 -1.7021,0.4666 -0.4255,0.2334 -0.851,0.4667 -1.2766,0.7 -0.4255,0 -0.6383,0.2334 -0.851,0.4667 -0.6383,0.2333 -0.8511,0.4667 -0.8511,0.4667 0,0 0.2128,0 0.8511,-0.2334 0.2127,0 0.6382,0 1.0638,-0.2333 0.4255,0 0.8511,0 1.2766,0 0.6383,-0.2333 1.0638,-0.2333 1.7021,-0.2333 0.4256,0 1.0639,0 1.7021,0 0.6383,0 1.2766,0 1.915,0 0.2127,0.2333 0.6382,0.2333 0.851,0.2333 0.4255,0 0.6383,0.2333 1.0638,0.2333 0.6383,0 1.2766,0.2334 1.9149,0.4667 0.6383,0.2333 1.0639,0.4667 1.7021,0.7 0.6383,0.2333 1.0639,0.4667 1.7022,0.7 0.4255,0.4667 0.851,0.7 1.2766,0.9333 0.6383,0.2334 0.851,0.4667 1.2766,0.7 0.4255,0.2334 0.6383,0.4667 0.851,0.7 C 494.7872,511.7667 495,512 495,512 Z"
             style="fill:#044799;fill-opacity:1;fill-rule:evenodd;stroke:none"
             id="path4822" />
          <path
             d="m 463,506.6279 c 0,0 -0.4368,-0.2093 -0.8736,-0.2093 -0.4367,-0.2093 -0.6551,-0.2093 -1.0919,-0.2093 C 460.5977,506 459.9425,506 459.5057,506 c -0.2183,0 -0.6551,0 -0.8735,0 -0.2184,0 -0.6552,0 -0.8736,0 -0.6551,0 -1.3103,0 -1.9655,0.2093 -0.6552,0 -1.3103,0.2093 -1.9655,0.4186 -0.6552,0.2093 -1.5287,0.4186 -2.1839,0.6279 -0.6552,0.2093 -1.3104,0.6279 -1.7472,1.0465 -0.6551,0.2093 -1.3103,0.8372 -1.7471,1.0465 -0.6551,0.4187 -1.0919,1.0466 -1.5287,1.4652 -0.4368,0.4185 -0.6552,0.8372 -1.092,1.2558 -0.2184,0.4185 -0.6551,0.8372 -0.6551,1.2558 -0.2184,0.2093 -0.4368,0.6279 -0.6552,0.8372 C 444,514.7907 444,515 444,515 c 0,0 0.2184,-0.2093 0.6552,-0.6279 0.2184,-0.2093 0.4367,-0.4186 0.6551,-0.8372 0.2184,-0.2093 0.6552,-0.4186 1.092,-0.8372 0.2184,-0.4186 0.6552,-0.6279 1.092,-1.0465 0.6551,-0.4187 1.0919,-0.8372 1.5287,-1.0466 0.4368,-0.4186 1.0919,-0.6279 1.5287,-1.0465 0.4368,0 0.6552,-0.2093 0.8736,-0.4186 0.4368,0 0.6552,-0.2093 1.0919,-0.4186 0.4368,-0.2093 1.092,-0.4186 1.7472,-0.6279 0.6551,-0.2093 1.3103,-0.4186 1.9655,-0.6279 0.4368,0 1.0919,-0.2093 1.7471,-0.2093 0.4368,-0.2093 1.092,-0.2093 1.5287,-0.4186 0.4368,0 1.092,0 1.5288,0 0.2184,0 0.6552,-0.2093 1.0919,-0.2093 0.4368,0 0.8736,0 0.8736,0 z"
             style="fill:#044799;fill-opacity:1;fill-rule:evenodd;stroke:none"
             id="path4824" />
          <path
             d="m 472,378 c 0,0 0,0 0,-0.1667 0,0 -0.1429,-0.1666 -0.1429,-0.3333 -0.1428,-0.1667 -0.1428,-0.3333 -0.1428,-0.5 -0.1429,-0.1667 -0.1429,-0.3333 -0.1429,-0.5 0,-0.1667 0,-0.1667 0,-0.3333 0,0 0,-0.1667 0,-0.1667 0.1429,-0.1667 0.1429,-0.3333 0.1429,-0.5 C 471.8571,375.1667 472,375 472,375 c 0,0 -0.1429,0 -0.4286,0.3333 -0.1428,0 -0.2857,0.1667 -0.4285,0.3334 C 471,376 471,376.1667 471,376.5 c 0,0.3333 0.1429,0.5 0.1429,0.8333 0.1428,0.1667 0.2857,0.3334 0.4285,0.3334 0.1429,0.1666 0.2857,0.3333 0.2857,0.3333 C 472,378 472,378 472,378 Z"
             style="fill:#e8a7b5;fill-opacity:1;fill-rule:evenodd;stroke:none"
             id="path4826" />
          <path
             d="m 445.4615,380 c 0,0 0,0 0,-0.2667 0,0 0.2308,-0.2666 0.2308,-0.5333 0,-0.2667 0,-0.5333 0.2308,-0.8 0,-0.2667 0.2307,-0.5333 0.2307,-0.8 0,-0.2667 0.2308,-0.2667 0.2308,-0.2667 0.2308,-0.2666 0.2308,-0.2666 0.2308,-0.2666 0.2308,-0.2667 0.4615,-0.2667 0.6923,-0.5334 0.4615,-0.2666 0.6923,-0.2666 0.6923,-0.2666 0,0 -0.2308,-0.2667 -0.6923,-0.2667 -0.2308,0 -0.6923,0 -0.9231,0.2667 -0.4615,0 -0.6923,0.2666 -0.9231,0.8 -0.2307,0.2666 -0.4615,0.8 -0.4615,1.0666 0,0.2667 0,0.8 0.2308,1.0667 0,0.2667 0,0.5333 0.2307,0.5333 0,0.2667 0,0.2667 0,0.2667 z"
             style="fill:#e8a7b5;fill-opacity:1;fill-rule:evenodd;stroke:none"
             id="path4828" />
        </g>
      </g>
    </g>
  </g>
</svg>
