<?xml version="1.0" encoding="utf-8"?>
<!-- Generator: Adobe Illustrator 19.0.0, SVG Export Plug-In . SVG Version: 6.00 Build 0)  -->
<svg version="1.1" id="Layer_1" xmlns="http://www.w3.org/2000/svg" xmlns:xlink="http://www.w3.org/1999/xlink" x="0px" y="0px"
	 viewBox="175 19 995.1 754.9" style="enable-background:new 175 19 995.1 754.9;" xml:space="preserve">
<style type="text/css">
	.st0{fill:#EAF4FE;}
	.st1{fill:none;stroke:#1F3696;stroke-width:0.9552;stroke-miterlimit:10;stroke-dasharray:4.7762;}
	.st2{fill:#BBD7FE;}
	.st3{fill:#00046D;}
	.st4{fill:#006AFF;}
	.st5{fill:#FFFFFF;}
	.st6{fill:#FE2326;}
	.st7{stroke:#00046D;stroke-width:1.7513;stroke-miterlimit:10;}
	.st8{stroke:#FE2326;stroke-width:1.3156;stroke-miterlimit:10;}
	.st9{fill:#FFFFFF;stroke:#00046D;stroke-width:1.52;stroke-miterlimit:10;}
	.st10{fill:#F9F6F6;}
	.st11{fill:#DDDAEC;}
	.st12{fill:#DE9B5F;}
	.st13{fill:#E02029;}
	.st14{fill:#D2007B;}
	.st15{fill:#DE9A5E;}
	.st16{fill:#98BBE5;}
	.st17{fill:#DF9A60;}
	.st18{fill:#8E98D8;}
	.st19{fill:none;stroke:#00046D;stroke-width:2.8657;stroke-miterlimit:10;}
	.st20{fill:#DE9A60;}
	.st21{fill:#DF9A5F;}
</style>
<path class="st0" d="M357,269.5c-12.8-34.2-28.8-103.2,24.9-149.7c9.1-7.9,17.3-16.5,25-25.7c27.4-32.7,109.3-102,277.1-34.6
	c0,0,103.9,80.2,195.7,23.9c0,0,73.7-66.1,109,61.5c0,0,11.5,86,43,142.4c1.9,3.4,4.1,6.6,6.5,9.6c9.8,12.1,40.7,58.4-0.8,118.2
	c-16.1,23.2-22.1,52.1-15.1,79.5c3.2,12.4,8.6,25.8,17.7,39.2c0,0,86.1,142.1-44.7,194.7c-31.6,12.7-66.6,13.8-99.1,3.9
	c-47.6-14.4-134.8-32.8-195.7,0.7c-11.2,6.2-23.1,11.1-35.4,14.4c-49.2,13-159.7,33.2-188.4-37.9c-4.9-12-6.3-25.1-5-38.1
	c2.1-20.9-1.3-71.7-84.6-75c0,0-154.6-20-96.8-193.2c6.1-18.1,16.6-34.5,30.5-47.6c8.8-8.2,20.1-21.2,32-40.7
	C361.1,301.4,362.7,284.6,357,269.5z"/>
<path class="st1" d="M530.8,402.8l35.7-263.2c0,0,14.3-62,79-33.4l199.9,76.6l16.6,6.7l-70.8,488.9c-2.1,14.3-12,26.4-25.7,31
	c-12.7,4.2-30.6,5.5-53.4-4.1L526,640.4c0,0-34.8-10.7-22.5-67.1L530.8,402.8z"/>
<polygon class="st2" points="927.6,314.1 1014.5,338.7 1003.7,419.5 915.5,395.7 "/>
<polygon class="st2" points="865.5,134.9 952.1,159.4 939.1,244.1 851.8,219.3 "/>
<polygon class="st2" points="508.1,198.2 521.7,112.9 438.1,91.4 425.2,174.5 "/>
<path class="st3" d="M541.5,592l56.8-432.7c0,0,8.1-38.2,33.4-27.2l179.6,65c0,0,28.7,4.6,17.7,48.1l-52.5,417.6
	c0,0-8.1,41.1-44.9,22.4l-175.3-63C556.3,622,539.1,610.2,541.5,592z"/>
<path class="st4" d="M539.6,594.8l56.8-424.1c0,0,8.1-38.2,33.4-27.2l171.7,62.2c2.5,0.9,5,1.6,7.6,2.3c6.8,1.7,22.1,10.5,15.1,47.6
	l-52.5,409c0,0-8.1,41.1-44.9,22.4l-172.4-62.1C554.4,624.9,537.2,613,539.6,594.8z"/>
<polygon class="st5" points="613.6,175 804.7,244.1 748.6,653.2 559.5,585.7 "/>
<g>
	<ellipse class="st3" cx="681.6" cy="184.7" rx="3.9" ry="4.8"/>
	<path class="st3" d="M694.2,192.2c0,0-3.7-5.1,2.9-6.4l41,15.7c0,0,4.5,6.8-4.8,5.8L694.2,192.2z"/>
</g>
<ellipse class="st5" cx="645.5" cy="638.4" rx="10.8" ry="12.9"/>
<polygon class="st0" points="705.8,335 842.4,384.2 829.5,492.1 692.9,442.5 "/>
<polygon class="st0" points="519.5,413.6 672.9,467.8 658.5,591.5 502.8,536.6 "/>
<polygon class="st2" points="512.1,533.5 654.1,584.5 624.1,513.5 587.2,549 561.7,474.3 "/>
<ellipse transform="matrix(0.8385 0.5448 -0.5448 0.8385 368.3848 -276.9658)" class="st6" cx="651.5" cy="483.1" rx="15.7" ry="14"/>
<g>
	<g>
		<path class="st3" d="M771.6,382.5c-17-4.9-33.4,6.8-36.5,26.1c-3.1,19.3,8.3,39.1,25.3,44c17,4.9,33.4-6.8,36.5-26.1
			C800,407.1,788.7,387.4,771.6,382.5z M778.1,422.3l-20.1,7.9c-0.2,0.1-0.5,0.1-0.7,0c-0.2-0.1-0.4-0.2-0.6-0.4
			c-0.4-0.4-0.6-0.9-0.5-1.5l4.2-26.3c0.1-0.5,0.4-1,0.9-1.1c0.4-0.1,1,0,1.3,0.4l15.9,18.4c0.3,0.4,0.5,0.9,0.4,1.4
			S778.5,422.2,778.1,422.3z"/>
	</g>
</g>
<polygon class="st0" points="517.6,286.3 539.6,266.2 679.1,316.4 688.1,248.5 530.1,189.5 "/>
<ellipse class="st5" cx="550.1" cy="230.2" rx="20.2" ry="26.6"/>
<polygon class="st3" points="577,224.4 674.5,259.1 674.5,266.1 577,232 "/>
<polygon class="st3" points="575.1,238 672.5,272.7 672.5,279.8 575.1,245.7 "/>
<polygon class="st3" points="573.2,252.9 654.4,281.9 654.4,288.9 573.2,260.6 "/>
<g>
	<g>
		<g>
			<path class="st6" d="M552.9,212.5c-4.7-1-9.1,2.2-9.8,7c-0.7,4.8,2.6,9.6,7.3,10.5c4.7,1,9.1-2.2,9.8-7
				C560.9,218.3,557.6,213.5,552.9,212.5z"/>
		</g>
	</g>
	<g>
		<g>
			<path class="st6" d="M564.1,240.1c-0.1-0.6-0.4-1.2-0.6-1.8c-1.4-3-3.8-5.2-6.7-6.3c-0.4-0.1-0.8-0.1-1.1,0
				c-1.7,0.9-3.7,1.1-5.7,0.7s-3.7-1.4-5.1-2.9c-0.3-0.3-0.7-0.5-1-0.5c-3.1-0.2-6,1-8.1,3.2c-0.4,0.4-0.8,0.9-1.1,1.4
				c-0.1,0.2-0.1,0.5-0.1,0.7c0.2,0.6,0.5,1.2,0.8,1.7c0.4,0.8,0.9,1.6,1.4,2.3c0.4,0.6,1,1.3,1.5,1.9c2.6,2.9,6,4.8,9.7,5.6
				c3.7,0.8,7.4,0.3,10.7-1.3c0.7-0.3,1.3-0.7,1.9-1.2c0.7-0.5,1.4-1,2-1.6c0.4-0.4,0.9-0.8,1.2-1.3
				C564.1,240.6,564.2,240.4,564.1,240.1z"/>
		</g>
	</g>
</g>
<g>
	<g>
		<path class="st7" d="M885.2,219.1h-3.4c-1.1,0-2.1-0.9-2.2-2l-0.4-2.8c-0.7-0.2-1.4-0.5-2.1-0.9l-2.3,1.8c-0.9,0.7-2.2,0.6-3-0.2
			l-2.4-2.4c-0.8-0.8-0.9-2.1-0.2-3l1.8-2.3c-0.3-0.7-0.6-1.4-0.9-2.1l-2.8-0.4c-1.1-0.1-2-1.1-2-2.2v-3.4c0-1.1,0.9-2.1,2-2.2
			l2.8-0.4c0.2-0.7,0.5-1.4,0.9-2.1l-1.8-2.3c-0.7-0.9-0.6-2.2,0.2-3l2.4-2.4c0.8-0.8,2.1-0.9,3-0.2l2.3,1.8
			c0.7-0.3,1.4-0.6,2.1-0.9l0.4-2.8c0.1-1.1,1.1-2,2.2-2h3.4c1.1,0,2.1,0.9,2.2,2l0.4,2.8c0.7,0.2,1.4,0.5,2.1,0.9l2.3-1.8
			c0.9-0.7,2.2-0.6,3,0.2l2.4,2.4c0.8,0.8,0.9,2.1,0.2,3l-1.8,2.3c0.3,0.7,0.6,1.4,0.9,2.1l2.8,0.4c1.1,0.1,2,1.1,2,2.2v3.4
			c0,1.1-0.9,2.1-2,2.2l-2.8,0.4c-0.2,0.7-0.5,1.4-0.9,2.1l1.8,2.3c0.7,0.9,0.6,2.2-0.2,3l-2.4,2.4c-0.8,0.8-2.1,0.9-3,0.2l-2.3-1.8
			c-0.7,0.3-1.4,0.6-2.1,0.9l-0.4,2.8C887.4,218.2,886.4,219.1,885.2,219.1L885.2,219.1z M877.1,211.7c0.1,0,0.3,0,0.4,0.1
			c0.8,0.5,1.7,0.8,2.7,1.1c0.3,0.1,0.5,0.3,0.5,0.6l0.4,3.3c0,0.4,0.4,0.7,0.7,0.7h3.4c0.4,0,0.7-0.3,0.7-0.7l0.4-3.3
			c0-0.3,0.3-0.5,0.5-0.6c0.9-0.3,1.8-0.6,2.7-1.1c0.3-0.1,0.6-0.1,0.8,0.1l2.6,2.1c0.3,0.2,0.7,0.2,1-0.1l2.4-2.4
			c0.3-0.3,0.3-0.7,0.1-1l-2.1-2.6c-0.2-0.2-0.2-0.6-0.1-0.8c0.5-0.8,0.8-1.7,1.1-2.7c0.1-0.3,0.3-0.5,0.6-0.5l3.3-0.4
			c0.4,0,0.7-0.4,0.7-0.7v-3.4c0-0.4-0.3-0.7-0.7-0.7l-3.3-0.4c-0.3,0-0.5-0.3-0.6-0.5c-0.3-0.9-0.6-1.8-1.1-2.7
			c-0.1-0.3-0.1-0.6,0.1-0.8l2.1-2.6c0.2-0.3,0.2-0.7,0-1l-2.4-2.4c-0.3-0.3-0.7-0.3-1-0.1l-2.6,2.1c-0.2,0.2-0.6,0.2-0.8,0.1
			c-0.8-0.5-1.7-0.8-2.7-1.1c-0.3-0.1-0.5-0.3-0.5-0.6l-0.4-3.3c0-0.4-0.4-0.7-0.7-0.7h-3.4c-0.4,0-0.7,0.3-0.7,0.7l-0.4,3.3
			c0,0.3-0.3,0.5-0.5,0.6c-0.9,0.3-1.8,0.6-2.7,1.1c-0.3,0.1-0.6,0.1-0.8-0.1L874,188c-0.3-0.2-0.7-0.2-1,0l-2.4,2.4
			c-0.3,0.3-0.3,0.7-0.1,1l2.1,2.6c0.2,0.2,0.2,0.6,0.1,0.8c-0.5,0.8-0.8,1.7-1.1,2.7c-0.1,0.3-0.3,0.5-0.6,0.5l-3.3,0.4
			c-0.4,0-0.7,0.4-0.7,0.7v3.4c0,0.4,0.3,0.7,0.7,0.7l3.3,0.4c0.3,0,0.5,0.3,0.6,0.5c0.3,0.9,0.6,1.8,1.1,2.7
			c0.1,0.3,0.1,0.6-0.1,0.8l-2.1,2.6c-0.2,0.3-0.2,0.7,0,1l2.4,2.4c0.3,0.3,0.7,0.3,1,0.1l2.6-2.1
			C876.8,211.8,877,211.7,877.1,211.7L877.1,211.7z"/>
	</g>
	<g>
		<path class="st7" d="M883.6,208.5c-4.2,0-7.5-3.4-7.5-7.5c0-4.2,3.4-7.5,7.5-7.5c4.2,0,7.5,3.4,7.5,7.5
			C891.1,205.1,887.7,208.5,883.6,208.5z M883.6,194.9c-3.3,0-6,2.7-6,6c0,3.3,2.7,6,6,6c3.3,0,6-2.7,6-6
			C889.6,197.6,886.9,194.9,883.6,194.9z"/>
	</g>
</g>
<g>
	<g>
		<path class="st8" d="M907,187.9h-2.5c-0.9,0-1.6-0.6-1.7-1.5l-0.3-2.1c-0.5-0.2-1.1-0.4-1.6-0.6l-1.7,1.3
			c-0.7,0.5-1.7,0.5-2.2-0.1l-1.8-1.8c-0.6-0.6-0.7-1.6-0.1-2.2l1.3-1.7c-0.3-0.5-0.5-1-0.6-1.6l-2.1-0.3c-0.8-0.1-1.5-0.8-1.5-1.7
			V173c0-0.9,0.6-1.6,1.5-1.7l2.1-0.3c0.2-0.5,0.4-1.1,0.6-1.6l-1.3-1.7c-0.5-0.7-0.5-1.7,0.1-2.3l1.8-1.8c0.6-0.6,1.6-0.7,2.2-0.1
			l1.7,1.3c0.5-0.3,1-0.5,1.6-0.6l0.3-2.1c0.1-0.9,0.8-1.5,1.7-1.5h2.5c0.9,0,1.6,0.6,1.7,1.5l0.3,2.1c0.5,0.2,1.1,0.4,1.6,0.6
			l1.7-1.3c0.7-0.5,1.7-0.5,2.2,0.1l1.8,1.8c0.6,0.6,0.7,1.6,0.1,2.2l-1.3,1.7c0.3,0.5,0.5,1,0.6,1.6l2.1,0.3
			c0.8,0.1,1.5,0.8,1.5,1.7v2.5c0,0.9-0.6,1.6-1.5,1.7l-2.1,0.3c-0.2,0.5-0.4,1.1-0.6,1.6l1.3,1.7c0.5,0.7,0.5,1.7-0.1,2.2l-1.8,1.8
			c-0.6,0.6-1.6,0.7-2.2,0.1l-1.7-1.3c-0.5,0.3-1,0.5-1.6,0.6l-0.3,2.1C908.6,187.2,907.8,187.9,907,187.9L907,187.9z M900.9,182.4
			c0.1,0,0.2,0,0.3,0.1c0.6,0.3,1.3,0.6,2,0.8c0.2,0.1,0.4,0.2,0.4,0.5l0.3,2.5c0,0.3,0.3,0.5,0.6,0.5h2.5c0.3,0,0.5-0.2,0.6-0.5
			l0.3-2.5c0-0.2,0.2-0.4,0.4-0.5c0.7-0.2,1.4-0.5,2-0.8c0.2-0.1,0.4-0.1,0.6,0l2,1.5c0.2,0.2,0.5,0.2,0.7,0l1.8-1.8
			c0.2-0.2,0.2-0.5,0-0.7l-1.5-2c-0.1-0.2-0.2-0.4,0-0.6c0.3-0.6,0.6-1.3,0.8-2c0.1-0.2,0.2-0.4,0.5-0.4l2.5-0.3
			c0.3,0,0.5-0.3,0.5-0.6V173c0-0.3-0.2-0.5-0.5-0.6l-2.5-0.3c-0.2,0-0.4-0.2-0.5-0.4c-0.2-0.7-0.5-1.4-0.8-2
			c-0.1-0.2-0.1-0.4,0-0.6l1.5-2c0.2-0.2,0.2-0.5,0-0.7l-1.8-1.8c-0.2-0.2-0.5-0.2-0.7,0l-2,1.5c-0.2,0.1-0.4,0.2-0.6,0
			c-0.6-0.3-1.3-0.6-2-0.8c-0.2-0.1-0.4-0.2-0.4-0.5l-0.3-2.5c0-0.3-0.3-0.5-0.6-0.5h-2.5c-0.3,0-0.5,0.2-0.6,0.5l-0.3,2.5
			c0,0.2-0.2,0.4-0.4,0.5c-0.7,0.2-1.4,0.5-2,0.8c-0.2,0.1-0.4,0.1-0.6,0l-2-1.5c-0.2-0.2-0.5-0.2-0.7,0l-1.8,1.8
			c-0.2,0.2-0.2,0.5,0,0.7l1.5,2c0.1,0.2,0.2,0.4,0,0.6c-0.4,0.6-0.6,1.3-0.8,2c-0.1,0.2-0.2,0.4-0.5,0.4l-2.5,0.3
			c-0.3,0-0.5,0.3-0.5,0.6v2.5c0,0.3,0.2,0.5,0.5,0.6l2.5,0.3c0.2,0,0.4,0.2,0.5,0.4c0.2,0.7,0.5,1.4,0.8,2c0.1,0.2,0.1,0.4,0,0.6
			l-1.5,2c-0.2,0.2-0.2,0.5,0,0.7l1.8,1.8c0.2,0.2,0.5,0.2,0.7,0l2-1.5C900.6,182.4,900.8,182.4,900.9,182.4L900.9,182.4z"/>
	</g>
	<g>
		<path class="st8" d="M905.7,179.9c-3.1,0-5.7-2.5-5.7-5.7s2.5-5.7,5.7-5.7s5.7,2.5,5.7,5.7S908.8,179.9,905.7,179.9z M905.7,169.7
			c-2.5,0-4.5,2-4.5,4.5c0,2.5,2,4.5,4.5,4.5c2.5,0,4.5-2,4.5-4.5C910.3,171.8,908.2,169.7,905.7,169.7z"/>
	</g>
</g>
<g>
	<g>
		<path class="st9" d="M922.1,219.1h-2.9c-1,0-1.8-0.7-1.9-1.7l-0.3-2.5c-0.6-0.2-1.2-0.5-1.8-0.7l-2,1.5c-0.8,0.6-1.9,0.5-2.6-0.2
			l-2.1-2.1c-0.7-0.7-0.8-1.8-0.2-2.6l1.5-2c-0.3-0.6-0.5-1.2-0.7-1.8l-2.5-0.3c-1-0.1-1.7-1-1.7-1.9v-2.9c0-1,0.7-1.8,1.7-1.9
			l2.5-0.3c0.2-0.6,0.5-1.2,0.7-1.8l-1.5-2c-0.6-0.8-0.5-1.9,0.2-2.6l2.1-2.1c0.7-0.7,1.8-0.8,2.6-0.2l2,1.5
			c0.6-0.3,1.2-0.5,1.8-0.7l0.3-2.5c0.1-1,1-1.7,1.9-1.7h2.9c1,0,1.8,0.7,1.9,1.7l0.3,2.5c0.6,0.2,1.2,0.5,1.8,0.7l2-1.5
			c0.8-0.6,1.9-0.5,2.6,0.2l2.1,2.1c0.7,0.7,0.8,1.8,0.2,2.6l-1.5,2c0.3,0.6,0.5,1.2,0.7,1.8l2.5,0.3c1,0.1,1.7,1,1.7,1.9v2.9
			c0,1-0.7,1.8-1.7,1.9l-2.5,0.3c-0.2,0.6-0.5,1.2-0.7,1.8l1.5,2c0.6,0.8,0.5,1.9-0.2,2.6l-2.1,2.1c-0.7,0.7-1.8,0.8-2.6,0.2l-2-1.5
			c-0.6,0.3-1.2,0.5-1.8,0.7l-0.3,2.5C923.9,218.3,923.1,219.1,922.1,219.1L922.1,219.1z M915,212.7c0.1,0,0.2,0,0.3,0.1
			c0.7,0.4,1.5,0.7,2.3,1c0.3,0.1,0.4,0.3,0.5,0.5l0.4,2.9c0,0.3,0.3,0.6,0.6,0.6h2.9c0.3,0,0.6-0.3,0.6-0.6l0.4-2.9
			c0-0.3,0.2-0.5,0.5-0.5c0.8-0.2,1.6-0.6,2.3-1c0.2-0.1,0.5-0.1,0.7,0.1l2.3,1.8c0.3,0.2,0.6,0.2,0.9,0l2.1-2.1
			c0.2-0.2,0.3-0.6,0.1-0.9l-1.8-2.3c-0.2-0.2-0.2-0.5-0.1-0.7c0.4-0.7,0.7-1.5,1-2.3c0.1-0.3,0.3-0.4,0.5-0.5l2.9-0.4
			c0.3,0,0.6-0.3,0.6-0.6v-2.9c0-0.3-0.3-0.6-0.6-0.6l-2.9-0.4c-0.3,0-0.5-0.2-0.5-0.5c-0.2-0.8-0.6-1.6-1-2.3
			c-0.1-0.2-0.1-0.5,0.1-0.7l1.8-2.3c0.2-0.3,0.2-0.6,0-0.9l-2.1-2.1c-0.2-0.2-0.6-0.3-0.9-0.1l-2.3,1.8c-0.2,0.2-0.5,0.2-0.7,0.1
			c-0.7-0.4-1.5-0.7-2.3-1c-0.3-0.1-0.4-0.3-0.5-0.5l-0.4-2.9c0-0.3-0.3-0.6-0.6-0.6h-2.9c-0.3,0-0.6,0.3-0.6,0.6l-0.4,2.9
			c0,0.3-0.2,0.5-0.5,0.5c-0.8,0.2-1.6,0.6-2.3,1c-0.2,0.1-0.5,0.1-0.7-0.1l-2.3-1.8c-0.3-0.2-0.6-0.2-0.9,0l-2.1,2.1
			c-0.2,0.2-0.3,0.6-0.1,0.9l1.8,2.3c0.2,0.2,0.2,0.5,0.1,0.7c-0.4,0.7-0.7,1.5-1,2.3c-0.1,0.3-0.3,0.4-0.5,0.5l-2.9,0.4
			c-0.3,0-0.6,0.3-0.6,0.6v2.9c0,0.3,0.3,0.6,0.6,0.6l2.9,0.4c0.3,0,0.5,0.2,0.5,0.5c0.2,0.8,0.6,1.6,1,2.3c0.1,0.2,0.1,0.5-0.1,0.7
			l-1.8,2.3c-0.2,0.3-0.2,0.6,0,0.9l2.1,2.1c0.2,0.2,0.6,0.3,0.9,0.1l2.3-1.8C914.8,212.8,914.9,212.7,915,212.7L915,212.7z"/>
	</g>
	<g>
		<path class="st9" d="M920.6,209.9c-3.6,0-6.5-2.9-6.5-6.5c0-3.6,2.9-6.5,6.5-6.5c3.6,0,6.5,2.9,6.5,6.5
			C927.2,207,924.2,209.9,920.6,209.9z M920.6,198.1c-2.9,0-5.2,2.3-5.2,5.2s2.3,5.2,5.2,5.2c2.9,0,5.2-2.3,5.2-5.2
			S923.5,198.1,920.6,198.1z"/>
	</g>
</g>
<path class="st4" d="M501.7,143.5l-20.9-22.6c-2.1-2.3-5.6-3.1-8.3-1.8l-26.3,12.4l-4.7,30.4c-0.5,3.3,2,6.6,5.6,7.4l42.4,9.2
	c3.6,0.8,6.9-1.3,7.4-4.6L501.7,143.5z"/>
<path class="st3" d="M452.3,170.5l-5.1-1.1c-3.6-0.8-6.1-4.1-5.6-7.4l4.7-30.4l5.1,1.1l-4.7,30.4
	C446.2,166.4,448.7,169.7,452.3,170.5z"/>
<path class="st3" d="M501.7,143.5l-7.1,3.4l-19.2,9.1c-2.7,1.3-6.1,0.5-8.3-1.8l-15.2-16.5l-5.7-6.1l26.3-12.4
	c2.7-1.3,6.1-0.5,8.3,1.8L501.7,143.5z"/>
<g>
	<path class="st10" d="M496.2,136.6l-1.6,10.3l-19.2,9.1c-2.7,1.3-6.1,0.5-8.3-1.8l-15.2-16.5l2.6-16.8c0.3-2,2.4-3.3,4.6-2.8
		l27.6,6L496.2,136.6z"/>
	<g>
		<path class="st11" d="M495.3,142.5l-0.7,4.4l-19.2,9.1c-2.7,1.3-6.1,0.5-8.3-1.8l-15.2-16.5l0.7-4.4l15.2,16.5
			c2.1,2.3,5.6,3.1,8.3,1.8L495.3,142.5z"/>
		<path class="st11" d="M496.2,136.6l-7.1-1.5c-2.2-0.5-3.7-2.5-3.4-4.6l1-6.5"/>
	</g>
</g>
<path class="st6" d="M476.4,130.5l-1.5,0.9l-1.1-1.5c-1.2-1.6-3.4-2.1-5-1.1s-1.9,3-0.7,4.6l5.4,7.2l7.2-4.4c1.6-1,1.9-3,0.7-4.6
	C480.2,130,478,129.5,476.4,130.5z"/>
<g>
	<path class="st6" d="M951.5,381.8c-1.5,0.4-4.4,0.4-7.8-0.4c-8-1.8-12.9-8.3-10.8-17.6c2-8.9,9.4-13.6,18.3-11.6
		c3.5,0.8,5.6,2.1,6.5,2.8l-1.6,2.8c-1.2-1-3.1-1.9-5.5-2.5c-6.7-1.5-12.1,1.7-13.8,9.2c-1.6,7,1.4,12.4,8.3,13.9
		c2.2,0.5,4.6,0.6,6.3,0.2L951.5,381.8z"/>
	<path class="st6" d="M956.4,379.1c1.4,1.4,3.6,2.8,6.2,3.4c3.8,0.9,6.4-0.6,7.1-3.5c0.6-2.7-0.6-4.5-4.1-6.9
		c-4.3-2.7-6.6-5.8-5.7-9.8c1-4.4,5.4-6.9,11-5.6c2.9,0.7,4.9,1.8,6,2.8l-1.7,2.8c-0.8-0.7-2.5-2-5.1-2.6c-3.9-0.9-5.9,1.1-6.3,3.1
		c-0.6,2.7,0.8,4.4,4.4,6.8c4.4,3,6.3,5.8,5.4,10c-1,4.4-5.1,7.5-11.8,5.9c-2.7-0.6-5.6-2.1-6.9-3.5L956.4,379.1z"/>
	<path class="st6" d="M977.2,383.9c1.4,1.4,3.6,2.8,6.2,3.4c3.8,0.9,6.4-0.6,7.1-3.5c0.6-2.7-0.6-4.5-4.1-6.9
		c-4.3-2.7-6.6-5.8-5.7-9.8c1-4.4,5.4-6.9,11-5.6c2.9,0.7,4.9,1.8,6,2.8l-1.7,2.8c-0.8-0.7-2.5-2-5.1-2.6c-3.9-0.9-5.9,1.1-6.3,3.1
		c-0.6,2.7,0.8,4.4,4.4,6.8c4.4,3,6.3,5.8,5.4,10c-1,4.4-5.1,7.5-11.8,5.9c-2.7-0.6-5.6-2.1-6.9-3.5L977.2,383.9z"/>
</g>
<path class="st12" d="M389.8,554.9c0,0,0-16.6,6.7-30.9l-10.2-3.2l-8.6,20.4l3.5,13.7H389.8z"/>
<path class="st3" d="M391.7,575.5c0.9-5.8-1.4-24.9-1.4-24.9c-11.9,3-9.4-13.2-9.4-13.2c-13.4,0.3-10.7,10.7-10.7,10.7
	c10.6,24,15.3,26.6,17.1,28.2C390.1,578.8,391.6,576.2,391.7,575.5z"/>
<path class="st12" d="M381.2,482.4c0,0-12.9,8.8-21.9,6.7l-3.6,11.6l2.2,4.3h7.5l2.9-1.4l16.6-11.1L381.2,482.4z"/>
<path class="st3" d="M368.3,503.6c-2.4-1.1-8.4-1.1-8.4-1.1s-3.7-4,1.3-13.4l-1.6-2.1h-6.5c-1.5,0-2.8,1.2-2.8,2.8v30.6
	c0,3.8,1,7.5,2.9,10.7c2.4,4,5.9,7.3,8.7-0.1C361.9,531,364.6,513.9,368.3,503.6z"/>
<path class="st6" d="M378.8,480l3.3,16.6l12.6-2.7l-10.3,28.7l15.4,4.3l20.1-41.1c0,0,17.4-2.1,17.7-15.9l-3.7-58.3l3.7-11.8
	l-29.4-16.6l-1.8,5.6l-1.9,80.4L378.8,480z"/>
<polygon class="st13" points="417.8,488.9 397.1,495 396.5,492 418.3,487 "/>
<polygon class="st13" points="407.4,437.4 413.7,464.6 406.2,470 410.6,464.9 "/>
<polygon class="st13" points="425.3,463.6 415.9,463.6 415.9,462.2 "/>
<polygon class="st14" points="433.6,411.9 424.7,409.2 425.3,407.9 "/>
<polygon class="st3" points="425.6,409.2 402.8,385.5 390.9,394.1 380.6,409.2 405.4,437.4 "/>
<path class="st15" d="M398.9,406.3l-1.1,7.3c0,0,1.6,1.3,2,4.1c0,0,1.1,9-1,11.5c0,0-3,3.7-2.6-1.2h-3c0,0-2.6,5.3-6-6.1
	c0,0-0.5-5.5,3-7.4l0.4-6l-0.2-3.7L398.9,406.3z"/>
<path class="st2" d="M400.6,407.9l-12.7-2l8.4-43.1c0,0,4.8-33.3,4.3-38.1c0,0,8.5-21,24.4-8l17.1-8.8l12.7-3l35.9-21.9l5.6,11.6
	l-48.6,31.5c0,0,8.6,13.4-7.9,73.1l-1.7-0.3l-28.9-16.5c0,0,5.7-10,3.5-22.1l-1.6-0.1l-6.3,27.9L400.6,407.9z"/>
<path class="st16" d="M422.5,323.7c0,0,1.9,24-9.1,34.1C413.4,357.8,421.5,346.5,422.5,323.7z"/>
<path class="st16" d="M414.2,368.7c0,0,5.5,0.5,9.2-6.4L414.2,368.7z"/>
<path class="st16" d="M442.5,316.4l2.1-1.4c0,0-0.3,7.3,1.9,8.8C446.5,323.7,444.4,320.4,442.5,316.4z"/>
<polygon class="st16" points="466.4,306.2 460.8,302.7 462.3,301.4 "/>
<path d="M445.3,277.2c0,0,2.1-14-13.2-14.8c0,0-28.7-1.1-31.5,62.6c0,0,12.3-13,21-4.4c0,0,7.8-3,15.9-4.9c0,0,8.8-2.2,2.4-10.7
	l-4.4-18.3L445.3,277.2z"/>
<path class="st17" d="M446.2,278.3c-0.4-1.2-1.7-1.7-2.8-1.1c-4.7,2.5-16,9.8-9.2,19.6l2.8,4.3c0.5,0.7,1.1,1.4,1.8,1.8
	c2,1.2,5.9,2.4,8.4-3.6C447.3,299.2,449.3,286.5,446.2,278.3z"/>
<path class="st2" d="M967.8,691.8c0,0-9.3-12.7-16.7-34.5c0,0-8.8-26.3-20.1-33.4c-1.4,0-12.9,6.2-12.9,6.2l23.4,45.1l14.2,27.5
	L967.8,691.8z"/>
<path class="st17" d="M489.5,283.8l20.7-10.5l11.3-14.3c0,0-0.3-1.3,8-4.6c0,0,1.9-1,0,1.3l-4.1,4.5c0,0,5.2-0.8,5,1.6
	c0,0,2,11-1.8,11.5c0,0-4.1,1.1-8.1-0.5l-4.1,5.4l-2.5,1.8l-19.6,14L489.5,283.8z"/>
<path class="st3" d="M955.1,699.2c0,0,7.9,0.9,12.4-9.2l8.1,7.1c0,0,1.9,0.7,0,5.3c0,0-7.7,8.4-9.8,15.3c0,0-6.4,11.5-10.7,5"/>
<polygon class="st2" points="1012.2,646.6 961.3,619.9 940.3,626.6 945.6,632.1 952.2,635.1 1016.2,664.8 "/>
<path class="st3" d="M1044,677.7c0,0,2.4-5-14.6-20.3c0,0-12.2-27-20.5-11.5l6.2,18.4c0,0,15.3,6.4,23.6,14.8
	C1038.7,679.1,1043.5,683.2,1044,677.7z"/>
<polygon class="st18" points="959.2,630.2 955.1,636.5 952.2,635.1 "/>
<path class="st18" d="M934.4,630.2l26.5,52.5c0,0-12.7-40.6-25.3-52.5H934.4z"/>
<polygon class="st5" points="983.8,618.1 856.5,653.7 831.3,563.4 958.9,529.3 "/>
<polyline class="st19" points="940.3,610.9 963.6,574.6 925.4,554.9 "/>
<polyline class="st19" points="891.5,624.4 852.7,605.7 874.8,568.9 "/>
<line class="st19" x1="899.6" y1="619.9" x2="915.5" y2="558.7"/>
<path class="st20" d="M851.7,443.4l-2.4-11.1c0,0-2.7-12.9-2.1-24c0,0-6.8-10.9-7.3-15.3c0,0-2.1,4.1-1,7.2l0.6,8l-2.3,27.1
	l1.7,13.1L851.7,443.4z"/>
<path class="st21" d="M895.9,554.9l-11.3,27.2c0,0,1.3,24.8-9.9,24c0,0-6,1-5.3-8l-3.5-0.5c0,0-1.1-8.9,8.3-14.8l8.6-30.4
	L895.9,554.9z"/>
<path class="st2" d="M895.9,556.6l-14.4-3c0,0,1.9-3.8-0.5-12.1c0,0-7.6-20.5-4.6-52.3c0,0-40.1-17-38.3-44.4l14.7-2.6l5,11.5
	l29.9,17l1.1,0.8c0,0,3.3,8.2,21.5,5.7c0,0,9.4,4.9,8.8,14.1l0,8h1.8v38.2v4.4L895.9,556.6z"/>
<path class="st16" d="M917.1,501.7l-14.8,39.6v1.1h1.4C903.7,542.4,916.6,515.2,917.1,501.7z"/>
<path class="st16" d="M895,493.7c0,0-7.6,17.4-7.6,40.1C887.3,533.8,884.1,502.5,895,493.7z"/>
<polygon class="st16" points="888.1,471.6 875.5,488.5 873.9,486.7 886.9,470.6 "/>
<path class="st16" d="M849.9,462.4c0,0,5.9,0.6,8.1-6.8C858,455.5,859.3,465.7,849.9,462.4z"/>
<path d="M912.3,476.4h-3.7V468l-8.1-2.3v-12.7l-4.1-11.7v-5.3c0,0-0.9-4.1,5.9-1.4c0,0,12.3,5.4,19.8,16.5c0,0,5,7.2-1.3,17.8
	L912.3,476.4z"/>
<path class="st20" d="M909.7,478.8l0.6-7.6c0,0,7-2.5,6.8-9.9c0,0-2.2-4.3-7.4,1.8l-2.3,2.7c0,0-5.7,1.1-2-3.8l5.2-8.6
	c0,0,2.5-3.6-2.5-7.5l-9.8-5.4c0,0-2.4-1.4-4.9,3.9l-8.8,11.7l-0.7,9.9l7.6,3.1l-1.3,8.2c0,0,8.8,4.9,8.8,4.5
	C899,481.5,909.7,478.8,909.7,478.8z"/>
</svg>
