<?xml version="1.0" encoding="utf-8"?>
<!-- Generator: Adobe Illustrator 13.0.2, SVG Export Plug-In  -->
<!DOCTYPE svg [
	<!ENTITY ns_flows "http://ns.adobe.com/Flows/1.0/">
]>
<svg version="1.2" baseProfile="tiny"
	 xmlns="http://www.w3.org/2000/svg" xmlns:xlink="http://www.w3.org/1999/xlink" xmlns:a="http://ns.adobe.com/AdobeSVGViewerExtensions/3.0/"
	 x="0px" y="0px" width="337px" height="82px" viewBox="0 0 337 82" xml:space="preserve">
<defs>
</defs>
<path fill="#234571" d="M16.737,0c5.755,0,9.592,3.309,9.592,8.151c0,3.453-2.973,6.38-5.803,6.906
	c3.405,0.191,8.105,3.405,8.105,8.632c0,5.947-4.172,9.881-10.839,9.881H4.651V0H16.737z M16.209,14.1
	c4.412,0,7.337-2.35,7.337-5.851s-2.925-5.755-7.337-5.755H7.48v11.604L16.209,14.1L16.209,14.1z M17.648,31.078
	c4.556,0,8.104-2.734,8.104-7.242c0-4.221-3.836-7.29-8.393-7.29H7.48v14.532H17.648z"/>
<path fill="#234571" d="M59.56,24.076H39.514l-4.844,9.495h-3.069L48.77,0.001h1.535l17.169,33.57h-3.069L59.56,24.076z
	 M58.218,21.438L49.873,4.989l-0.336-0.863l-0.335,0.863l-8.345,16.448L58.218,21.438L58.218,21.438z"/>
<path fill="#234571" d="M100.178,0v33.568H97.54L76.678,5.801l-0.671-1.007l0.096,1.391v27.387h-2.83V0.001h2.638l20.91,27.672
	l0.624,1.055l-0.096-1.438V0H100.178z"/>
<path fill="#234571" d="M132.833,24.076h-20.047l-4.844,9.495h-3.069l17.169-33.57h1.535l17.168,33.57h-3.068L132.833,24.076z
	 M131.492,21.438L123.145,4.99l-0.336-0.863l-0.334,0.863l-8.346,16.448H131.492z"/>
<path fill="#234571" d="M173.452,0v33.568h-2.638L149.954,5.8l-0.672-1.007l0.096,1.391v27.387h-2.83V0.001h2.64l20.91,27.672
	l0.623,1.055l-0.097-1.438V0H173.452z"/>
<path fill="#234571" d="M206.105,24.076h-20.047l-4.844,9.495h-3.068l17.168-33.57h1.535l17.17,33.57h-3.067L206.105,24.076z
	 M204.762,21.438L196.416,4.99l-0.336-0.863l-0.336,0.863L187.4,21.438H204.762z"/>
<path fill="#234571" d="M26.376,75.723H10.934l-1.966,4.316H0l15.826-33.57h5.659l15.826,33.57h-8.968L26.376,75.723z
	 M22.972,68.193l-3.837-8.486l-0.479-1.344l-0.479,1.344l-3.837,8.486H22.972z"/>
<path fill="#234571" d="M61.334,56.875c-1.535-1.918-4.412-3.117-7.05-3.117c-5.563,0-9.016,3.98-9.016,9.496
	c0,5.803,3.789,9.398,9.016,9.398c3.213,0,6.283-1.633,7.673-3.934l8.153,2.109c-2.781,5.945-8.776,9.88-15.826,9.88
	c-9.64,0-17.409-7.338-17.409-17.457s7.769-17.457,17.409-17.457c6.618,0,12.277,3.55,15.251,8.92L61.334,56.875z"/>
<path fill="#234571" d="M97.012,56.875c-1.535-1.918-4.412-3.117-7.05-3.117c-5.563,0-9.016,3.98-9.016,9.496
	c0,5.803,3.789,9.398,9.016,9.398c3.213,0,6.283-1.633,7.673-3.934l8.153,2.109c-2.781,5.945-8.776,9.88-15.826,9.88
	c-9.64,0-17.409-7.338-17.409-17.457s7.769-17.457,17.409-17.457c6.618,0,12.277,3.55,15.251,8.92L97.012,56.875z"/>
<path fill="#234571" d="M125.64,45.797c9.642,0,17.457,7.338,17.457,17.457s-7.815,17.457-17.457,17.457
	c-9.64,0-17.409-7.338-17.409-17.457S116,45.797,125.64,45.797z M125.64,72.749c5.467,0,9.064-3.884,9.064-9.495
	c0-5.658-3.598-9.496-9.064-9.496c-5.418,0-9.016,3.838-9.016,9.496C116.623,68.865,120.22,72.749,125.64,72.749z"/>
<path fill="#234571" d="M178.102,46.469v18.655c0,10.069-6.232,15.587-15.104,15.587c-8.922,0-15.106-5.518-15.106-15.587V46.469
	h8.057v18.943c0,4.796,2.637,7.77,7.051,7.77c4.412,0,7.049-2.974,7.049-7.77V46.469H178.102z"/>
<path fill="#234571" d="M214.645,46.469v33.57h-7.58l-13.905-17.938l-0.671-1.248l0.097,1.248v17.938h-8.06v-33.57h7.576
	l13.908,17.696l0.672,1.247l-0.098-1.247V46.469H214.645z"/>
<path fill="#234571" d="M247.204,46.469v7.529h-10.218v26.041h-8.059v-26.04h-10.068v-7.53H247.204L247.204,46.469z"/>
<path fill="#234571" d="M251.418,80.04V46.469h8.061v33.57L251.418,80.04L251.418,80.04z"/>
<path fill="#234571" d="M297.077,46.469v33.57h-7.578L275.59,62.102l-0.67-1.248l0.096,1.248v17.938h-8.057v-33.57h7.576
	l13.908,17.696l0.672,1.247l-0.098-1.247V46.469H297.077z"/>
<path fill="#234571" d="M329.008,77.307c-1.965,2.109-5.317,3.404-9.106,3.404c-9.644,0-17.408-7.338-17.408-17.457
	s7.77-17.457,17.408-17.457c6.52,0,12.229,3.453,15.25,8.92l-8.199,2.158c-1.584-1.918-4.412-3.117-7.051-3.117
	c-5.562,0-9.021,3.98-9.021,9.496c0,5.896,3.98,9.592,9.496,9.592c5.371,0,7.725-2.781,8.684-5.273v-0.051h-8.823v-6.474h15.682
	v18.991h-6.906v-2.732H329.008L329.008,77.307z"/>
</svg>
