<?xml version="1.0" encoding="UTF-8" standalone="no"?>
<svg
   xmlns:dc="http://purl.org/dc/elements/1.1/"
   xmlns:cc="http://creativecommons.org/ns#"
   xmlns:rdf="http://www.w3.org/1999/02/22-rdf-syntax-ns#"
   xmlns:svg="http://www.w3.org/2000/svg"
   xmlns="http://www.w3.org/2000/svg"
   version="1.1"
   id="Слой_1"
   x="0px"
   y="0px"
   viewBox="825 -731.5 2152.0999 1964.6411"
   xml:space="preserve"
   width="2152.0999"
   height="1964.6411"><metadata
   id="metadata577"><rdf:RDF><cc:Work
       rdf:about=""><dc:format>image/svg+xml</dc:format><dc:type
         rdf:resource="http://purl.org/dc/dcmitype/StillImage" /><dc:title></dc:title></cc:Work></rdf:RDF></metadata><defs
   id="defs575" />
<style
   type="text/css"
   id="style2">
	.st0{fill:#EAF4FE;}
	.st1{fill:#FAFAFA;}
	.st2{fill:#9EC8FF;}
	.st3{fill:#006AFF;}
	.st4{fill:#0A0A0A;}
	.st5{fill:#00046D;}
	.st6{fill:#E1E1E1;}
	.st7{fill:#FE2326;}
	.st8{fill:#FFFFFF;}
	.st9{fill:#1A2E35;}
	.st10{fill:#FFBF9D;}
	.st11{fill:#FF9A6C;}
	.st12{fill:#375A64;}
	.st13{fill:#F09959;}
	.st14{opacity:0.6;}
	.st15{fill:#D58E76;}
	.st16{fill:#ECECEC;}
	.st17{opacity:0.2;}
	.st18{fill:#BF654E;}
</style>
<path
   class="st0"
   d="m 1580.7,-507.79999 c 0,0 294.7,312.6 619.3,117.8 324.6,-194.8 448.8,-32.8 482.1,38.8 33.3,71.6 0,238.6 0,238.6 0,0 -30.3,143.100002 154.1,238.6 184.4,95.4 254,634.2 -318.1,835 -572.1,200.79999 -825.5,495.99999 -1354.9,0 -529.4,-496 -274.4,-1223.3 -274.4,-1223.3 0,0 244.1,-493 691.9,-245.5 z"
   id="path4" />
<g
   id="g570"
   transform="translate(-57.7,-238.79999)">
	<g
   id="XMLID_132_">
		<rect
   id="XMLID_133_"
   x="2539.2"
   y="-481.10001"
   class="st1"
   width="495.60001"
   height="443.39999" />
	</g>
	<g
   id="XMLID_140_">
		<path
   id="XMLID_141_"
   class="st2"
   d="m 2729.2,-402.3 c 0,0.7 -26.1,1.3 -58.3,1.3 -32.2,0 -58.3,-0.6 -58.3,-1.3 0,-0.7 26.1,-1.3 58.3,-1.3 32.2,-0.1 58.3,0.5 58.3,1.3 z" />
	</g>
	<g
   id="XMLID_144_">
		<path
   id="XMLID_145_"
   class="st2"
   d="m 2939.2,-369.1 c 0,0.7 -71.7,1.3 -160,1.3 -88.4,0 -160.1,-0.6 -160.1,-1.3 0,-0.7 71.6,-1.3 160.1,-1.3 88.3,0 160,0.6 160,1.3 z" />
	</g>
	<rect
   id="XMLID_1266_"
   x="2613.5"
   y="-312.70001"
   class="st2"
   width="20.9"
   height="20.9" />
	<rect
   id="XMLID_1265_"
   x="2664.8999"
   y="-312.70001"
   class="st2"
   width="20.9"
   height="20.9" />
	<rect
   id="XMLID_1264_"
   x="2717.3"
   y="-313.60001"
   class="st2"
   width="20.9"
   height="20.9" />
	<rect
   id="XMLID_1263_"
   x="2767.7"
   y="-312.70001"
   class="st2"
   width="20.9"
   height="20.9" />
	<rect
   id="XMLID_3842_"
   x="2819.1001"
   y="-312.70001"
   class="st2"
   width="20.9"
   height="20.9" />
	<rect
   id="XMLID_3839_"
   x="2870.5"
   y="-312.70001"
   class="st2"
   width="20.9"
   height="20.9" />
	<rect
   id="XMLID_1262_"
   x="2921.8999"
   y="-312.70001"
   class="st2"
   width="20.9"
   height="20.9" />
	<rect
   id="XMLID_1261_"
   x="2613.5"
   y="-268.29999"
   class="st2"
   width="20.9"
   height="20.9" />
	<rect
   id="XMLID_1260_"
   x="2664.8999"
   y="-268.29999"
   class="st2"
   width="20.9"
   height="20.9" />
	<rect
   id="XMLID_1259_"
   x="2716.3"
   y="-268.29999"
   class="st2"
   width="20.9"
   height="20.9" />
	<rect
   id="XMLID_1258_"
   x="2767.7"
   y="-268.29999"
   class="st2"
   width="20.9"
   height="20.9" />
	<rect
   id="XMLID_1257_"
   x="2819.1001"
   y="-268.29999"
   class="st2"
   width="20.9"
   height="20.9" />
	<rect
   id="XMLID_1256_"
   x="2871.5"
   y="-269.20001"
   class="st2"
   width="20.9"
   height="20.9" />
	<rect
   id="XMLID_1255_"
   x="2921.8999"
   y="-268.29999"
   class="st2"
   width="20.9"
   height="20.9" />
	<rect
   id="XMLID_1254_"
   x="2613.5"
   y="-223.89999"
   class="st2"
   width="20.9"
   height="20.9" />
	<rect
   id="XMLID_3809_"
   x="2665.8999"
   y="-224.8"
   class="st2"
   width="20.9"
   height="20.9" />
	<rect
   id="XMLID_1253_"
   x="2716.3"
   y="-223.89999"
   class="st2"
   width="20.9"
   height="20.9" />
	<rect
   id="XMLID_1252_"
   x="2767.7"
   y="-223.89999"
   class="st2"
   width="20.9"
   height="20.9" />
	<rect
   id="XMLID_3800_"
   x="2819.1001"
   y="-223.89999"
   class="st2"
   width="20.9"
   height="20.9" />
	<rect
   id="XMLID_3797_"
   x="2870.5"
   y="-223.89999"
   class="st2"
   width="20.9"
   height="20.9" />
	<rect
   id="XMLID_1251_"
   x="2921.8999"
   y="-223.89999"
   class="st2"
   width="20.9"
   height="20.9" />
	<rect
   id="XMLID_1250_"
   x="2613.5"
   y="-179.5"
   class="st2"
   width="20.9"
   height="20.9" />
	<rect
   id="XMLID_1249_"
   x="2664.8999"
   y="-179.5"
   class="st2"
   width="20.9"
   height="20.9" />
	<rect
   id="XMLID_1248_"
   x="2716.3"
   y="-179.5"
   class="st2"
   width="20.9"
   height="20.9" />
	<rect
   id="XMLID_3782_"
   x="2768.7"
   y="-180.5"
   class="st2"
   width="20.9"
   height="20.9" />
	<rect
   id="XMLID_1247_"
   x="2819.1001"
   y="-179.5"
   class="st2"
   width="20.9"
   height="20.9" />
	<rect
   id="XMLID_1246_"
   x="2870.5"
   y="-179.5"
   class="st2"
   width="20.9"
   height="20.9" />
	<rect
   id="XMLID_1245_"
   x="2921.8999"
   y="-179.5"
   class="st2"
   width="20.9"
   height="20.9" />
	<rect
   id="XMLID_1244_"
   x="2613.5"
   y="-135.10001"
   class="st2"
   width="20.9"
   height="20.9" />
	<rect
   id="XMLID_1243_"
   x="2664.8999"
   y="-135.10001"
   class="st2"
   width="20.9"
   height="20.9" />
	<rect
   id="XMLID_1242_"
   x="2716.3"
   y="-135.10001"
   class="st2"
   width="20.9"
   height="20.9" />
	<rect
   id="XMLID_1241_"
   x="2767.7"
   y="-135.10001"
   class="st2"
   width="20.9"
   height="20.9" />
	<rect
   id="XMLID_3758_"
   x="2819.1001"
   y="-135.10001"
   class="st2"
   width="20.9"
   height="20.9" />
	<rect
   id="XMLID_1240_"
   x="2871.5"
   y="-136.10001"
   class="st2"
   width="20.9"
   height="20.9" />
	<rect
   id="XMLID_1239_"
   x="2921.8999"
   y="-135.10001"
   class="st2"
   width="20.9"
   height="20.9" />
	<path
   id="XMLID_222_"
   class="st3"
   d="m 2343.3,-441 c 0,0 58.7,0.8 33.6,117 -25.1,116.2 -21.9,138.1 -21.9,184.1 0,53.8 43.4,73.1 43.4,73.1 h -79.6 L 2260.3,-338 v -103 z" />
	<polygon
   id="XMLID_224_"
   class="st3"
   points="1564.3,-312.5 2321,-352.1 2360.6,473.6 1557.1,473.6 " />
	<polygon
   id="XMLID_226_"
   class="st3"
   points="1536.7,-332.8 2316.8,-348.1 2333,453.3 1529.5,453.3 " />
	<g
   id="XMLID_228_">
		<polygon
   id="XMLID_229_"
   class="st1"
   points="1514.5,-354.7 2316.8,-356.6 2316.3,431.3 1514.5,431.3 " />
	</g>
	<path
   id="XMLID_234_"
   class="st3"
   d="m 2316.8,-358.7 c -41.4,-48.2 6.6,-83.9 22.8,-84.7 l -763.5,-0.4 c -39.9,0 -70.3,36 -63.4,75.3 1.1,6 3.1,12 3.1,12" />
	<g
   id="XMLID_245_">
		<path
   id="XMLID_246_"
   class="st4"
   d="m 2255,167.1 c 0,0 -0.9,0.1 -2.5,0.1 -1.7,0 -4.2,0.1 -7.4,0.1 -6.6,0 -16.1,0.1 -28.3,0.2 -24.7,0.1 -60.3,0.2 -104.2,0.3 -88.1,0.1 -209.6,0.2 -343.9,0.3 -52.1,0 -102.2,0 -148.3,0 h -1 v -1 c 0.1,-98.2 0.3,-182.7 0.4,-242.8 0.1,-29.9 0.2,-53.7 0.3,-70.1 0.1,-8.1 0.1,-14.4 0.2,-18.7 0,-2.1 0.1,-3.7 0.1,-4.8 0,-1.1 0.1,-1.6 0.1,-1.6 0,0 0.1,0.6 0.1,1.6 0,1.2 0,2.7 0.1,4.8 0,4.3 0.1,10.6 0.2,18.7 0.1,16.4 0.2,40.2 0.3,70.1 0.1,60 0.2,144.5 0.4,242.8 l -1,-1 c 46.1,0 96.2,0 148.3,0 134.3,0.1 255.8,0.2 343.9,0.3 44,0.1 79.6,0.2 104.2,0.3 12.3,0.1 21.8,0.1 28.3,0.2 3.2,0 5.6,0.1 7.4,0.1 1.5,0 2.3,0.1 2.3,0.1 z" />
	</g>
	<rect
   id="XMLID_3720_"
   x="1672"
   y="83.5"
   class="st3"
   width="64.099998"
   height="64.099998" />
	<rect
   id="XMLID_3718_"
   x="1766"
   y="37.700001"
   class="st3"
   width="64.099998"
   height="109.9" />
	<rect
   id="XMLID_3716_"
   x="1860.3"
   y="-14.4"
   class="st3"
   width="64.099998"
   height="162" />
	<rect
   id="XMLID_3714_"
   x="1951.8"
   y="-72.300003"
   class="st3"
   width="64.099998"
   height="219.89999" />
	<rect
   id="XMLID_3712_"
   x="2045.4"
   y="-146.5"
   class="st3"
   width="64.099998"
   height="294.10001" />
	<rect
   id="XMLID_1238_"
   x="2138.3"
   y="-203.10001"
   class="st3"
   width="64.099998"
   height="347.70001" />
	<g
   id="XMLID_254_">
		<path
   id="XMLID_255_"
   class="st4"
   d="m 1672,17.8 c 0,0 0.3,-0.2 0.8,-0.6 0.6,-0.4 1.5,-1 2.5,-1.7 2.3,-1.5 5.6,-3.7 9.8,-6.5 8.7,-5.7 21.1,-13.9 36.7,-24.2 31.5,-20.6 75.8,-49.6 127.2,-83.1 l 1.5,-1 v 1.8 c 0,9.1 0,18.8 0,28.7 l -1.5,-0.8 c 16.2,-10.9 33,-22.1 50.1,-33.6 69.1,-46.1 131.6,-87.9 176.9,-118.2 22.6,-15 41,-27.2 53.7,-35.6 6.3,-4.1 11.2,-7.3 14.7,-9.6 1.6,-1 2.9,-1.9 3.8,-2.5 0.9,-0.5 1.3,-0.8 1.3,-0.8 0,0 -0.4,0.3 -1.2,0.9 -0.9,0.6 -2.2,1.5 -3.7,2.6 -3.4,2.3 -8.2,5.7 -14.5,9.9 -12.7,8.6 -30.9,20.9 -53.4,36.2 -45.3,30.4 -107.7,72.4 -176.6,118.7 -17.2,11.5 -34,22.7 -50.2,33.6 l -1.5,1 v -1.8 c 0,-9.9 0,-19.6 0,-28.7 l 1.5,0.8 c -51.5,33.3 -96,62.1 -127.6,82.5 -15.8,10.1 -28.3,18.2 -37,23.8 -4.3,2.7 -7.6,4.8 -9.9,6.3 -1.1,0.7 -1.9,1.2 -2.6,1.6 -0.5,0.2 -0.8,0.3 -0.8,0.3 z" />
	</g>
	<g
   id="XMLID_257_">
		<path
   id="XMLID_258_"
   class="st4"
   d="m 2149.6,-242.9 c -0.3,0 -0.5,-3 -0.7,-7.9 -0.2,-4.9 -0.3,-11.7 -0.3,-19.4 l 1,1 c -0.8,0 -1.6,0 -2.4,0 -8.2,0 -15.6,-0.1 -21,-0.3 -5.4,-0.2 -8.7,-0.4 -8.7,-0.7 0,-0.3 3.3,-0.5 8.7,-0.7 5.4,-0.2 12.8,-0.3 21,-0.3 0.8,0 1.7,0 2.4,0 h 1 v 1 c 0,7.6 -0.1,14.5 -0.3,19.4 -0.2,4.9 -0.4,7.9 -0.7,7.9 z" />
	</g>
	<g
   id="XMLID_260_">
		<g
   id="XMLID_261_">
			<path
   id="XMLID_262_"
   class="st4"
   d="m 1810.9,218.8 c 0,0.6 -19.8,1 -44.3,1 -24.4,0 -44.3,-0.4 -44.3,-1 0,-0.6 19.8,-1 44.3,-1 24.4,0 44.3,0.4 44.3,1 z" />
		</g>
	</g>
	<g
   id="XMLID_263_">
		<g
   id="XMLID_264_">
			<ellipse
   id="XMLID_265_"
   class="st4"
   cx="1765.4"
   cy="238.7"
   rx="1"
   ry="10.4" />
		</g>
	</g>
	<g
   id="XMLID_266_">
		<g
   id="XMLID_267_">
			<path
   id="XMLID_268_"
   class="st4"
   d="m 1873.9,259.4 c 0,0.6 -53.2,1 -118.8,1 -65.6,0 -118.8,-0.4 -118.8,-1 0,-0.6 53.2,-1 118.8,-1 65.6,0 118.8,0.5 118.8,1 z" />
		</g>
	</g>
	<g
   id="XMLID_269_">
		<g
   id="XMLID_270_">
			<ellipse
   id="XMLID_271_"
   class="st4"
   cx="1637.8"
   cy="274.60001"
   rx="1"
   ry="14.4" />
		</g>
	</g>
	<g
   id="XMLID_272_">
		<g
   id="XMLID_273_">
			<ellipse
   id="XMLID_274_"
   class="st4"
   cx="1722.4"
   cy="273.39999"
   rx="1"
   ry="12.4" />
		</g>
	</g>
	<g
   id="XMLID_275_">
		<g
   id="XMLID_276_">
			<ellipse
   id="XMLID_277_"
   class="st4"
   cx="1809.3"
   cy="273.79999"
   rx="1"
   ry="13.6" />
		</g>
	</g>
	<g
   id="XMLID_278_">
		<g
   id="XMLID_279_">
			<ellipse
   id="XMLID_280_"
   class="st4"
   cx="1875.4"
   cy="273.39999"
   rx="1"
   ry="14" />
		</g>
	</g>
	<g
   id="XMLID_281_">
		<g
   id="XMLID_282_">
			<path
   id="XMLID_283_"
   class="st4"
   d="m 1667.3,296.9 c 0,0.6 -12.9,1 -28.7,1 -15.9,0 -28.7,-0.4 -28.7,-1 0,-0.6 12.8,-1 28.7,-1 15.9,0 28.7,0.5 28.7,1 z" />
		</g>
	</g>
	<g
   id="XMLID_284_">
		<g
   id="XMLID_285_">
			<ellipse
   id="XMLID_286_"
   class="st4"
   cx="1718.8"
   cy="296.89999"
   rx="21.9"
   ry="1" />
		</g>
	</g>
	<g
   id="XMLID_287_">
		<g
   id="XMLID_288_">
			<ellipse
   id="XMLID_289_"
   class="st4"
   cx="1810.5"
   cy="299.29999"
   rx="23.5"
   ry="1" />
		</g>
	</g>
	<g
   id="XMLID_290_">
		<g
   id="XMLID_291_">
			<ellipse
   id="XMLID_292_"
   class="st4"
   cx="1884.6"
   cy="295.29999"
   rx="25.1"
   ry="1" />
		</g>
	</g>
	<g
   id="XMLID_293_">
		<g
   id="XMLID_294_">
			<g
   id="XMLID_295_">
				<ellipse
   id="XMLID_296_"
   class="st4"
   cx="1638.6"
   cy="316.39999"
   rx="1"
   ry="8.3999996" />
			</g>
		</g>
		<g
   id="XMLID_297_">
			<g
   id="XMLID_298_">
				<path
   id="XMLID_299_"
   class="st4"
   d="m 1693.2,324.8 c 0,0.6 -23.2,1 -51.8,1 -28.6,0 -51.8,-0.4 -51.8,-1 0,-0.6 23.2,-1 51.8,-1 28.6,0 51.8,0.5 51.8,1 z" />
			</g>
		</g>
		<g
   id="XMLID_300_">
			<g
   id="XMLID_301_">
				<ellipse
   id="XMLID_302_"
   class="st4"
   cx="1693.2"
   cy="336.79999"
   rx="1"
   ry="12" />
			</g>
		</g>
		<g
   id="XMLID_303_">
			<g
   id="XMLID_304_">
				<ellipse
   id="XMLID_305_"
   class="st4"
   cx="1589.5"
   cy="337.60001"
   rx="1"
   ry="12.8" />
			</g>
		</g>
	</g>
	<g
   id="XMLID_3641_">
		<g
   id="XMLID_307_">
			<g
   id="XMLID_308_">
				<ellipse
   id="XMLID_309_"
   class="st4"
   cx="1811.4"
   cy="316.39999"
   rx="1"
   ry="8.3999996" />
			</g>
		</g>
		<g
   id="XMLID_310_">
			<g
   id="XMLID_311_">
				<path
   id="XMLID_312_"
   class="st4"
   d="m 1937.4,324.8 c 0,0.6 -39.2,1 -87.5,1 -48.4,0 -87.5,-0.4 -87.5,-1 0,-0.6 39.2,-1 87.5,-1 48.3,0 87.5,0.5 87.5,1 z" />
			</g>
		</g>
		<g
   id="XMLID_313_">
			<g
   id="XMLID_314_">
				<ellipse
   id="XMLID_315_"
   class="st4"
   cx="1866"
   cy="336.79999"
   rx="1"
   ry="12" />
			</g>
		</g>
		<g
   id="XMLID_316_">
			<g
   id="XMLID_317_">
				<ellipse
   id="XMLID_318_"
   class="st4"
   cx="1941"
   cy="336.79999"
   rx="1"
   ry="12" />
			</g>
		</g>
		<g
   id="XMLID_319_">
			<g
   id="XMLID_320_">
				<ellipse
   id="XMLID_321_"
   class="st4"
   cx="1762.3"
   cy="337.60001"
   rx="1"
   ry="12.8" />
			</g>
		</g>
	</g>
	<g
   id="XMLID_306_">
		<g
   id="XMLID_322_">
			<ellipse
   id="XMLID_323_"
   class="st4"
   cx="1589.5"
   cy="365"
   rx="20.4"
   ry="1" />
		</g>
	</g>
	<g
   id="XMLID_324_">
		<g
   id="XMLID_325_">
			<ellipse
   id="XMLID_326_"
   class="st4"
   cx="1689.4"
   cy="362.10001"
   rx="22.1"
   ry="1" />
		</g>
	</g>
	<g
   id="XMLID_327_">
		<g
   id="XMLID_328_">
			<ellipse
   id="XMLID_329_"
   class="st4"
   cx="1765.4"
   cy="362.10001"
   rx="19.4"
   ry="1" />
		</g>
	</g>
	<g
   id="XMLID_330_">
		<g
   id="XMLID_331_">
			<ellipse
   id="XMLID_332_"
   class="st4"
   cx="1862.6"
   cy="362.10001"
   rx="21.1"
   ry="1" />
		</g>
	</g>
	<g
   id="XMLID_333_">
		<g
   id="XMLID_334_">
			<path
   id="XMLID_335_"
   class="st4"
   d="m 1962.8,359.5 c 0,0.6 -9.6,1 -21.4,1 -11.8,0 -21.4,-0.4 -21.4,-1 0,-0.6 9.6,-1 21.4,-1 11.8,0 21.4,0.4 21.4,1 z" />
		</g>
	</g>
	<g
   id="XMLID_337_">
		<path
   id="XMLID_338_"
   class="st5"
   d="M 2254.5,375 H 1983.8 V 207.4 h 270.7 z m -270.6,-0.2 h 270.3 V 207.6 h -270.3 z" />
	</g>
	<g
   id="XMLID_341_">
		<g
   id="XMLID_342_">
			<path
   id="XMLID_343_"
   class="st2"
   d="m 2189.1,328.5 c -18.8,-7.1 -40.3,12.6 -58.7,4.5 -10.7,-4.7 -15.6,-16.8 -20.8,-27.2 -5.2,-10.4 -14.3,-21.4 -25.9,-20.2 -11.7,1.2 -21.2,14.8 -32.5,11.5 -7.1,-2.1 -10.7,-10 -12.5,-17.2 -1.8,-7.2 -3,-15.2 -8.5,-20.2 -5.4,-5.1 -16.8,-3.7 -17.6,3.7 v 88.8 h 211.5 c 0,0 -28.6,-21.2 -35,-23.7 z" />
		</g>
	</g>
	<g
   id="XMLID_344_">
		<g
   id="XMLID_345_">
			<g
   id="XMLID_346_">
				<path
   id="XMLID_347_"
   class="st6"
   d="m 2229.8,352.2 c 0,0.2 -51.3,0.3 -114.5,0.3 -63.3,0 -114.5,-0.2 -114.5,-0.3 0,-0.2 51.3,-0.3 114.5,-0.3 63.2,0 114.5,0.1 114.5,0.3 z" />
			</g>
		</g>
	</g>
	<g
   id="XMLID_348_">
		<g
   id="XMLID_349_">
			<g
   id="XMLID_350_">
				<path
   id="XMLID_351_"
   class="st5"
   d="m 2229.8,313.4 c 0,0.2 -51.3,0.3 -114.5,0.3 -63.3,0 -114.5,-0.2 -114.5,-0.3 0,-0.1 51.3,-0.3 114.5,-0.3 63.2,0 114.5,0.2 114.5,0.3 z" />
			</g>
		</g>
	</g>
	<g
   id="XMLID_352_">
		<g
   id="XMLID_353_">
			<g
   id="XMLID_354_">
				<path
   id="XMLID_355_"
   class="st5"
   d="m 2229.8,274.7 c 0,0.2 -51.3,0.3 -114.5,0.3 -63.3,0 -114.5,-0.2 -114.5,-0.3 0,-0.1 51.3,-0.3 114.5,-0.3 63.2,-0.1 114.5,0.1 114.5,0.3 z" />
			</g>
		</g>
	</g>
	<g
   id="XMLID_356_">
		<g
   id="XMLID_357_">
			<g
   id="XMLID_358_">
				<path
   id="XMLID_359_"
   class="st5"
   d="m 2229.8,237.8 c 0,0.2 -51.3,0.3 -114.5,0.3 -63.3,0 -114.5,-0.2 -114.5,-0.3 0,-0.2 51.3,-0.3 114.5,-0.3 63.2,0 114.5,0.1 114.5,0.3 z" />
			</g>
		</g>
	</g>
	<g
   id="XMLID_361_">
		<g
   id="XMLID_362_">
			<g
   id="XMLID_363_">
				<g
   id="XMLID_364_">
					<path
   id="XMLID_3600_"
   class="st4"
   d="m 1620.4,-299.7 c 0,0 0.1,0 0.4,0 0.3,0 0.6,0 1.1,0 1,0 2.4,0.1 4.2,0.4 1.8,0.4 4,0.9 6.4,2.2 2.3,1.2 4.7,3.2 6.8,5.8 2,2.7 3.7,6 4.5,10 0.7,3.9 0.1,8.3 -1.6,12.5 -0.8,2.1 -1.9,4.2 -3.1,6.2 -1.2,2 -2.5,4 -3.5,6.2 -2.1,4.4 -3.8,9.2 -4.7,14.2 l -0.1,0.3 h -0.3 c -3.2,-0.1 -6.6,-0.2 -10,-0.2 -3.6,-0.1 -7.2,-0.2 -10.5,-0.3 h -0.4 v -0.4 c 0,-5.1 -2.1,-9.9 -4.3,-14.1 -1.1,-2.1 -2.4,-4.1 -3.6,-6.2 -1.1,-2 -2.4,-3.9 -3.3,-6 -1.8,-4.1 -2,-8.6 -1.1,-12.4 0.9,-3.8 2.3,-7.3 4.3,-10 2,-2.7 4.5,-4.5 6.8,-5.7 2.3,-1.2 4.5,-1.8 6.3,-2.2 1.8,-0.4 3.2,-0.5 4.2,-0.5 0.5,0 0.8,0 1.1,0 0.3,0.2 0.4,0.2 0.4,0.2 0,0 -0.1,0 -0.4,0 -0.3,0 -0.6,0 -1.1,0.1 -0.9,0.1 -2.4,0.2 -4.1,0.6 -1.8,0.4 -3.9,1 -6.2,2.2 -2.3,1.2 -4.7,3 -6.6,5.6 -1.9,2.6 -3.3,6 -4.1,9.8 -0.9,3.7 -0.7,8.1 1.1,12 0.9,2 2.1,3.9 3.3,5.9 1.2,2 2.4,4 3.6,6.2 2.3,4.3 4.5,9.1 4.4,14.4 l -0.4,-0.4 c 3.4,0.1 6.9,0.2 10.5,0.3 3.4,0.1 6.8,0.2 10,0.2 l -0.4,0.3 c 0.9,-5.2 2.6,-10 4.8,-14.4 1.1,-2.2 2.3,-4.3 3.6,-6.2 1.2,-2 2.3,-4 3.1,-6 1.6,-4.1 2.2,-8.3 1.6,-12.1 -0.7,-3.8 -2.4,-7.1 -4.3,-9.8 -2,-2.6 -4.3,-4.6 -6.6,-5.8 -2.3,-1.2 -4.5,-1.9 -6.2,-2.3 -1.8,-0.3 -3.2,-0.5 -4.2,-0.5 -0.4,0 -0.8,-0.1 -1.1,-0.1 -0.1,0 -0.3,0 -0.3,0 z" />
				</g>
			</g>
		</g>
		<g
   id="XMLID_365_">
			<g
   id="XMLID_366_">
				<g
   id="XMLID_367_">
					<path
   id="XMLID_3596_"
   class="st4"
   d="m 1623.4,-243.1 c 0,0 0,-0.1 -0.1,-0.3 0,-0.2 -0.1,-0.5 -0.1,-0.9 -0.1,-0.8 -0.2,-2.1 -0.4,-3.6 -0.3,-3.2 -0.8,-7.8 -1,-13.4 0,-1.4 -0.1,-2.9 -0.1,-4.5 0,-1.6 0,-3.2 0.2,-4.9 0.2,-1.7 0.5,-3.4 1.3,-5 0.8,-1.6 2.2,-3.1 4,-3.7 1.8,-0.7 4.1,-0.2 5.5,1.3 0.7,0.7 1.1,1.8 1.1,2.8 0,1 -0.5,2.1 -1.2,2.9 -0.7,0.8 -1.6,1.4 -2.5,1.9 -1,0.4 -2,0.7 -3.1,0.9 -2.1,0.4 -4.3,0.5 -6.4,0.5 -2.2,0 -4.3,-0.2 -6.4,-0.6 -1,-0.2 -2.1,-0.5 -3,-1 -0.9,-0.5 -1.8,-1.1 -2.5,-1.9 -0.7,-0.8 -1.2,-1.7 -1.4,-2.8 -0.2,-1 0,-2.1 0.5,-3 0.5,-0.9 1.2,-1.6 2.2,-2 1,-0.3 2,-0.2 2.9,0.3 0.9,0.4 1.6,1.1 2.1,1.9 0.5,0.8 0.8,1.7 1,2.6 0.3,1.8 0.3,3.5 0.3,5.2 0,3.3 0.1,6.5 0.1,9.3 0.1,5.7 0.1,10.3 0.1,13.5 0,1.6 0,2.8 0,3.7 0,0.4 0,0.7 0,1 0,0.2 0,0.3 0,0.3 0,0 0,-0.1 0,-0.3 0,-0.2 0,-0.5 0,-1 0,-0.9 0,-2.1 -0.1,-3.7 -0.1,-3.2 -0.1,-7.8 -0.2,-13.5 0,-2.8 -0.1,-6 -0.1,-9.3 0,-1.7 0,-3.4 -0.3,-5.1 -0.2,-0.9 -0.5,-1.7 -0.9,-2.5 -0.5,-0.7 -1.2,-1.4 -2,-1.8 -0.8,-0.4 -1.8,-0.5 -2.7,-0.2 -0.9,0.3 -1.6,1 -2,1.8 -0.4,0.8 -0.6,1.8 -0.4,2.8 0.2,1 0.6,1.9 1.3,2.6 1.3,1.6 3.3,2.4 5.3,2.8 2.1,0.4 4.2,0.5 6.4,0.6 2.2,0 4.3,-0.1 6.4,-0.5 1,-0.2 2,-0.4 3,-0.9 0.9,-0.4 1.8,-1 2.4,-1.8 0.6,-0.8 1,-1.7 1.1,-2.7 0.1,-1 -0.3,-1.9 -1,-2.6 -1.3,-1.4 -3.4,-1.9 -5.2,-1.2 -1.7,0.6 -3.1,2 -3.9,3.6 -0.8,1.6 -1.2,3.3 -1.3,4.9 -0.2,1.7 -0.2,3.3 -0.2,4.8 0,1.6 0,3 0.1,4.5 0.2,5.7 0.7,10.3 0.9,13.4 0.2,1.6 0.3,2.8 0.3,3.7 0,0.4 0.1,0.7 0.1,0.9 -0.1,0.1 -0.1,0.2 -0.1,0.2 z" />
				</g>
			</g>
		</g>
		<g
   id="XMLID_368_">
			<g
   id="XMLID_369_">
				<g
   id="XMLID_370_">
					<path
   id="XMLID_3592_"
   class="st4"
   d="m 1610,-243.1 c 0,0 0.1,1.3 0.1,3.4 0,2.5 0.1,5.4 0.1,8.8 l -0.1,-0.2 c 1.9,2.4 4.1,5.2 6.5,8.1 l -0.3,-0.2 c 2.5,0 5.2,-0.1 7.9,-0.1 l -0.3,0.2 c 1.3,-1.5 2.7,-3.1 4.1,-4.6 0.7,-0.8 1.4,-1.6 2.1,-2.3 l -0.1,0.3 c 0.1,-4.6 0.2,-9 0.2,-13 l 0.4,0.4 c -5.8,-0.2 -10.7,-0.3 -14.8,-0.4 -1.6,-0.1 -3,-0.1 -4.3,-0.2 -0.9,-0.2 -1.5,-0.2 -1.5,-0.2 0,0 0.5,-0.1 1.4,-0.1 1.2,0 2.6,0 4.2,0 4.1,0 9.2,0 15,0 h 0.4 v 0.4 c 0,4 -0.1,8.4 -0.1,13 v 0.2 l -0.1,0.1 c -0.7,0.8 -1.4,1.5 -2.1,2.3 -1.4,1.6 -2.8,3.1 -4.1,4.6 l -0.1,0.2 h -0.2 c -2.8,0 -5.4,0 -7.9,0.1 h -0.2 l -0.1,-0.2 c -2.3,-3 -4.5,-5.8 -6.4,-8.3 l -0.1,-0.1 v -0.1 c 0.1,-3.5 0.2,-6.5 0.3,-9 0,-2.1 0,-3.2 0.1,-3.1 z" />
				</g>
			</g>
		</g>
		<g
   id="XMLID_371_">
			<g
   id="XMLID_372_">
				<g
   id="XMLID_373_">
					<path
   id="XMLID_3588_"
   class="st4"
   d="m 1629.9,-230.9 c 0,0 -0.3,-0.1 -0.7,-0.3 -0.5,-0.2 -1.1,-0.6 -2,-0.9 -1.7,-0.7 -4.2,-1.3 -7.1,-1.4 -2.8,0 -5.4,0.6 -7.1,1.2 -0.9,0.3 -1.6,0.6 -2,0.9 -0.5,0.2 -0.7,0.4 -0.7,0.3 0,0 0.2,-0.2 0.7,-0.4 0.5,-0.3 1.1,-0.6 2,-1 1.7,-0.7 4.3,-1.4 7.2,-1.3 2.9,0 5.4,0.7 7.2,1.5 0.9,0.4 1.5,0.7 2,1 0.3,0.2 0.5,0.4 0.5,0.4 z" />
				</g>
			</g>
		</g>
		<g
   id="XMLID_374_">
			<g
   id="XMLID_375_">
				<g
   id="XMLID_376_">
					<path
   id="XMLID_3584_"
   class="st4"
   d="m 1630,-234 c 0,0 -0.3,-0.1 -0.7,-0.3 -0.5,-0.2 -1.1,-0.6 -2,-0.9 -1.7,-0.7 -4.2,-1.3 -7.1,-1.4 -2.8,0 -5.4,0.6 -7.1,1.2 -0.9,0.3 -1.6,0.6 -2,0.9 -0.5,0.2 -0.7,0.4 -0.7,0.3 0,0 0.2,-0.2 0.7,-0.4 0.5,-0.3 1.1,-0.6 2,-1 1.7,-0.7 4.3,-1.4 7.2,-1.3 2.9,0 5.4,0.7 7.2,1.5 0.9,0.4 1.5,0.7 2,1 0.3,0.2 0.5,0.3 0.5,0.4 z" />
				</g>
			</g>
		</g>
		<g
   id="XMLID_377_">
			<g
   id="XMLID_378_">
				<g
   id="XMLID_379_">
					<path
   id="XMLID_3580_"
   class="st4"
   d="m 1630,-237 c 0,0 -0.3,-0.1 -0.7,-0.3 -0.5,-0.2 -1.1,-0.6 -2,-0.9 -1.7,-0.7 -4.2,-1.3 -7.1,-1.4 -2.8,0 -5.4,0.6 -7.1,1.2 -0.9,0.3 -1.6,0.6 -2,0.9 -0.5,0.2 -0.7,0.4 -0.7,0.3 0,0 0.2,-0.2 0.7,-0.4 0.5,-0.3 1.1,-0.6 2,-1 1.7,-0.7 4.3,-1.4 7.2,-1.3 2.9,0 5.4,0.7 7.2,1.5 0.9,0.4 1.5,0.7 2,1 0.2,0.2 0.5,0.3 0.5,0.4 z" />
				</g>
			</g>
		</g>
	</g>
	<g
   id="XMLID_381_">
		<g
   id="XMLID_382_">
			<path
   id="XMLID_383_"
   class="st0"
   d="m 1703.3,-154.4 c 0,0 -7.7,70.8 2.2,109.5 L 1800,-49 c 0,0 -20.3,-69.8 -7.8,-100.8 z" />
		</g>
	</g>
	<g
   id="XMLID_384_">
		<g
   id="XMLID_385_">
			<g
   id="XMLID_386_">
				<path
   id="XMLID_387_"
   class="st7"
   d="m 1703.6,-156.7 c 0,0 0.6,76.4 4.5,99.7 l 95.9,-4.5 c 0,0 -8.4,-75.1 -5.2,-95.2 z" />
			</g>
		</g>
		<g
   id="XMLID_388_">
			<g
   id="XMLID_389_">
				<g
   id="XMLID_390_">
					<path
   id="XMLID_391_"
   class="st8"
   d="m 1784.4,-124.6 c 0,0.4 -14.4,1.5 -32.1,2.6 -17.8,1.1 -32.2,1.6 -32.2,1.3 0,-0.4 14.4,-1.5 32.1,-2.6 17.7,-1.1 32.2,-1.6 32.2,-1.3 z" />
				</g>
			</g>
		</g>
		<g
   id="XMLID_392_">
			<g
   id="XMLID_393_">
				<g
   id="XMLID_394_">
					<path
   id="XMLID_395_"
   class="st8"
   d="m 1784.4,-108.4 c 0,0.4 -14.4,1.5 -32.1,2.6 -17.8,1.1 -32.2,1.6 -32.2,1.3 0,-0.4 14.4,-1.5 32.1,-2.6 17.8,-1.1 32.2,-1.7 32.2,-1.3 z" />
				</g>
			</g>
		</g>
		<g
   id="XMLID_396_">
			<g
   id="XMLID_397_">
				<g
   id="XMLID_398_">
					<path
   id="XMLID_399_"
   class="st8"
   d="m 1768.1,-92.5 c 0,0.2 -2,0.5 -5.3,0.8 -3.3,0.3 -7.9,0.7 -12.9,1 -5.1,0.3 -9.6,0.5 -13,0.6 -3.3,0.1 -5.4,0 -5.4,-0.1 0,-0.2 2,-0.5 5.3,-0.8 3.3,-0.3 7.9,-0.7 12.9,-1 5.1,-0.3 9.6,-0.5 13,-0.6 3.3,-0.1 5.4,-0.1 5.4,0.1 z" />
				</g>
			</g>
		</g>
	</g>
	<g
   id="XMLID_401_">
		<path
   id="XMLID_402_"
   class="st4"
   d="m 1922.2,-280.8 c 0,0.6 -56.1,1 -125.2,1 -69.2,0 -125.2,-0.4 -125.2,-1 0,-0.6 56.1,-1 125.2,-1 69.1,0 125.2,0.5 125.2,1 z" />
	</g>
	<g
   id="XMLID_404_">
		<path
   id="XMLID_405_"
   class="st4"
   d="m 1763.7,-258 c 0,0.6 -21,1 -47,1 -25.9,0 -47,-0.4 -47,-1 0,-0.6 21,-1 47,-1 26,0 47,0.5 47,1 z" />
	</g>
	<g
   id="XMLID_407_">
		<ellipse
   id="XMLID_408_"
   class="st4"
   cx="1795.5"
   cy="-258"
   rx="18.1"
   ry="1" />
	</g>
	<path
   id="XMLID_3463_"
   d="m 2405.2,1037.3 -6.2,78.8 c 0,0 -77.8,25 -78.3,39.6 l 152.3,2 4.5,-120.5 z" />
	<g
   id="XMLID_496_">
		<g
   id="XMLID_497_">
			<g
   id="XMLID_498_">
				<g
   id="XMLID_499_">
					<path
   id="XMLID_3459_"
   d="m 2445.9,1108 c 3,0.7 5.1,4 4.5,7 -0.6,3 -3.9,5.2 -6.9,4.5 -3,-0.7 -5.7,-4.5 -4.7,-7.4 0.9,-2.9 4.9,-5.3 7.7,-3.9" />
				</g>
			</g>
		</g>
	</g>
	<g
   id="XMLID_500_">
		<g
   id="XMLID_501_">
			<g
   id="XMLID_502_">
				<path
   id="XMLID_3454_"
   d="m 2472.9,1157.6 -0.3,-12.2 -144.2,0.9 c 0,0 -8.3,4.9 -8,9.7 z" />
			</g>
		</g>
	</g>
	<g
   id="XMLID_519_">
		<g
   id="XMLID_520_">
			<g
   id="XMLID_521_">
				<g
   id="XMLID_522_">
					<path
   id="XMLID_3429_"
   class="st9"
   d="m 2396.5,1081.5 c 0,0.3 3,0.7 7.6,-0.3 2.3,-0.5 5.1,-1.3 7.9,-2.7 1.4,-0.7 2.9,-1.5 4.3,-2.5 0.7,-0.5 1.5,-1 2.3,-1.9 0.8,-0.8 1.2,-2.8 0.2,-4 -0.8,-1.1 -2.2,-1.6 -3.3,-1.6 -1.1,0 -2,0.3 -2.9,0.5 -1.7,0.5 -3.3,1.1 -4.7,1.8 -2.9,1.4 -5.2,3.2 -6.9,4.8 -3.4,3.4 -4.6,6.2 -4.3,6.3 0.3,0.2 2,-2.1 5.5,-5 1.8,-1.4 4,-2.9 6.7,-4 1.3,-0.6 2.8,-1.1 4.3,-1.5 1.6,-0.5 3,-0.5 3.4,0.2 0.2,0.3 0.2,0.4 -0.1,0.9 -0.3,0.4 -1,0.9 -1.7,1.4 -1.3,0.9 -2.7,1.7 -4,2.4 -2.6,1.4 -5.1,2.4 -7.3,3 -4.2,1.5 -7,1.8 -7,2.2 z" />
				</g>
			</g>
		</g>
	</g>
	<path
   id="XMLID_3418_"
   d="m 2734.4,1024.1 17.6,92 34.9,68.8 c 2.5,5 0.3,11 -4.8,13.2 v 0 c -2.9,1.2 -6.1,1 -8.8,-0.6 -16.9,-10.4 -78.7,-49 -79.6,-55.8 -1.1,-7.9 -25,-95.8 -25,-95.8 z" />
	<path
   id="XMLID_3416_"
   d="m 2782.1,1198.1 -89.7,-62.6 0.8,3.9 c 0.7,3.4 2.6,6.4 5.3,8.4 7.3,5.6 27.7,20.6 74.5,49.7 2.8,1.7 6.2,1.9 9.1,0.6 z" />
	<g
   id="XMLID_531_">
		<path
   id="XMLID_3414_"
   d="m 2704.9,1108.5 c 2.6,1.1 4.1,4.4 3.1,7.1 -1,2.7 -4.3,4.2 -7,3.2 -2.7,-1 -4.6,-5 -3.3,-7.5 1.3,-2.6 5.3,-4.2 7.6,-2.5" />
	</g>
	<g
   id="XMLID_544_">
		<path
   id="XMLID_3392_"
   class="st5"
   d="m 2404.1,313.3 c -1,0 -12.6,771.9 -12.6,771.9 l 93.3,-3.2 32.3,-379.5 7.8,-278.6 63.5,257.7 79.2,404.4 93.1,-23.4 L 2642,308.3 2530.4,286.7 Z" />
	</g>
	<g
   id="XMLID_546_">
		<g
   id="XMLID_547_">
			<path
   id="XMLID_3390_"
   class="st4"
   d="m 2606.9,-163.6 c 11.2,-22.1 14.7,-61.6 1.9,-83.6 -12.8,-21.9 -38.7,-37.7 -63,-45 -4.1,-1.2 -8.5,-2.1 -12.5,-0.8 -4,1.3 -7.3,5.8 -5.9,9.8 -4.7,-3.5 -9.6,-7 -15.2,-8.8 -5.6,-1.7 -12.2,-1.4 -16.7,2.4 -4.5,3.8 -5.8,11.4 -1.6,15.6 -6.7,-3 -15.2,-1.7 -20.6,3.2 -5.5,4.9 -7.6,13.2 -5.2,20.2 2.3,6.7 7.6,14.4 12.4,19.5 4.8,5.2 5.3,10.2 3.9,17.1" />
		</g>
	</g>
	<g
   id="XMLID_552_">
		<g
   id="XMLID_553_">
			<g
   id="XMLID_554_">
				<g
   id="XMLID_555_">
					<g
   id="XMLID_556_">
						<g
   id="XMLID_557_">
							<g
   id="XMLID_558_">
								<g
   id="XMLID_559_">
									<g
   id="XMLID_560_">
										<g
   id="XMLID_561_">
											<g
   id="XMLID_562_">
												<g
   id="XMLID_563_">
													<g
   id="XMLID_564_">
														<path
   id="XMLID_3387_"
   class="st10"
   d="m 2514.9,17.9 c 0.7,-10.6 2.4,-106.3 2.4,-106.7 0,0 -35.5,-4.4 -37.1,-39.7 -0.7,-17.1 0.6,-52.3 2.2,-84.3 1.7,-34.3 29.5,-61.5 63.8,-62.6 l 3.4,-0.1 c 36.8,1 56.6,32.9 54.6,69.7 l -5,204.8" />
													</g>
												</g>
											</g>
										</g>
									</g>
								</g>
							</g>
						</g>
					</g>
				</g>
				<g
   id="XMLID_565_">
					<g
   id="XMLID_566_">
						<g
   id="XMLID_567_">
							<g
   id="XMLID_568_">
								<g
   id="XMLID_569_">
									<g
   id="XMLID_570_">
										<g
   id="XMLID_571_">
											<g
   id="XMLID_572_">
												<g
   id="XMLID_573_">
													<g
   id="XMLID_574_">
														<path
   id="XMLID_3376_"
   class="st11"
   d="m 2517.3,-88.8 c 0,0 22.3,0.6 45.6,-15 0,0 -10.6,22.1 -46,20 z" />
													</g>
												</g>
											</g>
										</g>
									</g>
								</g>
							</g>
						</g>
					</g>
				</g>
			</g>
		</g>
	</g>
	<g
   id="XMLID_669_">
		<g
   id="XMLID_670_">
			<g
   id="XMLID_671_">
				<g
   id="XMLID_672_">
					<g
   id="XMLID_673_">
						<g
   id="XMLID_674_">
							<g
   id="XMLID_675_">
								<g
   id="XMLID_676_">
									<path
   id="XMLID_3260_"
   class="st10"
   d="m 2602.1,-179.6 c 0.6,-0.3 24.1,-7.9 24,16.3 0,24.2 -24.3,19.2 -24.3,18.5 -0.1,-0.7 0.3,-34.8 0.3,-34.8 z" />
								</g>
							</g>
						</g>
					</g>
				</g>
			</g>
		</g>
	</g>
	<path
   id="XMLID_3236_"
   class="st4"
   d="m 2467,-258.5 c -2.8,31.4 35.8,44.5 52.8,26.9 7.8,-8.1 14.7,-18.2 25.4,-21.9 7.2,-2.5 15.3,-1.1 22.1,2.3 0.1,0 0.1,0.1 0.2,0.1 10,5.2 15.9,16.7 17.4,27.8 2.2,15.5 -0.3,29.2 3.7,43.4 0.6,2 1.3,4.2 3,5.5 2.9,2.1 7.2,0.3 9.6,-2.4 3.9,-4.3 5.2,-10.2 6.1,-16 1.9,-13 1.8,-26.4 -1.5,-39.2 -3.3,-12.7 -9.9,-24.8 -19.7,-33.6 -12.2,-11 -29.1,-16.4 -45.5,-15.6 -16.4,0.8 -32.4,7.4 -45.2,17.7 -5.9,4.8 -11.4,10.5 -14.3,17.6" />
	<path
   id="XMLID_3222_"
   class="st10"
   d="M 2298.1,26.5 2131.7,10.7 2105.4,4.4 c 0,0 -60.2,-10.8 -65.8,-12.5 -6.5,-2 -9.1,0.6 -9.7,3.1 -0.9,3.8 2.9,7.9 8.4,9.9 1.9,0.7 32.6,10 32.6,10 0,0 -3,0.6 -10.1,3.4 -7.1,2.7 -13.7,12.3 -16.8,23.4 -3,11 -2.9,14.4 1.3,15.7 1.7,0.6 3.4,0 4.8,-0.9 2.3,-1.4 4,-3.8 4.7,-6.4 5.1,-17.6 15.9,-19.4 15.9,-19.4 l 3.4,0.8 c 0,0 -10.9,8.3 -10.3,17.7 0.1,1.5 0.5,2.9 1,4 -1.4,4.7 -0.3,10 2.9,13.7 3.3,3.8 8.8,5.6 13.8,4.5 2.4,-0.5 4.9,-2 5.1,-4.4 0.1,-1.3 -0.4,-2.5 -0.9,-3.7 -0.3,-0.6 -0.5,-1.3 -0.7,-1.9 l 10,1 c 0,0 22.5,1 32.3,2.5 l 156.8,40.6 c 21.7,5.6 43.9,-7.7 49.1,-29.5 v 0 c 5.9,-23.9 -10.8,-47.2 -35.1,-49.5 z" />
	<g
   id="XMLID_709_">
		<path
   id="XMLID_3216_"
   class="st10"
   d="m 2128.1,15.1 c -0.1,3.5 -3.5,6 -6.9,6.9 -3.4,0.8 -6.9,0.5 -10.4,1.1 -10.3,1.8 -17.9,11.5 -28.2,12.8 -1.4,0.2 -3.3,0 -3.8,-1.4 -0.4,-1.3 0.6,-2.5 1.6,-3.5 8.3,-7.9 16.6,-15.9 24.9,-23.8" />
	</g>
	<path
   id="XMLID_3158_"
   class="st3"
   d="m 2301.1,107.8 108.5,-25 c 0,0 -5.6,198.9 -5.6,200.8 0,1.9 -9,5 -8.2,19.4 l 7.8,17.2 237.9,3.2 6.4,-193.2 21.7,-149.8 -49.9,-30.9 -17.6,-23.8 -68.6,72.4 -17.1,-61.8 0.5,-18.4 -17,18.4 -91.5,26.4 -120.9,56.4 -81.7,-6.2 -21.2,71.5 z" />
	<path
   id="XMLID_752_"
   class="st3"
   d="m 2665.2,-22.3 c 0,0 30,25.7 32,40.3 1.5,11.3 31,117 44.3,164.3 4.1,14.7 3.3,30.4 -2.5,44.6 l -38.3,94.8 -62,-36.7 31,-88.9 -25.7,-75.4 z" />
	<g
   id="XMLID_782_">
		<path
   id="XMLID_3122_"
   class="st10"
   d="m 2626.8,398.9 c -13.4,-8.8 -19.2,-17.2 -24.7,-25.5 0.1,-0.3 0.2,-0.6 0,-0.8 -0.2,-0.3 -0.5,-0.5 -0.9,-0.6 -3,-4.7 -5.4,-9 -7.2,-12.7 7.7,-5 17.8,-12.6 6.8,-14.1 -13.5,-1.9 -23.1,-8.5 -24.5,-12 -1.4,-3.6 3.1,-6.8 6.7,-4.5 2.9,1.9 8.6,3.4 13,4.5 3.6,0.8 7.3,1.1 11,0.7 2.3,-0.3 10.3,-5.8 18.9,-9.8 1.2,-0.6 2.6,-0.7 3.9,-0.5 l 3.3,-0.2 c 3.5,-0.2 6.7,-2.3 8.3,-5.5 l 12.4,-24 37.6,22.2 -29.8,41.3 c 0,0.1 -20.5,27.3 -34.8,41.5 z" />
	</g>
	<g
   id="XMLID_784_">
		<path
   id="XMLID_785_"
   class="st12"
   d="m 2634.6,403.3 c -0.1,0.2 -3.6,-1.1 -8.7,-4.1 -5.1,-3 -11.7,-8 -17.8,-14.8 -6.1,-6.8 -10.3,-13.9 -12.7,-19.4 -2.4,-5.4 -3.3,-9 -3.1,-9.1 0.6,-0.3 5.3,13.8 17.3,27.1 11.8,13.5 25.3,19.7 25,20.3 z" />
	</g>
	<g
   id="XMLID_801_">
		<g
   id="XMLID_802_">
			<g
   id="XMLID_803_">
				<polygon
   id="XMLID_3099_"
   class="st13"
   points="1195.8,1122.6 1210.6,922 1132.4,899.3 1121.4,1104.6 " />
			</g>
		</g>
	</g>
	<g
   id="XMLID_805_">
		<g
   id="XMLID_806_">
			<g
   id="XMLID_807_">
				<polygon
   id="XMLID_808_"
   points="1192.1,1158.6 1195.8,1122.3 1119.2,1102.9 1106.5,1158.6 " />
			</g>
		</g>
	</g>
	<g
   id="XMLID_809_">
		<g
   id="XMLID_810_">
			<g
   id="XMLID_811_">
				<g
   id="XMLID_812_">
					<path
   id="XMLID_813_"
   d="m 1193.8,1150.5 c 0,0.3 -4.8,0.6 -12.5,0.7 -7.7,0.1 -18.3,-0.1 -30.1,-0.6 -11.3,-0.5 -21.5,-0.9 -30,-1.3 -7.7,-0.4 -12.4,-0.7 -12.4,-1 0,-0.3 4.8,-0.6 12.5,-0.7 7.7,-0.1 18.3,0.1 30.1,0.6 11.3,0.5 21.5,0.9 30,1.2 7.7,0.5 12.4,0.8 12.4,1.1 z" />
				</g>
			</g>
		</g>
	</g>
	<g
   id="XMLID_819_">
		<g
   id="XMLID_820_">
			<g
   id="XMLID_821_">
				<polyline
   id="XMLID_822_"
   points="1106.5,1158.6 1192.1,1158.6 1192.9,1150.5 1108,1148.4 1106.5,1157.6     " />
			</g>
		</g>
	</g>
	<g
   id="XMLID_824_">
		<g
   id="XMLID_825_">
			<g
   id="XMLID_826_">
				<g
   id="XMLID_827_">
					<polygon
   id="XMLID_3075_"
   class="st13"
   points="1498.8,1130.6 1484.9,1005.8 1414.9,999.1 1432.9,1135.2 " />
				</g>
			</g>
		</g>
	</g>
	<g
   id="XMLID_829_">
		<g
   id="XMLID_830_">
			<g
   id="XMLID_831_">
				<g
   id="XMLID_832_">
					<g
   id="XMLID_833_">
						<g
   id="XMLID_834_">
							<path
   id="XMLID_3070_"
   d="m 1499.5,1115.8 v 0 c 0,0 74,25 75.2,38.5 l -141.5,4.1 -1.3,-37 5.2,1 c 21,4.2 42.8,1.9 62.4,-6.6 z" />
						</g>
					</g>
				</g>
			</g>
		</g>
		<g
   id="XMLID_835_"
   class="st14">
			<g
   id="XMLID_836_">
				<g
   id="XMLID_837_">
					<g
   id="XMLID_838_">
						<g
   id="XMLID_839_">
							<g
   id="XMLID_840_">
								<path
   id="XMLID_3064_"
   d="m 1448.5,1127.9 c -2.7,0.8 -4.5,4 -3.8,6.7 0.7,2.7 3.9,4.6 6.6,3.8 2.7,-0.8 5,-4.5 4,-7.1 -1,-2.6 -4.9,-4.6 -7.3,-3.2" />
							</g>
						</g>
					</g>
				</g>
			</g>
		</g>
		<g
   id="XMLID_841_"
   class="st14">
			<g
   id="XMLID_842_">
				<g
   id="XMLID_843_">
					<g
   id="XMLID_844_">
						<g
   id="XMLID_845_">
							<path
   id="XMLID_3057_"
   d="m 1433.2,1158.4 0.1,-11.5 135.6,0.3 c 0,0 6.4,2.6 5.8,7 z" />
						</g>
					</g>
				</g>
			</g>
		</g>
		<g
   id="XMLID_846_">
			<g
   id="XMLID_847_">
				<g
   id="XMLID_848_">
					<g
   id="XMLID_849_">
						<g
   id="XMLID_850_">
							<g
   id="XMLID_851_">
								<path
   id="XMLID_3051_"
   d="m 1501.7,1115 c 0,0.7 -3.4,1.1 -6.8,3.4 -3.4,2.2 -5.1,5.3 -5.7,5 -0.6,-0.1 0.3,-4.3 4.4,-7 4.1,-2.7 8.3,-2 8.1,-1.4 z" />
							</g>
						</g>
					</g>
				</g>
			</g>
		</g>
		<g
   id="XMLID_852_">
			<g
   id="XMLID_853_">
				<g
   id="XMLID_854_">
					<g
   id="XMLID_855_">
						<g
   id="XMLID_856_">
							<g
   id="XMLID_857_">
								<path
   id="XMLID_3044_"
   d="m 1516.8,1120.7 c 0.2,0.7 -2.8,1.9 -5,4.9 -2.3,2.9 -2.8,6.1 -3.5,6.1 -0.6,0.1 -1.2,-3.9 1.6,-7.6 2.8,-3.6 6.8,-4 6.9,-3.4 z" />
							</g>
						</g>
					</g>
				</g>
			</g>
		</g>
		<g
   id="XMLID_858_">
			<g
   id="XMLID_859_">
				<g
   id="XMLID_860_">
					<g
   id="XMLID_861_">
						<g
   id="XMLID_862_">
							<g
   id="XMLID_863_">
								<path
   id="XMLID_3037_"
   d="m 1525.7,1138.2 c -0.6,0.2 -1.7,-3.3 0,-7.1 1.6,-3.8 4.8,-5.4 5.2,-4.9 0.4,0.6 -1.6,2.6 -2.9,5.8 -1.5,3.2 -1.6,6.2 -2.3,6.2 z" />
							</g>
						</g>
					</g>
				</g>
			</g>
		</g>
	</g>
	<g
   id="XMLID_864_">
		<g
   id="XMLID_865_">
			<g
   id="XMLID_866_">
				<g
   id="XMLID_867_">
					<g
   id="XMLID_868_">
						<g
   id="XMLID_869_">
							<path
   id="XMLID_3029_"
   d="m 1500.2,1114.7 c 0,0.3 -2.7,0.8 -7.1,0.2 -2.2,-0.3 -4.8,-0.9 -7.5,-2.1 -1.4,-0.6 -2.7,-1.2 -4.1,-2 -0.7,-0.4 -1.4,-0.8 -2.2,-1.6 -0.8,-0.7 -1.3,-2.5 -0.4,-3.7 0.7,-1.1 2,-1.6 3,-1.7 1,-0.1 1.9,0.1 2.7,0.3 1.6,0.3 3.1,0.8 4.4,1.4 2.7,1.2 5,2.6 6.7,4.1 3.4,2.9 4.6,5.5 4.3,5.6 -0.3,0.2 -2,-1.9 -5.4,-4.3 -1.7,-1.2 -3.9,-2.4 -6.4,-3.4 -1.3,-0.5 -2.7,-0.9 -4.1,-1.1 -1.5,-0.3 -2.8,-0.3 -3.1,0.4 -0.1,0.3 -0.1,0.4 0.2,0.8 0.3,0.4 1,0.8 1.6,1.2 1.3,0.8 2.6,1.5 3.8,2 2.5,1.2 4.9,1.9 6.9,2.4 4,1 6.7,1.1 6.7,1.5 z" />
						</g>
					</g>
				</g>
			</g>
		</g>
	</g>
	<g
   id="XMLID_870_">
		<g
   id="XMLID_871_">
			<g
   id="XMLID_872_">
				<g
   id="XMLID_873_">
					<g
   id="XMLID_874_">
						<g
   id="XMLID_875_">
							<path
   id="XMLID_3022_"
   d="m 1499.3,1115.7 c -0.2,0.1 -1.7,-2.3 -2.1,-6.8 -0.2,-2.2 0,-4.9 0.7,-7.8 0.4,-1.4 0.9,-2.9 1.7,-4.4 0.8,-1.4 1.7,-3.3 4.4,-3.7 1.4,-0.1 2.6,1 3,1.9 0.5,0.9 0.6,1.8 0.8,2.6 0.3,1.6 0.3,3.3 0.1,4.8 -0.4,3 -1.5,5.6 -2.8,7.4 -2.7,3.7 -5.5,4.7 -5.6,4.4 -0.2,-0.3 2.1,-1.7 4.1,-5.3 1,-1.8 1.9,-4.1 2,-6.7 0.1,-1.3 0,-2.7 -0.2,-4.1 -0.3,-1.5 -0.9,-2.7 -1.4,-2.5 -0.7,0 -1.9,1.2 -2.4,2.4 -0.7,1.3 -1.2,2.6 -1.6,3.9 -0.8,2.6 -1.1,5 -1.2,7.1 0.1,4.1 0.9,6.7 0.5,6.8 z" />
						</g>
					</g>
				</g>
			</g>
		</g>
	</g>
	<g
   id="XMLID_3010_">
		<g
   id="XMLID_879_">
			<g
   id="XMLID_880_">
				<path
   id="XMLID_881_"
   class="st5"
   d="m 1187.5,310.3 c 0,0 -52.2,87.2 -52.2,139.4 l -12.9,635.5 82.5,19.7 62.9,-621 c 0,0 152.4,622.6 157.3,622.6 4.9,0 79.9,-13.5 79.9,-13.5 L 1391.2,313.1 Z" />
			</g>
		</g>
	</g>
	<g
   id="XMLID_904_">
		<g
   id="XMLID_905_">
			<path
   id="XMLID_906_"
   class="st4"
   d="m 1223.8,-188.8 c 2.8,8.2 -6.9,15.2 -15.4,17.2 -8.5,1.9 -18.7,3.2 -22.6,10.9 -3.4,6.7 0,15.3 -3,22.2 -5.8,13.1 -29.4,10.4 -34,24 -3.2,9.3 5.6,18.9 4.5,28.7 -0.9,8.4 -8.7,14.2 -15.4,19.3 -6.8,5.1 -13.9,12.1 -12.8,20.6 1.2,9.7 13.1,16.4 12,26.2 -1.1,9.6 -14,14.1 -15.9,23.5 -2.2,11.2 11.8,18.4 16.4,29 3.5,8 1.3,18.4 7.2,24.9 6,6.7 16.6,5.4 25.3,3.5 29.1,-6.2 58.2,-12.3 87.4,-18.5 -5.9,-13.8 -0.4,-30 8.1,-42.4 8.5,-12.4 19.6,-22.9 26.9,-36.1 7.2,-13.2 9.6,-30.8 0.1,-42.4" />
		</g>
	</g>
	<g
   id="XMLID_907_">
		<g
   id="XMLID_908_">
			<g
   id="XMLID_909_">
				<path
   id="XMLID_910_"
   class="st4"
   d="m 1377.4,-118.9 c -0.5,0.1 -0.1,-5.6 -2.9,-13.8 -0.8,-2 -1.8,-4.2 -3.5,-5.7 -1.7,-1.6 -4,-0.6 -5.4,1.8 -2.8,4.7 -3.8,11.2 -3.9,17.7 0.1,6.5 1,13 3.9,17.7 1.4,2.4 3.7,3.4 5.4,1.8 1.7,-1.5 2.7,-3.7 3.5,-5.7 2.8,-8.2 2.4,-13.9 2.9,-13.8 0.1,0 0.3,1.4 0.3,3.9 -0.1,2.5 -0.3,6.1 -1.6,10.5 -0.8,2.1 -1.6,4.6 -3.8,6.6 -1.1,1 -2.9,1.7 -4.6,1.1 -1.7,-0.6 -2.8,-1.8 -3.7,-3.1 -3.4,-5.3 -4.3,-12 -4.4,-18.9 0.1,-6.8 1,-13.5 4.4,-18.9 0.9,-1.3 2,-2.6 3.7,-3.1 1.7,-0.6 3.6,0.1 4.6,1.1 2.2,2 3.1,4.5 3.8,6.6 1.4,4.3 1.6,8 1.6,10.5 0,2.3 -0.2,3.7 -0.3,3.7 z" />
			</g>
		</g>
	</g>
	<g
   id="XMLID_912_">
		<g
   id="XMLID_913_">
			<path
   id="XMLID_914_"
   class="st4"
   d="m 1234.9,-38.5 c -15.8,-26.7 -20.3,-62.3 -24.3,-93 -1.9,-14.5 -5.2,-35.1 5,-44.2 10.9,-9.7 12,-24.7 24.5,-32.2 12.5,-7.5 29.5,-8.1 41.4,0.5" />
		</g>
	</g>
	<g
   id="XMLID_918_">
		<g
   id="XMLID_919_">
			<g
   id="XMLID_920_">
				<g
   id="XMLID_921_">
					<g
   id="XMLID_922_">
						<g
   id="XMLID_923_">
							<path
   id="XMLID_2974_"
   class="st15"
   d="m 1278.7,56.1 v 0 c 24.2,1.9 45.2,-16.7 46.2,-40.9 1,-23.3 1.8,-46.9 1.8,-46.9 0,0 35.4,-3.2 38,-38.2 2.7,-35 1.7,-115.7 1.7,-115.7 v 0 c -39.4,-20 -86.5,-17.1 -123.2,7.6 l 1.8,123 -0.2,66.2 c 0.2,22.3 11.7,43.1 33.9,44.9 z" />
						</g>
					</g>
				</g>
			</g>
		</g>
	</g>
	<g
   id="XMLID_924_">
		<g
   id="XMLID_925_">
			<path
   id="XMLID_926_"
   class="st4"
   d="m 1330,-112.7 c -6,-7.5 -15.8,-10.5 -23.9,-5.3 -8.1,5.2 -11.2,16.8 -6.8,25.4 3.1,6 10.1,11.5 17.1,13 6.6,1.4 11.3,7.8 10.5,14.5 -1,8.8 -15.6,12 -22.3,19.3 -10.3,11.3 -32.8,16 -48,17.7 -14.9,1.7 -13.1,1.9 -21.7,-10.4 -6.3,-8.9 -8.2,-17.5 -8.4,-28.4 -0.5,-25.8 -0.9,-51.6 -1.4,-77.4 -0.2,-9.3 -0.3,-18.7 1.8,-27.8 2.2,-9 6.9,-17.8 14.7,-22.9 8.5,-5.6 19.3,-6 29,-9.1 12.1,-3.9 22.4,-11.9 33.8,-17.7 11.4,-5.8 25.3,-9.2 36.6,-3.4 8.2,4.1 13.6,12.3 21.5,16.8 11.3,6.5 26.7,5 32.1,21.7 1.9,5.8 1.7,12.1 -0.2,17.8 -7.7,22.6 -35.8,31.6 -55.9,21.8 -0.4,3.8 3.3,12.4 -0.7,24.5 -1.3,3.9 -1.8,9.8 -7.8,9.9" />
		</g>
	</g>
	<g
   id="XMLID_931_">
		<g
   id="XMLID_932_">
			<g
   id="XMLID_933_">
				<path
   id="XMLID_934_"
   class="st4"
   d="m 1377.5,-120.6 c 0.1,0.6 -10.4,2.9 -23.5,5 -13.1,2.1 -23.8,3.4 -23.9,2.8 -0.1,-0.6 10.4,-2.9 23.5,-5 13.1,-2.2 23.8,-3.4 23.9,-2.8 z" />
			</g>
		</g>
	</g>
	<g
   id="XMLID_935_">
		<g
   id="XMLID_936_">
			<path
   id="XMLID_937_"
   class="st4"
   d="m 1237.7,-4.4 c 1.7,4.5 7.5,6.1 12.2,4.9 4.6,-1.3 8.3,-4.7 11.8,-8 3.5,-3.3 7.1,-6.8 11.7,-8.1 9.3,-2.8 20.7,3.4 28.6,-2.4 7.1,-5.3 6.2,-17.2 13.2,-22.6 3.7,-2.9 8.9,-3.3 12.7,-6.1 7.1,-5.2 5.9,-16.9 0,-23.4 -6,-6.5 -14.9,-9.1 -23.4,-11.5 l -75.2,32 z" />
		</g>
	</g>
	<g
   id="XMLID_946_">
		<polyline
   id="XMLID_947_"
   class="st3"
   points="1335.3,0.9 1326.2,-17.8 1247.1,-20.8 1234.7,3.5 1334,3.5   " />
	</g>
	<path
   id="XMLID_952_"
   class="st3"
   d="m 1606.8,169.9 c -0.6,-2.8 20.9,-114.4 26.8,-145.1 0.8,-4 -2.3,-7.7 -6.4,-7.7 H 1469 c -3,0 -5.6,2.1 -6.3,5 l -32.4,136.6 -79.8,6 2.8,5.2 z" />
	<polygon
   id="XMLID_954_"
   class="st16"
   points="1470,25.7 1435.8,160.2 1599.9,160 1625.5,24.8 " />
	<path
   id="XMLID_955_"
   class="st9"
   d="m 1435.7,160.3 v -0.1 l 34.2,-134.6 h 0.1 l 155.6,-0.9 v 0.1 L 1600,160.1 h -0.1 z m 34.4,-134.5 -34.1,134.3 163.9,-0.2 25.6,-135.1 z" />
	<g
   id="XMLID_963_">
		<g
   id="XMLID_964_">
			<g
   id="XMLID_965_">
				<path
   id="XMLID_966_"
   class="st7"
   d="m 1589,126.8 c 0,0.1 -0.7,0.1 -2,0.2 -1.6,0.1 -3.5,0.1 -5.8,0.2 -5.4,0.1 -12.6,0.2 -21.4,0.3 -18.1,0.2 -43.1,0.3 -70.7,0.3 -7.8,0 -15.5,0 -22.7,0 h -1.3 l 0.3,-1.2 c 5.5,-21.3 10.3,-39.9 13.8,-53.5 1.7,-6.4 3.2,-11.7 4.2,-15.6 1,-3.6 1.6,-5.6 1.8,-5.6 0.1,0 -0.3,2.1 -1.1,5.8 -0.9,4 -2.2,9.3 -3.7,15.8 -3.4,13.7 -7.9,32.3 -13.2,53.7 l -0.9,-1.2 c 7.2,0 14.9,0 22.7,0 27.6,0 52.6,0.1 70.7,0.3 8.8,0.1 16.1,0.2 21.4,0.3 2.3,0.1 4.3,0.1 5.8,0.2 1.4,-0.1 2.1,-0.1 2.1,0 z" />
			</g>
		</g>
		<g
   id="XMLID_967_">
			<polygon
   id="XMLID_968_"
   class="st7"
   points="1499.3,108.6 1496.7,121.7 1476.4,121.7 1479.3,108.6 " />
		</g>
		<g
   id="XMLID_969_">
			<polygon
   id="XMLID_970_"
   class="st7"
   points="1529.7,96 1524,121.7 1503.6,121.7 1509.6,96 " />
		</g>
		<g
   id="XMLID_971_">
			<polygon
   id="XMLID_972_"
   class="st7"
   points="1553.7,108.6 1551.2,121.7 1530.8,121.7 1533.7,108.6 " />
		</g>
		<g
   id="XMLID_973_">
			<polygon
   id="XMLID_974_"
   class="st7"
   points="1589.5,71.8 1578.4,121.7 1558,121.7 1569.5,71.8 " />
		</g>
	</g>
	<g
   id="XMLID_975_">
		<g
   id="XMLID_976_">
			<path
   id="XMLID_977_"
   class="st4"
   d="m 1492.1,136.3 c 0,0.6 -3.7,1 -8.1,0.9 -4.4,0 -8.1,-0.5 -8.1,-1.1 0,-0.6 3.6,-1 8.1,-0.9 4.5,0 8.1,0.5 8.1,1.1 z" />
		</g>
	</g>
	<g
   id="XMLID_978_">
		<g
   id="XMLID_979_">
			<path
   id="XMLID_980_"
   class="st4"
   d="m 1518.5,136.2 c 0,0.6 -3.7,1 -8.1,0.9 -4.4,0 -8.1,-0.5 -8.1,-1.1 0,-0.6 3.6,-1 8.1,-0.9 4.5,0.1 8.1,0.6 8.1,1.1 z" />
		</g>
	</g>
	<g
   id="XMLID_981_">
		<g
   id="XMLID_982_">
			<path
   id="XMLID_983_"
   class="st4"
   d="m 1544.8,136.2 c 0,0.6 -3.7,1 -8.1,0.9 -4.4,0 -8.1,-0.5 -8.1,-1.1 0,-0.6 3.6,-1 8.1,-0.9 4.6,0 8.2,0.5 8.1,1.1 z" />
		</g>
	</g>
	<g
   id="XMLID_984_">
		<g
   id="XMLID_985_">
			<path
   id="XMLID_986_"
   class="st4"
   d="m 1571.2,136.1 c 0,0.6 -3.7,1 -8.1,0.9 -4.4,0 -8.1,-0.5 -8.1,-1.1 0,-0.6 3.6,-1 8.1,-0.9 4.5,0.1 8.2,0.6 8.1,1.1 z" />
		</g>
	</g>
	<g
   id="XMLID_988_">
		<ellipse
   id="XMLID_989_"
   class="st4"
   cx="1510"
   cy="46"
   rx="22.4"
   ry="1" />
	</g>
	<g
   id="XMLID_991_">
		<ellipse
   id="XMLID_992_"
   class="st4"
   cx="1499"
   cy="40.400002"
   rx="9.8999996"
   ry="1" />
	</g>
	<g
   id="XMLID_993_">
		<path
   id="XMLID_994_"
   class="st3"
   d="m 1466,252.2 91.6,-66.3 -3.4,-5.5 c -5,-8.1 -12.5,-14.4 -21.4,-18 l -14.3,2.6 -84.9,12.9 z" />
	</g>
	<g
   id="XMLID_2875_">
		<g
   id="XMLID_998_">
			<g
   id="XMLID_999_">
				<path
   id="XMLID_1000_"
   class="st3"
   d="m 1462.8,254 c 19,-9.4 23.8,-32 14.6,-51.1 L 1398.6,34.5 c -1.8,-4.2 -4.5,-7.9 -7.9,-10.9 -31,-26.9 -65.2,-22.3 -65.2,-22.3 l -82.2,-2.2 c 0,0 -64.6,0 -88.8,50.9 -1.8,3.7 -39.3,78.2 -64.1,127.2 -11.4,22.7 -0.6,50.2 23.3,58.9 v 0 c 20.9,7.7 44.2,-2.1 53.3,-22.5 l 26.9,-59.9 16.9,85.9 -24.4,70.8 203.8,2.8 -15.7,-94.6 -4.9,-67.5 41.3,85.2 c 9.4,19.2 32.7,27.2 51.9,17.7 z" />
			</g>
			<g
   id="XMLID_1001_"
   class="st17">
				<g
   id="XMLID_1002_">
					<g
   id="XMLID_1003_">
						<path
   id="XMLID_1004_"
   class="st3"
   d="m 1217.7,238 c 15.4,11.6 38.2,7.7 57.2,4.5 19,-3.2 37.4,-12.2 49.8,-27 5.6,-6.6 10,-14.9 9.2,-23.5 -0.8,-8.6 -8.4,-16.9 -17,-15.9 -9.8,1.2 -14.6,12.2 -19.3,20.9 -15,27.5 -48.8,43.4 -79.6,37.4 0,0 -3.1,1.5 -0.3,3.6 z" />
					</g>
				</g>
			</g>
			<g
   id="XMLID_1005_"
   class="st17">
				<g
   id="XMLID_1006_">
					<g
   id="XMLID_1007_">
						<path
   id="XMLID_1008_"
   class="st3"
   d="m 1343.5,105.3 c 4.8,38.8 2.7,35.8 10.7,74 4,18.8 8.8,38.4 21.8,52.6 l -6.4,-80.9 z" />
					</g>
				</g>
			</g>
		</g>
		<g
   id="XMLID_1009_">
			<g
   id="XMLID_1010_">
				<g
   id="XMLID_1011_">
					<path
   id="XMLID_1012_"
   class="st3"
   d="M 1152.2,-105.2" />
				</g>
			</g>
		</g>
	</g>
	<g
   id="XMLID_997_">
		<polygon
   id="XMLID_1013_"
   class="st3"
   points="1195.8,283.2 1382.7,267.8 1395.9,292.6 1390.3,313.1 1186.4,310.3 1180.6,293.3 " />
	</g>
	<g
   id="XMLID_1014_">
		<g
   id="XMLID_1015_">
			<path
   id="XMLID_1016_"
   class="st4"
   d="m 1225,-10.4 c -7.8,3 -14,9.7 -16.5,17.7 -2.5,8 -1.1,17 3.5,23.9 1.6,2.4 3.7,4.8 3.6,7.7 -0.4,6.9 -11.5,7.1 -15,13 -2.4,4 -0.3,9.3 3,12.5 3.3,3.2 7.7,5.1 11.5,7.7 3.8,2.6 7.3,6.6 7.1,11.2 3.9,-0.1 6.2,-4.8 5.6,-8.7 -0.6,-3.9 -3,-7.1 -4.8,-10.6 -1.7,-3.5 -2.7,-7.9 -0.5,-11.1 2.6,-3.6 7.7,-3.8 11.9,-5.4 8,-3.1 12.3,-13.5 8.8,-21.3 -2.5,-5.6 -8.3,-11.3 -5.5,-16.7 1.6,-3 5.2,-4.2 8.2,-5.9 6.2,-3.4 10.4,-10 11,-17.1 0.5,-7 -2.6,-14.2 -8.2,-18.6" />
		</g>
	</g>
	<g
   id="XMLID_1032_">
		<polyline
   id="XMLID_1033_"
   class="st18"
   points="1557.5,185.9 1594.7,169.9 1545.2,169.9 1556,183.9   " />
	</g>
	<path
   id="XMLID_1089_"
   class="st2"
   d="m 979.6,70.7 c 5.4,0.7 10.6,2.1 15.5,4.1 l 11.4,-9.6 19.6,14.9 -6.2,13.5 c 3.3,4.2 6,8.8 8.1,13.9 l 14.8,1.3 3.3,24.4 -13.9,5.2 c -0.7,5.4 -2.1,10.6 -4.1,15.5 l 9.6,11.4 -14.9,19.6 -13.5,-6.2 c -4.2,3.3 -8.8,6 -13.9,8.1 l -1.3,14.8 -24.4,3.3 -5.2,-13.9 c -5.4,-0.7 -10.6,-2.1 -15.5,-4.1 l -11.4,9.6 -19.6,-14.9 6.2,-13.5 c -3.3,-4.2 -6,-8.8 -8.1,-13.9 l -14.8,-1.3 -3.3,-24.4 13.9,-5.2 c 0.7,-5.4 2.1,-10.6 4.1,-15.5 l -9.6,-11.4 14.9,-19.6 13.5,6.2 c 4.2,-3.3 8.8,-6 13.9,-8.1 l 1.3,-14.8 24.4,-3.3 z m -10,33.9 c -14.4,2 -24.6,15.3 -22.6,29.7 2,14.4 15.3,24.6 29.7,22.6 14.4,-2 24.6,-15.3 22.6,-29.7 -1.9,-14.5 -15.2,-24.6 -29.7,-22.6 z" />
	<path
   id="XMLID_1104_"
   class="st5"
   d="m 934.4,235.3 c 3.4,0.4 6.7,1.3 9.7,2.6 l 7.2,-6 12.3,9.4 -3.9,8.5 c 2,2.6 3.8,5.6 5.1,8.7 l 9.3,0.8 2.1,15.3 -8.7,3.3 c -0.4,3.4 -1.3,6.7 -2.6,9.7 l 6,7.2 -9.4,12.3 -8.5,-3.9 c -2.6,2 -5.6,3.8 -8.7,5.1 l -0.8,9.3 -15.3,2.1 -3.3,-8.7 c -3.4,-0.4 -6.7,-1.3 -9.7,-2.6 l -7.2,6 -12.3,-9.4 3.9,-8.5 c -2,-2.6 -3.8,-5.6 -5.1,-8.7 l -9.3,-0.8 -2.1,-15.3 8.7,-3.3 c 0.4,-3.4 1.3,-6.7 2.6,-9.7 l -6,-7.2 9.4,-12.3 8.5,3.9 c 2.6,-2 5.6,-3.8 8.7,-5.1 l 0.8,-9.3 15.3,-2.1 z m -6.3,21.2 c -9.1,1.2 -15.4,9.6 -14.2,18.7 1.2,9.1 9.6,15.4 18.7,14.2 9.1,-1.2 15.4,-9.6 14.2,-18.7 -1.3,-9.1 -9.7,-15.4 -18.7,-14.2 z" />
	<g
   id="XMLID_1106_">
		<path
   id="XMLID_1107_"
   class="st5"
   d="m 928.1,256.5 c 0,0 0.4,-0.1 1,-0.2 0.7,-0.1 1.7,-0.2 3.1,-0.1 2.6,0.2 6.6,1.3 10.2,4.7 3.5,3.3 6.1,9.3 4.7,15.7 -0.6,3.2 -2.3,6.3 -4.8,8.8 -2.5,2.5 -5.9,4.2 -9.6,4.7 -3.7,0.5 -7.5,-0.2 -10.5,-2 -3.1,-1.7 -5.5,-4.3 -7,-7.1 -3,-5.8 -2.1,-12.3 0.4,-16.4 2.5,-4.2 6.1,-6.3 8.6,-7.2 1.3,-0.5 2.3,-0.7 3,-0.8 0.5,-0.1 0.9,-0.1 0.9,-0.1 0,0.1 -1.5,0.3 -3.8,1.3 -2.3,1 -5.7,3.1 -7.9,7.2 -2.3,3.9 -3,10 -0.1,15.3 1.4,2.6 3.6,5 6.5,6.6 2.9,1.6 6.3,2.2 9.7,1.8 3.4,-0.5 6.6,-2 8.9,-4.3 2.4,-2.2 3.9,-5.1 4.5,-8.1 1.3,-5.9 -1,-11.6 -4.2,-14.7 -3.2,-3.3 -7,-4.5 -9.6,-4.8 -2.5,-0.4 -4,-0.1 -4,-0.3 z" />
	</g>
	<g
   id="XMLID_1109_">
		<path
   id="XMLID_1110_"
   class="st5"
   d="m 934.4,235.3 c 0,0 -0.1,-0.2 -0.2,-0.5 -0.2,-0.4 -0.4,-1 -0.7,-1.6 -0.6,-1.5 -1.5,-3.7 -2.6,-6.5 l 0.2,0.1 c -3.9,0.6 -9.1,1.3 -15.3,2.2 l 0.3,-0.3 c -0.2,2.8 -0.5,6 -0.8,9.3 v 0.2 l -0.2,0.1 c -2.9,1.2 -5.8,2.9 -8.6,5.1 l -0.2,0.2 -0.2,-0.1 c -2.7,-1.2 -5.5,-2.5 -8.5,-3.8 l 0.6,-0.1 c -2.9,3.9 -6,8 -9.3,12.3 v -0.7 c 1.9,2.2 3.9,4.6 6,7.1 l 0.2,0.3 -0.1,0.3 c -1.2,2.9 -2.1,6.2 -2.5,9.6 v 0.3 l -0.3,0.1 c -2.7,1 -5.7,2.1 -8.7,3.3 l 0.4,-0.6 c 0.7,4.8 1.4,10 2.1,15.3 l -0.6,-0.5 c 2.9,0.3 6.1,0.5 9.3,0.8 h 0.4 l 0.1,0.4 c 1.2,2.9 2.9,5.8 5,8.6 l 0.2,0.3 -0.2,0.4 c -1.2,2.7 -2.5,5.6 -3.9,8.5 l -0.2,-0.8 c 3.9,3 8.1,6.1 12.3,9.4 h -0.8 c 2.3,-1.9 4.7,-3.9 7.2,-6 l 0.3,-0.3 0.4,0.2 c 2.9,1.2 6.2,2.1 9.6,2.5 v 0 0 c 0.2,0.2 -0.5,-0.4 0.5,0.4 v 0 0 0 0.1 l 0.1,0.1 0.1,0.3 0.2,0.6 0.4,1.1 0.8,2.2 c 0.5,1.5 1.1,2.9 1.6,4.4 l -0.7,-0.4 c 5.2,-0.7 10.3,-1.4 15.3,-2.1 l -0.6,0.6 c 0.3,-3.1 0.6,-6.2 0.8,-9.3 V 308 l 0.4,-0.2 c 3.1,-1.3 6,-3 8.6,-5 l 0.3,-0.2 0.4,0.2 c 2.9,1.3 5.7,2.6 8.5,3.9 l -0.8,0.2 c 3.2,-4.2 6.3,-8.3 9.4,-12.3 v 0.8 c -2,-2.4 -4,-4.8 -6,-7.2 l -0.2,-0.3 0.1,-0.3 c 1.3,-3.1 2.1,-6.4 2.6,-9.6 v -0.3 l 0.3,-0.1 c 3,-1.1 5.9,-2.2 8.8,-3.2 l -0.4,0.6 c -0.7,-5.4 -1.4,-10.5 -2,-15.3 l 0.5,0.4 c -3.3,-0.3 -6.3,-0.6 -9.3,-0.9 h -0.3 l -0.1,-0.3 c -1.4,-3.3 -3.1,-6.1 -5,-8.6 l -0.2,-0.2 0.1,-0.2 c 1.4,-3.1 2.7,-5.9 3.9,-8.5 l 0.1,0.5 c -4.7,-3.7 -8.8,-6.8 -12.2,-9.4 h 0.4 c -2.9,2.4 -5.2,4.3 -7.2,5.9 l -0.1,0.1 h -0.1 c -3.1,-1.3 -5.6,-1.9 -7.2,-2.3 -0.8,-0.2 -1.4,-0.3 -1.8,-0.4 -0.6,-0.5 -0.7,-0.5 -0.7,-0.5 0,0 0.2,0 0.6,0 0.4,0 1,0.1 1.9,0.3 1.7,0.3 4.1,0.8 7.3,2.1 H 944 c 1.9,-1.7 4.3,-3.6 7.1,-6.1 l 0.2,-0.2 0.2,0.1 c 3.5,2.6 7.6,5.7 12.4,9.3 l 0.3,0.2 -0.1,0.3 c -1.2,2.6 -2.4,5.4 -3.8,8.5 l -0.1,-0.5 c 2,2.5 3.8,5.4 5.2,8.8 l -0.4,-0.3 c 3,0.3 6,0.5 9.3,0.8 h 0.4 l 0.1,0.4 c 0.7,4.8 1.4,9.9 2.1,15.3 l 0.1,0.4 -0.4,0.2 c -2.8,1.1 -5.7,2.2 -8.7,3.3 l 0.4,-0.5 c -0.4,3.3 -1.3,6.7 -2.6,9.9 l -0.1,-0.6 c 2,2.3 4,4.7 6,7.1 l 0.3,0.4 -0.3,0.4 c -3,4 -6.2,8.1 -9.3,12.3 l -0.3,0.4 -0.5,-0.2 c -2.8,-1.3 -5.6,-2.6 -8.5,-3.9 l 0.7,-0.1 c -2.7,2.1 -5.6,3.8 -8.9,5.2 l 0.4,-0.5 c -0.3,3.1 -0.5,6.2 -0.8,9.3 v 0.5 l -0.5,0.1 c -5,0.7 -10.1,1.4 -15.3,2.1 l -0.5,0.1 -0.2,-0.5 c -0.5,-1.4 -1.1,-2.9 -1.6,-4.4 l -0.8,-2.2 -0.4,-1.1 -0.2,-0.6 -0.1,-0.3 -0.1,-0.1 v -0.1 0 0 0 c 1.1,0.9 0.3,0.2 0.5,0.4 v 0 0 c -3.5,-0.4 -6.9,-1.4 -9.9,-2.6 l 0.7,-0.1 c -2.5,2.1 -4.9,4.1 -7.2,6 l -0.4,0.3 -0.4,-0.3 c -4.2,-3.2 -8.4,-6.4 -12.3,-9.4 l -0.4,-0.3 0.2,-0.5 c 1.3,-2.9 2.7,-5.8 3.9,-8.5 l 0.1,0.7 c -2.2,-2.8 -3.9,-5.9 -5.2,-8.9 l 0.5,0.4 c -3.2,-0.3 -6.4,-0.6 -9.3,-0.8 H 885 l -0.1,-0.5 c -0.7,-5.3 -1.4,-10.5 -2.1,-15.3 l -0.1,-0.5 0.4,-0.2 c 3,-1.1 6,-2.2 8.8,-3.2 l -0.4,0.5 c 0.4,-3.6 1.4,-6.9 2.6,-9.9 l 0.1,0.6 c -2.1,-2.5 -4.1,-5 -6,-7.2 l -0.3,-0.3 0.3,-0.3 c 3.3,-4.3 6.4,-8.4 9.4,-12.3 l 0.2,-0.3 0.3,0.2 c 3,1.4 5.8,2.7 8.5,3.9 l -0.5,0.1 c 2.9,-2.2 5.9,-3.9 8.8,-5.1 l -0.2,0.3 c 0.3,-3.3 0.6,-6.5 0.9,-9.3 v -0.3 h 0.3 c 6.2,-0.8 11.4,-1.4 15.3,-2 h 0.2 l 0.1,0.2 c 1,2.8 1.8,5 2.3,6.5 0.2,0.7 0.4,1.3 0.6,1.7 -0.1,0.4 0,0.6 0,0.7 z" />
	</g>
	<g
   id="XMLID_1116_">
		<g
   id="XMLID_1122_">
			<g
   id="XMLID_1123_">
				<g
   id="XMLID_1124_">
					<g
   id="XMLID_1125_">
						<g
   id="XMLID_1126_">
							<g
   id="XMLID_1127_">
								<path
   id="XMLID_1128_"
   class="st4"
   d="m 1398.9,-420.4 c 0,0.1 -1,0.1 -2.9,0.2 -2.1,0 -4.8,0.1 -8.1,0.2 -6.9,0.1 -16.5,0.2 -27.3,0.2 h -0.5 v -0.5 c 0,-1.7 0,-3.6 0,-5.4 0,-12.1 0.1,-23 0.2,-30.9 0.1,-3.8 0.1,-7 0.2,-9.4 0.1,-2.2 0.1,-3.4 0.2,-3.4 0.1,0 0.1,1.2 0.2,3.4 0,2.4 0.1,5.6 0.2,9.4 0.1,7.9 0.2,18.9 0.2,30.9 0,1.9 0,3.7 0,5.4 l -0.5,-0.5 c 10.8,0 20.4,0.1 27.3,0.2 3.3,0.1 6,0.1 8.1,0.2 1.7,-0.2 2.7,-0.1 2.7,0 z" />
							</g>
						</g>
					</g>
				</g>
			</g>
		</g>
	</g>
	<g
   id="XMLID_1129_">
		<g
   id="XMLID_1130_">
			<g
   id="XMLID_1131_">
				<g
   id="XMLID_1132_">
					<g
   id="XMLID_1133_">
						<g
   id="XMLID_1134_">
							<g
   id="XMLID_1135_">
								<ellipse
   id="XMLID_1136_"
   class="st4"
   cx="1360.8"
   cy="-485.70001"
   rx="0.5"
   ry="7" />
							</g>
						</g>
					</g>
				</g>
			</g>
		</g>
	</g>
	<g
   id="XMLID_1137_">
		<g
   id="XMLID_1138_">
			<g
   id="XMLID_1139_">
				<g
   id="XMLID_1140_">
					<g
   id="XMLID_1141_">
						<g
   id="XMLID_1142_">
							<g
   id="XMLID_1143_">
								
									<ellipse
   id="XMLID_1144_"
   transform="matrix(0.7071,-0.7071,0.7071,0.7071,745.2671,846.0801)"
   class="st4"
   cx="1393.9"
   cy="-476.60001"
   rx="6.9000001"
   ry="0.5" />
							</g>
						</g>
					</g>
				</g>
			</g>
		</g>
	</g>
	<g
   id="XMLID_1145_">
		<g
   id="XMLID_1146_">
			<g
   id="XMLID_1147_">
				<g
   id="XMLID_1148_">
					<g
   id="XMLID_1149_">
						<g
   id="XMLID_1150_">
							<g
   id="XMLID_1151_">
								<path
   id="XMLID_1152_"
   class="st4"
   d="m 1421.1,-457.2 c 0.1,0.3 -2.5,1.9 -5.7,3.8 -3.2,2 -5.9,3.6 -6.1,3.3 -0.2,-0.2 2.2,-2.3 5.5,-4.3 3.2,-1.9 6.1,-3 6.3,-2.8 z" />
							</g>
						</g>
					</g>
				</g>
			</g>
		</g>
	</g>
	<g
   id="XMLID_1153_">
		<g
   id="XMLID_1154_">
			<g
   id="XMLID_1155_">
				<g
   id="XMLID_1156_">
					<g
   id="XMLID_1157_">
						<g
   id="XMLID_1158_">
							<g
   id="XMLID_1159_">
								<ellipse
   id="XMLID_1160_"
   class="st4"
   cx="1424.5"
   cy="-421.10001"
   rx="9.6000004"
   ry="0.5" />
							</g>
						</g>
					</g>
				</g>
			</g>
		</g>
	</g>
	<g
   id="XMLID_1161_">
		<g
   id="XMLID_1162_">
			<g
   id="XMLID_1163_">
				<g
   id="XMLID_1164_">
					<g
   id="XMLID_1165_">
						<g
   id="XMLID_1166_">
							<g
   id="XMLID_1167_">
								<ellipse
   id="XMLID_1168_"
   class="st4"
   cx="1292.5"
   cy="-422.39999"
   rx="9"
   ry="0.5" />
							</g>
						</g>
					</g>
				</g>
			</g>
		</g>
	</g>
	<g
   id="XMLID_1169_">
		<g
   id="XMLID_1170_">
			<g
   id="XMLID_1171_">
				<g
   id="XMLID_1172_">
					<g
   id="XMLID_1173_">
						<g
   id="XMLID_1174_">
							<g
   id="XMLID_1175_">
								<path
   id="XMLID_1176_"
   class="st4"
   d="m 1310.9,-395.6 c 0.2,0.2 -2.9,3 -6.8,6.2 -4,3.2 -7.3,5.6 -7.5,5.3 -0.2,-0.2 2.9,-3 6.8,-6.2 4,-3.1 7.3,-5.5 7.5,-5.3 z" />
							</g>
						</g>
					</g>
				</g>
			</g>
		</g>
	</g>
	<g
   id="XMLID_1177_">
		<g
   id="XMLID_1178_">
			<g
   id="XMLID_1179_">
				<g
   id="XMLID_1180_">
					<g
   id="XMLID_1181_">
						<g
   id="XMLID_1182_">
							<g
   id="XMLID_1183_">
								<path
   id="XMLID_1184_"
   class="st4"
   d="m 1334.1,-374.8 c 0.2,0.2 -2,3.7 -4.6,8 -2.6,4.4 -4.6,8 -4.9,7.9 -0.3,-0.1 1.3,-4 4,-8.4 2.5,-4.5 5.2,-7.7 5.5,-7.5 z" />
							</g>
						</g>
					</g>
				</g>
			</g>
		</g>
	</g>
	<g
   id="XMLID_1185_">
		<g
   id="XMLID_1186_">
			<g
   id="XMLID_1187_">
				<g
   id="XMLID_1188_">
					<g
   id="XMLID_1189_">
						<g
   id="XMLID_1190_">
							<g
   id="XMLID_1191_">
								<ellipse
   id="XMLID_1192_"
   class="st4"
   cx="1360.8"
   cy="-357.60001"
   rx="0.5"
   ry="9.6000004" />
							</g>
						</g>
					</g>
				</g>
			</g>
		</g>
	</g>
	<g
   id="XMLID_1193_">
		<g
   id="XMLID_1194_">
			<g
   id="XMLID_1195_">
				<g
   id="XMLID_1196_">
					<g
   id="XMLID_1197_">
						<g
   id="XMLID_1198_">
							<g
   id="XMLID_1199_">
								<path
   id="XMLID_1200_"
   class="st4"
   d="m 1402,-360.8 c -0.2,0.2 -3.9,-1.9 -7.9,-5.4 -4,-3.5 -6.6,-6.9 -6.4,-7.1 0.2,-0.2 3.2,2.8 7.1,6.3 4,3.4 7.4,5.9 7.2,6.2 z" />
							</g>
						</g>
					</g>
				</g>
			</g>
		</g>
	</g>
	<g
   id="XMLID_1201_">
		<g
   id="XMLID_1202_">
			<g
   id="XMLID_1203_">
				<g
   id="XMLID_1204_">
					<g
   id="XMLID_1205_">
						<g
   id="XMLID_1206_">
							<g
   id="XMLID_1207_">
								
									<ellipse
   id="XMLID_1208_"
   transform="matrix(0.7071,0.7071,-0.7071,0.7071,140.5056,-1114.3767)"
   class="st4"
   cx="1415.4"
   cy="-387.60001"
   rx="8.3999996"
   ry="0.5" />
							</g>
						</g>
					</g>
				</g>
			</g>
		</g>
	</g>
	<g
   id="XMLID_1209_">
		<g
   id="XMLID_1210_">
			<g
   id="XMLID_1211_">
				<g
   id="XMLID_1212_">
					<g
   id="XMLID_1213_">
						<g
   id="XMLID_1214_">
							<g
   id="XMLID_1215_">
								
									<ellipse
   id="XMLID_1216_"
   transform="matrix(0.7071,0.7071,-0.7071,0.7071,61.6348,-1055.4407)"
   class="st4"
   cx="1304.8"
   cy="-453.29999"
   rx="7.4000001"
   ry="0.5" />
							</g>
						</g>
					</g>
				</g>
			</g>
		</g>
	</g>
	<g
   id="XMLID_1217_">
		<g
   id="XMLID_1218_">
			<g
   id="XMLID_1219_">
				<g
   id="XMLID_1220_">
					<g
   id="XMLID_1221_">
						<g
   id="XMLID_1222_">
							<g
   id="XMLID_1223_">
								
									<ellipse
   id="XMLID_1224_"
   transform="matrix(0.7087,0.7055,-0.7055,0.7087,49.6061,-1076.8197)"
   class="st4"
   cx="1328.8"
   cy="-478.29999"
   rx="7.1999998"
   ry="0.5" />
							</g>
						</g>
					</g>
				</g>
			</g>
		</g>
	</g>
	<g
   id="XMLID_1225_">
		<g
   id="XMLID_1226_">
			<g
   id="XMLID_1227_">
				<g
   id="XMLID_1228_">
					<path
   id="XMLID_1229_"
   class="st5"
   d="m 1707.3,661.9 c 0,0.1 -1.1,0.1 -3.3,0.2 -2.3,0.1 -5.4,0.1 -9.3,0.2 -8.3,0.1 -20,0.2 -34.4,0.3 -29.2,0.1 -69.2,0.2 -113.3,0.3 -2.8,0 -5.5,0 -8.1,0 h -1.1 v -1.1 c 0.1,-42.3 0.2,-80.3 0.3,-107.9 0.1,-13.6 0.3,-24.6 0.3,-32.4 0.1,-3.7 0.1,-6.6 0.2,-8.8 0.1,-2 0.1,-3.1 0.2,-3.1 0.1,0 0.1,1.1 0.2,3.1 0,2.2 0.1,5.1 0.2,8.8 0.1,7.9 0.2,18.9 0.3,32.4 0.1,27.6 0.2,65.6 0.3,107.9 l -1.1,-1.1 c 2.6,0 5.3,0 8.1,0 44.2,0.1 84.1,0.2 113.3,0.3 14.3,0.1 26,0.3 34.4,0.3 3.9,0.1 7,0.2 9.3,0.2 2.3,0.2 3.5,0.3 3.5,0.4 z" />
				</g>
			</g>
		</g>
		<g
   id="XMLID_1230_">
			<g
   id="XMLID_1231_">
				<g
   id="XMLID_1232_">
					<path
   id="XMLID_1233_"
   class="st5"
   d="m 1688.6,546.6 c 0.1,0.1 -1.7,1.8 -5,4.8 -3.6,3.2 -8.4,7.4 -14.2,12.5 -12.1,10.5 -28.8,24.8 -47.4,40.6 l -2.8,2.4 -0.7,0.6 -0.7,-0.6 c -7.4,-6.9 -14.5,-13.5 -21.1,-19.6 h 1.3 c -12.4,10.2 -23.1,19 -31,25.5 -3.6,2.9 -6.6,5.3 -9,7.2 -2.1,1.6 -3.3,2.5 -3.4,2.4 -0.1,-0.1 1,-1.1 2.9,-2.9 2.3,-2 5.1,-4.5 8.6,-7.6 7.8,-6.7 18.3,-15.7 30.5,-26.1 l 0.7,-0.6 0.7,0.6 c 6.6,6.1 13.7,12.6 21.2,19.5 h -1.4 l 2.8,-2.4 c 18.6,-15.7 35.5,-29.9 47.8,-40.1 6,-4.9 10.9,-8.9 14.7,-12 3.4,-2.9 5.4,-4.3 5.5,-4.2 z" />
				</g>
			</g>
		</g>
		<g
   id="XMLID_1234_">
			<g
   id="XMLID_1235_">
				<g
   id="XMLID_1236_">
					<path
   id="XMLID_1237_"
   class="st5"
   d="m 1688.6,581.8 c -0.3,0 -0.5,-4 -0.7,-10.5 -0.2,-6.5 -0.3,-15.5 -0.3,-25.6 l 1.1,1.1 c -0.6,0 -1.2,0 -1.8,0 -10.5,0 -20,-0.1 -26.8,-0.3 -6.8,-0.2 -11.1,-0.5 -11.1,-0.8 0,-0.3 4.2,-0.6 11.1,-0.8 6.9,-0.2 16.3,-0.3 26.8,-0.3 0.6,0 1.2,0 1.8,0 h 1.1 v 1.1 c 0,10.1 -0.1,19.1 -0.3,25.6 -0.4,6.5 -0.7,10.5 -0.9,10.5 z" />
				</g>
			</g>
		</g>
	</g>
</g>
</svg>
