<?xml version="1.0" encoding="UTF-8" standalone="no"?>
<svg
   xmlns:dc="http://purl.org/dc/elements/1.1/"
   xmlns:cc="http://creativecommons.org/ns#"
   xmlns:rdf="http://www.w3.org/1999/02/22-rdf-syntax-ns#"
   xmlns:svg="http://www.w3.org/2000/svg"
   xmlns="http://www.w3.org/2000/svg"
   version="1.1"
   id="Layer_1"
   x="0px"
   y="0px"
   viewBox="0 0 430.84973 447.48251"
   xml:space="preserve"
   width="430.84973"
   height="447.48251"><metadata
   id="metadata127"><rdf:RDF><cc:Work
       rdf:about=""><dc:format>image/svg+xml</dc:format><dc:type
         rdf:resource="http://purl.org/dc/dcmitype/StillImage" /><dc:title></dc:title></cc:Work></rdf:RDF></metadata><defs
   id="defs125" />
<style
   type="text/css"
   id="style2">
	.st0{fill:none;stroke:#CADFFD;stroke-miterlimit:10;stroke-dasharray:1;}
	.st1{fill:#EAF4FE;}
	.st2{fill:#386CF7;}
	.st3{fill:#3F0D8B;}
	.st4{fill:#3F11A1;}
	.st5{fill:#D58E76;}
	.st6{fill:#FCFCFC;}
	.st7{fill:#DCEAF8;}
	.st8{fill:#3D6AF2;}
	.st9{fill:#00046D;}
	.st10{fill:none;stroke:#D7D0FA;stroke-width:0.25;stroke-miterlimit:10;}
	.st11{fill:#1B2E75;}
	.st12{fill:#B5B5B5;}
	.st13{fill:#3B8CFF;}
	.st14{fill:#336EF5;}
	.st15{fill:#0878FF;}
	.st16{fill:#FFFFFF;}
	.st17{fill:#010569;}
	.st18{fill:#0A0A0A;}
	.st19{fill:none;stroke:#EEEDF6;stroke-width:0.25;stroke-miterlimit:10;}
	.st20{fill:#FE2326;}
</style>
<g
   id="g120"
   transform="translate(-94.752489,-162.25579)">
	<path
   class="st0"
   d="m 307.94,288.62 c 0,0 188.79,-0.63 206.27,68.9 17.48,69.53 -16.93,161.46 -191.32,103.57"
   id="path4" />
	<path
   class="st0"
   d="m 150.3,276.28 c 0,0 122.75,-198.67 208.45,-70.38 85.7,128.29 -62.05,163.4 -62.05,163.4 H 167.47"
   id="path6" />
	<path
   class="st1"
   d="m 246.21,259.39 c 0,0 59.32,62.93 124.64,23.69 65.32,-39.24 90.29,-6.58 97.01,7.83 6.72,14.41 0,48.03 0,48.03 0,0 -6.1,28.82 31.05,48.03 37.15,19.21 51.06,127.56 -63.95,168 -115.01,40.44 -166.1,99.8 -272.63,0 C 55.8,455.17 107.1,308.82 107.1,308.82 c 0,0 49.05,-99.2 139.11,-49.43 z"
   id="path8" />
	<path
   class="st2"
   d="m 389.44,311.28 c 0,0 16.36,1.92 17.11,-11.17 0.75,-13.08 -0.8,-18.56 9.63,-15.82 10.44,2.74 12.93,2.4 18.54,-3.04 5.61,-5.44 16.82,5.37 16.82,5.37 0,0 6.8,13.49 -3.14,15.98 -9.94,2.49 -9.24,13.04 -9.24,13.04 0,0 9.5,11.89 -13.98,8.15 0,0 -11.43,4.36 -10.6,20.56 0.83,16.2 10.8,6.85 13.29,4.98 2.49,-1.87 8.1,-7.45 13.71,4.38 5.61,11.83 12.24,0 12.24,0 0,0 8.32,-5 9.57,8.71 1.25,13.71 -12.46,11.42 -12.46,11.42 0,0 -11.68,2.49 -11.76,9.55 -0.08,7.06 -7.89,6.65 -12.71,0 -4.82,-6.65 -8.72,-12.05 -17.98,0 -9.26,12.05 -17.52,-0.21 -23.99,-7.48 -6.47,-7.27 -7.12,-60.28 -7.12,-60.28 z"
   id="path10" />
	<path
   class="st2"
   d="m 230.56,272.07 c 0,0 -10.8,-31.71 -10.49,-41.09 0,0 -1.87,-8.13 3.12,-4.08 0,0 5.92,5.76 2.96,-2.8 -2.96,-8.57 -5.92,-15.73 -2.02,-19.63 3.89,-3.89 41.18,19 48.94,41.12 7.76,22.12 3.97,26.48 3.97,26.48 z"
   id="path12" />
	<path
   class="st3"
   d="m 389.44,367.19 c 0,0 30.28,-4.98 49.72,2.08 0,0 -32.84,-8.31 -52.11,-4.15"
   id="path14" />
	<path
   class="st4"
   d="m 224.12,204.16 22.43,45.79 c 0,0 11.53,-9.94 8.1,-26.78 l -2.49,-2.28 c 0,0 3.12,18.78 -5.61,25.01 l -1.25,-3.43 c 0,0 6.54,-9.35 4.67,-23.36 l -2.49,-1.25 c 0,0 3.74,14.95 -4.05,22.12 -2.17,-5.91 -19.31,-35.82 -19.31,-35.82 z"
   id="path16" />
	<path
   class="st4"
   d="m 222.63,229.52 c 0,0 21.18,22.85 23.68,23.78 v 3.01 c 0,0 -23.05,-23.47 -25.23,-26.79 -2.19,-3.32 1.55,0 1.55,0 z"
   id="path18" />
	<polygon
   class="st3"
   points="384.48,335.94 384.48,330.64 439.16,293.26 419.52,308.59 "
   id="polygon20" />
	<path
   d="m 356.42,189.21 c 0,0 2.44,-8.88 0.88,-13.24 0,0 -1.07,-8.57 9.59,-8.88 10.66,-0.31 14.68,5.61 14.68,5.61 0,0 1.84,4.52 0,6.07 -1.84,1.55 -3.4,4.98 -3.4,4.98 0,0 -2.96,5.3 -7.63,4.83 -4.67,-0.47 -14.02,1.23 -14.02,1.23"
   id="path22" />
	<path
   class="st5"
   d="m 356.42,189.21 c 0,0 7.89,-1.25 8.52,-3.27 0.62,-2.02 -2.18,-10.9 8.88,-8.26 0,0 7.32,2.02 0.93,12.77 -0.78,0.93 -3.74,2.96 -8.88,2.34 l -2.02,2.51 -5.62,0.76 z"
   id="path24" />
	<path
   class="st2"
   d="m 243.44,254.63 v 262.93 c 0,0 -1.04,11.22 12.88,11.22 13.92,0 119.21,0 119.21,0 0,0 10.59,0.62 13.08,-11.84 2.49,-12.46 0,-264.8 0,-264.8 0,0 -1.25,-14.33 -21.81,-9.35 l -19.31,1.87 -95.33,0.62 c 0,0 -8.72,3.12 -8.72,9.35 z"
   id="path26" />
	<path
   class="st6"
   d="M 379.11,512.78 H 255.64 c -1.23,0 -2.24,-1 -2.24,-2.24 V 259.97 c 0,-1.23 1,-2.24 2.24,-2.24 H 379.1 c 1.23,0 2.24,1 2.24,2.24 v 250.57 c 0,1.24 -1,2.24 -2.23,2.24 z"
   id="path28" />
	<path
   class="st7"
   d="m 367.57,276.43 h -85.65 c -0.26,0 -0.48,-0.21 -0.48,-0.48 v -4.65 c 0,-0.26 0.21,-0.48 0.48,-0.48 h 85.65 c 0.26,0 0.48,0.21 0.48,0.48 v 4.65 c 0,0.27 -0.21,0.48 -0.48,0.48 z"
   id="path30" />
	<path
   class="st7"
   d="m 369.15,369.27 h -105 c -0.2,0 -0.35,-0.16 -0.35,-0.35 v -3.44 c 0,-0.2 0.16,-0.35 0.35,-0.35 h 105 c 0.2,0 0.35,0.16 0.35,0.35 v 3.44 c 0,0.19 -0.15,0.35 -0.35,0.35 z"
   id="path32" />
	<path
   class="st7"
   d="m 368.97,375.94 h -105 c -0.2,0 -0.35,-0.16 -0.35,-0.35 v -3.44 c 0,-0.2 0.16,-0.35 0.35,-0.35 h 105 c 0.2,0 0.35,0.16 0.35,0.35 v 3.44 c 0,0.19 -0.16,0.35 -0.35,0.35 z"
   id="path34" />
	<path
   class="st7"
   d="M 339.75,381.86 H 263.9 c -0.16,0 -0.29,-0.13 -0.29,-0.29 v -2.84 c 0,-0.16 0.13,-0.29 0.29,-0.29 h 75.85 c 0.16,0 0.29,0.13 0.29,0.29 v 2.84 c 0,0.16 -0.13,0.29 -0.29,0.29 z"
   id="path36" />
	<circle
   class="st8"
   cx="316.64999"
   cy="410.23999"
   r="13.76"
   id="circle38" />
	<circle
   class="st9"
   cx="277.03"
   cy="410.23999"
   r="13.76"
   id="circle40" />
	<circle
   class="st10"
   cx="353.38"
   cy="410.73001"
   r="15.24"
   id="circle42" />
	<path
   d="m 374.78,277.56 2.1,0.24 1.76,0.2 5.4,11.11 c 0,0 3.32,6.02 -8.31,-3.32 -4,-3.21 -5.36,-4.27 -5.43,-4.26 -0.13,0 4.47,3.85 4.47,3.85 l -5.49,-4.78 c 0,0 -0.42,-1.7 4.15,-3.03"
   id="path44" />
	<path
   class="st11"
   d="m 342.51,230.02 c 0,0 -2.18,14.02 5.92,15.58 h 29.6 3.74 l -7.17,30.84 c 0,0 -0.31,3.43 4.05,1.56 l 10.28,-18.07 4.36,18.63 h 6.54 l -3.74,-31.09 -0.31,-15.26 -26.27,-2.18 h -27 z"
   id="path46" />
	<path
   class="st8"
   d="m 369.5,229.91 c 0,0 4.36,-32.81 -4.78,-34.68 0,0 -7.27,1.25 -8.31,-6.02 0,0 -9.14,5.61 -10.18,13.5 -1.04,7.89 -3.74,27.31 -3.74,27.31 z"
   id="path48" />
	<path
   class="st5"
   d="m 353.1,210.8 h 8.31 v 11.84 l 17.03,2.7 c 0,0 5.61,-4.98 8.93,0 3.32,4.98 1.66,4.67 1.66,4.67 0,0 -5.83,1.14 -8.1,0.95 -2.27,-0.19 -21.81,-0.95 -21.81,-0.95 0,0 -4.98,-0.31 -6.02,-6.96 -1.04,-6.64 0,-12.25 0,-12.25 z"
   id="path50" />
	<path
   class="st12"
   d="m 389.03,230.02 h 4.98 l 9.76,-15.06 c 0,0 3.32,-3.32 2.7,2.08 l -9.76,15.37 -15.14,-1.42 z"
   id="path52" />
	<path
   d="m 393.28,278.55 c 0.34,-0.76 6.54,0 6.54,0 l 7.58,4.63 c 0,0 2.39,1.16 0,1.1 -2.39,-0.06 -15.06,0 -15.06,0 0,0 -1.55,-0.08 0.94,-5.73 z"
   id="path54" />
	<path
   d="m 425.18,416.21 c 0,0 8.92,-2.49 11.83,-6.85 2.91,-4.36 11.4,3.43 11.4,3.43 0,0 13.11,14.43 23.08,13.19 0,0 4.15,-0.34 3.74,4.19 -0.42,4.53 21.18,1.73 20.56,-10.37 -0.62,-12.1 0.01,-15.01 0.01,-15.01 0,0 -1.67,-7.27 -9.57,0 -7.89,7.27 -23.05,-1.19 -23.05,-1.19 0,0 -8.93,-9.33 -21.6,-3.86 -1.66,0.49 -5.82,1.01 -7.06,-4.24 -1.25,-5.24 -16.3,-0.5 -14.9,5.44 1.4,5.94 5.56,15.27 5.56,15.27 z"
   id="path56" />
	<path
   class="st5"
   d="m 418.83,415.38 c 0,0 -0.62,4.98 0,6.54 0.62,1.56 12.15,0 12.15,0 V 419 c 0,0 -6.85,-2.01 -4.05,-8.26 0,0 1.32,-16.54 -8.38,-9.06 -9.69,7.48 -4.08,14.02 -4.08,14.02 0,0 2.49,2.17 4.36,-0.32 z"
   id="path58" />
	<path
   class="st9"
   d="m 416.18,450.48 4.34,95.74 h 6.93 l 6.23,-58.15 10.38,12.05 c 0,0 5.82,6.44 13.71,-1.76 7.89,-8.2 22.85,-30.22 22.85,-30.22 0,0 -2.08,-2.49 -6.65,-1.25 l -21.18,19.52 c 0,0 -2.96,5.19 -4.39,-2.91 -1.43,-8.1 -9.42,-33.02 -9.42,-33.02 z"
   id="path60" />
	<path
   class="st13"
   d="m 411.19,427.86 c 0,0 6.9,-3.78 8.05,-6.67 0,0 8.52,1.56 11.22,-1.14 0,0 8.1,-3.32 8.52,13.81 0.42,17.13 0,16.61 0,16.61 h -22.79 l -0.31,-8.62 -3.12,-9.81 z"
   id="path62" />
	<path
   class="st5"
   d="m 397.44,432.04 8.67,7.01 c 0,0 0.73,2.18 4.16,0 3.43,-2.18 5.45,-4.72 5.45,-4.72 0,0 7.32,0.12 3.89,5.69 l -7.94,5.11 c 0,0 -1.87,4.05 -6.85,-0.78 -4.98,-4.83 -10.9,-11.37 -10.9,-11.37 z"
   id="path64" />
	<path
   class="st5"
   d="m 400.36,430.94 c 0.55,-0.47 3.83,3.39 3.83,3.39 0,0 1.14,2.44 4.88,1.71 l 5.5,-1.71 -1.25,-7.32 c 0,0 -6.96,3.74 -10.07,-1.04 -3.11,-4.78 -5.82,1.35 -5.82,1.35"
   id="path66" />
	<path
   d="m 420.94,545.23 c -1.66,0 -11.24,3.14 -10.66,3.57 0.57,0.43 17.24,0.57 17.24,0.57 l -0.19,-4.14 z"
   id="path68" />
	<path
   d="m 474.49,466.89 c 0,0 4.11,-1.65 5.72,1.24 0,0 6.08,-1.24 7.15,0 1.07,1.24 1.79,-7.84 -12.88,-5.99 v 4.75 z"
   id="path70" />
	<path
   class="st9"
   d="m 192.04,410.73 14.02,65.08 h 9.03 l -4.98,-92.42 H 177.4 v 93.67 c 0,0 10.59,2.18 10.28,0 -0.31,-2.18 7.63,-61.22 7.63,-61.22"
   id="path72" />
	<path
   class="st5"
   d="m 221.84,335.94 c 0,0 -9.7,2.36 -11.19,7.56 -1.48,5.21 -8.34,0 -8.34,0 0,0 4.5,-5.18 5.26,-10.99 l 13.02,3.43"
   id="path74" />
	<path
   d="m 178.64,482.04 h 17.6 l -8.57,-4.98 h -10.28 c 0,0 -2.8,4.98 1.25,4.98 z"
   id="path76" />
	<path
   d="m 207.38,482.04 h 17.6 l -8.57,-6.7 h -10.28 c 0.01,0.01 -2.8,6.7 1.25,6.7 z"
   id="path78" />
	<path
   class="st5"
   d="m 216.96,352.45 3.43,3.74 10.59,-12.46 v -5.92 l 12.46,3.43 c 0,0 -7.48,3.12 -9.35,7.17 -1.87,4.05 -10.9,16.72 -10.9,16.72 0,0 -1.87,5.5 -10.59,-5.45 -8.72,-10.96 -3.43,-10.96 -3.43,-10.96 z"
   id="path80" />
	<polygon
   class="st14"
   points="277.03,349.33 292.87,278.55 184.01,259.2 169.09,327.78 "
   id="polygon82" />
	<path
   class="st15"
   d="m 189.23,335.94 c 0,0 -16.82,5.5 -11.84,47.46 h 32.71 v -25.65 l 2.49,1.92 4.36,-7.22 c 0,0 -4.67,-11.47 -15.26,-13.92 0,0 -10.9,0.83 -12.46,-2.59 z"
   id="path84" />
	<polygon
   class="st16"
   points="287.47,281.25 189.23,260.86 173.66,322.75 173.66,324.82 273.06,344.35 "
   id="polygon86" />
	<path
   class="st17"
   d="m 186.12,317.87 81,18.07 c 0,0 9.66,-26.17 4.36,-43.3 -5.3,-17.13 -18.07,7.79 -18.07,7.79 0,0 -6.23,19.63 -12.46,1.87 -6.23,-17.76 -22.43,-3.74 -22.43,-3.74 0,0 -5.92,18.07 -18.38,4.67 -12.47,-13.4 -14.02,14.64 -14.02,14.64 z"
   id="path88" />
	<path
   class="st18"
   d="m 204.96,316.47 2.34,-8.67 c 0,0 -36.55,0.83 -18.07,23.68"
   id="path90" />
	<path
   class="st5"
   d="m 198.42,333.76 c 0,0 -1.15,1.71 2.31,4.83 0,0 -8.23,4.36 -11.5,-2.65 v -6.39 c 0,0 1.25,-17.91 15.73,-13.08 0,0 2.02,14.02 -1.25,14.64 -3.26,0.62 -3.96,-2.49 -5.29,2.65 z"
   id="path92" />
	<circle
   class="st17"
   cx="204.45"
   cy="283.82999"
   r="9.1899996"
   id="circle94" />
	<polyline
   class="st3"
   points="434.09,314.6 433.15,314.29 418.32,309.52 416.71,310.78  "
   id="polyline96" />
	<path
   class="st3"
   d="m 417.99,307.73 c 0.15,-0.1 -1.28,-14.48 -1.28,-14.48 v 15.35"
   id="path98" />
	<circle
   class="st11"
   cx="277.03"
   cy="488.69"
   r="9.1400003"
   id="circle100" />
	<circle
   class="st8"
   cx="277.03"
   cy="449.62"
   r="9.1400003"
   id="circle102" />
	<path
   class="st7"
   d="m 363.18,446.72 h -72.09 c -0.17,0 -0.3,-0.13 -0.3,-0.3 v -2.91 c 0,-0.17 0.13,-0.3 0.3,-0.3 h 72.09 c 0.17,0 0.3,0.13 0.3,0.3 v 2.91 c 0,0.16 -0.13,0.3 -0.3,0.3 z"
   id="path104" />
	<path
   class="st7"
   d="m 338.93,454.84 h -47.84 c -0.17,0 -0.3,-0.13 -0.3,-0.3 v -2.91 c 0,-0.17 0.13,-0.3 0.3,-0.3 h 47.84 c 0.17,0 0.3,0.13 0.3,0.3 v 2.91 c 0,0.16 -0.13,0.3 -0.3,0.3 z"
   id="path106" />
	<path
   class="st7"
   d="m 338.93,495.34 h -47.84 c -0.17,0 -0.3,-0.13 -0.3,-0.3 v -2.91 c 0,-0.17 0.13,-0.3 0.3,-0.3 h 47.84 c 0.17,0 0.3,0.13 0.3,0.3 v 2.91 c 0,0.16 -0.13,0.3 -0.3,0.3 z"
   id="path108" />
	<path
   class="st7"
   d="m 363.18,487.22 h -72.09 c -0.17,0 -0.3,-0.13 -0.3,-0.3 v -2.91 c 0,-0.17 0.13,-0.3 0.3,-0.3 h 72.09 c 0.17,0 0.3,0.13 0.3,0.3 v 2.91 c 0,0.16 -0.13,0.3 -0.3,0.3 z"
   id="path110" />
	<path
   class="st19"
   d="M 368.68,506.34 H 266.07 c -1.54,0 -2.79,-1.25 -2.79,-2.79 v -27.12 c 0,-1.54 1.25,-2.79 2.79,-2.79 h 102.62 c 1.54,0 2.79,1.25 2.79,2.79 v 27.12 c 0,1.54 -1.25,2.79 -2.8,2.79 z"
   id="path112" />
	<path
   class="st19"
   d="M 368.27,466.83 H 265.65 c -1.54,0 -2.79,-1.25 -2.79,-2.79 v -27.12 c 0,-1.54 1.25,-2.79 2.79,-2.79 h 102.62 c 1.54,0 2.79,1.25 2.79,2.79 v 27.12 c 0,1.54 -1.25,2.79 -2.79,2.79 z"
   id="path114" />
	<path
   class="st11"
   d="m 437.81,399.73 c 0,0 0.43,8.24 -0.19,8.93 -0.62,0.69 3.33,0.65 3.73,-0.32 0.4,-0.97 0.21,-8.61 0.21,-8.61 0,0 -2.63,-1.34 -3.75,0 z"
   id="path116" />
	<circle
   class="st20"
   cx="390.73999"
   cy="418.95999"
   r="15.37"
   id="circle118" />
</g>
</svg>
