<svg viewBox="0 0 961 755" xmlns="http://www.w3.org/2000/svg" fill-rule="evenodd" clip-rule="evenodd" stroke-linejoin="round" stroke-miterlimit="2">
    <g transform="translate(-108.495)">
        <clipPath id="a">
            <path d="M0 0h1139.58v754.421H0z"/>
        </clipPath>
        <g clip-path="url(#a)">
            <path d="M459.113 63.657c-5.567-.08-11.158-.096-16.629-.117l-2.729.004-.021-4.166 2.746-.005c5.533-.054 11.104.038 16.691.117l-.058 4.167zm-54.188.675l-.191-4.159c6.425-.3 12.908-.504 19.446-.629l.083 4.167c-6.5.125-12.95.329-19.338.621m89.063.141c-6.479-.2-12.938-.379-19.375-.525l.092-4.166c6.45.146 12.925.325 19.408.525l-.125 4.166zm190.112.004l-.075-4.166c6.474-.119 12.95-.194 19.425-.225l.021 4.167c-6.587.029-13.054.112-19.371.224m54.246.059c-6.529-.15-13-.242-19.379-.279l.029-4.167c6.4.037 12.892.129 19.45.279l-.1 4.167zm-89.112.921l-.15-4.167c6.233-.229 12.716-.442 19.408-.625l.113 4.167c-6.68.183-13.15.396-19.371.625m-120.354.171l-19.388-.655.142-4.166 19.383.654-.137 4.167zm244.316.283c-6.448-.369-12.9-.674-19.354-.913l.154-4.166c6.446.241 12.934.546 19.442.921l-.242 4.158zm-209.391.716c-6.45-.137-12.921-.312-19.405-.504l.121-4.166c6.471.191 12.938.366 19.375.504l-.091 4.166zm50.512.121l-.092-4.166c4.987-.111 9.972-.275 14.955-.492l4.391-.187.171 4.166-4.379.183c-4.983.221-10 .384-15.046.496m-20.958.225c-4.659 0-9.334-.029-14.021-.087l.05-4.167c4.671.058 9.329.088 13.967.088l5.391-.017.021 4.167-5.408.016zm-223.113.05l-.466-4.146c6.179-.695 12.708-1.3 19.4-1.783l.304 4.159a472.921 472.921 0 00-19.238 1.77m437.725 1.617a740.838 740.838 0 00-19.287-1.692l.312-4.158a754.124 754.124 0 0119.396 1.708l-.421 4.142zM335.98 72.465l-.863-4.075a336.664 336.664 0 0119.2-3.471l.629 4.117a336.736 336.736 0 00-18.966 3.429m506.52.583a614.327 614.327 0 00-19.158-2.687l.513-4.134a599.102 599.102 0 0119.291 2.705l-.646 4.116zm34.155 6.58a449.293 449.293 0 00-18.909-3.959l.767-4.096a465.01 465.01 0 0119.087 3.992l-.945 4.063zm-573.996 2.137l-1.4-3.925a245.726 245.726 0 0118.662-5.808l1.084 4.02a242.521 242.521 0 00-18.346 5.713m607.404 7.3a320.883 320.883 0 00-18.433-5.65l1.104-4.021a332.171 332.171 0 0118.671 5.721l-1.342 3.95zm-638.746 7.021l-2.075-3.613a186.45 186.45 0 0117.475-8.837l1.688 3.808a183.43 183.43 0 00-17.088 8.642m670.675 6.292c-5.467-2.788-11.35-5.463-17.492-7.946l1.567-3.867a229.282 229.282 0 0117.817 8.1l-1.892 3.713zm-698.487 13.841l-2.796-3.092a161.976 161.976 0 0115.312-12.233l2.4 3.409a157.972 157.972 0 00-14.916 11.916m727.408 4.746c-4.729-3.867-9.963-7.588-15.563-11.067l2.2-3.541c5.75 3.571 11.134 7.404 16 11.383l-2.637 3.225zm-750.146 20.933l-3.404-2.408a164.807 164.807 0 0112.254-15.283l3.088 2.8a159.068 159.068 0 00-11.938 14.891m773.146 4.217c-3.388-5.154-7.367-10.146-11.817-14.821l3.017-2.871c4.625 4.859 8.758 10.038 12.279 15.404l-3.479 2.288zM203.767 171.79l-3.796-1.717a192.309 192.309 0 018.934-17.395l3.6 2.091a188.027 188.027 0 00-8.738 17.021m803.533 5.463a98.27 98.27 0 00-6.09-17.896l3.8-1.717c2.71 6 4.83 12.245 6.35 18.65l-4.06.963zm-815.2 27.008l-4.012-1.121a244.389 244.389 0 015.975-18.583l3.912 1.429a242.24 242.24 0 00-5.875 18.275m822.03 7.225l-4.15-.254c.16-2.704.24-5.367.23-7.975 0-3.734-.16-7.45-.49-11.046l4.15-.384c.34 3.725.51 7.571.51 11.43 0 2.745-.08 5.489-.25 8.229m-829.313 26.6l-4.112-.65c1.037-6.559 2.25-13 3.608-19.154l4.067.895a326.958 326.958 0 00-3.563 18.909m823.433 8.171l-4.02-1.084c1.71-6.379 3.07-12.683 4.04-18.737l4.12.662c-1 6.192-2.39 12.638-4.14 19.159m-827.262 26.296l-4.158-.288a423.724 423.724 0 011.775-19.388l4.137.48a415.361 415.361 0 00-1.754 19.196m815.737 6.92l-3.841-1.612a282.042 282.042 0 006.858-17.979l3.948 1.341a283.896 283.896 0 01-6.965 18.25M179.83 307.282h-4.167c.004-6.592.121-13.142.354-19.467l4.163.154a538.368 538.368 0 00-.35 19.313m801.704 3.833l-3.671-1.971a399.258 399.258 0 008.717-17.212l3.762 1.791a401.868 401.868 0 01-8.808 17.392m-17.679 30.258l-3.53-2.221a532.38 532.38 0 0010.005-16.529l3.604 2.092a554.433 554.433 0 01-10.079 16.658m-787.063.959a264.857 264.857 0 01-.692-11.713c-.096-2.59-.176-5.18-.241-7.771l4.166-.104c.063 2.55.142 5.125.238 7.721.146 3.863.371 7.708.683 11.525l-4.154.342zm767.325 28.008l-3.337-2.487a398.164 398.164 0 0011.141-15.738l3.459 2.321a390.39 390.39 0 01-11.263 15.904m-762.25 6.742a279.481 279.481 0 01-3.371-19.23l4.125-.574a276.054 276.054 0 003.325 18.941l-4.079.863zM922.1 397.611l-3.145-2.733a483.584 483.584 0 0012.383-14.813l3.25 2.604a490.486 490.486 0 01-12.488 14.942m-730.858 13.362a299.767 299.767 0 01-5.717-18.704l4.025-1.083a295.915 295.915 0 005.634 18.446l-3.942 1.341zm707.071 12.359l-2.979-2.913a645.282 645.282 0 0013.312-14.021l3.067 2.825a658.433 658.433 0 01-13.4 14.109m-693.867 20.229a326.143 326.143 0 01-7.775-17.921l3.867-1.546a323.512 323.512 0 007.683 17.692l-3.775 1.775zm668.85 4.254l-2.858-3.033a929.298 929.298 0 0013.958-13.409l2.921 2.971a932.8 932.8 0 01-14.021 13.471m-25.779 23.642l-2.783-3.1c4.812-4.321 9.6-8.654 14.354-13.021l2.817 3.067a1675.858 1675.858 0 01-14.388 13.054m-626.533 3.133a363.89 363.89 0 01-9.567-17.033l3.688-1.938a362.488 362.488 0 009.454 16.838l-3.575 2.133zm600.408 20.067l-2.758-3.125 1.304-1.154c4.412-3.896 8.821-7.792 13.221-11.7l2.766 3.12c-4.404 3.905-8.812 7.805-13.225 11.705l-1.308 1.154zm-581.029 9.279a409.17 409.17 0 01-11.092-16.092l3.488-2.279a399.58 399.58 0 0010.979 15.921l-3.375 2.45zm554.946 13.908l-2.788-3.1c4.809-4.325 9.646-8.629 14.484-12.925l2.766 3.117c-4.834 4.288-9.655 8.59-14.462 12.908m-533.196 13.629a451.62 451.62 0 01-12.358-15.083l3.283-2.571c3.97 5.07 8.05 10.053 12.237 14.946l-3.162 2.708zm507.525 9.955l-2.863-3.03c4.709-4.441 9.455-8.845 14.234-13.22l2.816 3.066c-4.762 4.371-9.5 8.759-14.187 13.184m-483.717 15.82a467.677 467.677 0 01-13.462-14.1l3.071-2.816a466.947 466.947 0 0013.345 13.979l-2.954 2.937zm458.871 8.571l-2.983-2.908a775.255 775.255 0 0113.754-13.75l2.908 2.979a753.936 753.936 0 00-13.679 13.679m-433.275 15.429a498.765 498.765 0 01-14.429-13.116l2.858-3.025c4.663 4.4 9.479 8.775 14.313 13l-2.742 3.141zm409.692 10.142l-3.146-2.733c4.254-4.9 8.592-9.725 13.012-14.475l3.05 2.833a567.198 567.198 0 00-12.916 14.375m-382.496 12.017a512.705 512.705 0 01-15.3-12.079l2.646-3.226a498.812 498.812 0 0015.175 11.984l-2.521 3.321zm360.45 14.979l-3.213-2.654a321.716 321.716 0 005.675-7.088c2.105-2.712 4.246-5.4 6.413-8.062l3.233 2.629c-2.15 2.637-4.266 5.3-6.358 7.987a333.679 333.679 0 01-5.75 7.188m-331.746 5.233a492.35 492.35 0 01-16.125-10.979l2.413-3.396c5.22 3.708 10.6 7.371 15.987 10.883l-2.275 3.492zm30.188 17.954c-5.575-3-11.284-6.254-16.963-9.671l2.15-3.574a398.667 398.667 0 0016.783 9.574l-1.97 3.671zm277.229 2.246l-2.738-3.141c4.521-3.942 9.142-8.438 13.729-13.367l3.05 2.841c-4.687 5.034-9.408 9.634-14.041 13.667M429.43 656.577c-5.755-2.295-11.78-4.954-17.9-7.904l1.804-3.75c6.037 2.904 11.971 5.525 17.641 7.779l-1.545 3.875zm215.841 6.655l-1.708-3.8c5.642-2.538 11.037-5.6 16.504-9.371l2.363 3.437c-5.671 3.909-11.288 7.096-17.159 9.734m-181.796 3.008c-5.716-.746-12.191-2.229-19.245-4.408l1.229-3.984c6.829 2.113 13.071 3.546 18.554 4.259l-.538 4.133zm7.95.546l-.116-4.167c6.489-.177 12.98-.234 19.471-.171l-.042 4.167a522.465 522.465 0 00-19.313.171m54.075 1.208a641.493 641.493 0 00-19.308-1.012l.154-4.167c6.254.233 12.613.571 19.434 1.021l-.28 4.158zm34.759 2.792l-7.009-.6c-3.995-.342-8.095-.696-12.308-1.042l.338-4.15c4.22.342 8.329.696 12.325 1.042l7.004.6-.35 4.15zm50.708 1.212l-.387-4.15c6.712-.633 12.837-1.712 18.712-3.308l1.088 4.021c-6.105 1.654-12.455 2.783-19.413 3.437m-15.683.679c-5.734 0-11.934-.229-19.513-.712l.267-4.158c7.487.479 13.604.704 19.246.704v4.166z" fill="#bbd7fe" fill-rule="nonzero"/>
            <path d="M735.677-.001C603.352 3.153 528.573 87.274 459.469 187.983c-66.15 96.408-158.871 140.304-245.563 213.825-80.279 68.087-150.158 184.441-69.871 280.979 75.03 90.221 204.73 75.787 307.234 59.541 129.441-20.516 236.521.079 364.412 3 117.659 2.684 214.999-44.254 244.659-165.704 30.09-123.237-26.86-253.521-62.246-369.675C957.79 77.637 886.873-.001 735.677-.001c-82.225 1.963 75.846 0 0 0" fill="#eaf4fe" fill-rule="nonzero"/>
            <path d="M656.923 687.957H500.007l6.171-73.534 2.766-33.212h139.013l5.662 67.433 3.304 39.313z" fill="#0878ff" fill-rule="nonzero"/>
            <path d="M653.619 648.644l-150.812-30.85 6.137-36.584h139.013l5.662 67.434z" fill="#005eeb" fill-rule="nonzero"/>
            <path d="M685.553 709.861c-3.075-12.563-14.375-21.896-27.884-21.896H499.253c-13.509 0-24.813 9.333-27.884 21.896h214.184zm182.613-90.563H290.112c-7.23 0-13.092-5.863-13.092-13.092V220.089c0-7.229 5.862-13.091 13.092-13.091h578.054c7.229 0 13.092 5.862 13.092 13.091v386.117c0 7.229-5.863 13.092-13.092 13.092" fill="#006aff" fill-rule="nonzero"/>
            <path fill="#eaf4fe" d="M293.125 223.771h572.021v348.55H293.125z"/>
            <path d="M587.166 596.434c-.001 4.404-3.625 8.028-8.029 8.029h-.001c-4.405 0-8.03-3.625-8.03-8.03 0-4.405 3.625-8.03 8.03-8.03 4.405 0 8.03 3.625 8.03 8.03v.001" fill="#1f8fff" fill-rule="nonzero"/>
            <path d="M763.274 529.239c-12.979 0-23.537-10.559-23.537-23.538V127.622c0-12.979 10.558-23.542 23.537-23.542H929.82c12.979 0 23.538 10.563 23.538 23.542v378.079c0 12.979-10.559 23.538-23.538 23.538H763.274z" fill="#fff" fill-rule="nonzero"/>
            <path d="M820.216 336.26H786.32c-10.075 0-18.241-8.166-18.241-18.241v-33.896c0-10.075 8.166-18.242 18.241-18.242h33.896c10.075 0 18.242 8.167 18.242 18.242v33.896c0 10.075-8.167 18.241-18.242 18.241" fill="#bbd7fe" fill-rule="nonzero"/>
            <path d="M904.649 336.26h-33.896c-10.075 0-18.242-8.166-18.242-18.241v-33.896c0-10.075 8.167-18.242 18.242-18.242h33.896c10.075 0 18.241 8.167 18.241 18.242v33.896c0 10.075-8.166 18.241-18.241 18.241m-84.433 82.319H786.32c-10.075 0-18.241-8.167-18.241-18.242v-33.896c0-10.075 8.166-18.241 18.241-18.241h33.896c10.075 0 18.242 8.166 18.242 18.241v33.896c0 10.075-8.167 18.242-18.242 18.242" fill="#eaf4fe" fill-rule="nonzero"/>
            <path d="M904.649 418.579h-33.896c-10.075 0-18.242-8.167-18.242-18.242v-33.896c0-10.075 8.167-18.241 18.242-18.241h33.896c10.075 0 18.241 8.166 18.241 18.241v33.896c0 10.075-8.166 18.242-18.241 18.242m-84.433 82.319H786.32c-10.075 0-18.241-8.167-18.241-18.242V448.76c0-10.075 8.166-18.242 18.241-18.242h33.896c10.075 0 18.242 8.167 18.242 18.242v33.896c0 10.075-8.167 18.242-18.242 18.242" fill="#bbd7fe" fill-rule="nonzero"/>
            <path d="M904.649 500.898h-33.896c-10.075 0-18.242-8.167-18.242-18.242V448.76c0-10.075 8.167-18.242 18.242-18.242h33.896c10.075 0 18.241 8.167 18.241 18.242v33.896c0 10.075-8.166 18.242-18.241 18.242" fill="#fe2326" fill-rule="nonzero"/>
            <path d="M763.274 105.863c-12 0-21.758 9.758-21.758 21.758V505.7c0 11.996 9.758 21.759 21.758 21.759H929.82c12 0 21.758-9.763 21.758-21.759V127.621c0-12-9.758-21.758-21.758-21.758H763.274zm0 427.162c-15.066 0-27.325-12.258-27.325-27.325V127.621c0-15.066 12.259-27.325 27.325-27.325H929.82c15.067 0 27.325 12.259 27.325 27.325V505.7c0 15.067-12.258 27.325-27.325 27.325H763.274z" fill="#006aff" fill-rule="nonzero"/>
            <path d="M780.306 104.12v12.736c0 4.152 3.416 7.568 7.568 7.568H905.22c4.153 0 7.57-3.417 7.57-7.57V104.12H780.306zm24.093 52.481h-14.983a2.094 2.094 0 01-2.084-2.084c0-1.142.941-2.083 2.084-2.083h14.983a2.093 2.093 0 012.038 2.083 2.093 2.093 0 01-2.038 2.084m22.479 0h-14.987a2.093 2.093 0 01-2.038-2.084c0-1.126.912-2.058 2.038-2.083h14.987a2.093 2.093 0 012.038 2.083 2.093 2.093 0 01-2.038 2.084m22.48 0H834.37a2.093 2.093 0 01-2.038-2.084c0-1.126.912-2.058 2.038-2.083h14.987a2.093 2.093 0 012.039 2.084 2.093 2.093 0 01-2.038 2.083m22.474 0h-14.987a2.093 2.093 0 01-2.038-2.084c0-1.126.912-2.058 2.038-2.083h14.987l.046-.001c1.143 0 2.084.941 2.084 2.084a2.094 2.094 0 01-2.084 2.084h-.046m22.48 0h-14.988a2.093 2.093 0 01-2.038-2.084c0-1.126.912-2.058 2.038-2.083h14.988a2.093 2.093 0 012.038 2.083 2.093 2.093 0 01-2.038 2.084m22.475.025c-.046 0-.096 0-.142-.004l-.588-.021h-14.254a2.093 2.093 0 01-2.038-2.083c0-1.127.912-2.059 2.038-2.084h14.254c.292 0 .58.009.867.029a2.098 2.098 0 011.942 2.221 2.094 2.094 0 01-2.079 1.942m-148.5 4.283a2.093 2.093 0 01-2.079-2.083c0-.46.152-.907.433-1.271a13.07 13.07 0 0110.396-5.121h4.883c1.154 0 2.083.934 2.083 2.084s-.929 2.083-2.083 2.083h-4.883a8.923 8.923 0 00-7.096 3.5 2.094 2.094 0 01-1.654.808m158.804 12.596h-.002a2.09 2.09 0 01-2.081-2.081v-5.877a8.987 8.987 0 00-2.884-6.579 2.083 2.083 0 01-.68-1.539c0-1.142.94-2.082 2.082-2.082.528 0 1.037.201 1.423.562a13.16 13.16 0 014.225 9.638v5.875c0 1.15-.933 2.083-2.083 2.083m-161.088 9.371a2.095 2.095 0 01-2.083-2.083v-14.988a2.093 2.093 0 012.084-2.038c1.126 0 2.058.912 2.083 2.038v14.988c0 1.15-.93 2.083-2.084 2.083m161.088 13.104h-.004a2.09 2.09 0 01-2.08-2.08v-14.991a2.093 2.093 0 012.084-2.038c1.126 0 2.058.912 2.083 2.038v14.99a2.09 2.09 0 01-2.081 2.081h-.002m-161.088 9.371h-.002a2.09 2.09 0 01-2.081-2.081v-14.986c0-1.154.933-2.083 2.083-2.083h.004a2.09 2.09 0 012.08 2.08v14.99a2.09 2.09 0 01-2.08 2.08h-.004m161.088 13.108h-.002a2.092 2.092 0 01-2.082-2.082V201.388a2.093 2.093 0 012.084-2.038c1.126 0 2.058.912 2.083 2.038v14.988c0 1.15-.933 2.083-2.083 2.083m-161.088 9.371a2.095 2.095 0 01-2.083-2.083v-14.988a2.093 2.093 0 012.084-2.038c1.126 0 2.058.912 2.083 2.038v14.988c0 1.15-.93 2.083-2.084 2.083m155.075 10.804a2.077 2.077 0 01-1.854-1.133 2.095 2.095 0 01.904-2.804 8.912 8.912 0 004.879-7.967v-2.858-.004a2.09 2.09 0 012.08-2.08h.004c1.15 0 2.083.93 2.083 2.084v2.858c0 4.954-2.737 9.425-7.15 11.679-.3.154-.625.225-.946.225m-139.883 1.213h-4.158a13.104 13.104 0 01-10.9-5.821 2.08 2.08 0 01.566-2.888 2.076 2.076 0 012.892.567 8.96 8.96 0 007.442 3.975h4.158a2.093 2.093 0 012.038 2.084 2.093 2.093 0 01-2.038 2.083m22.475 0h-14.983a2.096 2.096 0 01-2.084-2.084c0-1.154.934-2.083 2.084-2.083h14.983c1.154 0 2.083.929 2.083 2.083 0 1.15-.929 2.084-2.083 2.084m22.479 0h-14.983-.001a2.093 2.093 0 01-2.083-2.083v-.004a2.09 2.09 0 012.08-2.08h14.987a2.093 2.093 0 012.038 2.084 2.093 2.093 0 01-2.038 2.083m22.479 0h-14.987a2.096 2.096 0 01-2.084-2.084c0-1.154.934-2.083 2.084-2.083h14.987c1.15 0 2.084.929 2.084 2.083 0 1.15-.934 2.084-2.084 2.084m22.475 0H856.12h-.001a2.092 2.092 0 01-2.082-2.082v-.002c0-1.154.929-2.083 2.083-2.083h14.987a2.09 2.09 0 012.08 2.08v.003c0 1.15-.93 2.084-2.084 2.084m22.479 0h-14.987a2.093 2.093 0 01-2.038-2.083c0-1.127.912-2.059 2.038-2.084h14.987c1.15 0 2.084.929 2.084 2.083 0 1.15-.934 2.084-2.084 2.084m22.475 0h-14.983a2.093 2.093 0 01-2.038-2.083c0-1.127.912-2.059 2.038-2.084h14.983c1.155 0 2.084.929 2.084 2.083 0 1.15-.929 2.084-2.084 2.084" fill="#006aff" fill-rule="nonzero"/>
            <path d="M846.548 214.841a2.095 2.095 0 01-2.083-2.083V179.52a2.093 2.093 0 012.083-2.019c1.119 0 2.048.901 2.083 2.019v33.238c0 1.15-.933 2.083-2.083 2.083" fill="#fe2326" fill-rule="nonzero"/>
            <path d="M863.166 198.223h-33.238a2.093 2.093 0 01-2.038-2.083c0-1.127.912-2.059 2.038-2.084h33.238a2.093 2.093 0 012.038 2.084 2.093 2.093 0 01-2.038 2.083" fill="#fe2326" fill-rule="nonzero"/>
            <path d="M683.403 524.965H387.052c-8.754 0-15.849-7.095-15.849-15.85V314.14c0-8.754 7.095-15.85 15.849-15.85h296.351c8.754 0 15.85 7.096 19.22 15.85v194.975c-3.37 8.755-10.466 15.85-19.221 15.85" fill="#bbd7fe" fill-rule="nonzero"/>
            <path d="M669.703 509.432h-296.35c-8.754 0-15.85-7.096-15.85-15.85V298.607c0-8.755 7.096-15.85 15.85-15.85h296.35c8.754 0 15.85 7.096 15.85 15.85v194.975c0 8.754-7.096 15.85-15.85 15.85" fill="#fff" fill-rule="nonzero"/>
            <path d="M685.553 316.582v-17.975c0-8.754-7.096-15.85-15.851-15.85h-296.35c-8.754 0-15.849 7.096-15.849 15.85v17.975h328.05z" fill="#00046d" fill-rule="nonzero"/>
            <path d="M379.454 301.103v.002c0 2.39-1.967 4.357-4.357 4.357h-.003c-2.39 0-4.357-1.967-4.357-4.357v-.003c0-2.39 1.967-4.357 4.357-4.357h.003c2.39 0 4.357 1.967 4.357 4.357v.001m15.239 0v.002c0 2.39-1.967 4.357-4.357 4.357h-.003c-2.39 0-4.357-1.967-4.357-4.357v-.003c0-2.39 1.967-4.357 4.357-4.357h.003c2.39 0 4.357 1.967 4.357 4.357v.001m15.24 0v.002c0 2.39-1.967 4.357-4.357 4.357h-.003c-2.39 0-4.357-1.967-4.357-4.357v-.003c0-2.39 1.967-4.357 4.357-4.357h.003c2.39 0 4.356 1.966 4.356 4.356v.002" fill="#f8f9fa" fill-rule="nonzero"/>
            <path d="M520.065 351.234h-78.388-.001a2.092 2.092 0 01-2.082-2.082v-.002c0-1.15.929-2.083 2.084-2.083h78.387a2.093 2.093 0 012.038 2.083 2.093 2.093 0 01-2.038 2.084" fill="#bbd7fe" fill-rule="nonzero"/>
            <path d="M553.781 368.91h-92.796-.001a2.092 2.092 0 01-2.082-2.082v-.002c0-1.15.929-2.083 2.083-2.083h92.796a2.093 2.093 0 012.038 2.084 2.093 2.093 0 01-2.038 2.083" fill="#fe2326" fill-rule="nonzero"/>
            <path d="M516.443 386.581h-74.768a2.092 2.092 0 01-2.082-2.082v-.001c0-1.15.93-2.083 2.084-2.083h74.766c1.15 0 2.084.933 2.084 2.083 0 1.15-.934 2.083-2.084 2.083" fill="#006aff" fill-rule="nonzero"/>
            <path d="M553.781 404.253H441.677a2.093 2.093 0 01-2.083-2.084c0-1.142.94-2.083 2.083-2.083h112.104a2.093 2.093 0 012.038 2.083 2.093 2.093 0 01-2.038 2.084m-6.631 17.676h-81.212-.001a2.092 2.092 0 01-2.082-2.082v-.002c0-1.15.929-2.083 2.083-2.083h81.212a2.093 2.093 0 012.038 2.083 2.093 2.093 0 01-2.038 2.084" fill="#bbd7fe" fill-rule="nonzero"/>
            <path d="M553.781 439.6H481.783a2.09 2.09 0 01-2.081-2.081v-.002c0-1.15.929-2.083 2.083-2.083h71.996a2.093 2.093 0 012.019 2.083 2.093 2.093 0 01-2.019 2.083" fill="#fe2326" fill-rule="nonzero"/>
            <path d="M531.301 457.276h-79.233a2.093 2.093 0 01-2.019-2.083c0-1.119.901-2.048 2.019-2.083h79.233c1.15 0 2.084.933 2.084 2.083 0 1.15-.934 2.083-2.084 2.083" fill="#00046d" fill-rule="nonzero"/>
            <path d="M543.187 474.948H441.675a2.093 2.093 0 01-2.038-2.083c0-1.127.912-2.059 2.038-2.084h101.512a2.093 2.093 0 012.038 2.084 2.093 2.093 0 01-2.038 2.083" fill="#bbd7fe" fill-rule="nonzero"/>
            <path d="M340.693 437.835v39.995c.002 3.081 2.536 5.615 5.617 5.617h39.995l-45.612-45.612z" fill="#00046d" fill-rule="nonzero"/>
            <path d="M330.615 483.799v-51.312h-88.708c-7.379 0-13.362 5.983-13.362 13.362v192.917c0 7.379 5.983 13.362 13.362 13.362H378.29c7.38 0 13.363-5.983 13.363-13.362V493.524H340.34c-5.37 0-9.725-4.354-9.725-9.725" fill="#00046d" fill-rule="nonzero"/>
            <path d="M332.435 538.502h-78.39a2.09 2.09 0 01-2.081-2.081v-.002c0-1.15.929-2.084 2.083-2.084h78.388a2.093 2.093 0 012.038 2.084 2.093 2.093 0 01-2.038 2.083m-16.889 17.672h-42.191a2.093 2.093 0 01-2.038-2.083c0-1.127.912-2.059 2.038-2.084h42.191a2.093 2.093 0 012.038 2.084 2.093 2.093 0 01-2.038 2.083m50.607 0h-38.238-.001a2.092 2.092 0 01-2.082-2.082v-.002c0-1.15.929-2.083 2.083-2.083h38.238a2.093 2.093 0 012.038 2.083c0 1.127-.913 2.06-2.039 2.084m-37.337 17.671h-74.77a2.094 2.094 0 01-2.084-2.083c0-1.15.934-2.083 2.084-2.083h74.77c1.15 0 2.084.933 2.084 2.083 0 1.15-.934 2.083-2.084 2.083m37.338 17.676H254.044a2.093 2.093 0 01-2.019-2.083c0-1.119.901-2.048 2.019-2.083h112.109a2.093 2.093 0 012.019 2.083 2.093 2.093 0 01-2.02 2.083m-101.589-81.295l-17.095-11.779c-.584-.367-.992-.742-1.23-1.125-.241-.384-.354-.829-.354-1.342v-.929c0-.508.113-.958.354-1.342.238-.387.646-.779 1.23-1.179l17.095-11.779.55-.3c.288-.163.546-.25.767-.25.329 0 .6.104.821.304.217.2.329.463.329.796v2.246c0 .4-.104.729-.304.983s-.517.533-.959.821l-14.791 10.142 14.791 10.133c.476.329.805.617.984.879.183.254.279.563.279.925v2.246c0 .367-.112.654-.329.854-.221.2-.492.296-.821.296-.258 0-.696-.2-1.317-.6m7.941 8.819a1.053 1.053 0 01-.329-.767c0-.141.058-.366.163-.654l18.741-44.979c.329-.625.8-.933 1.421-.933h2.029c.292 0 .55.108.767.329.217.221.329.475.329.767 0 .145-.058.362-.162.658l-18.796 44.979c-.071.217-.225.425-.463.629-.241.204-.558.3-.958.3h-1.975c-.292 0-.55-.108-.767-.329m28.543-8.543a1.129 1.129 0 01-.325-.825v-2.246c0-.362.088-.675.271-.929.183-.258.512-.546.987-.879l14.792-10.133-14.792-10.138c-.437-.292-.758-.567-.958-.821-.204-.254-.3-.583-.3-.983v-2.25c0-.329.096-.592.3-.792.2-.2.467-.304.792-.304.216 0 .487.083.8.25.304.158.496.263.575.3l17.087 11.779c.584.4 1 .792 1.234 1.175.237.384.358.834.358 1.342v.933c0 .513-.121.959-.358 1.342-.234.383-.65.758-1.234 1.125l-17.087 11.779c-.592.4-1.046.6-1.375.6a1.063 1.063 0 01-.767-.325" fill="#fff" fill-rule="nonzero"/>
        </g>
    </g>
</svg>
