<svg viewBox="0 0 10589 7694" xmlns="http://www.w3.org/2000/svg" fill-rule="evenodd" clip-rule="evenodd" stroke-linejoin="round" stroke-miterlimit="2">
    <path fill="none" d="M0 0h10588.3v7693.83H0z"/>
    <clipPath id="a">
        <path d="M0 0h10588.3v7693.83H0z"/>
    </clipPath>
    <g clip-path="url(#a)">
        <path d="M6644.07 1582.61c633.512-375.263 1825.64-1368.23 2617.19-1104.38 1537.65 512.55 1375.14 3425.34 1019.47 4506.06-323.037 981.558-1225.51 1471.1-1976.27 1877.61-1116.88 604.758-2367.54 849.296-3901.73 830.988-3605.48-43.017-4898.57-3589.7-4236.11-5548.28 383.333-1133.33 1950-2833.33 3200-1850 2.291 1.805 2037.97 2022.21 3277.45 1288.01" fill="#d9eaff" fill-rule="nonzero"/>
        <path d="M3822.14 6531.12c0 48.559 1514.66 87.921 3383.1 87.921 1868.43 0 3383.1-39.363 3383.1-87.921 0-48.558-1514.66-87.921-3383.1-87.921-1868.43 0-3383.1 39.363-3383.1 87.921m-2610.05.01c0 48.558 517.125 87.921 1155.03 87.921 637.908 0 1155.03-39.363 1155.03-87.921 0-48.559-517.125-87.921-1155.03-87.921-637.904 0-1155.03 39.363-1155.03 87.921" fill="#bbd7fe" fill-rule="nonzero"/>
        <path d="M6674.7 1109.51h-559.75c-4.6 0-8.333-3.734-8.333-8.334s3.733-8.333 8.333-8.333h559.75c4.6 0 8.334 3.733 8.334 8.333s-3.734 8.334-8.334 8.334" fill="#fff" fill-rule="nonzero"/>
        <path d="M6915.46 1235.71h-662.621a8.333 8.333 0 010-16.667h662.621c4.6 0 8.333 3.734 8.333 8.334s-3.733 8.333-8.333 8.333" fill="#bbd7fe" fill-rule="nonzero"/>
        <path d="M6648.85 1361.91h-533.896a8.333 8.333 0 010-16.666h533.896c4.6 0 8.333 3.733 8.333 8.333s-3.733 8.333-8.333 8.333" fill="#006aff" fill-rule="nonzero"/>
        <path d="M6915.46 1488.11h-800.5a8.334 8.334 0 010-16.667h800.5c4.6 0 8.333 3.733 8.333 8.333s-3.733 8.334-8.333 8.334m-47.36 126.19h-579.9a8.336 8.336 0 01-8.333-8.333c0-4.6 3.733-8.334 8.333-8.334h579.9c4.6 0 8.334 3.734 8.334 8.334s-3.734 8.333-8.334 8.333" fill="#bbd7fe" fill-rule="nonzero"/>
        <path d="M6915.46 1740.5h-514.105a8.334 8.334 0 010-16.667h514.105c4.6 0 8.333 3.734 8.333 8.334s-3.733 8.333-8.333 8.333" fill="#fe2326" fill-rule="nonzero"/>
        <path d="M6754.94 1866.7l-565.75-.001a8.333 8.333 0 010-16.666h565.75c4.6 0 8.334 3.733 8.334 8.333s-3.734 8.333-8.334 8.333" fill="#00046d" fill-rule="nonzero"/>
        <path d="M6595.2 1992.89h-480.242a8.334 8.334 0 010-16.667H6595.2c4.6 0 8.333 3.733 8.333 8.333.001 4.6-3.733 8.334-8.333 8.334m694.84 645.82a11.66 11.66 0 01-7.88-3.059l-144.37-131.87a11.697 11.697 0 01-3.805-8.63c0-3.283 1.384-6.416 3.805-8.629l144.37-131.871c4.767-4.354 12.163-4.02 16.513.751 4.354 4.762 4.021 12.158-.746 16.512l-134.921 123.237 134.921 123.238c4.767 4.354 5.1 11.746.746 16.512a11.654 11.654 0 01-8.633 3.809m313.98 0c-3.171 0-6.33-1.283-8.634-3.808-4.354-4.767-4.021-12.159.746-16.513l134.921-123.237-134.921-123.238c-4.767-4.354-5.1-11.75-.746-16.512 4.354-4.771 11.75-5.1 16.513-.75l144.371 131.87a11.7 11.7 0 013.804 8.63 11.7 11.7 0 01-3.804 8.629l-144.371 131.871a11.663 11.663 0 01-7.879 3.058m-228.56 59.8c-1.521 0-3.066-.296-4.554-.929-5.946-2.517-8.721-9.379-6.204-15.321l162.5-383.333c2.521-5.946 9.383-8.725 15.325-6.204 5.946 2.521 8.721 9.379 6.2 15.325l-162.5 383.333c-1.888 4.454-6.213 7.129-10.767 7.129" fill="#fff" fill-rule="nonzero"/>
        <path fill="#bbd7fe" d="M6887.03 4828.63h42.796v1634.74h-42.796z"/>
        <path d="M7490.33 6459.81h-42.796v-74.583c0-102.596-83.462-186.058-186.058-186.058h-706.104c-102.592 0-186.059 83.462-186.059 186.058v74.583h-42.791v-74.583c0-126.192 102.662-228.854 228.85-228.854h706.104c126.192 0 228.854 102.662 228.854 228.854v74.583z" fill="#bbd7fe" fill-rule="nonzero"/>
        <path d="M6397.9 6445.53c0 37.462-30.371 67.833-67.833 67.833-37.463 0-67.829-30.371-67.829-67.833 0-37.463 30.366-67.833 67.829-67.833 37.462 0 67.833 30.37 67.833 67.833m578.36 0c0 37.462-30.371 67.833-67.833 67.833-37.463 0-67.829-30.371-67.829-67.833 0-37.463 30.366-67.833 67.829-67.833 37.462 0 67.833 30.37 67.833 67.833m578.36 0c0 37.462-30.371 67.833-67.833 67.833-37.463 0-67.834-30.37-67.834-67.833 0-37.463 30.371-67.833 67.834-67.833 37.462 0 67.833 30.37 67.833 67.833m-547.23-3457.75c10.796-52.891 57.292-90.887 111.271-90.946l931.992-1.025-324.917 1707.18a331.204 331.204 0 01-133.533 208.075 331.235 331.235 0 01-187.679 61.191l-799.05-1.816s340.295-1580.8 401.916-1882.66" fill="#71acfd" fill-rule="nonzero"/>
        <path d="M5994.89 4930.75h1425.73c96.629 0 190.779-34.15 265.108-96.154 74.183-61.884 124.225-147.755 140.912-241.792l282.917-1626.76c5.771-33.15-16.433-64.695-49.579-70.458-33.163-5.75-64.696 16.433-70.458 49.579l-282.88 1626.56c-11.645 65.595-46.804 125.8-98.962 169.312-52.467 43.767-118.9 67.875-187.058 67.875H5994.89c-33.646 0-60.921 27.271-60.921 60.921 0 33.646 27.275 60.921 60.921 60.921" fill="#64a0f9" fill-rule="nonzero"/>
        <path d="M8706.78 588.048c-237.7 0-431.083 193.379-431.083 431.079 0 237.7 193.383 431.079 431.083 431.079 237.7 0 431.079-193.379 431.079-431.079 0-237.7-193.379-431.079-431.079-431.079m0 870.492c-242.296 0-439.417-197.121-439.417-439.413s197.121-439.412 439.417-439.412c242.292 0 439.412 197.12 439.412 439.412 0 242.292-197.12 439.413-439.412 439.413" fill="#bbd7fe" fill-rule="nonzero"/>
        <path d="M8835.16 1363.22c0-53.638 24-103.755 63.625-139.9 57.1-52.088 92.938-127.071 92.938-210.455 0-163.441-137.613-294.746-303.292-284.366-143.675 9-259.733 127.229-266.291 271.037-4.1 89.821 33.437 170.963 94.925 225.854 39.895 35.613 61.329 87.538 61.329 141.017v37.867h256.766v-41.054z" fill="#fff" fill-rule="nonzero"/>
        <path d="M8678.59 1474.48a7.58 7.58 0 01-7.517-6.691l-37.579-319.392c-.483-4.158 2.484-7.925 6.646-8.413 4.1-.525 7.917 2.48 8.408 6.638l37.579 319.392a7.582 7.582 0 01-7.537 8.466m56.38 0a7.582 7.582 0 01-7.537-8.466l37.575-319.392c.491-4.159 4.291-7.146 8.412-6.638a7.58 7.58 0 016.642 8.413l-37.575 319.392a7.58 7.58 0 01-7.517 6.691" fill="#bbd7fe" fill-rule="nonzero"/>
        <path fill="#bbd7fe" d="M8578.39 1404.28h256.767v150.3H8578.39z"/>
        <path d="M8626.93 1466.9v131.513c0 10.375 8.412 18.787 18.787 18.787 10.375 0 18.788-8.412 18.788-18.787V1466.9h-37.575zm122.12 0v131.513c0 10.375 8.412 18.787 18.787 18.787 10.38 0 18.788-8.412 18.788-18.787V1466.9h-37.575z" fill="#bbd7fe" fill-rule="nonzero"/>
        <path d="M8809.48 1019.13c0 56.725-45.984 102.704-102.704 102.704-56.725 0-102.709-45.979-102.709-102.704 0-56.721 45.984-102.705 102.709-102.705 56.72 0 102.704 45.984 102.704 102.705" fill="#006aff" fill-rule="nonzero"/>
        <path d="M5061.7 5546.55c24.087 12.279 48.742 24.042 70.008 40.688 16.917 13.22 31.279 29.537 47.871 42.975a428.09 428.09 0 00-4.029-107.109c20.075 39.875 32.967 83.338 37.917 127.671 21.05 9.138 43.841 14.688 64.729 24.533a187.591 187.591 0 0124.754 14.088c3.533-32.421 11.15-64.35 22.683-94.813 1.142 43.95 7.667 87.742 19.309 130.117 48.633 48.521 89.158 58.637 151.279 136.317.541-52.659-2.071-105.367-6.963-157.859-3.975-42.975-9.521-86.22-22.796-127.125-23.441-23.825-52.491-42.158-84.095-52.983 19.8-3.808 40.2-4.512 60.216-2.175l-.45-.808c-25.316-45.254-68.283-78.059-118.191-92.142-30.113-8.5-64.83-17.029-89.209-19.162 20.946-12.238 44.225-20.559 68.217-24.53-2.121-1.145-4.246-2.287-6.367-3.429-71.15-37.75-152.691-53.579-233.196-53.146-22.195.109-44.495 1.417-66.145 6.259-22.142 5.004-43.3 13.596-63.646 23.658-12.238 6.042-44.004 30.3-44.004 30.3s60.379 101.721 172.108 158.675" fill="#bbd7fe" fill-rule="nonzero"/>
        <path d="M4792.84 5864.68c-.075 0-.146 0-.221-.004a6.25 6.25 0 01-6.029-6.463c4.159-120.558 20.025-241.287 47.163-358.837 9.075-39.304 21.491-83.596 54.125-111.642 26.679-22.933 65.296-33.683 114.808-31.904 83.429 2.975 170.963 37.046 246.467 95.933 62.841 49.017 119.304 115.109 172.612 202.063a6.245 6.245 0 01-2.058 8.591 6.235 6.235 0 01-8.596-2.058c-52.512-85.654-108.008-150.658-169.646-198.737-73.446-57.284-158.404-90.421-239.225-93.3-46.296-1.65-81.996 8.075-106.216 28.895-29.763 25.575-41.463 67.596-50.092 104.975-26.958 116.763-42.721 236.696-46.85 356.455a6.251 6.251 0 01-6.242 6.033m89.01-758.4s219.795-57.205 272.175-102.5c-28.68-17.267-60.021-30.096-92.605-37.842 58.146-41.879 129.359-65.204 200.967-66.283 8.863-9.038 17.667-18.067 26.479-27.046 21.025-21.475 42.584-43.113 67.242-59.942a627.935 627.935 0 00-117.654-22.946c39.733-16.208 84.275-13.35 127.208-13.296 35.446.067 72.883-2.666 103.854-18.587.05-.004.1-.063.204-.125 22.421-16.854 39.355-40.096 58.484-60.804 21.408-23.263 48.55-44.738 80.196-45.7-99.338-28.779-205.634-30.892-306.596-8.629l-.054.004c-42.713 21.391-80.759 52.25-110.005 89.966 10.971-20.908 19.6-42.975 26.605-65.554-34 12.529-66.863 28.017-98.113 46.313l-.054.004c-16.371 22.208-28.479 48.137-39.983 73.462a24897.606 24897.606 0 00-30.809 67.405c1.563-38.259 10.25-76.221 25.359-111.425-2.213 1.558-4.417 3.175-6.621 4.791-22.904 16.896-86.925 73.321-157.017 222.492-29.246 62.242-29.262 136.242-29.262 136.242" fill="#bbd7fe" fill-rule="nonzero"/>
        <path d="M4718.75 5801.76l-.012.013.012-.013zm3.684 11.304a6.237 6.237 0 01-5.059-2.57 6.266 6.266 0 01.013-7.384c.796-3.121 1.162-14.229 1.583-26.996 2.4-72.762 8.771-266.05 113.788-572.995 84.283-246.35 265.841-374.188 460.329-493.888a6.236 6.236 0 018.6 2.046 6.255 6.255 0 01-2.046 8.6c-192.475 118.454-372.112 244.862-455.054 487.287-104.413 305.184-110.742 497.113-113.125 569.359-.879 26.67-1.063 32.22-5.354 35.345a6.255 6.255 0 01-3.675 1.196M3807.84 5125.14c45.475-39.112 104.225-62.554 164.225-65.166-40.308 11.37-77.408 33.562-107 63.154-3.425 3.425-7.887 9.954-12.783 17.133 63.1 21.596 128.483 44.608 186.525 66.2 103.371-70.733 161.287-62.175 177.441-67.558-48.683 22.212-90.187 52.383-126.416 89.262a2534.311 2534.311 0 0137.371 15.125c53.2 22.029 113.416 13.163 159.708-20.996 14.196-10.5 28.067-16.212 42.046-8.595 119.675 65.275 88.829 0 166.941 25.62 9.792-77.733-102.208-168.466-156.879-204.695-227.754-150.675-547.933-145.563-770.741 12.295 1.25 0 110.479 34.596 239.562 78.221" fill="#bbd7fe" fill-rule="nonzero"/>
        <path d="M4567.39 5867.27a6.243 6.243 0 01-6.195-7.121c21.575-153.054 22.891-287.233 3.912-398.804-17.596-103.446-53.208-190.629-105.842-259.117-87.275-113.562-221.191-179.829-409.408-202.579a6.247 6.247 0 01-5.454-6.95 6.25 6.25 0 016.958-5.458c191.721 23.171 328.388 91.008 417.813 207.371 53.891 70.125 90.312 159.162 108.258 264.637 19.196 112.842 17.896 248.313-3.862 402.642a6.248 6.248 0 01-6.18 5.379m-10.24-1006.11c-25.358-76.35-69.75-145.038-118.679-208.896-185.283-241.813-448.629-422.821-740.771-509.167 73.667 73.429 210.371 254.929 217.192 258.896 8.416 4.9 154.496 21.342 214.833 40.908-55.237.517-114.567-4.508-174.146 3.121 36.434 83.788 157.696 188.479 157.696 188.479s95.683 15.584 142.454 29.704c-32.137 3.334-63.125 8.688-104.133 13.992 14.929 22.542 71.242 96.083 81.492 99.558 81.387 27.596 168.458 61.738 226.695 118.292-63.12-26.404-124.912-27.537-176.416-35.671 6.471 1.021 104.379 138.713 167.541 187.554 26.3 20.338 95.713 52.963 95.713 52.963s52.362-113.771 10.529-239.733" fill="#bbd7fe" fill-rule="nonzero"/>
        <path d="M4690.45 5853a6.25 6.25 0 01-6.112-4.971c-23.413-112.116-46.029-221.891-65.325-332.308-6.538-37.429-12.854-75.742-18.967-112.796-37.696-228.55-76.675-464.887-194.179-665.008-44.037-75.004-100.617-148.271-178.058-230.584a6.253 6.253 0 01.266-8.837 6.252 6.252 0 018.834.267c78.104 83.012 135.216 156.995 179.737 232.82 118.684 202.13 157.85 439.63 195.734 669.309 6.104 37.025 12.42 75.304 18.95 112.679 19.258 110.225 41.85 219.896 65.245 331.9a6.256 6.256 0 01-4.841 7.4 6.458 6.458 0 01-1.284.129m-60.49-1198.94c-47.987-39.113-128.425-68.029-130.279-67.888 4.95 88.396 15.559 176.517 31.875 263.659 11.75 62.883 28.829 125.333 66.638 179.346 39.708 56.737 75.721 9.845 107.325-28.775 85.671-104.713 122.662-233.85 113.633-365l-.325-4.242c-40.8 34.812-78.225 73.542-111.517 115.537 6.584-27.091 5.217-81.433 96.938-232.216-10.717-62.288-25.513-124.788-41.725-186.2-37.758 13.325-78.442 62.816-81.104 77.241a8859.297 8859.297 0 0031.279-135.391c5.167-22.954 8.867-47.542 13.492-71.75-19.859-57.388-145.396-280.084-218.188-328.121 36.829 126.854 14.85 259.471.275 389.425 11.804 12.621 79.138 23.446 95.779 109.637-5.1-26.412-90.775-63.541-101.058-58.45-1.142 13-2.121 25.946-2.883 38.896a2063.047 2063.047 0 00-2.284 195.771c6.963 1.688 13.817 4.188 20.454 6.963 47.271 19.908 87.359 56.408 111.675 101.558" fill="#bbd7fe" fill-rule="nonzero"/>
        <path d="M4609.09 5898.91a6.25 6.25 0 01-6.229-6.859c40.458-412.175 56.162-831.1 46.675-1245.14-4.305-187.8-13.892-386.625-78.263-571.596a6.252 6.252 0 013.85-7.958c3.254-1.129 6.821.587 7.954 3.85 64.967 186.683 74.625 386.629 78.954 575.416 9.5 414.538-6.225 833.971-46.729 1246.64a6.252 6.252 0 01-6.212 5.642" fill="#bbd7fe" fill-rule="nonzero"/>
        <path d="M4373.24 5806.6l11.65 114.225 1.313 13.017 58.846 576.321h487.275l58.887-576.321 1.371-13.017 11.658-114.225h-631z" fill="#bbd7fe" fill-rule="nonzero"/>
        <path d="M4384.89 5920.82l1.313 13.021h605.008l1.371-13.021H4384.89z" fill="#bbd7fe" fill-rule="nonzero"/>
        <path d="M6680.48 3295.44s-392.55 766.542-408.333 779.167c-41.667 33.333-77.8 36.771-106.496 33.304-9.366-1.083-18.729-3.425-27.921-7.066a112.45 112.45 0 01-34.637-21.763c-33.033-30.479-45.733-79.246-28.179-123.554l24.408-61.604 322.842-814.363 258.316 215.879z" fill="#fff" fill-rule="nonzero"/>
        <path d="M6477.56 3748.06l-324.959-136.487 198.009-497.992c35.954-90.358 151.425-159.154 241.825-123.246 90.437 35.95 121.579 163.033 85.629 253.471L6477.56 3748.06z" fill="#006aff" fill-rule="nonzero"/>
        <path d="M6360.27 3830.66l-85.446 215.546c-7.975 20.158-21.154 49.175-37.413 61.183l-541.595 131.212c-59.738 15.867-121.038-19.725-136.905-79.462-15.866-59.742 19.725-121.042 79.463-136.908l452.767-120.125 269.129-71.446z" fill="#fff" fill-rule="nonzero"/>
        <path d="M7271.79 4311.27h-881.183V3119.23c0-80.245 65.054-145.304 145.304-145.304h632.913c56.866 0 102.966 46.104 102.966 102.971v1234.37z" fill="#006aff" fill-rule="nonzero"/>
        <path d="M6962.49 2559.82l51.984 421.421c0 31.129-149.505 527.45-180.634 527.45-55.1 0-96.779-511.625-96.779-518.779v-585.25h70.271c85.667 0 155.158 69.496 155.158 155.158" fill="#fff" fill-rule="nonzero"/>
        <path d="M6888.8 2950.89l-149.779 59.912c-1.304-6.762-1.954-13.741-1.954-20.895v-57.617l151.733 18.6z" fill="#bbd7fe" fill-rule="nonzero"/>
        <path d="M7058.4 2398.42c3.113 105.3-79.729 193.187-185.029 196.3-105.3 3.112-193.187-79.729-196.3-185.029-3.112-105.3 79.729-193.188 185.029-196.3 105.3-3.113 193.188 79.729 196.3 185.029" fill-rule="nonzero"/>
        <path d="M6873.26 2297.63c3.079 104.104-114.712 192.054-263.092 196.437-148.379 4.388-271.158-76.45-274.237-180.554-3.075-104.104 114.717-192.054 263.092-196.442 148.383-4.383 271.162 76.455 274.237 180.559" fill-rule="nonzero"/>
        <path d="M7037.26 2563.85c1.204 40.683-30.805 74.641-71.488 75.841-40.687 1.205-74.642-30.804-75.846-71.487-1.2-40.683 30.804-74.642 71.492-75.842 40.683-1.204 74.637 30.804 75.842 71.488" fill="#fff" fill-rule="nonzero"/>
        <path d="M6477.61 2411.25l8.404 284.295c4.271 144.534 124.9 258.238 269.434 253.963l145.629-4.304-16.138-545.996-407.329 12.041z" fill="#fff" fill-rule="nonzero"/>
        <path d="M6926.07 2601.84c-17.5.517-32.571-12.25-34.938-29.596l-23.525-172.521c-.708-23.929 18.121-43.904 42.054-44.612 23.929-.708 43.904 18.121 44.613 42.054l5.008 169.442c.558 18.9-14.312 34.675-33.212 35.233" fill-rule="nonzero"/>
        <path d="M6928.29 2545.39l-70.275 2.079c-46.642 1.375-85.571-35.316-86.95-81.958l-2.883-97.546 154.729-4.575 5.379 182z" fill-rule="nonzero"/>
        <path d="M6467.92 2376.84l372.662-11.017 2.946 99.667-372.662 11.017-2.946-99.667z"/>
        <path d="M6727.19 2638.07c.8 8.825-5.709 16.625-14.534 17.425-8.825.8-16.625-5.708-17.425-14.533-.8-8.825 5.709-16.625 14.534-17.425 8.825-.8 16.625 5.708 17.425 14.533m3.32-69.69l-51.02 4.621c-5 .45-9.425-3.238-9.88-8.242a9.098 9.098 0 018.238-9.875l51.021-4.621c5.004-.45 9.425 3.238 9.879 8.238a9.093 9.093 0 01-8.238 9.879m-164.62 86.5c.8 8.825-5.708 16.629-14.533 17.425-8.825.8-16.625-5.704-17.425-14.533-.8-8.825 5.708-16.625 14.533-17.425 8.825-.8 16.625 5.708 17.425 14.533m3.32-69.69l-51.021 4.621c-5 .45-9.425-3.237-9.879-8.237-.45-5.005 3.238-9.425 8.238-9.88l51.02-4.62a9.094 9.094 0 111.642 18.116" fill-rule="nonzero"/>
        <path d="M6661.73 2839.44c47.788 34.004 86.859 1.791 90.388-41.575l-90.388 41.575z" fill="#bbd7fe" fill-rule="nonzero"/>
        <path d="M6615.49 2767.23a24.212 24.212 0 01-17.137-7.1 24.222 24.222 0 01-7.038-18.867l8.684-81.012a4.346 4.346 0 014.775-3.846 4.34 4.34 0 013.85 4.775l-8.671 80.854c-.313 4.354 1.337 8.771 4.529 11.963 3.196 3.2 7.641 4.862 12.121 4.52l37.783-2.695a4.344 4.344 0 014.633 4.016 4.334 4.334 0 01-4.012 4.634l-37.784 2.695c-.579.042-1.158.063-1.733.063" fill-rule="nonzero"/>
        <path d="M7265.92 3709.55l-160.4-468.2 166.271 1069.92-5.871-601.717z" fill="#0058d8" fill-rule="nonzero"/>
        <path d="M6890.85 3843.25c-10.646 0-21.175-4.775-28.146-13.884l-112.175-146.491c-11.891-15.534-8.945-37.763 6.584-49.655 15.537-11.883 37.766-8.941 49.654 6.588l112.175 146.492c11.892 15.533 8.946 37.762-6.583 49.654a35.293 35.293 0 01-21.509 7.296" fill="#fff" fill-rule="nonzero"/>
        <path d="M6475.88 3510.39l226.855 3.096c27.016.371 50.404 18.871 56.983 45.075l98.15 390.792c4.421 17.604-9.038 34.616-27.188 34.371l-226.854-3.1c-27.016-.367-50.404-18.867-56.983-45.071l-98.15-390.792c-4.421-17.604 9.037-34.621 27.187-34.371" fill="#03073f" fill-rule="nonzero"/>
        <path d="M6687.88 3578.84c.816 9.559 9.225 16.646 18.783 15.834 9.558-.817 16.646-9.225 15.833-18.784-.816-9.558-9.225-16.649-18.783-15.833-9.558.817-16.65 9.225-15.833 18.784" fill="#262f6e" fill-rule="nonzero"/>
        <path d="M7696.93 4092.3l-271.229-830.979-334.904 45.191 397.238 866.221c17.12 44.459 59.52 71.738 104.47 71.738 13.375 0 26.971-2.417 40.196-7.509 57.679-22.212 86.438-86.979 64.229-144.662" fill="#fff" fill-rule="nonzero"/>
        <path d="M7569.43 3603.13l-331.413 119.966-192.041-500.325c-34.829-90.8-48.604-206.65 42.196-241.537 90.854-34.879 251.925 24.421 286.804 115.279l194.454 506.617z" fill="#006aff" fill-rule="nonzero"/>
        <path d="M6931.25 3858.49c0 79.008-26.45 138.017-105.458 138.017-79.004 0-219.487-57.5-222.862-219.492-1.646-78.988 106.258-61.579 185.266-61.579 79.009 0 143.054 64.046 143.054 143.054" fill="#fff" fill-rule="nonzero"/>
        <path d="M7563.2 3936.29l-710.921-174.15c-58.467-20.079-122.134 11.058-142.196 69.517-20.079 58.462 11.05 122.125 69.512 142.2l762.046 261.596c22.092 7.583 45.084-8.83 45.084-32.188L7563.2 3936.29zm-1991.82 49.58c79.154 19.017 127.904 98.596 108.888 177.75-19.017 79.154-98.6 127.904-177.75 108.888-79.155-19.017-157.725-64.58-138.709-143.734 19.013-79.154 128.417-161.921 207.571-142.904" fill="#fff" fill-rule="nonzero"/>
        <path d="M8847 6543.63c-5.625 0-10.729-3.821-12.129-9.525l-547.767-2232.01-547.767 2232.01c-1.645 6.704-8.416 10.788-15.116 9.163-6.704-1.646-10.809-8.413-9.163-15.121l559.904-2281.48a12.501 12.501 0 0124.28 0l559.904 2281.48c1.65 6.708-2.454 13.475-9.159 15.121-1 .246-2.004.362-2.987.362m-4612.96 0c-5.621 0-10.729-3.821-12.129-9.525l-547.767-2232.01-547.763 2232.01c-1.645 6.704-8.42 10.788-15.116 9.163-6.709-1.646-10.809-8.413-9.163-15.121l559.904-2281.48a12.501 12.501 0 0124.28 0l559.904 2281.48c1.646 6.708-2.454 13.475-9.163 15.121-.995.246-2 .362-2.987.362" fill="#71acfd" fill-rule="nonzero"/>
        <path d="M5926.24 3917.36H4199.46c-9.658 0-17.85-7.983-19.225-18.738l-140.133-1095.04c-1.684-13.171 7.395-24.967 19.225-24.967h1726.82c9.659 0 17.85 7.983 19.225 18.738l140.088 1095.05c1.683 13.171-7.396 24.963-19.225 24.963" fill="#006aff" fill-rule="nonzero"/>
        <path d="M5141.68 3357.62l-36.417 559.733h-234.37l270.787-559.733z" fill="#0058d8" fill-rule="nonzero"/>
        <path d="M5141.7 3357.61h-331.954l-270.092 903.979h331.955L5141.7 3357.61z" fill="#006aff" fill-rule="nonzero"/>
        <path d="M5248.5 4264.32h-975.892c0-36.2 29.342-65.546 65.542-65.546h844.804c36.2 0 65.546 29.346 65.546 65.546" fill="#006aff" fill-rule="nonzero"/>
        <path d="M4466.84 3070.16c0 10.779-8.737 19.517-19.516 19.517-10.78 0-19.517-8.738-19.517-19.517s8.737-19.517 19.516-19.517c10.78 0 19.517 8.738 19.517 19.517m59.4 0c0 10.779-8.738 19.517-19.517 19.517s-19.517-8.738-19.517-19.517 8.738-19.517 19.517-19.517 19.517 8.738 19.517 19.517m59.39 0c0 10.779-8.737 19.517-19.517 19.517-10.779 0-19.516-8.738-19.516-19.517s8.737-19.517 19.516-19.517c10.78 0 19.517 8.738 19.517 19.517m59.4 0c0 10.779-8.737 19.517-19.517 19.517-10.779 0-19.516-8.738-19.516-19.517s8.737-19.517 19.516-19.517c10.78 0 19.517 8.738 19.517 19.517m59.4 0c0 10.779-8.738 19.517-19.517 19.517s-19.517-8.738-19.517-19.517 8.738-19.517 19.517-19.517 19.517 8.738 19.517 19.517m59.4 0c0 10.779-8.738 19.517-19.517 19.517s-19.517-8.738-19.517-19.517 8.738-19.517 19.517-19.517 19.517 8.738 19.517 19.517m59.4 0c0 10.779-8.737 19.517-19.516 19.517-10.779 0-19.517-8.738-19.517-19.517s8.738-19.517 19.517-19.517 19.516 8.738 19.516 19.517m59.39 0c0 10.779-8.737 19.517-19.516 19.517-10.78 0-19.517-8.738-19.517-19.517s8.737-19.517 19.517-19.517c10.779 0 19.516 8.738 19.516 19.517m59.4 0c0 10.779-8.738 19.517-19.517 19.517s-19.517-8.738-19.517-19.517 8.738-19.517 19.517-19.517 19.517 8.738 19.517 19.517m59.4 0c0 10.779-8.738 19.517-19.517 19.517s-19.517-8.738-19.517-19.517 8.738-19.517 19.517-19.517 19.517 8.738 19.517 19.517m59.4 0c0 10.779-8.737 19.517-19.516 19.517-10.78 0-19.517-8.738-19.517-19.517s8.737-19.517 19.517-19.517c10.779 0 19.516 8.738 19.516 19.517m59.39 0c0 10.779-8.738 19.517-19.517 19.517s-19.517-8.738-19.517-19.517 8.738-19.517 19.517-19.517 19.517 8.738 19.517 19.517m59.4 0c0 10.779-8.738 19.517-19.517 19.517s-19.517-8.738-19.517-19.517 8.738-19.517 19.517-19.517 19.517 8.738 19.517 19.517m59.4 0c0 10.779-8.738 19.517-19.517 19.517s-19.517-8.738-19.517-19.517 8.738-19.517 19.517-19.517 19.517 8.738 19.517 19.517m59.4 0c0 10.779-8.737 19.517-19.517 19.517-10.779 0-19.516-8.738-19.516-19.517s8.737-19.517 19.516-19.517c10.78 0 19.517 8.738 19.517 19.517m59.4 0c0 10.779-8.738 19.517-19.517 19.517s-19.516-8.738-19.516-19.517 8.737-19.517 19.516-19.517c10.779 0 19.517 8.738 19.517 19.517m-890.97 108.61c0 10.779-8.737 19.517-19.516 19.517-10.78 0-19.517-8.738-19.517-19.517s8.737-19.517 19.516-19.517c10.78 0 19.517 8.738 19.517 19.517m59.4 0c0 10.779-8.738 19.517-19.517 19.517s-19.517-8.738-19.517-19.517 8.738-19.517 19.517-19.517 19.517 8.738 19.517 19.517m59.39 0c0 10.779-8.737 19.517-19.517 19.517-10.779 0-19.516-8.738-19.516-19.517s8.737-19.517 19.516-19.517c10.78 0 19.517 8.738 19.517 19.517m59.4 0c0 10.779-8.737 19.517-19.517 19.517-10.779 0-19.516-8.738-19.516-19.517s8.737-19.517 19.516-19.517c10.78 0 19.517 8.738 19.517 19.517m59.4 0c0 10.779-8.738 19.517-19.517 19.517s-19.517-8.738-19.517-19.517 8.738-19.517 19.517-19.517 19.517 8.738 19.517 19.517m59.4 0c0 10.779-8.738 19.517-19.517 19.517s-19.517-8.738-19.517-19.517 8.738-19.517 19.517-19.517 19.517 8.738 19.517 19.517m59.4 0c0 10.779-8.737 19.517-19.516 19.517-10.779 0-19.517-8.738-19.517-19.517s8.738-19.517 19.517-19.517 19.516 8.738 19.516 19.517m59.39 0c0 10.779-8.737 19.517-19.516 19.517-10.78 0-19.517-8.738-19.517-19.517s8.737-19.517 19.517-19.517c10.779 0 19.516 8.738 19.516 19.517m59.4 0c0 10.779-8.738 19.517-19.517 19.517s-19.517-8.738-19.517-19.517 8.738-19.517 19.517-19.517 19.517 8.738 19.517 19.517m59.4 0c0 10.779-8.738 19.517-19.517 19.517s-19.517-8.738-19.517-19.517 8.738-19.517 19.517-19.517 19.517 8.738 19.517 19.517m59.4 0c0 10.779-8.737 19.517-19.516 19.517-10.78 0-19.517-8.738-19.517-19.517s8.737-19.517 19.517-19.517c10.779 0 19.516 8.738 19.516 19.517m59.39 0c0 10.779-8.738 19.517-19.517 19.517s-19.517-8.738-19.517-19.517 8.738-19.517 19.517-19.517 19.517 8.738 19.517 19.517m59.4 0c0 10.779-8.738 19.517-19.517 19.517s-19.517-8.738-19.517-19.517 8.738-19.517 19.517-19.517 19.517 8.738 19.517 19.517m59.4 0c0 10.779-8.738 19.517-19.517 19.517s-19.517-8.738-19.517-19.517 8.738-19.517 19.517-19.517 19.517 8.738 19.517 19.517m59.4 0c0 10.779-8.737 19.517-19.517 19.517-10.779 0-19.516-8.738-19.516-19.517s8.737-19.517 19.516-19.517c10.78 0 19.517 8.738 19.517 19.517m59.4 0c0 10.779-8.738 19.517-19.517 19.517s-19.516-8.738-19.516-19.517 8.737-19.517 19.516-19.517c10.779 0 19.517 8.738 19.517 19.517m-921.52-54.3c0 10.779-8.738 19.517-19.517 19.517s-19.517-8.738-19.517-19.517 8.738-19.516 19.517-19.516 19.517 8.737 19.517 19.516m59.4 0c0 10.779-8.738 19.517-19.517 19.517s-19.517-8.738-19.517-19.517 8.738-19.516 19.517-19.516 19.517 8.737 19.517 19.516m59.4 0c0 10.779-8.738 19.517-19.517 19.517s-19.517-8.738-19.517-19.517 8.738-19.516 19.517-19.516 19.517 8.737 19.517 19.516m59.39 0c0 10.779-8.738 19.517-19.517 19.517s-19.517-8.738-19.517-19.517 8.738-19.516 19.517-19.516 19.517 8.737 19.517 19.516m59.4 0c0 10.779-8.738 19.517-19.517 19.517s-19.517-8.738-19.517-19.517 8.738-19.516 19.517-19.516 19.517 8.737 19.517 19.516m59.4 0c0 10.779-8.737 19.517-19.517 19.517-10.779 0-19.516-8.738-19.516-19.517s8.737-19.516 19.516-19.516c10.78 0 19.517 8.737 19.517 19.516m59.4 0c0 10.779-8.738 19.517-19.517 19.517s-19.516-8.738-19.516-19.517 8.737-19.516 19.516-19.516c10.779 0 19.517 8.737 19.517 19.516m59.4 0c0 10.779-8.738 19.517-19.517 19.517s-19.517-8.738-19.517-19.517 8.738-19.516 19.517-19.516 19.517 8.737 19.517 19.516m59.39 0c0 10.779-8.738 19.517-19.517 19.517s-19.517-8.738-19.517-19.517 8.738-19.516 19.517-19.516 19.517 8.737 19.517 19.516m59.4 0c0 10.779-8.738 19.517-19.517 19.517s-19.517-8.738-19.517-19.517 8.738-19.516 19.517-19.516 19.517 8.737 19.517 19.516m59.4 0c0 10.779-8.738 19.517-19.517 19.517s-19.517-8.738-19.517-19.517 8.738-19.516 19.517-19.516 19.517 8.737 19.517 19.516m59.4 0c0 10.779-8.738 19.517-19.517 19.517s-19.517-8.738-19.517-19.517 8.738-19.516 19.517-19.516 19.517 8.737 19.517 19.516m59.39 0c0 10.779-8.737 19.517-19.516 19.517-10.78 0-19.517-8.738-19.517-19.517s8.737-19.516 19.517-19.516c10.779 0 19.516 8.737 19.516 19.516m59.4 0c0 10.779-8.737 19.517-19.517 19.517-10.779 0-19.516-8.738-19.516-19.517s8.737-19.516 19.516-19.516c10.78 0 19.517 8.737 19.517 19.516m59.4 0c0 10.779-8.738 19.517-19.517 19.517s-19.516-8.738-19.516-19.517 8.737-19.516 19.516-19.516c10.779 0 19.517 8.737 19.517 19.516m59.4 0c0 10.779-8.737 19.517-19.517 19.517-10.779 0-19.516-8.738-19.516-19.517s8.737-19.516 19.516-19.516c10.78 0 19.517 8.737 19.517 19.516" fill="#03073f" fill-rule="nonzero"/>
        <path fill="#fff" d="M5297.03 4188.15H6309.6v76.162H5297.03z"/>
        <path d="M5742.98 5962.11l-54.166 350-211.113 2.779 36.113-386.112 229.166 33.333z" fill="#fff" fill-rule="nonzero"/>
        <path d="M5780.48 6178.77l-341.666-41.667 176.025-1683.08c7.308-71.154 67.25-125.258 138.783-125.258h398.792l-371.934 1850z" fill="#03073f" fill-rule="nonzero"/>
        <path d="M5038.6 6483.85c3.225 5.196 6.809 9.316 10.567 11.646l4.479 7.879c150.654-.896 273.179-8.421 461.988-58.575 110.162-29.2 178.591-12.004 216.033-10.213 1.971-26.871-7.525-67.354-16.837-99.954-8.78-30.454-17.559-54.1-17.559-54.1-3.579-15.942-22.75-22.75-35.466-12.537l-23.825 19.166c-15.225 12.359-35.109 15.584-52.663 10.209l-.183-.18c-9.134-2.687-17.554-7.879-24.359-15.045l-70.579-73.805c-10.75-11.283-27.946-13.254-41.025-4.837l-9.491 6.271-250.071 157.1-92.254 25.258c-8.596 2.329-21.317 7.704-33.138 13.075-10.75 5.017-19.346 13.079-25.079 22.754-10.033 16.659-11.283 38.154-.538 55.888" fill="#fe2326" fill-rule="nonzero"/>
        <path d="M5606.27 6429.21c58.934-4.479 99.6 4.121 125.392 5.375 1.971-26.87-7.521-67.354-16.838-99.958-27.229 6.092-77.566 26.512-108.554 94.583m-567.67 54.64c3.225 5.196 6.809 9.316 10.567 11.646l4.479 7.879c96.554-.538 181.463-3.942 279.629-19.346-11.645-14.867-26.87-26.333-41.379-34.75-25.079-14.333-53.741-21.317-82.583-21.317h-170.175c-10.033 16.659-11.283 38.154-.538 55.888" fill="#e5151f" fill-rule="nonzero"/>
        <path d="M5044.44 6491.53l16.05 25.883a37.727 37.727 0 0032.066 17.846h618.009c23.441 0 41.533-21.021 37.575-44.125-2.95-17.196-8-36.438-16.654-51.888.175-1.433.358-3.046.175-4.658-37.438-1.792-105.946-19.008-216.034 10.208-188.746 50.1-320.537 45.838-471.187 46.734" fill="#fff" fill-rule="nonzero"/>
        <path d="M5439.68 6209.78c12.358 32.242 49.621 68.25 145.454 87.417-9.133-2.688-17.554-7.884-24.358-15.046l-45.354-47.425a74.948 74.948 0 01-14.434-21.617l-1.487-3.375c-5.25-11.941-18.471-18.792-31.004-15.183-6.979 2.012-13.879 5.454-19.325 8.958l-9.492 6.271z" fill="#fe2326" fill-rule="nonzero"/>
        <path d="M5392.92 6307.05a13.303 13.303 0 008.3-2.579c5.992-4.375 7.308-12.771 2.933-18.762l-27.816-38.138c-4.367-5.991-12.767-7.308-18.763-2.937-5.992 4.366-7.308 12.771-2.937 18.762l27.812 38.138c2.55 3.504 6.458 5.4 10.471 5.516m-43.61 27.61a13.422 13.422 0 008.3-2.579c6-4.375 7.308-12.788 2.933-18.78l-27.812-38.108c-4.371-5.992-12.771-7.304-18.763-2.937-5.996 4.37-7.312 12.775-2.941 18.77l27.812 38.134a13.425 13.425 0 0010.471 5.5m-41.53 28.41a13.278 13.278 0 008.292-2.579c5.995-4.358 7.316-12.771 2.941-18.763l-27.8-38.12c-4.379-6-12.791-7.313-18.787-2.93-5.992 4.375-7.3 12.78-2.929 18.771l27.804 38.1c2.55 3.504 6.466 5.404 10.479 5.521" fill="#fff" fill-rule="nonzero"/>
        <path d="M6966.37 4812.11h-820.471c-162.691 0-294.583-131.892-294.583-294.587v-24.717c0-92.892 75.304-168.196 168.196-168.196h1248.47v185.888c0 166.575-135.038 301.612-301.613 301.612" fill="#161e59" fill-rule="nonzero"/>
        <path d="M6547.15 5966.27l58.333 345.833-211.112 2.779-87.346-341.204 240.125-7.408z" fill="#fff" fill-rule="nonzero"/>
        <path d="M6606.99 6104.93l-306.234 25-428.616-1517.82 550-25 184.85 1517.82z" fill="#161e59" fill-rule="nonzero"/>
        <path d="M5955.26 6483.85c3.225 5.196 6.808 9.316 10.567 11.646l4.479 7.879c150.654-.896 273.179-8.421 461.987-58.575 110.163-29.2 178.592-12.004 216.034-10.213 1.971-26.871-7.525-67.354-16.838-99.954-8.779-30.454-17.558-54.1-17.558-54.1-3.579-15.942-22.75-22.75-35.467-12.537l-23.825 19.166c-15.225 12.359-35.108 15.584-52.662 10.209l-.184-.18c-9.133-2.687-17.554-7.879-24.358-15.045l-70.579-73.805c-10.75-11.283-27.946-13.254-41.025-4.837l-9.492 6.271-250.071 157.1-92.254 25.258c-8.596 2.329-21.316 7.704-33.137 13.075-10.75 5.017-19.346 13.079-25.079 22.754-10.034 16.659-11.284 38.154-.538 55.888" fill="#fe2326" fill-rule="nonzero"/>
        <path d="M6522.94 6429.21c58.933-4.479 99.6 4.121 125.392 5.375 1.97-26.87-7.521-67.354-16.838-99.958-27.229 6.092-77.567 26.512-108.554 94.583m-567.68 54.64c3.225 5.196 6.808 9.316 10.567 11.646l4.479 7.879c96.554-.538 181.462-3.942 279.629-19.346-11.646-14.867-26.871-26.333-41.379-34.75-25.079-14.333-53.742-21.317-82.583-21.317h-170.175c-10.034 16.659-11.284 38.154-.538 55.888" fill="#e5151f" fill-rule="nonzero"/>
        <path d="M5961.11 6491.53l16.05 25.883a37.73 37.73 0 0032.067 17.846h618.008c23.442 0 41.534-21.021 37.575-44.125-2.95-17.196-8-36.438-16.654-51.888.175-1.433.359-3.046.175-4.658-37.437-1.792-105.946-19.008-216.033 10.208-188.746 50.1-320.538 45.838-471.188 46.734" fill="#fff" fill-rule="nonzero"/>
        <path d="M6356.34 6209.78c12.358 32.242 49.62 68.25 145.454 87.417-9.134-2.688-17.554-7.884-24.359-15.046l-45.354-47.425a74.965 74.965 0 01-14.433-21.617l-1.488-3.375c-5.25-11.941-18.47-18.792-31.004-15.183-6.979 2.012-13.879 5.454-19.325 8.958l-9.491 6.271z" fill="#fe2326" fill-rule="nonzero"/>
        <path d="M6309.59 6307.05a13.303 13.303 0 008.3-2.579c5.991-4.375 7.308-12.771 2.933-18.762l-27.817-38.138c-4.366-5.991-12.766-7.308-18.762-2.937-5.992 4.366-7.308 12.771-2.938 18.762l27.813 38.138c2.55 3.504 6.458 5.4 10.471 5.516m-43.61 27.61a13.424 13.424 0 008.3-2.579c6-4.375 7.308-12.788 2.933-18.78l-27.813-38.108c-4.37-5.992-12.77-7.304-18.762-2.937-5.996 4.37-7.313 12.775-2.942 18.77l27.813 38.134a13.423 13.423 0 0010.471 5.5m-41.53 28.41a13.275 13.275 0 008.291-2.579c5.996-4.358 7.317-12.771 2.942-18.763l-27.8-38.12c-4.379-6-12.792-7.313-18.788-2.93-5.991 4.375-7.3 12.78-2.929 18.771l27.804 38.1c2.55 3.504 6.467 5.404 10.48 5.521m-794.48-3793.8H2500.99c-89.22 0-161.55-72.329-161.55-161.55V327.05c0-89.221 72.33-161.55 161.55-161.55h2928.98c89.221 0 161.55 72.329 161.55 161.55v2080.67c0 89.221-72.329 161.55-161.55 161.55" fill="#fff" fill-rule="nonzero"/>
        <path d="M2500.98 186.335c-77.591 0-140.716 63.12-140.716 140.712v2080.67c0 77.592 63.125 140.717 140.716 140.717h2928.98c77.591 0 140.716-63.125 140.716-140.717V327.047c0-77.592-63.125-140.712-140.716-140.712H2500.98zm2928.98 2403.77H2500.98c-100.566 0-182.383-81.816-182.383-182.383V327.052c0-100.562 81.817-182.379 182.383-182.379h2928.98c100.566 0 182.383 81.817 182.383 182.379v2080.67c0 100.567-81.817 182.383-182.383 182.383" fill="#bbd7fe" fill-rule="nonzero"/>
        <path d="M5477.22 811.351H2468.63a6.25 6.25 0 110-12.5h3008.59a6.25 6.25 0 110 12.5" fill="#00046d" fill-rule="nonzero"/>
        <path d="M3164.84 2320.38a6.254 6.254 0 01-6.238-5.938l-92.7-1843.69a6.249 6.249 0 015.93-6.554c3.404-.138 6.383 2.479 6.554 5.925l92.704 1843.69a6.254 6.254 0 01-5.929 6.554c-.109.004-.217.008-.321.008m1663.23-13.025c-.063 0-.121 0-.184-.004a6.245 6.245 0 01-6.066-6.425l52.416-1838.99c.1-3.45 3.054-6.27 6.425-6.066a6.249 6.249 0 016.071 6.425l-52.417 1838.99a6.253 6.253 0 01-6.245 6.071m-805.93 27.679a6.254 6.254 0 01-6.246-6.063l-56.667-1877.86a6.25 6.25 0 016.059-6.434c3.433-.1 6.333 2.605 6.437 6.063l56.667 1877.85a6.242 6.242 0 01-6.058 6.433c-.063.005-.125.005-.192.005" fill="#00046d" fill-rule="nonzero"/>
        <path d="M2955.48 1303.77l-341.666-25-33.334-350h375v375zm1633.33 200l-366.667 16.666-8.333-391.666h375v375zm-95.83 479.17l-366.666 16.667-8.334-391.667h375v375z" fill="#bbd7fe" fill-rule="nonzero"/>
        <path d="M4651.31 2291.27l-366.667 16.666-8.333-391.666h375v375zm-825-175l-366.667 16.666-8.333-391.666h375v375zm1587.5-404.16l-366.667 16.667-8.333-391.667h375v375z" fill="#006aff" fill-rule="nonzero"/>
        <path d="M5330.48 1387.11l-375-16.667V1012.11h375v375zm29.17 804.16l-375-16.667V1816.27h375v375z" fill="#bbd7fe" fill-rule="nonzero"/>
        <path d="M2988.81 1778.77h-375v-375l366.666 25 8.334 350z" fill="#006aff" fill-rule="nonzero"/>
        <path d="M3809.64 1299.61h-375v-375l366.667 25 8.333 350z" fill="#fe2326" fill-rule="nonzero"/>
        <path d="M3751.31 1707.94h-375v-375l366.666 25 8.334 350zm-929.17 370.83h-341.667v-375h375l-33.333 375zm125 391.67h-341.667v-375h375l-33.333 375z" fill="#bbd7fe" fill-rule="nonzero"/>
        <path fill="#64a0f9" d="M2955.56 4242.98H9239.7v96.125H2955.56z"/>
        <path d="M8869.55 3249.51c-10.9 1.192-22.187.438-33.42-2.533-48.975-12.962-78.18-63.175-65.221-112.154l243.071-918.646c12.958-48.987 63.195-78.175 112.154-65.221 48.975 12.963 78.179 63.175 65.221 112.15l-243.071 918.65c-9.988 37.746-42.109 63.75-78.734 67.754" fill="#fff" fill-rule="nonzero"/>
        <path d="M9018.6 2985.96l201.121-763.304c15.267-57.942-19.333-117.296-77.275-132.562-57.941-15.267-117.291 19.333-132.558 77.275l-201.121 763.304 209.833 55.287z" fill="#fe2326" fill-rule="nonzero"/>
        <path d="M8785.14 2895.22c-4.646 17.633 5.883 35.7 23.516 40.346l203.751 53.683c17.637 4.646 35.7-5.883 40.345-23.516 4.646-17.634-5.883-35.7-23.516-40.346l-203.75-53.684c-17.638-4.645-35.7 5.884-40.346 23.517" fill="#e5151f" fill-rule="nonzero"/>
        <path d="M9277.2 3016.54c37.542 6.5 68.534 36.15 74.913 75.871 8.029 50.025-29.946 144.996-79.967 153.033l-708.987 66.554c-50.029 8.042-97.092-26.012-105.121-76.029-8.033-50.029 26.008-97.092 76.029-105.125l712.925-114.462a91.55 91.55 0 0130.208.158" fill="#fff" fill-rule="nonzero"/>
        <path d="M10029.8 2086.77v446.758h-.08v1010.64h-924.554v-1457.4l86.079-14.067 57.796-9.404 132.254-21.634 19.646-3.212a1035.626 1035.626 0 01333.004 0l19.65 3.212 132.33 21.634 57.716 9.404 86.159 14.067z" fill="#fe2326" fill-rule="nonzero"/>
        <path d="M9843.25 2701.37l-59.655 24.079a64.436 64.436 0 01-48.254 0l-59.658-24.079c-24.371-9.837-40.329-33.487-40.329-59.771v-158.037h248.225v158.037c0 26.284-15.954 49.934-40.329 59.771m-89.63-659.71v65.288c0 102.591-83.479 186.07-186.071 186.07h-.154c-102.591 0-186.075-83.479-186.075-186.07v-65.288l19.65-3.212a1035.626 1035.626 0 01333.004 0l19.646 3.212z" fill="#e5151f" fill-rule="nonzero"/>
        <path d="M9677.14 1872.34v234.638c0 60.566-49.059 109.629-109.63 109.629h-.095c-60.567 0-109.63-49.063-109.63-109.629V1872.34h219.355z" fill="#fff" fill-rule="nonzero"/>
        <path d="M9677.14 1852.68v157.934c-20.755 33.87-58.021 56.512-100.667 56.512h-18.021c-42.642 0-79.908-22.642-100.667-56.512V1852.68h219.355z" fill="#bbd7fe" fill-rule="nonzero"/>
        <path d="M9357.93 1644.41c1.796 29.534-20.687 54.929-50.22 56.725-29.534 1.796-54.934-20.687-56.73-50.221-1.795-29.533 20.692-54.929 50.221-56.725 29.538-1.8 54.934 20.688 56.729 50.221m506.97-30.83c1.795 29.533-20.688 54.929-50.221 56.729-29.534 1.796-54.934-20.691-56.729-50.225-1.796-29.533 20.691-54.929 50.225-56.725 29.533-1.796 54.929 20.688 56.725 50.221" fill="#fff" fill-rule="nonzero"/>
        <path d="M9572.16 2032.29c-138.079 8.396-229.975-95.379-238.371-233.458l-27.962-186.017c-8.4-138.079 96.729-256.821 234.808-265.217 138.075-8.4 256.817 96.729 265.217 234.804l-.234 191.859c-34.404 272.775-233.458 258.029-233.458 258.029" fill="#fff" fill-rule="nonzero"/>
        <path d="M9336.19 1654.98c11.541-.7 20.512-10.296 20.396-21.859-.942-95.77-5.421-277.712-5.421-277.712l-31.738-4.971c-55.404-8.679-98.546 47.258-76.046 98.625 31.467 71.829 69.909 158.433 92.809 205.917m444.62-27.04c-11.542.7-21.609-7.734-22.896-19.225-10.671-95.179-28.271-276.325-28.271-276.325l30.9-8.779c53.946-15.33 103.55 34.966 87.438 88.683-22.53 75.112-50.192 165.737-67.171 215.646m-126.01 49.7c.559 9.175-6.429 17.066-15.604 17.625-9.175.558-17.066-6.429-17.625-15.604-.554-9.175 6.429-17.067 15.604-17.625 9.175-.559 17.067 6.429 17.625 15.604m8.66-84.45l-53.046 3.225a9.432 9.432 0 01-9.987-8.842 9.433 9.433 0 018.842-9.992l53.045-3.225c5.2-.316 9.675 3.642 9.992 8.842.313 5.204-3.646 9.675-8.846 9.992m-246.61 98.11c.558 9.175 8.45 16.162 17.625 15.604 9.175-.559 16.104-9.367 15.6-17.625-.5-8.259-8.446-16.163-17.621-15.604-9.179.558-16.163 8.45-15.604 17.625m39.89-64.96l-53.045 3.225c-5.2.317-9.671-3.641-9.988-8.846-.317-5.2 3.642-9.67 8.842-9.987l53.046-3.225c5.2-.317 9.675 3.642 9.991 8.842.313 5.204-3.646 9.675-8.846 9.991" fill-rule="nonzero"/>
        <path d="M9500.82 1850.21c40.825 50.971 92.475 28.375 109.462-16.996l-109.462 16.996z" fill="#bbd7fe" fill-rule="nonzero"/>
        <path d="M9531.23 1766.54c-6.275 0-12.217-1.179-16.134-4.642-2.762-2.437-5.708-7.058-4.07-15.196l18.645-80.45c.567-2.416 2.988-3.904 5.4-3.366a4.5 4.5 0 013.363 5.4l-18.617 80.32c-.933 4.638.7 6.08 1.238 6.555 5.308 4.687 23.416 1.554 34.571-2.163 2.35-.8 4.904.483 5.691 2.842a4.493 4.493 0 01-2.841 5.687c-3.421 1.142-15.875 5.013-27.246 5.013m-165.65-535.19c.067.008.133.012.204.021 12.667 1.258 25.175-2.525 34.834-10.817 50.862-43.65 118.733-67.312 190.712-60.283 135.175 13.2 235.292 129.721 229.883 263.729l-314.475-30.708-191.975-18.75-119.004-11.621c12.663-81.375 86.821-139.675 169.821-131.571" fill-rule="nonzero"/>
        <path d="M9568.31 1291.53c18.988 27.933-27.187 92.429-103.133 144.05-75.95 51.621-152.908 70.821-171.896 42.888-18.987-27.934 27.188-92.43 103.134-144.05 75.95-51.621 152.908-70.821 171.895-42.888" fill-rule="nonzero"/>
        <path d="M9426.26 1269.45c-24.904 48.366 37.071 129.883 138.425 182.071 101.355 52.183 203.709 55.279 228.613 6.912 24.904-48.367-37.071-129.879-138.425-182.067-101.354-52.187-203.708-55.283-228.613-6.916" fill-rule="nonzero"/>
        <path d="M9318.25 6227.13l243.441-2592.48h-456.475l-92.77 2565.5 305.804 26.983zm485.69 9l296.808-35.975-70.946-2565.5h-456.475l230.613 2601.47z" fill="#006aff" fill-rule="nonzero"/>
        <path d="M10029.8 3609.27l-42.142 343.604H9130.02l-24.804-343.604h924.584z" fill="#006aff" fill-rule="nonzero"/>
        <path d="M9397.5 3609.27l-127.934 127.933c-36.887 36.888-96.608 36.888-133.496 0l-30.85-30.854v-97.079h292.279zm632.3 0v96.987l-30.945 30.946c-36.888 36.888-96.609 36.888-133.5 0L9762.8 3634.649l-25.375-25.379h292.375z" fill="#0058d8" fill-rule="nonzero"/>
        <path fill="#161e59" d="M9105.18 3539.81h924.583v94.821H9105.18z"/>
        <path fill="#fff" d="M9482.13 3539.81h170.671v94.821H9482.13z"/>
        <path fill="#006aff" d="M9170.37 3539.81h36.987v94.821h-36.987zm209.58 0h36.987v94.821h-36.987zm338.05 0h36.987v94.821H9718zm209.57 0h36.987v94.821h-36.987z"/>
        <path d="M9301.71 6532.97c12.192 0 23.792-7.212 28.775-19.221 2.85-6.879 4.379-14.041 4.379-21.416 0-52.546-75.371-95.142-168.346-95.142-92.975 0-168.345 42.596-168.345 95.142 0 7.375 1.529 14.537 4.379 21.416 4.979 12.009 16.583 19.221 28.775 19.221h270.383z" fill="#fff" fill-rule="nonzero"/>
        <path d="M9307.62 6481.34a76.09 76.09 0 01-44.4-14.296l-40.204-28.888c-23.038-16.55-53.971-16.895-77.371-.862l-44.842 30.725a76.118 76.118 0 01-43.012 13.321h-11.671c-19.783 0-33.379-19.888-26.204-38.325 10.521-25.379 39.454-239.929 39.454-239.929 1.838-36.15 11.767-54.505 47.963-54.505h126.45l11.42 11.259c28.246 27.854 53.367 59.579 59.909 98.704 6.183 36.954.858 80.9-1.621 110.504-2.096 25-.442 50.171 4.9 74.679l6.287 28.85c.98 4.504-2.45 8.763-7.058 8.763" fill="#161e59" fill-rule="nonzero"/>
        <path d="M9242.35 6224.12H9103.7v-91.317c0-38.287 31.038-69.325 69.325-69.325 38.288 0 69.325 31.038 69.325 69.325v91.317z" fill="#161e59" fill-rule="nonzero"/>
        <path d="M9242.05 6236.46h-138.054c-6.837 0-12.383-5.546-12.383-12.384 0-6.837 5.546-12.383 12.383-12.383h138.054c6.838 0 12.383 5.546 12.383 12.383.001 6.838-5.545 12.384-12.383 12.384m0 43.55h-138.054c-6.837 0-12.383-5.546-12.383-12.383 0-6.838 5.546-12.383 12.383-12.383h138.054c6.838 0 12.383 5.545 12.383 12.383.001 6.837-5.545 12.383-12.383 12.383m591.21 252.96c-12.192 0-23.792-7.212-28.775-19.221-2.85-6.879-4.379-14.041-4.379-21.416 0-52.546 75.371-95.142 168.346-95.142 92.975 0 168.346 42.596 168.346 95.142 0 7.375-1.53 14.537-4.38 21.416-4.979 12.009-16.583 19.221-28.775 19.221H9833.26z" fill="#fff" fill-rule="nonzero"/>
        <path d="M9827.36 6481.34c15.933 0 31.463-5 44.4-14.296l40.204-28.888c23.038-16.55 53.971-16.895 77.371-.862l44.842 30.725a76.118 76.118 0 0043.012 13.321h11.671c19.783 0 33.379-19.888 26.204-38.325-10.521-25.379-39.454-239.929-39.454-239.929-1.837-36.15-11.767-54.505-47.962-54.505h-126.45l-11.421 11.259c-28.246 27.854-53.367 59.579-59.909 98.704-6.183 36.954-.858 80.9 1.621 110.504a251.99 251.99 0 01-4.9 74.679l-6.287 28.85c-.984 4.504 2.45 8.763 7.058 8.763" fill="#161e59" fill-rule="nonzero"/>
        <path d="M9892.63 6224.12h138.65v-91.317c0-38.287-31.037-69.325-69.325-69.325-38.287 0-69.325 31.038-69.325 69.325v91.317z" fill="#161e59" fill-rule="nonzero"/>
        <path d="M9892.93 6236.46h138.054c6.838 0 12.379-5.546 12.379-12.384 0-6.837-5.541-12.383-12.379-12.383H9892.93c-6.837 0-12.383 5.546-12.383 12.383 0 6.838 5.546 12.384 12.383 12.384m0 43.55h138.054c6.838 0 12.379-5.546 12.379-12.383 0-6.838-5.541-12.383-12.379-12.383H9892.93c-6.837 0-12.383 5.545-12.383 12.383 0 6.837 5.546 12.383 12.383 12.383" fill="#fff" fill-rule="nonzero"/>
        <path d="M8874.95 2402.45c15.754 0 35.879 12.804 44.921 28.558l367.313 636.038c9.045 15.754 3.658 28.558-12.096 28.558h49.904c15.654 0 21.042-12.804 11.996-28.558l-367.213-636.038c-9.146-15.754-29.271-28.558-44.921-28.558h-49.904z" fill="#0058d8" fill-rule="nonzero"/>
        <path d="M7901.7 2430.96l367.262 636.117c9.083 15.737 29.188 28.479 44.925 28.479h961.225c15.733 0 21.121-12.742 12.033-28.479l-367.258-636.117c-9.087-15.733-29.192-28.479-44.925-28.479h-961.225c-15.737 0-21.121 12.746-12.037 28.479" fill="#006aff" fill-rule="nonzero"/>
        <path d="M8463.58 2749.02c15.029 41.291 60.684 74.762 101.971 74.762 41.292 0 62.579-33.471 47.554-74.763-15.029-41.291-60.683-74.762-101.975-74.762-41.287 0-62.579 33.471-47.55 74.762" fill="#d9eaff" fill-rule="nonzero"/>
        <path d="M9465.38 3168.99H8364.16c-41.946 0-75.95-34.005-75.95-75.95h1177.17v75.95z" fill="#0058d8" fill-rule="nonzero"/>
        <path d="M9410.83 3168.99h491.258c41.946 0 75.95-34.005 75.95-75.95H9334.88c0 41.945 34.004 75.95 75.95 75.95" fill="#006aff" fill-rule="nonzero"/>
        <path d="M10361.8 3217.97c10.963 0 22.105-1.979 32.946-6.15 47.279-18.209 70.85-71.3 52.646-118.579l-341.462-886.788c-18.205-47.287-71.317-70.846-118.575-52.65-47.28 18.208-70.855 71.296-52.646 118.575l341.462 886.792c14.029 36.441 48.788 58.8 85.629 58.8" fill="#fff" fill-rule="nonzero"/>
        <path d="M10184.9 2972.18l-362.021-671.091c-21.471-55.942 85.608-184.538 141.55-206.009 55.937-21.475 118.7 6.467 140.171 62.409l282.883 736.929-202.583 77.762z" fill="#fe2326" fill-rule="nonzero"/>
        <path d="M10407.2 2856.62c6.533 17.025-1.967 36.125-18.996 42.662l-196.709 75.509c-17.025 6.537-36.125-1.967-42.662-18.996-6.533-17.025 1.971-36.125 18.996-42.658l196.708-75.513c17.025-6.533 36.125 1.971 42.663 18.996" fill="#e5151f" fill-rule="nonzero"/>
        <path d="M9515.26 2941.11c0 77.829 63.091 140.925 140.925 140.925 77.825 0 140.92-63.096 140.92-140.925 0-77.829-63.095-140.925-140.92-140.925-77.834 0-140.925 63.096-140.925 140.925" fill="#fff" fill-rule="nonzero"/>
        <path d="M9477.51 3077.53c-6.691 0-13.466-1.771-19.616-5.483-17.95-10.854-23.7-34.2-12.846-52.154l98.746-163.309c10.854-17.945 34.196-23.699 52.154-12.845 17.946 10.85 23.696 34.2 12.846 52.15l-98.746 163.312c-7.138 11.8-19.683 18.329-32.538 18.329" fill="#fff" fill-rule="nonzero"/>
        <path d="M10367.7 3240.52c38.1 0 71.071-28.625 84.138-66.675 16.445-47.921-17.484-112.85-65.4-129.304l-682.934-234.438c-47.921-16.462-100.104 9.063-116.55 56.975-16.454 47.921 9.059 100.104 56.975 116.558 0 0 643.413 276.275 723.771 256.884m-1956.83-66.15c0-77.829 63.092-140.925 140.925-140.925 77.825 0 103.688 59.162 103.688 136.992 0 77.829-25.863 144.858-103.688 144.858-77.833 0-140.925-63.096-140.925-140.925m-850.33-1487.19c-.525-.567-.791-1.296-.791-2.175v-74.254l-22.117 16.983c-.621.525-1.275.796-1.983.796-.78 0-1.53-.442-2.23-1.321l-3.158-4.079c-.442-.613-.667-1.233-.667-1.846 0-.962.442-1.754 1.321-2.367l28.575-22.125c.963-.612 2.1-.92 3.417-.92h6.196c.866 0 1.596.287 2.162.854.579.579.859 1.3.859 2.175v86.104c0 .879-.28 1.608-.859 2.175-.566.579-1.296.858-2.162.858h-6.463c-.866 0-1.575-.279-2.1-.858m78.59-15.47c3.429-4.479 5.229-10.787 5.4-18.954.088-2.55.138-6.191.138-10.929 0-4.833-.05-8.433-.138-10.8-.171-8.067-1.992-14.367-5.462-18.888-3.463-4.524-8.542-6.783-15.205-6.783-6.675 0-11.725 2.258-15.141 6.783-3.429 4.521-5.229 10.821-5.4 18.888l-.129 10.8.129 10.929c.171 8.167 1.971 14.475 5.4 18.954 3.416 4.48 8.466 6.717 15.141 6.717 6.759 0 11.85-2.237 15.267-6.717m-40.083 7.705c-5.229-6.621-8.013-15.292-8.367-26.005l-.129-11.325.129-11.712c.267-10.617 3.054-19.242 8.367-25.875 5.304-6.621 13.575-9.933 24.816-9.933 11.325 0 19.638 3.312 24.955 9.933 5.304 6.633 8.087 15.258 8.354 25.875.087 2.454.129 6.367.129 11.712 0 5.184-.042 8.959-.129 11.325-.35 10.713-3.138 19.384-8.354 26.005-5.23 6.633-13.546 9.941-24.955 9.941-11.325 0-19.6-3.308-24.816-9.941m123.423-7.705c3.429-4.479 5.229-10.787 5.4-18.954.088-2.55.138-6.191.138-10.929 0-4.833-.05-8.433-.138-10.8-.171-8.067-1.992-14.367-5.462-18.888-3.463-4.524-8.542-6.783-15.205-6.783-6.675 0-11.725 2.258-15.141 6.783-3.429 4.521-5.229 10.821-5.4 18.888l-.129 10.8.129 10.929c.171 8.167 1.971 14.475 5.4 18.954 3.416 4.48 8.466 6.717 15.141 6.717 6.759 0 11.85-2.237 15.267-6.717m-40.083 7.705c-5.229-6.621-8.013-15.292-8.367-26.005l-.129-11.325.129-11.712c.267-10.617 3.054-19.242 8.367-25.875 5.304-6.621 13.575-9.933 24.816-9.933 11.325 0 19.638 3.312 24.955 9.933 5.304 6.633 8.087 15.258 8.354 25.875.087 2.454.129 6.367.129 11.712 0 5.184-.042 8.959-.129 11.325-.35 10.713-3.138 19.384-8.354 26.005-5.23 6.633-13.546 9.941-24.955 9.941-11.325 0-19.6-3.308-24.816-9.941m100.773 7.765c-.525-.567-.792-1.296-.792-2.175v-74.254l-22.116 16.983c-.621.525-1.275.796-1.984.796-.779 0-1.529-.442-2.225-1.321l-3.162-4.079c-.438-.613-.663-1.233-.663-1.846 0-.962.438-1.754 1.317-2.367l28.575-22.125c.963-.612 2.1-.92 3.417-.92h6.195c.867 0 1.596.287 2.163.854.579.579.858 1.3.858 2.175v86.104c0 .879-.279 1.608-.858 2.175-.567.579-1.296.858-2.162.858h-6.463c-.867 0-1.575-.279-2.1-.858m78.6-15.47c3.429-4.479 5.229-10.787 5.4-18.954.088-2.55.138-6.191.138-10.929 0-4.833-.05-8.433-.138-10.8-.171-8.067-1.991-14.367-5.462-18.888-3.463-4.524-8.542-6.783-15.204-6.783-6.675 0-11.725 2.258-15.142 6.783-3.429 4.521-5.229 10.821-5.4 18.888l-.129 10.8.129 10.929c.171 8.167 1.971 14.475 5.4 18.954 3.417 4.48 8.467 6.717 15.142 6.717 6.758 0 11.85-2.237 15.266-6.717m-40.083 7.705c-5.229-6.621-8.013-15.292-8.367-26.005l-.129-11.325.129-11.712c.267-10.617 3.054-19.242 8.367-25.875 5.304-6.621 13.575-9.933 24.817-9.933 11.325 0 19.637 3.312 24.954 9.933 5.304 6.633 8.087 15.258 8.354 25.875.087 2.454.129 6.367.129 11.712 0 5.184-.042 8.959-.129 11.325-.354 10.713-3.138 19.384-8.354 26.005-5.229 6.633-13.546 9.941-24.954 9.941-11.325 0-19.6-3.308-24.817-9.941m123.413-7.705c3.429-4.479 5.229-10.787 5.4-18.954.088-2.55.138-6.191.138-10.929 0-4.833-.05-8.433-.138-10.8-.171-8.067-1.991-14.367-5.466-18.888-3.459-4.524-8.538-6.783-15.2-6.783-6.675 0-11.725 2.258-15.142 6.783-3.429 4.521-5.229 10.821-5.4 18.888l-.129 10.8.129 10.929c.171 8.167 1.971 14.475 5.4 18.954 3.417 4.48 8.467 6.717 15.142 6.717 6.758 0 11.85-2.237 15.266-6.717m-40.083 7.705c-5.229-6.621-8.013-15.292-8.367-26.005l-.129-11.325.129-11.712c.267-10.617 3.054-19.242 8.367-25.875 5.304-6.621 13.575-9.933 24.817-9.933 11.325 0 19.637 3.312 24.954 9.933 5.304 6.633 8.087 15.258 8.354 25.875.087 2.454.129 6.367.129 11.712 0 5.184-.042 8.959-.129 11.325-.354 10.713-3.138 19.384-8.354 26.005-5.229 6.633-13.546 9.941-24.954 9.941-11.325 0-19.6-3.308-24.817-9.941m100.783 7.765c-.525-.567-.792-1.296-.792-2.175v-74.254l-22.116 16.983c-.621.525-1.275.796-1.984.796-.779 0-1.529-.442-2.225-1.321l-3.162-4.079c-.438-.613-.667-1.233-.667-1.846 0-.962.442-1.754 1.321-2.367l28.575-22.125c.963-.612 2.1-.92 3.417-.92h6.196c.866 0 1.595.287 2.162.854.579.579.858 1.3.858 2.175v86.104c0 .879-.279 1.608-.858 2.175-.567.579-1.296.858-2.162.858h-6.463c-.867 0-1.575-.279-2.1-.858m78.59-15.47c3.429-4.479 5.229-10.787 5.4-18.954.087-2.55.137-6.191.137-10.929 0-4.833-.05-8.433-.137-10.8-.171-8.067-1.992-14.367-5.467-18.888-3.458-4.524-8.537-6.783-15.2-6.783-6.675 0-11.725 2.258-15.142 6.783-3.429 4.521-5.229 10.821-5.4 18.888l-.129 10.8.129 10.929c.171 8.167 1.971 14.475 5.4 18.954 3.417 4.48 8.467 6.717 15.142 6.717 6.758 0 11.85-2.237 15.267-6.717m-40.084 7.705c-5.229-6.621-8.012-15.292-8.366-26.005l-.129-11.325.129-11.712c.266-10.617 3.05-19.242 8.366-25.875 5.305-6.621 13.575-9.933 24.817-9.933 11.325 0 19.638 3.312 24.954 9.933 5.304 6.633 8.088 15.258 8.354 25.875.088 2.454.13 6.367.13 11.712 0 5.184-.042 8.959-.13 11.325-.354 10.713-3.137 19.384-8.354 26.005-5.229 6.633-13.546 9.941-24.954 9.941-11.325 0-19.6-3.308-24.817-9.941m123.424-7.705c3.429-4.479 5.229-10.787 5.4-18.954.087-2.55.137-6.191.137-10.929 0-4.833-.05-8.433-.137-10.8-.171-8.067-1.992-14.367-5.467-18.888-3.458-4.524-8.538-6.783-15.2-6.783-6.675 0-11.725 2.258-15.142 6.783-3.429 4.521-5.229 10.821-5.4 18.888l-.129 10.8.129 10.929c.171 8.167 1.971 14.475 5.4 18.954 3.417 4.48 8.467 6.717 15.142 6.717 6.758 0 11.85-2.237 15.267-6.717m-40.084 7.705c-5.229-6.621-8.012-15.292-8.366-26.005l-.13-11.325.13-11.712c.266-10.617 3.05-19.242 8.366-25.875 5.305-6.621 13.575-9.933 24.817-9.933 11.325 0 19.637 3.312 24.954 9.933 5.304 6.633 8.088 15.258 8.354 25.875.088 2.454.13 6.367.13 11.712-.001 5.184-.042 8.959-.13 11.325-.354 10.713-3.137 19.384-8.354 26.005-5.229 6.633-13.546 9.941-24.954 9.941-11.325 0-19.6-3.308-24.817-9.941M7583.18 1829.71c3.429-4.479 5.229-10.787 5.399-18.954.088-2.55.138-6.192.138-10.929 0-4.834-.05-8.434-.138-10.8-.17-8.067-1.991-14.367-5.462-18.888-3.462-4.525-8.542-6.783-15.204-6.783-6.675 0-11.725 2.258-15.142 6.783-3.429 4.521-5.229 10.821-5.4 18.888l-.129 10.8.129 10.929c.171 8.167 1.971 14.475 5.4 18.954 3.417 4.479 8.467 6.717 15.142 6.717 6.758 0 11.85-2.238 15.266-6.717m-40.083 7.704c-5.229-6.621-8.012-15.291-8.367-26.004l-.129-11.325.13-11.712c.266-10.617 3.054-19.242 8.366-25.875 5.304-6.621 13.575-9.934 24.817-9.934 11.325 0 19.637 3.313 24.954 9.934 5.304 6.633 8.087 15.258 8.354 25.875.088 2.454.129 6.366.129 11.712 0 5.188-.041 8.958-.129 11.325-.35 10.713-3.137 19.383-8.354 26.004-5.229 6.634-13.546 9.942-24.954 9.942-11.325 0-19.6-3.308-24.817-9.942m100.784 7.766c-.525-.567-.792-1.296-.792-2.175v-74.25l-22.117 16.979c-.62.525-1.274.796-1.983.796-.779 0-1.529-.442-2.225-1.321l-3.162-4.079c-.438-.613-.663-1.234-.663-1.846 0-.963.438-1.754 1.317-2.367l28.575-22.125c.962-.612 2.1-.921 3.417-.921h6.195c.867 0 1.596.288 2.163.859.579.575.858 1.296.858 2.171v86.104c0 .879-.279 1.608-.858 2.175-.567.579-1.296.858-2.163.858h-6.462c-.867 0-1.575-.279-2.1-.858m55.95 0c-.525-.567-.792-1.296-.792-2.175v-74.25l-22.116 16.979c-.621.525-1.275.796-1.984.796-.779 0-1.529-.442-2.225-1.321l-3.162-4.079c-.438-.613-.663-1.234-.663-1.846 0-.963.438-1.754 1.317-2.367l28.575-22.125c.963-.612 2.1-.921 3.417-.921h6.196c.866 0 1.595.288 2.162.859.579.575.858 1.296.858 2.171v86.104c0 .879-.279 1.608-.858 2.175-.567.579-1.296.858-2.162.858h-6.463c-.867 0-1.575-.279-2.1-.858m78.59-15.47c3.429-4.479 5.229-10.787 5.4-18.954.088-2.55.138-6.192.138-10.929 0-4.834-.05-8.434-.138-10.8-.171-8.067-1.991-14.367-5.462-18.888-3.463-4.525-8.542-6.783-15.204-6.783-6.675 0-11.725 2.258-15.142 6.783-3.429 4.521-5.229 10.821-5.4 18.888l-.129 10.8.129 10.929c.171 8.167 1.971 14.475 5.4 18.954 3.417 4.479 8.467 6.717 15.142 6.717 6.758 0 11.85-2.238 15.266-6.717m-40.083 7.704c-5.229-6.621-8.013-15.291-8.367-26.004l-.129-11.325.129-11.712c.267-10.617 3.055-19.242 8.367-25.875 5.304-6.621 13.575-9.934 24.817-9.934 11.325 0 19.637 3.313 24.954 9.934 5.304 6.633 8.087 15.258 8.354 25.875.087 2.454.129 6.366.129 11.712 0 5.188-.042 8.958-.129 11.325-.35 10.713-3.138 19.383-8.354 26.004-5.229 6.634-13.546 9.942-24.954 9.942-11.325 0-19.6-3.308-24.817-9.942m123.423-7.704c3.429-4.479 5.229-10.787 5.4-18.954.088-2.55.138-6.192.138-10.929 0-4.834-.05-8.434-.138-10.8-.171-8.067-1.991-14.367-5.462-18.888-3.463-4.525-8.542-6.783-15.204-6.783-6.675 0-11.725 2.258-15.142 6.783-3.429 4.521-5.229 10.821-5.4 18.888l-.129 10.8.129 10.929c.171 8.167 1.971 14.475 5.4 18.954 3.417 4.479 8.467 6.717 15.142 6.717 6.758 0 11.85-2.238 15.266-6.717m-40.083 7.704c-5.229-6.621-8.013-15.291-8.367-26.004l-.129-11.325.129-11.712c.267-10.617 3.054-19.242 8.367-25.875 5.304-6.621 13.575-9.934 24.817-9.934 11.325 0 19.637 3.313 24.954 9.934 5.304 6.633 8.087 15.258 8.354 25.875.087 2.454.129 6.366.129 11.712 0 5.188-.042 8.958-.129 11.325-.354 10.713-3.138 19.383-8.354 26.004-5.229 6.634-13.546 9.942-24.954 9.942-11.325 0-19.6-3.308-24.817-9.942m100.773 7.766c-.525-.567-.791-1.296-.791-2.175v-74.25l-22.117 16.979c-.621.525-1.275.796-1.983.796-.78 0-1.53-.442-2.225-1.321l-3.163-4.079c-.437-.613-.667-1.234-.667-1.846 0-.963.442-1.754 1.321-2.367l28.575-22.125c.963-.612 2.1-.921 3.417-.921h6.196c.866 0 1.596.288 2.162.859.579.575.859 1.296.859 2.171v86.104c0 .879-.28 1.608-.859 2.175-.566.579-1.296.858-2.162.858h-6.463c-.866 0-1.575-.279-2.1-.858m78.6-15.47c3.429-4.479 5.229-10.787 5.4-18.954.087-2.55.137-6.192.137-10.929 0-4.834-.05-8.434-.137-10.8-.171-8.067-1.992-14.367-5.467-18.888-3.458-4.525-8.537-6.783-15.2-6.783-6.675 0-11.725 2.258-15.141 6.783-3.43 4.521-5.23 10.821-5.4 18.888l-.13 10.8.13 10.929c.17 8.167 1.97 14.475 5.4 18.954 3.416 4.479 8.466 6.717 15.141 6.717 6.759 0 11.85-2.238 15.267-6.717m-40.083 7.704c-5.23-6.621-8.013-15.291-8.367-26.004l-.129-11.325.129-11.712c.267-10.617 3.054-19.242 8.367-25.875 5.304-6.621 13.575-9.934 24.816-9.934 11.325 0 19.638 3.313 24.954 9.934 5.305 6.633 8.088 15.258 8.355 25.875.087 2.454.129 6.366.129 11.712 0 5.188-.042 8.958-.129 11.325-.355 10.713-3.138 19.383-8.355 26.004-5.229 6.634-13.545 9.942-24.954 9.942-11.325 0-19.6-3.308-24.816-9.942m123.413-7.704c3.429-4.479 5.229-10.787 5.4-18.954.087-2.55.137-6.192.137-10.929 0-4.834-.05-8.434-.137-10.8-.171-8.067-1.992-14.367-5.467-18.888-3.458-4.525-8.537-6.783-15.2-6.783-6.675 0-11.725 2.258-15.142 6.783-3.429 4.521-5.229 10.821-5.4 18.888l-.129 10.8.129 10.929c.171 8.167 1.971 14.475 5.4 18.954 3.417 4.479 8.467 6.717 15.142 6.717 6.758 0 11.85-2.238 15.267-6.717m-40.084 7.704c-5.229-6.621-8.012-15.291-8.366-26.004l-.129-11.325.129-11.712c.266-10.617 3.05-19.242 8.366-25.875 5.305-6.621 13.575-9.934 24.817-9.934 11.325 0 19.638 3.313 24.954 9.934 5.304 6.633 8.088 15.258 8.354 25.875.088 2.454.13 6.366.13 11.712 0 5.188-.042 8.958-.13 11.325-.354 10.713-3.137 19.383-8.354 26.004-5.229 6.634-13.546 9.942-24.954 9.942-11.325 0-19.6-3.308-24.817-9.942m100.784 7.766c-.525-.567-.792-1.296-.792-2.175v-74.25l-22.117 16.979c-.62.525-1.275.796-1.983.796-.779 0-1.529-.442-2.225-1.321l-3.162-4.079c-.438-.613-.667-1.234-.667-1.846 0-.963.442-1.754 1.321-2.367l28.575-22.125c.962-.612 2.1-.921 3.416-.921h6.196c.867 0 1.596.288 2.163.859.579.575.858 1.296.858 2.171v86.104c0 .879-.279 1.608-.858 2.175-.567.579-1.296.858-2.163.858h-6.462c-.867 0-1.575-.279-2.1-.858m78.59-15.47c3.429-4.479 5.229-10.787 5.4-18.954.087-2.55.137-6.192.137-10.929 0-4.834-.05-8.434-.137-10.8-.171-8.067-1.992-14.367-5.467-18.888-3.458-4.525-8.537-6.783-15.2-6.783-6.675 0-11.725 2.258-15.141 6.783-3.43 4.521-5.23 10.821-5.4 18.888l-.13 10.8.13 10.929c.17 8.167 1.97 14.475 5.4 18.954 3.416 4.479 8.466 6.717 15.141 6.717 6.759 0 11.85-2.238 15.267-6.717m-40.083 7.704c-5.23-6.621-8.013-15.291-8.367-26.004l-.129-11.325.129-11.712c.267-10.617 3.05-19.242 8.367-25.875 5.304-6.621 13.575-9.934 24.816-9.934 11.325 0 19.638 3.313 24.954 9.934 5.3 6.633 8.088 15.258 8.355 25.875.087 2.454.129 6.366.129 11.712 0 5.188-.042 8.958-.129 11.325-.355 10.713-3.138 19.383-8.355 26.004-5.229 6.634-13.545 9.942-24.954 9.942-11.325 0-19.6-3.308-24.816-9.942m123.423-7.704c3.43-4.479 5.23-10.787 5.4-18.954.088-2.55.138-6.192.138-10.929 0-4.834-.05-8.434-.138-10.8-.17-8.067-1.991-14.367-5.462-18.888-3.463-4.525-8.542-6.783-15.204-6.783-6.675 0-11.725 2.258-15.142 6.783-3.429 4.521-5.229 10.821-5.4 18.888l-.129 10.8.129 10.929c.171 8.167 1.971 14.475 5.4 18.954 3.417 4.479 8.467 6.717 15.142 6.717 6.758 0 11.85-2.238 15.266-6.717m-40.083 7.704c-5.229-6.621-8.012-15.291-8.367-26.004l-.129-11.325.129-11.712c.267-10.617 3.055-19.242 8.367-25.875 5.304-6.621 13.575-9.934 24.817-9.934 11.325 0 19.637 3.313 24.954 9.934 5.304 6.633 8.087 15.258 8.354 25.875.088 2.454.129 6.366.129 11.712 0 5.188-.041 8.958-.129 11.325-.35 10.713-3.137 19.383-8.354 26.004-5.229 6.634-13.546 9.942-24.954 9.942-11.325 0-19.6-3.308-24.817-9.942m100.783 7.766c-.525-.567-.792-1.296-.792-2.175v-74.25l-22.117 16.979c-.62.525-1.275.796-1.983.796-.779 0-1.529-.442-2.229-1.321l-3.158-4.079c-.442-.613-.667-1.234-.667-1.846 0-.963.442-1.754 1.321-2.367l28.575-22.125c.962-.612 2.1-.921 3.416-.921h6.196c.867 0 1.596.288 2.163.859.579.575.858 1.296.858 2.171v86.104c0 .879-.279 1.608-.858 2.175-.567.579-1.296.858-2.163.858h-6.462c-.867 0-1.575-.279-2.1-.858m-784.53 142.53c3.429-4.479 5.229-10.787 5.399-18.954.088-2.55.138-6.192.138-10.929 0-4.834-.05-8.434-.138-10.8-.17-8.067-1.991-14.367-5.462-18.888-3.462-4.525-8.542-6.783-15.204-6.783-6.675 0-11.725 2.258-15.142 6.783-3.429 4.521-5.229 10.821-5.4 18.888l-.129 10.8.129 10.929c.171 8.167 1.971 14.475 5.4 18.954 3.417 4.479 8.467 6.717 15.142 6.717 6.758 0 11.85-2.238 15.266-6.717m-40.083 7.704c-5.229-6.621-8.012-15.291-8.367-26.004l-.129-11.325.13-11.712c.266-10.617 3.054-19.242 8.366-25.875 5.304-6.621 13.575-9.934 24.817-9.934 11.325 0 19.637 3.313 24.954 9.934 5.304 6.633 8.087 15.258 8.354 25.875.088 2.454.129 6.366.129 11.712 0 5.183-.041 8.958-.129 11.325-.35 10.713-3.137 19.383-8.354 26.004-5.229 6.634-13.546 9.942-24.954 9.942-11.325 0-19.6-3.308-24.817-9.942m100.784 7.766c-.525-.567-.792-1.296-.792-2.175v-74.254l-22.117 16.983c-.62.525-1.274.796-1.983.796-.779 0-1.529-.442-2.225-1.321l-3.162-4.079c-.438-.613-.663-1.234-.663-1.846 0-.963.438-1.754 1.317-2.367l28.575-22.125c.962-.612 2.1-.921 3.417-.921h6.195c.867 0 1.596.288 2.163.855.579.579.858 1.3.858 2.175v86.104c0 .879-.279 1.608-.858 2.175-.567.579-1.296.858-2.163.858h-6.462c-.867 0-1.575-.279-2.1-.858m78.59-15.47c3.429-4.479 5.229-10.787 5.4-18.954.088-2.55.138-6.192.138-10.929 0-4.834-.05-8.434-.138-10.8-.171-8.067-1.992-14.367-5.462-18.888-3.463-4.525-8.542-6.783-15.205-6.783-6.675 0-11.725 2.258-15.141 6.783-3.429 4.521-5.229 10.821-5.4 18.888l-.129 10.8.129 10.929c.171 8.167 1.971 14.475 5.4 18.954 3.416 4.479 8.466 6.717 15.141 6.717 6.759 0 11.85-2.238 15.267-6.717m-40.083 7.704c-5.229-6.621-8.013-15.291-8.367-26.004l-.129-11.325.129-11.712c.267-10.617 3.054-19.242 8.367-25.875 5.304-6.621 13.575-9.934 24.816-9.934 11.325 0 19.638 3.313 24.955 9.934 5.304 6.633 8.087 15.258 8.354 25.875.087 2.454.129 6.366.129 11.712 0 5.183-.042 8.958-.129 11.325-.35 10.713-3.138 19.383-8.354 26.004-5.23 6.634-13.546 9.942-24.955 9.942-11.325 0-19.6-3.308-24.816-9.942m123.423-7.704c3.429-4.479 5.229-10.787 5.4-18.954.087-2.55.137-6.192.137-10.929 0-4.834-.05-8.434-.137-10.8-.171-8.067-1.992-14.367-5.463-18.888-3.462-4.525-8.541-6.783-15.204-6.783-6.675 0-11.725 2.258-15.141 6.783-3.43 4.521-5.23 10.821-5.4 18.888l-.13 10.8.13 10.929c.17 8.167 1.97 14.475 5.4 18.954 3.416 4.479 8.466 6.717 15.141 6.717 6.759 0 11.85-2.238 15.267-6.717m-40.083 7.704c-5.23-6.621-8.013-15.291-8.367-26.004l-.129-11.325.129-11.712c.267-10.617 3.054-19.242 8.367-25.875 5.304-6.621 13.575-9.934 24.816-9.934 11.325 0 19.638 3.313 24.954 9.934 5.305 6.633 8.088 15.258 8.355 25.875.087 2.454.129 6.366.129 11.712 0 5.183-.042 8.958-.129 11.325-.355 10.713-3.138 19.383-8.355 26.004-5.229 6.634-13.545 9.942-24.954 9.942-11.325 0-19.6-3.308-24.816-9.942m123.413-7.704c3.429-4.479 5.229-10.787 5.4-18.954.087-2.55.137-6.192.137-10.929 0-4.834-.05-8.434-.137-10.8-.171-8.067-1.992-14.367-5.463-18.888-3.462-4.525-8.541-6.783-15.204-6.783-6.675 0-11.725 2.258-15.141 6.783-3.43 4.521-5.23 10.821-5.4 18.888l-.13 10.8.13 10.929c.17 8.167 1.97 14.475 5.4 18.954 3.416 4.479 8.466 6.717 15.141 6.717 6.759 0 11.85-2.238 15.267-6.717m-40.083 7.704c-5.23-6.621-8.013-15.291-8.367-26.004l-.129-11.325.129-11.712c.267-10.617 3.054-19.242 8.367-25.875 5.304-6.621 13.575-9.934 24.816-9.934 11.325 0 19.638 3.313 24.954 9.934 5.305 6.633 8.088 15.258 8.355 25.875.087 2.454.129 6.366.129 11.712 0 5.183-.042 8.958-.129 11.325-.355 10.713-3.138 19.383-8.355 26.004-5.229 6.634-13.545 9.942-24.954 9.942-11.325 0-19.6-3.308-24.816-9.942m100.783 7.766c-.525-.567-.792-1.296-.792-2.175v-74.254l-22.117 16.983c-.62.525-1.274.796-1.983.796-.779 0-1.529-.442-2.225-1.321l-3.162-4.079c-.438-.613-.667-1.234-.667-1.846 0-.963.442-1.754 1.321-2.367l28.575-22.125c.962-.612 2.1-.921 3.417-.921h6.195c.867 0 1.596.288 2.163.855.579.579.858 1.3.858 2.175v86.104c0 .879-.279 1.608-.858 2.175-.567.579-1.296.858-2.163.858h-6.462c-.867 0-1.575-.279-2.1-.858m78.59-15.47c3.429-4.479 5.229-10.787 5.4-18.954.088-2.55.138-6.192.138-10.929 0-4.834-.05-8.434-.138-10.8-.171-8.067-1.992-14.367-5.467-18.888-3.458-4.525-8.537-6.783-15.2-6.783-6.675 0-11.725 2.258-15.141 6.783-3.429 4.521-5.229 10.821-5.4 18.888l-.129 10.8.129 10.929c.171 8.167 1.971 14.475 5.4 18.954 3.416 4.479 8.466 6.717 15.141 6.717 6.759 0 11.85-2.238 15.267-6.717m-40.083 7.704c-5.229-6.621-8.013-15.291-8.367-26.004l-.129-11.325.129-11.712c.267-10.617 3.05-19.242 8.367-25.875 5.304-6.621 13.575-9.934 24.816-9.934 11.325 0 19.638 3.313 24.955 9.934 5.304 6.633 8.087 15.258 8.354 25.875.087 2.454.129 6.366.129 11.712 0 5.183-.042 8.958-.129 11.325-.354 10.713-3.138 19.383-8.354 26.004-5.23 6.634-13.546 9.942-24.955 9.942-11.325 0-19.6-3.308-24.816-9.942m123.423-7.704c3.429-4.479 5.229-10.787 5.4-18.954.087-2.55.137-6.192.137-10.929 0-4.834-.05-8.434-.137-10.8-.171-8.067-1.992-14.367-5.467-18.888-3.458-4.525-8.537-6.783-15.2-6.783-6.675 0-11.725 2.258-15.141 6.783-3.43 4.521-5.23 10.821-5.4 18.888l-.13 10.8.13 10.929c.17 8.167 1.97 14.475 5.4 18.954 3.416 4.479 8.466 6.717 15.141 6.717 6.759 0 11.85-2.238 15.267-6.717m-40.083 7.704c-5.23-6.621-8.013-15.291-8.367-26.004l-.129-11.325.129-11.712c.267-10.617 3.05-19.242 8.367-25.875 5.304-6.621 13.575-9.934 24.816-9.934 11.325 0 19.638 3.313 24.954 9.934 5.305 6.633 8.088 15.258 8.355 25.875.087 2.454.129 6.366.129 11.712 0 5.183-.042 8.958-.129 11.325-.355 10.713-3.138 19.383-8.355 26.004-5.229 6.634-13.545 9.942-24.954 9.942-11.325 0-19.6-3.308-24.816-9.942m100.783 7.766c-.525-.567-.792-1.296-.792-2.175v-74.254l-22.116 16.983c-.621.525-1.275.796-1.984.796-.779 0-1.529-.442-2.229-1.321l-3.158-4.079c-.442-.613-.667-1.234-.667-1.846 0-.963.442-1.754 1.321-2.367l28.575-22.125c.962-.612 2.1-.921 3.417-.921h6.195c.867 0 1.596.288 2.163.855.579.579.858 1.3.858 2.175v86.104c0 .879-.279 1.608-.858 2.175-.567.579-1.296.858-2.163.858h-6.462c-.867 0-1.575-.279-2.1-.858m55.95 0c-.525-.567-.792-1.296-.792-2.175v-74.254l-22.117 16.983c-.621.525-1.275.796-1.983.796-.779 0-1.529-.442-2.229-1.321l-3.159-4.079c-.441-.613-.666-1.234-.666-1.846 0-.963.441-1.754 1.321-2.367l28.575-22.125c.962-.612 2.1-.921 3.416-.921h6.196c.867 0 1.596.288 2.163.855.579.579.858 1.3.858 2.175v86.104c0 .879-.279 1.608-.858 2.175-.567.579-1.296.858-2.163.858h-6.462c-.867 0-1.575-.279-2.1-.858m55.95 0c-.525-.567-.792-1.296-.792-2.175v-74.254l-22.117 16.983c-.62.525-1.275.796-1.983.796-.779 0-1.529-.442-2.229-1.321l-3.158-4.079c-.442-.613-.667-1.234-.667-1.846 0-.963.442-1.754 1.321-2.367l28.575-22.125c.962-.612 2.1-.921 3.416-.921h6.196c.867 0 1.596.288 2.163.855.579.579.858 1.3.858 2.175v86.104c0 .879-.279 1.608-.858 2.175-.567.579-1.296.858-2.163.858h-6.462c-.867 0-1.575-.279-2.1-.858m78.59-15.47c3.429-4.479 5.229-10.787 5.4-18.954.087-2.55.137-6.192.137-10.929 0-4.834-.05-8.434-.137-10.8-.171-8.067-1.992-14.367-5.463-18.888-3.462-4.525-8.542-6.783-15.204-6.783-6.675 0-11.725 2.258-15.142 6.783-3.429 4.521-5.229 10.821-5.4 18.888l-.129 10.8.129 10.929c.171 8.167 1.971 14.475 5.4 18.954 3.417 4.479 8.467 6.717 15.142 6.717 6.758 0 11.85-2.238 15.267-6.717m-40.084 7.704c-5.229-6.621-8.012-15.291-8.366-26.004l-.13-11.325.13-11.712c.266-10.617 3.054-19.242 8.366-25.875 5.304-6.621 13.575-9.934 24.817-9.934 11.325 0 19.637 3.313 24.954 9.934 5.304 6.633 8.088 15.258 8.354 25.875.088 2.454.13 6.366.13 11.712 0 5.183-.042 8.958-.13 11.325-.35 10.713-3.137 19.383-8.354 26.004-5.229 6.634-13.546 9.942-24.954 9.942-11.325 0-19.6-3.308-24.817-9.942" fill="#fff" fill-rule="nonzero"/>
        <path d="M2567.68 5780.66l40.063 501.396-166.138 13.275-40.062-501.396 166.137-13.275zm-984.89 63.49l164.753 25.17-76.603 501.405-164.754-25.171 76.604-501.404z" fill="#fff"/>
        <path d="M2568.77 6115.98l-119.054-.471c-52.125 0-67.571-33.946-74.654-80.113l-252.917-1823.29-354.417 1833c-1.166 39.416-37.208 70.875-81.333 70.875h-119.708c-47.709 0-85.167-36.542-81.042-79.084l140.083-1946.58 14.584-149.375c5.875-60.417 21.541-119.75 46.541-176.125l32.542-73.5 53.792-121.417 554.958-26.416 37.5 78.708 89.542 187.958c17.583 36.959 31.166 75.334 40.541 114.584l19.75 82.583 132.834 2020.71c10.791 45.292-27.792 87.959-79.542 87.959" fill="#006aff" fill-rule="nonzero"/>
        <path d="M1947.14 3687.11l-78.292 258.963c-18.525 61.275-68.987 107.57-131.625 120.762l-111.5 23.483 14.584-149.375c5.875-60.416 21.541-119.75 46.541-176.125l32.542-73.5 227.75-4.208zm568.34 320.21l-34-7.167c-62.625-13.167-113.083-59.458-131.625-120.75l-78.292-258.958 94.084 1.75 89.541 187.958c17.584 36.958 31.167 75.333 40.542 114.583l19.75 82.584z" fill="#0058d8" fill-rule="nonzero"/>
        <path d="M1876.53 2442.43c20.75 154.409 162.742 262.763 317.15 242.013 154.408-20.75 262.762-162.742 242.012-317.15-20.75-154.409-162.741-262.763-317.15-242.013-154.408 20.75-262.762 162.742-242.012 317.15" fill-rule="nonzero"/>
        <path d="M2920.21 2842.64l-689.729-436.921v289.238l610.767 305.533c43.587 21.804 96.6 4.138 118.404-39.446 5-9.991 7.925-20.479 8.937-30.975 3.409-35.279-14.783-70.625-48.379-87.429" fill="#fff" fill-rule="nonzero"/>
        <path d="M2636.47 2655.32l-401.82-268.208c-51.575-25.733-220.1-30.742-245.834 20.833-25.733 51.575-63.429 152.15-11.854 177.884l562.425 294.533 97.083-225.042z" fill="#fe2326" fill-rule="nonzero"/>
        <path d="M2794.07 2120.2c74.521 7.196 102.859 62.096 95.663 136.621-7.2 74.521-47.204 140.442-121.725 133.246-74.525-7.196-129.1-73.446-121.904-147.967 7.2-74.52 73.446-129.095 147.966-121.9" fill="#fff" fill-rule="nonzero"/>
        <path d="M2989.63 2937.84c-3.525 36.479-33.979 65.404-71.621 74.396-47.404 11.316-106.437-27.175-117.762-74.58l-161.321-675.583c-11.329-47.408 17.937-95.012 65.337-106.329 47.405-11.325 95.009 17.929 106.33 65.333 0 0 205.033 641.613 179.037 716.763" fill="#fff" fill-rule="nonzero"/>
        <path d="M3084.77 1957.68l-32.846 340.083-373.263-36.05 36.05-373.262 370.059 69.229z" fill="#fe2326" fill-rule="nonzero"/>
        <path d="M2748.82 2258.3c0 33.188-13.963 53.896-47.154 53.896-33.188 0-60.092-26.904-60.092-60.092 0-33.191 26.904-60.096 60.092-60.096 33.191 0 47.154 33.105 47.154 66.292" fill="#fff" fill-rule="nonzero"/>
        <path d="M2668.97 2241.99c-6.033 0-12.1-2-17.133-6.12-11.579-9.471-13.284-26.538-3.813-38.113l64.9-79.325c9.471-11.579 26.534-13.287 38.113-3.812 11.579 9.47 13.283 26.537 3.812 38.112l-64.9 79.325c-5.354 6.546-13.137 9.933-20.979 9.933" fill="#fff" fill-rule="nonzero"/>
        <path d="M1346.51 2684.06c24.954 185.716 195.737 316.037 381.454 291.079 185.712-24.954 316.033-195.738 291.079-381.45-24.954-185.717-195.737-316.038-381.454-291.079-185.713 24.954-316.033 195.733-291.079 381.45" fill-rule="nonzero"/>
        <path d="M2439.89 3770.02l-794 48.167c-24.167 2.625-42.042-22.042-32-44.208l34.333-75.875c29.917-66.084 42.796-138.667 37.5-211.042l-13.454-183.708-34.671-472.459-22.166-302.041c-6.667-90.584 65.041-167.75 155.916-167.75l438.917 37.5c47.958 0 91 29.375 108.5 74.041l87 147.917c23.625 60.292 23.75 127.292.292 187.667l-56.625 108.958 131.958 800.542c3.167 25.958-15.5 49.5-41.5 52.291" fill="#fe2326" fill-rule="nonzero"/>
        <path d="M1763.81 2720.44l-91.542 582.917-34.667-472.458 126.209-110.459z" fill="#e5151f" fill-rule="nonzero"/>
        <path d="M1575.39 1929.98c25.15 187.167 197.267 318.504 384.434 293.354 187.166-25.15 318.504-197.267 293.354-384.433-25.15-187.163-197.267-318.504-384.434-293.354-187.166 25.15-318.504 197.266-293.354 384.433" fill-rule="nonzero"/>
        <path d="M2313.81 1703.77c0 73.637-59.696 133.333-133.334 133.333-73.637 0-133.333-59.696-133.333-133.333 0-73.638 59.696-133.334 133.333-133.334 73.638 0 133.334 59.696 133.334 133.334" fill-rule="nonzero"/>
        <path d="M2095.18 2377.39c0 .484 0 .971-.042 1.455-.562 60.612-18.112 176.254-78.887 176.254-61.138 0-142.471-116.246-142.471-177.384v-330.262l.971-98.679c0-83.079 67.4-150.484 150.441-150.484h68.171l1.575 507.213.242 71.887z" fill="#fff" fill-rule="nonzero"/>
        <path d="M2095.18 2377.39c0 .484 0 .971-.042 1.455l-140.379-56.125 140.179-17.217.242 71.887z" fill="#bbd7fe" fill-rule="nonzero"/>
        <path d="M2236.49 1752.95l66.609 271.904c18.675 138.979-78.85 266.787-217.834 285.462l-140.037 18.817-70.55-525.025 361.812-51.158z" fill="#fff" fill-rule="nonzero"/>
        <path d="M2065.13 2011.16c1.721 8.421 9.938 13.854 18.358 12.133 8.421-1.721 13.855-9.937 12.134-18.358-1.717-8.421-9.938-13.854-18.359-12.134-8.42 1.717-13.854 9.938-12.133 18.359m-22.52-59.39l48.679-9.938c4.771-.975 7.85-5.633 6.88-10.408-.975-4.771-5.638-7.85-10.409-6.875l-48.679 9.938c-4.771.974-7.85 5.633-6.879 10.404a8.822 8.822 0 0010.408 6.879m177.03 30.01c1.721 8.421 9.937 13.855 18.358 12.134 8.421-1.717 13.854-9.938 12.134-18.359-1.717-8.42-9.938-13.854-18.359-12.133-8.421 1.717-13.854 9.938-12.133 18.358m-22.52-63.42l48.679-9.938c4.771-.975 7.85-5.633 6.879-10.408-.975-4.771-5.637-7.85-10.408-6.875l-48.679 9.937c-4.771.975-7.85 5.634-6.875 10.404a8.817 8.817 0 0010.404 6.88" fill-rule="nonzero"/>
        <path d="M2165.8 2177.28c-40.375 40.066-82.838 15.395-93.042-25.55l93.042 25.55z" fill="#bbd7fe" fill-rule="nonzero"/>
        <path d="M2161.11 2104.82a4.203 4.203 0 01-3.959-2.796 4.201 4.201 0 012.546-5.37l34.596-12.35a15.094 15.094 0 008.283-21.267l-25.962-43.2a4.205 4.205 0 011.437-5.771 4.206 4.206 0 015.767 1.438l26.079 43.404c3.296 6.241 3.704 13.35 1.229 19.704a23.498 23.498 0 01-14.004 13.612l-34.6 12.346c-.467.167-.942.25-1.412.25m-244.66 155.24c0 123.3-99.954 223.254-223.254 223.254s-223.254-99.954-223.254-223.254 99.954-223.254 223.254-223.254 223.254 99.954 223.254 223.254m-83.96-274.39c-39.858 0-77.625-23.741-93.591-62.933-21.05-51.671 3.771-110.621 55.441-131.671l372.675-151.833c51.667-21.059 110.621 3.771 131.671 55.441 21.05 51.671-3.771 110.621-55.441 131.671l-372.675 151.829c-12.48 5.088-25.388 7.496-38.08 7.496" fill-rule="nonzero"/>
        <path d="M1795.53 2045.03c4.687 34.883 36.766 59.362 71.654 54.675 34.883-4.688 59.362-36.767 54.675-71.65-4.688-34.888-36.767-59.367-71.654-54.679-34.884 4.687-59.363 36.77-54.675 71.654m311.45 1180.72c-1.167 0-2.346-.096-3.537-.3l-122.196-20.9c-11.342-1.942-18.963-12.708-17.021-24.046 1.937-11.341 12.7-18.971 24.046-17.025l122.196 20.896c11.341 1.942 18.962 12.708 17.02 24.05-1.733 10.15-10.541 17.325-20.508 17.325" fill="#fff" fill-rule="nonzero"/>
        <path d="M2259.64 3582.94h-341.667v-375h375l-33.333 375z" fill="#006aff" fill-rule="nonzero"/>
        <path d="M1280.59 3560.77c-10.545 0-21.262-1.905-31.691-5.917-45.479-17.517-68.159-68.583-50.646-114.067l328.475-853.046c17.512-45.491 68.6-68.15 114.062-50.645 45.48 17.516 148.867 112.862 131.355 158.341l-409.184 808.771c-13.496 35.054-46.929 56.563-82.371 56.563" fill="#fff" fill-rule="nonzero"/>
        <path d="M1522.14 3203.77l276.771-525c20.654-53.813-82.354-177.513-136.163-198.171-53.812-20.654-114.183 6.225-134.841 60.037l-239.1 588.134 233.333 75z" fill="#fe2326" fill-rule="nonzero"/>
        <path d="M2094.88 3294.44c0 74.867-60.691 135.563-135.562 135.563-74.867 0-135.559-60.696-135.559-135.563 0-74.866 60.692-135.562 135.559-135.562 74.871 0 135.562 60.696 135.562 135.562" fill="#fff" fill-rule="nonzero"/>
        <path d="M1274.88 3582.46c-36.65 0-68.367-27.534-80.938-64.138-15.821-46.1 16.821-108.558 62.913-124.387l656.95-225.517c46.095-15.833 96.295 8.717 112.116 54.808 15.829 46.1-8.716 96.296-54.808 112.125 0 0-618.933 265.763-696.233 247.109" fill="#fff" fill-rule="nonzero"/>
        <path d="M2845.43 6461l-50.384-10.446c-26.495-5.491-50.733-18.708-69.658-38.045a995.704 995.704 0 01-18.671-19.655c-33.066-35.712-70.741-180.92-79.875-217.654h-217.571l.396 11.021c1.371 38.375-4.275 68.559-14.971 102.121-7.883 24.733-12.72 50.404-13.154 76.367-.121 7.237.117 13.795.954 18.412l3.596 19.783a484.393 484.393 0 017.579 71.534l1.909 61.087 100.175 1.517v-101.688l113.779 88.046a50.736 50.736 0 0031.042 10.604h251.308l-3.833-27.483c-3.163-22.654-20.225-40.879-42.621-45.521m-1338.88-285.8l-46.829 191.971-20.496 40.225a116.197 116.197 0 00-5.842 91.942l5.609 15.637a33.295 33.295 0 0031.35 22.067h185.071a33.616 33.616 0 0026.891-13.446 118.554 118.554 0 0023.713-70.708l9.321-277.688H1506.55z" fill="#161e59" fill-rule="nonzero"/>
        <path d="M3366.94 8989.21c3787.28 968.529 6041.82-2330.87 7146.15 2106.19 989.721 3976.59-1378.33 4329.11-4584.86 4397.97-2906.82 62.43-4413.73 520.7-5562.79-2150.24-1143.92-2658.97 546.942-4981.62 3001.5-4353.91" fill="#d9eaff" fill-rule="nonzero"/>
    </g>
</svg>
