<svg xmlns="http://www.w3.org/2000/svg" stroke-miterlimit="2" stroke-linejoin="round" clip-rule="evenodd" fill-rule="evenodd" viewBox="0 0 1140 745">
    <path d="M0 0h1139.58v744.113H0z" fill="none"/>
    <clipPath id="a">
        <path d="M0 0h1139.58v744.113H0z"/>
    </clipPath>
    <g clip-path="url(#a)" fill-rule="nonzero">
        <path fill="#bbd7fe" d="M683.939 110.441c-4.279-.279-8.696-.442-13.109-.404-2.029 0-4.05.025-6.062.07l-.096-4.166c2.204-.05 4.408-.092 6.625-.071 4.346 0 8.692.142 12.908.413l-.266 4.158zm-53.7 2.437l-.571-4.125a300.05 300.05 0 0119.408-2.062l.304 4.158a294.91 294.91 0 00-19.141 2.029m87.541 3.167c-6-1.671-12.275-3.008-18.645-3.975l.625-4.121a163.062 163.062 0 0119.137 4.084l-1.117 4.012zm-121.5 3.633l-1.058-4.029a294.56 294.56 0 0119.038-4.337l.787 4.091a293.095 293.095 0 00-18.767 4.275m153.192 9.313a147.189 147.189 0 00-17.233-8.109l1.521-3.883a151.08 151.08 0 0117.725 8.346l-2.013 3.646zm-186.108 1.454l-1.534-3.875a297.281 297.281 0 0118.392-6.558l1.271 3.97a287.926 287.926 0 00-18.129 6.463m-31.375 14.562l-1.971-3.67a301.78 301.78 0 0117.462-8.671l1.734 3.791a291.735 291.735 0 00-17.225 8.55m245.533 3.775c-4.896-4.266-9.962-8.22-15.062-11.737l2.37-3.429a175.569 175.569 0 0115.434 12.025l-2.742 3.141zm-274.996 14.38l-2.391-3.409a297.736 297.736 0 0116.341-10.671l2.159 3.567a294.345 294.345 0 00-16.109 10.513m299.038 10.391c-4.254-5.079-8.588-9.875-12.884-14.246l2.971-2.925c4.375 4.455 8.784 9.334 13.109 14.496l-3.196 2.675zM475.38 184.657l-2.775-3.108a303.882 303.882 0 0114.98-12.512l2.57 3.283a300.52 300.52 0 00-14.775 12.337m346.967 16.667c-3.842-5.646-7.504-10.779-11.212-15.7l3.329-2.508a401.494 401.494 0 0111.329 15.866l-3.446 2.342zm-371.429 7.867l-3.117-2.767c4.284-4.829 8.8-9.604 13.421-14.179l2.933 2.962a298.821 298.821 0 00-13.237 13.984m390.104 21.508a783.456 783.456 0 00-10.183-16.454l3.512-2.238a774.368 774.368 0 0110.242 16.546l-3.571 2.146zm-411.546 5.721l-3.416-2.383a303.316 303.316 0 0111.679-15.655l3.258 2.596a298.56 298.56 0 00-11.521 15.442m429.213 24.371a3053.539 3053.539 0 00-9.75-16.763l3.591-2.108c3.255 5.542 6.5 11.142 9.767 16.787l-3.608 2.084zm-447.317 5.191l-3.671-1.962a300.922 300.922 0 019.763-16.925l3.541 2.196a300.042 300.042 0 00-9.633 16.691m464.929 25.005a1989.772 1989.772 0 01-9.833-16.759l3.604-2.091a1943.915 1943.915 0 009.808 16.716l-3.579 2.134zm-479.429 6.504l-3.883-1.517a298.881 298.881 0 017.7-17.966l3.775 1.766a292.711 292.711 0 00-7.592 17.717m497.788 23.225a830.586 830.586 0 01-10.346-16.442l3.554-2.183a806.476 806.476 0 0010.292 16.362l-3.5 2.263zm-508.455 9.762l-4.033-1.041a300.137 300.137 0 015.513-18.734l3.958 1.313a292.852 292.852 0 00-5.438 18.462m528.355 19.025a494.557 494.557 0 01-11.284-15.846l3.438-2.349a504.121 504.121 0 0011.191 15.712l-3.345 2.483zm-535.038 14.959l-4.129-.563a299.632 299.632 0 013.262-19.246l4.084.829a291.191 291.191 0 00-3.217 18.98m557.1 12.237a368.756 368.756 0 01-12.558-14.871l3.25-2.604a369.733 369.733 0 0012.416 14.7l-3.108 2.775zm-559.75 22.296l-4.167-.075c.121-6.479.455-13.042.992-19.488l4.15.342a302.14 302.14 0 00-.975 19.221m584.496 2.6a300.157 300.157 0 01-14.096-13.492l2.975-2.916a296.924 296.924 0 0013.9 13.308l-2.779 3.1zm18.517 17.992c-3.855-4.655-8.359-9.196-13.388-13.496l2.704-3.167c5.213 4.454 9.888 9.167 13.892 14.013l-3.208 2.65zM374.093 434.02a302.683 302.683 0 01-1.271-19.479l4.163-.138c.212 6.409.633 12.871 1.254 19.213l-4.146.404zm621.767 15.342c-1.68-5.967-4.146-11.8-7.325-17.355l3.616-2.066c3.346 5.841 5.942 12 7.721 18.287l-4.012 1.134zm-616.284 19.35a297.483 297.483 0 01-3.546-19.188l4.117-.629a297.045 297.045 0 003.5 18.929l-4.071.888zm622.238 14.945l-4.125-.616c.658-4.363.996-8.713.996-12.934 0-1.975-.075-3.941-.221-5.904l4.154-.308c.158 2.058.233 4.129.233 6.212 0 4.43-.35 8.992-1.037 13.55m-612.7 18.867a294.92 294.92 0 01-5.792-18.642l4.013-1.108a293.056 293.056 0 005.712 18.379l-3.933 1.371zm601.975 14.817l-3.763-1.788c2.85-5.975 5.196-11.946 6.971-17.737l3.983 1.221c-1.837 5.987-4.258 12.15-7.191 18.304m-588.517 17.604a295.986 295.986 0 01-7.946-17.808l3.859-1.571a293.096 293.096 0 007.833 17.554l-3.746 1.825zm570.196 12.521l-3.354-2.475c3.916-5.309 7.5-10.679 10.658-15.959l3.579 2.142c-3.229 5.392-6.891 10.871-10.883 16.292m-553.021 18.083a304.2 304.2 0 01-9.992-16.758l3.646-2.017a294.87 294.87 0 009.854 16.521l-3.508 2.254zm530.25 8.742l-3-2.888a288.577 288.577 0 0012.896-14.316l3.187 2.679a288.726 288.726 0 01-13.083 14.525m-509.592 19.642a303.162 303.162 0 01-11.891-15.476l3.387-2.433a294.835 294.835 0 0011.725 15.263l-3.221 2.645zm483.955 4.388l-2.7-3.175a361.307 361.307 0 0014.375-12.883l2.862 3.029a369.508 369.508 0 01-14.537 13.029m-460.109 21.408a304.323 304.323 0 01-13.621-13.987l3.08-2.809a296.873 296.873 0 0013.429 13.792l-2.888 3.004zm432.429.179l-2.429-3.383a442.726 442.726 0 0015.45-11.6l2.575 3.271a435.385 435.385 0 01-15.596 11.712m-29.262 19.384l-2.171-3.559a472.873 472.873 0 0016.288-10.412l2.316 3.467a485.107 485.107 0 01-16.433 10.504m-376.463 3.279a303.85 303.85 0 01-15.17-12.304l2.733-3.15a295.79 295.79 0 0014.954 12.133l-2.517 3.321zm345.925 13.933l-1.92-3.696a507.51 507.51 0 0016.987-9.233l2.058 3.621a507.54 507.54 0 01-17.125 9.308m-316.725 5.634a301.378 301.378 0 01-16.508-10.446l2.342-3.45a297.204 297.204 0 0016.279 10.308l-2.113 3.588zm285.009 9.425l-1.654-3.825a475.03 475.03 0 0017.595-8.017l1.805 3.758a487.015 487.015 0 01-17.746 8.084m-253.688 6.579a299.203 299.203 0 01-17.633-8.433l1.921-3.696a293.545 293.545 0 0017.383 8.312l-1.671 3.817zm220.963 6.096l-1.354-3.938a447.221 447.221 0 0018.133-6.679l1.521 3.883a462.56 462.56 0 01-18.3 6.734m-187.95 6.1a295.643 295.643 0 01-18.521-6.292l1.475-3.9a288.243 288.243 0 0018.254 6.204l-1.208 3.988zm154.275 3.862l-1-4.046a374.86 374.86 0 0018.612-5.112l1.204 3.987a382.079 382.079 0 01-18.816 5.171m-120.117 4.325c-6.375-1.137-12.8-2.5-19.096-4.05l.996-4.046a295.352 295.352 0 0018.833 3.992l-.733 4.104zm85.604 2.308l-.554-4.125a304.462 304.462 0 0019.008-3.187l.813 4.088a310.082 310.082 0 01-19.267 3.225m-50.721 1.795a303.139 303.139 0 01-19.437-1.775l.512-4.133a297.467 297.467 0 0019.171 1.75l-.246 4.158zm17.767.521l-2.154-.008.025-4.167 2.125.009c5.55-.005 11.3-.23 17.083-.663l.317 4.158c-5.888.438-11.742.667-17.396.671"/>
        <path fill="#eaf4fe" d="M704.713 38.501c81.713 71.15 78.321 182.754 132.684 269.463 53.966 86.066 160.575 125.454 202.637 222.296 107.988 248.612-272.229 192.441-416.692 204.558-60.67 5.083-121.608 8.433-182.508 8.471-63.966.041-163.387 11.679-201.5-53.963-19.467-33.521-8.746-68.321-2.546-103.787 11.325-64.763 54.871-118.763 66.429-183.709 13.863-77.916-45.316-150.37-20.058-223.795C328.38 46.585 591.542-60.04 704.713 38.501"/>
        <path fill="#fff" d="M670.369 424.188a1.058 1.058 0 01-.271-.742v-25.379l-7.558 5.804c-.213.179-.438.271-.68.271-.266 0-.52-.15-.762-.45l-1.079-1.396a1.077 1.077 0 01-.225-.629c0-.329.15-.6.45-.813l9.766-7.558c.33-.213.717-.317 1.167-.317h2.117c.296 0 .546.1.741.292.196.2.292.446.292.746v29.429c0 .3-.096.546-.292.742a1.008 1.008 0 01-.741.291h-2.209c-.295 0-.537-.096-.716-.291m26.861-5.288c1.171-1.53 1.788-3.688 1.846-6.48.029-.87.046-2.116.046-3.733 0-1.654-.017-2.883-.046-3.692-.058-2.758-.683-4.912-1.866-6.458-1.184-1.546-2.921-2.317-5.196-2.317-2.284 0-4.009.771-5.175 2.317-1.175 1.546-1.788 3.7-1.846 6.458l-.046 3.692.046 3.733c.058 2.792.671 4.95 1.846 6.48 1.166 1.529 2.891 2.295 5.175 2.295 2.308 0 4.05-.766 5.216-2.295m-13.7 2.633c-1.787-2.263-2.737-5.225-2.858-8.888l-.046-3.87.046-4.005c.092-3.629 1.042-6.575 2.858-8.841 1.813-2.267 4.642-3.396 8.484-3.396 3.871 0 6.712 1.129 8.529 3.396 1.812 2.266 2.762 5.212 2.854 8.841.029.838.046 2.175.046 4.005 0 1.77-.017 3.062-.046 3.87-.121 3.663-1.071 6.625-2.854 8.888-1.788 2.267-4.629 3.4-8.529 3.4-3.871 0-6.7-1.133-8.484-3.4m42.184-2.633c1.171-1.53 1.788-3.688 1.846-6.48.029-.87.046-2.116.046-3.733 0-1.654-.017-2.883-.046-3.692-.058-2.758-.683-4.912-1.867-6.458-1.183-1.546-2.921-2.317-5.196-2.317-2.283 0-4.008.771-5.175 2.317-1.175 1.546-1.787 3.7-1.845 6.458l-.046 3.692.046 3.733c.058 2.792.67 4.95 1.845 6.48 1.167 1.529 2.892 2.295 5.175 2.295 2.309 0 4.05-.766 5.217-2.295m-13.7 2.633c-1.787-2.263-2.737-5.225-2.858-8.888l-.046-3.87.046-4.005c.091-3.629 1.041-6.575 2.858-8.841 1.813-2.267 4.642-3.396 8.483-3.396 3.871 0 6.713 1.129 8.53 3.396 1.812 2.266 2.762 5.212 2.854 8.841.029.838.046 2.175.046 4.005 0 1.77-.017 3.062-.046 3.87-.121 3.663-1.071 6.625-2.854 8.888-1.788 2.267-4.63 3.4-8.53 3.4-3.87 0-6.7-1.133-8.483-3.4m34.446 2.655a1.058 1.058 0 01-.271-.742v-25.379l-7.558 5.804c-.213.179-.438.271-.679.271-.267 0-.521-.15-.763-.45l-1.079-1.396a1.077 1.077 0 01-.225-.629c0-.329.15-.6.45-.813l9.767-7.558c.329-.213.716-.317 1.166-.317h2.117c.296 0 .546.1.742.292.195.2.291.446.291.746v29.429c0 .3-.096.546-.291.742a1.012 1.012 0 01-.742.291h-2.208c-.296 0-.538-.096-.717-.291m26.862-5.288c1.171-1.53 1.787-3.688 1.846-6.48.029-.87.045-2.116.045-3.733 0-1.654-.016-2.883-.045-3.692-.059-2.758-.684-4.912-1.867-6.458-1.183-1.546-2.921-2.317-5.196-2.317-2.283 0-4.008.771-5.175 2.317-1.175 1.546-1.787 3.7-1.846 6.458l-.046 3.692.046 3.733c.059 2.792.671 4.95 1.846 6.48 1.167 1.529 2.892 2.295 5.175 2.295 2.308 0 4.05-.766 5.217-2.295m-13.7 2.633c-1.788-2.263-2.738-5.225-2.859-8.888l-.045-3.87.045-4.005c.092-3.629 1.042-6.575 2.859-8.841 1.812-2.267 4.641-3.396 8.483-3.396 3.871 0 6.713 1.129 8.529 3.396 1.813 2.266 2.763 5.212 2.854 8.841.03.838.046 2.175.046 4.005 0 1.77-.016 3.062-.046 3.87-.12 3.663-1.07 6.625-2.854 8.888-1.787 2.267-4.629 3.4-8.529 3.4-3.871 0-6.7-1.133-8.483-3.4m42.183-2.633c1.171-1.53 1.788-3.688 1.846-6.48.029-.87.046-2.116.046-3.733 0-1.654-.017-2.883-.046-3.692-.058-2.758-.683-4.912-1.866-6.458-1.184-1.546-2.921-2.317-5.196-2.317-2.284 0-4.009.771-5.175 2.317-1.175 1.546-1.788 3.7-1.846 6.458l-.046 3.692.046 3.733c.058 2.792.671 4.95 1.846 6.48 1.166 1.529 2.891 2.295 5.175 2.295 2.308 0 4.05-.766 5.216-2.295m-13.7 2.633c-1.787-2.263-2.737-5.225-2.858-8.888l-.046-3.87.046-4.005c.092-3.629 1.042-6.575 2.858-8.841 1.813-2.267 4.642-3.396 8.484-3.396 3.871 0 6.712 1.129 8.529 3.396 1.812 2.266 2.762 5.212 2.854 8.841.029.838.046 2.175.046 4.005 0 1.77-.017 3.062-.046 3.87-.121 3.663-1.071 6.625-2.854 8.888-1.788 2.267-4.629 3.4-8.529 3.4-3.871 0-6.7-1.133-8.484-3.4m34.446 2.655a1.058 1.058 0 01-.271-.742v-25.379l-7.558 5.804c-.212.179-.437.271-.679.271-.267 0-.521-.15-.763-.45l-1.079-1.396a1.077 1.077 0 01-.225-.629c0-.329.15-.6.45-.813l9.767-7.558c.329-.213.717-.317 1.167-.317h2.116c.296 0 .546.1.742.292.196.2.292.446.292.746v29.429c0 .3-.096.546-.292.742a1.012 1.012 0 01-.742.291h-2.208c-.296 0-.538-.096-.717-.291m26.862-5.288c1.171-1.53 1.787-3.688 1.846-6.48.029-.87.046-2.116.046-3.733 0-1.654-.017-2.883-.046-3.692-.059-2.758-.684-4.912-1.867-6.458-1.183-1.546-2.921-2.317-5.196-2.317-2.283 0-4.008.771-5.175 2.317-1.175 1.546-1.787 3.7-1.846 6.458l-.045 3.692.045 3.733c.059 2.792.671 4.95 1.846 6.48 1.167 1.529 2.892 2.295 5.175 2.295 2.309 0 4.05-.766 5.217-2.295m-13.7 2.633c-1.788-2.263-2.738-5.225-2.858-8.888l-.046-3.87.046-4.005c.091-3.629 1.041-6.575 2.858-8.841 1.812-2.267 4.642-3.396 8.483-3.396 3.871 0 6.713 1.129 8.529 3.396 1.813 2.266 2.763 5.212 2.855 8.841.029.838.045 2.175.045 4.005 0 1.77-.016 3.062-.045 3.87-.121 3.663-1.071 6.625-2.855 8.888-1.787 2.267-4.629 3.4-8.529 3.4-3.871 0-6.7-1.133-8.483-3.4m42.184-2.633c1.171-1.53 1.788-3.688 1.846-6.48.029-.87.046-2.116.046-3.733 0-1.654-.017-2.883-.046-3.692-.058-2.758-.683-4.912-1.867-6.458-1.183-1.546-2.921-2.317-5.196-2.317-2.283 0-4.008.771-5.175 2.317-1.175 1.546-1.787 3.7-1.845 6.458l-.046 3.692.046 3.733c.058 2.792.67 4.95 1.845 6.48 1.167 1.529 2.892 2.295 5.175 2.295 2.309 0 4.05-.766 5.217-2.295m-13.7 2.633c-1.787-2.263-2.737-5.225-2.858-8.888l-.046-3.87.046-4.005c.091-3.629 1.041-6.575 2.858-8.841 1.813-2.267 4.642-3.396 8.483-3.396 3.871 0 6.713 1.129 8.53 3.396 1.812 2.266 2.762 5.212 2.854 8.841.029.838.046 2.175.046 4.005 0 1.77-.017 3.062-.046 3.87-.121 3.663-1.071 6.625-2.854 8.888-1.788 2.267-4.63 3.4-8.53 3.4-3.87 0-6.7-1.133-8.483-3.4m-186.09 51.368c1.171-1.529 1.788-3.687 1.846-6.479.029-.871.046-2.117.046-3.733 0-1.654-.017-2.884-.046-3.692-.058-2.758-.683-4.912-1.867-6.458-1.183-1.546-2.921-2.317-5.196-2.317-2.283 0-4.008.771-5.175 2.317-1.175 1.546-1.787 3.7-1.845 6.458l-.046 3.692.046 3.733c.058 2.792.67 4.95 1.845 6.479 1.167 1.529 2.892 2.296 5.175 2.296 2.309 0 4.05-.767 5.217-2.296m-13.7 2.634c-1.787-2.263-2.737-5.225-2.858-8.888l-.046-3.871.046-4.004c.091-3.629 1.041-6.575 2.858-8.842 1.813-2.266 4.642-3.395 8.483-3.395 3.871 0 6.713 1.129 8.53 3.395 1.812 2.267 2.762 5.213 2.854 8.842.029.838.046 2.175.046 4.004 0 1.771-.017 3.063-.046 3.871-.121 3.663-1.071 6.625-2.854 8.888-1.788 2.266-4.63 3.4-8.53 3.4-3.87 0-6.7-1.134-8.483-3.4m34.446 2.654a1.055 1.055 0 01-.271-.741v-25.38l-7.558 5.805c-.213.179-.438.27-.679.27-.267 0-.521-.15-.763-.45l-1.079-1.395a1.08 1.08 0 01-.225-.63c0-.329.15-.6.45-.812l9.767-7.558c.329-.213.716-.317 1.166-.317h2.117c.296 0 .546.1.742.292.195.2.291.445.291.745v29.43c0 .3-.096.545-.291.741a1.008 1.008 0 01-.742.292h-2.208c-.296 0-.538-.096-.717-.292m19.123 0a1.055 1.055 0 01-.271-.741v-25.38l-7.558 5.805c-.212.179-.437.27-.679.27-.267 0-.521-.15-.763-.45l-1.079-1.395a1.08 1.08 0 01-.225-.63c0-.329.15-.6.45-.812l9.767-7.558c.329-.213.717-.317 1.167-.317h2.116c.296 0 .546.1.742.292.196.2.292.445.292.745v29.43a1 1 0 01-.292.741 1.008 1.008 0 01-.742.292h-2.208c-.296 0-.538-.096-.717-.292m26.862-5.288c1.171-1.529 1.787-3.687 1.846-6.479.029-.871.046-2.117.046-3.733 0-1.654-.017-2.884-.046-3.692-.059-2.758-.684-4.912-1.867-6.458-1.183-1.546-2.921-2.317-5.196-2.317-2.283 0-4.008.771-5.175 2.317-1.175 1.546-1.787 3.7-1.846 6.458l-.045 3.692.045 3.733c.059 2.792.671 4.95 1.846 6.479 1.167 1.529 2.892 2.296 5.175 2.296 2.309 0 4.05-.767 5.217-2.296m-13.7 2.634c-1.788-2.263-2.738-5.225-2.858-8.888l-.046-3.871.046-4.004c.091-3.629 1.041-6.575 2.858-8.842 1.812-2.266 4.642-3.395 8.483-3.395 3.871 0 6.713 1.129 8.529 3.395 1.813 2.267 2.763 5.213 2.855 8.842.029.838.045 2.175.045 4.004 0 1.771-.016 3.063-.045 3.871-.121 3.663-1.071 6.625-2.855 8.888-1.787 2.266-4.629 3.4-8.529 3.4-3.871 0-6.7-1.134-8.483-3.4m42.184-2.634c1.171-1.529 1.787-3.687 1.846-6.479.029-.871.045-2.117.045-3.733 0-1.654-.016-2.884-.045-3.692-.059-2.758-.684-4.912-1.867-6.458-1.183-1.546-2.921-2.317-5.196-2.317-2.283 0-4.008.771-5.175 2.317-1.175 1.546-1.787 3.7-1.846 6.458l-.046 3.692.046 3.733c.059 2.792.671 4.95 1.846 6.479 1.167 1.529 2.892 2.296 5.175 2.296 2.308 0 4.05-.767 5.217-2.296m-13.7 2.634c-1.788-2.263-2.738-5.225-2.859-8.888l-.045-3.871.045-4.004c.092-3.629 1.042-6.575 2.859-8.842 1.812-2.266 4.641-3.395 8.483-3.395 3.871 0 6.713 1.129 8.529 3.395 1.813 2.267 2.763 5.213 2.854 8.842.03.838.046 2.175.046 4.004 0 1.771-.016 3.063-.046 3.871-.12 3.663-1.07 6.625-2.854 8.888-1.787 2.266-4.629 3.4-8.529 3.4-3.871 0-6.7-1.134-8.483-3.4m34.445 2.654a1.054 1.054 0 01-.27-.741v-25.38l-7.559 5.805c-.212.179-.437.27-.679.27-.267 0-.521-.15-.762-.45l-1.08-1.395a1.08 1.08 0 01-.225-.63c0-.329.15-.6.45-.812l9.767-7.558c.329-.213.717-.317 1.167-.317h2.116c.296 0 .546.1.742.292.196.2.292.445.292.745v29.43a1 1 0 01-.292.741 1.008 1.008 0 01-.742.292h-2.208c-.296 0-.537-.096-.717-.292m26.862-5.288c1.171-1.529 1.788-3.687 1.846-6.479.029-.871.046-2.117.046-3.733 0-1.654-.017-2.884-.046-3.692-.058-2.758-.683-4.912-1.867-6.458-1.183-1.546-2.921-2.317-5.196-2.317-2.283 0-4.008.771-5.175 2.317-1.175 1.546-1.787 3.7-1.845 6.458l-.046 3.692.046 3.733c.058 2.792.67 4.95 1.845 6.479 1.167 1.529 2.892 2.296 5.175 2.296 2.309 0 4.05-.767 5.217-2.296m-13.7 2.634c-1.787-2.263-2.737-5.225-2.858-8.888l-.046-3.871.046-4.004c.091-3.629 1.041-6.575 2.858-8.842 1.813-2.266 4.642-3.395 8.483-3.395 3.871 0 6.713 1.129 8.53 3.395 1.812 2.267 2.762 5.213 2.854 8.842.029.838.046 2.175.046 4.004 0 1.771-.017 3.063-.046 3.871-.121 3.663-1.071 6.625-2.854 8.888-1.788 2.266-4.63 3.4-8.53 3.4-3.87 0-6.7-1.134-8.483-3.4m42.184-2.634c1.171-1.529 1.787-3.687 1.846-6.479.029-.871.046-2.117.046-3.733 0-1.654-.017-2.884-.046-3.692-.059-2.758-.684-4.912-1.867-6.458-1.183-1.546-2.921-2.317-5.196-2.317-2.283 0-4.008.771-5.175 2.317-1.175 1.546-1.787 3.7-1.846 6.458l-.045 3.692.045 3.733c.059 2.792.671 4.95 1.846 6.479 1.167 1.529 2.892 2.296 5.175 2.296 2.309 0 4.05-.767 5.217-2.296m-13.7 2.634c-1.788-2.263-2.738-5.225-2.858-8.888l-.046-3.871.046-4.004c.091-3.629 1.041-6.575 2.858-8.842 1.812-2.266 4.642-3.395 8.483-3.395 3.871 0 6.713 1.129 8.529 3.395 1.813 2.267 2.763 5.213 2.855 8.842.029.838.045 2.175.045 4.004 0 1.771-.016 3.063-.045 3.871-.121 3.663-1.071 6.625-2.855 8.888-1.787 2.266-4.629 3.4-8.529 3.4-3.871 0-6.7-1.134-8.483-3.4m34.446 2.654a1.055 1.055 0 01-.271-.741v-25.38l-7.558 5.805c-.213.179-.438.27-.68.27-.266 0-.52-.15-.762-.45l-1.079-1.395a1.08 1.08 0 01-.225-.63c0-.329.15-.6.45-.812l9.766-7.558c.33-.213.717-.317 1.167-.317h2.117c.296 0 .546.1.741.292.196.2.292.445.292.745v29.43a1 1 0 01-.292.741 1.005 1.005 0 01-.741.292h-2.209c-.295 0-.537-.096-.716-.292m26.861-5.288c1.171-1.529 1.788-3.687 1.846-6.479.029-.871.046-2.117.046-3.733 0-1.654-.017-2.884-.046-3.692-.058-2.758-.683-4.912-1.866-6.458-1.184-1.546-2.921-2.317-5.196-2.317-2.284 0-4.009.771-5.175 2.317-1.175 1.546-1.788 3.7-1.846 6.458l-.046 3.692.046 3.733c.058 2.792.671 4.95 1.846 6.479 1.166 1.529 2.891 2.296 5.175 2.296 2.308 0 4.05-.767 5.216-2.296m-13.7 2.634c-1.787-2.263-2.737-5.225-2.858-8.888l-.046-3.871.046-4.004c.092-3.629 1.042-6.575 2.858-8.842 1.813-2.266 4.642-3.395 8.484-3.395 3.871 0 6.712 1.129 8.529 3.395 1.812 2.267 2.762 5.213 2.854 8.842.029.838.046 2.175.046 4.004 0 1.771-.017 3.063-.046 3.871-.121 3.663-1.071 6.625-2.854 8.888-1.788 2.266-4.629 3.4-8.529 3.4-3.871 0-6.7-1.134-8.484-3.4m42.184-2.634c1.171-1.529 1.788-3.687 1.846-6.479.029-.871.046-2.117.046-3.733 0-1.654-.017-2.884-.046-3.692-.058-2.758-.683-4.912-1.867-6.458-1.183-1.546-2.921-2.317-5.196-2.317-2.283 0-4.008.771-5.175 2.317-1.175 1.546-1.787 3.7-1.845 6.458l-.046 3.692.046 3.733c.058 2.792.67 4.95 1.845 6.479 1.167 1.529 2.892 2.296 5.175 2.296 2.309 0 4.05-.767 5.217-2.296m-13.7 2.634c-1.787-2.263-2.737-5.225-2.858-8.888l-.046-3.871.046-4.004c.091-3.629 1.041-6.575 2.858-8.842 1.813-2.266 4.642-3.395 8.483-3.395 3.871 0 6.713 1.129 8.53 3.395 1.812 2.267 2.762 5.213 2.854 8.842.029.838.046 2.175.046 4.004 0 1.771-.017 3.063-.046 3.871-.121 3.663-1.071 6.625-2.854 8.888-1.788 2.266-4.63 3.4-8.53 3.4-3.87 0-6.7-1.134-8.483-3.4m34.446 2.654a1.055 1.055 0 01-.271-.741v-25.38l-7.558 5.805c-.213.179-.438.27-.679.27-.267 0-.521-.15-.763-.45l-1.079-1.395a1.08 1.08 0 01-.225-.63c0-.329.15-.6.45-.812l9.767-7.558c.329-.213.716-.317 1.166-.317h2.117c.296 0 .546.1.742.292.195.2.291.445.291.745v29.43c0 .3-.096.545-.291.741a1.008 1.008 0 01-.742.292h-2.208c-.296 0-.538-.096-.717-.292m-268.143 48.714c1.171-1.53 1.788-3.688 1.846-6.48.029-.87.046-2.116.046-3.733 0-1.654-.017-2.883-.046-3.692-.058-2.758-.683-4.912-1.867-6.458-1.183-1.546-2.921-2.317-5.196-2.317-2.283 0-4.008.771-5.175 2.317-1.175 1.546-1.787 3.7-1.845 6.458l-.046 3.692.046 3.733c.058 2.792.67 4.95 1.845 6.48 1.167 1.529 2.892 2.295 5.175 2.295 2.309 0 4.05-.766 5.217-2.295m-13.7 2.633c-1.787-2.263-2.737-5.225-2.858-8.888l-.046-3.87.046-4.005c.091-3.629 1.041-6.575 2.858-8.841 1.813-2.267 4.642-3.396 8.483-3.396 3.871 0 6.713 1.129 8.53 3.396 1.812 2.266 2.762 5.212 2.854 8.841.029.838.046 2.175.046 4.005 0 1.77-.017 3.062-.046 3.87-.121 3.663-1.071 6.625-2.854 8.888-1.788 2.267-4.63 3.4-8.53 3.4-3.87 0-6.7-1.133-8.483-3.4m34.446 2.654a1.053 1.053 0 01-.271-.741V506.07l-7.558 5.804c-.213.179-.438.271-.679.271-.267 0-.521-.15-.763-.45l-1.079-1.396a1.079 1.079 0 01-.225-.629c0-.33.15-.6.45-.813l9.767-7.558c.329-.213.716-.317 1.166-.317h2.117c.296 0 .546.1.742.292.195.2.291.446.291.746v29.429c0 .3-.096.546-.291.741a1.008 1.008 0 01-.742.292h-2.208c-.296 0-.538-.096-.717-.292m26.861-5.287c1.171-1.53 1.788-3.688 1.846-6.48.029-.87.046-2.116.046-3.733 0-1.654-.017-2.883-.046-3.692-.058-2.758-.683-4.912-1.867-6.458-1.183-1.546-2.921-2.317-5.196-2.317-2.283 0-4.008.771-5.175 2.317-1.175 1.546-1.787 3.7-1.845 6.458l-.046 3.692.046 3.733c.058 2.792.67 4.95 1.845 6.48 1.167 1.529 2.892 2.295 5.175 2.295 2.309 0 4.05-.766 5.217-2.295m-13.7 2.633c-1.787-2.263-2.737-5.225-2.858-8.888l-.046-3.87.046-4.005c.091-3.629 1.041-6.575 2.858-8.841 1.813-2.267 4.642-3.396 8.483-3.396 3.871 0 6.713 1.129 8.53 3.396 1.812 2.266 2.762 5.212 2.854 8.841.029.838.046 2.175.046 4.005 0 1.77-.017 3.062-.046 3.87-.121 3.663-1.071 6.625-2.854 8.888-1.788 2.267-4.63 3.4-8.53 3.4-3.87 0-6.7-1.133-8.483-3.4m42.184-2.633c1.171-1.53 1.788-3.688 1.846-6.48.029-.87.046-2.116.046-3.733 0-1.654-.017-2.883-.046-3.692-.058-2.758-.683-4.912-1.866-6.458-1.184-1.546-2.921-2.317-5.196-2.317-2.284 0-4.009.771-5.175 2.317-1.175 1.546-1.788 3.7-1.846 6.458l-.046 3.692.046 3.733c.058 2.792.671 4.95 1.846 6.48 1.166 1.529 2.891 2.295 5.175 2.295 2.308 0 4.05-.766 5.216-2.295m-13.7 2.633c-1.787-2.263-2.737-5.225-2.858-8.888l-.046-3.87.046-4.005c.092-3.629 1.042-6.575 2.858-8.841 1.813-2.267 4.642-3.396 8.484-3.396 3.871 0 6.712 1.129 8.529 3.396 1.812 2.266 2.762 5.212 2.854 8.841.029.838.046 2.175.046 4.005 0 1.77-.017 3.062-.046 3.87-.121 3.663-1.071 6.625-2.854 8.888-1.788 2.267-4.629 3.4-8.529 3.4-3.871 0-6.7-1.133-8.484-3.4m42.184-2.633c1.171-1.53 1.788-3.688 1.846-6.48.029-.87.046-2.116.046-3.733 0-1.654-.017-2.883-.046-3.692-.058-2.758-.683-4.912-1.867-6.458-1.183-1.546-2.921-2.317-5.196-2.317-2.283 0-4.008.771-5.175 2.317-1.175 1.546-1.787 3.7-1.845 6.458l-.046 3.692.046 3.733c.058 2.792.67 4.95 1.845 6.48 1.167 1.529 2.892 2.295 5.175 2.295 2.309 0 4.05-.766 5.217-2.295m-13.7 2.633c-1.787-2.263-2.737-5.225-2.858-8.888l-.046-3.87.046-4.005c.091-3.629 1.041-6.575 2.858-8.841 1.813-2.267 4.642-3.396 8.483-3.396 3.871 0 6.713 1.129 8.53 3.396 1.812 2.266 2.762 5.212 2.854 8.841.029.838.046 2.175.046 4.005 0 1.77-.017 3.062-.046 3.87-.121 3.663-1.071 6.625-2.854 8.888-1.788 2.267-4.63 3.4-8.53 3.4-3.87 0-6.7-1.133-8.483-3.4m34.446 2.654a1.053 1.053 0 01-.271-.741V506.07l-7.558 5.804c-.213.179-.438.271-.679.271-.267 0-.521-.15-.763-.45l-1.079-1.396a1.079 1.079 0 01-.225-.629c0-.33.15-.6.45-.813l9.767-7.558c.329-.213.716-.317 1.166-.317h2.117c.296 0 .546.1.742.292.195.2.291.446.291.746v29.429c0 .3-.096.546-.291.741a1.008 1.008 0 01-.742.292h-2.208c-.296 0-.538-.096-.717-.292m26.862-5.287c1.17-1.53 1.787-3.688 1.845-6.48.03-.87.046-2.116.046-3.733 0-1.654-.016-2.883-.046-3.692-.058-2.758-.683-4.912-1.866-6.458-1.184-1.546-2.921-2.317-5.196-2.317-2.283 0-4.008.771-5.175 2.317-1.175 1.546-1.788 3.7-1.846 6.458l-.046 3.692.046 3.733c.058 2.792.671 4.95 1.846 6.48 1.167 1.529 2.892 2.295 5.175 2.295 2.308 0 4.05-.766 5.217-2.295m-13.7 2.633c-1.788-2.263-2.738-5.225-2.859-8.888l-.046-3.87.046-4.005c.092-3.629 1.042-6.575 2.859-8.841 1.812-2.267 4.641-3.396 8.483-3.396 3.871 0 6.712 1.129 8.529 3.396 1.813 2.266 2.763 5.212 2.854 8.841.029.838.046 2.175.046 4.005 0 1.77-.017 3.062-.046 3.87-.121 3.663-1.071 6.625-2.854 8.888-1.787 2.267-4.629 3.4-8.529 3.4-3.871 0-6.7-1.133-8.483-3.4m42.183-2.633c1.171-1.53 1.788-3.688 1.846-6.48.029-.87.046-2.116.046-3.733 0-1.654-.017-2.883-.046-3.692-.058-2.758-.683-4.912-1.866-6.458-1.184-1.546-2.921-2.317-5.196-2.317-2.284 0-4.009.771-5.175 2.317-1.175 1.546-1.788 3.7-1.846 6.458l-.046 3.692.046 3.733c.058 2.792.671 4.95 1.846 6.48 1.166 1.529 2.891 2.295 5.175 2.295 2.308 0 4.05-.766 5.216-2.295m-13.7 2.633c-1.787-2.263-2.737-5.225-2.858-8.888l-.046-3.87.046-4.005c.092-3.629 1.042-6.575 2.858-8.841 1.813-2.267 4.642-3.396 8.484-3.396 3.871 0 6.712 1.129 8.529 3.396 1.812 2.266 2.762 5.212 2.854 8.841.029.838.046 2.175.046 4.005 0 1.77-.017 3.062-.046 3.87-.121 3.663-1.071 6.625-2.854 8.888-1.788 2.267-4.629 3.4-8.529 3.4-3.871 0-6.7-1.133-8.484-3.4m34.446 2.654a1.053 1.053 0 01-.271-.741V506.07l-7.558 5.804c-.213.179-.438.271-.679.271-.267 0-.521-.15-.763-.45l-1.079-1.396a1.079 1.079 0 01-.225-.629c0-.33.15-.6.45-.813l9.767-7.558c.329-.213.716-.317 1.166-.317h2.117c.296 0 .546.1.742.292.196.2.291.446.291.746v29.429c0 .3-.095.546-.291.741a1.008 1.008 0 01-.742.292h-2.208c-.296 0-.538-.096-.717-.292m19.124 0a1.053 1.053 0 01-.271-.741V506.07l-7.558 5.804c-.213.179-.438.271-.679.271-.267 0-.521-.15-.763-.45l-1.079-1.396a1.079 1.079 0 01-.225-.629c0-.33.15-.6.45-.813l9.767-7.558c.329-.213.716-.317 1.166-.317h2.117c.296 0 .546.1.742.292.195.2.291.446.291.746v29.429c0 .3-.096.546-.291.741a1.008 1.008 0 01-.742.292h-2.208c-.296 0-.538-.096-.717-.292m19.123 0a1.053 1.053 0 01-.271-.741V506.07l-7.558 5.804c-.212.179-.437.271-.679.271-.267 0-.521-.15-.763-.45l-1.079-1.396a1.079 1.079 0 01-.225-.629c0-.33.15-.6.45-.813l9.767-7.558c.329-.213.717-.317 1.167-.317h2.116c.296 0 .546.1.742.292.196.2.292.446.292.746v29.429a.998.998 0 01-1.034 1.033h-2.208c-.296 0-.538-.096-.717-.292m26.862-5.287c1.171-1.53 1.787-3.688 1.846-6.48.029-.87.046-2.116.046-3.733 0-1.654-.017-2.883-.046-3.692-.059-2.758-.684-4.912-1.867-6.458-1.183-1.546-2.921-2.317-5.196-2.317-2.283 0-4.008.771-5.175 2.317-1.175 1.546-1.787 3.7-1.846 6.458l-.045 3.692.045 3.733c.059 2.792.671 4.95 1.846 6.48 1.167 1.529 2.892 2.295 5.175 2.295 2.309 0 4.05-.766 5.217-2.295m-13.7 2.633c-1.788-2.263-2.738-5.225-2.858-8.888l-.046-3.87.046-4.005c.091-3.629 1.041-6.575 2.858-8.841 1.812-2.267 4.642-3.396 8.483-3.396 3.871 0 6.713 1.129 8.529 3.396 1.813 2.266 2.763 5.212 2.855 8.841.029.838.045 2.175.045 4.005 0 1.77-.016 3.062-.045 3.87-.121 3.663-1.071 6.625-2.855 8.888-1.787 2.267-4.629 3.4-8.529 3.4-3.871 0-6.7-1.133-8.483-3.4M395.232 143.028a1.057 1.057 0 01-.27-.742v-25.379l-7.559 5.804c-.212.179-.437.271-.679.271-.267 0-.521-.15-.762-.45l-1.08-1.396a1.077 1.077 0 01-.225-.629c0-.329.15-.6.45-.812l9.767-7.559c.329-.212.717-.316 1.167-.316h2.116c.296 0 .546.1.742.291.196.2.292.446.292.746v29.429c0 .3-.096.546-.292.742a1.008 1.008 0 01-.742.292h-2.208c-.296 0-.537-.096-.717-.292m26.862-5.288c1.171-1.529 1.788-3.687 1.846-6.479.029-.871.046-2.117.046-3.733 0-1.655-.017-2.884-.046-3.692-.058-2.758-.683-4.913-1.867-6.458-1.183-1.546-2.92-2.317-5.195-2.317-2.284 0-4.009.771-5.175 2.317-1.175 1.545-1.788 3.7-1.846 6.458l-.046 3.692.046 3.733c.058 2.792.671 4.95 1.846 6.479 1.166 1.529 2.891 2.296 5.175 2.296 2.308 0 4.05-.767 5.216-2.296m-13.7 2.633c-1.787-2.262-2.737-5.225-2.858-8.887l-.046-3.871.046-4.004c.092-3.629 1.042-6.575 2.858-8.842 1.813-2.266 4.642-3.396 8.484-3.396 3.87 0 6.712 1.13 8.529 3.396 1.812 2.267 2.762 5.213 2.854 8.842.029.837.046 2.175.046 4.004 0 1.771-.017 3.063-.046 3.871-.121 3.662-1.071 6.625-2.854 8.887-1.788 2.267-4.629 3.4-8.529 3.4-3.871 0-6.7-1.133-8.484-3.4m42.184-2.633c1.171-1.529 1.787-3.687 1.846-6.479.029-.871.046-2.117.046-3.733 0-1.655-.017-2.884-.046-3.692-.059-2.758-.684-4.913-1.867-6.458-1.183-1.546-2.921-2.317-5.196-2.317-2.283 0-4.008.771-5.175 2.317-1.175 1.545-1.787 3.7-1.846 6.458l-.045 3.692.045 3.733c.059 2.792.671 4.95 1.846 6.479 1.167 1.529 2.892 2.296 5.175 2.296 2.309 0 4.05-.767 5.217-2.296m-13.7 2.633c-1.788-2.262-2.738-5.225-2.858-8.887l-.046-3.871.046-4.004c.091-3.629 1.041-6.575 2.858-8.842 1.812-2.266 4.642-3.396 8.483-3.396 3.871 0 6.713 1.13 8.529 3.396 1.813 2.267 2.763 5.213 2.855 8.842.029.837.045 2.175.045 4.004 0 1.771-.016 3.063-.045 3.871-.121 3.662-1.071 6.625-2.855 8.887-1.787 2.267-4.629 3.4-8.529 3.4-3.871 0-6.7-1.133-8.483-3.4m34.446 2.655a1.058 1.058 0 01-.271-.742v-25.379l-7.558 5.804c-.213.179-.438.271-.68.271-.266 0-.52-.15-.762-.45l-1.079-1.396a1.077 1.077 0 01-.225-.629c0-.329.15-.6.45-.812l9.766-7.559c.33-.212.717-.316 1.167-.316h2.117c.296 0 .546.1.741.291.196.2.292.446.292.746v29.429c0 .3-.096.546-.292.742a1.005 1.005 0 01-.741.292h-2.209c-.295 0-.537-.096-.716-.292m26.861-5.288c1.171-1.529 1.788-3.687 1.846-6.479.029-.871.046-2.117.046-3.733 0-1.655-.017-2.884-.046-3.692-.058-2.758-.683-4.913-1.866-6.458-1.184-1.546-2.921-2.317-5.196-2.317-2.284 0-4.009.771-5.175 2.317-1.175 1.545-1.788 3.7-1.846 6.458l-.046 3.692.046 3.733c.058 2.792.671 4.95 1.846 6.479 1.166 1.529 2.891 2.296 5.175 2.296 2.308 0 4.05-.767 5.216-2.296m-13.7 2.633c-1.787-2.262-2.737-5.225-2.858-8.887l-.046-3.871.046-4.004c.092-3.629 1.042-6.575 2.858-8.842 1.813-2.266 4.642-3.396 8.484-3.396 3.871 0 6.712 1.13 8.529 3.396 1.812 2.267 2.762 5.213 2.854 8.842.029.837.046 2.175.046 4.004 0 1.771-.017 3.063-.046 3.871-.121 3.662-1.071 6.625-2.854 8.887-1.788 2.267-4.629 3.4-8.529 3.4-3.871 0-6.7-1.133-8.484-3.4m42.185-2.633c1.17-1.529 1.787-3.687 1.845-6.479.03-.871.046-2.117.046-3.733 0-1.655-.016-2.884-.046-3.692-.058-2.758-.683-4.913-1.866-6.458-1.184-1.546-2.921-2.317-5.196-2.317-2.283 0-4.008.771-5.175 2.317-1.175 1.545-1.788 3.7-1.846 6.458l-.046 3.692.046 3.733c.058 2.792.671 4.95 1.846 6.479 1.167 1.529 2.892 2.296 5.175 2.296 2.308 0 4.05-.767 5.217-2.296m-13.7 2.633c-1.788-2.262-2.738-5.225-2.859-8.887l-.046-3.871.046-4.004c.092-3.629 1.042-6.575 2.859-8.842 1.812-2.266 4.641-3.396 8.483-3.396 3.871 0 6.712 1.13 8.529 3.396 1.813 2.267 2.763 5.213 2.854 8.842.029.837.046 2.175.046 4.004 0 1.771-.017 3.063-.046 3.871-.121 3.662-1.071 6.625-2.854 8.887-1.787 2.267-4.629 3.4-8.529 3.4-3.871 0-6.7-1.133-8.483-3.4m34.445 2.655a1.057 1.057 0 01-.27-.742v-25.379l-7.559 5.804c-.212.179-.437.271-.679.271-.267 0-.521-.15-.762-.45l-1.08-1.396a1.077 1.077 0 01-.225-.629c0-.329.15-.6.45-.812l9.767-7.559c.329-.212.717-.316 1.167-.316h2.116c.296 0 .546.1.742.291.196.2.292.446.292.746v29.429c0 .3-.096.546-.292.742a1.008 1.008 0 01-.742.292h-2.208c-.296 0-.537-.096-.717-.292m26.862-5.288c1.17-1.529 1.787-3.687 1.845-6.479.03-.871.046-2.117.046-3.733 0-1.655-.016-2.884-.046-3.692-.058-2.758-.683-4.913-1.866-6.458-1.184-1.546-2.921-2.317-5.196-2.317-2.283 0-4.008.771-5.175 2.317-1.175 1.545-1.788 3.7-1.846 6.458l-.046 3.692.046 3.733c.058 2.792.671 4.95 1.846 6.479 1.167 1.529 2.892 2.296 5.175 2.296 2.308 0 4.05-.767 5.217-2.296m-13.7 2.633c-1.788-2.262-2.738-5.225-2.859-8.887l-.046-3.871.046-4.004c.092-3.629 1.042-6.575 2.859-8.842 1.812-2.266 4.641-3.396 8.483-3.396 3.871 0 6.712 1.13 8.529 3.396 1.813 2.267 2.763 5.213 2.854 8.842.029.837.046 2.175.046 4.004 0 1.771-.017 3.063-.046 3.871-.121 3.662-1.071 6.625-2.854 8.887-1.787 2.267-4.629 3.4-8.529 3.4-3.871 0-6.7-1.133-8.483-3.4m42.184-2.633c1.171-1.529 1.787-3.687 1.846-6.479.029-.871.046-2.117.046-3.733 0-1.655-.017-2.884-.046-3.692-.059-2.758-.684-4.913-1.867-6.458-1.183-1.546-2.921-2.317-5.196-2.317-2.283 0-4.008.771-5.175 2.317-1.175 1.545-1.787 3.7-1.846 6.458l-.045 3.692.045 3.733c.059 2.792.671 4.95 1.846 6.479 1.167 1.529 2.892 2.296 5.175 2.296 2.309 0 4.05-.767 5.217-2.296m-13.7 2.633c-1.788-2.262-2.738-5.225-2.858-8.887l-.046-3.871.046-4.004c.091-3.629 1.041-6.575 2.858-8.842 1.812-2.266 4.642-3.396 8.483-3.396 3.871 0 6.713 1.13 8.529 3.396 1.813 2.267 2.763 5.213 2.855 8.842.029.837.045 2.175.045 4.004 0 1.771-.016 3.063-.045 3.871-.121 3.662-1.071 6.625-2.855 8.887-1.787 2.267-4.629 3.4-8.529 3.4-3.871 0-6.7-1.133-8.483-3.4m34.446 2.655a1.058 1.058 0 01-.271-.742v-25.379l-7.558 5.804c-.213.179-.438.271-.68.271-.266 0-.52-.15-.762-.45l-1.079-1.396a1.077 1.077 0 01-.225-.629c0-.329.15-.6.45-.812l9.766-7.559c.33-.212.717-.316 1.167-.316h2.117c.296 0 .546.1.741.291.196.2.292.446.292.746v29.429c0 .3-.096.546-.292.742a1.005 1.005 0 01-.741.292h-2.209c-.295 0-.537-.096-.716-.292m26.861-5.288c1.171-1.529 1.787-3.687 1.846-6.479.029-.871.046-2.117.046-3.733 0-1.655-.017-2.884-.046-3.692-.059-2.758-.684-4.913-1.867-6.458-1.183-1.546-2.921-2.317-5.196-2.317-2.283 0-4.008.771-5.175 2.317-1.175 1.545-1.787 3.7-1.846 6.458l-.045 3.692.045 3.733c.059 2.792.671 4.95 1.846 6.479 1.167 1.529 2.892 2.296 5.175 2.296 2.309 0 4.05-.767 5.217-2.296m-13.7 2.633c-1.788-2.262-2.738-5.225-2.858-8.887l-.046-3.871.046-4.004c.091-3.629 1.041-6.575 2.858-8.842 1.812-2.266 4.642-3.396 8.483-3.396 3.871 0 6.713 1.13 8.529 3.396 1.813 2.267 2.763 5.213 2.855 8.842.029.837.045 2.175.045 4.004 0 1.771-.016 3.063-.045 3.871-.121 3.662-1.071 6.625-2.855 8.887-1.787 2.267-4.629 3.4-8.529 3.4-3.871 0-6.7-1.133-8.483-3.4m-233.697 51.369c1.171-1.529 1.787-3.688 1.846-6.479.029-.871.045-2.117.045-3.734 0-1.654-.016-2.883-.045-3.691-.059-2.759-.684-4.913-1.867-6.459-1.183-1.546-2.921-2.316-5.196-2.316-2.283 0-4.008.77-5.175 2.316-1.175 1.546-1.787 3.7-1.846 6.459l-.046 3.691.046 3.734c.059 2.791.671 4.95 1.846 6.479 1.167 1.529 2.892 2.296 5.175 2.296 2.308 0 4.05-.767 5.217-2.296m-13.7 2.633c-1.788-2.262-2.738-5.225-2.859-8.887l-.045-3.871.045-4.004c.092-3.63 1.042-6.575 2.859-8.842 1.812-2.267 4.641-3.396 8.483-3.396 3.871 0 6.713 1.129 8.529 3.396 1.813 2.267 2.763 5.212 2.854 8.842.03.837.046 2.175.046 4.004 0 1.771-.016 3.062-.046 3.871-.12 3.662-1.07 6.625-2.854 8.887-1.787 2.267-4.629 3.4-8.529 3.4-3.871 0-6.7-1.133-8.483-3.4m34.446 2.655a1.053 1.053 0 01-.271-.742v-25.379l-7.559 5.804c-.212.179-.437.271-.679.271-.266 0-.521-.15-.762-.45l-1.079-1.396a1.077 1.077 0 01-.225-.629c0-.329.15-.6.45-.813l9.766-7.558c.329-.213.717-.317 1.167-.317h2.117c.295 0 .545.1.741.292.196.2.292.446.292.746v29.429c0 .3-.096.546-.292.742a1.01 1.01 0 01-.741.291h-2.209c-.296 0-.537-.096-.716-.291m19.123 0a1.058 1.058 0 01-.271-.742v-25.379l-7.558 5.804c-.213.179-.438.271-.679.271-.267 0-.521-.15-.763-.45l-1.079-1.396a1.077 1.077 0 01-.225-.629c0-.329.15-.6.45-.813l9.767-7.558c.329-.213.716-.317 1.166-.317h2.117c.296 0 .546.1.742.292.196.2.291.446.291.746v29.429c0 .3-.095.546-.291.742a1.012 1.012 0 01-.742.291h-2.208c-.296 0-.538-.096-.717-.291m26.862-5.288c1.171-1.529 1.787-3.688 1.846-6.479.029-.871.045-2.117.045-3.734 0-1.654-.016-2.883-.045-3.691-.059-2.759-.684-4.913-1.867-6.459-1.183-1.546-2.921-2.316-5.196-2.316-2.283 0-4.008.77-5.175 2.316-1.175 1.546-1.787 3.7-1.846 6.459l-.046 3.691.046 3.734c.059 2.791.671 4.95 1.846 6.479 1.167 1.529 2.892 2.296 5.175 2.296 2.308 0 4.05-.767 5.217-2.296m-13.7 2.633c-1.788-2.262-2.738-5.225-2.859-8.887l-.045-3.871.045-4.004c.092-3.63 1.042-6.575 2.859-8.842 1.812-2.267 4.641-3.396 8.483-3.396 3.871 0 6.713 1.129 8.529 3.396 1.813 2.267 2.763 5.212 2.854 8.842.03.837.046 2.175.046 4.004 0 1.771-.016 3.062-.046 3.871-.12 3.662-1.07 6.625-2.854 8.887-1.787 2.267-4.629 3.4-8.529 3.4-3.871 0-6.7-1.133-8.483-3.4m42.183-2.633c1.171-1.529 1.788-3.688 1.846-6.479.029-.871.046-2.117.046-3.734 0-1.654-.017-2.883-.046-3.691-.058-2.759-.683-4.913-1.866-6.459-1.184-1.546-2.921-2.316-5.196-2.316-2.284 0-4.009.77-5.175 2.316-1.175 1.546-1.788 3.7-1.846 6.459l-.046 3.691.046 3.734c.058 2.791.671 4.95 1.846 6.479 1.166 1.529 2.891 2.296 5.175 2.296 2.308 0 4.05-.767 5.216-2.296m-13.7 2.633c-1.787-2.262-2.737-5.225-2.858-8.887l-.046-3.871.046-4.004c.092-3.63 1.042-6.575 2.858-8.842 1.813-2.267 4.642-3.396 8.484-3.396 3.871 0 6.712 1.129 8.529 3.396 1.812 2.267 2.762 5.212 2.854 8.842.029.837.046 2.175.046 4.004 0 1.771-.017 3.062-.046 3.871-.121 3.662-1.071 6.625-2.854 8.887-1.788 2.267-4.629 3.4-8.529 3.4-3.871 0-6.7-1.133-8.484-3.4m34.446 2.655a1.058 1.058 0 01-.271-.742v-25.379l-7.558 5.804c-.212.179-.437.271-.679.271-.267 0-.521-.15-.763-.45l-1.079-1.396a1.077 1.077 0 01-.225-.629c0-.329.15-.6.45-.813l9.767-7.558c.329-.213.717-.317 1.167-.317h2.116c.296 0 .546.1.742.292.196.2.292.446.292.746v29.429c0 .3-.096.546-.292.742a1.012 1.012 0 01-.742.291h-2.208c-.296 0-.538-.096-.717-.291m26.862-5.288c1.171-1.529 1.787-3.688 1.846-6.479.029-.871.046-2.117.046-3.734 0-1.654-.017-2.883-.046-3.691-.059-2.759-.684-4.913-1.867-6.459-1.183-1.546-2.921-2.316-5.196-2.316-2.283 0-4.008.77-5.175 2.316-1.175 1.546-1.787 3.7-1.846 6.459l-.045 3.691.045 3.734c.059 2.791.671 4.95 1.846 6.479 1.167 1.529 2.892 2.296 5.175 2.296 2.309 0 4.05-.767 5.217-2.296m-13.7 2.633c-1.788-2.262-2.738-5.225-2.858-8.887l-.046-3.871.046-4.004c.091-3.63 1.041-6.575 2.858-8.842 1.812-2.267 4.642-3.396 8.483-3.396 3.871 0 6.713 1.129 8.529 3.396 1.813 2.267 2.763 5.212 2.855 8.842.029.837.045 2.175.045 4.004 0 1.771-.016 3.062-.045 3.871-.121 3.662-1.071 6.625-2.855 8.887-1.787 2.267-4.629 3.4-8.529 3.4-3.871 0-6.7-1.133-8.483-3.4m42.184-2.633c1.17-1.529 1.787-3.688 1.845-6.479.03-.871.046-2.117.046-3.734 0-1.654-.016-2.883-.046-3.691-.058-2.759-.683-4.913-1.866-6.459-1.184-1.546-2.921-2.316-5.196-2.316-2.283 0-4.008.77-5.175 2.316-1.175 1.546-1.788 3.7-1.846 6.459l-.046 3.691.046 3.734c.058 2.791.671 4.95 1.846 6.479 1.167 1.529 2.892 2.296 5.175 2.296 2.308 0 4.05-.767 5.217-2.296m-13.7 2.633c-1.788-2.262-2.738-5.225-2.859-8.887l-.046-3.871.046-4.004c.092-3.63 1.042-6.575 2.859-8.842 1.812-2.267 4.641-3.396 8.483-3.396 3.871 0 6.712 1.129 8.529 3.396 1.813 2.267 2.763 5.212 2.854 8.842.029.837.046 2.175.046 4.004 0 1.771-.017 3.062-.046 3.871-.121 3.662-1.071 6.625-2.854 8.887-1.787 2.267-4.629 3.4-8.529 3.4-3.871 0-6.7-1.133-8.483-3.4m34.445 2.655a1.057 1.057 0 01-.27-.742v-25.379l-7.559 5.804c-.212.179-.437.271-.679.271-.267 0-.521-.15-.762-.45l-1.08-1.396a1.077 1.077 0 01-.225-.629c0-.329.15-.6.45-.813l9.767-7.558c.329-.213.717-.317 1.167-.317h2.116c.296 0 .546.1.742.292.196.2.292.446.292.746v29.429c0 .3-.096.546-.292.742a1.012 1.012 0 01-.742.291h-2.208c-.296 0-.537-.096-.717-.291m26.862-5.288c1.171-1.529 1.788-3.688 1.846-6.479.029-.871.046-2.117.046-3.734 0-1.654-.017-2.883-.046-3.691-.058-2.759-.683-4.913-1.867-6.459-1.183-1.546-2.92-2.316-5.195-2.316-2.284 0-4.009.77-5.175 2.316-1.175 1.546-1.788 3.7-1.846 6.459l-.046 3.691.046 3.734c.058 2.791.671 4.95 1.846 6.479 1.166 1.529 2.891 2.296 5.175 2.296 2.308 0 4.05-.767 5.216-2.296m-13.7 2.633c-1.787-2.262-2.737-5.225-2.858-8.887l-.046-3.871.046-4.004c.092-3.63 1.042-6.575 2.858-8.842 1.813-2.267 4.642-3.396 8.484-3.396 3.87 0 6.712 1.129 8.529 3.396 1.812 2.267 2.762 5.212 2.854 8.842.029.837.046 2.175.046 4.004 0 1.771-.017 3.062-.046 3.871-.121 3.662-1.071 6.625-2.854 8.887-1.788 2.267-4.629 3.4-8.529 3.4-3.871 0-6.7-1.133-8.484-3.4m42.184-2.633c1.171-1.529 1.787-3.688 1.846-6.479.029-.871.046-2.117.046-3.734 0-1.654-.017-2.883-.046-3.691-.059-2.759-.684-4.913-1.867-6.459-1.183-1.546-2.921-2.316-5.196-2.316-2.283 0-4.008.77-5.175 2.316-1.175 1.546-1.787 3.7-1.846 6.459l-.045 3.691.045 3.734c.059 2.791.671 4.95 1.846 6.479 1.167 1.529 2.892 2.296 5.175 2.296 2.309 0 4.05-.767 5.217-2.296m-13.7 2.633c-1.788-2.262-2.738-5.225-2.858-8.887l-.046-3.871.046-4.004c.091-3.63 1.041-6.575 2.858-8.842 1.812-2.267 4.642-3.396 8.483-3.396 3.871 0 6.713 1.129 8.529 3.396 1.813 2.267 2.763 5.212 2.855 8.842.029.837.045 2.175.045 4.004 0 1.771-.016 3.062-.045 3.871-.121 3.662-1.071 6.625-2.855 8.887-1.787 2.267-4.629 3.4-8.529 3.4-3.871 0-6.7-1.133-8.483-3.4m34.446 2.655a1.058 1.058 0 01-.271-.742v-25.379l-7.558 5.804c-.213.179-.438.271-.68.271-.266 0-.52-.15-.762-.45l-1.079-1.396a1.077 1.077 0 01-.225-.629c0-.329.15-.6.45-.813l9.766-7.558c.33-.213.717-.317 1.167-.317h2.117c.296 0 .546.1.741.292.196.2.292.446.292.746v29.429c0 .3-.096.546-.292.742a1.008 1.008 0 01-.741.291h-2.209c-.295 0-.537-.096-.716-.291m-268.143 48.713c1.171-1.529 1.787-3.688 1.846-6.479.029-.871.045-2.117.045-3.734 0-1.654-.016-2.883-.045-3.691-.059-2.759-.684-4.913-1.867-6.459-1.183-1.545-2.921-2.316-5.196-2.316-2.283 0-4.008.771-5.175 2.316-1.175 1.546-1.787 3.7-1.846 6.459l-.046 3.691.046 3.734c.059 2.791.671 4.95 1.846 6.479 1.167 1.529 2.892 2.296 5.175 2.296 2.308 0 4.05-.767 5.217-2.296m-13.7 2.633c-1.788-2.262-2.738-5.225-2.859-8.887l-.045-3.871.045-4.004c.092-3.629 1.042-6.575 2.859-8.842 1.812-2.267 4.641-3.396 8.483-3.396 3.871 0 6.713 1.129 8.529 3.396 1.813 2.267 2.763 5.213 2.854 8.842.03.837.046 2.175.046 4.004 0 1.771-.016 3.062-.046 3.871-.12 3.662-1.07 6.625-2.854 8.887-1.787 2.267-4.629 3.4-8.529 3.4-3.871 0-6.7-1.133-8.483-3.4m34.446 2.655a1.053 1.053 0 01-.271-.742V224.91l-7.559 5.804c-.212.179-.437.271-.679.271-.266 0-.521-.15-.762-.45l-1.079-1.396a1.077 1.077 0 01-.225-.629c0-.329.15-.6.45-.812l9.766-7.559c.329-.212.717-.316 1.167-.316h2.117c.295 0 .545.1.741.291.196.2.292.446.292.746v29.429c0 .3-.096.546-.292.742a1.008 1.008 0 01-.741.292h-2.209c-.296 0-.537-.096-.716-.292m26.861-5.288c1.171-1.529 1.787-3.688 1.846-6.479.029-.871.046-2.117.046-3.734 0-1.654-.017-2.883-.046-3.691-.059-2.759-.684-4.913-1.867-6.459-1.183-1.545-2.921-2.316-5.196-2.316-2.283 0-4.008.771-5.175 2.316-1.175 1.546-1.787 3.7-1.846 6.459l-.045 3.691.045 3.734c.059 2.791.671 4.95 1.846 6.479 1.167 1.529 2.892 2.296 5.175 2.296 2.309 0 4.05-.767 5.217-2.296m-13.7 2.633c-1.788-2.262-2.738-5.225-2.858-8.887l-.046-3.871.046-4.004c.091-3.629 1.041-6.575 2.858-8.842 1.812-2.267 4.642-3.396 8.483-3.396 3.871 0 6.713 1.129 8.529 3.396 1.813 2.267 2.763 5.213 2.855 8.842.029.837.045 2.175.045 4.004 0 1.771-.016 3.062-.045 3.871-.121 3.662-1.071 6.625-2.855 8.887-1.787 2.267-4.629 3.4-8.529 3.4-3.871 0-6.7-1.133-8.483-3.4m42.184-2.633c1.171-1.529 1.788-3.688 1.846-6.479.029-.871.046-2.117.046-3.734 0-1.654-.017-2.883-.046-3.691-.058-2.759-.683-4.913-1.867-6.459-1.183-1.545-2.921-2.316-5.196-2.316-2.283 0-4.008.771-5.175 2.316-1.175 1.546-1.787 3.7-1.845 6.459l-.046 3.691.046 3.734c.058 2.791.67 4.95 1.845 6.479 1.167 1.529 2.892 2.296 5.175 2.296 2.309 0 4.05-.767 5.217-2.296m-13.7 2.633c-1.787-2.262-2.737-5.225-2.858-8.887l-.046-3.871.046-4.004c.091-3.629 1.041-6.575 2.858-8.842 1.813-2.267 4.642-3.396 8.483-3.396 3.871 0 6.713 1.129 8.53 3.396 1.812 2.267 2.762 5.213 2.854 8.842.029.837.046 2.175.046 4.004 0 1.771-.017 3.062-.046 3.871-.121 3.662-1.071 6.625-2.854 8.887-1.788 2.267-4.63 3.4-8.53 3.4-3.87 0-6.7-1.133-8.483-3.4m42.184-2.633c1.171-1.529 1.787-3.688 1.846-6.479.029-.871.045-2.117.045-3.734 0-1.654-.016-2.883-.045-3.691-.059-2.759-.684-4.913-1.867-6.459-1.183-1.545-2.921-2.316-5.196-2.316-2.283 0-4.008.771-5.175 2.316-1.175 1.546-1.787 3.7-1.846 6.459l-.046 3.691.046 3.734c.059 2.791.671 4.95 1.846 6.479 1.167 1.529 2.892 2.296 5.175 2.296 2.308 0 4.05-.767 5.217-2.296m-13.7 2.633c-1.788-2.262-2.738-5.225-2.859-8.887l-.045-3.871.045-4.004c.092-3.629 1.042-6.575 2.859-8.842 1.812-2.267 4.641-3.396 8.483-3.396 3.871 0 6.713 1.129 8.529 3.396 1.813 2.267 2.763 5.213 2.854 8.842.03.837.046 2.175.046 4.004 0 1.771-.016 3.062-.046 3.871-.12 3.662-1.07 6.625-2.854 8.887-1.787 2.267-4.629 3.4-8.529 3.4-3.871 0-6.7-1.133-8.483-3.4m34.446 2.655a1.058 1.058 0 01-.271-.742V224.91l-7.558 5.804c-.213.179-.438.271-.68.271-.266 0-.52-.15-.762-.45l-1.079-1.396a1.077 1.077 0 01-.225-.629c0-.329.15-.6.45-.812l9.766-7.559c.33-.212.717-.316 1.167-.316h2.117c.296 0 .546.1.741.291.196.2.292.446.292.746v29.429c0 .3-.096.546-.292.742a1.005 1.005 0 01-.741.292h-2.209c-.295 0-.537-.096-.716-.292m26.861-5.288c1.171-1.529 1.788-3.688 1.846-6.479.029-.871.046-2.117.046-3.734 0-1.654-.017-2.883-.046-3.691-.058-2.759-.683-4.913-1.866-6.459-1.184-1.545-2.921-2.316-5.196-2.316-2.284 0-4.009.771-5.175 2.316-1.175 1.546-1.788 3.7-1.846 6.459l-.046 3.691.046 3.734c.058 2.791.671 4.95 1.846 6.479 1.166 1.529 2.891 2.296 5.175 2.296 2.308 0 4.05-.767 5.216-2.296m-13.7 2.633c-1.787-2.262-2.737-5.225-2.858-8.887l-.046-3.871.046-4.004c.092-3.629 1.042-6.575 2.858-8.842 1.813-2.267 4.642-3.396 8.484-3.396 3.871 0 6.712 1.129 8.529 3.396 1.812 2.267 2.762 5.213 2.854 8.842.029.837.046 2.175.046 4.004 0 1.771-.017 3.062-.046 3.871-.121 3.662-1.071 6.625-2.854 8.887-1.788 2.267-4.629 3.4-8.529 3.4-3.871 0-6.7-1.133-8.484-3.4m42.184-2.633c1.171-1.529 1.788-3.688 1.846-6.479.029-.871.046-2.117.046-3.734 0-1.654-.017-2.883-.046-3.691-.058-2.759-.683-4.913-1.867-6.459-1.183-1.545-2.921-2.316-5.196-2.316-2.283 0-4.008.771-5.175 2.316-1.175 1.546-1.787 3.7-1.845 6.459l-.046 3.691.046 3.734c.058 2.791.67 4.95 1.845 6.479 1.167 1.529 2.892 2.296 5.175 2.296 2.309 0 4.05-.767 5.217-2.296m-13.7 2.633c-1.787-2.262-2.737-5.225-2.858-8.887l-.046-3.871.046-4.004c.091-3.629 1.041-6.575 2.858-8.842 1.813-2.267 4.642-3.396 8.483-3.396 3.871 0 6.713 1.129 8.53 3.396 1.812 2.267 2.762 5.213 2.854 8.842.029.837.046 2.175.046 4.004 0 1.771-.017 3.062-.046 3.871-.121 3.662-1.071 6.625-2.854 8.887-1.788 2.267-4.63 3.4-8.53 3.4-3.87 0-6.7-1.133-8.483-3.4m34.446 2.655a1.058 1.058 0 01-.271-.742V224.91l-7.558 5.804c-.213.179-.438.271-.679.271-.267 0-.521-.15-.763-.45l-1.079-1.396a1.077 1.077 0 01-.225-.629c0-.329.15-.6.45-.812l9.767-7.559c.329-.212.716-.316 1.166-.316h2.117c.296 0 .546.1.742.291.195.2.291.446.291.746v29.429c0 .3-.096.546-.291.742a1.008 1.008 0 01-.742.292H605.1c-.296 0-.538-.096-.717-.292m19.124 0a1.058 1.058 0 01-.271-.742V224.91l-7.558 5.804c-.213.179-.438.271-.68.271-.266 0-.52-.15-.762-.45l-1.079-1.396a1.077 1.077 0 01-.225-.629c0-.329.15-.6.45-.812l9.766-7.559c.33-.212.717-.316 1.167-.316h2.117c.296 0 .546.1.741.291.196.2.292.446.292.746v29.429c0 .3-.096.546-.292.742a1.005 1.005 0 01-.741.292h-2.209c-.295 0-.537-.096-.716-.292m19.123 0a1.058 1.058 0 01-.271-.742V224.91l-7.558 5.804c-.213.179-.438.271-.679.271-.267 0-.521-.15-.763-.45l-1.079-1.396a1.077 1.077 0 01-.225-.629c0-.329.15-.6.45-.812l9.767-7.559c.329-.212.716-.316 1.166-.316h2.117c.296 0 .546.1.742.291.195.2.291.446.291.746v29.429c0 .3-.096.546-.291.742a1.008 1.008 0 01-.742.292h-2.208c-.296 0-.538-.096-.717-.292m26.862-5.288c1.171-1.529 1.787-3.688 1.846-6.479.029-.871.045-2.117.045-3.734 0-1.654-.016-2.883-.045-3.691-.059-2.759-.684-4.913-1.867-6.459-1.183-1.545-2.921-2.316-5.196-2.316-2.283 0-4.008.771-5.175 2.316-1.175 1.546-1.787 3.7-1.846 6.459l-.046 3.691.046 3.734c.059 2.791.671 4.95 1.846 6.479 1.167 1.529 2.892 2.296 5.175 2.296 2.308 0 4.05-.767 5.217-2.296m-13.7 2.633c-1.788-2.262-2.738-5.225-2.859-8.887l-.045-3.871.045-4.004c.092-3.629 1.042-6.575 2.859-8.842 1.812-2.267 4.641-3.396 8.483-3.396 3.871 0 6.713 1.129 8.529 3.396 1.813 2.267 2.763 5.213 2.854 8.842.03.837.046 2.175.046 4.004 0 1.771-.016 3.062-.046 3.871-.12 3.662-1.07 6.625-2.854 8.887-1.787 2.267-4.629 3.4-8.529 3.4-3.871 0-6.7-1.133-8.483-3.4"/>
        <path fill="#71acfd" d="M966.45 266.792c0 30.196-24.479 54.671-54.67 54.671-30.196 0-54.675-24.475-54.675-54.671 0-30.196 24.479-54.671 54.675-54.671 30.191 0 54.67 24.475 54.67 54.671"/>
        <path fill="#fff" d="M911.844 258.253l-.066.004c-.025 0-.042-.004-.067-.004-5.142 0-9.308 4.171-9.308 9.308 0 5.142 4.166 9.313 9.308 9.313.025 0 .042-.009.067-.009l.066.009c5.142 0 9.309-4.171 9.309-9.313 0-5.137-4.167-9.308-9.309-9.308"/>
        <path fill="#fff" d="M911.778 282.515c-8.217-.005-14.875-6.667-14.875-14.884 0-8.216 6.658-14.879 14.875-14.883 8.216.004 14.875 6.667 14.875 14.883 0 8.217-6.659 14.879-14.875 14.884m23.379-35.75h-8.325s.016-.142.016-.234c0-2.829-2.295-5.087-5.125-5.087h-19.891c-2.829 0-5.125 2.258-5.125 5.087 0 .092.012.234.012.234h-8.321c-2.979 0-4.983 2.566-4.983 5.545v30.205c0 2.979 2.004 4.583 4.983 4.583h46.759c2.979 0 4.983-1.604 4.983-4.583V252.31c0-2.979-2.004-5.545-4.983-5.545"/>
        <path fill="#006aff" d="M453.948 300.224c-.041 0-.087 0-.129-.004a212.48 212.48 0 00-16.487-.334h-.038a2.084 2.084 0 01-.037-4.166c5.591-.096 11.283.008 16.816.341a2.09 2.09 0 011.955 2.204 2.088 2.088 0 01-2.08 1.959m-41.558 1.621a2.083 2.083 0 01-.283-4.146 209.217 209.217 0 0116.741-1.654c1.209-.096 2.134.808 2.2 1.958a2.08 2.08 0 01-1.958 2.2c-5.458.317-10.983.862-16.408 1.621-.1.012-.196.021-.292.021m66.358 1.37c-.125 0-.25-.012-.379-.033a207.971 207.971 0 00-16.325-2.304 2.081 2.081 0 11.413-4.142 210.553 210.553 0 0116.662 2.346 2.083 2.083 0 01-.371 4.133m-90.841 3.555a2.084 2.084 0 01-2.013-1.55 2.09 2.09 0 011.479-2.546 209.347 209.347 0 0116.425-3.654 2.078 2.078 0 012.421 1.679 2.083 2.083 0 01-1.679 2.421 205.05 205.05 0 00-16.096 3.583 2.147 2.147 0 01-.537.067m115.091 2.395c-.2 0-.412-.025-.616-.091a202.454 202.454 0 00-15.929-4.25 2.09 2.09 0 01-1.58-2.492c.255-1.121 1.359-1.812 2.492-1.579a211.199 211.199 0 0116.254 4.342 2.081 2.081 0 01-.621 4.07m-138.795 5.459a2.084 2.084 0 01-.775-4.017 208.692 208.692 0 0115.862-5.612 2.074 2.074 0 012.604 1.375 2.08 2.08 0 01-1.375 2.604 207.164 207.164 0 00-15.546 5.5c-.25.1-.512.15-.77.15m162.187 3.404c-.283 0-.575-.054-.854-.183a203.339 203.339 0 00-15.308-6.159 2.08 2.08 0 01-1.263-2.662c.383-1.079 1.575-1.671 2.658-1.259a209.18 209.18 0 0115.625 6.28 2.088 2.088 0 011.046 2.758 2.087 2.087 0 01-1.904 1.225m-184.75 7.246a2.086 2.086 0 01-1-3.913 211.004 211.004 0 0115.058-7.483c1.059-.479 2.28 0 2.755 1.05a2.08 2.08 0 01-1.055 2.75 207.912 207.912 0 00-14.758 7.337 2.068 2.068 0 01-1 .259m206.892 4.371c-.367 0-.738-.1-1.075-.305-4.667-2.82-9.529-5.5-14.454-7.958a2.081 2.081 0 01-.93-2.796 2.076 2.076 0 012.792-.929 208.643 208.643 0 0114.746 8.121c.987.592 1.3 1.875.704 2.858a2.068 2.068 0 01-1.783 1.009m-228.017 8.916a2.082 2.082 0 01-1.217-3.775 213.6 213.6 0 0114.055-9.241 2.083 2.083 0 012.858.712 2.085 2.085 0 01-.708 2.863c-4.7 2.825-9.334 5.87-13.78 9.05a2.049 2.049 0 01-1.208.391m248.596 5.267c-.446 0-.9-.146-1.279-.446a208.721 208.721 0 00-13.392-9.633 2.08 2.08 0 01-.592-2.884 2.074 2.074 0 012.884-.591 208.63 208.63 0 0113.666 9.829 2.082 2.082 0 01.355 2.925c-.409.525-1.021.8-1.642.8M301.115 354.29a2.066 2.066 0 01-1.533-.679 2.083 2.083 0 01.129-2.946 216.231 216.231 0 0112.85-10.854 2.084 2.084 0 112.562 3.288 210.381 210.381 0 00-12.6 10.646c-.4.366-.904.545-1.408.545m286.725 6.084a2.073 2.073 0 01-1.467-.609 210.168 210.168 0 00-12.145-11.17 2.077 2.077 0 01-.242-2.934 2.078 2.078 0 012.937-.237 212.859 212.859 0 0112.388 11.387 2.08 2.08 0 01.008 2.946 2.065 2.065 0 01-1.479.617m-304.108 11.854a2.085 2.085 0 01-1.579-3.442c3.645-4.237 7.5-8.387 11.466-12.316a2.085 2.085 0 012.934 2.962 206.7 206.7 0 00-11.242 12.071 2.062 2.062 0 01-1.579.725m320.721 6.792c-.617 0-1.23-.271-1.638-.792a206.034 206.034 0 00-10.721-12.533 2.078 2.078 0 01.113-2.942 2.069 2.069 0 012.941.108c3.8 4.1 7.48 8.4 10.938 12.788a2.082 2.082 0 01-1.633 3.371m-335.842 13.104c-.4 0-.804-.117-1.158-.354a2.081 2.081 0 01-.571-2.892 209.501 209.501 0 019.912-13.596 2.084 2.084 0 013.267 2.588 205.745 205.745 0 00-9.717 13.329c-.404.6-1.062.925-1.733.925m350.1 7.391c-.7 0-1.388-.354-1.779-.995a206.787 206.787 0 00-9.146-13.721 2.085 2.085 0 013.371-2.45 211.41 211.41 0 019.329 13.996 2.083 2.083 0 01-1.775 3.17m-362.733 14.171a2.11 2.11 0 01-.942-.221 2.087 2.087 0 01-.913-2.804 208.326 208.326 0 018.213-14.691 2.067 2.067 0 012.862-.688c.984.6 1.292 1.888.688 2.867a204.658 204.658 0 00-8.05 14.4 2.077 2.077 0 01-1.858 1.137m374.425 7.879c-.796 0-1.55-.45-1.9-1.22a204.02 204.02 0 00-7.425-14.713 2.081 2.081 0 01.808-2.833 2.077 2.077 0 012.833.808 208.205 208.205 0 017.575 15.013 2.08 2.08 0 01-1.891 2.945m-384.367 15.067a2.086 2.086 0 01-1.963-2.796 208.094 208.094 0 016.388-15.579 2.086 2.086 0 012.758-1.029 2.081 2.081 0 011.029 2.762 203.19 203.19 0 00-6.254 15.271 2.085 2.085 0 01-1.958 1.371m393.312 8.229a2.079 2.079 0 01-1.987-1.458 204.295 204.295 0 00-5.6-15.504 2.081 2.081 0 011.141-2.717 2.085 2.085 0 012.717 1.146 208.049 208.049 0 015.713 15.825 2.074 2.074 0 01-1.359 2.608c-.208.067-.42.1-.625.1m-400.404 15.75a2.084 2.084 0 01-2.029-2.55 207.379 207.379 0 014.442-16.233 2.09 2.09 0 012.616-1.354 2.084 2.084 0 011.355 2.616 205.224 205.224 0 00-4.355 15.905 2.08 2.08 0 01-2.029 1.616m406.475 8.475c-.983 0-1.858-.7-2.05-1.7a204.526 204.526 0 00-3.679-16.071 2.082 2.082 0 114.017-1.091 208.003 208.003 0 013.762 16.4 2.084 2.084 0 01-1.666 2.429 2.42 2.42 0 01-.384.033m-410.612 16.15a2.081 2.081 0 01-2.075-2.3 209.71 209.71 0 012.458-16.65c.213-1.129 1.317-1.854 2.433-1.658a2.083 2.083 0 011.659 2.433 206.964 206.964 0 00-2.409 16.313 2.078 2.078 0 01-2.066 1.862m413.716 8.634a2.09 2.09 0 01-2.079-1.95 204.435 204.435 0 00-1.721-16.4 2.087 2.087 0 011.759-2.363c1.146-.142 2.2.621 2.362 1.763a208.98 208.98 0 011.759 16.729 2.084 2.084 0 01-1.946 2.216c-.046.005-.092.005-.134.005M233.64 510.19a2.086 2.086 0 01-2.083-2.058 215.088 215.088 0 01.45-16.817c.079-1.15 1.066-2.054 2.221-1.941a2.088 2.088 0 011.937 2.221 209.95 209.95 0 00-.442 16.483 2.083 2.083 0 01-2.054 2.112h-.029zm414.671 13.967c-.054 0-.108-.004-.167-.008a2.081 2.081 0 01-1.912-2.238c.429-5.446.65-10.991.65-16.479 0-1.762-.021-3.517-.067-5.271a2.08 2.08 0 012.029-2.133h.054c1.13 0 2.055.896 2.084 2.029a215.003 215.003 0 01-.596 22.179 2.084 2.084 0 01-2.075 1.921m-412.875 10.942a2.08 2.08 0 01-2.063-1.809 211.687 211.687 0 01-1.545-16.745 2.082 2.082 0 011.97-2.188c1.184-.092 2.13.821 2.192 1.967.288 5.479.796 11.004 1.513 16.421a2.085 2.085 0 01-2.067 2.354m409.408 13.791a2.082 2.082 0 01-2.041-2.5 204.64 204.64 0 002.612-16.275c.138-1.141 1.142-1.975 2.317-1.82a2.085 2.085 0 011.821 2.316 209.763 209.763 0 01-2.667 16.609 2.087 2.087 0 01-2.042 1.67m-404.633 10.721a2.08 2.08 0 01-2.017-1.562 211.23 211.23 0 01-3.55-16.446 2.078 2.078 0 011.696-2.408c1.154-.25 2.213.554 2.413 1.691a204.187 204.187 0 003.475 16.121 2.08 2.08 0 01-2.017 2.604m398.208 13.417a2.084 2.084 0 01-1.975-2.742 205.289 205.289 0 004.559-15.846c.275-1.116 1.412-1.808 2.52-1.525a2.083 2.083 0 011.53 2.517 209.67 209.67 0 01-4.655 16.167 2.086 2.086 0 01-1.979 1.429m-390.504 10.346a2.09 2.09 0 01-1.942-1.321 208.661 208.661 0 01-5.508-15.9 2.081 2.081 0 011.392-2.596 2.077 2.077 0 012.596 1.392 204.902 204.902 0 005.4 15.579 2.087 2.087 0 01-1.938 2.846m381.196 12.875a2.086 2.086 0 01-1.883-2.975 205.203 205.203 0 006.45-15.188 2.096 2.096 0 012.687-1.212 2.082 2.082 0 011.213 2.683 210.613 210.613 0 01-6.584 15.5 2.084 2.084 0 01-1.883 1.192m-370.692 9.754a2.08 2.08 0 01-1.833-1.096 207.946 207.946 0 01-7.383-15.108 2.081 2.081 0 113.812-1.675 205.145 205.145 0 007.238 14.804 2.088 2.088 0 01-1.834 3.075m358.65 12.154a2.084 2.084 0 01-1.758-3.196 206.543 206.543 0 008.233-14.3 2.09 2.09 0 012.813-.879 2.078 2.078 0 01.879 2.808 207.491 207.491 0 01-8.4 14.592 2.087 2.087 0 01-1.767.975m-345.5 9.058a2.072 2.072 0 01-1.7-.883 210.6 210.6 0 01-9.15-14.117 2.082 2.082 0 113.584-2.125 208.779 208.779 0 008.966 13.838 2.081 2.081 0 01-1.7 3.287m330.925 11.242c-.462 0-.925-.154-1.312-.471a2.082 2.082 0 01-.304-2.929 205.273 205.273 0 009.887-13.204 2.082 2.082 0 012.9-.533 2.08 2.08 0 01.533 2.895 212.82 212.82 0 01-10.083 13.471 2.105 2.105 0 01-1.621.771m-315.316 8.25a2.059 2.059 0 01-1.546-.687 213.533 213.533 0 01-10.775-12.917 2.089 2.089 0 01.383-2.925 2.091 2.091 0 012.921.383 206.9 206.9 0 0010.562 12.667 2.082 2.082 0 01-1.545 3.479m298.42 10.15a2.08 2.08 0 01-1.445-3.583c3.92-3.788 7.754-7.8 11.391-11.925a2.087 2.087 0 012.938-.184c.866.763.95 2.08.187 2.942a210.021 210.021 0 01-11.625 12.163 2.074 2.074 0 01-1.446.587m-280.595 7.35c-.488 0-.975-.167-1.371-.512a211.073 211.073 0 01-12.238-11.546 2.084 2.084 0 012.979-2.913 207.233 207.233 0 0012 11.317 2.084 2.084 0 01-1.37 3.654m261.633 8.904a2.08 2.08 0 01-1.263-3.741 207.996 207.996 0 0012.734-10.48 2.083 2.083 0 012.775 3.109 212.643 212.643 0 01-12.988 10.691 2.092 2.092 0 01-1.258.421m-241.842 6.346c-.4 0-.808-.121-1.166-.358a210.293 210.293 0 01-13.534-10.013 2.081 2.081 0 112.609-3.246 206.267 206.267 0 0013.266 9.809 2.083 2.083 0 01-1.175 3.808m221.079 7.521a2.091 2.091 0 01-1.804-1.033 2.079 2.079 0 01.75-2.846 208.172 208.172 0 0013.892-8.879 2.08 2.08 0 012.9.516 2.085 2.085 0 01-.517 2.9 209.142 209.142 0 01-14.175 9.059 2.043 2.043 0 01-1.046.283m-199.591 5.25c-.321 0-.646-.075-.95-.233a210.64 210.64 0 01-14.642-8.305 2.084 2.084 0 012.2-3.537 208.531 208.531 0 0014.35 8.142 2.086 2.086 0 01.896 2.808 2.093 2.093 0 01-1.854 1.125m177.325 6.008a2.083 2.083 0 01-1.917-1.254 2.09 2.09 0 011.088-2.742 207.24 207.24 0 0014.85-7.137 2.067 2.067 0 012.816.862 2.076 2.076 0 01-.862 2.813 209.742 209.742 0 01-15.15 7.287c-.271.121-.55.171-.825.171m-154.442 4.079c-.242 0-.483-.041-.725-.129a206.811 206.811 0 01-15.542-6.487 2.084 2.084 0 111.763-3.775 201.356 201.356 0 0015.229 6.354c1.075.4 1.629 1.6 1.229 2.679a2.087 2.087 0 01-1.954 1.358m130.971 4.421a2.08 2.08 0 01-1.996-1.496 2.082 2.082 0 011.408-2.587 205.388 205.388 0 0015.613-5.3 2.083 2.083 0 012.692 1.196 2.077 2.077 0 01-1.192 2.691 207.506 207.506 0 01-15.933 5.409 2.09 2.09 0 01-.592.087m-107.046 2.825c-.158 0-.321-.016-.483-.054a210.36 210.36 0 01-16.2-4.55 2.087 2.087 0 01-1.338-2.625 2.082 2.082 0 012.629-1.337 205.376 205.376 0 0015.871 4.458 2.076 2.076 0 011.546 2.504 2.078 2.078 0 01-2.025 1.604m82.704 2.775c-1 0-1.879-.721-2.054-1.737a2.09 2.09 0 011.713-2.4 207.437 207.437 0 0016.141-3.375c1.113-.259 2.246.396 2.529 1.512.28 1.113-.4 2.25-1.512 2.529a209.432 209.432 0 01-16.471 3.442 1.924 1.924 0 01-.346.029m-58.1 1.521c-.075 0-.154-.004-.233-.008a208.093 208.093 0 01-16.629-2.567 2.081 2.081 0 01-1.646-2.446 2.062 2.062 0 012.446-1.637 203.637 203.637 0 0016.296 2.504 2.089 2.089 0 011.837 2.304 2.085 2.085 0 01-2.071 1.85m33.263 1.108a2.083 2.083 0 01-.092-4.162c5.496-.25 11.025-.729 16.429-1.413a2.084 2.084 0 01.525 4.134 210.556 210.556 0 01-16.762 1.437c-.034.004-.067.004-.1.004m-9.663.221c-5.137 0-10.341-.187-15.458-.558a2.084 2.084 0 01-1.925-2.229c.083-1.15 1.083-2.05 2.229-1.929 5.017.366 10.117.55 15.154.55l1.321-.005h.021c1.142 0 2.071.921 2.083 2.063a2.089 2.089 0 01-2.066 2.104l-1.359.004z"/>
        <path fill="#006aff" d="M833.151 416.548c0 146.616-118.854 265.47-265.471 265.47-146.616 0-265.47-118.854-265.47-265.47 0-146.617 118.854-265.471 265.47-265.471 146.617 0 265.471 118.854 265.471 265.471"/>
        <path fill="#005eeb" d="M567.679 151.076c-146.616 0-265.471 118.854-265.471 265.471 0 146.616 118.855 265.47 265.471 265.47 146.617 0 265.471-118.854 265.471-265.47 0-146.617-118.854-265.471-265.471-265.471m0 12.5c139.488 0 252.971 113.483 252.971 252.971 0 139.491-113.483 252.97-252.971 252.97-139.487 0-252.971-113.479-252.971-252.97 0-139.488 113.484-252.971 252.971-252.971"/>
        <path fill="#fff" d="M735.282 301.098H490.94a2.084 2.084 0 01-2.083-2.083v-57.95H413.14a2.084 2.084 0 010-4.167h77.8a2.08 2.08 0 012.083 2.084v57.95h242.259a2.084 2.084 0 010 4.166"/>
        <path fill="#fe2326" d="M439.125 238.982c0 14.35-11.633 25.983-25.983 25.983-14.35 0-25.988-11.633-25.988-25.983 0-14.35 11.638-25.984 25.988-25.984s25.983 11.634 25.983 25.984"/>
        <path fill="#fff" d="M413.14 202.864c-19.917 0-36.117 16.204-36.117 36.117 0 19.917 16.2 36.121 36.117 36.121 19.917 0 36.117-16.204 36.117-36.121 0-19.913-16.2-36.117-36.117-36.117m0 76.404c-22.213 0-40.283-18.075-40.283-40.287 0-22.213 18.07-40.283 40.283-40.283 22.212 0 40.283 18.07 40.283 40.283 0 22.212-18.071 40.287-40.283 40.287"/>
        <path fill="#fe2326" d="M761.266 299.014c0 14.35-11.633 25.984-25.983 25.984-14.35 0-25.988-11.634-25.988-25.984 0-14.35 11.638-25.983 25.988-25.983s25.983 11.633 25.983 25.983"/>
        <path fill="#fff" d="M735.282 262.895c-19.917 0-36.117 16.204-36.117 36.12 0 19.913 16.2 36.117 36.117 36.117 19.916 0 36.116-16.204 36.116-36.117 0-19.916-16.2-36.12-36.116-36.12m0 76.404c-22.213 0-40.284-18.071-40.284-40.284 0-22.212 18.071-40.287 40.284-40.287 22.212 0 40.283 18.075 40.283 40.287 0 22.213-18.071 40.284-40.283 40.284m-238.917 170.08H413.14a2.084 2.084 0 010-4.167h81.142V344.045H413.14a2.084 2.084 0 010-4.166h83.225c1.15 0 2.084.933 2.084 2.083v165.333c0 1.15-.934 2.084-2.084 2.084"/>
        <path fill="#fe2326" d="M439.125 341.962c0 14.35-11.633 25.983-25.983 25.983-14.35 0-25.988-11.633-25.988-25.983 0-14.35 11.638-25.984 25.988-25.984s25.983 11.634 25.983 25.984"/>
        <path fill="#fff" d="M413.14 305.843c-19.917 0-36.117 16.204-36.117 36.121 0 19.912 16.2 36.116 36.117 36.116 19.917 0 36.117-16.204 36.117-36.116 0-19.917-16.2-36.121-36.117-36.121m0 76.404c-22.213 0-40.283-18.071-40.283-40.283 0-22.213 18.07-40.288 40.283-40.288 22.212 0 40.283 18.075 40.283 40.288 0 22.212-18.071 40.283-40.283 40.283"/>
        <path fill="#fe2326" d="M439.125 507.295c0 14.35-11.633 25.983-25.983 25.983-14.35 0-25.988-11.633-25.988-25.983 0-14.35 11.638-25.983 25.988-25.983s25.983 11.633 25.983 25.983"/>
        <path fill="#fff" d="M413.14 471.175c-19.917 0-36.117 16.204-36.117 36.121s16.2 36.121 36.117 36.121c19.917 0 36.117-16.204 36.117-36.121s-16.2-36.121-36.117-36.121m0 76.408c-22.213 0-40.283-18.075-40.283-40.287 0-22.213 18.07-40.288 40.283-40.288 22.212 0 40.283 18.075 40.283 40.288 0 22.212-18.071 40.287-40.283 40.287m305.617-128.064h-69.791a2.085 2.085 0 01-2.084-2.084v-42.541h-83.783a2.084 2.084 0 010-4.167h85.867c1.15 0 2.083.933 2.083 2.083v42.542h67.708a2.084 2.084 0 010 4.167"/>
        <path fill="#fe2326" d="M589.084 372.811c0 14.35-11.633 25.983-25.983 25.983-14.35 0-25.988-11.633-25.988-25.983 0-14.35 11.638-25.983 25.988-25.983s25.983 11.633 25.983 25.983"/>
        <path fill="#fff" d="M563.099 337.732c-19.341 0-35.075 15.733-35.075 35.079s15.734 35.079 35.075 35.079c19.342 0 35.079-15.733 35.079-35.079s-15.737-35.079-35.079-35.079m0 76.408c-22.787 0-41.325-18.537-41.325-41.329s18.538-41.329 41.325-41.329c22.788 0 41.329 18.537 41.329 41.329s-18.541 41.329-41.329 41.329"/>
        <path fill="#fe2326" d="M744.741 417.884c0 14.35-11.633 25.983-25.983 25.983-14.35 0-25.988-11.633-25.988-25.983 0-14.35 11.638-25.983 25.988-25.983s25.983 11.633 25.983 25.983"/>
        <path fill="#fff" d="M718.757 381.767c-19.916 0-36.12 16.204-36.12 36.116 0 19.917 16.204 36.121 36.12 36.121 19.917 0 36.117-16.204 36.117-36.121 0-19.912-16.2-36.116-36.117-36.116m0 76.404c-22.216 0-40.287-18.075-40.287-40.288 0-22.212 18.071-40.283 40.287-40.283 22.213 0 40.284 18.071 40.284 40.283 0 22.213-18.071 40.288-40.284 40.288m-95.776 197.688H495.806a2.084 2.084 0 01-2.083-2.083v-77.063h-163.25a2.084 2.084 0 01-2.084-2.083v-150a2.084 2.084 0 014.167 0v147.917h163.25c1.15 0 2.083.933 2.083 2.083v77.063h123.009V475.126a2.084 2.084 0 014.166 0v178.65c0 1.15-.933 2.083-2.083 2.083"/>
        <path fill="#fe2326" d="M330.474 398.644c14.35 0 25.983 11.633 25.983 25.983 0 14.35-11.633 25.988-25.983 25.988-14.35 0-25.984-11.638-25.984-25.988s11.634-25.983 25.984-25.983"/>
        <path fill="#fff" d="M330.474 388.509c-19.916 0-36.121 16.204-36.121 36.121 0 19.912 16.205 36.116 36.121 36.116 19.917 0 36.117-16.204 36.117-36.116 0-19.917-16.2-36.121-36.117-36.121m0 76.404c-22.216 0-40.287-18.071-40.287-40.283 0-22.213 18.071-40.288 40.287-40.288 22.213 0 40.284 18.075 40.284 40.288 0 22.212-18.071 40.283-40.284 40.283"/>
        <path fill="#fe2326" d="M622.981 455.326c14.35 0 25.983 11.634 25.983 25.984 0 14.35-11.633 25.987-25.983 25.987-14.35 0-25.983-11.637-25.983-25.987 0-14.35 11.633-25.984 25.983-25.984"/>
        <path fill="#fff" d="M622.981 445.19c-19.917 0-36.117 16.205-36.117 36.121 0 19.917 16.2 36.121 36.117 36.121 19.917 0 36.117-16.204 36.117-36.121 0-19.916-16.2-36.121-36.117-36.121m0 76.409c-22.213 0-40.283-18.075-40.283-40.288 0-22.212 18.07-40.287 40.283-40.287 22.212 0 40.283 18.075 40.283 40.287 0 22.213-18.071 40.288-40.283 40.288m384.149 70.066a34.979 34.979 0 011.8-.25h-3.162c-27.296-5.617-30.367-41.975-50.404-41.975-22.155 0-22.155 37.146-44.313 37.146s-22.158-25.538-44.321-25.538c-22.158 0-22.158 25.538-44.316 25.538-21.48 0-22.234-62.533-55.475-62.329v-.109c-.221.009-.438.025-.655.042a16.935 16.935 0 00-.658-.042v.109c-33.675 0-33.992 62.329-55.471 62.329-22.158 0-22.158-25.538-44.316-25.538-22.163 0-22.163 25.538-44.321 25.538-22.159 0-22.159-37.146-44.317-37.146-20.017 0-17.383 36.438-37.971 41.975h-2.471c.488.067.959.154 1.421.25a20.99 20.99 0 01-1.421.25h2.471c20.588 5.538 17.954 41.975 37.971 41.975 22.158 0 22.158-37.146 44.317-37.146 22.158 0 22.158 25.538 44.321 25.538 22.158 0 22.158-25.538 44.316-25.538 21.479 0 21.796 62.329 55.471 62.329v.109c.225-.009.442-.025.658-.042.217.017.434.033.655.042v-.109c33.241.205 33.995-62.329 55.475-62.329 22.158 0 22.158 25.538 44.316 25.538 22.163 0 22.163-25.538 44.321-25.538 22.158 0 22.158 37.146 44.313 37.146 20.037 0 23.108-36.358 50.404-41.975h3.162a34.979 34.979 0 01-1.8-.25M606.522 230.9a2.084 2.084 0 01-2.084-2.083v-48.696c0-1.15.934-2.083 2.084-2.083h147.221V75.854a2.084 2.084 0 014.166 0v104.267a2.078 2.078 0 01-2.083 2.083H608.605v46.613c0 1.15-.933 2.083-2.083 2.083"/>
        <path fill="#fe2326" d="M632.506 234.827c0 14.35-11.634 25.983-25.984 25.983-14.35 0-25.987-11.633-25.987-25.983 0-14.35 11.637-25.983 25.987-25.983 14.35 0 25.984 11.633 25.984 25.983"/>
        <path fill="#fff" d="M606.522 198.706c-19.917 0-36.121 16.204-36.121 36.121 0 19.916 16.204 36.121 36.121 36.121 19.916 0 36.116-16.205 36.116-36.121 0-19.917-16.2-36.121-36.116-36.121m0 76.408c-22.217 0-40.288-18.075-40.288-40.287 0-22.213 18.071-40.288 40.288-40.288 22.212 0 40.283 18.075 40.283 40.288 0 22.212-18.071 40.287-40.283 40.287"/>
        <path fill="#fe2326" d="M781.575 75.855c0 14.35-11.634 25.983-25.984 25.983-14.35 0-25.987-11.633-25.987-25.983 0-14.35 11.637-25.983 25.987-25.983 14.35 0 25.984 11.633 25.984 25.983"/>
        <path fill="#fff" d="M755.59 39.734c-19.917 0-36.117 16.204-36.117 36.121 0 19.916 16.2 36.12 36.117 36.12 19.917 0 36.117-16.204 36.117-36.12 0-19.917-16.2-36.121-36.117-36.121m0 76.408c-22.213 0-40.283-18.075-40.283-40.287 0-22.213 18.07-40.288 40.283-40.288 22.212 0 40.283 18.075 40.283 40.288 0 22.212-18.071 40.287-40.283 40.287"/>
        <path fill="#00046d" d="M202.022 652.886c-46.525 0-84.246-37.717-84.246-84.246 0-46.525 37.721-84.242 84.246-84.242s84.246 37.717 84.246 84.242c0 46.529-37.721 84.246-84.246 84.246"/>
        <path fill="#fff" d="M214.245 556.415c6.754 6.754 6.754 17.7 0 24.454-6.746 6.754-17.692 6.754-24.446 0-.05-.05-.087-.104-.137-.154l24.429-24.438c.058.05.104.088.154.138"/>
        <path fill="#fff" d="M214.245 580.869c-6.746 6.754-17.692 6.754-24.446 0-.05-.05-.087-.104-.137-.154l24.429-24.438c.058.05.104.088.154.138 6.754 6.754 6.754 17.7 0 24.454"/>
        <path fill="#fff" d="M220.292 586.908c-10.091 10.092-26.45 10.092-36.541 0-10.084-10.083-10.084-26.45 0-36.542 10.091-10.083 26.45-10.083 36.541 0 10.092 10.092 10.092 26.459 0 36.542m-40.879-53.813a3.224 3.224 0 013.225 3.221 3.225 3.225 0 11-6.45 0 3.222 3.222 0 013.225-3.221m11.109 0a3.222 3.222 0 110 6.446 3.22 3.22 0 01-3.221-3.225 3.22 3.22 0 013.221-3.221m34.887-6.887h-46.767c-5.775 0-10.462 4.679-10.462 10.454v63.958c0 5.775 4.687 10.455 10.462 10.455h46.767c5.775 0 10.454-4.68 10.454-10.455v-63.958c0-5.775-4.679-10.454-10.454-10.454"/>
        <path fill="#fe2326" d="M223.101 316.028a5.927 5.927 0 01-5.817-4.842 5.914 5.914 0 014.742-6.896c38.242-7.1 66-40.546 66-79.525 0-38.987-27.758-72.429-66-79.521a5.92 5.92 0 01-4.742-6.9 5.903 5.903 0 016.904-4.737c43.85 8.129 75.675 46.466 75.675 91.158 0 44.683-31.825 83.025-75.675 91.162a6.033 6.033 0 01-1.087.101"/>
        <path fill="#fe2326" d="M223.107 278.308a5.924 5.924 0 01-5.612-4.038 5.916 5.916 0 013.729-7.495c18.054-6.059 30.187-22.942 30.187-42.013 0-19.067-12.133-35.95-30.187-42.012a5.913 5.913 0 01-3.729-7.492c1.041-3.1 4.391-4.783 7.495-3.729 22.884 7.679 38.263 29.075 38.263 53.233 0 24.163-15.379 45.558-38.263 53.238a5.856 5.856 0 01-1.883.308"/>
        <path fill="#00046d" d="M218.707 224.765c0 10.075-8.167 18.241-18.242 18.241-10.071 0-18.237-8.166-18.237-18.241s8.166-18.242 18.237-18.242c10.075 0 18.242 8.167 18.242 18.242"/>
    </g>
</svg>
