<svg viewBox="0 0 10741 6854" xmlns="http://www.w3.org/2000/svg" fill-rule="evenodd" clip-rule="evenodd" stroke-linejoin="round" stroke-miterlimit="2">
    <path fill="none" d="M0 0h10740.7v6853.04H0z"/>
    <clipPath id="a">
        <path d="M0 0h10740.7v6853.04H0z"/>
    </clipPath>
    <g clip-path="url(#a)">
        <path d="M3366.94 280.648c3787.28 968.53 6041.82-2330.87 7146.15 2106.18 989.721 3976.59-1378.33 4329.11-4584.86 4397.98-2906.82 62.429-4413.73 520.7-5562.79-2150.25-1143.92-2658.97 546.942-4981.62 3001.5-4353.91" fill="#d9eaff" fill-rule="nonzero"/>
        <path fill="#fff" d="M2080.82 3504.83h486.913v341.667H2080.82z"/>
        <path d="M1608.03 2865.45c-30.921.004-66.259-9.363-105.784-28.084-308.55-146.162-506.141-2.333-508.1-.866-3.679 2.775-8.904 2.016-11.666-1.667a8.326 8.326 0 011.667-11.663c2.1-1.579 52.52-38.833 142.875-57.745 82.983-17.363 216.683-21.6 382.358 56.879 69.429 32.887 123.871 35.104 161.833 6.591 104.471-78.462 60.167-361.55 59.704-364.4-.733-4.545 2.359-8.825 6.9-9.554 4.55-.75 8.821 2.359 9.555 6.9 1.945 12.042 46.283 295.938-66.15 380.379-20.617 15.488-45.08 23.23-73.192 23.23M1085.6 3555.14c-82.112 0-145.17-23.771-188.583-71.3-99.942-109.417-62.512-313.117-15.446-415.809 88.421-192.925-55.621-364.395-57.083-366.104a8.339 8.339 0 01.9-11.754c3.5-2.996 8.758-2.583 11.754.904 1.571 1.829 38.75 45.654 65.004 114.975 24.325 64.213 43.129 162.992-5.425 268.921-48.637 106.125-76.887 299.654 12.6 397.625 75.088 82.2 215.967 87.596 418.721 16.046 4.346-1.546 9.1.746 10.629 5.083 1.529 4.342-.746 9.1-5.083 10.629-95.925 33.859-178.733 50.784-247.988 50.784" fill="#03073f" fill-rule="nonzero"/>
        <path d="M1999.93 2330.84l-45.65-4.08 25.142-281.375 277.746-52.045 123.804 88.054-26.567 37.354-107.937-76.775-224.488 42.071-22.05 246.796zM2178.7 2592.89l-200.121-199.383 32.346-32.471 175.529 174.887 198.95-112.041 31.5-123.779 44.417 11.304-36.338 142.791L2178.7 2592.89z" fill="#006aff" fill-rule="nonzero"/>
        <path d="M1323.21 2633.15l-25.007-68.704 677.502-246.596 25.007 68.703-677.503 246.597z" fill="#0058d8"/>
        <path d="M2037.23 2493.98c-77.842 28.334-163.917-11.804-192.246-89.646-28.333-77.841 11.804-163.916 89.646-192.245 77.842-28.334 163.913 11.8 192.246 89.645 28.333 77.842-11.804 163.913-89.646 192.246" fill="#0058d8" fill-rule="nonzero"/>
        <path d="M2009.44 2417.64c-35.679 12.987-75.129-5.408-88.112-41.088-12.987-35.679 5.408-75.129 41.088-88.112 35.679-12.988 75.129 5.408 88.112 41.087 12.988 35.68-5.408 75.125-41.087 88.113" fill="#bbd7fe" fill-rule="nonzero"/>
        <path d="M357.639 2945.69c-12.488-34.304 5.2-72.238 39.508-84.721l638.104-232.254c34.304-12.484 72.238 5.204 84.721 39.508 12.488 34.304-5.2 72.238-39.504 84.721L442.36 2985.198c-34.305 12.483-72.234-5.204-84.721-39.508" fill="#0058d8" fill-rule="nonzero"/>
        <path d="M1772.56 2360.35l45.215 124.225-677.502 246.596-45.215-124.225 677.502-246.596z" fill="#0058d8"/>
        <path d="M1480.22 2431.51l67.875 186.484-115.483 42.033-67.875-186.484 115.483-42.033z" fill="#bbd7fe"/>
        <path d="M1171.66 2510.76l89.117 244.851-118.897 43.274-89.117-244.851 118.897-43.274z" fill="#0058d8"/>
        <path d="M1056.92 2494.97l126.112 346.496-486.871 177.204-126.112-346.496 486.871-177.204z" fill="#bbd7fe"/>
        <path d="M1418.44 3700.68c-46.879 0-92.916-22.562-121.079-64.366l-533.333-791.667c-45-66.8-27.329-157.429 39.467-202.429 66.791-45.008 157.425-27.338 202.429 39.462l533.333 791.667c45 66.804 27.329 157.433-39.471 202.429-24.991 16.838-53.316 24.904-81.346 24.904" fill="#006aff" fill-rule="nonzero"/>
        <path d="M1714.15 3854.83h-608.334l59.684-356.338c11.471-68.487 70.746-118.662 140.187-118.662h208.592c69.442 0 128.717 50.175 140.187 118.662l59.684 356.338z" fill="#0058d8" fill-rule="nonzero"/>
        <path fill="#006aff" d="M1018.31 3771.5h783.333v83.333H1018.31z"/>
        <path d="M1497.48 3563.17c0 48.325-39.175 87.5-87.5 87.5s-87.5-39.175-87.5-87.5 39.175-87.5 87.5-87.5 87.5 39.175 87.5 87.5" fill="#006aff" fill-rule="nonzero"/>
        <path d="M1453.73 3563.17c0 24.163-19.588 43.75-43.75 43.75s-43.75-19.587-43.75-43.75c0-24.162 19.588-43.75 43.75-43.75s43.75 19.588 43.75 43.75" fill="#0058d8" fill-rule="nonzero"/>
        <path d="M1265.87 3558.91c0 12.866-10.434 23.3-23.3 23.3-12.867 0-23.3-10.434-23.3-23.3 0-12.867 10.433-23.3 23.3-23.3 12.866 0 23.3 10.433 23.3 23.3M1265.87 3696.98c0 12.866-10.434 23.3-23.3 23.3-12.867 0-23.3-10.434-23.3-23.3 0-12.867 10.433-23.3 23.3-23.3 12.866 0 23.3 10.433 23.3 23.3M1600.69 3558.91c0 12.866-10.433 23.3-23.3 23.3s-23.3-10.434-23.3-23.3c0-12.867 10.433-23.3 23.3-23.3s23.3 10.433 23.3 23.3M1600.69 3696.98c0 12.866-10.433 23.3-23.3 23.3s-23.3-10.434-23.3-23.3c0-12.867 10.433-23.3 23.3-23.3s23.3 10.433 23.3 23.3" fill="#006aff" fill-rule="nonzero"/>
        <path d="M922.153 2752.03c0 23.729-19.238 42.967-42.967 42.967-23.733 0-42.966-19.238-42.966-42.967s19.233-42.967 42.966-42.967c23.729 0 42.967 19.238 42.967 42.967" fill="#0058d8" fill-rule="nonzero"/>
        <path d="M2220.36 2387.5l-76.954-211.429c-2.363-6.488.983-13.663 7.471-16.025l399.371-145.359c6.483-2.358 13.658.984 16.02 7.471l76.955 211.433c2.358 6.488-.984 13.659-7.471 16.021l-399.371 145.359c-6.488 2.362-13.658-.984-16.021-7.471M4092.68 3738.35a8.335 8.335 0 01-8.271-7.396c-19.184-169.55-160.259-320.37-328.15-350.833-47.475-8.612-97.004-8.646-144.904-8.683-27.638-.017-56.213-.034-84.317-1.679-97.154-5.68-169.8-33.542-215.929-82.813-62.492-66.737-69.638-165.804-64.625-237.154 2.308-32.883 7.05-65.979 11.641-97.988 6.855-47.816 13.946-97.266 12.792-145.962-2.204-93-39.092-169.7-98.683-205.175-3.954-2.354-5.25-7.471-2.9-11.425 2.358-3.958 7.471-5.238 11.425-2.896 64.55 38.425 104.479 120.329 106.821 219.1 1.187 50.083-6.005 100.229-12.955 148.725-4.55 31.713-9.25 64.508-11.516 96.783-4.779 68.046 1.783 162.246 60.166 224.6 43.109 46.046 111.992 72.142 204.734 77.563 27.625 1.621 55.958 1.637 83.358 1.654 48.633.038 98.925.075 147.867 8.954 85.091 15.438 166.525 60.9 229.304 128.017 62.779 67.121 102.708 151.404 112.433 237.337a8.332 8.332 0 01-8.291 9.271" fill="#03073f" fill-rule="nonzero"/>
        <path d="M4128.99 2933.19c12.488-34.304-5.2-72.238-39.508-84.721l-638.104-232.254c-34.304-12.484-72.238 5.204-84.721 39.508-12.488 34.304 5.2 72.238 39.504 84.721l638.108 232.254c34.305 12.483 72.234-5.204 84.721-39.508" fill="#0058d8" fill-rule="nonzero"/>
        <path d="M3512.4 2636.12l-45.215 124.225-677.502-246.596 45.215-124.225L3512.4 2636.12z" fill="#0058d8"/>
        <path d="M3121.89 2461.04l-67.876 186.484-115.483-42.033 67.875-186.484 115.484 42.033z" fill="#bbd7fe"/>
        <path d="M3433.86 2541.54l-89.118 244.852-118.892-43.273 89.117-244.852 118.893 43.273z" fill="#0058d8"/>
        <path d="M3916.58 2659.68l-126.112 346.496-486.871-177.204 126.112-346.496 486.871 177.204z" fill="#bbd7fe"/>
        <path d="M4155.93 3700.68c-44.425 0-88.287-20.221-116.925-58.537l-591.667-791.667c-48.22-64.517-35.004-155.904 29.509-204.117 64.512-48.216 155.904-35 204.116 29.509l591.667 791.666c48.217 64.517 35.004 155.904-29.512 204.117-26.192 19.575-56.825 29.029-87.188 29.029" fill="#006aff" fill-rule="nonzero"/>
        <path d="M3859.98 3854.83h608.334l-59.684-356.338c-11.47-68.487-70.745-118.662-140.187-118.662h-208.592c-69.441 0-128.716 50.175-140.187 118.662l-59.684 356.338z" fill="#0058d8" fill-rule="nonzero"/>
        <path fill="#006aff" d="M3772.48 3771.5h783.333v83.333H3772.48z"/>
        <path d="M4076.65 3563.17c0 48.325 39.175 87.5 87.5 87.5s87.5-39.175 87.5-87.5-39.175-87.5-87.5-87.5-87.5 39.175-87.5 87.5" fill="#006aff" fill-rule="nonzero"/>
        <path d="M4120.4 3563.17c0 24.163 19.588 43.75 43.75 43.75 24.163 0 43.75-19.587 43.75-43.75 0-24.162-19.587-43.75-43.75-43.75-24.162 0-43.75 19.588-43.75 43.75" fill="#0058d8" fill-rule="nonzero"/>
        <path d="M4308.26 3558.91c0 12.866 10.433 23.3 23.3 23.3 12.866 0 23.3-10.434 23.3-23.3 0-12.867-10.434-23.3-23.3-23.3-12.867 0-23.3 10.433-23.3 23.3M4308.26 3696.98c0 12.866 10.433 23.3 23.3 23.3 12.866 0 23.3-10.434 23.3-23.3 0-12.867-10.434-23.3-23.3-23.3-12.867 0-23.3 10.433-23.3 23.3M3973.43 3558.91c0 12.866 10.433 23.3 23.3 23.3s23.3-10.434 23.3-23.3c0-12.867-10.433-23.3-23.3-23.3s-23.3 10.433-23.3 23.3M3973.43 3696.98c0 12.866 10.433 23.3 23.3 23.3s23.3-10.434 23.3-23.3c0-12.867-10.433-23.3-23.3-23.3s-23.3 10.433-23.3 23.3" fill="#006aff" fill-rule="nonzero"/>
        <path d="M3514.47 2752.03c0 23.729 19.238 42.967 42.967 42.967 23.733 0 42.971-19.238 42.971-42.967s-19.238-42.967-42.971-42.967c-23.729 0-42.967 19.238-42.967 42.967" fill="#0058d8" fill-rule="nonzero"/>
        <path d="M2696.81 2351.01l-112.195-9.067-10.896 29.663 91.383 65.72 44.379 116.638 84.046 8.679 84.042 8.683 67.925-184.9-69.671-47.791-69.679-47.792-109.334 60.167z" fill="#006aff" fill-rule="nonzero"/>
        <path d="M2817.58 2406.01c19.121 7.025 28.925 28.22 21.904 47.341-7.025 19.121-28.221 28.925-47.341 21.9-19.121-7.025-28.926-28.216-21.905-47.337 7.025-19.121 28.221-28.929 47.342-21.904" fill="#bbd7fe" fill-rule="nonzero"/>
        <path d="M1014.15 4309c-130.959 0-237.5-106.541-237.5-237.5 0-130.958 106.541-237.5 237.5-237.5h1533.33c130.958 0 237.5 106.542 237.5 237.5 0 130.959-106.542 237.5-237.5 237.5H1014.15z" fill="#03073f" fill-rule="nonzero"/>
        <path d="M2547.48 4279.83H1014.15c-115.058 0-208.333-93.275-208.333-208.334 0-115.058 93.275-208.333 208.333-208.333h1533.33c115.059 0 208.334 93.275 208.334 208.333 0 115.059-93.275 208.334-208.334 208.334" fill="#006aff" fill-rule="nonzero"/>
        <path d="M1109.98 4071.5c0 55.23-44.771 100-100 100s-100-44.77-100-100c0-55.229 44.771-100 100-100s100 44.771 100 100" fill="#0058d8" fill-rule="nonzero"/>
        <path d="M1059.98 4071.5c0 27.613-22.387 50-50 50-27.612 0-50-22.387-50-50 0-27.612 22.388-50 50-50 27.613 0 50 22.388 50 50" fill="#006aff" fill-rule="nonzero"/>
        <path d="M2651.65 4071.5c0 55.23-44.771 100-100 100s-100-44.77-100-100c0-55.229 44.771-100 100-100s100 44.771 100 100" fill="#0058d8" fill-rule="nonzero"/>
        <path d="M2601.65 4071.5c0 27.613-22.388 50-50 50-27.613 0-50-22.387-50-50 0-27.612 22.387-50 50-50 27.612 0 50 22.388 50 50" fill="#006aff" fill-rule="nonzero"/>
        <path d="M1268.34 5108.2c-39.121 0-70.833-31.713-70.833-70.834v-974.987c0-39.121 31.712-70.833 70.833-70.833 39.121 0 70.833 31.712 70.833 70.833v974.987c0 39.121-31.712 70.834-70.833 70.834" fill="#bbd7fe" fill-rule="nonzero"/>
        <path d="M1578.45 5108.2H958.237v-48.85l310.104-58.334 310.109 58.334v48.85zM2293.29 5108.2c-39.121 0-70.833-31.713-70.833-70.834v-974.987c0-39.121 31.712-70.833 70.833-70.833 39.121 0 70.833 31.712 70.833 70.833v974.987c0 39.121-31.712 70.834-70.833 70.834" fill="#bbd7fe" fill-rule="nonzero"/>
        <path d="M2603.39 5108.2h-620.213v-48.85l310.104-58.334 310.109 58.334v48.85z" fill="#bbd7fe" fill-rule="nonzero"/>
        <path fill="#0058d8" d="M1101.65 4171.5h1358.33v250H1101.65z"/>
        <path fill="#fff" d="M1145.28 4210.77h46.004v46.004h-46.004z"/>
        <path fill="#bbd7fe" d="M1210.8 4210.77h46.004v46.004H1210.8zM1276.32 4210.77h46.004v46.004h-46.004zM1145.28 4273.5h46.004v46.004h-46.004z"/>
        <path fill="#fff" d="M1210.8 4273.5h46.004v46.004H1210.8z"/>
        <path fill="#bbd7fe" d="M1276.32 4273.5h46.004v46.004h-46.004zM1145.28 4336.23h46.004v46.004h-46.004z"/>
        <path fill="#fff" d="M1210.8 4336.23h46.004v46.004H1210.8z"/>
        <path fill="#fe2326" d="M1276.32 4336.23h46.004v46.004h-46.004z"/>
        <path fill="#006aff" d="M2029.77 4215.2h22.862v162.592h-22.862zM2081.23 4215.2h22.862v162.592h-22.862zM2132.69 4215.2h22.863v162.592h-22.863zM2184.15 4215.2h22.863v162.592h-22.863zM2235.6 4215.2h22.863v162.592H2235.6zM2287.07 4215.2h22.862v162.592h-22.862zM2338.53 4215.2h22.862v162.592h-22.862z"/>
        <path d="M3030.81 4309c-130.958 0-237.5-106.541-237.5-237.5 0-130.958 106.542-237.5 237.5-237.5h1533.33c130.958 0 237.5 106.542 237.5 237.5 0 130.959-106.542 237.5-237.5 237.5H3030.81z" fill="#03073f" fill-rule="nonzero"/>
        <path d="M4564.15 4279.83H3030.82c-115.059 0-208.334-93.275-208.334-208.334 0-115.058 93.275-208.333 208.334-208.333h1533.33c115.058 0 208.333 93.275 208.333 208.333 0 115.059-93.275 208.334-208.333 208.334" fill="#006aff" fill-rule="nonzero"/>
        <path d="M3126.65 4071.5c0 55.23-44.771 100-100 100s-100-44.77-100-100c0-55.229 44.771-100 100-100s100 44.771 100 100" fill="#0058d8" fill-rule="nonzero"/>
        <path d="M3076.65 4071.5c0 27.613-22.388 50-50 50-27.613 0-50-22.387-50-50 0-27.612 22.387-50 50-50 27.612 0 50 22.388 50 50" fill="#006aff" fill-rule="nonzero"/>
        <path d="M4668.31 4071.5c0 55.23-44.771 100-100 100s-100-44.77-100-100c0-55.229 44.771-100 100-100s100 44.771 100 100" fill="#0058d8" fill-rule="nonzero"/>
        <path d="M4618.31 4071.5c0 27.613-22.388 50-50 50-27.613 0-50-22.387-50-50 0-27.612 22.387-50 50-50 27.612 0 50 22.388 50 50" fill="#006aff" fill-rule="nonzero"/>
        <path d="M3285.01 5108.2c-39.121 0-70.833-31.713-70.833-70.834v-974.987c0-39.121 31.712-70.833 70.833-70.833 39.121 0 70.833 31.712 70.833 70.833v974.987c0 39.121-31.712 70.834-70.833 70.834" fill="#bbd7fe" fill-rule="nonzero"/>
        <path d="M3595.11 5108.2h-620.212v-48.85l310.104-58.334 310.108 58.334v48.85zM4309.95 5108.2c-39.121 0-70.833-31.713-70.833-70.834v-974.987c0-39.121 31.712-70.833 70.833-70.833 39.121 0 70.833 31.712 70.833 70.833l.001 974.987c-.001 39.121-31.713 70.834-70.834 70.834" fill="#bbd7fe" fill-rule="nonzero"/>
        <path d="M4620.06 5108.2h-620.212v-48.85l310.104-58.334 310.108 58.334v48.85z" fill="#bbd7fe" fill-rule="nonzero"/>
        <path fill="#0058d8" d="M3118.31 4171.5h1358.33v250H3118.31z"/>
        <path fill="#fff" d="M3161.94 4210.77h46.004v46.004h-46.004z"/>
        <path fill="#bbd7fe" d="M3227.46 4210.77h46.004v46.004h-46.004z"/>
        <path fill="#fff" d="M3292.98 4210.77h46.004v46.004h-46.004z"/>
        <path fill="#bbd7fe" d="M3161.94 4273.5h46.004v46.004h-46.004z"/>
        <path fill="#fe2326" d="M3227.46 4273.5h46.004v46.004h-46.004z"/>
        <path fill="#fff" d="M3292.98 4273.5h46.004v46.004h-46.004z"/>
        <path fill="#bbd7fe" d="M3161.94 4336.23h46.004v46.004h-46.004zM3227.46 4336.23h46.004v46.004h-46.004z"/>
        <path fill="#fe2326" d="M3292.98 4336.23h46.004v46.004h-46.004z"/>
        <path fill="#006aff" d="M4046.44 4215.2h22.862v162.592h-22.862zM4097.9 4215.2h22.863v162.592H4097.9zM4149.35 4215.2h22.863v162.592h-22.863zM4200.81 4215.2h22.863v162.592h-22.863zM4252.27 4215.2h22.862v162.592h-22.862zM4303.73 4215.2h22.863v162.592h-22.863zM4355.19 4215.2h22.863v162.592h-22.863z"/>
        <path d="M4814.47 6009.41c0 52.863 640.038 95.721 1429.56 95.721 789.524 0 1429.56-42.858 1429.56-95.721 0-52.862-640.034-95.72-1429.56-95.72-789.52 0-1429.56 42.858-1429.56 95.72M9068.5 5465.53H7093.3a4.163 4.163 0 01-4.167-4.166 4.163 4.163 0 014.167-4.167h1975.2a4.162 4.162 0 014.166 4.167 4.161 4.161 0 01-4.166 4.166M8743.47 5690.56H6768.28a4.162 4.162 0 01-4.167-4.166 4.163 4.163 0 014.167-4.167h1975.19a4.163 4.163 0 014.167 4.167 4.162 4.162 0 01-4.167 4.166" fill="#bbd7fe" fill-rule="nonzero"/>
        <path d="M7787.12 5984.33a4.154 4.154 0 01-2.946-1.221 4.162 4.162 0 010-5.891l600.071-600.071a4.17 4.17 0 015.892 0 4.169 4.169 0 010 5.891l-600.071 600.071a4.154 4.154 0 01-2.946 1.221M2336.58 6084.35a4.152 4.152 0 01-2.946-1.221 4.162 4.162 0 010-5.891l600.071-600.071a4.169 4.169 0 015.891 0 4.17 4.17 0 010 5.892l-600.07 600.07a4.156 4.156 0 01-2.946 1.221" fill="#bbd7fe" fill-rule="nonzero"/>
        <path d="M3355.43 5565.54H1380.24a4.162 4.162 0 01-4.167-4.166 4.163 4.163 0 014.167-4.167h1975.19a4.166 4.166 0 110 8.333" fill="#bbd7fe" fill-rule="nonzero"/>
        <path d="M7823.81 4820.83l-492.621 109.833-492.625-109.833 492.625-109.833 492.621 109.833z" fill="#0058d8" fill-rule="nonzero"/>
        <path d="M7823.81 4820.83v-126.321h-985.246v126.321s985.246-7.654 985.246 0" fill="#0058d8" fill-rule="nonzero"/>
        <path d="M7823.81 4694.51l-492.621 109.833-492.625-109.833 492.625-109.833 492.621 109.833zM7267.39 4851.14l-382.788-86.2v15.696l382.788 86.2v-15.696z" fill="#006aff" fill-rule="nonzero"/>
        <path d="M7382.23 4851.14l382.788-86.2v15.696l-382.788 86.2v-15.696z" fill="#fff" fill-rule="nonzero"/>
        <path d="M7018.58 4598.19v96.321s10.863 2.504 29.675 6.191l282.934 63.088 266.345-59.388c28.138-5.337 44.784-9.466 44.359-9.891v-93.771l-623.313-2.55z" fill="#004fcf" fill-rule="nonzero"/>
        <path d="M7823.81 4587.33l-492.621 109.833-492.625-109.833 492.625-109.834 492.621 109.834z" fill="#0058d8" fill-rule="nonzero"/>
        <path d="M7823.81 4587.33v-126.321h-985.246v126.321s985.246-7.654 985.246 0" fill="#0058d8" fill-rule="nonzero"/>
        <path d="M7823.81 4461.01l-492.621 109.833-492.625-109.833 492.625-109.834 492.621 109.834zM7267.39 4617.64l-382.788-86.2v15.695l382.788 86.2v-15.695z" fill="#006aff" fill-rule="nonzero"/>
        <path d="M7382.23 4617.64l382.788-86.2v15.695l-382.788 86.2v-15.695z" fill="#fff" fill-rule="nonzero"/>
        <path d="M7018.58 4364.69v96.321s10.863 2.504 29.675 6.192l282.934 63.087 266.345-59.387c28.138-5.338 44.784-9.467 44.359-9.892v-93.771l-623.313-2.55z" fill="#004fcf" fill-rule="nonzero"/>
        <path d="M7823.81 4361.49l-492.621 109.833-492.625-109.833 492.625-109.833 492.621 109.833z" fill="#0058d8" fill-rule="nonzero"/>
        <path d="M7823.81 4361.49v-126.321h-985.246v126.321s985.246-7.654 985.246 0" fill="#0058d8" fill-rule="nonzero"/>
        <path d="M7823.81 4235.17l-492.621 109.833-492.625-109.833 492.625-109.834 492.621 109.834zM7267.39 4391.8l-382.788-86.2v15.696l382.788 86.2V4391.8z" fill="#006aff" fill-rule="nonzero"/>
        <path d="M7382.23 4391.8l382.788-86.2v15.696l-382.788 86.2V4391.8z" fill="#fff" fill-rule="nonzero"/>
        <path d="M7018.58 4138.85v96.321s10.863 2.504 29.675 6.192l282.934 63.087 266.345-59.387c28.138-5.338 44.784-9.467 44.359-9.892V4141.4l-623.313-2.55z" fill="#004fcf" fill-rule="nonzero"/>
        <path d="M7823.81 4133.74l-492.621 109.834-492.625-109.834 492.625-109.833 492.621 109.833z" fill="#0058d8" fill-rule="nonzero"/>
        <path d="M7823.81 4133.74v-126.321h-985.246v126.321s985.246-7.654 985.246 0" fill="#0058d8" fill-rule="nonzero"/>
        <path d="M7823.81 4007.42l-492.621 109.833-492.625-109.833 492.625-109.834 492.621 109.834z" fill="#006aff" fill-rule="nonzero"/>
        <path d="M7120.01 4007.42l211.18-47.088 211.179 47.088-211.179 47.087-211.18-47.087z" fill="#fff" fill-rule="nonzero"/>
        <path d="M7267.39 4164.05l-382.788-86.2v15.696l382.788 86.2v-15.696z" fill="#006aff" fill-rule="nonzero"/>
        <path d="M7382.23 4164.05l382.788-86.2v15.696l-382.788 86.2v-15.696z" fill="#fff" fill-rule="nonzero"/>
        <path d="M9630.78 4820.83l-492.621 109.833-492.625-109.833 492.625-109.833 492.621 109.833z" fill="#0058d8" fill-rule="nonzero"/>
        <path d="M9630.78 4820.83v-126.321h-985.246v126.321s985.246-7.654 985.246 0" fill="#0058d8" fill-rule="nonzero"/>
        <path d="M9630.78 4694.51l-492.621 109.833-492.625-109.833 492.625-109.833 492.621 109.833zM9074.36 4851.14l-382.787-86.2v15.696l382.787 86.2v-15.696z" fill="#006aff" fill-rule="nonzero"/>
        <path d="M9189.2 4851.14l382.787-86.2v15.696l-382.787 86.2v-15.696z" fill="#fff" fill-rule="nonzero"/>
        <path d="M8825.55 4598.19v96.321s10.863 2.504 29.675 6.191l282.934 63.088 266.345-59.388c28.138-5.337 44.784-9.466 44.359-9.891v-93.771l-623.313-2.55z" fill="#004fcf" fill-rule="nonzero"/>
        <path d="M9630.78 4587.33l-492.621 109.833-492.625-109.833 492.625-109.834 492.621 109.834z" fill="#0058d8" fill-rule="nonzero"/>
        <path d="M9630.78 4587.33v-126.321h-985.246v126.321s985.246-7.654 985.246 0" fill="#0058d8" fill-rule="nonzero"/>
        <path d="M9630.78 4461.01l-492.621 109.833-492.625-109.833 492.625-109.834 492.621 109.834zM9074.36 4617.64l-382.787-86.2v15.695l382.787 86.2v-15.695z" fill="#006aff" fill-rule="nonzero"/>
        <path d="M9189.2 4617.64l382.787-86.2v15.695l-382.787 86.2v-15.695z" fill="#fff" fill-rule="nonzero"/>
        <path d="M8825.55 4364.69v96.321s10.863 2.504 29.675 6.192l282.934 63.087 266.345-59.387c28.138-5.338 44.784-9.467 44.359-9.892v-93.771l-623.313-2.55z" fill="#004fcf" fill-rule="nonzero"/>
        <path d="M9630.78 4361.49l-492.621 109.833-492.625-109.833 492.625-109.833 492.621 109.833z" fill="#0058d8" fill-rule="nonzero"/>
        <path d="M9630.78 4361.49v-126.321h-985.246v126.321s985.246-7.654 985.246 0" fill="#0058d8" fill-rule="nonzero"/>
        <path d="M9630.78 4235.17l-492.621 109.833-492.625-109.833 492.625-109.834 492.621 109.834zM9074.36 4391.8l-382.787-86.2v15.696l382.787 86.2V4391.8z" fill="#006aff" fill-rule="nonzero"/>
        <path d="M9189.2 4391.8l382.787-86.2v15.696l-382.787 86.2V4391.8z" fill="#fff" fill-rule="nonzero"/>
        <path d="M8825.55 4138.85v96.321s10.863 2.504 29.675 6.192l282.934 63.087 266.345-59.387c28.138-5.338 44.784-9.467 44.359-9.892V4141.4l-623.313-2.55z" fill="#004fcf" fill-rule="nonzero"/>
        <path d="M9630.78 4133.74l-492.621 109.834-492.625-109.834 492.625-109.833 492.621 109.833z" fill="#0058d8" fill-rule="nonzero"/>
        <path d="M9630.78 4133.74v-126.321h-985.246v126.321s985.246-7.654 985.246 0" fill="#0058d8" fill-rule="nonzero"/>
        <path d="M9630.78 4007.42l-492.621 109.833-492.625-109.833 492.625-109.834 492.621 109.834z" fill="#006aff" fill-rule="nonzero"/>
        <path d="M8926.98 4007.42l211.179-47.088 211.179 47.088-211.179 47.087-211.179-47.087z" fill="#fff" fill-rule="nonzero"/>
        <path d="M9074.36 4164.05l-382.787-86.2v15.696l382.787 86.2v-15.696z" fill="#006aff" fill-rule="nonzero"/>
        <path d="M9189.2 4164.05l382.787-86.2v15.696l-382.787 86.2v-15.696z" fill="#fff" fill-rule="nonzero"/>
        <path d="M8928.26 5463.21l-679.754 151.558-679.754-151.558 679.754-151.558 679.754 151.558z" fill="#0058d8" fill-rule="nonzero"/>
        <path d="M8928.26 5463.21v-174.304H7568.75v174.304s1359.51-10.563 1359.51 0" fill="#0058d8" fill-rule="nonzero"/>
        <path d="M8928.26 5288.9l-679.754 151.559-679.754-151.559 679.754-151.558L8928.26 5288.9zM8160.48 5505.03l-528.196-118.946v21.658l528.196 118.946v-21.658z" fill="#006aff" fill-rule="nonzero"/>
        <path d="M8318.94 5505.03l528.195-118.946v21.658l-528.195 118.946v-21.658z" fill="#fff" fill-rule="nonzero"/>
        <path d="M7817.15 5155.99v132.908s14.988 3.454 40.95 8.546l390.408 87.05 367.521-81.946c38.825-7.362 61.796-13.062 61.213-13.65v-129.387l-860.092-3.521z" fill="#004fcf" fill-rule="nonzero"/>
        <path d="M8928.26 5141.01l-679.754 151.558-679.754-151.558 679.754-151.559 679.754 151.559z" fill="#0058d8" fill-rule="nonzero"/>
        <path d="M8928.26 5141.01v-174.304H7568.75v174.304s1359.51-10.563 1359.51 0" fill="#0058d8" fill-rule="nonzero"/>
        <path d="M8928.26 4966.7l-679.754 151.559-679.754-151.559 679.754-151.558L8928.26 4966.7zM8160.48 5182.83l-528.196-118.946v21.658l528.196 118.946v-21.658z" fill="#006aff" fill-rule="nonzero"/>
        <path d="M8318.94 5182.83l528.195-118.946v21.658l-528.195 118.946v-21.658z" fill="#fff" fill-rule="nonzero"/>
        <path d="M7817.15 4833.79v132.908s14.988 3.454 40.95 8.546l390.408 87.05 367.521-81.946c38.825-7.362 61.796-13.062 61.213-13.65v-129.387l-860.092-3.521z" fill="#004fcf" fill-rule="nonzero"/>
        <path d="M8928.26 4829.37l-679.754 151.559-679.754-151.559 679.754-151.558 679.754 151.558z" fill="#0058d8" fill-rule="nonzero"/>
        <path d="M8928.26 4829.37v-174.304H7568.75v174.304s1359.51-10.562 1359.51 0" fill="#0058d8" fill-rule="nonzero"/>
        <path d="M8928.26 4655.07l-679.754 151.558-679.754-151.558 679.754-151.559 679.754 151.559zM8160.48 4871.2l-528.196-118.945v21.658l528.196 118.946V4871.2z" fill="#006aff" fill-rule="nonzero"/>
        <path d="M8318.94 4871.2l528.195-118.945v21.658l-528.195 118.946V4871.2z" fill="#fff" fill-rule="nonzero"/>
        <path d="M7817.15 4522.16v132.909s14.988 3.454 40.95 8.546l390.408 87.05 367.521-81.946c38.825-7.363 61.796-13.063 61.213-13.65v-129.388l-860.092-3.521z" fill="#004fcf" fill-rule="nonzero"/>
        <path d="M8928.26 4515.11l-679.754 151.558-679.754-151.558 679.754-151.559 679.754 151.559z" fill="#0058d8" fill-rule="nonzero"/>
        <path d="M8928.26 4515.11v-174.305H7568.75v174.305s1359.51-10.563 1359.51 0" fill="#0058d8" fill-rule="nonzero"/>
        <path d="M8928.26 4340.81l-679.754 151.559-679.754-151.559 679.754-151.558 679.754 151.558z" fill="#006aff" fill-rule="nonzero"/>
        <path d="M7957.11 4340.81l291.4-64.97 291.4 64.97-291.4 64.971-291.4-64.971z" fill="#fff" fill-rule="nonzero"/>
        <path d="M8160.48 4556.94l-528.196-118.946v21.658l528.196 118.946v-21.658z" fill="#006aff" fill-rule="nonzero"/>
        <path d="M8318.94 4556.94l528.195-118.946v21.658l-528.195 118.946v-21.658zM5963.98 1285.83c-.063 0-.13 0-.192-.004a1449.438 1449.438 0 00-37.321-.662 6.25 6.25 0 01.029-12.5h.029c12.475.058 25.142.283 37.642.67a6.25 6.25 0 01-.187 12.496m-108.296.746a6.251 6.251 0 01-6.242-5.971 6.246 6.246 0 015.967-6.521c12.496-.562 25.162-.962 37.641-1.187h.117c3.4 0 6.183 2.721 6.246 6.133a6.257 6.257 0 01-6.133 6.367c-12.371.221-24.925.617-37.313 1.171-.096.008-.192.008-.283.008m179 3.188c-.167 0-.338-.009-.509-.021a1443.4 1443.4 0 00-37.241-2.504 6.25 6.25 0 01-5.9-6.58c.183-3.45 3.096-6.045 6.579-5.904a1473.03 1473.03 0 0137.562 2.529c3.442.28 6.009 3.288 5.73 6.73a6.245 6.245 0 01-6.221 5.75m-249.642 1.72a6.257 6.257 0 01-6.217-5.658 6.25 6.25 0 015.634-6.812 1405.299 1405.299 0 0137.533-3.05c3.421-.33 6.421 2.362 6.658 5.808a6.246 6.246 0 01-5.812 6.658 1422.617 1422.617 0 00-37.2 3.029c-.2.017-.396.025-.596.025m320.063 5.734c-.271 0-.546-.017-.825-.05a1389.492 1389.492 0 00-37.067-4.367 6.255 6.255 0 01-5.567-6.871c.359-3.429 3.442-5.887 6.863-5.566a1444.598 1444.598 0 0137.4 4.408 6.25 6.25 0 01-.804 12.446m-390.371 2.708a6.244 6.244 0 01-6.175-5.35 6.252 6.252 0 015.283-7.087 1418.485 1418.485 0 0137.333-4.921c3.396-.475 6.534 2.037 6.942 5.466a6.247 6.247 0 01-5.475 6.942 1418.933 1418.933 0 00-37 4.883 6.07 6.07 0 01-.908.067m460.321 8.267c-.371 0-.75-.034-1.13-.1a1415.422 1415.422 0 00-36.804-6.221 6.254 6.254 0 01-5.216-7.138 6.261 6.261 0 017.137-5.216 1420.585 1420.585 0 0137.129 6.279 6.249 6.249 0 01-1.116 12.396m-530.109 3.683a6.25 6.25 0 01-1.2-12.383 1411.795 1411.795 0 0137.038-6.792c3.396-.604 6.629 1.717 7.208 5.117a6.247 6.247 0 01-5.121 7.204 1427.795 1427.795 0 00-36.708 6.737c-.408.08-.817.117-1.217.117m599.421 10.796c-.471 0-.954-.054-1.437-.167a1403.172 1403.172 0 00-36.442-8.066 6.25 6.25 0 01-4.85-7.388c.7-3.379 4.021-5.562 7.392-4.85a1410.82 1410.82 0 0136.762 8.138 6.246 6.246 0 014.654 7.516 6.25 6.25 0 01-6.079 4.817m-668.521 4.671a6.25 6.25 0 01-1.512-12.313 1396.91 1396.91 0 0136.646-8.654c3.362-.754 6.708 1.375 7.458 4.742a6.244 6.244 0 01-4.746 7.454 1405.602 1405.602 0 00-36.321 8.583 6.416 6.416 0 01-1.525.188m737.017 13.296a6.31 6.31 0 01-1.742-.242 1406.843 1406.843 0 00-35.987-9.9 6.248 6.248 0 01-4.471-7.621 6.247 6.247 0 017.625-4.475 1403.751 1403.751 0 0136.308 9.988 6.243 6.243 0 014.267 7.737 6.248 6.248 0 01-6 4.513m-805.25 5.629a6.253 6.253 0 01-5.975-4.429 6.247 6.247 0 014.154-7.8 1430.144 1430.144 0 0136.163-10.5c3.333-.909 6.77 1.033 7.691 4.362a6.249 6.249 0 01-4.362 7.688 1410.845 1410.845 0 00-35.846 10.404 6.194 6.194 0 01-1.825.275m872.871 15.825a6.344 6.344 0 01-2.038-.342 1423.292 1423.292 0 00-35.566-11.75 6.249 6.249 0 01-4.08-7.837c1.038-3.292 4.555-5.096 7.842-4.084a1414.423 1414.423 0 0135.879 11.854 6.25 6.25 0 01-2.037 12.159m-940.059 6.533a6.252 6.252 0 01-2.125-12.129 1388.137 1388.137 0 0135.592-12.308c3.283-1.075 6.817.691 7.896 3.97a6.247 6.247 0 01-3.967 7.896 1356.624 1356.624 0 00-35.271 12.2 6.224 6.224 0 01-2.125.371m1006.59 18.342a6.208 6.208 0 01-2.329-.45 1413.242 1413.242 0 00-34.913-13.529c-3.233-1.2-4.879-4.8-3.675-8.038 1.2-3.233 4.796-4.892 8.038-3.675a1435.184 1435.184 0 0135.217 13.646 6.249 6.249 0 01-2.338 12.046m-1072.44 7.325a6.249 6.249 0 01-2.42-12.013 1368.13 1368.13 0 0134.804-14.041 6.248 6.248 0 114.516 11.654 1362.295 1362.295 0 00-34.483 13.916 6.27 6.27 0 01-2.417.484m1137.6 20.887a6.184 6.184 0 01-2.621-.579 1389.418 1389.418 0 00-34.158-15.271 6.25 6.25 0 01-3.267-8.212 6.248 6.248 0 018.213-3.271 1432.077 1432.077 0 0134.467 15.412 6.247 6.247 0 013.041 8.3 6.244 6.244 0 01-5.675 3.621m-1201.98 8.038a6.252 6.252 0 01-2.708-11.888 1422.61 1422.61 0 0134.066-15.783 6.247 6.247 0 018.259 3.154 6.248 6.248 0 01-3.155 8.254 1399.538 1399.538 0 00-33.766 15.646 6.167 6.167 0 01-2.696.617m1265.6 23.408a6.234 6.234 0 01-2.904-.721 1405.707 1405.707 0 00-33.329-16.966 6.255 6.255 0 01-2.846-8.371c1.529-3.092 5.279-4.367 8.367-2.846a1421.882 1421.882 0 0133.629 17.125 6.243 6.243 0 012.621 8.437 6.24 6.24 0 01-5.538 3.342m-1328.49 8.729a6.252 6.252 0 01-2.991-11.746 1421.114 1421.114 0 0133.25-17.483c3.083-1.55 6.837-.342 8.404 2.733a6.254 6.254 0 01-2.733 8.409 1402.15 1402.15 0 00-32.955 17.329c-.95.512-1.97.758-2.975.758m1390.42 25.871a6.257 6.257 0 01-3.179-.871 1402.199 1402.199 0 00-32.421-18.621 6.25 6.25 0 01-2.421-8.5c1.68-3.016 5.484-4.112 8.505-2.42a1444.002 1444.002 0 0132.704 18.783 6.245 6.245 0 012.196 8.558 6.245 6.245 0 01-5.384 3.071m-1451.65 9.388a6.248 6.248 0 01-5.342-2.992 6.255 6.255 0 012.084-8.592 1416.63 1416.63 0 0132.346-19.141c2.991-1.725 6.808-.684 8.529 2.308a6.246 6.246 0 01-2.309 8.533 1429.75 1429.75 0 00-32.058 18.971 6.217 6.217 0 01-3.25.913m1511.74 28.275a6.218 6.218 0 01-3.446-1.038 1376.447 1376.447 0 00-31.429-20.221 6.249 6.249 0 016.616-10.604 1425.281 1425.281 0 0131.717 20.4 6.247 6.247 0 011.758 8.663 6.251 6.251 0 01-5.216 2.8m-1571.15 10.033c-2 0-3.963-.958-5.171-2.729a6.253 6.253 0 011.646-8.688c10.308-7.016 20.858-14 31.362-20.741 2.9-1.863 6.771-1.025 8.633 1.879a6.244 6.244 0 01-1.879 8.633 1387.658 1387.658 0 00-31.079 20.563 6.224 6.224 0 01-3.512 1.083m1629.25 30.575a6.212 6.212 0 01-3.7-1.217c-10-7.371-20.217-14.691-30.371-21.766a6.254 6.254 0 01-1.554-8.7 6.241 6.241 0 018.7-1.555 1411.343 1411.343 0 0130.637 21.955 6.246 6.246 0 011.325 8.737 6.236 6.236 0 01-5.037 2.546m-1686.7 10.671a6.252 6.252 0 01-3.775-11.234 1429.75 1429.75 0 0130.295-22.291 6.244 6.244 0 018.717 1.446 6.247 6.247 0 01-1.442 8.72 1381.364 1381.364 0 00-30.029 22.096 6.22 6.22 0 01-3.766 1.263m1742.69 32.771a6.223 6.223 0 01-3.95-1.409 1431.222 1431.222 0 00-29.233-23.246 6.244 6.244 0 01-1.121-8.766c2.112-2.729 6.042-3.221 8.771-1.121a1428.598 1428.598 0 0129.491 23.454 6.255 6.255 0 01.888 8.796 6.253 6.253 0 01-4.846 2.292m-1798.03 11.3a6.25 6.25 0 01-4.021-11.038 1430.604 1430.604 0 0129.154-23.783 6.26 6.26 0 018.784 1.008 6.25 6.25 0 01-1.009 8.783 1381.71 1381.71 0 00-28.9 23.571 6.224 6.224 0 01-4.008 1.459m1851.75 34.875a6.233 6.233 0 01-4.188-1.609 1431.688 1431.688 0 00-28.029-24.671 6.245 6.245 0 01-.675-8.812 6.246 6.246 0 018.809-.675c9.487 8.133 19 16.5 28.275 24.879a6.253 6.253 0 01.45 8.829 6.251 6.251 0 01-4.642 2.059m-1904.84 11.929a6.226 6.226 0 01-4.587-2.004 6.251 6.251 0 01.337-8.834 1418.97 1418.97 0 0127.942-25.216 6.26 6.26 0 018.821.57 6.251 6.251 0 01-.571 8.821 1420.97 1420.97 0 00-27.696 24.992 6.202 6.202 0 01-4.246 1.671m1956.17 36.854a6.236 6.236 0 01-4.416-1.825 1413.506 1413.506 0 00-26.755-26.029 6.254 6.254 0 01-.237-8.838 6.26 6.26 0 018.837-.237 1450.676 1450.676 0 0126.988 26.258 6.25 6.25 0 01-4.417 10.671m-2006.89 12.55a6.217 6.217 0 01-4.367-1.779 6.247 6.247 0 01-.104-8.838 1433.8 1433.8 0 0126.662-26.587 6.25 6.25 0 018.709 8.966c-8.859 8.6-17.75 17.471-26.429 26.355a6.228 6.228 0 01-4.471 1.883m2055.71 38.712c-1.704 0-3.4-.691-4.633-2.054a1443.35 1443.35 0 00-25.417-27.316 6.25 6.25 0 01.204-8.838 6.253 6.253 0 018.838.204 1469.514 1469.514 0 0125.637 27.559 6.255 6.255 0 01-.433 8.829 6.24 6.24 0 01-4.196 1.616m-2103.92 13.171a6.22 6.22 0 01-4.134-1.566 6.247 6.247 0 01-.546-8.821 1417.004 1417.004 0 0125.309-27.888 6.234 6.234 0 018.833-.312 6.248 6.248 0 01.308 8.833 1422.303 1422.303 0 00-25.083 27.646 6.244 6.244 0 01-4.687 2.108m2150.11 40.446a6.248 6.248 0 01-4.842-2.287 1423.171 1423.171 0 00-24.008-28.546 6.245 6.245 0 01.642-8.813 6.24 6.24 0 018.812.642 1448.709 1448.709 0 0124.229 28.796 6.25 6.25 0 01-4.833 10.208m-2195.67 13.8a6.254 6.254 0 01-4.883-10.15 1434.11 1434.11 0 0123.896-29.133 6.25 6.25 0 019.558 8.058 1421.854 1421.854 0 00-23.683 28.871 6.232 6.232 0 01-4.888 2.354m2239.11 42.033a6.232 6.232 0 01-5.03-2.537c-7.391-10-14.979-19.992-22.55-29.696a6.248 6.248 0 011.084-8.771 6.251 6.251 0 018.771 1.084 1435.045 1435.045 0 0122.75 29.954 6.252 6.252 0 01-5.025 9.966m-2281.93 14.442a6.219 6.219 0 01-3.645-1.179 6.248 6.248 0 01-1.421-8.721 1461.25 1461.25 0 0122.408-30.3 6.253 6.253 0 019.954 7.571 1398.717 1398.717 0 00-22.216 30.029 6.248 6.248 0 01-5.08 2.6m2322.52 43.458a6.246 6.246 0 01-5.212-2.791 1434.272 1434.272 0 00-21.03-30.767 6.247 6.247 0 011.517-8.708c2.829-1.979 6.725-1.309 8.708 1.521a1443.34 1443.34 0 0121.217 31.037 6.245 6.245 0 01-1.746 8.663 6.21 6.21 0 01-3.454 1.045m-2362.46 15.105a6.25 6.25 0 01-5.242-9.642 1395.523 1395.523 0 0120.875-31.388 6.25 6.25 0 018.687-1.633 6.252 6.252 0 011.625 8.688 1432.444 1432.444 0 00-20.691 31.12 6.246 6.246 0 01-5.254 2.855m2400.08 44.741a6.241 6.241 0 01-5.375-3.058 1423.205 1423.205 0 00-19.458-31.767 6.25 6.25 0 011.95-8.621c2.92-1.854 6.783-.97 8.62 1.95a1414.187 1414.187 0 0119.63 32.05 6.252 6.252 0 01-5.367 9.446m-2437.05 15.779a6.25 6.25 0 01-5.409-9.375 1428.593 1428.593 0 0119.28-32.416 6.235 6.235 0 018.595-2.059 6.253 6.253 0 012.063 8.596 1385.433 1385.433 0 00-19.108 32.129 6.255 6.255 0 01-5.421 3.125m2471.62 45.846a6.237 6.237 0 01-5.529-3.333 1407.625 1407.625 0 00-17.833-32.692 6.249 6.249 0 012.379-8.508c3.013-1.713 6.821-.633 8.513 2.375a1423.686 1423.686 0 0117.991 32.987 6.25 6.25 0 01-5.521 9.171m-2505.51 16.475a6.248 6.248 0 01-5.558-9.096 1384.43 1384.43 0 0117.633-33.362c1.654-3.025 5.446-4.15 8.479-2.488 3.029 1.65 4.142 5.446 2.488 8.48a1395.79 1395.79 0 00-17.475 33.058 6.239 6.239 0 01-5.567 3.408m2536.91 46.767a6.237 6.237 0 01-5.667-3.613 1431.682 1431.682 0 00-16.158-33.525 6.243 6.243 0 012.804-8.379c3.091-1.521 6.841-.283 8.379 2.804a1391.01 1391.01 0 0116.304 33.83 6.245 6.245 0 01-5.662 8.883m-2567.63 17.225a6.205 6.205 0 01-2.558-.55 6.243 6.243 0 01-3.137-8.258 1383.384 1383.384 0 0115.933-34.221c1.496-3.113 5.237-4.404 8.342-2.917a6.253 6.253 0 012.916 8.346 1385.097 1385.097 0 00-15.791 33.908 6.245 6.245 0 01-5.705 3.692m2595.8 47.492a6.25 6.25 0 01-5.792-3.9 1413.765 1413.765 0 00-14.446-34.284 6.243 6.243 0 013.221-8.225 6.245 6.245 0 018.233 3.221 1443.141 1443.141 0 0114.575 34.583 6.252 6.252 0 01-3.441 8.142 6.237 6.237 0 01-2.35.463m-2623.26 17.991a6.129 6.129 0 01-2.271-.429 6.245 6.245 0 01-3.55-8.092c4.567-11.72 9.342-23.5 14.184-34.995a6.259 6.259 0 018.187-3.338 6.253 6.253 0 013.334 8.188c-4.8 11.395-9.53 23.066-14.059 34.687a6.249 6.249 0 01-5.825 3.979m2648.22 48.271a6.25 6.25 0 01-5.9-4.196 1402.176 1402.176 0 00-12.742-35.079 6.25 6.25 0 013.634-8.058c3.225-1.209 6.833.404 8.058 3.633a1407.582 1407.582 0 0112.854 35.396 6.254 6.254 0 01-3.846 7.958 6.228 6.228 0 01-2.058.346m-2672.33 18.55c-.654 0-1.321-.1-1.975-.317a6.257 6.257 0 01-3.959-7.908c3.959-11.9 8.13-23.908 12.4-35.687 1.18-3.242 4.763-4.925 8.009-3.742a6.252 6.252 0 013.746 8.004 1383.18 1383.18 0 00-12.292 35.375 6.25 6.25 0 01-5.929 4.275m2693.91 48.892a6.249 6.249 0 01-5.996-4.496 1404.475 1404.475 0 00-10.95-35.679 6.25 6.25 0 014.034-7.863c3.283-1.041 6.808.746 7.866 4.038a1402.464 1402.464 0 0111.05 36c.967 3.308-.937 6.779-4.25 7.75a6.232 6.232 0 01-1.754.25m-2714.57 18.971a6.104 6.104 0 01-1.675-.23 6.244 6.244 0 01-4.354-7.687 1412.651 1412.651 0 0110.538-36.154c1.012-3.3 4.504-5.15 7.808-4.146a6.251 6.251 0 014.146 7.804 1409.108 1409.108 0 00-10.446 35.833 6.25 6.25 0 01-6.017 4.58m2732.71 49.483a6.247 6.247 0 01-6.071-4.8 1414.367 1414.367 0 00-9.134-36.188 6.25 6.25 0 014.425-7.65c3.325-.904 6.763 1.092 7.65 4.43a1409.372 1409.372 0 019.217 36.508 6.25 6.25 0 01-6.087 7.7m-2749.88 19.212a6.245 6.245 0 01-6.104-7.612 1392.968 1392.968 0 018.7-36.638c.842-3.341 4.229-5.362 7.583-4.537a6.258 6.258 0 014.538 7.592 1392.675 1392.675 0 00-8.625 36.312c-.646 2.908-3.229 4.883-6.092 4.883m2764.54 50.059c-2.95 0-5.579-2.1-6.138-5.109a1418.534 1418.534 0 00-7.291-36.604 6.246 6.246 0 014.808-7.412c3.354-.734 6.696 1.433 7.417 4.808a1419.249 1419.249 0 017.358 36.929 6.251 6.251 0 01-6.154 7.388m-2778.22 19.421a6.254 6.254 0 01-6.171-7.305c2.1-12.291 4.4-24.75 6.838-37.025.675-3.387 3.966-5.6 7.35-4.916a6.255 6.255 0 014.912 7.35 1400.475 1400.475 0 00-6.779 36.7 6.249 6.249 0 01-6.15 5.196m2789.38 50.5a6.246 6.246 0 01-6.183-5.417 1404.617 1404.617 0 00-5.442-36.925 6.242 6.242 0 015.179-7.158c3.371-.584 6.613 1.762 7.163 5.175a1429.033 1429.033 0 015.487 37.245 6.252 6.252 0 01-6.204 7.08m-2799.55 19.575a6.254 6.254 0 01-6.213-6.992 1413.55 1413.55 0 014.971-37.325c.5-3.421 3.688-5.792 7.092-5.279a6.252 6.252 0 015.275 7.091 1386.513 1386.513 0 00-4.925 36.992 6.253 6.253 0 01-6.2 5.513m2807.18 50.825a6.253 6.253 0 01-6.221-5.734 1412.446 1412.446 0 00-3.587-37.146 6.25 6.25 0 015.533-6.895c3.417-.342 6.517 2.1 6.896 5.529a1420.236 1420.236 0 013.613 37.479 6.252 6.252 0 01-6.234 6.767m-2813.83 19.675a6.254 6.254 0 01-6.242-6.684c.867-12.5 1.909-25.125 3.096-37.529.333-3.433 3.433-5.937 6.821-5.621a6.25 6.25 0 015.625 6.817 1398.096 1398.096 0 00-3.071 37.196 6.252 6.252 0 01-6.229 5.821m2817.95 51.025a6.251 6.251 0 01-6.242-6.046c-.412-12.409-1-24.954-1.733-37.284a6.249 6.249 0 015.867-6.612c3.404-.292 6.404 2.417 6.612 5.871a1438.43 1438.43 0 011.746 37.612 6.248 6.248 0 01-6.038 6.454c-.07.005-.141.005-.212.005m-2821.09 19.712h-.125a6.25 6.25 0 01-6.125-6.371c.242-12.479.655-25.137 1.225-37.625.159-3.454 2.992-6.183 6.534-5.958a6.244 6.244 0 015.954 6.525 1431.028 1431.028 0 00-1.217 37.3 6.248 6.248 0 01-6.246 6.129m2821.4 65.613c-.054 0-.108 0-.166-.005a6.248 6.248 0 01-6.084-6.408 1425.003 1425.003 0 00.413-51.821 6.252 6.252 0 016.187-6.312c3.371-.1 6.28 2.733 6.313 6.187a1449.928 1449.928 0 01-.417 52.271 6.248 6.248 0 01-6.246 6.088m-2821.05 5.187a6.249 6.249 0 01-6.246-6.062 1420.048 1420.048 0 01-.625-37.646 6.25 6.25 0 016.229-6.271h.021a6.251 6.251 0 016.25 6.229c.041 12.346.25 24.9.621 37.313a6.25 6.25 0 01-6.063 6.433c-.062.004-.129.004-.187.004m2817.45 65.525a6.249 6.249 0 01-6.238-6.721 1430.724 1430.724 0 002.329-37.25c.171-3.446 3.096-6.054 6.55-5.933a6.247 6.247 0 015.934 6.554 1447.976 1447.976 0 01-2.35 37.571 6.254 6.254 0 01-6.225 5.779m-2813.6 5.183a6.251 6.251 0 01-6.225-5.754 1450.67 1450.67 0 01-2.492-37.566 6.255 6.255 0 015.912-6.58c3.43-.129 6.388 2.463 6.571 5.909a1428.401 1428.401 0 002.471 37.246 6.248 6.248 0 01-6.237 6.745m2806.49 65.271a6.252 6.252 0 01-6.212-7.033 1400.18 1400.18 0 004.187-37.088c.346-3.433 3.438-5.983 6.838-5.6a6.252 6.252 0 015.604 6.838 1447.609 1447.609 0 01-4.225 37.421 6.252 6.252 0 01-6.192 5.462m-2799.12 5.154a6.246 6.246 0 01-6.192-5.441 1435.584 1435.584 0 01-4.363-37.4 6.254 6.254 0 015.58-6.859c3.408-.312 6.504 2.138 6.858 5.575a1409.904 1409.904 0 004.321 37.071 6.25 6.25 0 01-6.204 7.054m2788.47 64.85c-.363 0-.73-.033-1.1-.1a6.247 6.247 0 01-5.063-7.245 1410.198 1410.198 0 006.046-36.834c.512-3.408 3.687-5.775 7.108-5.246a6.248 6.248 0 015.25 7.113 1444.211 1444.211 0 01-6.091 37.158 6.257 6.257 0 01-6.15 5.154m-2777.58 5.117a6.25 6.25 0 01-6.141-5.133 1435.581 1435.581 0 01-6.234-37.134 6.25 6.25 0 015.225-7.129c3.404-.516 6.604 1.809 7.129 5.225a1429.887 1429.887 0 006.18 36.809 6.25 6.25 0 01-6.159 7.362m2763.43 64.267a6.254 6.254 0 01-6.096-7.654 1391.053 1391.053 0 007.891-36.48c.688-3.375 3.996-5.57 7.367-4.879a6.25 6.25 0 014.888 7.363 1440.634 1440.634 0 01-7.963 36.804 6.26 6.26 0 01-6.087 4.846m-2749.03 5.062a6.257 6.257 0 01-6.08-4.825 1436.153 1436.153 0 01-8.1-36.775 6.255 6.255 0 014.863-7.383 6.239 6.239 0 017.383 4.858 1409.84 1409.84 0 008.025 36.45 6.252 6.252 0 01-4.658 7.513 6.507 6.507 0 01-1.433.162m2731.39 63.525a6.25 6.25 0 01-6.017-7.958 1420.974 1420.974 0 009.73-36.033c.854-3.35 4.258-5.375 7.6-4.509a6.248 6.248 0 014.508 7.6 1420.83 1420.83 0 01-9.813 36.359 6.253 6.253 0 01-6.008 4.541m-2713.5 4.988a6.256 6.256 0 01-6.004-4.517 1426.995 1426.995 0 01-9.946-36.317 6.253 6.253 0 014.484-7.62c3.341-.859 6.75 1.137 7.616 4.479a1393.05 1393.05 0 009.859 35.991 6.254 6.254 0 01-4.275 7.742 6.229 6.229 0 01-1.734.242m2692.37 62.737a6.247 6.247 0 01-5.917-8.258 1405.293 1405.293 0 0011.58-35.621c1.02-3.296 4.529-5.133 7.82-4.117a6.247 6.247 0 014.117 7.817 1397.85 1397.85 0 01-11.683 35.942 6.25 6.25 0 01-5.917 4.237m-2671.04 4.788a6.254 6.254 0 01-5.913-4.213 1448.81 1448.81 0 01-11.771-35.771 6.25 6.25 0 014.092-7.837c3.292-1.025 6.8.792 7.837 4.083a1400.19 1400.19 0 0011.663 35.454 6.244 6.244 0 01-3.875 7.942 6.208 6.208 0 01-2.033.342m2646.47 61.875a6.253 6.253 0 01-5.809-8.563 1385.37 1385.37 0 0013.363-34.966c1.187-3.246 4.779-4.9 8.021-3.717a6.25 6.25 0 013.716 8.021 1395.966 1395.966 0 01-13.483 35.287 6.249 6.249 0 01-5.808 3.938m-2621.76 4.483a6.248 6.248 0 01-5.804-3.921 1425.695 1425.695 0 01-13.562-35.129 6.252 6.252 0 013.687-8.033c3.234-1.2 6.829.454 8.034 3.687a1402.881 1402.881 0 0013.441 34.821 6.244 6.244 0 01-5.796 8.575m2593.86 60.813a6.253 6.253 0 01-5.679-8.85 1393.591 1393.591 0 0015.108-34.234c1.35-3.179 5.025-4.662 8.196-3.304a6.246 6.246 0 013.308 8.196 1411.901 1411.901 0 01-15.242 34.542 6.26 6.26 0 01-5.691 3.65m-2565.92 4a6.254 6.254 0 01-5.683-3.634 1416.832 1416.832 0 01-15.267-34.291 6.251 6.251 0 013.279-8.205 6.242 6.242 0 018.208 3.275 1400.985 1400.985 0 0015.134 33.988 6.25 6.25 0 01-5.671 8.867m2534.78 59.775a6.25 6.25 0 01-5.537-9.138 1408.08 1408.08 0 0016.808-33.408c1.508-3.104 5.25-4.417 8.354-2.888a6.253 6.253 0 012.888 8.354 1405.453 1405.453 0 01-16.963 33.713 6.244 6.244 0 01-5.55 3.367m-2503.6 3.583a6.254 6.254 0 01-5.546-3.35 1431.662 1431.662 0 01-16.979-33.5 6.253 6.253 0 012.862-8.363 6.258 6.258 0 018.363 2.863 1413.969 1413.969 0 0016.829 33.2 6.253 6.253 0 01-5.529 9.15m2469.3 58.512a6.21 6.21 0 01-3.154-.858 6.246 6.246 0 01-2.234-8.55 1395.964 1395.964 0 0018.467-32.512 6.257 6.257 0 018.492-2.459 6.256 6.256 0 012.458 8.492 1441.292 1441.292 0 01-18.629 32.796 6.259 6.259 0 01-5.4 3.091m-2434.97 3.23a6.247 6.247 0 01-5.391-3.075 1454.287 1454.287 0 01-18.646-32.621 6.253 6.253 0 012.437-8.496 6.249 6.249 0 018.496 2.433 1422.033 1422.033 0 0018.483 32.338 6.245 6.245 0 01-2.208 8.554c-1 .592-2.092.867-3.171.867m2397.6 57.037a6.211 6.211 0 01-3.421-1.021 6.253 6.253 0 01-1.8-8.654 1416.723 1416.723 0 0020.067-31.529 6.26 6.26 0 018.604-2.033 6.25 6.25 0 012.029 8.6 1392.016 1392.016 0 01-20.25 31.812 6.236 6.236 0 01-5.229 2.825m-2360.2 2.942a6.238 6.238 0 01-5.225-2.813 1431.282 1431.282 0 01-20.266-31.662 6.242 6.242 0 012.008-8.604 6.25 6.25 0 018.608 2.004 1421.753 1421.753 0 0020.088 31.387c1.9 2.879 1.1 6.759-1.779 8.659a6.247 6.247 0 01-3.434 1.029m2319.87 55.358a6.252 6.252 0 01-5.042-9.937 1406.85 1406.85 0 0021.617-30.467 6.258 6.258 0 018.692-1.6 6.256 6.256 0 011.6 8.696 1437.576 1437.576 0 01-21.813 30.746 6.244 6.244 0 01-5.054 2.562m-2279.49 2.696a6.234 6.234 0 01-5.05-2.554 1437.946 1437.946 0 01-21.829-30.621 6.247 6.247 0 011.575-8.696 6.247 6.247 0 018.696 1.575 1423.211 1423.211 0 0021.642 30.354 6.249 6.249 0 01-5.034 9.942m2236.31 53.487a6.247 6.247 0 01-4.854-10.179c7.762-9.6 15.537-19.471 23.104-29.341a6.248 6.248 0 018.766-1.159 6.247 6.247 0 011.155 8.759 1437.962 1437.962 0 01-23.309 29.604 6.242 6.242 0 01-4.862 2.316m-2193.08 2.5a6.24 6.24 0 01-4.855-2.308 1410.378 1410.378 0 01-23.341-29.5 6.242 6.242 0 011.137-8.762 6.26 6.26 0 018.767 1.137 1423.639 1423.639 0 0023.137 29.242 6.25 6.25 0 01-4.845 10.191m2147.16 51.446a6.208 6.208 0 01-4.167-1.596 6.25 6.25 0 01-.491-8.825 1402.779 1402.779 0 0024.537-28.141 6.244 6.244 0 018.809-.721 6.247 6.247 0 01.72 8.808 1439.3 1439.3 0 01-24.75 28.396 6.253 6.253 0 01-4.658 2.079m-2101.18 2.338c-1.708 0-3.412-.7-4.646-2.071a1440.394 1440.394 0 01-24.796-28.308 6.252 6.252 0 01.696-8.813c2.629-2.229 6.571-1.925 8.813.7a1436.933 1436.933 0 0024.579 28.063 6.248 6.248 0 01-.467 8.825 6.225 6.225 0 01-4.179 1.604m2052.64 49.229a6.244 6.244 0 01-4.4-1.808 6.256 6.256 0 01-.042-8.842 1403.03 1403.03 0 0025.9-26.871 6.244 6.244 0 018.833-.283 6.248 6.248 0 01.279 8.833 1410.164 1410.164 0 01-26.129 27.117 6.238 6.238 0 01-4.441 1.854m-2004.01 2.212a6.246 6.246 0 01-4.433-1.841c-8.742-8.8-17.55-17.9-26.183-27.054a6.253 6.253 0 01.258-8.834 6.256 6.256 0 018.837.259 1449.495 1449.495 0 0025.955 26.812 6.257 6.257 0 01-.025 8.842 6.25 6.25 0 01-4.409 1.816m1952.98 46.859a6.242 6.242 0 01-4.612-2.029c-2.329-2.55-2.154-6.505.392-8.83a1433.968 1433.968 0 0027.2-25.55 6.251 6.251 0 018.837.163 6.248 6.248 0 01-.162 8.837 1430.046 1430.046 0 01-27.438 25.767 6.222 6.222 0 01-4.217 1.642m-1901.83 2.108a6.226 6.226 0 01-4.208-1.629 1417.41 1417.41 0 01-27.508-25.721 6.25 6.25 0 018.658-9.017 1399.623 1399.623 0 0027.267 25.492 6.252 6.252 0 01-4.209 10.875m1848.43 44.329c-1.8 0-3.584-.771-4.821-2.262a6.254 6.254 0 01.837-8.804 1408.876 1408.876 0 0028.429-24.146c2.596-2.259 6.55-1.996 8.817.604a6.256 6.256 0 01-.6 8.821 1438.802 1438.802 0 01-28.683 24.358 6.223 6.223 0 01-3.979 1.429m-1794.88 2.042a6.241 6.241 0 01-3.966-1.425 1429.031 1429.031 0 01-28.771-24.325 6.249 6.249 0 01-.617-8.817c2.263-2.612 6.213-2.879 8.817-.625a1391.088 1391.088 0 0028.512 24.117 6.244 6.244 0 01.854 8.796 6.238 6.238 0 01-4.829 2.279m1739.26 41.671a6.238 6.238 0 01-5.017-2.517 6.245 6.245 0 011.275-8.742 1426.243 1426.243 0 0029.587-22.691 6.258 6.258 0 018.775 1.037 6.25 6.25 0 01-1.037 8.779 1426.256 1426.256 0 01-29.85 22.892 6.224 6.224 0 01-3.733 1.242m-1683.44 1.983c-1.296 0-2.6-.396-3.721-1.233a1443.882 1443.882 0 01-29.958-22.859 6.25 6.25 0 01-1.059-8.775c2.13-2.712 6.055-3.183 8.775-1.062a1414.234 1414.234 0 0029.692 22.662 6.25 6.25 0 01-3.729 11.267m1625.73 38.875a6.234 6.234 0 01-5.196-2.767 6.256 6.256 0 011.713-8.675 1398.114 1398.114 0 0030.666-21.17 6.247 6.247 0 018.717 1.479 6.248 6.248 0 01-1.475 8.712 1410.773 1410.773 0 01-30.95 21.363 6.212 6.212 0 01-3.475 1.058m-1567.78 1.942a6.27 6.27 0 01-3.467-1.05 1446.151 1446.151 0 01-31.071-21.342 6.255 6.255 0 01-1.5-8.712 6.247 6.247 0 018.713-1.5 1404.384 1404.384 0 0030.8 21.154 6.254 6.254 0 011.729 8.671 6.245 6.245 0 01-5.204 2.779m1508.12 35.971a6.252 6.252 0 01-3.225-11.609 1415.475 1415.475 0 0031.679-19.604c2.904-1.862 6.775-.996 8.629 1.908a6.253 6.253 0 01-1.908 8.63 1415.59 1415.59 0 01-31.967 19.783 6.228 6.228 0 01-3.208.892m-1448.17 1.904a6.202 6.202 0 01-3.196-.884 1433.39 1433.39 0 01-32.117-19.762 6.243 6.243 0 01-1.933-8.621 6.242 6.242 0 018.621-1.933 1422.871 1422.871 0 0031.837 19.583 6.255 6.255 0 012.163 8.571 6.259 6.259 0 01-5.375 3.046m1386.71 32.958a6.242 6.242 0 01-5.517-3.304 6.248 6.248 0 012.567-8.458 1397.46 1397.46 0 0032.604-17.984 6.25 6.25 0 116.188 10.863 1418.246 1418.246 0 01-32.9 18.146 6.2 6.2 0 01-2.942.737m-1324.91 1.871a6.226 6.226 0 01-2.929-.725 1457.638 1457.638 0 01-33.08-18.133 6.246 6.246 0 01-2.366-8.517c1.7-3 5.512-4.063 8.516-2.363a1426.45 1426.45 0 0032.792 17.967 6.248 6.248 0 01-2.933 11.771m1261.81 29.842a6.25 6.25 0 01-5.658-3.588 6.25 6.25 0 012.983-8.317 1414.187 1414.187 0 0033.459-16.32c3.079-1.55 6.841-.317 8.391 2.762a6.252 6.252 0 01-2.762 8.396 1415.473 1415.473 0 01-33.75 16.467c-.863.408-1.771.6-2.663.6m-1198.31 1.841a6.186 6.186 0 01-2.646-.591 1448.662 1448.662 0 01-33.967-16.442 6.25 6.25 0 01-2.791-8.388c1.541-3.087 5.3-4.333 8.387-2.795a1424.483 1424.483 0 0033.671 16.308c3.125 1.458 4.471 5.183 3.008 8.308a6.243 6.243 0 01-5.662 3.6m1133.73 26.642a6.244 6.244 0 01-5.783-3.871 6.25 6.25 0 013.4-8.158 1424.974 1424.974 0 0034.212-14.604c3.163-1.409 6.846.025 8.246 3.183a6.246 6.246 0 01-3.183 8.242 1407.124 1407.124 0 01-34.517 14.737 6.215 6.215 0 01-2.375.471m-1068.68 1.804a6.19 6.19 0 01-2.354-.462 1372.456 1372.456 0 01-34.775-14.717 6.247 6.247 0 01-3.213-8.233c1.388-3.159 5.071-4.613 8.238-3.209a1362.936 1362.936 0 0034.466 14.579 6.255 6.255 0 013.429 8.146 6.248 6.248 0 01-5.791 3.896m1002.53 23.479a6.252 6.252 0 01-5.892-4.166 6.246 6.246 0 013.809-7.975 1411.22 1411.22 0 0035.021-12.909 6.248 6.248 0 018.075 3.596 6.248 6.248 0 01-3.596 8.075 1414.83 1414.83 0 01-35.334 13.021 6.282 6.282 0 01-2.083.358m-936.087 1.65c-.684 0-1.38-.108-2.063-.35a1435.122 1435.122 0 01-35.492-12.937 6.25 6.25 0 014.434-11.688 1400.18 1400.18 0 0035.183 12.825 6.254 6.254 0 013.838 7.963 6.246 6.246 0 01-5.9 4.187m868.741 20.259a6.254 6.254 0 01-5.987-4.471 6.248 6.248 0 014.208-7.771 1386.706 1386.706 0 0035.629-11.121c3.271-1.067 6.813.717 7.884 4a6.254 6.254 0 01-3.996 7.883 1416.775 1416.775 0 01-35.95 11.217 6.2 6.2 0 01-1.788.263m-801.208 1.441a6.3 6.3 0 01-1.763-.25 1452.377 1452.377 0 01-35.991-11.091 6.25 6.25 0 01-4.025-7.871 6.245 6.245 0 017.866-4.029c11.8 3.808 23.805 7.508 35.671 10.995a6.246 6.246 0 014.234 7.759c-.796 2.721-3.292 4.487-5.992 4.487m732.85 17.021a6.25 6.25 0 01-6.067-4.771 6.255 6.255 0 014.596-7.554 1368.571 1368.571 0 0036.142-9.296c3.333-.921 6.766 1.059 7.671 4.392.904 3.329-1.063 6.767-4.392 7.667a1386.002 1386.002 0 01-36.471 9.387 6.23 6.23 0 01-1.479.175m-664.421 1.196c-.479 0-.971-.05-1.458-.171a1428.86 1428.86 0 01-36.504-9.25 6.253 6.253 0 01-4.421-7.654c.891-3.338 4.329-5.292 7.654-4.425 11.996 3.212 24.171 6.3 36.179 9.171a6.251 6.251 0 01-1.45 12.329m595.213 13.8a6.249 6.249 0 01-6.134-5.083 6.253 6.253 0 014.971-7.309c12.104-2.3 24.408-4.812 36.571-7.466 3.35-.746 6.7 1.4 7.437 4.779a6.253 6.253 0 01-4.775 7.437 1430.129 1430.129 0 01-36.895 7.534 6.75 6.75 0 01-1.175.108m-525.95.942c-.38 0-.767-.03-1.155-.105a1438.866 1438.866 0 01-36.92-7.4 6.257 6.257 0 01-4.805-7.425 6.255 6.255 0 017.425-4.8c12.125 2.6 24.438 5.067 36.596 7.338a6.25 6.25 0 01-1.141 12.392m456.079 10.55a6.251 6.251 0 01-.85-12.442 1425.381 1425.381 0 0036.896-5.617c3.416-.55 6.625 1.738 7.187 5.138a6.247 6.247 0 01-5.142 7.191 1394.607 1394.607 0 01-37.225 5.667 6.049 6.049 0 01-.866.063m-386.163.691c-.279 0-.562-.016-.846-.058a1442.068 1442.068 0 01-37.245-5.533 6.25 6.25 0 01-5.171-7.171c.554-3.409 3.787-5.763 7.171-5.167a1407.548 1407.548 0 0036.916 5.483 6.252 6.252 0 01-.825 12.446m315.804 7.267a6.252 6.252 0 01-6.22-5.704 6.252 6.252 0 015.683-6.771 1407.821 1407.821 0 0037.129-3.763c3.421-.404 6.529 2.071 6.921 5.5a6.248 6.248 0 01-5.496 6.921 1412.522 1412.522 0 01-37.467 3.792 5.937 5.937 0 01-.55.025m-245.42.442c-.175 0-.355-.009-.53-.021a1469.38 1469.38 0 01-37.475-3.654 6.255 6.255 0 01-5.525-6.905c.38-3.429 3.467-5.925 6.9-5.525a1421.644 1421.644 0 0037.15 3.625c3.438.296 5.992 3.317 5.7 6.755a6.244 6.244 0 01-6.22 5.725m174.75 4.004a6.25 6.25 0 01-.23-12.496c12.359-.463 24.9-1.104 37.275-1.904 3.542-.113 6.421 2.391 6.642 5.837a6.25 6.25 0 01-5.833 6.638c-12.488.808-25.146 1.45-37.613 1.921-.083.004-.162.004-.241.004m-104.067.191c-.075 0-.15 0-.221-.004a1423.073 1423.073 0 01-37.608-1.787 6.246 6.246 0 01-5.863-6.613c.213-3.446 3.171-5.991 6.617-5.862 12.375.75 24.921 1.346 37.283 1.771a6.253 6.253 0 016.034 6.462 6.251 6.251 0 01-6.242 6.033m49.492.85c-5.425 0-10.842-.029-16.25-.087-3.45-.042-6.221-2.871-6.18-6.321a6.248 6.248 0 016.246-6.179h.075c12.429.137 24.917.112 37.334-.071h.095a6.248 6.248 0 016.246 6.158 6.252 6.252 0 01-6.154 6.342c-7.125.108-14.262.158-21.412.158" fill="#fff" fill-rule="nonzero"/>
        <path d="M6462.28 2118.04H5393.65c-244.221 0-442.204-197.979-442.204-442.204v-42.879c0-244.221 197.983-442.2 442.204-442.2h1068.63c244.221 0 442.205 197.979 442.205 442.2v42.879c0 244.225-197.984 442.204-442.205 442.204" fill="#fff" fill-rule="nonzero"/>
        <path d="M6588.07 1204.69c0 263.113-213.296 476.413-476.412 476.413-263.113 0-476.409-213.3-476.409-476.413 0-263.116 213.296-476.412 476.409-476.412 263.116 0 476.412 213.296 476.412 476.412" fill="#fff" fill-rule="nonzero"/>
        <path d="M5876.64 1207.62c0 198.217-160.687 358.904-358.904 358.904-198.216 0-358.904-160.687-358.904-358.904 0-198.217 160.688-358.904 358.904-358.904 198.217 0 358.904 160.687 358.904 358.904" fill="#fff" fill-rule="nonzero"/>
        <path d="M5430.85 1388.74c-.754-.817-1.141-1.867-1.141-3.13v-106.804l-31.809 24.429c-.895.755-1.833 1.142-2.85 1.142-1.125 0-2.204-.633-3.208-1.896l-4.546-5.871c-.629-.879-.954-1.775-.954-2.654 0-1.387.629-2.525 1.896-3.404l41.1-31.825c1.387-.879 3.021-1.325 4.917-1.325h8.908c1.25 0 2.296.417 3.117 1.233.829.83 1.229 1.863 1.229 3.13v123.845c0 1.263-.4 2.313-1.229 3.13-.821.833-1.867 1.233-3.117 1.233h-9.292c-1.25 0-2.266-.4-3.021-1.233M5543.9 1366.49c4.933-6.442 7.521-15.521 7.767-27.262.125-3.671.2-8.909.2-15.721 0-6.95-.075-12.129-.2-15.534-.246-11.608-2.867-20.67-7.859-27.17-4.979-6.505-12.283-9.759-21.87-9.759-9.6 0-16.859 3.254-21.775 9.759-4.934 6.5-7.521 15.562-7.767 27.17l-.188 15.534.188 15.721c.246 11.741 2.833 20.82 7.766 27.262 4.917 6.442 12.176 9.663 21.776 9.663 9.725 0 17.045-3.221 21.962-9.663m-57.654 11.079c-7.521-9.521-11.529-21.991-12.038-37.404l-.183-16.287.183-16.846c.384-15.275 4.392-27.679 12.038-37.221 7.629-9.525 19.525-14.283 35.692-14.283 16.291 0 28.25 4.758 35.895 14.283 7.63 9.542 11.634 21.946 12.021 37.221.121 3.529.184 9.154.184 16.846-.001 7.458-.063 12.883-.184 16.287-.508 15.413-4.516 27.883-12.021 37.404-7.52 9.542-19.483 14.304-35.895 14.304-16.288 0-28.188-4.762-35.692-14.304M5663.77 1366.49c4.933-6.442 7.521-15.521 7.767-27.262.125-3.671.2-8.909.2-15.721 0-6.95-.075-12.129-.2-15.534-.246-11.608-2.867-20.67-7.859-27.17-4.979-6.505-12.283-9.759-21.87-9.759-9.6 0-16.859 3.254-21.775 9.759-4.934 6.5-7.521 15.562-7.767 27.17l-.188 15.534.188 15.721c.246 11.741 2.833 20.82 7.767 27.262 4.916 6.442 12.175 9.663 21.775 9.663 9.725 0 17.045-3.221 21.962-9.663m-57.654 11.079c-7.521-9.521-11.529-21.991-12.038-37.404l-.183-16.287.183-16.846c.384-15.275 4.392-27.679 12.038-37.221 7.629-9.525 19.525-14.283 35.692-14.283 16.291 0 28.25 4.758 35.895 14.283 7.63 9.542 11.634 21.946 12.021 37.221.121 3.529.184 9.154.184 16.846 0 7.458-.063 12.883-.184 16.287-.508 15.413-4.516 27.883-12.021 37.404-7.52 9.542-19.483 14.304-35.895 14.304-16.288 0-28.188-4.762-35.692-14.304M5751.07 1388.74c-.754-.817-1.141-1.867-1.141-3.13l-.001-106.804-31.808 24.429c-.896.755-1.833 1.142-2.85 1.142-1.125 0-2.204-.633-3.208-1.896l-4.546-5.871c-.629-.879-.954-1.775-.954-2.654 0-1.387.629-2.525 1.896-3.404l41.1-31.825c1.387-.879 3.02-1.325 4.916-1.325h8.909c1.25 0 2.296.417 3.112 1.233.833.83 1.234 1.863 1.234 3.13l-.001 123.845c.001 1.263-.4 2.313-1.233 3.13-.816.833-1.862 1.233-3.112 1.233h-9.292c-1.25 0-2.267-.4-3.021-1.233M5864.12 1366.49c4.934-6.442 7.521-15.521 7.767-27.262.125-3.671.2-8.909.2-15.721 0-6.95-.075-12.129-.2-15.534-.246-11.608-2.867-20.67-7.858-27.17-4.98-6.505-12.284-9.759-21.871-9.759-9.6 0-16.859 3.254-21.775 9.759-4.934 6.5-7.521 15.562-7.767 27.17l-.187 15.534.187 15.721c.246 11.741 2.833 20.82 7.767 27.262 4.916 6.442 12.175 9.663 21.775 9.663 9.725 0 17.046-3.221 21.962-9.663m-57.654 11.079c-7.521-9.521-11.529-21.991-12.037-37.404l-.184-16.287.184-16.846c.387-15.275 4.391-27.679 12.037-37.221 7.629-9.525 19.525-14.283 35.692-14.283 16.291 0 28.25 4.758 35.896 14.283 7.629 9.542 11.633 21.946 12.02 37.221.121 3.529.184 9.154.184 16.846 0 7.458-.063 12.883-.184 16.287-.508 15.413-4.516 27.883-12.02 37.404-7.521 9.542-19.484 14.304-35.896 14.304-16.288 0-28.188-4.762-35.692-14.304M5983.99 1366.49c4.933-6.442 7.521-15.521 7.766-27.262.126-3.671.2-8.909.2-15.721.001-6.95-.074-12.129-.199-15.534-.246-11.608-2.867-20.67-7.859-27.17-4.979-6.505-12.283-9.759-21.871-9.759-9.6 0-16.858 3.254-21.775 9.759-4.933 6.5-7.52 15.562-7.766 27.17l-.188 15.534.188 15.721c.245 11.741 2.833 20.82 7.766 27.262 4.917 6.442 12.175 9.663 21.775 9.663 9.725 0 17.046-3.221 21.963-9.663m-57.654 11.079c-7.521-9.521-11.529-21.991-12.038-37.404l-.183-16.287.183-16.846c.384-15.275 4.392-27.679 12.038-37.221 7.629-9.525 19.525-14.283 35.691-14.283 16.292 0 28.25 4.758 35.896 14.283 7.629 9.542 11.634 21.946 12.021 37.221.121 3.529.183 9.154.183 16.846 0 7.458-.062 12.883-.183 16.287-.508 15.413-4.517 27.883-12.021 37.404-7.521 9.542-19.483 14.304-35.896 14.304-16.291 0-28.187-4.762-35.691-14.304M6071.3 1388.74c-.754-.817-1.142-1.867-1.142-3.13v-106.804l-31.808 24.429c-.896.755-1.833 1.142-2.85 1.142-1.125 0-2.204-.633-3.208-1.896l-4.546-5.871c-.629-.879-.954-1.775-.954-2.654 0-1.387.633-2.525 1.895-3.404l41.105-31.825c1.383-.879 3.02-1.325 4.916-1.325h8.904c1.25 0 2.296.417 3.117 1.233.829.83 1.229 1.863 1.229 3.13v123.845c0 1.263-.4 2.313-1.229 3.13-.821.833-1.867 1.233-3.117 1.233h-9.291c-1.25 0-2.267-.4-3.021-1.233M6184.34 1366.49c4.933-6.442 7.52-15.521 7.766-27.262.125-3.671.2-8.909.2-15.721 0-6.95-.075-12.129-.2-15.534-.246-11.608-2.867-20.67-7.858-27.17-4.979-6.505-12.283-9.759-21.871-9.759-9.6 0-16.858 3.254-21.775 9.759-4.933 6.5-7.521 15.562-7.767 27.17l-.187 15.534.187 15.721c.246 11.741 2.834 20.82 7.767 27.262 4.917 6.442 12.175 9.663 21.775 9.663 9.725 0 17.046-3.221 21.963-9.663m-57.655 11.079c-7.52-9.521-11.529-21.991-12.037-37.404l-.183-16.287.183-16.846c.387-15.275 4.392-27.679 12.037-37.221 7.63-9.525 19.525-14.283 35.692-14.283 16.292 0 28.25 4.758 35.896 14.283 7.629 9.542 11.633 21.946 12.021 37.221.121 3.529.183 9.154.183 16.846 0 7.458-.062 12.883-.183 16.287-.509 15.413-4.517 27.883-12.021 37.404-7.521 9.542-19.483 14.304-35.896 14.304-16.287 0-28.187-4.762-35.692-14.304M6304.22 1366.49c4.933-6.442 7.52-15.521 7.766-27.262.125-3.671.2-8.909.2-15.721 0-6.95-.075-12.129-.2-15.534-.246-11.608-2.866-20.67-7.858-27.17-4.979-6.505-12.283-9.759-21.871-9.759-9.6 0-16.858 3.254-21.775 9.759-4.933 6.5-7.521 15.562-7.767 27.17l-.187 15.534.187 15.721c.246 11.741 2.834 20.82 7.767 27.262 4.917 6.442 12.175 9.663 21.775 9.663 9.725 0 17.046-3.221 21.963-9.663m-57.655 11.079c-7.52-9.521-11.529-21.991-12.037-37.404l-.183-16.287.183-16.846c.387-15.275 4.392-27.679 12.037-37.221 7.63-9.525 19.525-14.283 35.692-14.283 16.292 0 28.25 4.758 35.896 14.283 7.629 9.542 11.633 21.946 12.021 37.221.121 3.529.183 9.154.183 16.846 0 7.458-.062 12.883-.183 16.287-.509 15.413-4.517 27.883-12.021 37.404-7.521 9.542-19.483 14.304-35.896 14.304-16.287 0-28.187-4.762-35.692-14.304M5463.41 1593.75c4.933-6.441 7.521-15.52 7.767-27.262.125-3.667.2-8.908.2-15.721 0-6.95-.075-12.129-.2-15.533-.246-11.609-2.867-20.667-7.859-27.171-4.979-6.504-12.283-9.758-21.87-9.758-9.6 0-16.859 3.254-21.775 9.758-4.934 6.504-7.521 15.562-7.767 27.171l-.188 15.533.188 15.721c.246 11.742 2.833 20.821 7.767 27.262 4.916 6.442 12.175 9.663 21.775 9.663 9.725 0 17.045-3.221 21.962-9.663m-57.654 11.08c-7.521-9.521-11.529-21.992-12.038-37.405l-.183-16.287.183-16.846c.384-15.271 4.392-27.679 12.038-37.221 7.629-9.521 19.525-14.283 35.692-14.283 16.291 0 28.25 4.762 35.895 14.283 7.63 9.542 11.634 21.95 12.021 37.221.121 3.529.184 9.154.184 16.846 0 7.458-.063 12.883-.184 16.287-.508 15.413-4.516 27.884-12.021 37.405-7.52 9.541-19.483 14.304-35.895 14.304-16.288 0-28.188-4.763-35.692-14.304M5550.72 1616c-.754-.817-1.142-1.867-1.142-3.129v-106.804l-31.808 24.429c-.896.754-1.833 1.142-2.85 1.142-1.125 0-2.204-.634-3.208-1.896l-4.546-5.871c-.629-.879-.954-1.775-.954-2.654 0-1.388.629-2.525 1.896-3.404l41.1-31.825c1.387-.88 3.02-1.325 4.916-1.325h8.909c1.25 0 2.295.416 3.116 1.233.829.829 1.229 1.862 1.229 3.129v123.846c0 1.262-.4 2.312-1.229 3.129-.821.833-1.866 1.233-3.116 1.233h-9.292c-1.25 0-2.267-.4-3.021-1.233M5631.2 1616c-.754-.817-1.142-1.867-1.142-3.129v-106.804l-31.808 24.429c-.896.754-1.833 1.142-2.85 1.142-1.125 0-2.204-.634-3.208-1.896l-4.546-5.871c-.629-.879-.954-1.775-.954-2.654 0-1.388.629-2.525 1.896-3.404l41.1-31.825c1.387-.88 3.02-1.325 4.916-1.325h8.909c1.25 0 2.295.416 3.112 1.233.833.829 1.233 1.862 1.233 3.129v123.846c0 1.262-.4 2.312-1.233 3.129-.817.833-1.862 1.233-3.112 1.233h-9.292c-1.25 0-2.267-.4-3.021-1.233M5744.25 1593.75c4.934-6.441 7.521-15.52 7.767-27.262.125-3.667.2-8.908.2-15.721 0-6.95-.075-12.129-.2-15.533-.246-11.609-2.867-20.667-7.858-27.171-4.98-6.504-12.284-9.758-21.871-9.758-9.6 0-16.859 3.254-21.775 9.758-4.934 6.504-7.521 15.562-7.767 27.171l-.187 15.533.187 15.721c.246 11.742 2.833 20.821 7.767 27.262 4.916 6.442 12.175 9.663 21.775 9.663 9.725 0 17.046-3.221 21.962-9.663m-57.654 11.08c-7.521-9.521-11.529-21.992-12.037-37.405l-.184-16.287.184-16.846c.387-15.271 4.391-27.679 12.037-37.221 7.629-9.521 19.525-14.283 35.692-14.283 16.291 0 28.25 4.762 35.896 14.283 7.629 9.542 11.633 21.95 12.02 37.221.121 3.529.184 9.154.184 16.846 0 7.458-.063 12.883-.184 16.287-.508 15.413-4.516 27.884-12.02 37.405-7.521 9.541-19.484 14.304-35.896 14.304-16.288 0-28.188-4.763-35.692-14.304M5864.12 1593.75c4.934-6.441 7.521-15.52 7.767-27.262.125-3.667.2-8.908.2-15.721 0-6.95-.075-12.129-.2-15.533-.246-11.609-2.867-20.667-7.858-27.171-4.98-6.504-12.284-9.758-21.871-9.758-9.6 0-16.859 3.254-21.775 9.758-4.934 6.504-7.521 15.562-7.767 27.171l-.187 15.533.187 15.721c.246 11.742 2.833 20.821 7.767 27.262 4.916 6.442 12.175 9.663 21.775 9.663 9.725 0 17.046-3.221 21.962-9.663m-57.654 11.08c-7.521-9.521-11.529-21.992-12.037-37.405l-.184-16.287.184-16.846c.387-15.271 4.391-27.679 12.037-37.221 7.629-9.521 19.525-14.283 35.692-14.283 16.291 0 28.25 4.762 35.896 14.283 7.629 9.542 11.633 21.95 12.02 37.221.121 3.529.184 9.154.184 16.846 0 7.458-.063 12.883-.184 16.287-.508 15.413-4.516 27.884-12.02 37.405-7.521 9.541-19.484 14.304-35.896 14.304-16.288 0-28.188-4.763-35.692-14.304M5951.43 1616c-.754-.817-1.142-1.867-1.142-3.129v-106.804l-31.808 24.429c-.896.754-1.834 1.142-2.85 1.142-1.125 0-2.204-.634-3.209-1.896l-4.545-5.871c-.63-.879-.955-1.775-.955-2.654 0-1.388.634-2.525 1.896-3.404l41.104-31.825c1.384-.88 3.021-1.325 4.917-1.325h8.904c1.25 0 2.296.416 3.117 1.233.829.829 1.229 1.862 1.229 3.129v123.846c0 1.262-.4 2.312-1.229 3.129-.821.833-1.867 1.233-3.117 1.233h-9.291c-1.25 0-2.267-.4-3.021-1.233M6064.47 1593.75c4.934-6.441 7.521-15.52 7.767-27.262.125-3.667.2-8.908.2-15.721 0-6.95-.075-12.129-.2-15.533-.246-11.609-2.867-20.667-7.858-27.171-4.979-6.504-12.284-9.758-21.871-9.758-9.6 0-16.858 3.254-21.775 9.758-4.933 6.504-7.521 15.562-7.767 27.171l-.187 15.533.187 15.721c.246 11.742 2.834 20.821 7.767 27.262 4.917 6.442 12.175 9.663 21.775 9.663 9.725 0 17.046-3.221 21.962-9.663m-57.654 11.08c-7.521-9.521-11.529-21.992-12.037-37.405l-.184-16.287.184-16.846c.383-15.271 4.391-27.679 12.037-37.221 7.629-9.521 19.525-14.283 35.692-14.283 16.292 0 28.25 4.762 35.896 14.283 7.629 9.542 11.633 21.95 12.021 37.221.12 3.529.183 9.154.183 16.846 0 7.458-.063 12.883-.183 16.287-.509 15.413-4.517 27.884-12.021 37.405-7.521 9.541-19.484 14.304-35.896 14.304-16.288 0-28.188-4.763-35.692-14.304M6184.34 1593.75c4.933-6.441 7.52-15.52 7.766-27.262.125-3.667.2-8.908.2-15.721 0-6.95-.075-12.129-.2-15.533-.246-11.609-2.867-20.667-7.858-27.171-4.979-6.504-12.283-9.758-21.871-9.758-9.6 0-16.858 3.254-21.775 9.758-4.933 6.504-7.521 15.562-7.767 27.171l-.187 15.533.187 15.721c.246 11.742 2.834 20.821 7.767 27.262 4.917 6.442 12.175 9.663 21.775 9.663 9.725 0 17.046-3.221 21.963-9.663m-57.655 11.08c-7.52-9.521-11.529-21.992-12.037-37.405l-.183-16.287.183-16.846c.387-15.271 4.392-27.679 12.037-37.221 7.63-9.521 19.525-14.283 35.692-14.283 16.292 0 28.25 4.762 35.896 14.283 7.629 9.542 11.633 21.95 12.021 37.221.121 3.529.183 9.154.183 16.846 0 7.458-.062 12.883-.183 16.287-.509 15.413-4.517 27.884-12.021 37.405-7.521 9.541-19.483 14.304-35.896 14.304-16.287 0-28.187-4.763-35.692-14.304M6271.65 1616c-.755-.817-1.142-1.867-1.142-3.129v-106.804l-31.808 24.429c-.896.754-1.834 1.142-2.85 1.142-1.125 0-2.205-.634-3.209-1.896l-4.546-5.871c-.629-.879-.954-1.775-.954-2.654 0-1.388.629-2.525 1.896-3.404l41.104-31.825c1.384-.88 3.021-1.325 4.917-1.325h8.904c1.25 0 2.296.416 3.117 1.233.829.829 1.229 1.862 1.229 3.129v123.846c0 1.262-.4 2.312-1.229 3.129-.821.833-1.867 1.233-3.117 1.233h-9.292c-1.25 0-2.266-.4-3.02-1.233M6384.69 1593.75c4.933-6.441 7.52-15.52 7.766-27.262.125-3.667.2-8.908.2-15.721 0-6.95-.075-12.129-.2-15.533-.246-11.609-2.866-20.667-7.858-27.171-4.979-6.504-12.283-9.758-21.871-9.758-9.6 0-16.858 3.254-21.775 9.758-4.933 6.504-7.521 15.562-7.767 27.171l-.187 15.533.187 15.721c.246 11.742 2.834 20.821 7.767 27.262 4.917 6.442 12.175 9.663 21.775 9.663 9.725 0 17.046-3.221 21.963-9.663m-57.655 11.08c-7.52-9.521-11.529-21.992-12.037-37.405l-.183-16.287.183-16.846c.383-15.271 4.392-27.679 12.037-37.221 7.63-9.521 19.525-14.283 35.692-14.283 16.292 0 28.25 4.762 35.896 14.283 7.629 9.542 11.633 21.95 12.021 37.221.121 3.529.183 9.154.183 16.846 0 7.458-.062 12.883-.183 16.287-.509 15.413-4.517 27.884-12.021 37.405-7.521 9.541-19.483 14.304-35.896 14.304-16.287 0-28.187-4.763-35.692-14.304M6504.57 1593.75c4.934-6.441 7.521-15.52 7.767-27.262.125-3.667.2-8.908.2-15.721 0-6.95-.075-12.129-.2-15.533-.246-11.609-2.867-20.667-7.858-27.171-4.98-6.504-12.284-9.758-21.871-9.758-9.6 0-16.859 3.254-21.775 9.758-4.934 6.504-7.521 15.562-7.767 27.171l-.187 15.533.187 15.721c.246 11.742 2.833 20.821 7.767 27.262 4.916 6.442 12.175 9.663 21.775 9.663 9.725 0 17.046-3.221 21.962-9.663m-57.654 11.08c-7.521-9.521-11.529-21.992-12.037-37.405l-.184-16.287.184-16.846c.383-15.271 4.391-27.679 12.037-37.221 7.629-9.521 19.525-14.283 35.692-14.283 16.291 0 28.25 4.762 35.896 14.283 7.629 9.542 11.633 21.95 12.02 37.221.121 3.529.184 9.154.184 16.846 0 7.458-.063 12.883-.184 16.287-.508 15.413-4.516 27.884-12.02 37.405-7.521 9.541-19.484 14.304-35.896 14.304-16.288 0-28.188-4.763-35.692-14.304M6591.87 1616c-.754-.817-1.142-1.867-1.142-3.129v-106.804l-31.808 24.429c-.896.754-1.834 1.142-2.85 1.142-1.125 0-2.204-.634-3.209-1.896l-4.545-5.871c-.63-.879-.955-1.775-.955-2.654 0-1.388.63-2.525 1.896-3.404l41.104-31.825c1.384-.88 3.017-1.325 4.913-1.325h8.908c1.25 0 2.296.416 3.117 1.233.829.829 1.229 1.862 1.229 3.129v123.846c0 1.262-.4 2.312-1.229 3.129-.821.833-1.867 1.233-3.117 1.233h-9.291c-1.25 0-2.267-.4-3.021-1.233M5463.41 1821.01c4.933-6.441 7.521-15.521 7.767-27.262.125-3.671.2-8.909.2-15.721 0-6.95-.075-12.129-.2-15.533-.246-11.609-2.867-20.671-7.859-27.171-4.979-6.504-12.283-9.759-21.87-9.759-9.6 0-16.859 3.255-21.775 9.759-4.934 6.5-7.521 15.562-7.767 27.171l-.188 15.533.188 15.721c.246 11.741 2.833 20.821 7.767 27.262 4.916 6.442 12.175 9.663 21.775 9.663 9.725 0 17.045-3.221 21.962-9.663m-57.654 11.079c-7.521-9.52-11.529-21.991-12.038-37.404l-.183-16.287.183-16.846c.384-15.275 4.392-27.679 12.038-37.221 7.629-9.525 19.525-14.283 35.692-14.283 16.291 0 28.25 4.758 35.895 14.283 7.63 9.542 11.634 21.946 12.021 37.221.121 3.529.184 9.154.184 16.846 0 7.458-.063 12.883-.184 16.287-.508 15.413-4.516 27.884-12.021 37.404-7.52 9.542-19.483 14.305-35.895 14.305-16.288 0-28.188-4.763-35.692-14.305M5550.72 1843.26c-.754-.817-1.142-1.867-1.142-3.129v-106.804l-31.808 24.429c-.896.754-1.833 1.141-2.85 1.141-1.125 0-2.204-.633-3.208-1.895l-4.546-5.871c-.629-.879-.954-1.775-.954-2.654 0-1.388.629-2.525 1.896-3.405l41.1-31.825c1.387-.879 3.02-1.325 4.916-1.325h8.909c1.25 0 2.295.417 3.116 1.234.829.829 1.229 1.862 1.229 3.129v123.846c0 1.262-.4 2.312-1.229 3.129-.821.833-1.866 1.233-3.116 1.233h-9.292c-1.25 0-2.267-.4-3.021-1.233M5663.77 1821.01c4.933-6.441 7.521-15.521 7.767-27.262.125-3.671.2-8.909.2-15.721 0-6.95-.075-12.129-.2-15.533-.246-11.609-2.867-20.671-7.859-27.171-4.979-6.504-12.283-9.759-21.87-9.759-9.6 0-16.859 3.255-21.775 9.759-4.934 6.5-7.521 15.562-7.767 27.171l-.188 15.533.188 15.721c.246 11.741 2.833 20.821 7.767 27.262 4.916 6.442 12.175 9.663 21.775 9.663 9.725 0 17.045-3.221 21.962-9.663m-57.654 11.079c-7.521-9.52-11.529-21.991-12.038-37.404l-.183-16.287.183-16.846c.384-15.275 4.392-27.679 12.038-37.221 7.629-9.525 19.525-14.283 35.692-14.283 16.291 0 28.25 4.758 35.895 14.283 7.63 9.542 11.634 21.946 12.021 37.221.121 3.529.184 9.154.184 16.846 0 7.458-.063 12.883-.184 16.287-.508 15.413-4.516 27.884-12.021 37.404-7.52 9.542-19.483 14.305-35.895 14.305-16.288 0-28.188-4.763-35.692-14.305M5783.64 1821.01c4.933-6.441 7.521-15.521 7.767-27.262.125-3.671.2-8.909.2-15.721 0-6.95-.075-12.129-.2-15.533-.246-11.609-2.867-20.671-7.859-27.171-4.979-6.504-12.283-9.759-21.87-9.759-9.6 0-16.859 3.255-21.775 9.759-4.934 6.5-7.521 15.562-7.767 27.171l-.188 15.533.188 15.721c.246 11.741 2.833 20.821 7.767 27.262 4.916 6.442 12.175 9.663 21.775 9.663 9.725 0 17.045-3.221 21.962-9.663m-57.654 11.079c-7.521-9.52-11.529-21.991-12.038-37.404l-.183-16.287.183-16.846c.384-15.275 4.392-27.679 12.038-37.221 7.629-9.525 19.525-14.283 35.692-14.283 16.291 0 28.25 4.758 35.895 14.283 7.63 9.542 11.634 21.946 12.021 37.221.121 3.529.184 9.154.184 16.846 0 7.458-.063 12.883-.184 16.287-.508 15.413-4.516 27.884-12.021 37.404-7.52 9.542-19.483 14.305-35.895 14.305-16.288 0-28.188-4.763-35.692-14.305M5903.51 1821.01c4.934-6.441 7.521-15.521 7.767-27.262.125-3.671.2-8.909.2-15.721 0-6.95-.075-12.129-.2-15.533-.246-11.609-2.867-20.671-7.858-27.171-4.98-6.504-12.284-9.759-21.871-9.759-9.6 0-16.859 3.255-21.775 9.759-4.934 6.5-7.521 15.562-7.767 27.171l-.187 15.533.187 15.721c.246 11.741 2.833 20.821 7.767 27.262 4.916 6.442 12.175 9.663 21.775 9.663 9.725 0 17.046-3.221 21.962-9.663m-57.654 11.079c-7.521-9.52-11.529-21.991-12.037-37.404l-.184-16.287.184-16.846c.383-15.275 4.391-27.679 12.037-37.221 7.629-9.525 19.525-14.283 35.692-14.283 16.291 0 28.25 4.758 35.896 14.283 7.629 9.542 11.633 21.946 12.02 37.221.121 3.529.184 9.154.184 16.846 0 7.458-.063 12.883-.184 16.287-.508 15.413-4.516 27.884-12.02 37.404-7.521 9.542-19.484 14.305-35.896 14.305-16.288 0-28.188-4.763-35.692-14.305M5990.82 1843.26c-.754-.817-1.141-1.867-1.141-3.129v-106.804l-31.809 24.429c-.896.754-1.833 1.141-2.85 1.141-1.125 0-2.204-.633-3.208-1.895l-4.546-5.871c-.629-.879-.954-1.775-.954-2.654 0-1.388.629-2.525 1.896-3.405l41.1-31.825c1.387-.879 3.021-1.325 4.916-1.325h8.909c1.25 0 2.296.417 3.117 1.234.829.829 1.229 1.862 1.229 3.129v123.846c0 1.262-.4 2.312-1.23 3.129-.82.833-1.866 1.233-3.116 1.233h-9.292c-1.25 0-2.267-.4-3.021-1.233M6103.86 1821.01c4.933-6.441 7.521-15.521 7.767-27.262.125-3.671.2-8.909.2-15.721 0-6.95-.075-12.129-.2-15.533-.246-11.609-2.867-20.671-7.859-27.171-4.979-6.504-12.283-9.759-21.871-9.759-9.6 0-16.858 3.255-21.775 9.759-4.933 6.5-7.52 15.562-7.766 27.171l-.188 15.533.188 15.721c.246 11.741 2.833 20.821 7.766 27.262 4.917 6.442 12.175 9.663 21.775 9.663 9.725 0 17.046-3.221 21.963-9.663m-57.654 11.079c-7.521-9.52-11.529-21.991-12.038-37.404l-.183-16.287.183-16.846c.384-15.275 4.392-27.679 12.038-37.221 7.629-9.525 19.525-14.283 35.691-14.283 16.292 0 28.25 4.758 35.896 14.283 7.629 9.542 11.634 21.946 12.021 37.221.121 3.529.183 9.154.183 16.846 0 7.458-.062 12.883-.183 16.287-.508 15.413-4.517 27.884-12.021 37.404-7.521 9.542-19.483 14.305-35.896 14.305-16.291 0-28.187-4.763-35.691-14.305M6223.74 1821.01c4.933-6.441 7.521-15.521 7.767-27.262.125-3.671.2-8.909.2-15.721 0-6.95-.075-12.129-.2-15.533-.246-11.609-2.867-20.671-7.859-27.171-4.979-6.504-12.283-9.759-21.87-9.759-9.601 0-16.859 3.255-21.776 9.759-4.933 6.5-7.52 15.562-7.766 27.171l-.188 15.533.188 15.721c.246 11.741 2.833 20.821 7.766 27.262 4.917 6.442 12.175 9.663 21.775 9.663 9.725 0 17.046-3.221 21.963-9.663m-57.654 11.079c-7.521-9.52-11.529-21.991-12.038-37.404l-.183-16.287.183-16.846c.384-15.275 4.392-27.679 12.038-37.221 7.629-9.525 19.525-14.283 35.692-14.283 16.291 0 28.25 4.758 35.895 14.283 7.63 9.542 11.634 21.946 12.021 37.221.121 3.529.184 9.154.184 16.846-.001 7.458-.063 12.883-.184 16.287-.508 15.413-4.516 27.884-12.021 37.404-7.52 9.542-19.483 14.305-35.895 14.305-16.288 0-28.188-4.763-35.692-14.305M6311.04 1843.26c-.754-.817-1.142-1.867-1.142-3.129v-106.804l-31.808 24.429c-.896.754-1.833 1.141-2.85 1.141-1.125 0-2.204-.633-3.208-1.895l-4.546-5.871c-.629-.879-.954-1.775-.954-2.654 0-1.388.629-2.525 1.896-3.405l41.1-31.825c1.387-.879 3.02-1.325 4.916-1.325h8.909c1.25 0 2.295.417 3.112 1.234.833.829 1.233 1.862 1.233 3.129v123.846c0 1.262-.4 2.312-1.233 3.129-.817.833-1.862 1.233-3.112 1.233h-9.292c-1.25 0-2.267-.4-3.021-1.233M6391.52 1843.26c-.754-.817-1.142-1.867-1.142-3.129v-106.804l-31.808 24.429c-.896.754-1.834 1.141-2.85 1.141-1.125 0-2.204-.633-3.209-1.895l-4.545-5.871c-.63-.879-.955-1.775-.955-2.654 0-1.388.63-2.525 1.896-3.405l41.104-31.825c1.384-.879 3.021-1.325 4.917-1.325h8.904c1.25 0 2.296.417 3.117 1.234.829.829 1.229 1.862 1.229 3.129v123.846c0 1.262-.4 2.312-1.229 3.129-.821.833-1.867 1.233-3.117 1.233h-9.292c-1.249 0-2.266-.4-3.02-1.233M6472 1843.26c-.755-.817-1.142-1.867-1.142-3.129v-106.804l-31.808 24.429c-.896.754-1.834 1.141-2.85 1.141-1.125 0-2.204-.633-3.209-1.895l-4.546-5.871c-.629-.879-.954-1.775-.954-2.654 0-1.388.63-2.525 1.896-3.405l41.1-31.825c1.388-.879 3.021-1.325 4.917-1.325h8.908c1.25 0 2.296.417 3.117 1.234.829.829 1.229 1.862 1.229 3.129v123.846c0 1.262-.4 2.312-1.229 3.129-.821.833-1.867 1.233-3.117 1.233h-9.292c-1.25 0-2.266-.4-3.02-1.233M6585.05 1821.01c4.934-6.441 7.521-15.521 7.767-27.262.125-3.671.2-8.909.2-15.721 0-6.95-.075-12.129-.2-15.533-.246-11.609-2.867-20.671-7.858-27.171-4.98-6.504-12.284-9.759-21.871-9.759-9.6 0-16.859 3.255-21.775 9.759-4.934 6.5-7.521 15.562-7.767 27.171l-.187 15.533.187 15.721c.246 11.741 2.833 20.821 7.767 27.262 4.916 6.442 12.175 9.663 21.775 9.663 9.725 0 17.046-3.221 21.962-9.663m-57.654 11.079c-7.521-9.52-11.529-21.991-12.037-37.404l-.184-16.287.184-16.846c.383-15.275 4.391-27.679 12.037-37.221 7.629-9.525 19.525-14.283 35.692-14.283 16.291 0 28.25 4.758 35.896 14.283 7.629 9.542 11.633 21.946 12.02 37.221.121 3.529.184 9.154.184 16.846 0 7.458-.063 12.883-.184 16.287-.508 15.413-4.516 27.884-12.02 37.404-7.521 9.542-19.484 14.305-35.896 14.305-16.288 0-28.188-4.763-35.692-14.305M6697.75 5403.22c0 182.759-352.05 330.913-786.321 330.913-434.275 0-786.325-148.154-786.325-330.913 0-182.758 352.05-330.912 786.325-330.912 434.271 0 786.321 148.154 786.321 330.912" fill="#161e59" fill-rule="nonzero"/>
        <path d="M6499.83 3629.26c17.52 2.862 30.387 18 30.387 35.754v541.183h-.096v896.838c0 104.112-84.404 188.516-188.516 188.516h-815.7c-104.113 0-188.517-84.404-188.517-188.516v-1438.03c0-17.755 12.867-32.892 30.387-35.755l80.663-13.179 74.558-16.5 170.617-27.912 25.346-4.142a1335.9 1335.9 0 01429.591 0l25.346 4.142 170.717 32.279 74.458 12.133 80.759 13.184z" fill="#fe2326" fill-rule="nonzero"/>
        <path d="M6127.36 3680.62l-17.113-150.208c-10.225-89.746-86.171-157.53-176.5-157.53-90.325 0-166.271 67.784-176.496 157.53l-17.116 150.208c-10.896 95.633 63.904 179.442 160.158 179.442h66.908c96.255 0 171.055-83.809 160.159-179.442" fill="#fff" fill-rule="nonzero"/>
        <path d="M6075.23 3327.86v203.746c-26.775 43.692-74.85 72.904-129.866 72.904h-23.246c-55.013 0-103.088-29.212-129.867-72.904V3327.86h282.979z" fill="#bbd7fe" fill-rule="nonzero"/>
        <path d="M5687.4 3114.87c1.346 46.166-34.991 84.683-81.154 86.025-46.166 1.345-84.683-34.988-86.029-81.155-1.346-46.166 34.992-84.683 81.158-86.025 46.167-1.345 84.68 34.988 86.025 81.155M6329.89 3091.78c1.346 46.167-34.991 84.683-81.154 86.025-46.167 1.346-84.683-34.987-86.029-81.154-1.346-46.167 34.992-84.683 81.158-86.025 46.167-1.346 84.679 34.987 86.025 81.154" fill="#fff" fill-rule="nonzero"/>
        <path d="M5930.63 3559.35c-265.846 7.092-301.296-130.713-306.491-309.096l-28.471-197.308c-5.196-178.384 135.196-327.204 313.579-332.4 178.383-5.196 327.2 135.2 332.4 313.579l-8.125 247.371c7.283 310.621-302.892 277.854-302.892 277.854" fill="#fff" fill-rule="nonzero"/>
        <path d="M5805.84 3340.78c5.171 26.167 30.708 49.396 64.954 56.121 34.242 6.725 66.671-5.125 81.35-27.396l-146.304-28.725z" fill="#bbd7fe" fill-rule="nonzero"/>
        <path d="M5603.2 3038.8h4.667c29.558 0 53.646-23.729 54.058-53.287 1.704-121.1 2.696-262.617 2.696-262.617l-40.721-7.704c-71.1-13.45-128.983 56.95-102.058 124.113 26.071 65.029 56.154 139.312 81.358 199.495M6226.8 3038.8c22.867-64.325 51.592-149.037 76.104-222.258 22.967-68.617-38.921-135.517-109.117-117.95l-40.2 10.058s10.18 155.775 19.292 280.059c2.071 28.25 25.596 50.091 53.921 50.091M5753.1 3180.51c.346 11.854 10.233 21.183 22.087 20.837 11.854-.346 21.15-11.421 20.838-22.087-.309-10.671-10.234-21.184-22.088-20.838-11.854.346-21.183 10.234-20.837 22.088M5800.22 3034.16l-68.529 1.996c-6.717.196-12.325-5.092-12.521-11.813-.196-6.716 5.096-12.32 11.813-12.516l68.529-2c6.717-.196 12.325 5.096 12.521 11.812.196 6.721-5.096 12.325-11.813 12.521" fill-rule="nonzero"/>
        <path d="M5768.22 3078.96c-42.167 0-76.475 34.304-76.475 76.475 0 42.167 34.308 76.471 76.475 76.471 42.166 0 76.475-34.304 76.475-76.471 0-42.171-34.309-76.475-76.475-76.475m0 165.446c-49.059 0-88.975-39.913-88.975-88.971 0-49.063 39.916-88.975 88.975-88.975 49.058 0 88.975 39.912 88.975 88.975 0 49.058-39.917 88.971-88.975 88.971" fill="#006aff" fill-rule="nonzero"/>
        <path d="M6067.31 3180.51c-.346 11.854-10.234 21.183-22.088 20.837-11.854-.346-21.15-11.421-20.837-22.087.308-10.671 10.233-21.184 22.087-20.838 11.854.346 21.184 10.234 20.838 22.088M6020.19 3025.43l68.53 1.995c6.716.196 12.325-5.091 12.52-11.812.196-6.717-5.095-12.325-11.812-12.521l-68.529-1.996c-6.717-.196-12.325 5.096-12.521 11.813-.196 6.721 5.096 12.325 11.812 12.521" fill-rule="nonzero"/>
        <path d="M6052.19 3078.96c-42.171 0-76.475 34.304-76.475 76.475 0 42.167 34.304 76.471 76.475 76.471 42.166 0 76.475-34.304 76.475-76.471 0-42.171-34.309-76.475-76.475-76.475m0 165.446c-49.059 0-88.975-39.913-88.975-88.971 0-49.063 39.916-88.975 88.975-88.975 49.058 0 88.975 39.912 88.975 88.975 0 49.058-39.917 88.971-88.975 88.971" fill="#006aff" fill-rule="nonzero"/>
        <path d="M5921.32 3261.89c-9.2 0-19.771-1.904-27.7-8.858-9.946-8.725-13.392-23.079-10.242-42.663l23.4-132.358a5.523 5.523 0 016.409-4.483 5.53 5.53 0 014.487 6.412l-23.383 132.271c-2.488 15.475-.271 26.433 6.608 32.483 12.521 11.013 37.204 3.9 37.45 3.817a5.533 5.533 0 016.875 3.733c.867 2.925-.791 6-3.716 6.875-.671.2-9.505 2.771-20.188 2.771M5982.25 2481.08c-84.462-10.955-165.5 11.287-230.233 56.475v226.054l111.658 14.479 404.233 52.425c12.438-172.575-111.904-326.9-285.658-349.433" fill-rule="nonzero"/>
        <path d="M5947.22 2649.38c23.341 36.792-38.826 118.067-138.859 181.533-100.033 63.463-200.05 85.084-223.392 48.292-23.341-36.796 38.825-118.071 138.859-181.533 100.033-63.463 200.05-85.088 223.391-48.292" fill-rule="nonzero"/>
        <path d="M5654.28 2600.56c-34.083 61.349 42.504 168.983 171.063 240.408 128.562 71.421 260.408 79.587 294.491 18.237 34.084-61.35 130.846-116.737 2.284-188.158-128.559-71.425-433.754-131.838-467.838-70.488" fill-rule="nonzero"/>
        <path d="M5973.58 3134.55a6.236 6.236 0 01-4.217-1.638c-19.459-17.791-45.209-23.212-76.517-16.071-24.075 5.48-42.5 16.671-42.683 16.784-2.942 1.796-6.792.887-8.596-2.054a6.248 6.248 0 012.05-8.592c.804-.496 20.1-12.258 46.104-18.242 35.196-8.1 65.654-1.546 88.079 18.95a6.246 6.246 0 01.392 8.829 6.216 6.216 0 01-4.613 2.034" fill="#006aff" fill-rule="nonzero"/>
        <path d="M5914.01 2607.38c20.608 71.046-49.071 153.696-155.638 184.612-106.566 30.913-209.662-1.616-230.271-72.662-20.612-71.042 49.071-153.696 155.638-184.613 106.567-30.912 209.662 1.617 230.271 72.663" fill-rule="nonzero"/>
        <path d="M6949.68 5089.18c14.141 0 28.516-2.554 42.5-7.937 60.995-23.488 91.404-91.975 67.92-152.967l-440.508-1144.01c-23.487-61-92-91.391-152.971-67.916-60.991 23.491-91.404 91.975-67.916 152.971l440.508 1144.01c18.1 47.008 62.937 75.854 110.467 75.854" fill="#fff" fill-rule="nonzero"/>
        <path d="M6721.59 4772.09l-467.025-865.75c-27.705-72.162 110.437-238.058 182.604-265.758 72.166-27.704 153.129 8.346 180.829 80.508l364.933 950.679-261.341 100.321z" fill="#fe2326" fill-rule="nonzero"/>
        <path d="M7008.26 4623c8.433 21.962-2.538 46.604-24.504 55.033l-253.767 97.412c-21.963 8.434-46.604-2.537-55.033-24.5-8.434-21.966 2.537-46.604 24.504-55.037l253.766-97.413c21.963-8.429 46.605 2.542 55.034 24.505" fill="#e5151f" fill-rule="nonzero"/>
        <path d="M7004.58 5072.7c45.309-19.05 70.209-69.579 66.717-121.362-4.404-65.213-77.221-125.463-142.433-121.067l-929.371 62.7c-65.221 4.383-114.517 60.833-110.117 126.037 4.396 65.217 60.829 114.513 126.042 110.117 0 0 903.296 6.817 989.162-56.425M4933.87 5089.18c-14.141 0-28.516-2.554-42.5-7.937-60.996-23.488-91.404-91.975-67.921-152.967l440.509-1144.01c23.487-61 92-91.391 152.971-67.916 60.991 23.491 91.404 91.975 67.916 152.971l-440.508 1144.01c-18.1 47.008-62.938 75.854-110.467 75.854" fill="#fff" fill-rule="nonzero"/>
        <path d="M5161.96 4772.09l467.025-865.75c27.704-72.162-110.438-238.058-182.604-265.758-72.167-27.704-153.13 8.346-180.83 80.508l-364.933 950.679 261.342 100.321z" fill="#fe2326" fill-rule="nonzero"/>
        <path d="M4875.29 4623c-8.433 21.962 2.538 46.604 24.504 55.033l253.767 97.412c21.962 8.434 46.604-2.537 55.033-24.5 8.434-21.966-2.537-46.604-24.504-55.037l-253.767-97.413c-21.962-8.429-46.604 2.542-55.033 24.505" fill="#e5151f" fill-rule="nonzero"/>
        <path d="M4893.98 5061.47c-43.837-22.229-65.079-74.395-57.913-125.8 9.034-64.733 85.955-119.65 150.688-110.629l922.554 128.671c64.746 9.017 109.896 68.829 100.867 133.554-9.025 64.738-68.821 109.892-133.554 100.871 0 0-901.492-57.475-982.642-126.667" fill="#fff" fill-rule="nonzero"/>
        <path d="M5339.04 4455.19l121.579-286.458-121.945 578.896.366-292.438zM6526.21 4455.19l-121.579-286.458 121.945 578.896-.366-292.438z" fill="#e5151f" fill-rule="nonzero"/>
        <path d="M6551.91 5317.32H5360.23c-55.683 0-100.825-45.142-100.825-100.821v-766.721c0-55.683 45.142-100.821 100.825-100.821h1191.68c55.684 0 100.821 45.138 100.821 100.821v766.721c0 55.679-45.137 100.821-100.821 100.821" fill="#006aff" fill-rule="nonzero"/>
        <path d="M6610.23 5367.98H5301.9c-36.821 0-66.667-29.846-66.667-66.667v-3.233h1441.66v3.233c0 36.821-29.846 66.667-66.667 66.667" fill="#0058d8" fill-rule="nonzero"/>
        <path d="M6024.87 4833.14c0 38-30.804 68.804-68.804 68.804-37.996 0-68.804-30.804-68.804-68.804s30.808-68.804 68.804-68.804c38 0 68.804 30.804 68.804 68.804" fill="#fff" fill-rule="nonzero"/>
        <path d="M6315.25 5781.53l271.379 21.304 61.463-9.512a160.06 160.06 0 01122.837 31.908l18.05 14.067c15.283 11.904 21.442 32.121 15.392 50.521l-79.625 242.204a46.306 46.306 0 01-29.167 29.408 163.333 163.333 0 01-102.733.613l-367.425-107.271 89.829-273.242z" fill="#fe2326" fill-rule="nonzero"/>
        <path d="M6480.88 6036.47c-4.429 0-8.541-2.854-9.937-7.304-30.8-98.175 38.3-161.25 41.254-163.887 4.292-3.838 10.875-3.455 14.708.837 3.825 4.292 3.455 10.863-.82 14.692-2.542 2.287-61.955 57.046-35.263 142.125 1.721 5.487-1.333 11.333-6.821 13.058a10.419 10.419 0 01-3.121.479M6417.13 6036.47c-4.429 0-8.542-2.854-9.937-7.304-30.805-98.175 38.3-161.25 41.254-163.892 4.296-3.825 10.883-3.45 14.708.842 3.825 4.292 3.454 10.871-.829 14.7-2.658 2.396-61.921 57.129-35.254 142.117 1.721 5.487-1.333 11.333-6.821 13.058a10.424 10.424 0 01-3.121.479" fill="#fff" fill-rule="nonzero"/>
        <path d="M6371.72 5866.22l-112.341 205.413c-30.63 56-96.288 82.904-157.409 64.495l-1348.7-431.766c-142.191-66.342-205.229-254.434-107.183-433.709 98.05-179.279 246.979-221.591 421.725-134.216l1242.92 542.821c70.392 33.116 98.304 118.712 60.979 186.962" fill="#03073f" fill-rule="nonzero"/>
        <path d="M5596.88 5781.53l-271.379 21.304-61.462-9.512a160.048 160.048 0 00-122.838 31.912c-26.108 20.342-36.629 54.884-26.292 86.325l72.475 220.463a46.305 46.305 0 0029.171 29.408 163.32 163.32 0 00102.729.613l367.425-107.271-89.829-273.242z" fill="#fe2326" fill-rule="nonzero"/>
        <path d="M5465.12 6036.47c-1.034 0-2.084-.154-3.121-.479-5.488-1.725-8.542-7.571-6.821-13.058 26.692-85.079-32.721-139.838-35.262-142.125-4.267-3.842-4.625-10.421-.796-14.7 3.833-4.279 10.396-4.654 14.683-.829 2.954 2.637 72.054 65.712 41.254 163.887-1.396 4.45-5.508 7.304-9.937 7.304M5528.87 6036.47c-1.033 0-2.083-.154-3.121-.479-5.487-1.725-8.542-7.571-6.821-13.058 26.821-85.488-34.616-141.554-35.241-142.104-4.296-3.834-4.671-10.417-.842-14.713 3.829-4.292 10.417-4.671 14.708-.842 2.954 2.642 72.059 65.717 41.254 163.892-1.395 4.45-5.508 7.304-9.937 7.304" fill="#fff" fill-rule="nonzero"/>
        <path d="M5544.68 5803.6l108.08 268.033c30.629 56.005 79.933 48.842 141.054 30.429l1365.05-397.695c142.187-66.342 205.225-254.434 107.179-433.713-98.05-179.275-246.979-221.592-421.725-134.217l-1242.92 542.821c-70.387 33.121-94.042 56.092-56.717 124.342" fill="#161e59" fill-rule="nonzero"/>
        <path d="M4373.15 3150.81c-32.754 0-59.404-26.65-59.404-59.404v-954.15c0-32.758 26.65-59.404 59.404-59.404h420.308c32.759 0 59.404 26.646 59.404 59.404v954.15c0 32.754-26.645 59.404-59.404 59.404H4373.15z" fill="#fff" fill-rule="nonzero"/>
        <path d="M4522.18 2522.43h-96.204c-22.479 0-40.704-18.225-40.704-40.709v-96.2c0-22.483 18.225-40.708 40.704-40.708h96.204c22.483 0 40.708 18.225 40.708 40.708v96.2c0 22.484-18.225 40.709-40.708 40.709" fill="#bbd7fe" fill-rule="nonzero"/>
        <path d="M4735.26 2522.43h-96.204c-22.479 0-40.709-18.225-40.709-40.709v-96.2c0-22.483 18.23-40.708 40.709-40.708h96.204c22.483 0 40.708 18.225 40.708 40.708v96.2c0 22.484-18.225 40.709-40.708 40.709M4522.18 2730.17h-96.204c-22.479 0-40.704-18.225-40.704-40.708v-96.2c0-22.484 18.225-40.709 40.704-40.709h96.204c22.483 0 40.708 18.225 40.708 40.709v96.2c0 22.483-18.225 40.708-40.708 40.708" fill="#eaf4fe" fill-rule="nonzero"/>
        <path d="M4735.26 2730.17h-96.204c-22.479 0-40.709-18.225-40.709-40.708v-96.2c0-22.484 18.23-40.709 40.709-40.709h96.204c22.483 0 40.708 18.225 40.708 40.709v96.2c0 22.483-18.225 40.708-40.708 40.708M4522.18 2937.92h-96.204c-22.479 0-40.704-18.225-40.704-40.709v-96.2c0-22.483 18.225-40.708 40.704-40.708h96.204c22.483 0 40.708 18.225 40.708 40.708v96.2c0 22.484-18.225 40.709-40.708 40.709" fill="#bbd7fe" fill-rule="nonzero"/>
        <path d="M4735.26 2937.92h-96.204c-22.479 0-40.709-18.225-40.709-40.709v-96.2c0-22.483 18.23-40.708 40.709-40.708h96.204c22.483 0 40.708 18.225 40.708 40.708v96.2c0 22.484-18.225 40.709-40.708 40.709" fill="#fe2326" fill-rule="nonzero"/>
        <path d="M4373.15 2082.34c-30.279 0-54.908 24.629-54.908 54.908v954.15c0 30.283 24.629 54.913 54.908 54.913h420.308c30.279 0 54.909-24.63 54.909-54.913v-954.15c0-30.279-24.63-54.908-54.909-54.908H4373.15zm0 1078.02c-38.025-.001-68.958-30.938-68.958-68.963v-954.15c0-38.025 30.933-68.958 68.958-68.958h420.308c38.025 0 68.963 30.933 68.963 68.958v954.15c0 38.025-30.938 68.963-68.963 68.963l-420.308-.001z" fill="#161e59" fill-rule="nonzero"/>
        <path d="M4416.13 2077.94v32.137c0 10.55 8.554 19.105 19.104 19.105h296.133c10.55 0 19.105-8.555 19.105-19.105v-32.137H4416.13z" fill="#161e59" fill-rule="nonzero"/>
        <path d="M7877.35 3229.14h-400.929l71.683-356.17h257.563l71.683 356.17z" fill="#fff" fill-rule="nonzero"/>
        <path d="M7934.35 3262.19h-514.925v-12.871c0-18.454 14.962-33.412 33.416-33.412h448.092c18.454 0 33.417 14.958 33.417 33.412v12.871z" fill="#fff" fill-rule="nonzero"/>
        <path d="M7841.33 3050.16l-35.662-177.2h-257.563l-35.662 177.2h328.887z" fill="#eaf4fe" fill-rule="nonzero"/>
        <path d="M8261.85 2260.41v638.295c0 46.025-37.309 83.334-83.334 83.334h-1003.26c-46.025 0-83.334-37.309-83.334-83.334V2260.41c0-46.025 37.309-83.334 83.334-83.334h1003.26c46.025 0 83.334 37.309 83.334 83.334" fill="#161e59" fill-rule="nonzero"/>
        <path d="M7091.92 2845.51v72.063c0 38.337 31.08 69.412 69.417 69.412h1031.1c38.337 0 69.413-31.075 69.413-69.412l-.001-72.063h-1169.93zM7688.24 2340.72v226.4c0 11.983-9.684 21.666-21.667 21.666h-348.558c-11.984 0-21.667-9.683-21.667-21.666v-226.4c0-11.984 9.683-21.667 21.667-21.667h348.558c11.983 0 21.667 9.683 21.667 21.667" fill="#fff" fill-rule="nonzero"/>
        <path d="M7657.79 2393.91v-30.937c0-10.596-8.566-19.163-19.162-19.163h-308.259c-10.595 0-19.162 8.567-19.162 19.163v30.937h346.583z" fill="#eaf4fe" fill-rule="nonzero"/>
        <path d="M7728.8 2468.65h-37.5a6.25 6.25 0 110-12.5h37.5a6.25 6.25 0 110 12.5m70.833 0h-37.5a6.25 6.25 0 110-12.5h37.5a6.25 6.25 0 110 12.5m70.834 0h-37.5a6.25 6.25 0 01-6.25-6.25 6.25 6.25 0 016.25-6.25h37.5a6.25 6.25 0 110 12.5m70.833 0h-37.5a6.25 6.25 0 110-12.5h37.5a6.25 6.25 0 110 12.5m-320.138 3.187a6.224 6.224 0 01-5.012-2.516 6.245 6.245 0 011.275-8.742c3.883-2.9 8.504-4.429 13.362-4.429h27.18a6.25 6.25 0 110 12.5h-27.18a9.773 9.773 0 00-5.891 1.946 6.224 6.224 0 01-3.734 1.241m384.988 9.325a6.254 6.254 0 01-6.088-4.858c-1.012-4.437-5.058-7.654-9.62-7.654h-15.809a6.25 6.25 0 110-12.5h15.809c10.499 0 19.47 7.142 21.808 17.371a6.252 6.252 0 01-6.1 7.641m-391.484 59.43a6.249 6.249 0 01-6.249-6.25l-.001-37.5a6.247 6.247 0 016.251-6.25 6.246 6.246 0 016.249 6.25l.001 37.5a6.25 6.25 0 01-6.251 6.25m391.896 11.37a6.25 6.25 0 01-6.25-6.25v-37.5a6.25 6.25 0 1112.5 0v37.5c0 3.45-2.8 6.25-6.25 6.25m-391.895 59.463a6.25 6.25 0 01-6.25-6.25v-37.5a6.247 6.247 0 016.25-6.25 6.247 6.247 0 016.25 6.25v37.5a6.25 6.25 0 01-6.25 6.25m391.895 11.371a6.25 6.25 0 01-6.25-6.25v-37.5a6.25 6.25 0 1112.5 0v37.5c0 3.45-2.8 6.25-6.25 6.25m-391.895 59.462a6.25 6.25 0 01-6.25-6.25v-37.5a6.25 6.25 0 1112.5 0v37.5a6.25 6.25 0 01-6.25 6.25m391.895 11.371a6.25 6.25 0 01-6.25-6.25v-37.5a6.25 6.25 0 1112.5 0v37.5c0 3.45-2.8 6.25-6.25 6.25m-370.287 44.758h-5.488c-12.337 0-22.37-10.033-22.37-22.366v-6.679a6.25 6.25 0 1112.5 0v6.679c0 5.441 4.425 9.866 9.87 9.866h5.488a6.25 6.25 0 110 12.5m70.833 0h-37.5a6.25 6.25 0 110-12.5h37.5a6.25 6.25 0 110 12.5m70.834 0h-37.5a6.25 6.25 0 01-6.25-6.25 6.25 6.25 0 016.25-6.25h37.5a6.25 6.25 0 110 12.5m70.833 0h-37.5a6.25 6.25 0 110-12.5h37.5a6.25 6.25 0 110 12.5m70.833 0h-37.5a6.25 6.25 0 110-12.5h37.5a6.25 6.25 0 110 12.5m70.838 0h-37.504a6.25 6.25 0 01-6.25-6.25 6.25 6.25 0 016.25-6.25h37.5c4.329-.004 8.22-2.895 9.458-7.033.987-3.308 4.462-5.204 7.779-4.2a6.253 6.253 0 014.196 7.779c-2.804 9.388-11.621 15.95-21.429 15.954" fill="#fff" fill-rule="nonzero"/>
    </g>
</svg>
