<svg viewBox="0 0 10696 7443" xmlns="http://www.w3.org/2000/svg" fill-rule="evenodd" clip-rule="evenodd" stroke-linejoin="round" stroke-miterlimit="2">
    <path fill="none" d="M0 0h10695.1v7442.38H0z"/>
    <clipPath id="a">
        <path d="M0 0h10695.1v7442.38H0z"/>
    </clipPath>
    <g clip-path="url(#a)">
        <path d="M4396.28 822.813c-608.18-227.841-1298.69-181.3-1948.43-98.8-1130.35 143.53-1760.06 986.234-2100.5 2008.82-353.429 1061.6-549.962 2329.67-26.979 3370.94 379.371 755.333 1110 1173.45 1927.74 1292.78 833.816 121.675 1698.5-13.229 2503.82-236.746 575.842-159.825 1128.1-311.646 1727.95-357.762 622.925-47.888 1251.58 2.554 1872.88-52.446 1043.61-92.388 1631.12-816.396 1975.21-1751.9 370.733-1007.96 682.025-2933.7-225.429-3566.74-1094.28-763.367-1666.67 433.333-2516.67 483.333-2055 120.88-1966.67-633.333-3189.59-1091.47" fill="#d9eaff" fill-rule="nonzero"/>
        <path d="M6536.1 5696.84c0 48.558 713.495 87.92 1593.64 87.92 880.142 0 1593.64-39.362 1593.64-87.92 0-48.559-713.496-87.921-1593.64-87.921-880.146 0-1593.64 39.362-1593.64 87.921" fill="#bbd7fe" fill-rule="nonzero"/>
        <path d="M9530.43 4307.35H8321.7v106.017c0 393.333 88.225 1121.68 225.409 1286.88h757.908c137.183-165.2 225.413-893.55 225.413-1286.88V4307.35z" fill="#fff" fill-rule="nonzero"/>
        <path d="M9622.02 4570.57c-81.612 0-196.287 96.529-256.971 263.238-32.75 90.008-42.625 185.062-27.066 260.775 12.987 63.241 42.625 107.587 81.3 121.666 80.787 29.384 218.691-69.35 287.391-258.108 68.684-188.742 26.542-353.046-54.233-382.454-9.437-3.425-19.637-5.117-30.421-5.117m-171.72 796.542c-27.409 0-54.505-4.588-80.775-14.15-88.517-32.213-150.321-113.567-174.063-229.096-21.117-102.854-9.45-223.538 32.875-339.817 93.279-256.275 301.346-407.904 473.858-345.075 172.434 62.771 234.45 312.667 141.188 568.925-79.054 217.2-240.671 359.213-393.084 359.213M9027.98 4125.83c-3.221 0-6.43-1.363-8.68-4.013-103.237-121.408-211.033-264.1-182.97-421.266 14.804-82.946 65.441-152.28 116.041-216.184l10.929-13.766c45.821-57.621 93.2-117.2 115.655-186.542 30.629-94.571-2.067-175.213-45.405-210.121-4.9-3.946-5.67-11.117-1.725-16.017 3.942-4.891 11.109-5.675 16.017-1.725 31.667 25.513 52.946 62.921 61.521 108.184 7.692 40.562 4.587 85.558-8.733 126.691-23.734 73.275-72.417 134.5-119.505 193.705l-10.9 13.725c-48.795 61.633-97.595 128.312-111.475 206.054-26.32 147.408 78.03 285.062 177.9 402.508 4.08 4.792 3.496 11.979-1.295 16.054a11.355 11.355 0 01-7.375 2.713" fill="#fff" fill-rule="nonzero"/>
        <path d="M2807.94 5080.61L1523.06 3092.73l-50.238 32.488 1292.02 1999.83 43.096-44.446zM2947.57 4971.69L1732.48 3092.74l-50.238 32.487 1194.08 1846.47h71.246zM1493.14 2945.65L2956.12 683.37c38.433-59.425 103.629-94.904 174.4-94.904h476.504v-59.833H3130.52c-91.159 0-175.138 45.7-224.634 122.25l-1462.98 2262.28 50.233 32.487z" fill="#bbd7fe" fill-rule="nonzero"/>
        <path d="M3235.76 574.795l-1533.2 2370.86-50.235-32.486 1533.2-2370.86 50.235 32.486z" fill="#bbd7fe"/>
        <path d="M1823.3 3215.28v-403.312c0-72.021-77.563-117.384-140.334-82.075l-325.616 201.658c-64 36-64 128.146 0 164.15l325.616 201.654c62.771 35.308 140.334-10.054 140.334-82.075" fill="#bbd7fe" fill-rule="nonzero"/>
        <path d="M1527.06 3013.63c0 46.467 37.671 84.138 84.137 84.138 46.471 0 84.142-37.671 84.142-84.138 0-46.471-37.671-84.137-84.142-84.137-46.466 0-84.137 37.666-84.137 84.137" fill="#d9eaff" fill-rule="nonzero"/>
        <path d="M3804.17 1331.91l-466.646-511.558c-40.4-44.288-41.796-111.642-3.258-157.563l217.616-259.346c38.534-45.925 105.104-56.246 155.738-24.146l584.804 370.734-488.254 581.879z" fill="#bbd7fe" fill-rule="nonzero"/>
        <path d="M3984.62 767.673c10.042-11.967 8.48-29.804-3.487-39.842l-204.263-171.4c-11.966-10.041-29.804-8.479-39.845 3.488-10.038 11.962-8.48 29.8 3.487 39.841l204.267 171.4c11.962 10.038 29.8 8.48 39.841-3.487M3912.44 853.685c10.042-11.966 8.479-29.804-3.487-39.841l-204.263-171.4c-11.967-10.042-29.804-8.479-39.846 3.487-10.037 11.963-8.479 29.8 3.488 39.842l204.266 171.4c11.963 10.037 29.8 8.479 39.842-3.488M3840.27 939.698c10.042-11.967 8.479-29.804-3.487-39.842l-204.263-171.4c-11.966-10.041-29.804-8.479-39.846 3.488-10.037 11.962-8.479 29.8 3.488 39.841l204.267 171.4c11.962 10.038 29.8 8.48 39.841-3.487M3768.1 1025.71c10.042-11.966 8.479-29.804-3.487-39.841l-204.263-171.4c-11.966-10.042-29.804-8.479-39.846 3.487-10.037 11.963-8.479 29.8 3.488 39.842l204.267 171.4c11.962 10.037 29.8 8.479 39.841-3.488" fill="#d9eaff" fill-rule="nonzero"/>
        <path d="M4469.55 1394.44c95.62-113.954 80.754-283.85-33.2-379.47l-206.321-173.125-346.271 412.67 206.325 173.125c113.954 95.621 283.846 80.755 379.467-33.2" fill="#fff" fill-rule="nonzero"/>
        <path d="M3496.54 2124.53c-13.762 16.404-41.033 9.133-43.846-12.096-37.112-280.238 150.188-732.696 501.034-1150.82 350.854-418.133 763.912-681.154 1046.34-693.266 21.392-.917 33.292 24.675 19.525 41.079l-1523.05 1815.1z" fill="#bbd7fe" fill-rule="nonzero"/>
        <path d="M2711.57 5807.89h5420.18V2292.21H2711.57v3515.68zm5434.77 29.166H2696.99c-8.05 0-14.584-6.533-14.584-14.583v-3544.84c0-8.054 6.534-14.583 14.584-14.583h5449.35c8.054 0 14.583 6.529 14.583 14.583v3544.84c0 8.05-6.529 14.583-14.583 14.583" fill="#fff" fill-rule="nonzero"/>
        <path d="M8051.44 2050.54H2783.16c-96.334 0-174.43 78.096-174.43 174.429v3416.76h217.563v-3329.71h5182.01v3329.71h217.563v-3416.76c0-96.333-78.096-174.429-174.429-174.429" fill="#03073f" fill-rule="nonzero"/>
        <path fill="#006aff" d="M2826.3 2308.05h5182.01v231.542H2826.3z"/>
        <path d="M6566.07 2474.74H4172.74c-26.463 0-47.917-21.455-47.917-47.917 0-26.467 21.454-47.921 47.917-47.921h2393.33c26.462 0 47.916 21.454 47.916 47.921 0 26.462-21.454 47.917-47.916 47.917" fill="#eff2f7" fill-rule="nonzero"/>
        <path d="M2987.63 2423.83c0 19.971-16.192 36.162-36.163 36.162-19.975 0-36.166-16.191-36.166-36.162s16.191-36.163 36.166-36.163c19.971 0 36.163 16.192 36.163 36.163M3103.66 2423.83c0 19.971-16.192 36.162-36.163 36.162-19.975 0-36.166-16.191-36.166-36.162s16.191-36.163 36.166-36.163c19.971 0 36.163 16.192 36.163 36.163M3219.69 2423.83c0 19.971-16.192 36.162-36.163 36.162-19.975 0-36.167-16.191-36.167-36.162s16.192-36.163 36.167-36.163c19.971 0 36.163 16.192 36.163 36.163" fill="#fff" fill-rule="nonzero"/>
        <path d="M8920.17 6218.62v.35c-3.083 45.117-22.617 85.7-52.733 115.821-32.796 32.85-78.146 53.142-128.267 53.142H2095.43c-95.995 0-174.604-74.596-181-168.963v-.35l14.538-12.091h6976.66l14.538 12.091z" fill="#0058d8" fill-rule="nonzero"/>
        <path d="M5727.79 6309.65h-620.979c-56.946 0-103.108-46.162-103.108-103.108h827.195c.001 56.946-46.162 103.108-103.108 103.108" fill="#71acfd" fill-rule="nonzero"/>
        <path d="M8920.58 6218.97H1914.03l.404-.35 14.538-12.091 679.745-566.663h5617.18l679.746 566.663 14.534 12.091.408.35z" fill="#006aff" fill-rule="nonzero"/>
        <path fill="#fff" d="M3112.47 5750.84h4454.37v23.258H3112.47zM3009.95 5848.32h4701.84v23.258H3009.95zM6794.5 5959.82h1097.58v23.258H6794.5zM4263.12 5959.82h1732.32v23.258H4263.12zM2942.52 5959.82h230.033v23.258H2942.52zM3271.3 5959.82h230.029v23.258H3271.3zM3606.22 5959.82h230.029v23.258H3606.22zM3945.6 5959.82h230.029v23.258H3945.6zM6112.93 5959.82h230.033v23.258H6112.93zM6452.3 5959.82h230.033v23.258H6452.3z"/>
        <path d="M3465.44 3211.75h-288.725c-11.504 0-20.833-9.329-20.833-20.833v-288.725c0-11.504 9.329-20.834 20.833-20.834h288.725c11.504 0 20.833 9.33 20.833 20.834v288.725c0 11.504-9.329 20.833-20.833 20.833M3465.44 3702.87l-288.725-.001c-11.504.001-20.833-9.329-20.833-20.833v-288.725c0-11.504 9.329-20.833 20.833-20.833h288.725c11.504 0 20.833 9.329 20.833 20.833v288.725c0 11.504-9.329 20.834-20.833 20.834M3465.44 4193.99h-288.725c-11.504 0-20.833-9.329-20.833-20.833v-288.725c0-11.505 9.329-20.834 20.833-20.834h288.725c11.504 0 20.833 9.329 20.833 20.834v288.725c0 11.504-9.329 20.833-20.833 20.833" fill="#fff" fill-rule="nonzero"/>
        <path d="M6898.39 4544.48h-1729.9c-8.05 0-14.583-6.529-14.583-14.583 0-8.055 6.533-14.584 14.583-14.584h1729.9c8.054 0 14.583 6.529 14.583 14.584 0 8.054-6.529 14.583-14.583 14.583M7485.89 4752.48H5701.56c-8.055 0-14.584-6.53-14.584-14.584 0-8.054 6.529-14.583 14.584-14.583h1784.33c8.054 0 14.583 6.529 14.583 14.583s-6.529 14.584-14.583 14.584" fill="#00046d" fill-rule="nonzero"/>
        <path d="M7631.59 4960.47H6049.71c-8.054 0-14.584-6.529-14.584-14.583s6.53-14.583 14.584-14.583h1581.88c8.054 0 14.583 6.529 14.583 14.583s-6.529 14.583-14.583 14.583" fill="#fff" fill-rule="nonzero"/>
        <path d="M7137.68 5168.46h-1740.8c-8.054 0-14.583-6.53-14.583-14.584 0-8.054 6.529-14.583 14.583-14.583h1740.8c8.054 0 14.583 6.529 14.583 14.583s-6.529 14.584-14.583 14.584" fill="#00046d" fill-rule="nonzero"/>
        <path d="M6646.17 5376.45H5168.48c-8.05 0-14.584-6.529-14.584-14.583s6.534-14.584 14.584-14.584h1477.69c8.054 0 14.583 6.53 14.583 14.584 0 8.054-6.529 14.583-14.583 14.583M3834.49 4203.45c-5.754 0-10.417-4.662-10.417-10.417v-1306.79c0-5.754 4.663-10.417 10.417-10.417s10.417 4.663 10.417 10.417v1306.79c0 5.755-4.663 10.417-10.417 10.417" fill="#fff" fill-rule="nonzero"/>
        <path d="M3972.5 3404.45h-276.004c-32.663 0-59.142-26.479-59.142-59.141 0-32.667 26.479-59.146 59.142-59.146H3972.5c32.662 0 59.141 26.479 59.141 59.146 0 32.662-26.479 59.141-59.141 59.141" fill="#fe2326" fill-rule="nonzero"/>
        <path d="M4341.44 4203.45c-5.754 0-10.417-4.662-10.417-10.417v-1306.79c0-5.754 4.663-10.417 10.417-10.417s10.416 4.663 10.416 10.417v1306.79c0 5.755-4.662 10.417-10.416 10.417" fill="#fff" fill-rule="nonzero"/>
        <path d="M4479.44 3911.39h-276.004c-32.663 0-59.142-26.479-59.142-59.142 0-32.666 26.479-59.146 59.142-59.146h276.004c32.663 0 59.142 26.48 59.142 59.146 0 32.663-26.479 59.142-59.142 59.142" fill="#03073f" fill-rule="nonzero"/>
        <path d="M4848.39 4203.45c-5.755 0-10.417-4.662-10.417-10.417v-1306.79c0-5.754 4.662-10.417 10.417-10.417 5.754 0 10.416 4.663 10.416 10.417v1306.79c0 5.755-4.662 10.417-10.416 10.417" fill="#fff" fill-rule="nonzero"/>
        <path d="M4986.39 3573.43h-276.005c-32.662 0-59.141-26.48-59.141-59.142 0-32.667 26.479-59.146 59.141-59.146h276.005c32.662 0 59.141 26.479 59.141 59.146 0 32.662-26.479 59.142-59.141 59.142" fill="#006aff" fill-rule="nonzero"/>
        <path d="M4610.46 5456.61H3268.14c-71.2 0-128.921-57.721-128.921-128.921v-754.762c0-71.2 57.721-128.917 128.921-128.917h1342.32c71.2 0 128.921 57.717 128.921 128.917v754.762c0 71.2-57.721 128.921-128.921 128.921" fill="#03073f" fill-rule="nonzero"/>
        <path fill="#bbd7fe" d="M3414.61 4678.56h696.15v16.667h-696.15z"/>
        <path d="M4410.18 4816.96h-824.096c-8.054 0-14.583-6.529-14.583-14.583s6.529-14.583 14.583-14.583h824.096c8.054 0 14.583 6.529 14.583 14.583s-6.529 14.583-14.583 14.583" fill="#fe2326" fill-rule="nonzero"/>
        <path fill="#bbd7fe" d="M3414.61 4909.53h664v16.667h-664zM3414.61 5025.01h995.571v16.667H3414.61zM3630.08 5140.49h721.217v16.667H3630.08z"/>
        <path d="M4410.18 5278.89h-889.388c-8.054 0-14.583-6.529-14.583-14.584 0-8.054 6.529-14.583 14.583-14.583h889.388c8.054 0 14.583 6.529 14.583 14.583 0 8.055-6.529 14.584-14.583 14.584" fill="#fe2326" fill-rule="nonzero"/>
        <path d="M8842.45 2924.25H7713.9c-35.183 0-63.704-28.521-63.704-63.7V1732c0-35.179 28.521-63.7 63.704-63.7h1128.55c35.183 0 63.7 28.521 63.7 63.7v1128.55c0 35.179-28.517 63.7-63.7 63.7" fill="#fff" fill-rule="nonzero"/>
        <path d="M8274.28 1956.71c39.859 0 72.217 32.358 72.217 72.221 0 39.962-32.358 72.316-72.217 72.316-39.966 0-72.32-32.354-72.32-72.316 0-39.863 32.354-72.221 72.32-72.221m-171.62 286.95v.096c5.679 57.82 19.375 115.429 41.687 169.895l.508 1.417 15.434 37.583c7.154 17.417 21.766 30.584 39.687 36.375 25.35 8.188 51.946 12.563 79.275 12.563 22.579 0 44.621-2.963 65.921-8.621 18.967-5.033 34.379-18.887 41.813-37.05l16.716-40.846.509-1.421c22.312-54.47 36.008-112.079 41.683-169.895v-.096c8.321-86.117-1.213-173.042-26.671-252.159-28.708-89.154-77.896-168.37-144.942-225.07-84.695 71.608-140.887 179.125-163.304 297.391-11.254 58.321-14.1 119.175-8.316 179.838" fill="#006aff" fill-rule="nonzero"/>
        <path d="M8228.84 2776.38l45.446 59.742 45.442-59.742c52.366-68.862 51.912-160.933 6.22-228.412-4.254-6.275-11.495-9.696-19.058-9.096-20.954 1.667-41.979 1.092-62.621-1.804-7.858-1.104-15.633 2.158-20.171 8.667-47.162 67.604-48.3 161.045 4.742 230.645" fill="#fe2326" fill-rule="nonzero"/>
        <path d="M8219.82 2376.6l55.991-21.971-162.929-118.371-38.554 28.013c-74.162 53.879-105.192 149.383-76.862 236.566 6.291 19.367 31.629 23.896 44.25 7.913a424.348 424.348 0 01178.104-132.15" fill="#006aff" fill-rule="nonzero"/>
        <path d="M8327.89 2376.6l-55.992-21.971 162.93-118.371 38.554 28.013c74.162 53.879 105.191 149.383 76.862 236.566-6.291 19.367-31.629 23.896-44.246 7.913a424.392 424.392 0 00-178.108-132.15" fill="#006aff" fill-rule="nonzero"/>
        <path d="M2293.99 2310.71h-928.763c-28.954 0-52.425-23.471-52.425-52.425v-928.763c0-28.954 23.471-52.425 52.425-52.425h928.763c28.954 0 52.425 23.471 52.425 52.425v928.763c0 28.954-23.471 52.425-52.425 52.425M5229.63 4124.52c-2.079 0-4.179-.617-6.004-1.913-4.696-3.321-5.816-9.817-2.491-14.517 87.237-123.416 126.829-266.016 165.116-403.92 7.404-26.663 15.059-54.238 22.925-81.159 11.875-40.671 38.854-72.066 74.013-86.137 35.183-14.079 74.679-10.175 111.208 10.996 35.004 20.287 57.171 50.8 78.604 80.308 29.671 40.846 57.696 79.421 117.488 84.992 58.921 5.445 118.962-27.421 146.037-80.025 23.909-46.455 21.734-99.259 19.429-155.163-1.537-37.383-3.133-76.037 3.625-113.225 20.138-110.783 121.121-203.933 240.113-221.496 109.167-16.075 228.633 28.313 311.867 115.896 81.42 85.675 109.195 194.971 136.05 300.671 5.47 21.512 11.12 43.758 17.141 65.458 28.846 104.034 65.988 208.192 173.284 239.129 78.454 22.617 170.32-3.879 204.787-59.041 25.742-41.192 45.879-70.109 59.858-85.942 25.717-29.183 70.563-43.046 116.955-36.179 39.97 5.917 71.683 26.637 84.829 55.425 60.279 132.475 163.925 302.567 315.379 360.596 5.371 2.062 8.058 8.087 6.004 13.458-2.058 5.371-8.083 8.054-13.458 6-158.046-60.562-264.992-235.404-326.884-371.412-10.195-22.33-35.962-38.58-68.925-43.459-38.912-5.741-77.487 5.759-98.275 29.35-13.233 14.992-32.683 42.975-57.816 83.204-39.063 62.521-141.45 93.034-228.225 68.021-117.617-33.916-158.5-148.679-187.592-253.583-6.079-21.921-11.758-44.275-17.25-65.896-27.404-107.85-53.292-209.717-130.967-291.446-78.637-82.758-191.183-124.766-293.716-109.637-110.429 16.291-204.075 102.346-222.659 204.612-6.345 34.913-4.8 72.392-3.308 108.638 2.313 56.15 4.7 114.204-21.721 165.55-30.871 59.979-99.35 97.516-166.487 91.241-69.184-6.445-101.329-50.695-132.417-93.495-20.162-27.755-41.012-56.45-72.2-74.525-30.858-17.892-63.896-21.334-93.017-9.68-29.604 11.846-51.537 37.646-61.758 72.638-7.821 26.783-15.458 54.292-22.846 80.892-38.762 139.62-78.85 283.991-168.183 410.37a10.396 10.396 0 01-8.513 4.405" fill="#fe2326" fill-rule="nonzero"/>
        <path d="M5229.64 4107.57c261.284-232.466 300.684-26.1 570.888-134.4 188.954-75.733 144.196-317.116 400.571-313.1 238.562 3.734 287.258 314.488 472.308 386.167 201.504 78.054 268.233-50.092 455.625-67.212 234.704-21.438 273.854 40.408 487.087 128.545h-2386.48z" fill="#bbd7fe" fill-rule="nonzero"/>
        <path d="M7582.29 4127.03c-1.992 0-4.001-.567-5.78-1.754-139.416-93.138-260.512-214.484-350.2-350.929-89.762-136.555-148.783-289.317-170.675-441.775-5.233-36.442-8.587-73.663-11.833-109.655-6.846-75.954-13.921-154.491-39.108-227.908-33.117-96.521-115.617-207.771-247.846-230.554-158.054-27.221-302.229 85.492-369.275 201.754-42.029 72.875-66.625 153.829-90.409 232.117-16.729 55.083-34.037 112.041-57.354 166.371-69.796 162.604-195.529 269.25-336.337 285.275-33.684 3.829-68.396 2.616-101.959 1.45-54.887-1.921-106.733-3.73-153.908 14.691-70.937 27.688-111.254 94.8-132.592 146.225-36.408 87.759-89.479 166.013-149.441 220.35-57.625 52.221-113.188 74.567-152.45 61.279-5.446-1.841-8.371-7.754-6.529-13.204 1.841-5.446 7.745-8.371 13.204-6.529 31.412 10.608 80.683-10.675 131.787-56.983 57.725-52.313 108.934-127.921 144.184-212.896 32.82-79.108 82.704-133.625 144.258-157.65 51.192-19.979 107.642-18.013 162.212-16.108 32.821 1.141 66.742 2.333 98.884-1.33 133.279-15.166 252.737-117.141 319.546-272.791 22.862-53.267 39.995-109.667 56.562-164.204 24.125-79.409 49.071-161.525 92.292-236.471 70.541-122.325 222.95-240.817 390.862-211.875 141.196 24.325 228.959 142.162 264.009 244.321 26.012 75.795 33.2 155.612 40.158 232.8 3.221 35.729 6.546 72.666 11.704 108.562 21.463 149.45 79.375 299.279 167.463 433.296 88.17 134.133 207.245 253.45 344.366 345.046 4.784 3.196 6.071 9.662 2.875 14.45a10.408 10.408 0 01-8.671 4.629" fill="#fff" fill-rule="nonzero"/>
        <path d="M5289.52 4088.87c0 29.666-24.05 53.712-53.713 53.712-29.666 0-53.712-24.046-53.712-53.712 0-29.667 24.046-53.713 53.712-53.713 29.663 0 53.713 24.046 53.713 53.713M7644.18 4088.87c0 29.666-24.05 53.712-53.713 53.712-29.666 0-53.712-24.046-53.712-53.712 0-29.667 24.046-53.713 53.712-53.713 29.663 0 53.713 24.046 53.713 53.713M7239.15 3689.65c0 29.667-24.05 53.713-53.713 53.713-29.666 0-53.712-24.046-53.712-53.713 0-29.666 24.046-53.712 53.712-53.712 29.663 0 53.713 24.046 53.713 53.712M6356.52 3161.23c0 29.666-24.05 53.712-53.712 53.712-29.667 0-53.713-24.046-53.713-53.712 0-29.667 24.046-53.713 53.713-53.713 29.662 0 53.712 24.046 53.712 53.713M6005.21 3619.97c0 29.667-24.05 53.712-53.712 53.712-29.667 0-53.713-24.045-53.713-53.712s24.046-53.713 53.713-53.713c29.662 0 53.712 24.046 53.712 53.713M5723.58 3640.29c0 29.667-24.05 53.713-53.713 53.713-29.666 0-53.712-24.046-53.712-53.713 0-29.666 24.046-53.712 53.712-53.712 29.663 0 53.713 24.046 53.713 53.712" fill="#006aff" fill-rule="nonzero"/>
        <path d="M7803.89 4207.76H5018.64c-8.362 0-15.137-6.775-15.137-15.137 0-8.363 6.775-15.138 15.137-15.138h2785.25c8.363 0 15.138 6.775 15.138 15.137 0 8.363-6.775 15.138-15.138 15.138" fill="#fff" fill-rule="nonzero"/>
        <path d="M7631.08 4369.16c-8.362-.001-15.137-6.775-15.137-15.138v-148.313c0-8.358 6.775-15.133 15.137-15.133 8.363 0 15.138 6.775 15.138 15.133v148.313c0 8.363-6.775 15.137-15.138 15.137" fill="#fff" fill-rule="nonzero"/>
        <path d="M7331.74 4368.01c-7.729 0-13.991-6.262-13.991-13.992v-148.312c0-7.733 6.262-13.996 13.991-13.996 7.73 0 13.992 6.263 13.992 13.996v148.313c0 7.729-6.262 13.991-13.992 13.991" fill="#d3e4f5" fill-rule="nonzero"/>
        <path d="M6583.39 4369.16c-8.362-.001-15.137-6.775-15.137-15.138v-148.313c0-8.358 6.775-15.133 15.137-15.133 8.363 0 15.138 6.775 15.138 15.133v148.313c0 8.363-6.775 15.137-15.138 15.137M5191.45 4369.16c-8.363-.001-15.137-6.775-15.137-15.138l-.001-148.313c.001-8.358 6.775-15.133 15.138-15.133s15.137 6.775 15.137 15.133l.001 148.313c-.001 8.363-6.775 15.137-15.138 15.137" fill="#fff" fill-rule="nonzero"/>
        <path d="M1722.67 5953.94H874.091c-36.905 0-66.821-29.917-66.821-66.821v-1723.07c0-36.904 29.916-66.821 66.821-66.821h848.579c36.904 0 66.821 29.917 66.821 66.821v1723.07c0 36.904-29.917 66.821-66.821 66.821" fill="#03073f" fill-rule="nonzero"/>
        <path d="M1418.65 4219.15h-240.541a8.334 8.334 0 010-16.666h240.541c4.6 0 8.334 3.733 8.334 8.333s-3.734 8.333-8.334 8.333" fill="#d9eaff" fill-rule="nonzero"/>
        <path fill="#fff" d="M848.787 4317.83h899.188v1358.79H848.787z"/>
        <path d="M1566.08 4997.23c0 147.846-119.854 267.7-267.7 267.7s-267.7-119.854-267.7-267.7 119.854-267.7 267.7-267.7 267.7 119.854 267.7 267.7" fill="#fe2326" fill-rule="nonzero"/>
        <path d="M1298.38 5162.7c-91.242 0-165.475-74.229-165.475-165.475 0-71.592 45.65-134.754 113.6-157.171 6.55-2.175 13.62 1.396 15.783 7.958 2.162 6.555-1.396 13.621-7.954 15.784-57.675 19.029-96.429 72.65-96.429 133.429 0 77.458 63.016 140.475 140.475 140.475 77.454 0 140.47-63.017 140.47-140.475 0-60.662-38.654-114.258-96.187-133.35-6.55-2.175-10.1-9.25-7.925-15.804 2.171-6.55 9.237-10.092 15.804-7.925 67.771 22.496 113.308 85.621 113.308 157.079 0 91.246-74.233 165.475-165.47 165.475" fill="#fff" fill-rule="nonzero"/>
        <path d="M1298.38 4993.45c-6.905 0-12.5-5.596-12.5-12.5v-152.971c0-6.904 5.595-12.5 12.5-12.5 6.904 0 12.5 5.596 12.5 12.5v152.971c0 6.904-5.596 12.5-12.5 12.5" fill="#fff" fill-rule="nonzero"/>
        <path d="M1366.47 5794.17c0 37.604-30.483 68.087-68.087 68.087-37.6 0-68.084-30.483-68.084-68.087s30.484-68.088 68.084-68.088c37.604 0 68.087 30.484 68.087 68.088" fill="#d9eaff" fill-rule="nonzero"/>
        <path d="M921.822 3718.87a10.408 10.408 0 01-8.421-4.267c-3.391-4.65-2.379-11.162 2.263-14.562 113.533-82.992 248.35-126.859 389.891-126.859 141.421 0 276.242 43.842 389.875 126.784 4.646 3.391 5.663 9.908 2.275 14.554-3.395 4.646-9.916 5.654-14.554 2.275-110.046-80.321-240.616-122.779-377.596-122.779-137.091 0-267.662 42.479-377.591 122.85a10.393 10.393 0 01-6.142 2.004M1535.29 3929.16c-2.125 0-4.27-.646-6.12-1.996-65.242-47.479-142.571-72.575-223.617-72.575-80.967 0-158.267 25.071-223.546 72.509-4.646 3.375-11.167 2.345-14.55-2.305-3.383-4.654-2.354-11.17 2.3-14.55 68.867-50.041 150.4-76.487 235.796-76.487 85.483 0 167.046 26.475 235.875 76.567 4.654 3.383 5.679 9.895 2.292 14.55a10.394 10.394 0 01-8.43 4.287" fill="#fe2326" fill-rule="nonzero"/>
        <path d="M921.822 3718.87a10.408 10.408 0 01-8.421-4.267c-3.391-4.65-2.379-11.162 2.263-14.562 113.533-82.992 248.35-126.859 389.891-126.859 141.421 0 276.242 43.842 389.875 126.784 4.646 3.391 5.663 9.908 2.275 14.554-3.395 4.646-9.916 5.654-14.554 2.275-110.046-80.321-240.616-122.779-377.596-122.779-137.091 0-267.662 42.479-377.591 122.85a10.393 10.393 0 01-6.142 2.004M1535.29 3929.16c-2.125 0-4.27-.646-6.12-1.996-65.242-47.479-142.571-72.575-223.617-72.575-80.967 0-158.267 25.071-223.546 72.509-4.646 3.375-11.167 2.345-14.55-2.305-3.383-4.654-2.354-11.17 2.3-14.55 68.867-50.041 150.4-76.487 235.796-76.487 85.483 0 167.046 26.475 235.875 76.567 4.654 3.383 5.679 9.895 2.292 14.55a10.394 10.394 0 01-8.43 4.287" fill="#fe2326" fill-rule="nonzero"/>
        <path d="M1535.29 3929.16c-2.125 0-4.27-.646-6.12-1.996-65.242-47.479-142.571-72.575-223.617-72.575-80.967 0-158.267 25.071-223.546 72.509-4.646 3.375-11.167 2.345-14.55-2.305-3.383-4.654-2.354-11.17 2.3-14.55 68.867-50.041 150.4-76.487 235.796-76.487 85.483 0 167.046 26.475 235.875 76.567 4.654 3.383 5.679 9.895 2.292 14.55a10.394 10.394 0 01-8.43 4.287M1611.85 3823.61a10.36 10.36 0 01-6.117-1.992c-87.6-63.666-191.4-97.321-300.175-97.321-108.725 0-212.5 33.655-300.1 97.321-4.65 3.375-11.171 2.35-14.55-2.3-3.383-4.654-2.354-11.171 2.3-14.55 91.188-66.275 199.196-101.304 312.35-101.304 113.204 0 221.238 35.029 312.425 101.304 4.654 3.379 5.684 9.896 2.3 14.55a10.403 10.403 0 01-8.433 4.292M1984.99 1820.12c0 84.413-68.429 152.842-152.842 152.842-84.416 0-152.845-68.429-152.845-152.842 0-84.412 68.429-152.842 152.845-152.842 84.413 0 152.842 68.43 152.842 152.842" fill="#fe2326" fill-rule="nonzero"/>
        <path d="M1832.36 1881.21c-46.509 0-84.563-38.054-84.563-84.558 0-46.513 38.054-84.563 84.563-84.563 46.508 0 84.558 38.05 84.558 84.563 0 46.504-38.05 84.558-84.558 84.558m271.862-45.242c1.688-20.716 1.688-19.871 3.384-40.166l-90.059-38.05c-3.804-13.109-5.075-19.025-8.879-32.134l59.192-78.221c-11.838-16.487-11.417-16.066-23.254-32.975l-93.438 28.75c-10.992-7.612-16.066-10.991-27.058-19.029l-5.075-97.666c-19.871-5.075-19.029-5.075-38.9-10.567l-53.271 82.446c-13.533 1.266-19.45 1.691-32.979 2.958l-66.804-71.875c-18.604 8.875-17.754 8.454-36.359 16.908l12.259 97.246c-9.721 9.725-13.95 13.954-23.675 23.679l-97.246-12.262c-8.454 18.604-8.034 17.758-16.913 36.362l71.875 66.8c-1.266 13.53-1.687 19.45-2.958 32.98l-82.446 53.275c5.496 19.87 5.496 19.025 10.567 38.9l97.671 5.07c8.033 10.996 11.416 16.067 19.025 27.059l-28.75 93.437c16.912 11.842 16.491 11.417 32.979 23.259l78.221-59.192c13.104 3.804 19.025 5.071 32.133 8.875l38.05 90.058c20.296-1.691 19.45-1.691 40.167-3.383l21.562-95.55c12.684-5.921 17.759-8.458 30.442-13.954l87.096 44.396c14.375-14.38 13.954-13.955 28.329-28.334l-44.392-87.096c5.492-12.683 8.034-17.754 13.95-30.437l95.554-21.567zM10052.4 2756.34h-496.688c-15.483 0-28.037-12.55-28.037-28.038v-496.687c0-15.483 12.554-28.033 28.037-28.033h496.688c15.483 0 28.037 12.55 28.037 28.033v496.687c0 15.488-12.554 28.038-28.037 28.038" fill="#fff" fill-rule="nonzero"/>
        <path d="M9652.68 2615.38v-270.837c0-8.813 7.146-15.959 15.963-15.959h270.833c8.817 0 15.963 7.146 15.963 15.959v270.837c0 8.817-7.146 15.963-15.963 15.963h-270.833c-8.817 0-15.963-7.146-15.963-15.963" fill="#fe2326" fill-rule="nonzero"/>
        <path d="M9671.48 2213.62c-5.754 0-10.416-4.662-10.416-10.416v-144.959c0-5.754 4.662-10.416 10.416-10.416 5.755 0 10.417 4.662 10.417 10.416v144.959c0 5.754-4.662 10.416-10.417 10.416M9759.87 2213.62c-5.754 0-10.416-4.662-10.416-10.416v-144.959c0-5.754 4.662-10.416 10.416-10.416 5.754 0 10.417 4.662 10.417 10.416v144.959c0 5.754-4.663 10.416-10.417 10.416M9848.26 2213.62c-5.754 0-10.416-4.662-10.416-10.416v-144.959c0-5.754 4.662-10.416 10.416-10.416 5.754 0 10.417 4.662 10.417 10.416v144.959c0 5.754-4.663 10.416-10.417 10.416M9936.65 2213.62c-5.755 0-10.417-4.662-10.417-10.416v-144.959c0-5.754 4.662-10.416 10.417-10.416 5.754 0 10.416 4.662 10.416 10.416v144.959c0 5.754-4.662 10.416-10.416 10.416M9936.65 2917.79c-5.755 0-10.417-4.663-10.417-10.417v-144.958c0-5.754 4.662-10.417 10.417-10.417 5.754 0 10.416 4.663 10.416 10.417v144.958c0 5.754-4.662 10.417-10.416 10.417M9848.26 2917.79c-5.754 0-10.416-4.663-10.416-10.417v-144.958c0-5.754 4.662-10.417 10.416-10.417 5.754 0 10.417 4.663 10.417 10.417v144.958c0 5.754-4.663 10.417-10.417 10.417M9759.87 2917.79c-5.754 0-10.416-4.663-10.416-10.417v-144.958c0-5.754 4.662-10.417 10.416-10.417 5.754 0 10.417 4.663 10.417 10.417v144.958c0 5.754-4.663 10.417-10.417 10.417M9671.48 2917.79c-5.754 0-10.416-4.663-10.416-10.417v-144.958c0-5.754 4.662-10.417 10.416-10.417 5.755 0 10.417 4.663 10.417 10.417v144.958c0 5.754-4.662 10.417-10.417 10.417M9524.46 2625.81h-144.959c-5.754 0-10.416-4.663-10.416-10.417s4.662-10.416 10.416-10.416h144.959c5.754 0 10.416 4.662 10.416 10.416 0 5.754-4.662 10.417-10.416 10.417M9524.46 2537.42h-144.959c-5.754 0-10.416-4.663-10.416-10.417s4.662-10.416 10.416-10.416h144.959c5.754 0 10.416 4.662 10.416 10.416 0 5.754-4.662 10.417-10.416 10.417M9524.46 2449.03h-144.959c-5.754 0-10.416-4.662-10.416-10.417 0-5.754 4.662-10.416 10.416-10.416h144.959c5.754 0 10.416 4.662 10.416 10.416 0 5.755-4.662 10.417-10.416 10.417M9524.46 2360.64h-144.959c-5.754 0-10.416-4.663-10.416-10.417s4.662-10.416 10.416-10.416h144.959c5.754 0 10.416 4.662 10.416 10.416 0 5.754-4.662 10.417-10.416 10.417M10228.6 2360.64h-144.958c-5.754 0-10.417-4.663-10.417-10.417s4.663-10.416 10.417-10.416h144.958c5.755 0 10.417 4.662 10.417 10.416 0 5.754-4.662 10.417-10.417 10.417M10228.6 2449.03h-144.958c-5.754 0-10.417-4.662-10.417-10.417 0-5.754 4.663-10.416 10.417-10.416h144.958c5.755 0 10.417 4.662 10.417 10.416 0 5.755-4.662 10.417-10.417 10.417M10228.6 2537.42h-144.958c-5.754 0-10.417-4.663-10.417-10.417s4.663-10.416 10.417-10.416h144.958c5.755 0 10.417 4.662 10.417 10.416 0 5.754-4.662 10.417-10.417 10.417M10228.6 2625.81h-144.958c-5.754 0-10.417-4.663-10.417-10.417s4.663-10.416 10.417-10.416h144.958c5.755 0 10.417 4.662 10.417 10.416 0 5.754-4.662 10.417-10.417 10.417" fill="#fff" fill-rule="nonzero"/>
        <path d="M6891.5 59.99c-3.579 0-7.142-1.5-9.658-4.43-4.588-5.337-3.975-13.375 1.354-17.958l40.179-34.533a12.735 12.735 0 0116.604 0l11.321 9.729c5.329 4.579 5.937 12.621 1.354 17.954-4.592 5.338-12.629 5.938-17.958 1.358l-3.017-2.595-31.883 27.4a12.688 12.688 0 01-8.296 3.075m180.25 85.858a12.673 12.673 0 01-8.296-3.075l-51.504-44.267c-5.329-4.579-5.942-12.621-1.354-17.954 4.587-5.342 12.621-5.942 17.958-1.358l51.5 44.266c5.329 4.584 5.942 12.625 1.354 17.959a12.696 12.696 0 01-9.658 4.429m-309 24.808a12.712 12.712 0 01-9.663-4.433c-4.583-5.333-3.975-13.375 1.355-17.954l51.504-44.267c5.333-4.592 13.371-3.983 17.954 1.354 4.587 5.334 3.975 13.375-1.354 17.954l-51.5 44.267a12.687 12.687 0 01-8.296 3.079m437.75 85.859a12.678 12.678 0 01-8.296-3.075l-51.5-44.267c-5.333-4.583-5.942-12.625-1.358-17.958 4.587-5.338 12.625-5.942 17.958-1.355l51.5 44.267c5.333 4.583 5.942 12.621 1.359 17.958a12.706 12.706 0 01-9.663 4.43m-566.504 24.804a12.7 12.7 0 01-9.659-4.429c-4.587-5.338-3.975-13.375 1.355-17.959l51.5-44.266c5.337-4.588 13.37-3.975 17.958 1.354 4.587 5.337 3.975 13.375-1.354 17.958l-51.504 44.267a12.69 12.69 0 01-8.296 3.075m695.258 85.858a12.68 12.68 0 01-8.3-3.079l-51.5-44.263c-5.329-4.579-5.941-12.62-1.354-17.954 4.583-5.341 12.621-5.941 17.954-1.354l51.504 44.263c5.33 4.579 5.938 12.62 1.355 17.954a12.71 12.71 0 01-9.659 4.433m-824.012 24.808a12.71 12.71 0 01-9.663-4.433c-4.583-5.333-3.975-13.375 1.359-17.954l51.499-44.267c5.338-4.587 13.371-3.979 17.959 1.354 4.583 5.334 3.975 13.375-1.358 17.955l-51.5 44.266a12.668 12.668 0 01-8.296 3.079m952.766 85.855a12.682 12.682 0 01-8.296-3.075l-51.504-44.267c-5.329-4.583-5.937-12.621-1.354-17.958 4.588-5.342 12.621-5.934 17.959-1.355l51.5 44.267c5.329 4.583 5.941 12.621 1.354 17.958a12.696 12.696 0 01-9.659 4.43m-1081.52 24.804c-3.58 0-7.138-1.5-9.659-4.429-4.583-5.334-3.975-13.375 1.354-17.959l51.505-44.262c5.333-4.588 13.37-3.979 17.954 1.354 4.587 5.337 3.975 13.375-1.354 17.958l-51.5 44.263a12.692 12.692 0 01-8.3 3.075m1210.27 85.862a12.66 12.66 0 01-8.296-3.079l-51.499-44.267c-5.334-4.579-5.942-12.62-1.355-17.954 4.584-5.337 12.621-5.941 17.954-1.354l51.501 44.267c5.333 4.579 5.941 12.621 1.358 17.954a12.71 12.71 0 01-9.663 4.433m-1339.02 24.804c-3.579 0-7.141-1.5-9.658-4.433-4.587-5.333-3.975-13.371 1.354-17.954l51.496-44.267c5.333-4.587 13.367-3.983 17.958 1.354 4.584 5.334 3.98 13.371-1.354 17.959l-51.5 44.266a12.673 12.673 0 01-8.296 3.075m1467.78 85.855a12.696 12.696 0 01-8.3-3.075l-51.5-44.263c-5.329-4.583-5.942-12.621-1.354-17.958 4.583-5.338 12.62-5.938 17.954-1.354l51.504 44.262c5.329 4.583 5.942 12.625 1.354 17.958a12.695 12.695 0 01-9.658 4.43m-1596.53 24.808c-3.583 0-7.141-1.5-9.662-4.429-4.583-5.334-3.975-13.375 1.358-17.959l51.5-44.266c5.329-4.584 13.367-3.984 17.954 1.358 4.588 5.333 3.98 13.375-1.354 17.954l-51.5 44.267a12.68 12.68 0 01-8.296 3.075m-61.837 85.858h-38.058a12.73 12.73 0 01-11.938-8.304 12.737 12.737 0 013.638-14.083l22.641-19.459c5.338-4.591 13.367-3.979 17.954 1.355 3.721 4.325 4.021 10.429 1.159 15.029h4.604c7.029 0 12.733 5.7 12.733 12.729 0 7.033-5.704 12.733-12.733 12.733m169.775 0h-67.908c-7.03 0-12.734-5.7-12.734-12.733 0-7.029 5.704-12.729 12.734-12.729h67.908c7.029 0 12.733 5.7 12.733 12.729 0 7.033-5.704 12.733-12.733 12.733m1360.58 0h-67.912c-7.03 0-12.73-5.7-12.73-12.733 0-7.029 5.7-12.729 12.73-12.729h67.912c7.033 0 12.733 5.7 12.733 12.729 0 7.033-5.7 12.733-12.733 12.733m169.775 0h-67.912c-7.03 0-12.73-5.7-12.73-12.733 0-7.029 5.7-12.729 12.73-12.729h67.912c7.033 0 12.733 5.7 12.733 12.729 0 7.033-5.7 12.733-12.733 12.733m86.992 0a12.673 12.673 0 01-8.296-3.075l-51.504-44.266c-5.329-4.584-5.938-12.625-1.354-17.959 4.587-5.341 12.625-5.937 17.958-1.354l51.5 44.267c5.333 4.579 5.942 12.621 1.354 17.954a12.688 12.688 0 01-9.658 4.433m-1498.37 50.8c-7.033 0-12.733-5.7-12.733-12.729v-38.071h-4.375c-7.03 0-12.73-5.7-12.73-12.733 0-7.029 5.7-12.729 12.73-12.729h17.108c7.029 0 12.729 5.7 12.729 12.729v50.804c0 7.029-5.7 12.729-12.729 12.729m1171.57 116.85c-7.03 0-12.73-5.7-12.73-12.729V896.84c0-7.034 5.7-12.734 12.73-12.734 7.033 0 12.733 5.7 12.733 12.734v67.912c0 7.029-5.7 12.729-12.733 12.729m-1171.57 52.925c-7.033 0-12.733-5.7-12.733-12.729v-67.908c0-7.034 5.7-12.734 12.733-12.734 7.029 0 12.729 5.7 12.729 12.734v67.908c0 7.029-5.7 12.729-12.729 12.729m1171.57 116.85c-7.03 0-12.73-5.7-12.73-12.729v-67.912c0-7.034 5.7-12.734 12.73-12.734 7.033 0 12.733 5.7 12.733 12.734v67.912c0 7.029-5.7 12.729-12.733 12.729m-1171.57 52.929c-7.033 0-12.733-5.7-12.733-12.729v-67.912c0-7.034 5.7-12.734 12.733-12.734 7.029 0 12.729 5.7 12.729 12.734v67.912c0 7.029-5.7 12.729-12.729 12.729m1171.57 116.846c-7.03 0-12.73-5.7-12.73-12.729v-67.908c0-7.034 5.7-12.734 12.73-12.734 7.033 0 12.733 5.7 12.733 12.734v67.908c0 7.029-5.7 12.729-12.733 12.729m-1169.32 52.821c-6.3 0-11.771-4.675-12.613-11.087a284.548 284.548 0 01-2.37-36.655v-32.791c0-7.029 5.7-12.734 12.733-12.734 7.029 0 12.729 5.705 12.729 12.734v32.791c0 11.146.729 22.367 2.163 33.359.908 6.975-4.009 13.366-10.98 14.275-.562.071-1.112.108-1.662.108m1127.37 108.883c-2.346 0-4.721-.65-6.846-2.004-5.921-3.787-7.658-11.658-3.871-17.587a253.664 253.664 0 0027.538-58.296c2.175-6.696 9.358-10.35 16.045-8.183 6.688 2.17 10.35 9.354 8.184 16.041a279.428 279.428 0 01-30.309 64.15 12.727 12.727 0 01-10.741 5.879m-1055 41.513a12.689 12.689 0 01-9.183-3.913 281.692 281.692 0 01-42.313-56.925c-3.45-6.125-1.275-13.891 4.854-17.341 6.125-3.45 13.888-1.279 17.342 4.85a255.967 255.967 0 0038.483 51.775c4.871 5.071 4.709 13.129-.362 18.004a12.68 12.68 0 01-8.821 3.55m925.875 64.283c-5.108 0-9.925-3.096-11.879-8.141-2.538-6.559.721-13.934 7.279-16.471a254.452 254.452 0 0056.704-30.729c5.704-4.105 13.667-2.805 17.767 2.904 4.112 5.704 2.808 13.662-2.9 17.766a279.603 279.603 0 01-62.384 33.809 12.71 12.71 0 01-4.587.862m-778.5 14.063c-.717 0-1.442-.063-2.175-.188a278.78 278.78 0 01-67.825-20.816c-6.404-2.905-9.246-10.45-6.338-16.855 2.9-6.404 10.45-9.237 16.855-6.341a253.103 253.103 0 0061.625 18.912c6.929 1.188 11.583 7.775 10.391 14.709-1.066 6.2-6.45 10.579-12.533 10.579m169.525 3.875h-67.908c-7.034 0-12.734-5.7-12.734-12.729 0-7.034 5.7-12.734 12.734-12.734h67.908c7.033 0 12.733 5.7 12.733 12.734 0 7.029-5.7 12.729-12.733 12.729m169.779 0h-67.912c-7.034 0-12.734-5.7-12.734-12.729 0-7.034 5.7-12.734 12.734-12.734h67.912c7.029 0 12.729 5.7 12.729 12.734 0 7.029-5.7 12.729-12.729 12.729m169.775 0h-67.912c-7.034 0-12.734-5.7-12.734-12.729 0-7.034 5.7-12.734 12.734-12.734h67.912c7.029 0 12.729 5.7 12.729 12.734 0 7.029-5.7 12.729-12.729 12.729m169.775 0h-67.908c-7.034 0-12.734-5.7-12.734-12.729 0-7.034 5.7-12.734 12.734-12.734h67.908c7.029 0 12.729 5.7 12.729 12.734 0 7.029-5.7 12.729-12.729 12.729" fill="#bbd7fe" fill-rule="nonzero"/>
        <path d="M6547.95 768.929a10.41 10.41 0 01-8.421-4.266c-3.391-4.65-2.379-11.163 2.263-14.563 113.529-82.992 248.346-126.858 389.887-126.858 141.425 0 276.246 43.841 389.88 126.783 4.645 3.392 5.662 9.908 2.275 14.554-3.396 4.646-9.917 5.654-14.555 2.275-110.045-80.321-240.616-122.779-377.6-122.779-137.091 0-267.662 42.479-377.587 122.85a10.389 10.389 0 01-6.142 2.004M7161.41 979.22a10.34 10.34 0 01-6.121-1.996c-65.238-47.479-142.567-72.575-223.617-72.575-80.962 0-158.262 25.071-223.541 72.508-4.65 3.371-11.171 2.346-14.55-2.304-3.384-4.654-2.355-11.171 2.3-14.55 68.866-50.041 150.4-76.487 235.791-76.487 85.488 0 167.05 26.475 235.875 76.566 4.654 3.384 5.679 9.896 2.292 14.55a10.391 10.391 0 01-8.429 4.288" fill="#fe2326" fill-rule="nonzero"/>
        <path d="M6547.95 768.929a10.41 10.41 0 01-8.421-4.266c-3.391-4.65-2.379-11.163 2.263-14.563 113.529-82.992 248.346-126.858 389.887-126.858 141.425 0 276.246 43.841 389.88 126.783 4.645 3.392 5.662 9.908 2.275 14.554-3.396 4.646-9.917 5.654-14.555 2.275-110.045-80.321-240.616-122.779-377.6-122.779-137.091 0-267.662 42.479-377.587 122.85a10.389 10.389 0 01-6.142 2.004M7161.41 979.22a10.34 10.34 0 01-6.121-1.996c-65.238-47.479-142.567-72.575-223.617-72.575-80.962 0-158.262 25.071-223.541 72.508-4.65 3.371-11.171 2.346-14.55-2.304-3.384-4.654-2.355-11.171 2.3-14.55 68.866-50.041 150.4-76.487 235.791-76.487 85.488 0 167.05 26.475 235.875 76.566 4.654 3.384 5.679 9.896 2.292 14.55a10.391 10.391 0 01-8.429 4.288" fill="#fe2326" fill-rule="nonzero"/>
        <path d="M7161.41 979.22a10.34 10.34 0 01-6.121-1.996c-65.238-47.479-142.567-72.575-223.617-72.575-80.962 0-158.262 25.071-223.541 72.508-4.65 3.371-11.171 2.346-14.55-2.304-3.384-4.654-2.355-11.171 2.3-14.55 68.866-50.041 150.4-76.487 235.791-76.487 85.488 0 167.05 26.475 235.875 76.566 4.654 3.384 5.679 9.896 2.292 14.55a10.391 10.391 0 01-8.429 4.288M7006.72 1114.29c0 41.421-33.579 75-75 75s-75-33.579-75-75 33.579-75 75-75 75 33.579 75 75M7237.97 873.674a10.36 10.36 0 01-6.117-1.992c-87.604-63.667-191.404-97.321-300.179-97.321-108.721 0-212.496 33.654-300.1 97.321-4.65 3.375-11.171 2.35-14.55-2.3-3.383-4.654-2.354-11.171 2.3-14.55 91.192-66.275 199.2-101.304 312.35-101.304 113.2 0 221.238 35.029 312.429 101.304 4.655 3.379 5.684 9.896 2.3 14.55a10.403 10.403 0 01-8.433 4.292" fill="#fe2326" fill-rule="nonzero"/>
    </g>
</svg>
