<svg viewBox="0 0 925 776" xmlns="http://www.w3.org/2000/svg" fill-rule="evenodd" clip-rule="evenodd" stroke-linejoin="round" stroke-miterlimit="2">
    <path d="M420.349 95.626c.217.154.433.313.654.467 41.4 29.45 96.583 30.575 140.3 4.687 41.104-24.337 93.033-52.52 126.354-57.85 21.338-3.416 43.446-1.579 63.1 7.4 53.046 24.23 55.638 77.88 56.229 125.888l.05 4.004c.605 48.917 22.159 94.708 57.784 128.242 39.923 37.583 63.633 84.275 59.083 145.425-8.25 110.962-352.167 354.595-568.121 317.712-454.271-77.583-499.546-1080.07 64.567-675.975" fill="#eaf4fe" fill-rule="nonzero"/>
    <path d="M436.979 61.581a175.437 175.437 0 00-19.141-.608l-.1-4.167c6.504-.142 13.129.058 19.604.625l-.363 4.15zm-53.308 3.667l-.933-4.063a176.118 176.118 0 0119.341-3.308l.471 4.142c-6.349.722-12.651 1.8-18.879 3.23m87.121 2.782a170.963 170.963 0 00-18.625-4.437l.733-4.1a175.642 175.642 0 0119.083 4.541l-1.191 3.996zm-119.721 8.304l-1.738-3.783c5.95-2.73 12.05-5.12 18.271-7.158l1.3 3.962a169.312 169.312 0 00-17.833 6.98m151.521 4.845a169.507 169.507 0 00-17.334-8.108l1.55-3.867a175.614 175.614 0 0117.759 8.304l-1.975 3.671zM321.383 93.785l-2.462-3.358a175.892 175.892 0 0116.45-10.692l2.071 3.617a170.962 170.962 0 00-16.059 10.433m209.713 6.688a171.475 171.475 0 00-15.358-11.434l2.295-3.475a174.49 174.49 0 0115.734 11.71l-2.671 3.2zm-311.154 4.683c-4.279-.433-8.65-.57-12.921-.642-2.048 0-4.096.046-6.142.142l-.191-4.158c2.133-.104 4.283-.042 6.45-.15 4.391 0 8.841.221 13.22.666l-.416 4.142zm-52.738 5.68l-1.296-3.963a131.789 131.789 0 0119.113-4.704l.692 4.112a126.914 126.914 0 00-18.509 4.554m86.034 2.304a126.953 126.953 0 00-18.234-5.545l.913-4.07a131.79 131.79 0 0118.833 5.732l-1.512 3.883zm42.558 3.696l-3.088-2.8a177.971 177.971 0 0113.975-13.766l2.759 3.125a172.902 172.902 0 00-13.646 13.441m259.379 8.254a172.417 172.417 0 00-12.767-14.275l2.946-2.945a176.514 176.514 0 0113.075 14.625l-3.254 2.595zm-418.787.696l-2.309-3.475a132.408 132.408 0 0117.171-9.637l1.763 3.775a127.199 127.199 0 00-16.625 9.337m148.095 4.871l-1.654-1.22a127.211 127.211 0 00-15.725-9.93l1.963-3.675a132.018 132.018 0 0116.237 10.25l-.954 1.296 1.667 1.262-1.534 2.017zm-173.841 17.717l-3.142-2.734a133.017 133.017 0 0114-13.837l2.704 3.171a129.397 129.397 0 00-13.562 13.4m463.187 5.658a171.3 171.3 0 00-9.646-16.546l3.475-2.296a175.189 175.189 0 019.88 16.946l-3.709 1.896zM91.796 176.952l-3.754-1.804a132.424 132.424 0 019.833-17.042l3.442 2.346a127.779 127.779 0 00-9.521 16.5m494.467 9.196a169.33 169.33 0 00-6.1-18.167l3.87-1.546a173.648 173.648 0 016.25 18.613l-4.02 1.1zM81.238 209.523l-4.1-.742a130.726 130.726 0 014.933-19.058l3.946 1.341a127.288 127.288 0 00-4.779 18.46m-5.663 34.582a131.44 131.44 0 01-.3-19.683l4.158.246a127.421 127.421 0 00.292 19.062l-4.15.375zm-15.771 26.088l-2.771-3.117a172.402 172.402 0 0115.392-12.175l2.392 3.412a168.226 168.226 0 00-15.013 11.88m-23.229 25.404l-3.35-2.484a172.16 172.16 0 0112.563-15.075l3.045 2.85a166.273 166.273 0 00-12.258 14.71m-17.487 29.624l-3.792-1.734c2.708-5.92 5.8-11.758 9.183-17.337l3.563 2.158a165.524 165.524 0 00-8.954 16.913m-10.967 32.6l-4.063-.909a169.28 169.28 0 015.375-18.862l3.934 1.375a166.028 166.028 0 00-5.246 18.396M4.167 392.01L0 391.96c.083-6.554.538-13.137 1.358-19.575l4.134.53a168.203 168.203 0 00-1.325 19.095m-.959 35.075a170.473 170.473 0 01-2.679-19.433l4.154-.333a166.716 166.716 0 002.613 18.958l-4.088.808zm701.163 14.046l-4.004-1.158a164.823 164.823 0 004.221-18.667l4.108.683a169.583 169.583 0 01-4.325 19.142m-690.75 19.667a168.462 168.462 0 01-6.663-18.467l3.996-1.179a164.9 164.9 0 006.496 18.004l-3.829 1.642zm677.5 13.016l-3.679-1.962a165.61 165.61 0 008.004-17.37l3.875 1.52a169.838 169.838 0 01-8.2 17.812M30.808 491.62a168.903 168.903 0 01-10.345-16.684l3.662-1.983a165.462 165.462 0 0010.088 16.267l-3.405 2.4zm640.58 11.43l-3.192-2.676a167.293 167.293 0 0011.425-15.354l3.479 2.295a172.37 172.37 0 01-11.712 15.734M53.967 518.22a172.621 172.621 0 01-13.55-14.192l3.175-2.7c4.116 4.842 8.566 9.5 13.221 13.846l-2.846 3.046zm592.096 9.387l-2.575-3.27c4.995-3.938 9.82-8.2 14.341-12.684l2.934 2.954a170.747 170.747 0 01-14.7 13M82.1 539.494a169.45 169.45 0 01-16.175-11.096l2.55-3.296a165.358 165.358 0 0015.775 10.83l-2.15 3.562zm534.125 6.937l-1.846-3.733a166.46 166.46 0 0016.65-9.459l2.263 3.5a169.797 169.797 0 01-17.067 9.692m-502.204 8.08a170.94 170.94 0 01-18.125-7.517l1.812-3.75a165.62 165.62 0 0017.684 7.325l-1.371 3.941zm469.1 4.153l-1.029-4.037a166.349 166.349 0 0018.254-5.796l1.487 3.892a170.688 170.688 0 01-18.712 5.941m-434.758 3.888a169.46 169.46 0 01-19.288-3.583l.996-4.046a164.745 164.745 0 0018.812 3.496l-.52 4.133zm399.854 1.2l-.171-4.167a165.508 165.508 0 0019.05-1.879l.646 4.121a172.211 172.211 0 01-19.525 1.925m-364.738.15h-13.608c-1.963 0-3.913-.033-5.858-.1l.141-4.167c1.896.067 3.804.1 5.717.1h13.608v4.167zm34.913 0h-19.396v-4.167h19.396v4.167zm34.912 0h-19.396v-4.167h19.396v4.167zm34.917 0h-19.396v-4.167h19.396v4.167zm34.912 0h-19.395v-4.167h19.395v4.167zm34.917 0h-19.396v-4.167h19.396v4.167zm34.913 0h-19.396v-4.167h19.396v4.167zm34.912 0h-19.396v-4.167h19.396v4.167zm34.917 0h-19.396v-4.167h19.396v4.167zm34.912 0h-19.396v-4.167h19.396v4.167zm34.917 0h-19.396v-4.167h19.396v4.167z" fill="#bbd7fe" fill-rule="nonzero"/>
    <path d="M596.286 615.96H254.707c-85.267 0-154.392-69.126-154.392-154.397 0-85.267 69.125-154.392 154.392-154.392h341.579c85.271 0 154.396 69.125 154.396 154.392 0 85.271-69.125 154.396-154.396 154.396" fill="#006aff" fill-rule="nonzero"/>
    <path d="M645.31 311.81c0 87.617-71.029 158.646-158.645 158.646-87.617 0-158.646-71.029-158.646-158.646 0-87.617 71.029-158.646 158.646-158.646 87.616 0 158.645 71.03 158.645 158.646" fill="#006aff" fill-rule="nonzero"/>
    <path d="M408.403 312.786c0 66.008-53.508 119.517-119.516 119.517-66.009 0-119.517-53.509-119.517-119.517S222.878 193.27 288.887 193.27c66.008 0 119.516 53.51 119.516 119.517" fill="#006aff" fill-rule="nonzero"/>
    <path fill="#fff" d="M405.306 594.7h71.775v32.461h-71.775z"/>
    <path d="M405.305 636.986c0 11.558 9.371 20.93 20.929 20.93h29.917c11.558 0 20.929-9.372 20.929-20.93h-71.775z" fill="#fff" fill-rule="nonzero"/>
    <path fill="#fff" d="M405.306 478.453h71.775v102.408h-71.775z"/>
    <path d="M512.566 493.842L441.2 398.863l-71.384 94.98c-2.179 2.9-.108 7.045 3.521 7.045h135.708c3.63 0 5.7-4.146 3.521-7.046" fill="#fff" fill-rule="nonzero"/>
    <path d="M227.617 386.796h-34.758V286.154c0-9.6 7.779-17.379 17.379-17.379 9.6 0 17.379 7.78 17.379 17.38v100.641z" fill="#71acfd" fill-rule="nonzero"/>
    <path d="M300.295 386.796h-34.759V93.521c0-9.6 7.779-17.379 17.379-17.379 9.6 0 17.38 7.78 17.38 17.38v293.274z" fill="#fe2326" fill-rule="nonzero"/>
    <path d="M338.213 239.928v146.867h34.759V239.928c0-9.6-7.779-17.379-17.379-17.379-9.6 0-17.38 7.78-17.38 17.38" fill="#f8f9fa" fill-rule="nonzero"/>
    <path d="M437.54 283.898l69.029-39.854 69.029 39.854-69.029 39.854-69.029-39.854z" fill="#71acfd" fill-rule="nonzero"/>
    <path d="M575.599 363.61l-69.029 39.853v-79.712l69.029-39.85v79.708z" fill="#0878ff" fill-rule="nonzero"/>
    <path d="M506.57 403.463l-69.03-39.854V283.9l69.03 39.854v79.71zm88.806-119.565l69.029-39.854 69.03 39.854-69.03 39.854-69.029-39.854z" fill="#005eeb" fill-rule="nonzero"/>
    <path d="M733.435 363.61l-69.029 39.853v-79.712l69.029-39.85v79.708z" fill="#71acfd" fill-rule="nonzero"/>
    <path d="M664.406 403.463l-69.029-39.854V283.9l69.029 39.854v79.71z" fill="#0878ff" fill-rule="nonzero"/>
    <path d="M810.897 242.92h-23.163c-7.862 0-14.237-6.376-14.237-14.239V205.52c0-7.867 6.375-14.242 14.237-14.242h23.163c7.862 0 14.237 6.375 14.237 14.242v23.162c0 7.863-6.375 14.238-14.237 14.238" fill="#fff" fill-rule="nonzero"/>
    <path d="M773.495 219.182H526.574a2.093 2.093 0 01-2.038-2.084c0-1.126.912-2.058 2.038-2.083h246.921a2.093 2.093 0 012.038 2.083 2.093 2.093 0 01-2.038 2.084" fill="#fff" fill-rule="nonzero"/>
    <path d="M541.136 231.96c-.463 0-.929-.155-1.317-.468l-15.65-12.779a2.084 2.084 0 01-.079-3.162l15.654-14.104a2.066 2.066 0 012.942.15c.771.854.704 2.17-.154 2.941l-13.85 12.484 13.771 11.237c.485.396.766.99.766 1.615 0 1.143-.94 2.084-2.083 2.085M799.98 493.804a2.096 2.096 0 01-2.084-2.084V244.795a2.093 2.093 0 012.084-2.038c1.126 0 2.058.912 2.083 2.038V491.72c0 1.15-.933 2.084-2.083 2.084" fill="#fff" fill-rule="nonzero"/>
    <path d="M799.98 494.89c-.592 0-1.15-.25-1.55-.687l-14.105-15.654a2.097 2.097 0 01.155-2.942 2.077 2.077 0 012.941.15l12.479 13.85 11.242-13.77a2.096 2.096 0 012.933-.3 2.102 2.102 0 01.296 2.937l-12.779 15.65c-.383.47-.954.75-1.562.766h-.05z" fill="#fff" fill-rule="nonzero"/>
    <path d="M309.25 539.214c0 64.446-52.246 116.692-116.692 116.692-64.445 0-116.691-52.246-116.691-116.692s52.246-116.692 116.691-116.692c64.446 0 116.692 52.246 116.692 116.692" fill="#00046d" fill-rule="nonzero"/>
    <path d="M218.779 570.573h-52.441c-13.092 0-23.705-10.612-23.705-23.704s10.613-23.704 23.705-23.704h52.441c13.092 0 23.704 10.612 23.704 23.704s-10.612 23.704-23.704 23.704" fill="#fff" fill-rule="nonzero"/>
    <path d="M226.306 523.878c0 13.45-10.904 24.358-24.358 24.358-13.45 0-24.355-10.908-24.355-24.358 0-13.45 10.905-24.359 24.355-24.359 13.454 0 24.358 10.91 24.358 24.36" fill="#fff" fill-rule="nonzero"/>
    <path d="M189.934 524.028c0 10.133-8.216 18.35-18.35 18.35-10.133 0-18.35-8.217-18.35-18.35 0-10.134 8.217-18.35 18.35-18.35 10.134 0 18.35 8.216 18.35 18.35m24.539 103.333a2.08 2.08 0 01-2.079-2.088c0-.95.652-1.786 1.575-2.016 38.838-9.72 65.963-44.513 65.963-84.605 0-38.325-24.746-71.8-60.821-83.195l6.954 11.087c.604.97.308 2.264-.658 2.875a2.106 2.106 0 01-2.875-.658l-9.821-15.67a2.076 2.076 0 01-.321-1.11 2.091 2.091 0 012.592-2.02c40.696 10.187 69.116 46.658 69.116 88.691 0 42.01-28.42 78.46-69.116 88.646a2.075 2.075 0 01-.509.063" fill="#fff" fill-rule="nonzero"/>
    <path d="M214.478 454.066a2.085 2.085 0 01-2.086-2.086c0-.762.42-1.465 1.09-1.827l15.233-8.29a2.097 2.097 0 012.821.832 2.084 2.084 0 01-.833 2.83l-15.234 8.287c-.312.17-.654.254-.991.254M170.642 628.53c-.171 0-.337-.02-.508-.063-40.696-10.183-69.117-46.658-69.117-88.692 0-42.008 28.421-78.462 69.117-88.645 1.116-.259 2.25.4 2.529 1.516a2.099 2.099 0 01-1.513 2.53c-38.841 9.72-65.966 44.508-65.966 84.6 0 38.324 24.75 71.804 60.821 83.195l-6.95-11.087a2.087 2.087 0 011.764-3.193c.717 0 1.386.371 1.765.98l9.825 15.667c.45.721.416 1.646-.079 2.333-.4.546-1.03.86-1.688.86" fill="#fff" fill-rule="nonzero"/>
    <path d="M155.412 636.817a2.084 2.084 0 01-1.829-1.087 2.077 2.077 0 01.833-2.825l15.233-8.292a2.092 2.092 0 012.821.834 2.084 2.084 0 01-.833 2.83l-15.234 8.286a2.058 2.058 0 01-.991.254" fill="#fff" fill-rule="nonzero"/>
</svg>
