<svg xmlns="http://www.w3.org/2000/svg" stroke-miterlimit="2" stroke-linejoin="round" clip-rule="evenodd" fill-rule="evenodd" viewBox="0 0 1140 776">
    <path d="M0 0h1139.58v775.367H0z" fill="none"/>
    <path fill-rule="nonzero" fill="#eaf4fe" d="M538.226 95.627c.217.154.433.313.654.467 41.4 29.45 96.583 30.575 140.3 4.687 41.104-24.337 93.033-52.521 126.354-57.85 21.338-3.416 43.446-1.579 63.1 7.4 53.046 24.229 55.638 77.879 56.229 125.888l.05 4.004c.605 48.917 22.159 94.708 57.784 128.242 39.921 37.583 63.637 84.275 59.087 145.425-8.258 110.962-352.171 354.595-568.125 317.712C19.388 694.019-25.887-308.468 538.226 95.627"/>
    <path fill-rule="nonzero" fill="#bbd7fe" d="M554.856 61.582a175.632 175.632 0 00-19.141-.608l-.1-4.167c6.504-.142 13.129.058 19.604.625l-.363 4.15zm-53.308 3.667l-.933-4.063a176.115 176.115 0 0119.341-3.308l.471 4.142a170.496 170.496 0 00-18.879 3.229m87.121 2.783a170.885 170.885 0 00-18.625-4.437l.733-4.1a175.765 175.765 0 0119.083 4.541l-1.191 3.996zm-119.721 8.304l-1.738-3.783a172.986 172.986 0 0118.271-7.158l1.3 3.962a169.199 169.199 0 00-17.833 6.979m151.521 4.846a169.534 169.534 0 00-17.334-8.108l1.55-3.867a175.656 175.656 0 0117.759 8.304l-1.975 3.671zM439.26 93.786l-2.462-3.358a176.064 176.064 0 0116.45-10.692l2.071 3.617a171.112 171.112 0 00-16.059 10.433m209.713 6.688a171.561 171.561 0 00-15.358-11.434l2.295-3.475a174.623 174.623 0 0115.734 11.709l-2.671 3.2zm-311.154 4.683c-4.279-.433-8.65-.571-12.921-.642a130.2 130.2 0 00-6.142.142l-.191-4.158c2.133-.104 4.283-.042 6.45-.15 4.391 0 8.841.221 13.22.666l-.416 4.142zm-52.738 5.679l-1.296-3.962a131.8 131.8 0 0119.113-4.704l.692 4.112a126.991 126.991 0 00-18.509 4.554m86.034 2.304a126.975 126.975 0 00-18.234-5.545l.913-4.071a131.88 131.88 0 0118.833 5.733l-1.512 3.883zm42.558 3.696l-3.088-2.8a177.852 177.852 0 0113.975-13.766l2.759 3.125a172.812 172.812 0 00-13.646 13.441m259.379 8.254a172.247 172.247 0 00-12.767-14.275l2.946-2.945a176.363 176.363 0 0113.075 14.625l-3.254 2.595zm-418.787.696l-2.309-3.475a132.35 132.35 0 0117.171-9.637l1.763 3.775a127.26 127.26 0 00-16.625 9.337m148.095 4.871l-1.654-1.221a127.26 127.26 0 00-15.725-9.929l1.963-3.675a131.966 131.966 0 0116.237 10.25l-.954 1.296 1.667 1.262-1.534 2.017zm-173.841 17.717l-3.142-2.734a133.105 133.105 0 0114-13.837l2.704 3.171a129.493 129.493 0 00-13.562 13.4m463.187 5.658a171.283 171.283 0 00-9.646-16.546l3.475-2.296a175.069 175.069 0 019.88 16.946l-3.709 1.896zm-482.033 22.921l-3.754-1.804a132.414 132.414 0 019.833-17.042l3.442 2.346a127.752 127.752 0 00-9.521 16.5m494.467 9.196a169.404 169.404 0 00-6.1-18.167l3.87-1.546a173.645 173.645 0 016.25 18.613l-4.02 1.1zm-505.025 23.375l-4.1-.742a130.665 130.665 0 014.933-19.058l3.946 1.341a127.23 127.23 0 00-4.779 18.459m-5.663 34.583a131.532 131.532 0 01-.3-19.683l4.158.246a127.497 127.497 0 00.292 19.062l-4.15.375zm-15.771 26.088l-2.771-3.117a172.464 172.464 0 0115.392-12.175l2.392 3.412a168.106 168.106 0 00-15.013 11.88m-23.229 25.404l-3.35-2.484a172.338 172.338 0 0112.563-15.075l3.045 2.85a166.215 166.215 0 00-12.258 14.709m-17.487 29.625l-3.792-1.734c2.708-5.92 5.8-11.758 9.183-17.337l3.563 2.158a165.501 165.501 0 00-8.954 16.913m-10.967 32.6l-4.063-.909a169.25 169.25 0 015.375-18.862l3.934 1.375a166.03 166.03 0 00-5.246 18.396m-3.954 34.187l-4.167-.05c.083-6.554.538-13.137 1.358-19.575l4.134.529a168.068 168.068 0 00-1.325 19.096m-.959 35.075a170.512 170.512 0 01-2.679-19.433l4.154-.333a166.794 166.794 0 002.613 18.958l-4.088.808zm701.163 14.046l-4.004-1.158a164.9 164.9 0 004.221-18.667l4.108.683a169.738 169.738 0 01-4.325 19.142m-690.75 19.667a168.513 168.513 0 01-6.663-18.467l3.996-1.179a164.726 164.726 0 006.496 18.004l-3.829 1.642zm677.5 13.016l-3.679-1.962a165.638 165.638 0 008.004-17.371l3.875 1.521a169.677 169.677 0 01-8.2 17.812M148.685 491.62a168.74 168.74 0 01-10.345-16.684l3.662-1.983a165.489 165.489 0 0010.088 16.267l-3.405 2.4zm640.58 11.429l-3.192-2.675a167.144 167.144 0 0011.425-15.354l3.479 2.295a172.4 172.4 0 01-11.712 15.734M171.844 518.22a172.37 172.37 0 01-13.55-14.192l3.175-2.7c4.116 4.842 8.566 9.5 13.221 13.846l-2.846 3.046zm592.096 9.387l-2.575-3.271c4.995-3.937 9.82-8.2 14.341-12.683l2.934 2.954a170.688 170.688 0 01-14.7 13m-563.963 11.888a169.366 169.366 0 01-16.175-11.096l2.55-3.296a165.423 165.423 0 0015.775 10.829l-2.15 3.563zm534.125 6.937l-1.846-3.733a166.438 166.438 0 0016.65-9.459l2.263 3.5a169.829 169.829 0 01-17.067 9.692m-502.204 8.079a171.021 171.021 0 01-18.125-7.516l1.812-3.75a165.615 165.615 0 0017.684 7.325l-1.371 3.941zm469.1 4.154l-1.029-4.037a166.441 166.441 0 0018.254-5.796l1.487 3.892a170.78 170.78 0 01-18.712 5.941m-434.758 3.888a169.46 169.46 0 01-19.288-3.583l.996-4.046a164.826 164.826 0 0018.812 3.496l-.52 4.133zm399.854 1.2l-.171-4.167a165.51 165.51 0 0019.05-1.879l.646 4.121a172.147 172.147 0 01-19.525 1.925m-364.738.15h-13.608c-1.963 0-3.913-.033-5.858-.1l.141-4.167c1.896.067 3.804.1 5.717.1h13.608v4.167zm34.913 0h-19.396v-4.167h19.396v4.167zm34.912 0h-19.396v-4.167h19.396v4.167zm34.917 0h-19.396v-4.167h19.396v4.167zm34.912 0h-19.395v-4.167h19.395v4.167zm34.917 0h-19.396v-4.167h19.396v4.167zm34.913 0h-19.396v-4.167h19.396v4.167zm34.912 0h-19.396v-4.167h19.396v4.167zm34.917 0h-19.396v-4.167h19.396v4.167zm34.912 0h-19.396v-4.167h19.396v4.167zm34.917 0h-19.396v-4.167h19.396v4.167z"/>
    <path fill-rule="nonzero" fill="#006aff" d="M714.163 615.96H372.584c-85.267 0-154.392-69.125-154.392-154.396 0-85.267 69.125-154.392 154.392-154.392h341.579c85.271 0 154.396 69.125 154.396 154.392 0 85.271-69.125 154.396-154.396 154.396"/>
    <path fill-rule="nonzero" fill="#006aff" d="M763.187 311.811c0 87.617-71.029 158.646-158.645 158.646-87.617 0-158.646-71.029-158.646-158.646 0-87.617 71.029-158.646 158.646-158.646 87.616 0 158.645 71.029 158.645 158.646"/>
    <path fill-rule="nonzero" fill="#006aff" d="M526.28 312.787c0 66.008-53.508 119.517-119.516 119.517-66.009 0-119.517-53.509-119.517-119.517S340.755 193.27 406.764 193.27c66.008 0 119.516 53.509 119.516 119.517"/>
    <path d="M523.183 594.7h71.775v32.462h-71.775z" fill="#fff"/>
    <path fill-rule="nonzero" fill="#fff" d="M523.182 636.987c0 11.558 9.371 20.929 20.929 20.929h29.917c11.558 0 20.929-9.371 20.929-20.929h-71.775z"/>
    <path d="M523.183 478.454h71.775v102.408h-71.775z" fill="#fff"/>
    <path fill-rule="nonzero" fill="#fff" d="M630.443 493.843l-71.366-94.979-71.384 94.979c-2.179 2.9-.108 7.046 3.521 7.046h135.708c3.63 0 5.7-4.146 3.521-7.046"/>
    <path fill-rule="nonzero" fill="#71acfd" d="M345.494 386.797h-34.758V286.155c0-9.6 7.779-17.379 17.379-17.379 9.6 0 17.379 7.779 17.379 17.379v100.642z"/>
    <path fill-rule="nonzero" fill="#fe2326" d="M418.172 386.797h-34.759V93.522c0-9.6 7.779-17.379 17.379-17.379 9.6 0 17.38 7.779 17.38 17.379v293.275z"/>
    <path fill-rule="nonzero" fill="#f8f9fa" d="M456.09 239.929v146.867h34.759V239.929c0-9.6-7.779-17.379-17.379-17.379-9.6 0-17.38 7.779-17.38 17.379"/>
    <path fill-rule="nonzero" fill="#71acfd" d="M555.417 283.899l69.029-39.854 69.029 39.854-69.029 39.854-69.029-39.854z"/>
    <path fill-rule="nonzero" fill="#0878ff" d="M693.476 363.61l-69.029 39.854v-79.712l69.029-39.85v79.708z"/>
    <path fill-rule="nonzero" fill="#005eeb" d="M624.447 403.464l-69.03-39.854v-79.709l69.03 39.854v79.709zm88.806-119.565l69.029-39.854 69.03 39.854-69.03 39.854-69.029-39.854z"/>
    <path fill-rule="nonzero" fill="#71acfd" d="M851.312 363.61l-69.029 39.854v-79.712l69.029-39.85v79.708z"/>
    <path fill-rule="nonzero" fill="#0878ff" d="M782.283 403.464l-69.029-39.854v-79.709l69.029 39.854v79.709z"/>
    <path fill-rule="nonzero" fill="#fff" d="M928.774 242.92h-23.163c-7.862 0-14.237-6.375-14.237-14.238V205.52c0-7.867 6.375-14.242 14.237-14.242h23.163c7.862 0 14.237 6.375 14.237 14.242v23.162c0 7.863-6.375 14.238-14.237 14.238"/>
    <path fill-rule="nonzero" fill="#fff" d="M891.372 219.183H644.451a2.084 2.084 0 010-4.167h246.921a2.084 2.084 0 010 4.167"/>
    <path fill-rule="nonzero" fill="#fff" d="M659.013 231.96c-.463 0-.929-.154-1.317-.467l-15.65-12.779a2.083 2.083 0 01-.079-3.162l15.654-14.104a2.067 2.067 0 012.942.15c.771.854.704 2.17-.154 2.941l-13.85 12.484 13.771 11.237a2.085 2.085 0 01-1.317 3.7m258.844 261.845a2.085 2.085 0 01-2.084-2.084V244.796a2.084 2.084 0 014.167 0v246.925c0 1.15-.933 2.084-2.083 2.084"/>
    <path fill-rule="nonzero" fill="#fff" d="M917.857 494.891c-.592 0-1.15-.25-1.55-.687l-14.105-15.654a2.087 2.087 0 01.155-2.942 2.075 2.075 0 012.941.15l12.479 13.85 11.242-13.771a2.086 2.086 0 012.933-.3 2.093 2.093 0 01.296 2.938l-12.779 15.65c-.383.47-.954.75-1.562.766h-.05z"/>
    <path fill-rule="nonzero" fill="#00046d" d="M427.127 539.215c0 64.446-52.246 116.692-116.692 116.692-64.445 0-116.691-52.246-116.691-116.692s52.246-116.692 116.691-116.692c64.446 0 116.692 52.246 116.692 116.692"/>
    <path fill-rule="nonzero" fill="#fff" d="M336.656 570.574h-52.441c-13.092 0-23.705-10.612-23.705-23.704s10.613-23.704 23.705-23.704h52.441c13.092 0 23.704 10.612 23.704 23.704s-10.612 23.704-23.704 23.704"/>
    <path fill-rule="nonzero" fill="#fff" d="M344.183 523.879c0 13.45-10.904 24.358-24.358 24.358-13.45 0-24.355-10.908-24.355-24.358 0-13.45 10.905-24.359 24.355-24.359 13.454 0 24.358 10.909 24.358 24.359"/>
    <path fill-rule="nonzero" fill="#fff" d="M307.811 524.029c0 10.133-8.216 18.35-18.35 18.35-10.133 0-18.35-8.217-18.35-18.35 0-10.134 8.217-18.35 18.35-18.35 10.134 0 18.35 8.216 18.35 18.35m24.539 103.333a2.074 2.074 0 01-2.016-1.579 2.077 2.077 0 011.512-2.525c38.838-9.721 65.963-44.513 65.963-84.605 0-38.325-24.746-71.8-60.821-83.195l6.954 11.087a2.093 2.093 0 01-.658 2.875 2.097 2.097 0 01-2.875-.658l-9.821-15.671a2.082 2.082 0 012.271-3.129c40.696 10.187 69.116 46.658 69.116 88.691 0 42.009-28.42 78.459-69.116 88.646a2.111 2.111 0 01-.509.063"/>
    <path fill-rule="nonzero" fill="#fff" d="M332.355 454.067a2.082 2.082 0 01-1.83-1.088 2.076 2.076 0 01.834-2.825l15.233-8.291a2.087 2.087 0 012.821.833 2.08 2.08 0 01-.833 2.829l-15.234 8.288c-.312.17-.654.254-.991.254M288.519 628.53c-.171 0-.337-.021-.508-.063-40.696-10.183-69.117-46.658-69.117-88.692 0-42.008 28.421-78.462 69.117-88.645 1.116-.259 2.25.4 2.529 1.516a2.088 2.088 0 01-1.513 2.529c-38.841 9.721-65.966 44.509-65.966 84.6 0 38.325 24.75 71.805 60.821 83.196l-6.95-11.087a2.085 2.085 0 01.658-2.875 2.08 2.08 0 012.871.662l9.825 15.667c.45.721.416 1.646-.079 2.333-.4.546-1.03.859-1.688.859"/>
    <path fill-rule="nonzero" fill="#fff" d="M273.289 636.818a2.08 2.08 0 01-1.829-1.087 2.074 2.074 0 01.833-2.825l15.233-8.292a2.082 2.082 0 012.821.834 2.08 2.08 0 01-.833 2.829l-15.234 8.287a2.062 2.062 0 01-.991.254"/>
</svg>
