<?xml version="1.0" encoding="utf-8"?>
<!-- Generator: Adobe Illustrator 19.0.0, SVG Export Plug-In . SVG Version: 6.00 Build 0)  -->
<svg version="1.1" id="Слой_1" xmlns="http://www.w3.org/2000/svg" xmlns:xlink="http://www.w3.org/1999/xlink" x="0px" y="0px"
	 viewBox="825 -731.5 2261.5 2255.5" style="enable-background:new 825 -731.5 2261.5 2255.5;" xml:space="preserve">
<style type="text/css">
	.st0{fill:#EAF4FE;}
	.st1{fill:#FAFAFA;}
	.st2{fill:#9EC8FF;}
	.st3{fill:#006AFF;}
	.st4{fill:#0A0A0A;}
	.st5{fill:#00046D;}
	.st6{fill:#E1E1E1;}
	.st7{fill:#FE2326;}
	.st8{fill:#FFFFFF;}
	.st9{fill:#1A2E35;}
	.st10{fill:#FFBF9D;}
	.st11{fill:#FF9A6C;}
	.st12{fill:#375A64;}
	.st13{fill:#F09959;}
	.st14{opacity:0.6;}
	.st15{fill:#D58E76;}
	.st16{fill:#ECECEC;}
	.st17{opacity:0.2;}
	.st18{fill:#BF654E;}
</style>
<path class="st0" d="M1638.4-269c0,0,294.7,312.6,619.3,117.8s448.8-32.8,482.1,38.8c33.3,71.6,0,238.6,0,238.6
	s-30.3,143.1,154.1,238.6c184.4,95.4,254,634.2-318.1,835s-825.5,496-1354.9,0S946.5-23.5,946.5-23.5S1190.6-516.5,1638.4-269z"/>
<g>
	<g id="XMLID_132_">
		<rect id="XMLID_133_" x="2539.2" y="-481.1" class="st1" width="495.6" height="443.4"/>
	</g>
	<g id="XMLID_140_">
		<path id="XMLID_141_" class="st2" d="M2729.2-402.3c0,0.7-26.1,1.3-58.3,1.3c-32.2,0-58.3-0.6-58.3-1.3c0-0.7,26.1-1.3,58.3-1.3
			C2703.1-403.7,2729.2-403.1,2729.2-402.3z"/>
	</g>
	<g id="XMLID_144_">
		<path id="XMLID_145_" class="st2" d="M2939.2-369.1c0,0.7-71.7,1.3-160,1.3c-88.4,0-160.1-0.6-160.1-1.3c0-0.7,71.6-1.3,160.1-1.3
			C2867.5-370.4,2939.2-369.8,2939.2-369.1z"/>
	</g>
	<rect id="XMLID_1266_" x="2613.5" y="-312.7" class="st2" width="20.9" height="20.9"/>
	<rect id="XMLID_1265_" x="2664.9" y="-312.7" class="st2" width="20.9" height="20.9"/>
	<rect id="XMLID_1264_" x="2717.3" y="-313.6" class="st2" width="20.9" height="20.9"/>
	<rect id="XMLID_1263_" x="2767.7" y="-312.7" class="st2" width="20.9" height="20.9"/>
	<rect id="XMLID_3842_" x="2819.1" y="-312.7" class="st2" width="20.9" height="20.9"/>
	<rect id="XMLID_3839_" x="2870.5" y="-312.7" class="st2" width="20.9" height="20.9"/>
	<rect id="XMLID_1262_" x="2921.9" y="-312.7" class="st2" width="20.9" height="20.9"/>
	<rect id="XMLID_1261_" x="2613.5" y="-268.3" class="st2" width="20.9" height="20.9"/>
	<rect id="XMLID_1260_" x="2664.9" y="-268.3" class="st2" width="20.9" height="20.9"/>
	<rect id="XMLID_1259_" x="2716.3" y="-268.3" class="st2" width="20.9" height="20.9"/>
	<rect id="XMLID_1258_" x="2767.7" y="-268.3" class="st2" width="20.9" height="20.9"/>
	<rect id="XMLID_1257_" x="2819.1" y="-268.3" class="st2" width="20.9" height="20.9"/>
	<rect id="XMLID_1256_" x="2871.5" y="-269.2" class="st2" width="20.9" height="20.9"/>
	<rect id="XMLID_1255_" x="2921.9" y="-268.3" class="st2" width="20.9" height="20.9"/>
	<rect id="XMLID_1254_" x="2613.5" y="-223.9" class="st2" width="20.9" height="20.9"/>
	<rect id="XMLID_3809_" x="2665.9" y="-224.8" class="st2" width="20.9" height="20.9"/>
	<rect id="XMLID_1253_" x="2716.3" y="-223.9" class="st2" width="20.9" height="20.9"/>
	<rect id="XMLID_1252_" x="2767.7" y="-223.9" class="st2" width="20.9" height="20.9"/>
	<rect id="XMLID_3800_" x="2819.1" y="-223.9" class="st2" width="20.9" height="20.9"/>
	<rect id="XMLID_3797_" x="2870.5" y="-223.9" class="st2" width="20.9" height="20.9"/>
	<rect id="XMLID_1251_" x="2921.9" y="-223.9" class="st2" width="20.9" height="20.9"/>
	<rect id="XMLID_1250_" x="2613.5" y="-179.5" class="st2" width="20.9" height="20.9"/>
	<rect id="XMLID_1249_" x="2664.9" y="-179.5" class="st2" width="20.9" height="20.9"/>
	<rect id="XMLID_1248_" x="2716.3" y="-179.5" class="st2" width="20.9" height="20.9"/>
	<rect id="XMLID_3782_" x="2768.7" y="-180.5" class="st2" width="20.9" height="20.9"/>
	<rect id="XMLID_1247_" x="2819.1" y="-179.5" class="st2" width="20.9" height="20.9"/>
	<rect id="XMLID_1246_" x="2870.5" y="-179.5" class="st2" width="20.9" height="20.9"/>
	<rect id="XMLID_1245_" x="2921.9" y="-179.5" class="st2" width="20.9" height="20.9"/>
	<rect id="XMLID_1244_" x="2613.5" y="-135.1" class="st2" width="20.9" height="20.9"/>
	<rect id="XMLID_1243_" x="2664.9" y="-135.1" class="st2" width="20.9" height="20.9"/>
	<rect id="XMLID_1242_" x="2716.3" y="-135.1" class="st2" width="20.9" height="20.9"/>
	<rect id="XMLID_1241_" x="2767.7" y="-135.1" class="st2" width="20.9" height="20.9"/>
	<rect id="XMLID_3758_" x="2819.1" y="-135.1" class="st2" width="20.9" height="20.9"/>
	<rect id="XMLID_1240_" x="2871.5" y="-136.1" class="st2" width="20.9" height="20.9"/>
	<rect id="XMLID_1239_" x="2921.9" y="-135.1" class="st2" width="20.9" height="20.9"/>
	<path id="XMLID_222_" class="st3" d="M2343.3-441c0,0,58.7,0.8,33.6,117c-25.1,116.2-21.9,138.1-21.9,184.1
		c0,53.8,43.4,73.1,43.4,73.1h-79.6L2260.3-338V-441H2343.3z"/>
	<polygon id="XMLID_224_" class="st3" points="2360.6,473.6 1557.1,473.6 1564.3,-312.5 2321,-352.1 	"/>
	<polygon id="XMLID_226_" class="st3" points="2333,453.3 1529.5,453.3 1536.7,-332.8 2316.8,-348.1 	"/>
	<g id="XMLID_228_">
		<polygon id="XMLID_229_" class="st1" points="2316.3,431.3 1514.5,431.3 1514.5,-354.7 2316.8,-356.6 		"/>
	</g>
	<path id="XMLID_234_" class="st3" d="M2316.8-358.7c-41.4-48.2,6.6-83.9,22.8-84.7l-763.5-0.4c-39.9,0-70.3,36-63.4,75.3
		c1.1,6,3.1,12,3.1,12"/>
	<g id="XMLID_245_">
		<path id="XMLID_246_" class="st4" d="M2255,167.1c0,0-0.9,0.1-2.5,0.1c-1.7,0-4.2,0.1-7.4,0.1c-6.6,0-16.1,0.1-28.3,0.2
			c-24.7,0.1-60.3,0.2-104.2,0.3c-88.1,0.1-209.6,0.2-343.9,0.3c-52.1,0-102.2,0-148.3,0l-1,0l0-1c0.1-98.2,0.3-182.7,0.4-242.8
			c0.1-29.9,0.2-53.7,0.3-70.1c0.1-8.1,0.1-14.4,0.2-18.7c0-2.1,0.1-3.7,0.1-4.8c0-1.1,0.1-1.6,0.1-1.6s0.1,0.6,0.1,1.6
			c0,1.2,0,2.7,0.1,4.8c0,4.3,0.1,10.6,0.2,18.7c0.1,16.4,0.2,40.2,0.3,70.1c0.1,60,0.2,144.5,0.4,242.8l-1-1c46.1,0,96.2,0,148.3,0
			c134.3,0.1,255.8,0.2,343.9,0.3c44,0.1,79.6,0.2,104.2,0.3c12.3,0.1,21.8,0.1,28.3,0.2c3.2,0,5.6,0.1,7.4,0.1
			C2254.2,167,2255,167.1,2255,167.1z"/>
	</g>
	<rect id="XMLID_3720_" x="1672" y="83.5" class="st3" width="64.1" height="64.1"/>
	<rect id="XMLID_3718_" x="1766" y="37.7" class="st3" width="64.1" height="109.9"/>
	<rect id="XMLID_3716_" x="1860.3" y="-14.4" class="st3" width="64.1" height="162"/>
	<rect id="XMLID_3714_" x="1951.8" y="-72.3" class="st3" width="64.1" height="219.9"/>
	<rect id="XMLID_3712_" x="2045.4" y="-146.5" class="st3" width="64.1" height="294.1"/>
	<rect id="XMLID_1238_" x="2138.3" y="-203.1" class="st3" width="64.1" height="347.7"/>
	<g id="XMLID_254_">
		<path id="XMLID_255_" class="st4" d="M1672,17.8c0,0,0.3-0.2,0.8-0.6c0.6-0.4,1.5-1,2.5-1.7c2.3-1.5,5.6-3.7,9.8-6.5
			c8.7-5.7,21.1-13.9,36.7-24.2c31.5-20.6,75.8-49.6,127.2-83.1l1.5-1l0,1.8c0,9.1,0,18.8,0,28.7l-1.5-0.8
			c16.2-10.9,33-22.1,50.1-33.6c69.1-46.1,131.6-87.9,176.9-118.2c22.6-15,41-27.2,53.7-35.6c6.3-4.1,11.2-7.3,14.7-9.6
			c1.6-1,2.9-1.9,3.8-2.5c0.9-0.5,1.3-0.8,1.3-0.8c0,0-0.4,0.3-1.2,0.9c-0.9,0.6-2.2,1.5-3.7,2.6c-3.4,2.3-8.2,5.7-14.5,9.9
			c-12.7,8.6-30.9,20.9-53.4,36.2c-45.3,30.4-107.7,72.4-176.6,118.7c-17.2,11.5-34,22.7-50.2,33.6l-1.5,1l0-1.8
			c0-9.9,0-19.6,0-28.7l1.5,0.8c-51.5,33.3-96,62.1-127.6,82.5c-15.8,10.1-28.3,18.2-37,23.8c-4.3,2.7-7.6,4.8-9.9,6.3
			c-1.1,0.7-1.9,1.2-2.6,1.6C1672.3,17.7,1672,17.8,1672,17.8z"/>
	</g>
	<g id="XMLID_257_">
		<path id="XMLID_258_" class="st4" d="M2149.6-242.9c-0.3,0-0.5-3-0.7-7.9c-0.2-4.9-0.3-11.7-0.3-19.4l1,1c-0.8,0-1.6,0-2.4,0
			c-8.2,0-15.6-0.1-21-0.3c-5.4-0.2-8.7-0.4-8.7-0.7s3.3-0.5,8.7-0.7c5.4-0.2,12.8-0.3,21-0.3c0.8,0,1.7,0,2.4,0l1,0l0,1
			c0,7.6-0.1,14.5-0.3,19.4C2150.1-245.9,2149.9-242.9,2149.6-242.9z"/>
	</g>
	<g id="XMLID_260_">
		<g id="XMLID_261_">
			<path id="XMLID_262_" class="st4" d="M1810.9,218.8c0,0.6-19.8,1-44.3,1c-24.4,0-44.3-0.4-44.3-1c0-0.6,19.8-1,44.3-1
				C1791,217.8,1810.9,218.2,1810.9,218.8z"/>
		</g>
	</g>
	<g id="XMLID_263_">
		<g id="XMLID_264_">
			<ellipse id="XMLID_265_" class="st4" cx="1765.4" cy="238.7" rx="1" ry="10.4"/>
		</g>
	</g>
	<g id="XMLID_266_">
		<g id="XMLID_267_">
			<path id="XMLID_268_" class="st4" d="M1873.9,259.4c0,0.6-53.2,1-118.8,1c-65.6,0-118.8-0.4-118.8-1c0-0.6,53.2-1,118.8-1
				C1820.7,258.4,1873.9,258.9,1873.9,259.4z"/>
		</g>
	</g>
	<g id="XMLID_269_">
		<g id="XMLID_270_">
			<ellipse id="XMLID_271_" class="st4" cx="1637.8" cy="274.6" rx="1" ry="14.4"/>
		</g>
	</g>
	<g id="XMLID_272_">
		<g id="XMLID_273_">
			<ellipse id="XMLID_274_" class="st4" cx="1722.4" cy="273.4" rx="1" ry="12.4"/>
		</g>
	</g>
	<g id="XMLID_275_">
		<g id="XMLID_276_">
			<ellipse id="XMLID_277_" class="st4" cx="1809.3" cy="273.8" rx="1" ry="13.6"/>
		</g>
	</g>
	<g id="XMLID_278_">
		<g id="XMLID_279_">
			<ellipse id="XMLID_280_" class="st4" cx="1875.4" cy="273.4" rx="1" ry="14"/>
		</g>
	</g>
	<g id="XMLID_281_">
		<g id="XMLID_282_">
			<path id="XMLID_283_" class="st4" d="M1667.3,296.9c0,0.6-12.9,1-28.7,1c-15.9,0-28.7-0.4-28.7-1c0-0.6,12.8-1,28.7-1
				C1654.5,295.9,1667.3,296.4,1667.3,296.9z"/>
		</g>
	</g>
	<g id="XMLID_284_">
		<g id="XMLID_285_">
			<ellipse id="XMLID_286_" class="st4" cx="1718.8" cy="296.9" rx="21.9" ry="1"/>
		</g>
	</g>
	<g id="XMLID_287_">
		<g id="XMLID_288_">
			<ellipse id="XMLID_289_" class="st4" cx="1810.5" cy="299.3" rx="23.5" ry="1"/>
		</g>
	</g>
	<g id="XMLID_290_">
		<g id="XMLID_291_">
			<ellipse id="XMLID_292_" class="st4" cx="1884.6" cy="295.3" rx="25.1" ry="1"/>
		</g>
	</g>
	<g id="XMLID_293_">
		<g id="XMLID_294_">
			<g id="XMLID_295_">
				<ellipse id="XMLID_296_" class="st4" cx="1638.6" cy="316.4" rx="1" ry="8.4"/>
			</g>
		</g>
		<g id="XMLID_297_">
			<g id="XMLID_298_">
				<path id="XMLID_299_" class="st4" d="M1693.2,324.8c0,0.6-23.2,1-51.8,1c-28.6,0-51.8-0.4-51.8-1c0-0.6,23.2-1,51.8-1
					C1670,323.8,1693.2,324.3,1693.2,324.8z"/>
			</g>
		</g>
		<g id="XMLID_300_">
			<g id="XMLID_301_">
				<ellipse id="XMLID_302_" class="st4" cx="1693.2" cy="336.8" rx="1" ry="12"/>
			</g>
		</g>
		<g id="XMLID_303_">
			<g id="XMLID_304_">
				<ellipse id="XMLID_305_" class="st4" cx="1589.5" cy="337.6" rx="1" ry="12.8"/>
			</g>
		</g>
	</g>
	<g id="XMLID_3641_">
		<g id="XMLID_307_">
			<g id="XMLID_308_">
				<ellipse id="XMLID_309_" class="st4" cx="1811.4" cy="316.4" rx="1" ry="8.4"/>
			</g>
		</g>
		<g id="XMLID_310_">
			<g id="XMLID_311_">
				<path id="XMLID_312_" class="st4" d="M1937.4,324.8c0,0.6-39.2,1-87.5,1c-48.4,0-87.5-0.4-87.5-1c0-0.6,39.2-1,87.5-1
					C1898.2,323.8,1937.4,324.3,1937.4,324.8z"/>
			</g>
		</g>
		<g id="XMLID_313_">
			<g id="XMLID_314_">
				<ellipse id="XMLID_315_" class="st4" cx="1866" cy="336.8" rx="1" ry="12"/>
			</g>
		</g>
		<g id="XMLID_316_">
			<g id="XMLID_317_">
				<ellipse id="XMLID_318_" class="st4" cx="1941" cy="336.8" rx="1" ry="12"/>
			</g>
		</g>
		<g id="XMLID_319_">
			<g id="XMLID_320_">
				<ellipse id="XMLID_321_" class="st4" cx="1762.3" cy="337.6" rx="1" ry="12.8"/>
			</g>
		</g>
	</g>
	<g id="XMLID_306_">
		<g id="XMLID_322_">
			<ellipse id="XMLID_323_" class="st4" cx="1589.5" cy="365" rx="20.4" ry="1"/>
		</g>
	</g>
	<g id="XMLID_324_">
		<g id="XMLID_325_">
			<ellipse id="XMLID_326_" class="st4" cx="1689.4" cy="362.1" rx="22.1" ry="1"/>
		</g>
	</g>
	<g id="XMLID_327_">
		<g id="XMLID_328_">
			<ellipse id="XMLID_329_" class="st4" cx="1765.4" cy="362.1" rx="19.4" ry="1"/>
		</g>
	</g>
	<g id="XMLID_330_">
		<g id="XMLID_331_">
			<ellipse id="XMLID_332_" class="st4" cx="1862.6" cy="362.1" rx="21.1" ry="1"/>
		</g>
	</g>
	<g id="XMLID_333_">
		<g id="XMLID_334_">
			<path id="XMLID_335_" class="st4" d="M1962.8,359.5c0,0.6-9.6,1-21.4,1c-11.8,0-21.4-0.4-21.4-1c0-0.6,9.6-1,21.4-1
				C1953.2,358.5,1962.8,358.9,1962.8,359.5z"/>
		</g>
	</g>
	<g id="XMLID_337_">
		<path id="XMLID_338_" class="st5" d="M2254.5,375h-270.7V207.4h270.7V375z M1983.9,374.8h270.3V207.6h-270.3V374.8z"/>
	</g>
	<g id="XMLID_341_">
		<g id="XMLID_342_">
			<path id="XMLID_343_" class="st2" d="M2189.1,328.5c-18.8-7.1-40.3,12.6-58.7,4.5c-10.7-4.7-15.6-16.8-20.8-27.2
				c-5.2-10.4-14.3-21.4-25.9-20.2c-11.7,1.2-21.2,14.8-32.5,11.5c-7.1-2.1-10.7-10-12.5-17.2c-1.8-7.2-3-15.2-8.5-20.2
				c-5.4-5.1-16.8-3.7-17.6,3.7v88.8h211.5C2224.1,352.2,2195.5,331,2189.1,328.5z"/>
		</g>
	</g>
	<g id="XMLID_344_">
		<g id="XMLID_345_">
			<g id="XMLID_346_">
				<path id="XMLID_347_" class="st6" d="M2229.8,352.2c0,0.2-51.3,0.3-114.5,0.3c-63.3,0-114.5-0.2-114.5-0.3
					c0-0.2,51.3-0.3,114.5-0.3C2178.5,351.9,2229.8,352,2229.8,352.2z"/>
			</g>
		</g>
	</g>
	<g id="XMLID_348_">
		<g id="XMLID_349_">
			<g id="XMLID_350_">
				<path id="XMLID_351_" class="st5" d="M2229.8,313.4c0,0.2-51.3,0.3-114.5,0.3c-63.3,0-114.5-0.2-114.5-0.3s51.3-0.3,114.5-0.3
					C2178.5,313.1,2229.8,313.3,2229.8,313.4z"/>
			</g>
		</g>
	</g>
	<g id="XMLID_352_">
		<g id="XMLID_353_">
			<g id="XMLID_354_">
				<path id="XMLID_355_" class="st5" d="M2229.8,274.7c0,0.2-51.3,0.3-114.5,0.3c-63.3,0-114.5-0.2-114.5-0.3s51.3-0.3,114.5-0.3
					C2178.5,274.3,2229.8,274.5,2229.8,274.7z"/>
			</g>
		</g>
	</g>
	<g id="XMLID_356_">
		<g id="XMLID_357_">
			<g id="XMLID_358_">
				<path id="XMLID_359_" class="st5" d="M2229.8,237.8c0,0.2-51.3,0.3-114.5,0.3c-63.3,0-114.5-0.2-114.5-0.3
					c0-0.2,51.3-0.3,114.5-0.3C2178.5,237.5,2229.8,237.6,2229.8,237.8z"/>
			</g>
		</g>
	</g>
	<g id="XMLID_361_">
		<g id="XMLID_362_">
			<g id="XMLID_363_">
				<g id="XMLID_364_">
					<path id="XMLID_3600_" class="st4" d="M1620.4-299.7c0,0,0.1,0,0.4,0c0.3,0,0.6,0,1.1,0c1,0,2.4,0.1,4.2,0.4
						c1.8,0.4,4,0.9,6.4,2.2c2.3,1.2,4.7,3.2,6.8,5.8c2,2.7,3.7,6,4.5,10c0.7,3.9,0.1,8.3-1.6,12.5c-0.8,2.1-1.9,4.2-3.1,6.2
						c-1.2,2-2.5,4-3.5,6.2c-2.1,4.4-3.8,9.2-4.7,14.2l-0.1,0.3l-0.3,0c-3.2-0.1-6.6-0.2-10-0.2c-3.6-0.1-7.2-0.2-10.5-0.3l-0.4,0
						l0-0.4c0-5.1-2.1-9.9-4.3-14.1c-1.1-2.1-2.4-4.1-3.6-6.2c-1.1-2-2.4-3.9-3.3-6c-1.8-4.1-2-8.6-1.1-12.4c0.9-3.8,2.3-7.3,4.3-10
						c2-2.7,4.5-4.5,6.8-5.7c2.3-1.2,4.5-1.8,6.3-2.2c1.8-0.4,3.2-0.5,4.2-0.5c0.5,0,0.8,0,1.1,0
						C1620.3-299.7,1620.4-299.7,1620.4-299.7c0,0-0.1,0-0.4,0c-0.3,0-0.6,0-1.1,0.1c-0.9,0.1-2.4,0.2-4.1,0.6
						c-1.8,0.4-3.9,1-6.2,2.2c-2.3,1.2-4.7,3-6.6,5.6c-1.9,2.6-3.3,6-4.1,9.8c-0.9,3.7-0.7,8.1,1.1,12c0.9,2,2.1,3.9,3.3,5.9
						c1.2,2,2.4,4,3.6,6.2c2.3,4.3,4.5,9.1,4.4,14.4l-0.4-0.4c3.4,0.1,6.9,0.2,10.5,0.3c3.4,0.1,6.8,0.2,10,0.2l-0.4,0.3
						c0.9-5.2,2.6-10,4.8-14.4c1.1-2.2,2.3-4.3,3.6-6.2c1.2-2,2.3-4,3.1-6c1.6-4.1,2.2-8.3,1.6-12.1c-0.7-3.8-2.4-7.1-4.3-9.8
						c-2-2.6-4.3-4.6-6.6-5.8c-2.3-1.2-4.5-1.9-6.2-2.3c-1.8-0.3-3.2-0.5-4.2-0.5c-0.4,0-0.8-0.1-1.1-0.1
						C1620.6-299.7,1620.4-299.7,1620.4-299.7z"/>
				</g>
			</g>
		</g>
		<g id="XMLID_365_">
			<g id="XMLID_366_">
				<g id="XMLID_367_">
					<path id="XMLID_3596_" class="st4" d="M1623.4-243.1c0,0,0-0.1-0.1-0.3c0-0.2-0.1-0.5-0.1-0.9c-0.1-0.8-0.2-2.1-0.4-3.6
						c-0.3-3.2-0.8-7.8-1-13.4c0-1.4-0.1-2.9-0.1-4.5c0-1.6,0-3.2,0.2-4.9c0.2-1.7,0.5-3.4,1.3-5c0.8-1.6,2.2-3.1,4-3.7
						c1.8-0.7,4.1-0.2,5.5,1.3c0.7,0.7,1.1,1.8,1.1,2.8c0,1-0.5,2.1-1.2,2.9c-0.7,0.8-1.6,1.4-2.5,1.9c-1,0.4-2,0.7-3.1,0.9
						c-2.1,0.4-4.3,0.5-6.4,0.5c-2.2,0-4.3-0.2-6.4-0.6c-1-0.2-2.1-0.5-3-1c-0.9-0.5-1.8-1.1-2.5-1.9c-0.7-0.8-1.2-1.7-1.4-2.8
						c-0.2-1,0-2.1,0.5-3c0.5-0.9,1.2-1.6,2.2-2c1-0.3,2-0.2,2.9,0.3c0.9,0.4,1.6,1.1,2.1,1.9c0.5,0.8,0.8,1.7,1,2.6
						c0.3,1.8,0.3,3.5,0.3,5.2c0,3.3,0.1,6.5,0.1,9.3c0.1,5.7,0.1,10.3,0.1,13.5c0,1.6,0,2.8,0,3.7c0,0.4,0,0.7,0,1
						c0,0.2,0,0.3,0,0.3s0-0.1,0-0.3c0-0.2,0-0.5,0-1c0-0.9,0-2.1-0.1-3.7c-0.1-3.2-0.1-7.8-0.2-13.5c0-2.8-0.1-6-0.1-9.3
						c0-1.7,0-3.4-0.3-5.1c-0.2-0.9-0.5-1.7-0.9-2.5c-0.5-0.7-1.2-1.4-2-1.8c-0.8-0.4-1.8-0.5-2.7-0.2c-0.9,0.3-1.6,1-2,1.8
						c-0.4,0.8-0.6,1.8-0.4,2.8c0.2,1,0.6,1.9,1.3,2.6c1.3,1.6,3.3,2.4,5.3,2.8c2.1,0.4,4.2,0.5,6.4,0.6c2.2,0,4.3-0.1,6.4-0.5
						c1-0.2,2-0.4,3-0.9c0.9-0.4,1.8-1,2.4-1.8c0.6-0.8,1-1.7,1.1-2.7c0.1-1-0.3-1.9-1-2.6c-1.3-1.4-3.4-1.9-5.2-1.2
						c-1.7,0.6-3.1,2-3.9,3.6c-0.8,1.6-1.2,3.3-1.3,4.9c-0.2,1.7-0.2,3.3-0.2,4.8c0,1.6,0,3,0.1,4.5c0.2,5.7,0.7,10.3,0.9,13.4
						c0.2,1.6,0.3,2.8,0.3,3.7c0,0.4,0.1,0.7,0.1,0.9C1623.4-243.2,1623.4-243.1,1623.4-243.1z"/>
				</g>
			</g>
		</g>
		<g id="XMLID_368_">
			<g id="XMLID_369_">
				<g id="XMLID_370_">
					<path id="XMLID_3592_" class="st4" d="M1610-243.1c0,0,0.1,1.3,0.1,3.4c0,2.5,0.1,5.4,0.1,8.8l-0.1-0.2
						c1.9,2.4,4.1,5.2,6.5,8.1l-0.3-0.2c2.5,0,5.2-0.1,7.9-0.1l-0.3,0.2c1.3-1.5,2.7-3.1,4.1-4.6c0.7-0.8,1.4-1.6,2.1-2.3l-0.1,0.3
						c0.1-4.6,0.2-9,0.2-13l0.4,0.4c-5.8-0.2-10.7-0.3-14.8-0.4c-1.6-0.1-3-0.1-4.3-0.2C1610.6-243.1,1610-243.1,1610-243.1
						c0,0,0.5-0.1,1.4-0.1c1.2,0,2.6,0,4.2,0c4.1,0,9.2,0,15,0l0.4,0l0,0.4c0,4-0.1,8.4-0.1,13l0,0.2l-0.1,0.1
						c-0.7,0.8-1.4,1.5-2.1,2.3c-1.4,1.6-2.8,3.1-4.1,4.6l-0.1,0.2l-0.2,0c-2.8,0-5.4,0-7.9,0.1l-0.2,0l-0.1-0.2
						c-2.3-3-4.5-5.8-6.4-8.3l-0.1-0.1l0-0.1c0.1-3.5,0.2-6.5,0.3-9C1609.9-242.1,1609.9-243.2,1610-243.1z"/>
				</g>
			</g>
		</g>
		<g id="XMLID_371_">
			<g id="XMLID_372_">
				<g id="XMLID_373_">
					<path id="XMLID_3588_" class="st4" d="M1629.9-230.9c0,0-0.3-0.1-0.7-0.3c-0.5-0.2-1.1-0.6-2-0.9c-1.7-0.7-4.2-1.3-7.1-1.4
						c-2.8,0-5.4,0.6-7.1,1.2c-0.9,0.3-1.6,0.6-2,0.9c-0.5,0.2-0.7,0.4-0.7,0.3c0,0,0.2-0.2,0.7-0.4c0.5-0.3,1.1-0.6,2-1
						c1.7-0.7,4.3-1.4,7.2-1.3c2.9,0,5.4,0.7,7.2,1.5c0.9,0.4,1.5,0.7,2,1C1629.7-231.1,1629.9-230.9,1629.9-230.9z"/>
				</g>
			</g>
		</g>
		<g id="XMLID_374_">
			<g id="XMLID_375_">
				<g id="XMLID_376_">
					<path id="XMLID_3584_" class="st4" d="M1630-234c0,0-0.3-0.1-0.7-0.3c-0.5-0.2-1.1-0.6-2-0.9c-1.7-0.7-4.2-1.3-7.1-1.4
						c-2.8,0-5.4,0.6-7.1,1.2c-0.9,0.3-1.6,0.6-2,0.9c-0.5,0.2-0.7,0.4-0.7,0.3c0,0,0.2-0.2,0.7-0.4c0.5-0.3,1.1-0.6,2-1
						c1.7-0.7,4.3-1.4,7.2-1.3c2.9,0,5.4,0.7,7.2,1.5c0.9,0.4,1.5,0.7,2,1C1629.8-234.2,1630-234.1,1630-234z"/>
				</g>
			</g>
		</g>
		<g id="XMLID_377_">
			<g id="XMLID_378_">
				<g id="XMLID_379_">
					<path id="XMLID_3580_" class="st4" d="M1630-237c0,0-0.3-0.1-0.7-0.3c-0.5-0.2-1.1-0.6-2-0.9c-1.7-0.7-4.2-1.3-7.1-1.4
						c-2.8,0-5.4,0.6-7.1,1.2c-0.9,0.3-1.6,0.6-2,0.9c-0.5,0.2-0.7,0.4-0.7,0.3c0,0,0.2-0.2,0.7-0.4c0.5-0.3,1.1-0.6,2-1
						c1.7-0.7,4.3-1.4,7.2-1.3c2.9,0,5.4,0.7,7.2,1.5c0.9,0.4,1.5,0.7,2,1C1629.7-237.2,1630-237.1,1630-237z"/>
				</g>
			</g>
		</g>
	</g>
	<g id="XMLID_381_">
		<g id="XMLID_382_">
			<path id="XMLID_383_" class="st0" d="M1703.3-154.4c0,0-7.7,70.8,2.2,109.5L1800-49c0,0-20.3-69.8-7.8-100.8L1703.3-154.4z"/>
		</g>
	</g>
	<g id="XMLID_384_">
		<g id="XMLID_385_">
			<g id="XMLID_386_">
				<path id="XMLID_387_" class="st7" d="M1703.6-156.7c0,0,0.6,76.4,4.5,99.7l95.9-4.5c0,0-8.4-75.1-5.2-95.2H1703.6z"/>
			</g>
		</g>
		<g id="XMLID_388_">
			<g id="XMLID_389_">
				<g id="XMLID_390_">
					<path id="XMLID_391_" class="st8" d="M1784.4-124.6c0,0.4-14.4,1.5-32.1,2.6c-17.8,1.1-32.2,1.6-32.2,1.3
						c0-0.4,14.4-1.5,32.1-2.6C1769.9-124.4,1784.4-124.9,1784.4-124.6z"/>
				</g>
			</g>
		</g>
		<g id="XMLID_392_">
			<g id="XMLID_393_">
				<g id="XMLID_394_">
					<path id="XMLID_395_" class="st8" d="M1784.4-108.4c0,0.4-14.4,1.5-32.1,2.6c-17.8,1.1-32.2,1.6-32.2,1.3
						c0-0.4,14.4-1.5,32.1-2.6C1770-108.2,1784.4-108.8,1784.4-108.4z"/>
				</g>
			</g>
		</g>
		<g id="XMLID_396_">
			<g id="XMLID_397_">
				<g id="XMLID_398_">
					<path id="XMLID_399_" class="st8" d="M1768.1-92.5c0,0.2-2,0.5-5.3,0.8c-3.3,0.3-7.9,0.7-12.9,1c-5.1,0.3-9.6,0.5-13,0.6
						c-3.3,0.1-5.4,0-5.4-0.1c0-0.2,2-0.5,5.3-0.8s7.9-0.7,12.9-1c5.1-0.3,9.6-0.5,13-0.6C1766-92.7,1768.1-92.7,1768.1-92.5z"/>
				</g>
			</g>
		</g>
	</g>
	<g id="XMLID_401_">
		<path id="XMLID_402_" class="st4" d="M1922.2-280.8c0,0.6-56.1,1-125.2,1c-69.2,0-125.2-0.4-125.2-1c0-0.6,56.1-1,125.2-1
			C1866.1-281.8,1922.2-281.3,1922.2-280.8z"/>
	</g>
	<g id="XMLID_404_">
		<path id="XMLID_405_" class="st4" d="M1763.7-258c0,0.6-21,1-47,1c-25.9,0-47-0.4-47-1c0-0.6,21-1,47-1
			C1742.7-259,1763.7-258.5,1763.7-258z"/>
	</g>
	<g id="XMLID_407_">
		<ellipse id="XMLID_408_" class="st4" cx="1795.5" cy="-258" rx="18.1" ry="1"/>
	</g>
	<path id="XMLID_3463_" d="M2405.2,1037.3l-6.2,78.8c0,0-77.8,25-78.3,39.6l152.3,2l4.5-120.5L2405.2,1037.3z"/>
	<g id="XMLID_496_">
		<g id="XMLID_497_">
			<g id="XMLID_498_">
				<g id="XMLID_499_">
					<path id="XMLID_3459_" d="M2445.9,1108c3,0.7,5.1,4,4.5,7c-0.6,3-3.9,5.2-6.9,4.5c-3-0.7-5.7-4.5-4.7-7.4
						c0.9-2.9,4.9-5.3,7.7-3.9"/>
				</g>
			</g>
		</g>
	</g>
	<g id="XMLID_500_">
		<g id="XMLID_501_">
			<g id="XMLID_502_">
				<path id="XMLID_3454_" d="M2472.9,1157.6l-0.3-12.2l-144.2,0.9c0,0-8.3,4.9-8,9.7L2472.9,1157.6z"/>
			</g>
		</g>
	</g>
	<g id="XMLID_519_">
		<g id="XMLID_520_">
			<g id="XMLID_521_">
				<g id="XMLID_522_">
					<path id="XMLID_3429_" class="st9" d="M2396.5,1081.5c0,0.3,3,0.7,7.6-0.3c2.3-0.5,5.1-1.3,7.9-2.7c1.4-0.7,2.9-1.5,4.3-2.5
						c0.7-0.5,1.5-1,2.3-1.9c0.8-0.8,1.2-2.8,0.2-4c-0.8-1.1-2.2-1.6-3.3-1.6c-1.1,0-2,0.3-2.9,0.5c-1.7,0.5-3.3,1.1-4.7,1.8
						c-2.9,1.4-5.2,3.2-6.9,4.8c-3.4,3.4-4.6,6.2-4.3,6.3c0.3,0.2,2-2.1,5.5-5c1.8-1.4,4-2.9,6.7-4c1.3-0.6,2.8-1.1,4.3-1.5
						c1.6-0.5,3-0.5,3.4,0.2c0.2,0.3,0.2,0.4-0.1,0.9c-0.3,0.4-1,0.9-1.7,1.4c-1.3,0.9-2.7,1.7-4,2.4c-2.6,1.4-5.1,2.4-7.3,3
						C2399.3,1080.8,2396.5,1081.1,2396.5,1081.5z"/>
				</g>
			</g>
		</g>
	</g>
	<path id="XMLID_3418_" d="M2734.4,1024.1l17.6,92l34.9,68.8c2.5,5,0.3,11-4.8,13.2l0,0c-2.9,1.2-6.1,1-8.8-0.6
		c-16.9-10.4-78.7-49-79.6-55.8c-1.1-7.9-25-95.8-25-95.8L2734.4,1024.1z"/>
	<path id="XMLID_3416_" d="M2782.1,1198.1l-89.7-62.6l0.8,3.9c0.7,3.4,2.6,6.4,5.3,8.4c7.3,5.6,27.7,20.6,74.5,49.7
		C2775.8,1199.2,2779.2,1199.4,2782.1,1198.1L2782.1,1198.1z"/>
	<g id="XMLID_531_">
		<path id="XMLID_3414_" d="M2704.9,1108.5c2.6,1.1,4.1,4.4,3.1,7.1c-1,2.7-4.3,4.2-7,3.2c-2.7-1-4.6-5-3.3-7.5
			c1.3-2.6,5.3-4.2,7.6-2.5"/>
	</g>
	<g id="XMLID_544_">
		<path id="XMLID_3392_" class="st5" d="M2404.1,313.3c-1,0-12.6,771.9-12.6,771.9l93.3-3.2l32.3-379.5l7.8-278.6l63.5,257.7
			l79.2,404.4l93.1-23.4L2642,308.3l-111.6-21.6L2404.1,313.3z"/>
	</g>
	<g id="XMLID_546_">
		<g id="XMLID_547_">
			<path id="XMLID_3390_" class="st4" d="M2606.9-163.6c11.2-22.1,14.7-61.6,1.9-83.6c-12.8-21.9-38.7-37.7-63-45
				c-4.1-1.2-8.5-2.1-12.5-0.8c-4,1.3-7.3,5.8-5.9,9.8c-4.7-3.5-9.6-7-15.2-8.8c-5.6-1.7-12.2-1.4-16.7,2.4
				c-4.5,3.8-5.8,11.4-1.6,15.6c-6.7-3-15.2-1.7-20.6,3.2c-5.5,4.9-7.6,13.2-5.2,20.2c2.3,6.7,7.6,14.4,12.4,19.5
				c4.8,5.2,5.3,10.2,3.9,17.1"/>
		</g>
	</g>
	<g id="XMLID_552_">
		<g id="XMLID_553_">
			<g id="XMLID_554_">
				<g id="XMLID_555_">
					<g id="XMLID_556_">
						<g id="XMLID_557_">
							<g id="XMLID_558_">
								<g id="XMLID_559_">
									<g id="XMLID_560_">
										<g id="XMLID_561_">
											<g id="XMLID_562_">
												<g id="XMLID_563_">
													<g id="XMLID_564_">
														<path id="XMLID_3387_" class="st10" d="M2514.9,17.9c0.7-10.6,2.4-106.3,2.4-106.7c0,0-35.5-4.4-37.1-39.7
															c-0.7-17.1,0.6-52.3,2.2-84.3c1.7-34.3,29.5-61.5,63.8-62.6l3.4-0.1c36.8,1,56.6,32.9,54.6,69.7l-5,204.8"/>
													</g>
												</g>
											</g>
										</g>
									</g>
								</g>
							</g>
						</g>
					</g>
				</g>
				<g id="XMLID_565_">
					<g id="XMLID_566_">
						<g id="XMLID_567_">
							<g id="XMLID_568_">
								<g id="XMLID_569_">
									<g id="XMLID_570_">
										<g id="XMLID_571_">
											<g id="XMLID_572_">
												<g id="XMLID_573_">
													<g id="XMLID_574_">
														<path id="XMLID_3376_" class="st11" d="M2517.3-88.8c0,0,22.3,0.6,45.6-15c0,0-10.6,22.1-46,20L2517.3-88.8z"/>
													</g>
												</g>
											</g>
										</g>
									</g>
								</g>
							</g>
						</g>
					</g>
				</g>
			</g>
		</g>
	</g>
	<g id="XMLID_669_">
		<g id="XMLID_670_">
			<g id="XMLID_671_">
				<g id="XMLID_672_">
					<g id="XMLID_673_">
						<g id="XMLID_674_">
							<g id="XMLID_675_">
								<g id="XMLID_676_">
									<path id="XMLID_3260_" class="st10" d="M2602.1-179.6c0.6-0.3,24.1-7.9,24,16.3c0,24.2-24.3,19.2-24.3,18.5
										C2601.7-145.5,2602.1-179.6,2602.1-179.6z"/>
								</g>
							</g>
						</g>
					</g>
				</g>
			</g>
		</g>
	</g>
	<path id="XMLID_3236_" class="st4" d="M2467-258.5c-2.8,31.4,35.8,44.5,52.8,26.9c7.8-8.1,14.7-18.2,25.4-21.9
		c7.2-2.5,15.3-1.1,22.1,2.3c0.1,0,0.1,0.1,0.2,0.1c10,5.2,15.9,16.7,17.4,27.8c2.2,15.5-0.3,29.2,3.7,43.4c0.6,2,1.3,4.2,3,5.5
		c2.9,2.1,7.2,0.3,9.6-2.4c3.9-4.3,5.2-10.2,6.1-16c1.9-13,1.8-26.4-1.5-39.2c-3.3-12.7-9.9-24.8-19.7-33.6
		c-12.2-11-29.1-16.4-45.5-15.6c-16.4,0.8-32.4,7.4-45.2,17.7c-5.9,4.8-11.4,10.5-14.3,17.6"/>
	<path id="XMLID_3222_" class="st10" d="M2298.1,26.5l-166.4-15.8l-26.3-6.3c0,0-60.2-10.8-65.8-12.5c-6.5-2-9.1,0.6-9.7,3.1
		c-0.9,3.8,2.9,7.9,8.4,9.9c1.9,0.7,32.6,10,32.6,10s-3,0.6-10.1,3.4c-7.1,2.7-13.7,12.3-16.8,23.4c-3,11-2.9,14.4,1.3,15.7
		c1.7,0.6,3.4,0,4.8-0.9c2.3-1.4,4-3.8,4.7-6.4c5.1-17.6,15.9-19.4,15.9-19.4l3.4,0.8c0,0-10.9,8.3-10.3,17.7c0.1,1.5,0.5,2.9,1,4
		c-1.4,4.7-0.3,10,2.9,13.7c3.3,3.8,8.8,5.6,13.8,4.5c2.4-0.5,4.9-2,5.1-4.4c0.1-1.3-0.4-2.5-0.9-3.7c-0.3-0.6-0.5-1.3-0.7-1.9l10,1
		c0,0,22.5,1,32.3,2.5l156.8,40.6c21.7,5.6,43.9-7.7,49.1-29.5v0C2339.1,52.1,2322.4,28.8,2298.1,26.5z"/>
	<g id="XMLID_709_">
		<path id="XMLID_3216_" class="st10" d="M2128.1,15.1c-0.1,3.5-3.5,6-6.9,6.9c-3.4,0.8-6.9,0.5-10.4,1.1
			c-10.3,1.8-17.9,11.5-28.2,12.8c-1.4,0.2-3.3,0-3.8-1.4c-0.4-1.3,0.6-2.5,1.6-3.5c8.3-7.9,16.6-15.9,24.9-23.8"/>
	</g>
	<path id="XMLID_3158_" class="st3" d="M2301.1,107.8l108.5-25c0,0-5.6,198.9-5.6,200.8c0,1.9-9,5-8.2,19.4l7.8,17.2l237.9,3.2
		l6.4-193.2l21.7-149.8l-49.9-30.9l-17.6-23.8l-68.6,72.4l-17.1-61.8l0.5-18.4l-17,18.4l-91.5,26.4l-120.9,56.4l-81.7-6.2
		l-21.2,71.5L2301.1,107.8z"/>
	<path id="XMLID_752_" class="st3" d="M2665.2-22.3c0,0,30,25.7,32,40.3c1.5,11.3,31,117,44.3,164.3c4.1,14.7,3.3,30.4-2.5,44.6
		l-38.3,94.8l-62-36.7l31-88.9l-25.7-75.4L2665.2-22.3z"/>
	<g id="XMLID_782_">
		<path id="XMLID_3122_" class="st10" d="M2626.8,398.9c-13.4-8.8-19.2-17.2-24.7-25.5c0.1-0.3,0.2-0.6,0-0.8
			c-0.2-0.3-0.5-0.5-0.9-0.6c-3-4.7-5.4-9-7.2-12.7c7.7-5,17.8-12.6,6.8-14.1c-13.5-1.9-23.1-8.5-24.5-12c-1.4-3.6,3.1-6.8,6.7-4.5
			c2.9,1.9,8.6,3.4,13,4.5c3.6,0.8,7.3,1.1,11,0.7c2.3-0.3,10.3-5.8,18.9-9.8c1.2-0.6,2.6-0.7,3.9-0.5l3.3-0.2
			c3.5-0.2,6.7-2.3,8.3-5.5l12.4-24l37.6,22.2l-29.8,41.3C2661.6,357.5,2641.1,384.7,2626.8,398.9z"/>
	</g>
	<g id="XMLID_784_">
		<path id="XMLID_785_" class="st12" d="M2634.6,403.3c-0.1,0.2-3.6-1.1-8.7-4.1c-5.1-3-11.7-8-17.8-14.8
			c-6.1-6.8-10.3-13.9-12.7-19.4c-2.4-5.4-3.3-9-3.1-9.1c0.6-0.3,5.3,13.8,17.3,27.1C2621.4,396.5,2634.9,402.7,2634.6,403.3z"/>
	</g>
	<g id="XMLID_801_">
		<g id="XMLID_802_">
			<g id="XMLID_803_">
				<polygon id="XMLID_3099_" class="st13" points="1132.4,899.3 1121.4,1104.6 1195.8,1122.6 1210.6,922 				"/>
			</g>
		</g>
	</g>
	<g id="XMLID_805_">
		<g id="XMLID_806_">
			<g id="XMLID_807_">
				<polygon id="XMLID_808_" points="1119.2,1102.9 1106.5,1158.6 1192.1,1158.6 1195.8,1122.3 				"/>
			</g>
		</g>
	</g>
	<g id="XMLID_809_">
		<g id="XMLID_810_">
			<g id="XMLID_811_">
				<g id="XMLID_812_">
					<path id="XMLID_813_" d="M1193.8,1150.5c0,0.3-4.8,0.6-12.5,0.7c-7.7,0.1-18.3-0.1-30.1-0.6c-11.3-0.5-21.5-0.9-30-1.3
						c-7.7-0.4-12.4-0.7-12.4-1c0-0.3,4.8-0.6,12.5-0.7c7.7-0.1,18.3,0.1,30.1,0.6c11.3,0.5,21.5,0.9,30,1.2
						C1189.1,1149.9,1193.8,1150.2,1193.8,1150.5z"/>
				</g>
			</g>
		</g>
	</g>
	<g id="XMLID_819_">
		<g id="XMLID_820_">
			<g id="XMLID_821_">
				<polyline id="XMLID_822_" points="1106.5,1158.6 1192.1,1158.6 1192.9,1150.5 1108,1148.4 1106.5,1157.6 				"/>
			</g>
		</g>
	</g>
	<g id="XMLID_824_">
		<g id="XMLID_825_">
			<g id="XMLID_826_">
				<g id="XMLID_827_">
					<polygon id="XMLID_3075_" class="st13" points="1414.9,999.1 1432.9,1135.2 1498.8,1130.6 1484.9,1005.8 					"/>
				</g>
			</g>
		</g>
	</g>
	<g id="XMLID_829_">
		<g id="XMLID_830_">
			<g id="XMLID_831_">
				<g id="XMLID_832_">
					<g id="XMLID_833_">
						<g id="XMLID_834_">
							<path id="XMLID_3070_" d="M1499.5,1115.8L1499.5,1115.8c0,0,74,25,75.2,38.5l-141.5,4.1l-1.3-37l5.2,1
								C1458.1,1126.6,1479.9,1124.3,1499.5,1115.8z"/>
						</g>
					</g>
				</g>
			</g>
		</g>
		<g id="XMLID_835_" class="st14">
			<g id="XMLID_836_">
				<g id="XMLID_837_">
					<g id="XMLID_838_">
						<g id="XMLID_839_">
							<g id="XMLID_840_">
								<path id="XMLID_3064_" d="M1448.5,1127.9c-2.7,0.8-4.5,4-3.8,6.7c0.7,2.7,3.9,4.6,6.6,3.8c2.7-0.8,5-4.5,4-7.1
									c-1-2.6-4.9-4.6-7.3-3.2"/>
							</g>
						</g>
					</g>
				</g>
			</g>
		</g>
		<g id="XMLID_841_" class="st14">
			<g id="XMLID_842_">
				<g id="XMLID_843_">
					<g id="XMLID_844_">
						<g id="XMLID_845_">
							<path id="XMLID_3057_" d="M1433.2,1158.4l0.1-11.5l135.6,0.3c0,0,6.4,2.6,5.8,7L1433.2,1158.4z"/>
						</g>
					</g>
				</g>
			</g>
		</g>
		<g id="XMLID_846_">
			<g id="XMLID_847_">
				<g id="XMLID_848_">
					<g id="XMLID_849_">
						<g id="XMLID_850_">
							<g id="XMLID_851_">
								<path id="XMLID_3051_" d="M1501.7,1115c0,0.7-3.4,1.1-6.8,3.4c-3.4,2.2-5.1,5.3-5.7,5c-0.6-0.1,0.3-4.3,4.4-7
									C1497.7,1113.7,1501.9,1114.4,1501.7,1115z"/>
							</g>
						</g>
					</g>
				</g>
			</g>
		</g>
		<g id="XMLID_852_">
			<g id="XMLID_853_">
				<g id="XMLID_854_">
					<g id="XMLID_855_">
						<g id="XMLID_856_">
							<g id="XMLID_857_">
								<path id="XMLID_3044_" d="M1516.8,1120.7c0.2,0.7-2.8,1.9-5,4.9c-2.3,2.9-2.8,6.1-3.5,6.1c-0.6,0.1-1.2-3.9,1.6-7.6
									C1512.7,1120.5,1516.7,1120.1,1516.8,1120.7z"/>
							</g>
						</g>
					</g>
				</g>
			</g>
		</g>
		<g id="XMLID_858_">
			<g id="XMLID_859_">
				<g id="XMLID_860_">
					<g id="XMLID_861_">
						<g id="XMLID_862_">
							<g id="XMLID_863_">
								<path id="XMLID_3037_" d="M1525.7,1138.2c-0.6,0.2-1.7-3.3,0-7.1c1.6-3.8,4.8-5.4,5.2-4.9c0.4,0.6-1.6,2.6-2.9,5.8
									C1526.5,1135.2,1526.4,1138.2,1525.7,1138.2z"/>
							</g>
						</g>
					</g>
				</g>
			</g>
		</g>
	</g>
	<g id="XMLID_864_">
		<g id="XMLID_865_">
			<g id="XMLID_866_">
				<g id="XMLID_867_">
					<g id="XMLID_868_">
						<g id="XMLID_869_">
							<path id="XMLID_3029_" d="M1500.2,1114.7c0,0.3-2.7,0.8-7.1,0.2c-2.2-0.3-4.8-0.9-7.5-2.1c-1.4-0.6-2.7-1.2-4.1-2
								c-0.7-0.4-1.4-0.8-2.2-1.6c-0.8-0.7-1.3-2.5-0.4-3.7c0.7-1.1,2-1.6,3-1.7c1-0.1,1.9,0.1,2.7,0.3c1.6,0.3,3.1,0.8,4.4,1.4
								c2.7,1.2,5,2.6,6.7,4.1c3.4,2.9,4.6,5.5,4.3,5.6c-0.3,0.2-2-1.9-5.4-4.3c-1.7-1.2-3.9-2.4-6.4-3.4c-1.3-0.5-2.7-0.9-4.1-1.1
								c-1.5-0.3-2.8-0.3-3.1,0.4c-0.1,0.3-0.1,0.4,0.2,0.8c0.3,0.4,1,0.8,1.6,1.2c1.3,0.8,2.6,1.5,3.8,2c2.5,1.2,4.9,1.9,6.9,2.4
								C1497.5,1114.2,1500.2,1114.3,1500.2,1114.7z"/>
						</g>
					</g>
				</g>
			</g>
		</g>
	</g>
	<g id="XMLID_870_">
		<g id="XMLID_871_">
			<g id="XMLID_872_">
				<g id="XMLID_873_">
					<g id="XMLID_874_">
						<g id="XMLID_875_">
							<path id="XMLID_3022_" d="M1499.3,1115.7c-0.2,0.1-1.7-2.3-2.1-6.8c-0.2-2.2,0-4.9,0.7-7.8c0.4-1.4,0.9-2.9,1.7-4.4
								c0.8-1.4,1.7-3.3,4.4-3.7c1.4-0.1,2.6,1,3,1.9c0.5,0.9,0.6,1.8,0.8,2.6c0.3,1.6,0.3,3.3,0.1,4.8c-0.4,3-1.5,5.6-2.8,7.4
								c-2.7,3.7-5.5,4.7-5.6,4.4c-0.2-0.3,2.1-1.7,4.1-5.3c1-1.8,1.9-4.1,2-6.7c0.1-1.3,0-2.7-0.2-4.1c-0.3-1.5-0.9-2.7-1.4-2.5
								c-0.7,0-1.9,1.2-2.4,2.4c-0.7,1.3-1.2,2.6-1.6,3.9c-0.8,2.6-1.1,5-1.2,7.1C1498.9,1113,1499.7,1115.6,1499.3,1115.7z"/>
						</g>
					</g>
				</g>
			</g>
		</g>
	</g>
	<g id="XMLID_3010_">
		<g id="XMLID_879_">
			<g id="XMLID_880_">
				<path id="XMLID_881_" class="st5" d="M1187.5,310.3c0,0-52.2,87.2-52.2,139.4l-12.9,635.5l82.5,19.7l62.9-621
					c0,0,152.4,622.6,157.3,622.6c4.9,0,79.9-13.5,79.9-13.5l-113.8-779.9L1187.5,310.3z"/>
			</g>
		</g>
	</g>
	<g id="XMLID_904_">
		<g id="XMLID_905_">
			<path id="XMLID_906_" class="st4" d="M1223.8-188.8c2.8,8.2-6.9,15.2-15.4,17.2c-8.5,1.9-18.7,3.2-22.6,10.9
				c-3.4,6.7,0,15.3-3,22.2c-5.8,13.1-29.4,10.4-34,24c-3.2,9.3,5.6,18.9,4.5,28.7c-0.9,8.4-8.7,14.2-15.4,19.3
				c-6.8,5.1-13.9,12.1-12.8,20.6c1.2,9.7,13.1,16.4,12,26.2c-1.1,9.6-14,14.1-15.9,23.5c-2.2,11.2,11.8,18.4,16.4,29
				c3.5,8,1.3,18.4,7.2,24.9c6,6.7,16.6,5.4,25.3,3.5c29.1-6.2,58.2-12.3,87.4-18.5c-5.9-13.8-0.4-30,8.1-42.4s19.6-22.9,26.9-36.1
				c7.2-13.2,9.6-30.8,0.1-42.4"/>
		</g>
	</g>
	<g id="XMLID_907_">
		<g id="XMLID_908_">
			<g id="XMLID_909_">
				<path id="XMLID_910_" class="st4" d="M1377.4-118.9c-0.5,0.1-0.1-5.6-2.9-13.8c-0.8-2-1.8-4.2-3.5-5.7c-1.7-1.6-4-0.6-5.4,1.8
					c-2.8,4.7-3.8,11.2-3.9,17.7c0.1,6.5,1,13,3.9,17.7c1.4,2.4,3.7,3.4,5.4,1.8c1.7-1.5,2.7-3.7,3.5-5.7
					C1377.3-113.3,1376.9-119,1377.4-118.9c0.1,0,0.3,1.4,0.3,3.9c-0.1,2.5-0.3,6.1-1.6,10.5c-0.8,2.1-1.6,4.6-3.8,6.6
					c-1.1,1-2.9,1.7-4.6,1.1c-1.7-0.6-2.8-1.8-3.7-3.1c-3.4-5.3-4.3-12-4.4-18.9c0.1-6.8,1-13.5,4.4-18.9c0.9-1.3,2-2.6,3.7-3.1
					c1.7-0.6,3.6,0.1,4.6,1.1c2.2,2,3.1,4.5,3.8,6.6c1.4,4.3,1.6,8,1.6,10.5C1377.7-120.3,1377.5-118.9,1377.4-118.9z"/>
			</g>
		</g>
	</g>
	<g id="XMLID_912_">
		<g id="XMLID_913_">
			<path id="XMLID_914_" class="st4" d="M1234.9-38.5c-15.8-26.7-20.3-62.3-24.3-93c-1.9-14.5-5.2-35.1,5-44.2
				c10.9-9.7,12-24.7,24.5-32.2c12.5-7.5,29.5-8.1,41.4,0.5"/>
		</g>
	</g>
	<g id="XMLID_918_">
		<g id="XMLID_919_">
			<g id="XMLID_920_">
				<g id="XMLID_921_">
					<g id="XMLID_922_">
						<g id="XMLID_923_">
							<path id="XMLID_2974_" class="st15" d="M1278.7,56.1L1278.7,56.1c24.2,1.9,45.2-16.7,46.2-40.9c1-23.3,1.8-46.9,1.8-46.9
								s35.4-3.2,38-38.2c2.7-35,1.7-115.7,1.7-115.7l0,0c-39.4-20-86.5-17.1-123.2,7.6L1245-55l-0.2,66.2
								C1245,33.5,1256.5,54.3,1278.7,56.1z"/>
						</g>
					</g>
				</g>
			</g>
		</g>
	</g>
	<g id="XMLID_924_">
		<g id="XMLID_925_">
			<path id="XMLID_926_" class="st4" d="M1330-112.7c-6-7.5-15.8-10.5-23.9-5.3c-8.1,5.2-11.2,16.8-6.8,25.4
				c3.1,6,10.1,11.5,17.1,13c6.6,1.4,11.3,7.8,10.5,14.5c-1,8.8-15.6,12-22.3,19.3c-10.3,11.3-32.8,16-48,17.7
				c-14.9,1.7-13.1,1.9-21.7-10.4c-6.3-8.9-8.2-17.5-8.4-28.4c-0.5-25.8-0.9-51.6-1.4-77.4c-0.2-9.3-0.3-18.7,1.8-27.8
				c2.2-9,6.9-17.8,14.7-22.9c8.5-5.6,19.3-6,29-9.1c12.1-3.9,22.4-11.9,33.8-17.7c11.4-5.8,25.3-9.2,36.6-3.4
				c8.2,4.1,13.6,12.3,21.5,16.8c11.3,6.5,26.7,5,32.1,21.7c1.9,5.8,1.7,12.1-0.2,17.8c-7.7,22.6-35.8,31.6-55.9,21.8
				c-0.4,3.8,3.3,12.4-0.7,24.5C1336.5-118.7,1336-112.8,1330-112.7"/>
		</g>
	</g>
	<g id="XMLID_931_">
		<g id="XMLID_932_">
			<g id="XMLID_933_">
				<path id="XMLID_934_" class="st4" d="M1377.5-120.6c0.1,0.6-10.4,2.9-23.5,5c-13.1,2.1-23.8,3.4-23.9,2.8
					c-0.1-0.6,10.4-2.9,23.5-5C1366.7-120,1377.4-121.2,1377.5-120.6z"/>
			</g>
		</g>
	</g>
	<g id="XMLID_935_">
		<g id="XMLID_936_">
			<path id="XMLID_937_" class="st4" d="M1237.7-4.4c1.7,4.5,7.5,6.1,12.2,4.9c4.6-1.3,8.3-4.7,11.8-8c3.5-3.3,7.1-6.8,11.7-8.1
				c9.3-2.8,20.7,3.4,28.6-2.4c7.1-5.3,6.2-17.2,13.2-22.6c3.7-2.9,8.9-3.3,12.7-6.1c7.1-5.2,5.9-16.9,0-23.4
				c-6-6.5-14.9-9.1-23.4-11.5l-75.2,32L1237.7-4.4z"/>
		</g>
	</g>
	<g id="XMLID_946_">
		<polyline id="XMLID_947_" class="st3" points="1335.3,0.9 1326.2,-17.8 1247.1,-20.8 1234.7,3.5 1334,3.5 		"/>
	</g>
	<path id="XMLID_952_" class="st3" d="M1606.8,169.9c-0.6-2.8,20.9-114.4,26.8-145.1c0.8-4-2.3-7.7-6.4-7.7h-158.2
		c-3,0-5.6,2.1-6.3,5l-32.4,136.6l-79.8,6l2.8,5.2H1606.8z"/>
	<polygon id="XMLID_954_" class="st16" points="1599.9,160 1625.5,24.8 1470,25.7 1435.8,160.2 	"/>
	<path id="XMLID_955_" class="st9" d="M1435.7,160.3l0-0.1l34.2-134.6h0.1l155.6-0.9l0,0.1L1600,160.1h-0.1L1435.7,160.3z
		 M1470.1,25.8L1436,160.1l163.9-0.2l25.6-135.1L1470.1,25.8z"/>
	<g id="XMLID_963_">
		<g id="XMLID_964_">
			<g id="XMLID_965_">
				<path id="XMLID_966_" class="st7" d="M1589,126.8c0,0.1-0.7,0.1-2,0.2c-1.6,0.1-3.5,0.1-5.8,0.2c-5.4,0.1-12.6,0.2-21.4,0.3
					c-18.1,0.2-43.1,0.3-70.7,0.3c-7.8,0-15.5,0-22.7,0l-1.3,0l0.3-1.2c5.5-21.3,10.3-39.9,13.8-53.5c1.7-6.4,3.2-11.7,4.2-15.6
					c1-3.6,1.6-5.6,1.8-5.6c0.1,0-0.3,2.1-1.1,5.8c-0.9,4-2.2,9.3-3.7,15.8c-3.4,13.7-7.9,32.3-13.2,53.7l-0.9-1.2
					c7.2,0,14.9,0,22.7,0c27.6,0,52.6,0.1,70.7,0.3c8.8,0.1,16.1,0.2,21.4,0.3c2.3,0.1,4.3,0.1,5.8,0.2
					C1588.3,126.7,1589,126.7,1589,126.8z"/>
			</g>
		</g>
		<g id="XMLID_967_">
			<polygon id="XMLID_968_" class="st7" points="1476.4,121.7 1479.3,108.6 1499.3,108.6 1496.7,121.7 			"/>
		</g>
		<g id="XMLID_969_">
			<polygon id="XMLID_970_" class="st7" points="1503.6,121.7 1509.6,96 1529.7,96 1524,121.7 			"/>
		</g>
		<g id="XMLID_971_">
			<polygon id="XMLID_972_" class="st7" points="1530.8,121.7 1533.7,108.6 1553.7,108.6 1551.2,121.7 			"/>
		</g>
		<g id="XMLID_973_">
			<polygon id="XMLID_974_" class="st7" points="1558,121.7 1569.5,71.8 1589.5,71.8 1578.4,121.7 			"/>
		</g>
	</g>
	<g id="XMLID_975_">
		<g id="XMLID_976_">
			<path id="XMLID_977_" class="st4" d="M1492.1,136.3c0,0.6-3.7,1-8.1,0.9c-4.4,0-8.1-0.5-8.1-1.1c0-0.6,3.6-1,8.1-0.9
				C1488.5,135.2,1492.1,135.7,1492.1,136.3z"/>
		</g>
	</g>
	<g id="XMLID_978_">
		<g id="XMLID_979_">
			<path id="XMLID_980_" class="st4" d="M1518.5,136.2c0,0.6-3.7,1-8.1,0.9c-4.4,0-8.1-0.5-8.1-1.1c0-0.6,3.6-1,8.1-0.9
				C1514.9,135.2,1518.5,135.7,1518.5,136.2z"/>
		</g>
	</g>
	<g id="XMLID_981_">
		<g id="XMLID_982_">
			<path id="XMLID_983_" class="st4" d="M1544.8,136.2c0,0.6-3.7,1-8.1,0.9c-4.4,0-8.1-0.5-8.1-1.1c0-0.6,3.6-1,8.1-0.9
				C1541.3,135.1,1544.9,135.6,1544.8,136.2z"/>
		</g>
	</g>
	<g id="XMLID_984_">
		<g id="XMLID_985_">
			<path id="XMLID_986_" class="st4" d="M1571.2,136.1c0,0.6-3.7,1-8.1,0.9c-4.4,0-8.1-0.5-8.1-1.1c0-0.6,3.6-1,8.1-0.9
				C1567.6,135.1,1571.3,135.6,1571.2,136.1z"/>
		</g>
	</g>
	<g id="XMLID_988_">
		<ellipse id="XMLID_989_" class="st4" cx="1510" cy="46" rx="22.4" ry="1"/>
	</g>
	<g id="XMLID_991_">
		<ellipse id="XMLID_992_" class="st4" cx="1499" cy="40.4" rx="9.9" ry="1"/>
	</g>
	<g id="XMLID_993_">
		<path id="XMLID_994_" class="st3" d="M1466,252.2l91.6-66.3l-3.4-5.5c-5-8.1-12.5-14.4-21.4-18l-14.3,2.6l-84.9,12.9L1466,252.2z"
			/>
	</g>
	<g id="XMLID_2875_">
		<g id="XMLID_998_">
			<g id="XMLID_999_">
				<path id="XMLID_1000_" class="st3" d="M1462.8,254c19-9.4,23.8-32,14.6-51.1l-78.8-168.4c-1.8-4.2-4.5-7.9-7.9-10.9
					c-31-26.9-65.2-22.3-65.2-22.3l-82.2-2.2c0,0-64.6,0-88.8,50.9c-1.8,3.7-39.3,78.2-64.1,127.2c-11.4,22.7-0.6,50.2,23.3,58.9v0
					c20.9,7.7,44.2-2.1,53.3-22.5l26.9-59.9l16.9,85.9l-24.4,70.8l203.8,2.8l-15.7-94.6l-4.9-67.5l41.3,85.2
					C1420.3,255.5,1443.6,263.5,1462.8,254L1462.8,254z"/>
			</g>
			<g id="XMLID_1001_" class="st17">
				<g id="XMLID_1002_">
					<g id="XMLID_1003_">
						<path id="XMLID_1004_" class="st3" d="M1217.7,238c15.4,11.6,38.2,7.7,57.2,4.5c19-3.2,37.4-12.2,49.8-27
							c5.6-6.6,10-14.9,9.2-23.5c-0.8-8.6-8.4-16.9-17-15.9c-9.8,1.2-14.6,12.2-19.3,20.9c-15,27.5-48.8,43.4-79.6,37.4
							C1218,234.4,1214.9,235.9,1217.7,238z"/>
					</g>
				</g>
			</g>
			<g id="XMLID_1005_" class="st17">
				<g id="XMLID_1006_">
					<g id="XMLID_1007_">
						<path id="XMLID_1008_" class="st3" d="M1343.5,105.3c4.8,38.8,2.7,35.8,10.7,74c4,18.8,8.8,38.4,21.8,52.6l-6.4-80.9
							L1343.5,105.3z"/>
					</g>
				</g>
			</g>
		</g>
		<g id="XMLID_1009_">
			<g id="XMLID_1010_">
				<g id="XMLID_1011_">
					<path id="XMLID_1012_" class="st3" d="M1152.2-105.2"/>
				</g>
			</g>
		</g>
	</g>
	<g id="XMLID_997_">
		<polygon id="XMLID_1013_" class="st3" points="1186.4,310.3 1180.6,293.3 1195.8,283.2 1382.7,267.8 1395.9,292.6 1390.3,313.1 		
			"/>
	</g>
	<g id="XMLID_1014_">
		<g id="XMLID_1015_">
			<path id="XMLID_1016_" class="st4" d="M1225-10.4c-7.8,3-14,9.7-16.5,17.7c-2.5,8-1.1,17,3.5,23.9c1.6,2.4,3.7,4.8,3.6,7.7
				c-0.4,6.9-11.5,7.1-15,13c-2.4,4-0.3,9.3,3,12.5c3.3,3.2,7.7,5.1,11.5,7.7c3.8,2.6,7.3,6.6,7.1,11.2c3.9-0.1,6.2-4.8,5.6-8.7
				c-0.6-3.9-3-7.1-4.8-10.6c-1.7-3.5-2.7-7.9-0.5-11.1c2.6-3.6,7.7-3.8,11.9-5.4c8-3.1,12.3-13.5,8.8-21.3
				c-2.5-5.6-8.3-11.3-5.5-16.7c1.6-3,5.2-4.2,8.2-5.9c6.2-3.4,10.4-10,11-17.1c0.5-7-2.6-14.2-8.2-18.6"/>
		</g>
	</g>
	<g id="XMLID_1032_">
		<polyline id="XMLID_1033_" class="st18" points="1557.5,185.9 1594.7,169.9 1545.2,169.9 1556,183.9 		"/>
	</g>
	<path id="XMLID_1089_" class="st2" d="M979.6,70.7c5.4,0.7,10.6,2.1,15.5,4.1l11.4-9.6l19.6,14.9l-6.2,13.5c3.3,4.2,6,8.8,8.1,13.9
		l14.8,1.3l3.3,24.4l-13.9,5.2c-0.7,5.4-2.1,10.6-4.1,15.5l9.6,11.4l-14.9,19.6l-13.5-6.2c-4.2,3.3-8.8,6-13.9,8.1l-1.3,14.8
		l-24.4,3.3l-5.2-13.9c-5.4-0.7-10.6-2.1-15.5-4.1l-11.4,9.6L918,181.6l6.2-13.5c-3.3-4.2-6-8.8-8.1-13.9l-14.8-1.3l-3.3-24.4
		l13.9-5.2c0.7-5.4,2.1-10.6,4.1-15.5l-9.6-11.4l14.9-19.6l13.5,6.2c4.2-3.3,8.8-6,13.9-8.1l1.3-14.8l24.4-3.3L979.6,70.7
		L979.6,70.7z M969.6,104.6c-14.4,2-24.6,15.3-22.6,29.7c2,14.4,15.3,24.6,29.7,22.6c14.4-2,24.6-15.3,22.6-29.7
		C997.4,112.7,984.1,102.6,969.6,104.6z"/>
	<path id="XMLID_1104_" class="st5" d="M934.4,235.3c3.4,0.4,6.7,1.3,9.7,2.6l7.2-6l12.3,9.4l-3.9,8.5c2,2.6,3.8,5.6,5.1,8.7
		l9.3,0.8l2.1,15.3l-8.7,3.3c-0.4,3.4-1.3,6.7-2.6,9.7l6,7.2l-9.4,12.3l-8.5-3.9c-2.6,2-5.6,3.8-8.7,5.1l-0.8,9.3l-15.3,2.1
		l-3.3-8.7c-3.4-0.4-6.7-1.3-9.7-2.6l-7.2,6l-12.3-9.4l3.9-8.5c-2-2.6-3.8-5.6-5.1-8.7l-9.3-0.8l-2.1-15.3l8.7-3.3
		c0.4-3.4,1.3-6.7,2.6-9.7l-6-7.2l9.4-12.3l8.5,3.9c2.6-2,5.6-3.8,8.7-5.1l0.8-9.3l15.3-2.1L934.4,235.3L934.4,235.3z M928.1,256.5
		c-9.1,1.2-15.4,9.6-14.2,18.7c1.2,9.1,9.6,15.4,18.7,14.2c9.1-1.2,15.4-9.6,14.2-18.7C945.5,261.6,937.1,255.3,928.1,256.5z"/>
	<g id="XMLID_1106_">
		<path id="XMLID_1107_" class="st5" d="M928.1,256.5c0,0,0.4-0.1,1-0.2c0.7-0.1,1.7-0.2,3.1-0.1c2.6,0.2,6.6,1.3,10.2,4.7
			c3.5,3.3,6.1,9.3,4.7,15.7c-0.6,3.2-2.3,6.3-4.8,8.8c-2.5,2.5-5.9,4.2-9.6,4.7c-3.7,0.5-7.5-0.2-10.5-2c-3.1-1.7-5.5-4.3-7-7.1
			c-3-5.8-2.1-12.3,0.4-16.4c2.5-4.2,6.1-6.3,8.6-7.2c1.3-0.5,2.3-0.7,3-0.8C927.7,256.5,928.1,256.5,928.1,256.5
			c0,0.1-1.5,0.3-3.8,1.3c-2.3,1-5.7,3.1-7.9,7.2c-2.3,3.9-3,10-0.1,15.3c1.4,2.6,3.6,5,6.5,6.6c2.9,1.6,6.3,2.2,9.7,1.8
			c3.4-0.5,6.6-2,8.9-4.3c2.4-2.2,3.9-5.1,4.5-8.1c1.3-5.9-1-11.6-4.2-14.7c-3.2-3.3-7-4.5-9.6-4.8
			C929.6,256.4,928.1,256.7,928.1,256.5z"/>
	</g>
	<g id="XMLID_1109_">
		<path id="XMLID_1110_" class="st5" d="M934.4,235.3c0,0-0.1-0.2-0.2-0.5c-0.2-0.4-0.4-1-0.7-1.6c-0.6-1.5-1.5-3.7-2.6-6.5l0.2,0.1
			c-3.9,0.6-9.1,1.3-15.3,2.2l0.3-0.3c-0.2,2.8-0.5,6-0.8,9.3l0,0.2l-0.2,0.1c-2.9,1.2-5.8,2.9-8.6,5.1l-0.2,0.2l-0.2-0.1
			c-2.7-1.2-5.5-2.5-8.5-3.8l0.6-0.1c-2.9,3.9-6,8-9.3,12.3l0-0.7c1.9,2.2,3.9,4.6,6,7.1l0.2,0.3l-0.1,0.3c-1.2,2.9-2.1,6.2-2.5,9.6
			l0,0.3l-0.3,0.1c-2.7,1-5.7,2.1-8.7,3.3l0.4-0.6c0.7,4.8,1.4,10,2.1,15.3l-0.6-0.5c2.9,0.3,6.1,0.5,9.3,0.8l0.4,0l0.1,0.4
			c1.2,2.9,2.9,5.8,5,8.6l0.2,0.3l-0.2,0.4c-1.2,2.7-2.5,5.6-3.9,8.5l-0.2-0.8c3.9,3,8.1,6.1,12.3,9.4l-0.8,0c2.3-1.9,4.7-3.9,7.2-6
			l0.3-0.3l0.4,0.2c2.9,1.2,6.2,2.1,9.6,2.5l0,0l0,0c0.2,0.2-0.5-0.4,0.5,0.4l0,0l0,0l0,0l0,0.1l0.1,0.1l0.1,0.3l0.2,0.6l0.4,1.1
			l0.8,2.2c0.5,1.5,1.1,2.9,1.6,4.4l-0.7-0.4c5.2-0.7,10.3-1.4,15.3-2.1l-0.6,0.6c0.3-3.1,0.6-6.2,0.8-9.3l0-0.4l0.4-0.2
			c3.1-1.3,6-3,8.6-5l0.3-0.2l0.4,0.2c2.9,1.3,5.7,2.6,8.5,3.9l-0.8,0.2c3.2-4.2,6.3-8.3,9.4-12.3l0,0.8c-2-2.4-4-4.8-6-7.2
			l-0.2-0.3l0.1-0.3c1.3-3.1,2.1-6.4,2.6-9.6l0-0.3l0.3-0.1c3-1.1,5.9-2.2,8.8-3.2l-0.4,0.6c-0.7-5.4-1.4-10.5-2-15.3l0.5,0.4
			c-3.3-0.3-6.3-0.6-9.3-0.9l-0.3,0l-0.1-0.3c-1.4-3.3-3.1-6.1-5-8.6l-0.2-0.2l0.1-0.2c1.4-3.1,2.7-5.9,3.9-8.5l0.1,0.5
			c-4.7-3.7-8.8-6.8-12.2-9.4l0.4,0c-2.9,2.4-5.2,4.3-7.2,5.9l-0.1,0.1l-0.1,0c-3.1-1.3-5.6-1.9-7.2-2.3c-0.8-0.2-1.4-0.3-1.8-0.4
			C934.5,235.3,934.4,235.3,934.4,235.3c0,0,0.2,0,0.6,0c0.4,0,1,0.1,1.9,0.3c1.7,0.3,4.1,0.8,7.3,2.1l-0.2,0
			c1.9-1.7,4.3-3.6,7.1-6.1l0.2-0.2l0.2,0.1c3.5,2.6,7.6,5.7,12.4,9.3l0.3,0.2l-0.1,0.3c-1.2,2.6-2.4,5.4-3.8,8.5l-0.1-0.5
			c2,2.5,3.8,5.4,5.2,8.8l-0.4-0.3c3,0.3,6,0.5,9.3,0.8l0.4,0l0.1,0.4c0.7,4.8,1.4,9.9,2.1,15.3l0.1,0.4l-0.4,0.2
			c-2.8,1.1-5.7,2.2-8.7,3.3l0.4-0.5c-0.4,3.3-1.3,6.7-2.6,9.9l-0.1-0.6c2,2.3,4,4.7,6,7.1l0.3,0.4l-0.3,0.4c-3,4-6.2,8.1-9.3,12.3
			l-0.3,0.4l-0.5-0.2c-2.8-1.3-5.6-2.6-8.5-3.9l0.7-0.1c-2.7,2.1-5.6,3.8-8.9,5.2l0.4-0.5c-0.3,3.1-0.5,6.2-0.8,9.3l0,0.5l-0.5,0.1
			c-5,0.7-10.1,1.4-15.3,2.1l-0.5,0.1l-0.2-0.5c-0.5-1.4-1.1-2.9-1.6-4.4l-0.8-2.2l-0.4-1.1l-0.2-0.6l-0.1-0.3l-0.1-0.1l0-0.1l0,0
			l0,0l0,0c1.1,0.9,0.3,0.2,0.5,0.4l0,0l0,0c-3.5-0.4-6.9-1.4-9.9-2.6l0.7-0.1c-2.5,2.1-4.9,4.1-7.2,6l-0.4,0.3l-0.4-0.3
			c-4.2-3.2-8.4-6.4-12.3-9.4l-0.4-0.3l0.2-0.5c1.3-2.9,2.7-5.8,3.9-8.5l0.1,0.7c-2.2-2.8-3.9-5.9-5.2-8.9l0.5,0.4
			c-3.2-0.3-6.4-0.6-9.3-0.8l-0.5,0l-0.1-0.5c-0.7-5.3-1.4-10.5-2.1-15.3l-0.1-0.5l0.4-0.2c3-1.1,6-2.2,8.8-3.2l-0.4,0.5
			c0.4-3.6,1.4-6.9,2.6-9.9l0.1,0.6c-2.1-2.5-4.1-5-6-7.2l-0.3-0.3l0.3-0.3c3.3-4.3,6.4-8.4,9.4-12.3l0.2-0.3l0.3,0.2
			c3,1.4,5.8,2.7,8.5,3.9l-0.5,0.1c2.9-2.2,5.9-3.9,8.8-5.1l-0.2,0.3c0.3-3.3,0.6-6.5,0.9-9.3l0-0.3l0.3,0c6.2-0.8,11.4-1.4,15.3-2
			l0.2,0l0.1,0.2c1,2.8,1.8,5,2.3,6.5c0.2,0.7,0.4,1.3,0.6,1.7C934.3,235,934.4,235.2,934.4,235.3z"/>
	</g>
	<g id="XMLID_1116_">
		<g id="XMLID_1122_">
			<g id="XMLID_1123_">
				<g id="XMLID_1124_">
					<g id="XMLID_1125_">
						<g id="XMLID_1126_">
							<g id="XMLID_1127_">
								<path id="XMLID_1128_" class="st4" d="M1398.9-420.4c0,0.1-1,0.1-2.9,0.2c-2.1,0-4.8,0.1-8.1,0.2
									c-6.9,0.1-16.5,0.2-27.3,0.2l-0.5,0l0-0.5c0-1.7,0-3.6,0-5.4c0-12.1,0.1-23,0.2-30.9c0.1-3.8,0.1-7,0.2-9.4
									c0.1-2.2,0.1-3.4,0.2-3.4c0.1,0,0.1,1.2,0.2,3.4c0,2.4,0.1,5.6,0.2,9.4c0.1,7.9,0.2,18.9,0.2,30.9c0,1.9,0,3.7,0,5.4
									l-0.5-0.5c10.8,0,20.4,0.1,27.3,0.2c3.3,0.1,6,0.1,8.1,0.2C1397.9-420.6,1398.9-420.5,1398.9-420.4z"/>
							</g>
						</g>
					</g>
				</g>
			</g>
		</g>
	</g>
	<g id="XMLID_1129_">
		<g id="XMLID_1130_">
			<g id="XMLID_1131_">
				<g id="XMLID_1132_">
					<g id="XMLID_1133_">
						<g id="XMLID_1134_">
							<g id="XMLID_1135_">
								<ellipse id="XMLID_1136_" class="st4" cx="1360.8" cy="-485.7" rx="0.5" ry="7"/>
							</g>
						</g>
					</g>
				</g>
			</g>
		</g>
	</g>
	<g id="XMLID_1137_">
		<g id="XMLID_1138_">
			<g id="XMLID_1139_">
				<g id="XMLID_1140_">
					<g id="XMLID_1141_">
						<g id="XMLID_1142_">
							<g id="XMLID_1143_">
								
									<ellipse id="XMLID_1144_" transform="matrix(0.7071 -0.7071 0.7071 0.7071 745.2671 846.0801)" class="st4" cx="1393.9" cy="-476.6" rx="6.9" ry="0.5"/>
							</g>
						</g>
					</g>
				</g>
			</g>
		</g>
	</g>
	<g id="XMLID_1145_">
		<g id="XMLID_1146_">
			<g id="XMLID_1147_">
				<g id="XMLID_1148_">
					<g id="XMLID_1149_">
						<g id="XMLID_1150_">
							<g id="XMLID_1151_">
								<path id="XMLID_1152_" class="st4" d="M1421.1-457.2c0.1,0.3-2.5,1.9-5.7,3.8c-3.2,2-5.9,3.6-6.1,3.3
									c-0.2-0.2,2.2-2.3,5.5-4.3C1418-456.3,1420.9-457.4,1421.1-457.2z"/>
							</g>
						</g>
					</g>
				</g>
			</g>
		</g>
	</g>
	<g id="XMLID_1153_">
		<g id="XMLID_1154_">
			<g id="XMLID_1155_">
				<g id="XMLID_1156_">
					<g id="XMLID_1157_">
						<g id="XMLID_1158_">
							<g id="XMLID_1159_">
								<ellipse id="XMLID_1160_" class="st4" cx="1424.5" cy="-421.1" rx="9.6" ry="0.5"/>
							</g>
						</g>
					</g>
				</g>
			</g>
		</g>
	</g>
	<g id="XMLID_1161_">
		<g id="XMLID_1162_">
			<g id="XMLID_1163_">
				<g id="XMLID_1164_">
					<g id="XMLID_1165_">
						<g id="XMLID_1166_">
							<g id="XMLID_1167_">
								<ellipse id="XMLID_1168_" class="st4" cx="1292.5" cy="-422.4" rx="9" ry="0.5"/>
							</g>
						</g>
					</g>
				</g>
			</g>
		</g>
	</g>
	<g id="XMLID_1169_">
		<g id="XMLID_1170_">
			<g id="XMLID_1171_">
				<g id="XMLID_1172_">
					<g id="XMLID_1173_">
						<g id="XMLID_1174_">
							<g id="XMLID_1175_">
								<path id="XMLID_1176_" class="st4" d="M1310.9-395.6c0.2,0.2-2.9,3-6.8,6.2c-4,3.2-7.3,5.6-7.5,5.3c-0.2-0.2,2.9-3,6.8-6.2
									C1307.4-393.4,1310.7-395.8,1310.9-395.6z"/>
							</g>
						</g>
					</g>
				</g>
			</g>
		</g>
	</g>
	<g id="XMLID_1177_">
		<g id="XMLID_1178_">
			<g id="XMLID_1179_">
				<g id="XMLID_1180_">
					<g id="XMLID_1181_">
						<g id="XMLID_1182_">
							<g id="XMLID_1183_">
								<path id="XMLID_1184_" class="st4" d="M1334.1-374.8c0.2,0.2-2,3.7-4.6,8c-2.6,4.4-4.6,8-4.9,7.9c-0.3-0.1,1.3-4,4-8.4
									C1331.1-371.8,1333.8-375,1334.1-374.8z"/>
							</g>
						</g>
					</g>
				</g>
			</g>
		</g>
	</g>
	<g id="XMLID_1185_">
		<g id="XMLID_1186_">
			<g id="XMLID_1187_">
				<g id="XMLID_1188_">
					<g id="XMLID_1189_">
						<g id="XMLID_1190_">
							<g id="XMLID_1191_">
								<ellipse id="XMLID_1192_" class="st4" cx="1360.8" cy="-357.6" rx="0.5" ry="9.6"/>
							</g>
						</g>
					</g>
				</g>
			</g>
		</g>
	</g>
	<g id="XMLID_1193_">
		<g id="XMLID_1194_">
			<g id="XMLID_1195_">
				<g id="XMLID_1196_">
					<g id="XMLID_1197_">
						<g id="XMLID_1198_">
							<g id="XMLID_1199_">
								<path id="XMLID_1200_" class="st4" d="M1402-360.8c-0.2,0.2-3.9-1.9-7.9-5.4c-4-3.5-6.6-6.9-6.4-7.1
									c0.2-0.2,3.2,2.8,7.1,6.3C1398.8-363.6,1402.2-361.1,1402-360.8z"/>
							</g>
						</g>
					</g>
				</g>
			</g>
		</g>
	</g>
	<g id="XMLID_1201_">
		<g id="XMLID_1202_">
			<g id="XMLID_1203_">
				<g id="XMLID_1204_">
					<g id="XMLID_1205_">
						<g id="XMLID_1206_">
							<g id="XMLID_1207_">
								
									<ellipse id="XMLID_1208_" transform="matrix(0.7071 0.7071 -0.7071 0.7071 140.5056 -1114.3767)" class="st4" cx="1415.4" cy="-387.6" rx="8.4" ry="0.5"/>
							</g>
						</g>
					</g>
				</g>
			</g>
		</g>
	</g>
	<g id="XMLID_1209_">
		<g id="XMLID_1210_">
			<g id="XMLID_1211_">
				<g id="XMLID_1212_">
					<g id="XMLID_1213_">
						<g id="XMLID_1214_">
							<g id="XMLID_1215_">
								
									<ellipse id="XMLID_1216_" transform="matrix(0.7071 0.7071 -0.7071 0.7071 61.6348 -1055.4407)" class="st4" cx="1304.8" cy="-453.3" rx="7.4" ry="0.5"/>
							</g>
						</g>
					</g>
				</g>
			</g>
		</g>
	</g>
	<g id="XMLID_1217_">
		<g id="XMLID_1218_">
			<g id="XMLID_1219_">
				<g id="XMLID_1220_">
					<g id="XMLID_1221_">
						<g id="XMLID_1222_">
							<g id="XMLID_1223_">
								
									<ellipse id="XMLID_1224_" transform="matrix(0.7087 0.7055 -0.7055 0.7087 49.6061 -1076.8197)" class="st4" cx="1328.8" cy="-478.3" rx="7.2" ry="0.5"/>
							</g>
						</g>
					</g>
				</g>
			</g>
		</g>
	</g>
	<g id="XMLID_1225_">
		<g id="XMLID_1226_">
			<g id="XMLID_1227_">
				<g id="XMLID_1228_">
					<path id="XMLID_1229_" class="st5" d="M1707.3,661.9c0,0.1-1.1,0.1-3.3,0.2c-2.3,0.1-5.4,0.1-9.3,0.2c-8.3,0.1-20,0.2-34.4,0.3
						c-29.2,0.1-69.2,0.2-113.3,0.3c-2.8,0-5.5,0-8.1,0l-1.1,0l0-1.1c0.1-42.3,0.2-80.3,0.3-107.9c0.1-13.6,0.3-24.6,0.3-32.4
						c0.1-3.7,0.1-6.6,0.2-8.8c0.1-2,0.1-3.1,0.2-3.1c0.1,0,0.1,1.1,0.2,3.1c0,2.2,0.1,5.1,0.2,8.8c0.1,7.9,0.2,18.9,0.3,32.4
						c0.1,27.6,0.2,65.6,0.3,107.9l-1.1-1.1c2.6,0,5.3,0,8.1,0c44.2,0.1,84.1,0.2,113.3,0.3c14.3,0.1,26,0.3,34.4,0.3
						c3.9,0.1,7,0.2,9.3,0.2C1706.1,661.7,1707.3,661.8,1707.3,661.9z"/>
				</g>
			</g>
		</g>
		<g id="XMLID_1230_">
			<g id="XMLID_1231_">
				<g id="XMLID_1232_">
					<path id="XMLID_1233_" class="st5" d="M1688.6,546.6c0.1,0.1-1.7,1.8-5,4.8c-3.6,3.2-8.4,7.4-14.2,12.5
						c-12.1,10.5-28.8,24.8-47.4,40.6l-2.8,2.4l-0.7,0.6l-0.7-0.6c-7.4-6.9-14.5-13.5-21.1-19.6l1.3,0c-12.4,10.2-23.1,19-31,25.5
						c-3.6,2.9-6.6,5.3-9,7.2c-2.1,1.6-3.3,2.5-3.4,2.4c-0.1-0.1,1-1.1,2.9-2.9c2.3-2,5.1-4.5,8.6-7.6c7.8-6.7,18.3-15.7,30.5-26.1
						l0.7-0.6l0.7,0.6c6.6,6.1,13.7,12.6,21.2,19.5l-1.4,0l2.8-2.4c18.6-15.7,35.5-29.9,47.8-40.1c6-4.9,10.9-8.9,14.7-12
						C1686.5,547.9,1688.5,546.5,1688.6,546.6z"/>
				</g>
			</g>
		</g>
		<g id="XMLID_1234_">
			<g id="XMLID_1235_">
				<g id="XMLID_1236_">
					<path id="XMLID_1237_" class="st5" d="M1688.6,581.8c-0.3,0-0.5-4-0.7-10.5c-0.2-6.5-0.3-15.5-0.3-25.6l1.1,1.1
						c-0.6,0-1.2,0-1.8,0c-10.5,0-20-0.1-26.8-0.3s-11.1-0.5-11.1-0.8c0-0.3,4.2-0.6,11.1-0.8c6.9-0.2,16.3-0.3,26.8-0.3
						c0.6,0,1.2,0,1.8,0l1.1,0l0,1.1c0,10.1-0.1,19.1-0.3,25.6C1689.1,577.8,1688.8,581.8,1688.6,581.8z"/>
				</g>
			</g>
		</g>
	</g>
</g>
</svg>
