<?xml version="1.0" encoding="utf-8"?>
<!-- Generator: Adobe Illustrator 24.0.1, SVG Export Plug-In . SVG Version: 6.00 Build 0)  -->
<svg version="1.1" id="Layer_1" xmlns="http://www.w3.org/2000/svg" xmlns:xlink="http://www.w3.org/1999/xlink" x="0px" y="0px"
	 viewBox="0 0 612 792" style="enable-background:new 0 0 612 792;" xml:space="preserve">
<style type="text/css">
	.st0{fill:none;stroke:#CADFFD;stroke-miterlimit:10;stroke-dasharray:1;}
	.st1{fill:#EAF4FE;}
	.st2{fill:#386CF7;}
	.st3{fill:#3F0D8B;}
	.st4{fill:#3F11A1;}
	.st5{fill:#D58E76;}
	.st6{fill:#FCFCFC;}
	.st7{fill:#DCEAF8;}
	.st8{fill:#3D6AF2;}
	.st9{fill:#00046D;}
	.st10{fill:none;stroke:#D7D0FA;stroke-width:0.25;stroke-miterlimit:10;}
	.st11{fill:#1B2E75;}
	.st12{fill:#B5B5B5;}
	.st13{fill:#3B8CFF;}
	.st14{fill:#336EF5;}
	.st15{fill:#0878FF;}
	.st16{fill:#FFFFFF;}
	.st17{fill:#010569;}
	.st18{fill:#0A0A0A;}
	.st19{fill:none;stroke:#EEEDF6;stroke-width:0.25;stroke-miterlimit:10;}
	.st20{fill:#FE2326;}
</style>
<g>
	<path class="st0" d="M307.94,288.62c0,0,188.79-0.63,206.27,68.9c17.48,69.53-16.93,161.46-191.32,103.57"/>
	<path class="st0" d="M150.3,276.28c0,0,122.75-198.67,208.45-70.38s-62.05,163.4-62.05,163.4H167.47"/>
	<path class="st1" d="M246.21,259.39c0,0,59.32,62.93,124.64,23.69c65.32-39.24,90.29-6.58,97.01,7.83c6.72,14.41,0,48.03,0,48.03
		s-6.1,28.82,31.05,48.03c37.15,19.21,51.06,127.56-63.95,168s-166.1,99.8-272.63,0s-55.23-246.15-55.23-246.15
		S156.15,209.62,246.21,259.39z"/>
	<path class="st2" d="M389.44,311.28c0,0,16.36,1.92,17.11-11.17c0.75-13.08-0.8-18.56,9.63-15.82c10.44,2.74,12.93,2.4,18.54-3.04
		c5.61-5.44,16.82,5.37,16.82,5.37s6.8,13.49-3.14,15.98c-9.94,2.49-9.24,13.04-9.24,13.04s9.5,11.89-13.98,8.15
		c0,0-11.43,4.36-10.6,20.56c0.83,16.2,10.8,6.85,13.29,4.98c2.49-1.87,8.1-7.45,13.71,4.38s12.24,0,12.24,0s8.32-5,9.57,8.71
		s-12.46,11.42-12.46,11.42s-11.68,2.49-11.76,9.55c-0.08,7.06-7.89,6.65-12.71,0c-4.82-6.65-8.72-12.05-17.98,0
		s-17.52-0.21-23.99-7.48s-7.12-60.28-7.12-60.28L389.44,311.28z"/>
	<path class="st2" d="M230.56,272.07c0,0-10.8-31.71-10.49-41.09c0,0-1.87-8.13,3.12-4.08c0,0,5.92,5.76,2.96-2.8
		c-2.96-8.57-5.92-15.73-2.02-19.63c3.89-3.89,41.18,19,48.94,41.12s3.97,26.48,3.97,26.48H230.56z"/>
	<path class="st3" d="M389.44,367.19c0,0,30.28-4.98,49.72,2.08c0,0-32.84-8.31-52.11-4.15"/>
	<path class="st4" d="M224.12,204.16l22.43,45.79c0,0,11.53-9.94,8.1-26.78l-2.49-2.28c0,0,3.12,18.78-5.61,25.01l-1.25-3.43
		c0,0,6.54-9.35,4.67-23.36l-2.49-1.25c0,0,3.74,14.95-4.05,22.12C241.26,234.07,224.12,204.16,224.12,204.16z"/>
	<path class="st4" d="M222.63,229.52c0,0,21.18,22.85,23.68,23.78v3.01c0,0-23.05-23.47-25.23-26.79
		C218.89,226.2,222.63,229.52,222.63,229.52z"/>
	<polygon class="st3" points="439.16,293.26 419.52,308.59 384.48,335.94 384.48,330.64 	"/>
	<path d="M356.42,189.21c0,0,2.44-8.88,0.88-13.24c0,0-1.07-8.57,9.59-8.88c10.66-0.31,14.68,5.61,14.68,5.61s1.84,4.52,0,6.07
		s-3.4,4.98-3.4,4.98s-2.96,5.3-7.63,4.83c-4.67-0.47-14.02,1.23-14.02,1.23"/>
	<path class="st5" d="M356.42,189.21c0,0,7.89-1.25,8.52-3.27c0.62-2.02-2.18-10.9,8.88-8.26c0,0,7.32,2.02,0.93,12.77
		c-0.78,0.93-3.74,2.96-8.88,2.34l-2.02,2.51l-5.62,0.76L356.42,189.21z"/>
	<path class="st2" d="M243.44,254.63v262.93c0,0-1.04,11.22,12.88,11.22c13.92,0,119.21,0,119.21,0s10.59,0.62,13.08-11.84
		c2.49-12.46,0-264.8,0-264.8s-1.25-14.33-21.81-9.35l-19.31,1.87l-95.33,0.62C252.16,245.28,243.44,248.4,243.44,254.63z"/>
	<path class="st6" d="M379.11,512.78H255.64c-1.23,0-2.24-1-2.24-2.24V259.97c0-1.23,1-2.24,2.24-2.24h123.46
		c1.23,0,2.24,1,2.24,2.24v250.57C381.34,511.78,380.34,512.78,379.11,512.78z"/>
	<path class="st7" d="M367.57,276.43h-85.65c-0.26,0-0.48-0.21-0.48-0.48v-4.65c0-0.26,0.21-0.48,0.48-0.48h85.65
		c0.26,0,0.48,0.21,0.48,0.48v4.65C368.05,276.22,367.84,276.43,367.57,276.43z"/>
	<path class="st7" d="M369.15,369.27h-105c-0.2,0-0.35-0.16-0.35-0.35v-3.44c0-0.2,0.16-0.35,0.35-0.35h105
		c0.2,0,0.35,0.16,0.35,0.35v3.44C369.5,369.11,369.35,369.27,369.15,369.27z"/>
	<path class="st7" d="M368.97,375.94h-105c-0.2,0-0.35-0.16-0.35-0.35v-3.44c0-0.2,0.16-0.35,0.35-0.35h105
		c0.2,0,0.35,0.16,0.35,0.35v3.44C369.32,375.78,369.16,375.94,368.97,375.94z"/>
	<path class="st7" d="M339.75,381.86H263.9c-0.16,0-0.29-0.13-0.29-0.29v-2.84c0-0.16,0.13-0.29,0.29-0.29h75.85
		c0.16,0,0.29,0.13,0.29,0.29v2.84C340.04,381.73,339.91,381.86,339.75,381.86z"/>
	<circle class="st8" cx="316.65" cy="410.24" r="13.76"/>
	<circle class="st9" cx="277.03" cy="410.24" r="13.76"/>
	<circle class="st10" cx="353.38" cy="410.73" r="15.24"/>
	<path d="M374.78,277.56l2.1,0.24l1.76,0.2l5.4,11.11c0,0,3.32,6.02-8.31-3.32c-4-3.21-5.36-4.27-5.43-4.26
		c-0.13,0,4.47,3.85,4.47,3.85l-5.49-4.78c0,0-0.42-1.7,4.15-3.03"/>
	<path class="st11" d="M342.51,230.02c0,0-2.18,14.02,5.92,15.58h29.6h3.74l-7.17,30.84c0,0-0.31,3.43,4.05,1.56l10.28-18.07
		l4.36,18.63h6.54l-3.74-31.09l-0.31-15.26l-26.27-2.18H342.51z"/>
	<path class="st8" d="M369.5,229.91c0,0,4.36-32.81-4.78-34.68c0,0-7.27,1.25-8.31-6.02c0,0-9.14,5.61-10.18,13.5
		c-1.04,7.89-3.74,27.31-3.74,27.31L369.5,229.91z"/>
	<path class="st5" d="M353.1,210.8h8.31v11.84l17.03,2.7c0,0,5.61-4.98,8.93,0c3.32,4.98,1.66,4.67,1.66,4.67s-5.83,1.14-8.1,0.95
		c-2.27-0.19-21.81-0.95-21.81-0.95s-4.98-0.31-6.02-6.96C352.06,216.41,353.1,210.8,353.1,210.8z"/>
	<path class="st12" d="M389.03,230.02h4.98l9.76-15.06c0,0,3.32-3.32,2.7,2.08l-9.76,15.37l-15.14-1.42L389.03,230.02z"/>
	<path d="M393.28,278.55c0.34-0.76,6.54,0,6.54,0l7.58,4.63c0,0,2.39,1.16,0,1.1c-2.39-0.06-15.06,0-15.06,0
		S390.79,284.2,393.28,278.55z"/>
	<path d="M425.18,416.21c0,0,8.92-2.49,11.83-6.85s11.4,3.43,11.4,3.43s13.11,14.43,23.08,13.19c0,0,4.15-0.34,3.74,4.19
		c-0.42,4.53,21.18,1.73,20.56-10.37c-0.62-12.1,0.01-15.01,0.01-15.01s-1.67-7.27-9.57,0c-7.89,7.27-23.05-1.19-23.05-1.19
		s-8.93-9.33-21.6-3.86c-1.66,0.49-5.82,1.01-7.06-4.24c-1.25-5.24-16.3-0.5-14.9,5.44S425.18,416.21,425.18,416.21z"/>
	<path class="st5" d="M418.83,415.38c0,0-0.62,4.98,0,6.54c0.62,1.56,12.15,0,12.15,0v-2.92c0,0-6.85-2.01-4.05-8.26
		c0,0,1.32-16.54-8.38-9.06c-9.69,7.48-4.08,14.02-4.08,14.02S416.96,417.87,418.83,415.38z"/>
	<path class="st9" d="M416.18,450.48l4.34,95.74h6.93l6.23-58.15l10.38,12.05c0,0,5.82,6.44,13.71-1.76
		c7.89-8.2,22.85-30.22,22.85-30.22s-2.08-2.49-6.65-1.25l-21.18,19.52c0,0-2.96,5.19-4.39-2.91c-1.43-8.1-9.42-33.02-9.42-33.02
		L416.18,450.48z"/>
	<path class="st13" d="M411.19,427.86c0,0,6.9-3.78,8.05-6.67c0,0,8.52,1.56,11.22-1.14c0,0,8.1-3.32,8.52,13.81
		c0.42,17.13,0,16.61,0,16.61l-22.79,0l-0.31-8.62l-3.12-9.81L411.19,427.86z"/>
	<path class="st5" d="M397.44,432.04l8.67,7.01c0,0,0.73,2.18,4.16,0c3.43-2.18,5.45-4.72,5.45-4.72s7.32,0.12,3.89,5.69l-7.94,5.11
		c0,0-1.87,4.05-6.85-0.78c-4.98-4.83-10.9-11.37-10.9-11.37L397.44,432.04z"/>
	<path class="st5" d="M400.36,430.94c0.55-0.47,3.83,3.39,3.83,3.39s1.14,2.44,4.88,1.71l5.5-1.71l-1.25-7.32
		c0,0-6.96,3.74-10.07-1.04s-5.82,1.35-5.82,1.35"/>
	<path d="M420.94,545.23c-1.66,0-11.24,3.14-10.66,3.57c0.57,0.43,17.24,0.57,17.24,0.57l-0.19-4.14H420.94z"/>
	<path d="M474.49,466.89c0,0,4.11-1.65,5.72,1.24c0,0,6.08-1.24,7.15,0s1.79-7.84-12.88-5.99V466.89z"/>
	<path class="st9" d="M192.04,410.73l14.02,65.08h9.03l-4.98-92.42h-32.71v93.67c0,0,10.59,2.18,10.28,0
		c-0.31-2.18,7.63-61.22,7.63-61.22"/>
	<path class="st5" d="M221.84,335.94c0,0-9.7,2.36-11.19,7.56c-1.48,5.21-8.34,0-8.34,0s4.5-5.18,5.26-10.99l13.02,3.43"/>
	<path d="M178.64,482.04h17.6l-8.57-4.98h-10.28C177.39,477.06,174.59,482.04,178.64,482.04z"/>
	<path d="M207.38,482.04h17.6l-8.57-6.7h-10.28C206.14,475.35,203.33,482.04,207.38,482.04z"/>
	<path class="st5" d="M216.96,352.45l3.43,3.74l10.59-12.46v-5.92l12.46,3.43c0,0-7.48,3.12-9.35,7.17
		c-1.87,4.05-10.9,16.72-10.9,16.72s-1.87,5.5-10.59-5.45c-8.72-10.96-3.43-10.96-3.43-10.96L216.96,352.45z"/>
	<polygon class="st14" points="184.01,259.2 169.09,327.78 277.03,349.33 292.87,278.55 	"/>
	<path class="st15" d="M189.23,335.94c0,0-16.82,5.5-11.84,47.46h32.71v-25.65l2.49,1.92l4.36-7.22c0,0-4.67-11.47-15.26-13.92
		C201.69,338.53,190.79,339.36,189.23,335.94z"/>
	<polygon class="st16" points="173.66,324.82 273.06,344.35 287.47,281.25 189.23,260.86 173.66,322.75 	"/>
	<path class="st17" d="M186.12,317.87l81,18.07c0,0,9.66-26.17,4.36-43.3c-5.3-17.13-18.07,7.79-18.07,7.79s-6.23,19.63-12.46,1.87
		s-22.43-3.74-22.43-3.74s-5.92,18.07-18.38,4.67C187.67,289.83,186.12,317.87,186.12,317.87z"/>
	<path class="st18" d="M204.96,316.47l2.34-8.67c0,0-36.55,0.83-18.07,23.68"/>
	<path class="st5" d="M198.42,333.76c0,0-1.15,1.71,2.31,4.83c0,0-8.23,4.36-11.5-2.65v-6.39c0,0,1.25-17.91,15.73-13.08
		c0,0,2.02,14.02-1.25,14.64C200.45,331.73,199.75,328.62,198.42,333.76z"/>
	<circle class="st17" cx="204.45" cy="283.83" r="9.19"/>
	<polyline class="st3" points="434.09,314.6 433.15,314.29 418.32,309.52 416.71,310.78 	"/>
	<path class="st3" d="M417.99,307.73c0.15-0.1-1.28-14.48-1.28-14.48v15.35"/>
	<circle class="st11" cx="277.03" cy="488.69" r="9.14"/>
	<circle class="st8" cx="277.03" cy="449.62" r="9.14"/>
	<path class="st7" d="M363.18,446.72h-72.09c-0.17,0-0.3-0.13-0.3-0.3v-2.91c0-0.17,0.13-0.3,0.3-0.3h72.09c0.17,0,0.3,0.13,0.3,0.3
		v2.91C363.48,446.58,363.35,446.72,363.18,446.72z"/>
	<path class="st7" d="M338.93,454.84h-47.84c-0.17,0-0.3-0.13-0.3-0.3v-2.91c0-0.17,0.13-0.3,0.3-0.3h47.84c0.17,0,0.3,0.13,0.3,0.3
		v2.91C339.23,454.7,339.1,454.84,338.93,454.84z"/>
	<path class="st7" d="M338.93,495.34h-47.84c-0.17,0-0.3-0.13-0.3-0.3v-2.91c0-0.17,0.13-0.3,0.3-0.3h47.84c0.17,0,0.3,0.13,0.3,0.3
		v2.91C339.23,495.2,339.1,495.34,338.93,495.34z"/>
	<path class="st7" d="M363.18,487.22h-72.09c-0.17,0-0.3-0.13-0.3-0.3v-2.91c0-0.17,0.13-0.3,0.3-0.3h72.09c0.17,0,0.3,0.13,0.3,0.3
		v2.91C363.48,487.08,363.35,487.22,363.18,487.22z"/>
	<path class="st19" d="M368.68,506.34H266.07c-1.54,0-2.79-1.25-2.79-2.79v-27.12c0-1.54,1.25-2.79,2.79-2.79h102.62
		c1.54,0,2.79,1.25,2.79,2.79v27.12C371.48,505.09,370.23,506.34,368.68,506.34z"/>
	<path class="st19" d="M368.27,466.83H265.65c-1.54,0-2.79-1.25-2.79-2.79v-27.12c0-1.54,1.25-2.79,2.79-2.79h102.62
		c1.54,0,2.79,1.25,2.79,2.79v27.12C371.06,465.58,369.81,466.83,368.27,466.83z"/>
	<path class="st11" d="M437.81,399.73c0,0,0.43,8.24-0.19,8.93c-0.62,0.69,3.33,0.65,3.73-0.32s0.21-8.61,0.21-8.61
		S438.93,398.39,437.81,399.73z"/>
	<circle class="st20" cx="390.74" cy="418.96" r="15.37"/>
</g>
</svg>
