<svg xmlns="http://www.w3.org/2000/svg" viewBox="0 0 18.08 4.233" height="45" class="logo">
    <style>
          .logo:hover .logo-text{fill:#0066f3}
          .logo-text {transition:.1s ease-in-out}
    </style>
    <path fill="#1a7aff" d="M4.175 2.68c0 .21-.13.37-.343.389-.333.03-.589.161-.717.488-.042.107-.037.221-.06.33-.045.225-.199.346-.425.333a.384.384 0 01-.37-.383.765.765 0 00-.715-.742c-.303-.016-.48-.26-.406-.513a.4.4 0 01.423-.299.397.397 0 01.366.364c.014.147.034.29.115.416.169.263.49.402.762.33a.73.73 0 00.567-.679c.01-.172.058-.32.224-.4.285-.14.581.048.58.366zM0 1.558c0-.226.133-.381.36-.401.314-.027.557-.153.687-.455.044-.1.05-.209.063-.316.026-.215.157-.354.34-.374.212-.022.373.07.437.254.019.054.024.113.03.17.054.422.31.668.73.699.238.017.399.183.399.412a.403.403 0 01-.36.397c-.22.022-.397-.116-.44-.35-.029-.163-.041-.326-.148-.468a.699.699 0 00-.791-.268.721.721 0 00-.503.635.961.961 0 01-.025.172.393.393 0 01-.444.296A.393.393 0 010 1.558z"/>
    <path fill="#71acfd" d="M1.94 3.83a.403.403 0 01-.37.402.395.395 0 01-.421-.312c-.016-.064-.016-.132-.027-.197C1.06 3.37.803 3.14.436 3.109c-.25-.021-.412-.16-.43-.368-.023-.254.14-.434.415-.456.334-.027.59-.233.667-.542.022-.088.021-.181.039-.271a.398.398 0 01.397-.33.415.415 0 01.388.314c.063.251-.119.483-.396.504-.341.027-.591.223-.677.532a.725.725 0 00.64.922c.05.005.1.006.148.017a.402.402 0 01.313.4zm2.22-2.304c.003.239-.116.38-.352.414-.143.02-.289.027-.414.115a.738.738 0 00-.332.585c-.017.26-.135.402-.346.438a.397.397 0 01-.455-.313c-.044-.224.093-.445.31-.48.185-.03.37-.047.522-.175a.732.732 0 00.238-.787.717.717 0 00-.646-.507c-.14-.008-.261-.041-.354-.152a.41.41 0 01-.04-.467c.09-.154.237-.22.424-.19.16.027.28.147.313.315.014.07.015.141.029.21a.717.717 0 00.608.582c.041.006.083.01.124.014.233.023.367.167.37.398z"/>
    <path fill="#212529" class="logo-text" d="M6.44 2.593h-.92l-.19.433h-.254l.783-1.729h.245l.785 1.729h-.26zm-.087-.197l-.373-.847-.373.847zm.759-1.203h.237v1.833h-.237zm1.25 1.847q-.195 0-.35-.086-.156-.087-.245-.237-.086-.153-.086-.346 0-.192.086-.343.09-.153.245-.237.155-.087.35-.087.196 0 .349.087.155.084.242.237.089.15.089.343 0 .193-.09.346-.086.15-.241.237-.153.086-.349.086zm0-.207q.126 0 .225-.057.101-.06.158-.163.057-.106.057-.242t-.057-.24q-.057-.106-.158-.162-.099-.057-.225-.057t-.227.057q-.099.056-.158.162-.056.104-.056.24t.056.242q.06.104.158.163.101.057.227.057zm1.234-.896q.062-.114.184-.173.12-.06.293-.06v.23q-.02-.003-.054-.003-.193 0-.304.116-.108.114-.108.326v.652h-.238V1.716h.228zm1.244-.233q.271 0 .415.134.145.133.145.397v.79h-.225v-.172q-.059.091-.17.14-.108.047-.26.047-.219 0-.352-.106-.131-.106-.131-.279 0-.173.126-.276.126-.107.4-.107h.375v-.047q0-.153-.089-.234-.089-.082-.262-.082-.116 0-.227.04-.11.037-.187.101l-.1-.178q.102-.081.243-.123.14-.045.299-.045zm-.055 1.154q.136 0 .235-.06.099-.061.143-.173v-.182h-.365q-.302 0-.302.202 0 .099.077.156.077.056.212.056zm1.754-1.561h.247V2.81h.936v.216h-1.183zm1.918.407q.272 0 .415.134.145.133.145.397v.79h-.224v-.172q-.06.091-.17.14-.109.047-.26.047-.22 0-.353-.106-.13-.106-.13-.279 0-.173.125-.276.126-.107.4-.107h.375v-.047q0-.153-.088-.234-.09-.082-.262-.082-.116 0-.227.04-.112.037-.188.101l-.099-.178q.101-.081.242-.123.14-.045.3-.045zm-.054 1.154q.136 0 .234-.06.099-.061.143-.173v-.182h-.365q-.301 0-.301.202 0 .099.076.156.077.056.213.056zm1.747-1.154q.19 0 .341.084.15.084.235.235.086.15.086.348 0 .198-.086.35-.084.152-.235.235-.15.084-.34.084-.146 0-.267-.057-.121-.056-.2-.165v.208h-.228V1.193h.237v.721q.08-.103.198-.155.118-.054.26-.054zm-.02 1.129q.126 0 .225-.057.101-.06.158-.163.06-.106.06-.242t-.06-.24q-.057-.106-.158-.162-.099-.057-.225-.057-.123 0-.224.057-.102.056-.158.162-.057.104-.057.24t.057.242q.056.104.158.163.101.057.225.057zm1.385.207q-.16 0-.309-.042-.148-.044-.232-.11l.099-.189q.086.062.21.1.123.036.25.036.31 0 .31-.178 0-.059-.041-.093-.043-.035-.107-.05-.062-.017-.178-.037-.158-.024-.259-.057-.099-.032-.17-.108-.072-.077-.072-.215 0-.178.148-.284.149-.109.398-.109.13 0 .262.032.13.032.215.087l-.102.187q-.16-.103-.378-.103-.15 0-.23.05-.078.048-.078.13 0 .064.044.101.045.037.109.054.067.018.185.04.158.027.254.06.1.029.168.103.07.074.07.208 0 .177-.153.283-.151.104-.413.104z"/>
</svg>
