<svg viewBox="0 0 72 16" xmlns="http://www.w3.org/2000/svg" class="logo">
    <style>
        .logo:hover .logo-text{fill:#0066f3}
        .logo-text {transition:.1s ease-in-out; fill:#212529}
    </style>
    <path fill="#1a7aff" d="M15.02 9.528c0 .747-.466 1.316-1.23 1.383-1.195.107-2.113.573-2.572 1.735-.151.381-.133.786-.216 1.174-.161.8-.714 1.23-1.524 1.184a1.377 1.377 0 01-1.327-1.362c-.04-1.397-1.159-2.547-2.565-2.638-1.087-.057-1.722-.924-1.457-1.824a1.44 1.44 0 011.518-1.063A1.423 1.423 0 016.96 9.411c.05.523.122 1.031.412 1.479.606.935 1.758 1.429 2.734 1.173a2.606 2.606 0 002.033-2.414c.036-.611.208-1.137.804-1.422 1.022-.498 2.084.171 2.08 1.301h-.003zM.044 5.539c0-.803.477-1.354 1.291-1.425 1.126-.096 1.998-.544 2.464-1.618.158-.356.18-.743.226-1.124.094-.764.564-1.258 1.22-1.329.76-.078 1.338.249 1.568.903.068.192.086.402.107.604.194 1.501 1.112 2.375 2.619 2.485.854.061 1.431.651 1.431 1.465a1.443 1.443 0 01-1.291 1.412C8.89 6.99 8.255 6.499 8.1 5.667c-.104-.579-.147-1.159-.531-1.664a2.525 2.525 0 00-2.837-.952 2.572 2.572 0 00-1.804 2.257 3.335 3.335 0 01-.09.612 1.415 1.415 0 01-1.593 1.052A1.406 1.406 0 01.044 5.539z"/>
    <path fill="#71acfd" d="M6.999 13.577c0 .74-.586 1.364-1.338 1.425a1.431 1.431 0 01-1.522-1.106c-.057-.227-.057-.468-.097-.699-.224-1.251-1.153-2.066-2.48-2.176-.904-.075-1.489-.567-1.554-1.305-.083-.9.506-1.538 1.5-1.616 1.207-.096 2.133-.826 2.411-1.921.079-.312.076-.642.141-.961a1.437 1.437 0 011.435-1.17 1.496 1.496 0 011.402 1.113c.228.89-.43 1.713-1.431 1.787-1.233.096-2.136.79-2.447 1.886a2.516 2.516 0 00-.101.706c0 1.334 1.059 2.457 2.414 2.562.181.018.362.021.535.06.67.149 1.145.745 1.132 1.418v-.003zm8.024-8.167c.011.847-.419 1.347-1.272 1.467-.517.071-1.045.096-1.497.408a2.607 2.607 0 00-1.2 2.073c-.061.922-.488 1.425-1.25 1.553-.759.125-1.493-.37-1.645-1.109C8 9.007 8.495 8.224 9.28 8.1c.668-.106 1.337-.167 1.886-.62a2.57 2.57 0 00.861-2.79 2.587 2.587 0 00-2.335-1.797c-.506-.029-.944-.146-1.28-.539A1.433 1.433 0 018.267.699c.326-.546.857-.78 1.533-.674.578.096 1.012.521 1.131 1.117.051.248.055.499.105.744.2 1.079 1.09 1.914 2.198 2.063.148.021.3.036.448.05.842.081 1.327.592 1.338 1.411h.003z"/>
    <path class="logo-text" d="M21.061 3.068h1.017l3.114 7.816h-1.191l-.856-2.171h-3.213l-.844 2.171H17.91l3.151-7.816zm-.819 4.739h2.568l-.521-1.352c-.14-.356-.269-.699-.384-1.03-.116-.331-.232-.67-.348-1.017h-.025c-.115.347-.235.682-.359 1.005-.124.322-.257.67-.397 1.042l-.534 1.352zM26.098 2.076h1.067v8.808h-1.067zM34.248 7.906a3.6 3.6 0 01-.223 1.309 2.812 2.812 0 01-.614.974c-.26.265-.564.465-.912.602a3.066 3.066 0 01-1.129.204c-.405 0-.779-.064-1.122-.192a2.47 2.47 0 01-.894-.57 2.702 2.702 0 01-.595-.931 3.453 3.453 0 01-.217-1.272c0-.488.074-.922.223-1.302.149-.381.354-.701.614-.962.261-.26.565-.459.912-.595a3.05 3.05 0 011.129-.205c.405 0 .779.062 1.123.186.343.124.641.31.893.559.252.248.451.556.595.924.145.368.217.792.217 1.271zm-1.141.062c0-.388-.05-.719-.149-.992a1.937 1.937 0 00-.391-.67 1.437 1.437 0 00-.552-.378 1.752 1.752 0 00-.632-.118c-.215 0-.426.033-.633.099a1.284 1.284 0 00-.546.347 1.802 1.802 0 00-.378.664c-.095.277-.143.627-.143 1.048 0 .389.05.722.149.999.099.277.229.503.391.676.161.174.345.302.552.385.207.083.417.124.632.124.216 0 .426-.035.633-.106.207-.07.389-.19.546-.359.157-.17.283-.393.378-.67.096-.277.143-.627.143-1.049zM35.551 10.884V5.053h.819l.186 1.166c.141-.372.372-.674.695-.905a1.86 1.86 0 011.116-.348c.215 0 .393.017.534.05.14.033.268.074.384.124l-.211.955a1.628 1.628 0 00-.756-.174c-.24 0-.462.042-.664.125a1.466 1.466 0 00-.534.372c-.153.165-.273.37-.359.614a2.484 2.484 0 00-.131.837v3.015h-1.079zM40.067 5.574c.198-.099.384-.188.558-.267a3.805 3.805 0 011.055-.304c.182-.024.38-.037.595-.037.323 0 .618.035.887.106.269.07.5.188.695.353.194.166.345.383.453.652.107.268.161.605.161 1.011v3.796h-.906l-.136-.645h-.025a2.252 2.252 0 01-.844.583 2.849 2.849 0 01-1.017.173c-.281 0-.54-.039-.775-.117a1.885 1.885 0 01-.614-.335 1.498 1.498 0 01-.404-.528 1.64 1.64 0 01-.142-.694c0-.612.242-1.078.726-1.396.483-.318 1.122-.478 1.916-.478h1.117v-.496c0-.422-.108-.709-.323-.862-.215-.153-.504-.23-.868-.23a3.06 3.06 0 00-.738.106c-.277.07-.594.205-.949.403l-.422-.794zm3.312 2.618l-.918.025c-.62.016-1.061.126-1.321.328-.261.203-.391.449-.391.738 0 .174.029.321.087.441.058.12.134.213.229.279a.957.957 0 00.335.143c.129.029.263.043.404.043.273 0 .55-.064.831-.192.281-.128.529-.333.744-.614V8.192zM48.974 3.068h1.142v6.848h3.337v.968h-4.479V3.068zM54.545 5.574c.198-.099.384-.188.558-.267a3.865 3.865 0 011.054-.304 4.57 4.57 0 01.596-.037c.322 0 .618.035.887.106.269.07.5.188.695.353.194.166.345.383.452.652.108.268.162.605.162 1.011v3.796h-.906l-.136-.645h-.025a2.26 2.26 0 01-.844.583 2.849 2.849 0 01-1.017.173c-.281 0-.54-.039-.776-.117a1.905 1.905 0 01-.614-.335 1.495 1.495 0 01-.403-.528 1.64 1.64 0 01-.142-.694c0-.612.241-1.078.725-1.396.484-.318 1.123-.478 1.917-.478h1.117v-.496c0-.422-.108-.709-.323-.862-.215-.153-.505-.23-.868-.23-.215 0-.462.036-.739.106a4.06 4.06 0 00-.949.403l-.421-.794zm3.312 2.618l-.918.025c-.62.016-1.061.126-1.321.328-.261.203-.391.449-.391.738 0 .174.029.321.087.441.058.12.134.213.229.279a.95.95 0 00.335.143c.128.029.263.043.403.043.273 0 .55-.064.832-.192.281-.128.529-.333.744-.614V8.192zM65.933 7.968c0 .464-.07.881-.211 1.253-.14.373-.331.691-.57.956a2.46 2.46 0 01-.844.608 2.56 2.56 0 01-1.03.21c-.38 0-.713-.053-.998-.161a2.526 2.526 0 01-.801-.496h-.024l-.112.546h-.782V2.076h1.08v3.709c.264-.281.556-.488.874-.62a2.57 2.57 0 01.999-.199c.744 0 1.334.265 1.768.794.434.529.651 1.266.651 2.208zm-1.141.013c0-.645-.137-1.16-.41-1.545-.272-.384-.657-.577-1.153-.577-.315 0-.6.071-.856.211a2.807 2.807 0 00-.732.596v2.828c.173.199.37.358.589.478.219.12.474.18.763.18.232 0 .457-.041.676-.124.219-.083.412-.213.577-.391.165-.178.298-.403.397-.676.099-.273.149-.6.149-.98zM70.523 6.145a3.39 3.39 0 00-.744-.273 3.058 3.058 0 00-.67-.075c-.397 0-.69.073-.881.217a.691.691 0 00-.285.577.61.61 0 00.198.453c.133.128.41.255.832.379l.372.111c.554.166.974.379 1.259.639.285.261.428.614.428 1.061 0 .529-.196.955-.589 1.278-.393.322-.941.483-1.644.483-.372 0-.73-.033-1.073-.099a3.79 3.79 0 01-.887-.273l.26-.856c.24.116.501.209.782.279.281.071.566.106.856.106.372 0 .668-.066.887-.199.219-.132.329-.351.329-.657 0-.265-.095-.453-.286-.565a3.922 3.922 0 00-.818-.328l-.385-.124c-.538-.174-.937-.391-1.197-.652-.261-.26-.391-.597-.391-1.011 0-.248.054-.475.161-.682a1.53 1.53 0 01.441-.521 2.12 2.12 0 01.663-.329 2.86 2.86 0 01.844-.118c.29 0 .589.027.899.081.311.054.606.142.888.267l-.249.831z"/>
</svg>
