<svg xmlns="http://www.w3.org/2000/svg" id="illustration" version="1.1" width="1737.65" height="1676.124">
    <defs id="defs4">
        <style id="style2">
            .cls-1,.cls-6{fill:#fff}.cls-1,.cls-2{stroke:#c7c7c7}.cls-1,.cls-10,.cls-13,.cls-14,.cls-16,.cls-2,.cls-5{stroke-linecap:round}.cls-1,.cls-10,.cls-13,.cls-14,.cls-16,.cls-2{stroke-linejoin:round}.cls-10,.cls-13,.cls-14,.cls-16,.cls-2,.cls-5{fill:none}.cls-3{fill:#e3e3e3}.cls-10,.cls-14{stroke:#fff}.cls-5{stroke-miterlimit:10;stroke:#e3e3e3}.cls-7{fill:#ff6628}.cls-10{stroke-width:2px}.cls-11{fill:#2e2e2e}.cls-13{stroke:#666}.cls-15{fill:#1c1c1c}.cls-16{stroke:#1c1c1c}
        </style>
    </defs>
    <path class="cls-1" d="M1421.04 1358.95V752.97l-12.84 3.89v-92.77" id="path6" fill="#fff" stroke="#c7c7c7" stroke-linecap="round" stroke-linejoin="round"/>
    <path class="cls-2" d="M1356.13 679.87l-44.76 13.56v92.78l-64.49 19.54v553.2" id="path8" fill="none" stroke="#c7c7c7" stroke-linecap="round" stroke-linejoin="round"/>
    <path class="cls-3" d="M1680.53 1373.8V440.02l-274.66 83.23v831.55z" id="path10" fill="#e3e3e3"/>
    <path d="M1468.19 1201.92h179.01m-179.01-39h179.01m-179.01-39h179.01m-179.01-39h179.01m-179.01-38.99h179.01m-179.01-39h179.01m-179.01-39h179.01m-179.01-39h179.01m-179.01-39h179.01m-179.01-38.99h179.01m-179.01-39h179.01m-179.01-39h179.01m-179.01-39h179.01m-179.01-39h179.01m-179.01-38.99h179.01m-179.01-39h179.01m-179.01-39h179.01" stroke-miterlimit="10" id="path12" fill="none" stroke="#fff" stroke-width="6"/>
    <path class="cls-3" d="M1498.75 517.92h27.54v716h-27.54z" id="path14" fill="#e3e3e3"/>
    <path class="cls-1" d="M1267.7 854.97h28.5v24h-28.5zm46.5 0h28.5v24h-28.5zm46.5 0h28.5v24h-28.5zm-93 40.5h28.5v24h-28.5zm46.5 0h28.5v24h-28.5zm46.5 0h28.5v24h-28.5zm-93 40.5h28.5v24h-28.5zm46.5 0h28.5v24h-28.5zm46.5 0h28.5v24h-28.5zm-93 40.5h28.5v24h-28.5zm46.5 0h28.5v24h-28.5zm46.5 0h28.5v24h-28.5zm-93 40.5h28.5v24h-28.5zm46.5 0h28.5v24h-28.5zm46.5 0h28.5v24h-28.5zm-93 40.49h28.5v24h-28.5zm46.5 0h28.5v24h-28.5zm46.5 0h28.5v24h-28.5zm-93 40.5h28.5v24h-28.5zm46.5 0h28.5v24h-28.5zm46.5 0h28.5v24h-28.5zm341.69 120.6v142.74" id="path16" fill="#fff" stroke="#c7c7c7" stroke-linecap="round" stroke-linejoin="round"/>
    <path class="cls-5" d="M1702.39 1218.56v110.18" id="path18" fill="none" stroke="#e3e3e3" stroke-linecap="round" stroke-miterlimit="10"/>
    <circle class="cls-1" cx="1702.39" cy="1230.55" r="34.76" id="circle20" fill="#fff" stroke="#c7c7c7" stroke-linecap="round" stroke-linejoin="round"/>
    <path class="cls-1" d="M1375.37 1204.39v159.54" id="path22" fill="#fff" stroke="#c7c7c7" stroke-linecap="round" stroke-linejoin="round"/>
    <path class="cls-5" d="M1375.37 1204.39v170.14" id="path24" fill="none" stroke="#e3e3e3" stroke-linecap="round" stroke-miterlimit="10"/>
    <circle class="cls-1" cx="1375.37" cy="1222.15" r="51.52" id="circle26" fill="#fff" stroke="#c7c7c7" stroke-linecap="round" stroke-linejoin="round"/>
    <path class="cls-6" d="M1726.99 1377.8a32 32 0 00-53.32-9.29c0-14.41-12.21-26.09-27.21-26.09a27.82 27.82 0 00-15.12 4.42 71.41 71.41 0 00-79.49-45.78 32.91 32.91 0 00-64.45 1c-2.2-.54-4.45-1-6.73-1.29a52.29 52.29 0 00.12-8.89c-1-15.25-6.22-27.61-11.54-27.61-5.32 0-10.57 12.36-11.73 27.61a52.55 52.55 0 00.09 9.25 71.54 71.54 0 00-54.42 45.73 27.8 27.8 0 00-14.25-4.39l-4.23.18a17.79 17.79 0 00-4.94 1.46 26.76 26.76 0 00-15.5 20.8" id="path28" fill="#fff"/>
    <circle class="cls-6" cx="1403.41" cy="562.99" r="61.03" id="circle30" fill="#fff"/>
    <circle class="cls-7" cx="1393.41" cy="552.99" r="61.03" id="circle32" fill="#ff6628"/>
    <path class="cls-6" d="M1389.21 580.2a28.62 28.62 0 01-8.3-2.42 23.08 23.08 0 01-6.6-4.49l2.86-4.26a3 3 0 011-.93 2.73 2.73 0 011.34-.35 3.39 3.39 0 011.78.58c.62.39 1.34.85 2.15 1.38a27.17 27.17 0 002.75 1.58 12.9 12.9 0 003.66 1.17l1.36-16.84q-2.68-.79-5.3-1.79a17.78 17.78 0 01-4.72-2.68 12.59 12.59 0 01-3.38-4.25 14.44 14.44 0 01-1.28-6.45 14.64 14.64 0 014.47-10.49 18 18 0 015.42-3.55 20.52 20.52 0 017.35-1.58l.42-4.76a2.65 2.65 0 01.75-1.62 2.33 2.33 0 011.78-.71h3.49l-.64 7.39a20.76 20.76 0 016.94 2.28 24.76 24.76 0 015 3.68l-2.27 3.44a4.06 4.06 0 01-1 1.13 2.18 2.18 0 01-1.29.37 3.33 3.33 0 01-1.35-.35c-.53-.24-1.12-.53-1.78-.87-.66-.34-1.39-.69-2.21-1a16 16 0 00-2.69-.87l-1.32 15.62c1.81.56 3.6 1.17 5.39 1.83a19.27 19.27 0 014.81 2.59 12.35 12.35 0 013.45 3.94 12 12 0 011.32 5.91 18.37 18.37 0 01-1.17 6.58 15.76 15.76 0 01-3.43 5.43 17.59 17.59 0 01-5.55 3.85 21.14 21.14 0 01-7.5 1.76l-.46 5.54a2.46 2.46 0 01-.73 1.61 2.32 2.32 0 01-1.76.73h-3.43zm-3.85-40.68a6.08 6.08 0 00.49 2.53 6.3 6.3 0 001.38 2 9.7 9.7 0 002.11 1.5 21 21 0 002.66 1.19l1.17-14a13.47 13.47 0 00-3.58.89 7.72 7.72 0 00-2.42 1.53 5.53 5.53 0 00-1.38 2 6.58 6.58 0 00-.45 2.36zm18.34 24.68a5.8 5.8 0 00-.51-2.51 6 6 0 00-1.43-1.9 9.11 9.11 0 00-2.17-1.44 23.7 23.7 0 00-2.72-1.09l-1.3 15.36a9.9 9.9 0 006.05-2.7 7.93 7.93 0 002.06-5.72z" id="path34" fill="#fff"/>
    <circle class="cls-6" cx="1432.5" cy="654.85" r="12.24" id="circle36" fill="#fff"/>
    <path class="cls-3" d="M1434.56 657.1a1.19 1.19 0 00-.1-.51 1.33 1.33 0 00-.29-.38 2.31 2.31 0 00-.43-.29 3.93 3.93 0 00-.55-.21l-.26 3.07a2 2 0 001.22-.54 1.61 1.61 0 00.41-1.14zm-2.9 3.2a5.85 5.85 0 01-1.67-.48 4.53 4.53 0 01-1.32-.9l.57-.85a.61.61 0 01.2-.19.54.54 0 01.27-.07.7.7 0 01.36.12l.43.27a5.36 5.36 0 00.55.32 2.5 2.5 0 00.73.23l.28-3.38a11 11 0 01-1.06-.36 3.46 3.46 0 01-.94-.53 2.52 2.52 0 01-.68-.86 2.87 2.87 0 01-.26-1.29 2.91 2.91 0 01.23-1.12 2.81 2.81 0 01.67-1 3.33 3.33 0 011.08-.71 4 4 0 011.48-.32l.08-1a.53.53 0 01.15-.33.45.45 0 01.36-.14h.69l-.13 1.48a4.21 4.21 0 011.39.46 5.24 5.24 0 011 .73l-.46.69a.77.77 0 01-.2.23.45.45 0 01-.26.08.67.67 0 01-.27-.08 2.84 2.84 0 01-.36-.17l-.44-.21a2.63 2.63 0 00-.54-.17l-.26 3.13c.36.11.72.23 1.08.37a3.55 3.55 0 011 .52 2.28 2.28 0 01.69.79 2.34 2.34 0 01.27 1.18 3.6 3.6 0 01-.24 1.32 3.18 3.18 0 01-.68 1.09 3.78 3.78 0 01-1.12.77 4.13 4.13 0 01-1.5.35l-.09 1.11a.55.55 0 01-.15.33.48.48 0 01-.35.14h-.69zm-.78-8.15a1.36 1.36 0 00.1.51 1.48 1.48 0 00.28.39 2.25 2.25 0 00.42.3 3.82 3.82 0 00.54.24l.23-2.8a2.37 2.37 0 00-.72.18 1.41 1.41 0 00-.48.3 1.11 1.11 0 00-.28.41 1.23 1.23 0 00-.09.47z" id="path38" fill="#e3e3e3"/>
    <circle class="cls-6" cx="1432.5" cy="694.03" r="12.24" id="circle40" fill="#fff"/>
    <path class="cls-3" d="M1434.56 696.28a1.12 1.12 0 00-.1-.5 1.2 1.2 0 00-.29-.38 1.91 1.91 0 00-.43-.29 5.72 5.72 0 00-.55-.22l-.26 3.07a2 2 0 001.22-.54 1.61 1.61 0 00.41-1.14zm-2.9 3.21a5.85 5.85 0 01-1.67-.48 4.75 4.75 0 01-1.32-.91l.57-.85a.61.61 0 01.2-.19.68.68 0 01.27-.07.7.7 0 01.36.12l.43.28a5.4 5.4 0 00.55.31 2.51 2.51 0 00.73.24l.28-3.38c-.35-.11-.71-.23-1.06-.36a3.78 3.78 0 01-.94-.54 2.48 2.48 0 01-.68-.85 2.87 2.87 0 01-.26-1.29 3 3 0 01.23-1.13 2.91 2.91 0 01.67-1 3.68 3.68 0 011.08-.71 4.18 4.18 0 011.48-.32l.08-1a.5.5 0 01.15-.32.46.46 0 01.36-.15h.69l-.13 1.48a4.21 4.21 0 011.39.46 5.27 5.27 0 011 .74l-.46.69a.72.72 0 01-.2.22.38.38 0 01-.26.08.63.63 0 01-.27-.07l-.36-.18-.44-.2a3.42 3.42 0 00-.54-.18l-.26 3.13 1.08.37a4.2 4.2 0 011 .52 2.32 2.32 0 011 2 3.6 3.6 0 01-.24 1.32 3 3 0 01-.68 1.09 3.62 3.62 0 01-1.12.78 4.59 4.59 0 01-1.5.35l-.09 1.11a.53.53 0 01-.15.32.45.45 0 01-.35.15h-.69zm-.78-8.16a1.32 1.32 0 00.1.51 1.21 1.21 0 00.28.39 2.25 2.25 0 00.42.3 3.82 3.82 0 00.54.24l.23-2.8a3.15 3.15 0 00-.72.18 1.42 1.42 0 00-.48.31 1.08 1.08 0 00-.28.4 1.27 1.27 0 00-.09.47z" id="path42" fill="#e3e3e3"/>
    <circle class="cls-6" cx="1432.5" cy="733.22" r="12.24" id="circle44" fill="#fff"/>
    <path class="cls-3" d="M1434.56 735.47a1.16 1.16 0 00-.1-.51 1.33 1.33 0 00-.29-.38 1.91 1.91 0 00-.43-.29 5.72 5.72 0 00-.55-.22l-.26 3.08a2 2 0 001.22-.55 1.58 1.58 0 00.41-1.13zm-2.9 3.2a5.85 5.85 0 01-1.67-.48 4.53 4.53 0 01-1.32-.9l.57-.86a.7.7 0 01.2-.18.54.54 0 01.27-.07.78.78 0 01.36.11l.43.28a5.36 5.36 0 00.55.32 2.85 2.85 0 00.73.23l.28-3.38a11 11 0 01-1.06-.36 3.24 3.24 0 01-.94-.54 2.39 2.39 0 01-.68-.85 2.87 2.87 0 01-.26-1.29 2.91 2.91 0 01.23-1.12 2.72 2.72 0 01.67-1 3.33 3.33 0 011.08-.71 4 4 0 011.48-.32l.08-1a.53.53 0 01.15-.32.45.45 0 01.36-.14h.69l-.13 1.48a4 4 0 011.39.46 5.24 5.24 0 011 .73l-.46.69a.77.77 0 01-.2.23.45.45 0 01-.26.08.67.67 0 01-.27-.08 2.84 2.84 0 01-.36-.17l-.44-.21a2.63 2.63 0 00-.54-.17l-.26 3.13c.36.11.72.23 1.08.37a3.82 3.82 0 011 .51 2.48 2.48 0 01.69.79 2.38 2.38 0 01.27 1.19 3.6 3.6 0 01-.24 1.32 3.18 3.18 0 01-.68 1.09 3.78 3.78 0 01-1.12.77 4.13 4.13 0 01-1.5.35l-.09 1.11a.55.55 0 01-.15.33.48.48 0 01-.35.14h-.69zm-.78-8.15a1.36 1.36 0 00.1.51 1.48 1.48 0 00.28.39 2.25 2.25 0 00.42.3 3.82 3.82 0 00.54.24l.23-2.8a2.72 2.72 0 00-.72.17 1.59 1.59 0 00-.48.31 1.11 1.11 0 00-.28.41 1.19 1.19 0 00-.09.47z" id="path46" fill="#e3e3e3"/>
    <circle class="cls-6" cx="1432.5" cy="772.4" r="12.24" id="circle48" fill="#fff"/>
    <path class="cls-3" d="M1434.56 774.62a1.12 1.12 0 00-.1-.5 1.2 1.2 0 00-.29-.38 1.62 1.62 0 00-.43-.29 3.94 3.94 0 00-.55-.22l-.26 3.07a2 2 0 001.22-.54 1.61 1.61 0 00.41-1.14zm-2.9 3.21a5.56 5.56 0 01-1.67-.49 4.53 4.53 0 01-1.32-.9l.57-.85a.61.61 0 01.2-.19.68.68 0 01.27-.07.7.7 0 01.36.12l.43.27a4 4 0 00.55.32 2.51 2.51 0 00.73.24l.28-3.38c-.35-.11-.71-.23-1.06-.36a3.78 3.78 0 01-.94-.54 2.48 2.48 0 01-.68-.85 2.92 2.92 0 01-.26-1.3 3 3 0 01.23-1.12 2.91 2.91 0 01.67-1 3.5 3.5 0 011.08-.71 4.18 4.18 0 011.48-.32l.08-1a.55.55 0 01.15-.33.49.49 0 01.36-.14h.69l-.13 1.48a4.21 4.21 0 011.39.46 5.27 5.27 0 011 .74l-.46.69a.72.72 0 01-.2.22.45.45 0 01-.26.08.63.63 0 01-.27-.07l-.36-.18-.44-.2a2.63 2.63 0 00-.54-.18l-.26 3.13c.36.11.72.24 1.08.37a3.85 3.85 0 011 .52 2.28 2.28 0 01.69.79 2.34 2.34 0 01.27 1.18 3.6 3.6 0 01-.24 1.32 3.09 3.09 0 01-.68 1.09 3.44 3.44 0 01-1.12.77 4.35 4.35 0 01-1.5.36l-.09 1.11a.56.56 0 01-.15.32.45.45 0 01-.35.15h-.69zm-.78-8.16a1.36 1.36 0 00.1.51 1.21 1.21 0 00.28.39 2.25 2.25 0 00.42.3 3.82 3.82 0 00.54.24l.23-2.8a3.15 3.15 0 00-.72.18 1.29 1.29 0 00-.48.31 1.08 1.08 0 00-.28.4 1.27 1.27 0 00-.09.5z" id="path50" fill="#e3e3e3"/>
    <circle class="cls-6" cx="1432.5" cy="811.59" r="12.24" id="circle52" fill="#fff"/>
    <path class="cls-3" d="M1434.56 813.84a1.16 1.16 0 00-.1-.51 1.33 1.33 0 00-.29-.38 1.91 1.91 0 00-.43-.29 5.72 5.72 0 00-.55-.22l-.26 3.07a2 2 0 001.22-.54 1.6 1.6 0 00.41-1.13zm-2.9 3.2a5.85 5.85 0 01-1.67-.48 4.53 4.53 0 01-1.32-.9l.57-.86a.7.7 0 01.2-.18.54.54 0 01.27-.07.78.78 0 01.36.11l.43.28a5.36 5.36 0 00.55.32 2.85 2.85 0 00.73.23l.28-3.38c-.35-.11-.71-.23-1.06-.36a3.24 3.24 0 01-.94-.54 2.39 2.39 0 01-.68-.85 2.87 2.87 0 01-.26-1.29 2.91 2.91 0 01.23-1.12 2.72 2.72 0 01.67-1 3.52 3.52 0 011.08-.72 4.18 4.18 0 011.48-.31l.08-1a.5.5 0 01.15-.32.46.46 0 01.36-.15h.69l-.13 1.49a4 4 0 011.39.46 4.85 4.85 0 011 .73l-.46.69a.77.77 0 01-.2.23.44.44 0 01-.26.07.63.63 0 01-.27-.07l-.36-.17-.44-.21a2.63 2.63 0 00-.54-.17l-.26 3.13 1.08.36a4.2 4.2 0 011 .52 2.32 2.32 0 011 2 3.6 3.6 0 01-.24 1.32 3.18 3.18 0 01-.68 1.09 3.78 3.78 0 01-1.12.77 4.35 4.35 0 01-1.5.35l-.09 1.11a.5.5 0 01-.15.32.45.45 0 01-.35.15h-.69zm-.78-8.15a1.27 1.27 0 00.1.5 1.21 1.21 0 00.28.39 1.9 1.9 0 00.42.31 5.48 5.48 0 00.54.23l.23-2.79a2.72 2.72 0 00-.72.17 1.59 1.59 0 00-.48.31 1.17 1.17 0 00-.28.4 1.28 1.28 0 00-.09.48z" id="path54" fill="#e3e3e3"/>
    <circle class="cls-6" cx="1432.5" cy="850.77" r="12.24" id="circle56" fill="#fff"/>
    <path class="cls-3" d="M1434.56 853.02a1.12 1.12 0 00-.1-.5 1.37 1.37 0 00-.29-.39 1.88 1.88 0 00-.43-.28 3.94 3.94 0 00-.55-.22l-.26 3.07a2 2 0 001.22-.54 1.61 1.61 0 00.41-1.14zm-2.9 3.21a5.56 5.56 0 01-1.67-.49 4.53 4.53 0 01-1.32-.9l.57-.85a.61.61 0 01.2-.19.54.54 0 01.27-.07.7.7 0 01.36.12l.43.27a4 4 0 00.55.32 2.51 2.51 0 00.73.24l.28-3.39c-.35-.1-.71-.22-1.06-.35a3.78 3.78 0 01-.94-.54 2.58 2.58 0 01-.68-.85 3.11 3.11 0 010-2.42 2.81 2.81 0 01.67-1 3.5 3.5 0 011.08-.71 4.18 4.18 0 011.48-.32l.08-1a.55.55 0 01.15-.33.49.49 0 01.36-.14h.69l-.13 1.48a4.21 4.21 0 011.39.46 5.27 5.27 0 011 .74l-.46.69a.72.72 0 01-.2.22.45.45 0 01-.26.08.83.83 0 01-.27-.07l-.36-.18-.44-.21a3.44 3.44 0 00-.54-.17l-.26 3.13c.36.11.72.24 1.08.37a3.85 3.85 0 011 .52 2.28 2.28 0 01.69.79 2.34 2.34 0 01.27 1.18 3.6 3.6 0 01-.24 1.32 3.09 3.09 0 01-.68 1.09 3.6 3.6 0 01-1.12.77 4.35 4.35 0 01-1.5.36l-.09 1.11a.56.56 0 01-.15.32.45.45 0 01-.35.15h-.69zm-.78-8.16a1.36 1.36 0 00.1.51 1.21 1.21 0 00.28.39 2.25 2.25 0 00.42.3 3.82 3.82 0 00.54.24l.23-2.8a2.7 2.7 0 00-.72.18 1.41 1.41 0 00-.48.3 1.2 1.2 0 00-.28.41 1.27 1.27 0 00-.09.47z" id="path58" fill="#e3e3e3"/>
    <circle class="cls-6" cx="1432.5" cy="889.96" r="12.24" id="circle60" fill="#fff"/>
    <path class="cls-3" d="M1434.56 892.2a1.12 1.12 0 00-.1-.5 1.33 1.33 0 00-.29-.38 1.91 1.91 0 00-.43-.29 5.72 5.72 0 00-.55-.22l-.26 3.07a2 2 0 001.22-.54 1.61 1.61 0 00.41-1.14zm-2.9 3.21a5.85 5.85 0 01-1.67-.48 4.53 4.53 0 01-1.32-.9l.57-.86a.7.7 0 01.2-.18.54.54 0 01.27-.07.68.68 0 01.36.11l.43.28c.16.1.34.21.55.32a2.85 2.85 0 00.73.23l.28-3.38c-.35-.11-.71-.23-1.06-.36a3.24 3.24 0 01-.94-.54 2.48 2.48 0 01-.68-.85 2.87 2.87 0 01-.26-1.29 3 3 0 01.23-1.13 2.91 2.91 0 01.67-1 3.68 3.68 0 011.08-.71 4.18 4.18 0 011.48-.31l.08-1a.5.5 0 01.15-.32.46.46 0 01.36-.15h.69l-.13 1.49a4 4 0 011.39.45 5.27 5.27 0 011 .74l-.46.69a.77.77 0 01-.2.23.44.44 0 01-.26.07.63.63 0 01-.27-.07l-.36-.17-.44-.21a3.42 3.42 0 00-.54-.18l-.26 3.14 1.08.36a4.2 4.2 0 011 .52 2.32 2.32 0 011 2 3.6 3.6 0 01-.24 1.32 3.18 3.18 0 01-.68 1.09 3.78 3.78 0 01-1.12.77 4.35 4.35 0 01-1.5.35l-.09 1.11a.53.53 0 01-.15.32.45.45 0 01-.35.15h-.69zm-.78-8.15a1.27 1.27 0 00.1.5 1.21 1.21 0 00.28.39 1.9 1.9 0 00.42.31 5.48 5.48 0 00.54.23l.23-2.8a3.15 3.15 0 00-.72.18 1.59 1.59 0 00-.48.31 1.17 1.17 0 00-.28.4 1.28 1.28 0 00-.09.48z" id="path62" fill="#e3e3e3"/>
    <circle class="cls-6" cx="1432.5" cy="929.14" r="12.24" id="circle64" fill="#fff"/>
    <path class="cls-3" d="M1434.56 931.39a1.12 1.12 0 00-.1-.5 1.24 1.24 0 00-.29-.39 1.88 1.88 0 00-.43-.28 3.94 3.94 0 00-.55-.22l-.26 3.07a2 2 0 001.22-.54 1.61 1.61 0 00.41-1.14zm-2.9 3.21a5.86 5.86 0 01-1.67-.49 4.53 4.53 0 01-1.32-.9l.57-.85a.61.61 0 01.2-.19.54.54 0 01.27-.07.7.7 0 01.36.12l.43.27a5.36 5.36 0 00.55.32 2.84 2.84 0 00.73.24l.28-3.39a11 11 0 01-1.06-.36 3.46 3.46 0 01-.94-.53 2.58 2.58 0 01-.68-.85 3 3 0 01-.26-1.3 2.91 2.91 0 01.23-1.12 2.81 2.81 0 01.67-1 3.33 3.33 0 011.08-.71 4.18 4.18 0 011.48-.32l.08-.95a.55.55 0 01.15-.33.49.49 0 01.36-.14h.69l-.13 1.48a4.21 4.21 0 011.39.46 4.88 4.88 0 011 .74l-.46.68a.66.66 0 01-.2.23.45.45 0 01-.26.08.83.83 0 01-.27-.07l-.36-.18-.44-.21a2.63 2.63 0 00-.54-.17l-.26 3.13c.36.11.72.23 1.08.37a3.55 3.55 0 011 .52 2.28 2.28 0 01.69.79 2.34 2.34 0 01.27 1.18 3.6 3.6 0 01-.24 1.32 3.09 3.09 0 01-.68 1.09 3.6 3.6 0 01-1.12.77 4.13 4.13 0 01-1.5.35l-.09 1.12a.56.56 0 01-.15.32.45.45 0 01-.35.15h-.69zm-.78-8.16a1.36 1.36 0 00.1.51 1.48 1.48 0 00.28.39 2.25 2.25 0 00.42.3 3.82 3.82 0 00.54.24l.23-2.8a2.37 2.37 0 00-.72.18 1.41 1.41 0 00-.48.3 1.11 1.11 0 00-.28.41 1.23 1.23 0 00-.09.47z" id="path66" fill="#e3e3e3"/>
    <circle class="cls-6" cx="1432.5" cy="968.33" r="12.24" id="circle68" fill="#fff"/>
    <path class="cls-3" d="M1434.56 970.62a1.12 1.12 0 00-.1-.5 1.33 1.33 0 00-.29-.38 1.91 1.91 0 00-.43-.29 5.72 5.72 0 00-.55-.22l-.26 3.07a2 2 0 001.22-.54 1.61 1.61 0 00.41-1.14zm-2.9 3.21a5.85 5.85 0 01-1.67-.48 5 5 0 01-1.32-.9l.57-.86a.58.58 0 01.2-.18.56.56 0 01.27-.08.7.7 0 01.36.12l.43.28c.16.1.34.21.55.32a2.85 2.85 0 00.73.23l.28-3.38c-.35-.11-.71-.23-1.06-.36a3.24 3.24 0 01-.94-.54 2.48 2.48 0 01-.68-.85 2.87 2.87 0 01-.26-1.29 3 3 0 01.23-1.13 2.91 2.91 0 01.67-1 3.68 3.68 0 011.08-.71 4.18 4.18 0 011.48-.31l.08-1a.5.5 0 01.15-.32.46.46 0 01.36-.15h.69l-.13 1.49a4 4 0 011.39.45 5.27 5.27 0 011 .74l-.46.69a.77.77 0 01-.2.23.44.44 0 01-.26.07.63.63 0 01-.27-.07l-.36-.17-.44-.21a3.42 3.42 0 00-.54-.18l-.26 3.14 1.08.36a4.2 4.2 0 011 .52 2.32 2.32 0 011 2 3.68 3.68 0 01-.24 1.32 3.18 3.18 0 01-.68 1.09 3.78 3.78 0 01-1.12.77 4.35 4.35 0 01-1.5.35l-.09 1.11a.53.53 0 01-.15.32.45.45 0 01-.35.15h-.69zm-.78-8.15a1.27 1.27 0 00.1.5 1.21 1.21 0 00.28.39 1.6 1.6 0 00.42.3 3.82 3.82 0 00.54.24l.23-2.8a3.15 3.15 0 00-.72.18 1.42 1.42 0 00-.48.31 1.08 1.08 0 00-.28.4 1.28 1.28 0 00-.09.42z" id="path70" fill="#e3e3e3"/>
    <circle class="cls-6" cx="1432.5" cy="1007.51" r="12.24" id="circle72" fill="#fff"/>
    <path class="cls-3" d="M1434.56 1009.76a1.19 1.19 0 00-.1-.51 1.33 1.33 0 00-.29-.38 2.31 2.31 0 00-.43-.29 3.93 3.93 0 00-.55-.21l-.26 3.07a2 2 0 001.22-.54 1.61 1.61 0 00.41-1.14zm-2.9 3.21a6.2 6.2 0 01-1.67-.49 4.53 4.53 0 01-1.32-.9l.57-.85a.61.61 0 01.2-.19.54.54 0 01.27-.07.7.7 0 01.36.12l.43.27a5.36 5.36 0 00.55.32 2.5 2.5 0 00.73.23l.28-3.38a11 11 0 01-1.06-.36 3.46 3.46 0 01-.94-.53 2.52 2.52 0 01-.68-.86 2.87 2.87 0 01-.26-1.29 2.91 2.91 0 01.23-1.12 2.81 2.81 0 01.67-1 3.33 3.33 0 011.08-.71 4 4 0 011.48-.32l.08-1a.55.55 0 01.15-.33.49.49 0 01.36-.14h.69l-.13 1.48a4.21 4.21 0 011.39.46 4.88 4.88 0 011 .74l-.46.68a.77.77 0 01-.2.23.45.45 0 01-.26.08.67.67 0 01-.27-.08 2.84 2.84 0 01-.36-.17l-.44-.21a2.63 2.63 0 00-.54-.17l-.26 3.13c.36.11.72.23 1.08.37a3.55 3.55 0 011 .52 2.28 2.28 0 01.69.79 2.34 2.34 0 01.27 1.18 3.6 3.6 0 01-.24 1.32 3.18 3.18 0 01-.68 1.09 3.78 3.78 0 01-1.12.77 4.13 4.13 0 01-1.5.35l-.09 1.12a.56.56 0 01-.15.32.45.45 0 01-.35.14h-.69zm-.78-8.16a1.36 1.36 0 00.1.51 1.48 1.48 0 00.28.39 2.25 2.25 0 00.42.3 3.82 3.82 0 00.54.24l.23-2.8a2.37 2.37 0 00-.72.18 1.41 1.41 0 00-.48.3 1.11 1.11 0 00-.28.41 1.23 1.23 0 00-.09.47z" id="path74" fill="#e3e3e3"/>
    <circle class="cls-6" cx="1432.5" cy="1046.7" r="12.24" id="circle76" fill="#fff"/>
    <path class="cls-3" d="M1434.56 1048.94a1.12 1.12 0 00-.1-.5 1.33 1.33 0 00-.29-.38 1.91 1.91 0 00-.43-.29 5.72 5.72 0 00-.55-.22l-.26 3.07a2 2 0 001.22-.54 1.61 1.61 0 00.41-1.14zm-2.9 3.21a5.85 5.85 0 01-1.67-.48 5 5 0 01-1.32-.9l.57-.86a.61.61 0 01.2-.19.68.68 0 01.27-.07.7.7 0 01.36.12l.43.28a5.4 5.4 0 00.55.31 2.51 2.51 0 00.73.24l.28-3.38c-.35-.11-.71-.23-1.06-.36a3.78 3.78 0 01-.94-.54 2.48 2.48 0 01-.68-.85 2.87 2.87 0 01-.26-1.29 3 3 0 01.23-1.13 2.91 2.91 0 01.67-1 3.68 3.68 0 011.08-.71 4.41 4.41 0 011.48-.32l.08-1a.5.5 0 01.15-.32.46.46 0 01.36-.15h.69l-.13 1.48a4.21 4.21 0 011.39.46 5.27 5.27 0 011 .74l-.46.69a.92.92 0 01-.2.23.44.44 0 01-.26.07.63.63 0 01-.27-.07l-.36-.18-.44-.2a3.42 3.42 0 00-.54-.18l-.26 3.13 1.08.37a4.2 4.2 0 011 .52 2.32 2.32 0 011 2 3.6 3.6 0 01-.24 1.32 3 3 0 01-.68 1.09 3.62 3.62 0 01-1.12.78 4.59 4.59 0 01-1.5.35l-.09 1.11a.53.53 0 01-.15.32.45.45 0 01-.35.15h-.69zm-.78-8.16a1.29 1.29 0 00.1.51 1.21 1.21 0 00.28.39 1.87 1.87 0 00.42.3 3.82 3.82 0 00.54.24l.23-2.8a3.15 3.15 0 00-.72.18 1.42 1.42 0 00-.48.31 1.08 1.08 0 00-.28.4 1.27 1.27 0 00-.09.47z" id="path78" fill="#e3e3e3"/>
    <circle class="cls-6" cx="1432.5" cy="1085.88" r="12.24" id="circle80" fill="#fff"/>
    <path class="cls-3" d="M1434.56 1088.13a1.16 1.16 0 00-.1-.51 1.33 1.33 0 00-.29-.38 1.91 1.91 0 00-.43-.29 5.72 5.72 0 00-.55-.22l-.26 3.08a2 2 0 001.22-.54 1.63 1.63 0 00.41-1.14zm-2.9 3.2a5.85 5.85 0 01-1.67-.48 4.53 4.53 0 01-1.32-.9l.57-.86a.7.7 0 01.2-.18.54.54 0 01.27-.07.78.78 0 01.36.11l.43.28a5.36 5.36 0 00.55.32 2.85 2.85 0 00.73.23l.28-3.38a11 11 0 01-1.06-.36 3.46 3.46 0 01-.94-.53 2.52 2.52 0 01-.68-.86 2.87 2.87 0 01-.26-1.29 2.91 2.91 0 01.23-1.12 2.72 2.72 0 01.67-1 3.33 3.33 0 011.08-.71 4 4 0 011.48-.32l.08-.95a.53.53 0 01.15-.33.45.45 0 01.36-.14h.69l-.13 1.48a4 4 0 011.39.46 5.24 5.24 0 011 .73l-.46.69a.77.77 0 01-.2.23.45.45 0 01-.26.08.67.67 0 01-.27-.08 2.84 2.84 0 01-.36-.17l-.44-.21a2.63 2.63 0 00-.54-.17l-.26 3.13c.36.11.72.23 1.08.37a3.82 3.82 0 011 .51 2.41 2.41 0 01.69.8 2.32 2.32 0 01.27 1.18 3.6 3.6 0 01-.24 1.32 3.18 3.18 0 01-.68 1.09 3.78 3.78 0 01-1.12.77 4.13 4.13 0 01-1.5.35l-.09 1.11a.55.55 0 01-.15.33.48.48 0 01-.35.14h-.69zm-.78-8.15a1.36 1.36 0 00.1.51 1.48 1.48 0 00.28.39 2.25 2.25 0 00.42.3 3.82 3.82 0 00.54.24l.23-2.8a2.72 2.72 0 00-.72.17 1.59 1.59 0 00-.48.31 1.11 1.11 0 00-.28.41 1.19 1.19 0 00-.09.47z" id="path82" fill="#e3e3e3"/>
    <circle class="cls-6" cx="1432.5" cy="1125.06" r="12.24" id="circle84" fill="#fff"/>
    <path class="cls-3" d="M1434.56 1127.31a1.12 1.12 0 00-.1-.5 1.2 1.2 0 00-.29-.38 1.91 1.91 0 00-.43-.29 3.94 3.94 0 00-.55-.22l-.26 3.07a2 2 0 001.22-.54 1.61 1.61 0 00.41-1.14zm-2.9 3.21a5.56 5.56 0 01-1.67-.49 4.53 4.53 0 01-1.32-.9l.57-.85a.61.61 0 01.2-.19.68.68 0 01.27-.07.7.7 0 01.36.12l.43.28a5.4 5.4 0 00.55.31 2.51 2.51 0 00.73.24l.28-3.38c-.35-.11-.71-.23-1.06-.36a3.78 3.78 0 01-.94-.54 2.48 2.48 0 01-.68-.85 2.9 2.9 0 01-.26-1.29 3 3 0 01.23-1.13 2.91 2.91 0 01.67-1 3.5 3.5 0 011.08-.71 4.18 4.18 0 011.48-.32l.08-1a.55.55 0 01.15-.33.49.49 0 01.36-.14h.69l-.13 1.48a4.21 4.21 0 011.39.46 5.27 5.27 0 011 .74l-.46.69a.72.72 0 01-.2.22.45.45 0 01-.26.08.63.63 0 01-.27-.07l-.36-.18-.44-.2a3.42 3.42 0 00-.54-.18l-.26 3.13c.36.11.72.24 1.08.37a3.85 3.85 0 011 .52 2.28 2.28 0 01.69.79 2.34 2.34 0 01.27 1.18 3.6 3.6 0 01-.24 1.32 3.09 3.09 0 01-.68 1.09 3.44 3.44 0 01-1.12.77 4.35 4.35 0 01-1.5.36l-.09 1.11a.56.56 0 01-.15.32.45.45 0 01-.35.15h-.69zm-.78-8.16a1.32 1.32 0 00.1.51 1.21 1.21 0 00.28.39 2.25 2.25 0 00.42.3 3.82 3.82 0 00.54.24l.23-2.8a3.15 3.15 0 00-.72.18 1.29 1.29 0 00-.48.31 1.08 1.08 0 00-.28.4 1.27 1.27 0 00-.09.47z" id="path86" fill="#e3e3e3"/>
    <path d="M1350.14 480.86l-44.39-99.87m33.29 233.04l-64.36 75.45m170.89-199.74l46.61-59.92m-188.65 110.97l-104.31-2.22" id="path88" fill="none" stroke="#ff6628" stroke-linecap="round" stroke-linejoin="round"/>
    <path class="cls-1" d="M1140.21 1407.36c1.32-10.33-5.35-28.78-27.49-29.59a26.16 26.16 0 00-15.12 4.42 71.41 71.41 0 00-79.49-45.78 32.91 32.91 0 00-64.45 1h-.07a45.43 45.43 0 00-11.33-1.2l-13.49.21a46.21 46.21 0 00-12.42 1.85 71.63 71.63 0 00-46.9 44 27.83 27.83 0 00-14.25-4.39l-4.23.18a17.79 17.79 0 00-4.94 1.46 26.76 26.76 0 00-15.5 20.79" id="path90" fill="#fff" stroke="#c7c7c7" stroke-linecap="round" stroke-linejoin="round"/>
    <path class="cls-6" d="M1661.91 517.62a50.69 50.69 0 00-7 .5 37.41 37.41 0 00-69.31 18.41h114.3c-7.3-11.24-21.57-18.91-37.99-18.91z" id="cloud" fill="#fff"/>
    <g id="cloud-2" data-name="cloud" transform="translate(-334.79 -175.38)">
        <path class="cls-1" d="M1331.26 615.16a67.45 67.45 0 019.17.64 48.81 48.81 0 0185.41 3.89 65.39 65.39 0 0124.08-4.53c21.41 0 40 10 49.53 24.66h-217.72c9.49-14.68 28.11-24.66 49.53-24.66z" id="path93" fill="#fff" stroke="#c7c7c7" stroke-linecap="round" stroke-linejoin="round"/>
        <path class="cls-2" d="M1281.89 651h156.64m23.73 0h87.33" id="path95" fill="none" stroke="#c7c7c7" stroke-linecap="round" stroke-linejoin="round"/>
    </g>
    <path class="cls-3" d="M116.98 764.04h688.83v726.72H6.98" id="path98" fill="#e3e3e3"/>
    <path d="M477.4 1233.42v257.35h-127v-257.26a590.14 590.14 0 0063.13 3.07 584 584 0 0063.87-3.16zM224.21 768.85H120.3l-70.09-76.81h822.38l-70.09 76.81H294.86" id="path100" fill="#d3d3d3"/>
    <path class="cls-10" d="M340.7 1232.01c-17-2.43-27.48-5.71-27.48-9.31 0-7.48 44.91-13.54 100.3-13.54s100.31 6.06 100.31 13.54c0 7.48-44.91 13.53-100.31 13.53-17.64 0-34.22-.61-48.62-1.69m-51.68-13.07v268.29m36.98-278.14v278.14m127.57-278.14v278.14M412.14 1267v136.62m0 19.69v66.45m57.31-244.91v141.53m0 20.92v82.46m44.38-268.29v268.29" id="path102" fill="none" stroke="#fff" stroke-width="2" stroke-linecap="round" stroke-linejoin="round"/>
    <path class="cls-6" d="M155.36 803.75h83.96v135.97h-83.96zm106.97 0h83.96v135.97h-83.96zm106.98 0h83.96v135.97h-83.96zm106.97 0h83.96v135.97h-83.96zm106.97 0h83.96v135.97h-83.96zm106.97 0h83.96v135.97h-83.96zm-534.86 160h83.96v135.97h-83.96zm106.97 0h83.96v135.97h-83.96zm106.98 0h83.96v135.97h-83.96zm106.97 0h83.96v135.97h-83.96zm106.97 0h83.96v135.97h-83.96zm106.97 0h83.96v135.97h-83.96zm-106.97 162h83.96v135.97h-83.96zm106.97 0h83.96v135.97h-83.96z" id="path104" fill="#fff"/>
    <path class="cls-1" d="M200.57 1212.46v264.13" id="path106" fill="#fff" stroke="#c7c7c7" stroke-linecap="round" stroke-linejoin="round"/>
    <path class="cls-10" d="M200.57 1212.46v281.68" id="path108" fill="none" stroke="#fff" stroke-width="2" stroke-linecap="round" stroke-linejoin="round"/>
    <circle class="cls-6" cx="200.57" cy="1241.87" r="85.3" id="circle110" fill="#fff"/>
    <path class="cls-2" d="M425.31 1623.59h278m694-36h156m-1232 66h252m-154 22.03l65.25-45.91m986.75-18.09l65.25-45.91m-1026.93 46.32l17.68-12.41" id="path112" fill="none" stroke="#c7c7c7" stroke-linecap="round" stroke-linejoin="round"/>
    <path class="cls-3" d="M872.81 0v691.77H48.98l94.03-456.02 3.08-20.38 42.19-12.51 29.72-8.8 188.28-55.8 29.72-8.81 188.28-55.8L654 64.84 842.28 9.05z" id="path114" fill="#e3e3e3"/>
    <path class="cls-6" d="M654 265.59h188.28v240.15H654zm0 270h188.28v128.15H654zm-218-270h188.28v240.15H436zm0 270h188.28v128.15H436zm-218-270h188.28v240.15H218zm0 270h188.28v128.15H218zm-218-270h188.28v240.15H0zM842.28 9.05v226.7H654V64.84zm-218 64.6v162.1H436v-106.3zm-218 64.61v97.49H218v-41.69zm-218 64.6v32.89h-45.27l3.08-20.38zM0 535.59h188.28v128.15H0zm47.22 268.16h83.96v135.97H47.22zm0 160h83.96v135.97H47.22z" id="path116" fill="#fff"/>
    <rect class="cls-6" x="612.76" y="741.93" width="324" height="108" rx="54" id="rect118" fill="#fff"/>
    <path class="cls-7" d="M855.6 882.35l-30.46-57.13 31.69 1.5z" id="path120" fill="#ff6628"/>
    <rect class="cls-7" x="622.76" y="731.93" width="324" height="108" rx="54" id="rect122" fill="#ff6628"/>
    <path class="cls-6" d="M683.65 767.87a16.49 16.49 0 01-6.58-3.18 6 6 0 01-2.06-4.65 6.38 6.38 0 012.52-5.17 10 10 0 016.54-2 11 11 0 014.9 1 8.06 8.06 0 013.33 2.92 7.36 7.36 0 011.18 4.05h-3.53a4.79 4.79 0 00-1.54-3.78 6.26 6.26 0 00-4.34-1.38 6.42 6.42 0 00-4.05 1.14 3.79 3.79 0 00-1.46 3.16 3.4 3.4 0 001.38 2.74 13.62 13.62 0 004.71 2 22.08 22.08 0 015.2 2.05 7.91 7.91 0 012.78 2.61 6.61 6.61 0 01.91 3.52 6.16 6.16 0 01-2.53 5.15 10.74 10.74 0 01-6.75 1.94 12.71 12.71 0 01-5.13-1 8.64 8.64 0 01-3.67-2.87 7 7 0 01-1.29-4.13h3.53a4.55 4.55 0 001.79 3.79 7.54 7.54 0 004.77 1.4 7 7 0 004.26-1.13 3.65 3.65 0 001.48-3.08 3.57 3.57 0 00-1.37-3 15.73 15.73 0 00-4.98-2.1zm26.09 9.86a7.2 7.2 0 01-5.8 2.31 6.2 6.2 0 01-4.83-1.83 7.89 7.89 0 01-1.67-5.41v-12.81h3.39v12.72c0 3 1.22 4.48 3.66 4.48 2.44 0 4.31-1 5.16-2.88v-14.32h3.39v19.69h-3.22zm25.18-7.68a11.71 11.71 0 01-2.07 7.24 6.63 6.63 0 01-5.6 2.75 7.31 7.31 0 01-5.68-2.27v9.48h-3.36v-27.26h3.1l.16 2.18a7 7 0 015.74-2.55 6.77 6.77 0 015.65 2.67q2.08 2.67 2.08 7.44zm-3.39-.38a8.62 8.62 0 00-1.43-5.26 4.61 4.61 0 00-3.91-1.93 5 5 0 00-4.62 2.71v9.43a5 5 0 004.65 2.69 4.57 4.57 0 003.87-1.92 9.41 9.41 0 001.44-5.72zm24.43.38a11.71 11.71 0 01-2.07 7.24 6.63 6.63 0 01-5.6 2.75 7.31 7.31 0 01-5.68-2.27v9.48h-3.4v-27.26h3.1l.16 2.18a7 7 0 015.74-2.55 6.78 6.78 0 015.65 2.67c1.38 1.78 2.08 4.26 2.08 7.44zm-3.39-.38a8.69 8.69 0 00-1.43-5.26 4.63 4.63 0 00-3.92-1.93 5 5 0 00-4.61 2.71v9.43a5 5 0 004.65 2.69 4.59 4.59 0 003.87-1.92 9.41 9.41 0 001.44-5.72zm11.37 10.01h-3.39v-27.95h3.39zm5.44-24.91a2 2 0 01.5-1.39 1.92 1.92 0 011.49-.56 2 2 0 011.51.56 2 2 0 01.51 1.39 1.91 1.91 0 01-.51 1.36 2 2 0 01-1.51.55 1.91 1.91 0 01-1.49-.55 2 2 0 01-.5-1.36zm3.66 24.91h-3.39v-19.69h3.39zm13.64.36a8.63 8.63 0 01-6.55-2.63 9.68 9.68 0 01-2.53-7v-.62a11.62 11.62 0 011.13-5.23 8.7 8.7 0 013.14-3.6 8 8 0 014.39-1.3 7.47 7.47 0 016 2.52c1.42 1.69 2.14 4.11 2.14 7.25v1.4h-13.42a7 7 0 001.71 4.7 5.37 5.37 0 004.16 1.79 6 6 0 003-.72 7.68 7.68 0 002.18-1.93l2.07 1.6a8.32 8.32 0 01-7.42 3.77zm-.42-17.65a4.54 4.54 0 00-3.44 1.48 7.19 7.19 0 00-1.72 4.16h9.92v-.25a6.41 6.41 0 00-1.39-4 4.26 4.26 0 00-3.37-1.39zm23.6 12.07a2.46 2.46 0 00-1-2.12 10 10 0 00-3.61-1.31 16.72 16.72 0 01-4.08-1.31 5.65 5.65 0 01-2.24-1.82 4.34 4.34 0 01-.72-2.51 5.11 5.11 0 012.06-4.09 8 8 0 015.26-1.67 8.33 8.33 0 015.47 1.72 5.49 5.49 0 012.1 4.43h-3.41a3 3 0 00-1.18-2.39 4.49 4.49 0 00-3-1 4.68 4.68 0 00-2.89.8 2.51 2.51 0 00-1 2.09 2 2 0 001 1.84 12 12 0 003.5 1.19 18.16 18.16 0 014.11 1.34 6 6 0 012.34 1.88 4.68 4.68 0 01.76 2.69 5 5 0 01-2.13 4.23 8.94 8.94 0 01-5.51 1.59 10.17 10.17 0 01-4.21-.83 6.85 6.85 0 01-2.86-2.34 5.63 5.63 0 01-1-3.25h3.39a3.48 3.48 0 001.36 2.68 5.33 5.33 0 003.36 1 5.46 5.46 0 003.09-.77 2.37 2.37 0 001.04-2.07zm20.76 5.22h-3.41v-27.95h3.38zm4.53-10.06a11.58 11.58 0 011.14-5.2 8.53 8.53 0 013.19-3.57 8.67 8.67 0 014.66-1.25 8.35 8.35 0 016.54 2.78 10.65 10.65 0 012.5 7.41v.23a11.64 11.64 0 01-1.11 5.16 8.35 8.35 0 01-3.16 3.56 8.83 8.83 0 01-4.74 1.27 8.36 8.36 0 01-6.52-2.78 10.6 10.6 0 01-2.5-7.37zm3.4.4a8.37 8.37 0 001.53 5.26 5.21 5.21 0 008.2 0 9.17 9.17 0 001.51-5.63 8.38 8.38 0 00-1.54-5.25 5.17 5.17 0 00-8.16 0 9.16 9.16 0 00-1.54 5.65zm36.42 5.02l3.81-15h3.43l-5.77 19.69h-2.75l-4.81-14.92-4.69 14.92h-2.75l-5.75-19.69h3.37l3.9 14.74 4.62-14.74h2.72zm-200.6 35.33a11.58 11.58 0 011.14-5.2 8.6 8.6 0 013.19-3.57 8.76 8.76 0 014.66-1.25 8.37 8.37 0 016.54 2.78 10.67 10.67 0 012.5 7.41v.23a11.77 11.77 0 01-1.1 5.16 8.38 8.38 0 01-3.17 3.56 8.81 8.81 0 01-4.73 1.27 8.33 8.33 0 01-6.53-2.78 10.6 10.6 0 01-2.5-7.37zm3.4.4a8.37 8.37 0 001.53 5.26 5.2 5.2 0 008.2 0 9.22 9.22 0 001.52-5.64 8.38 8.38 0 00-1.55-5.25 4.93 4.93 0 00-4.11-2 4.88 4.88 0 00-4 2 9.11 9.11 0 00-1.59 5.63zm22.09-10.06l.11 2.48a7.21 7.21 0 015.93-2.84c4.18 0 6.3 2.34 6.33 7v13h-3.38v-13a4.56 4.56 0 00-1-3.15 3.94 3.94 0 00-3-1 4.85 4.85 0 00-2.89.88 5.85 5.85 0 00-1.94 2.29v14h-3.39v-19.66zm28.43 19.69v-17.09h-3.08v-2.6h3.13v-2a6.69 6.69 0 011.7-4.89 6.44 6.44 0 014.82-1.73 9.12 9.12 0 012.32.3l-.18 2.72a9.64 9.64 0 00-1.83-.17 3.29 3.29 0 00-2.54 1 3.88 3.88 0 00-.9 2.75v2.08h4.23v2.6h-4.23v17.09zm15.03 0h-3.38v-27.95h3.38zm4.53-10.03a11.58 11.58 0 011.14-5.2 8.53 8.53 0 013.22-3.55 8.76 8.76 0 014.66-1.25 8.39 8.39 0 016.54 2.78 10.67 10.67 0 012.5 7.41v.23a11.64 11.64 0 01-1.11 5.16 8.29 8.29 0 01-3.16 3.56 8.83 8.83 0 01-4.74 1.27 8.36 8.36 0 01-6.53-2.78 10.64 10.64 0 01-2.49-7.37zm3.4.4a8.37 8.37 0 001.53 5.26 5.19 5.19 0 008.19 0 9.16 9.16 0 001.52-5.64 8.38 8.38 0 00-1.54-5.25 5 5 0 00-4.11-2 4.86 4.86 0 00-4.05 2 9 9 0 00-1.58 5.63zm17.96-.4a11.45 11.45 0 011.15-5.2 8.51 8.51 0 013.18-3.57 8.78 8.78 0 014.66-1.25 8.41 8.41 0 016.55 2.78 10.72 10.72 0 012.5 7.41v.23a11.64 11.64 0 01-1.11 5.16 8.32 8.32 0 01-3.17 3.56 8.79 8.79 0 01-4.73 1.27 8.35 8.35 0 01-6.53-2.78 10.6 10.6 0 01-2.5-7.36zm3.41.4a8.37 8.37 0 001.53 5.26 5.19 5.19 0 008.19 0 9.22 9.22 0 001.52-5.64 8.38 8.38 0 00-1.55-5.25 4.93 4.93 0 00-4.11-2 4.84 4.84 0 00-4 2 9 9 0 00-1.56 5.63zm28.47-7.04a10.78 10.78 0 00-1.67-.13 4.47 4.47 0 00-4.52 2.82v14h-3.39v-19.71h3.3l.06 2.28a5.27 5.27 0 014.72-2.64 3.47 3.47 0 011.5.25zm26.35 7.77h3.7v2.75h-3.7v6.15h-3.41v-6.15h-12.14v-2l11.94-18.37h3.61zm-11.7 0h8.29v-13l-.4.73zm20.01-4.38l1.36-13.22h13.66v3.12h-10.79l-.8 7.22a8.64 8.64 0 014.44-1.15 7.38 7.38 0 015.79 2.4 9.32 9.32 0 012.14 6.47 9 9 0 01-2.22 6.45 8.16 8.16 0 01-6.22 2.35 8.51 8.51 0 01-5.77-1.94 7.77 7.77 0 01-2.54-5.39h3.2a5.33 5.33 0 001.63 3.43 5.1 5.1 0 003.48 1.16 4.58 4.58 0 003.71-1.61 6.63 6.63 0 001.34-4.42 6.1 6.1 0 00-1.45-4.26 4.94 4.94 0 00-3.87-1.61 5.62 5.62 0 00-3.48 1l-.9.73zm20.22 11.57a2 2 0 01.5-1.39 1.9 1.9 0 011.49-.56 1.94 1.94 0 011.5.56 2 2 0 01.52 1.39 1.93 1.93 0 01-.52 1.37 2 2 0 01-1.5.54 1.8 1.8 0 01-2-1.91zm3.42-5.8h-3.06l-.24-19h3.56z" id="path124" fill="#fff"/>
    <path class="cls-11" d="M1155.88 939.5a480.33 480.33 0 0017 105.85c2.4 8.64 5.09 17.31 9.67 25 4.58 7.69 11.25 14.48 19.67 17.6 12.7 4.71 20.41 44.93 28.57 34.11 49.17-65.16-6.17-189.16-21.45-215.62-7.35-12.72-24.7-34.46-40.3-19.88-13.95 13.06-14 35.34-13.16 52.94z" id="path126" fill="#2e2e2e"/>
    <ellipse cx="1085.76" cy="1660.48" rx="213" ry="13.5" id="ellipse128" fill="#e3e3e3"/>
    <path class="cls-11" d="M935.93 1663.37h66.28l5.08-6.44v6.44h17.39v-36.67l-45.25-11.44-.62 11.95-44.48 31.41a2.66 2.66 0 001.6 4.75z" id="path130" fill="#2e2e2e"/>
    <path class="cls-13" d="M978.53 1637.97a13.68 13.68 0 00-9.27-6.23m5.23 9.3a13.75 13.75 0 00-9.27-6.23m5.42 9.5a13.75 13.75 0 00-9.27-6.23m37.73 20.46h-59.03" id="path132" fill="none" stroke="#666" stroke-linecap="round" stroke-linejoin="round"/>
    <path class="cls-11" d="M1221.56 1663.37h-51.75l-4-6.44v6.44h-13.58l-2.17-43.44 37.52-4.67.48 11.95 34.75 31.41c1.61 1.5.75 4.75-1.25 4.75z" id="path134" fill="#2e2e2e"/>
    <path class="cls-13" d="M1183.81 1636.16a13.76 13.76 0 0111.17-.25m-7.24 4.81a13.76 13.76 0 0111.17-.25m-6.26 4.56a13.72 13.72 0 0111.17-.25m-13.02 13.76h25.04" id="path136" fill="none" stroke="#666" stroke-linecap="round" stroke-linejoin="round"/>
    <path class="cls-11" d="M1083.32 1093.9l98.59 2 16.77 525.28c.53 1.92-1.86 7-5.8 7l-42.84 6.2a7 7 0 01-6.93-6.18z" id="path138" fill="#2e2e2e"/>
    <path class="cls-11" d="M1110.31 1093.9h-99l-36.81 524c-.28 4-.75 6.75 3.25 8.5l46.07 6.94a7 7 0 006.89-5.92z" id="path140" fill="#2e2e2e"/>
    <path class="cls-14" d="M1101.43 1119.26v25.77a176.15 176.15 0 01-28-2.85v-22.92z" id="path142" fill="none" stroke="#fff" stroke-linecap="round" stroke-linejoin="round"/>
    <path class="cls-13" d="M1092.32 1186.93s-8.53-11.82-7.22-35.46" id="path144" fill="none" stroke="#666" stroke-linecap="round" stroke-linejoin="round"/>
    <path class="cls-6" d="M1174.76 989.93s21 98 0 119c-24.22 24.22-112.78 24.22-137 0-21-21 0-119 0-119z" id="path146" fill="#fff"/>
    <path class="cls-7" d="M979.14 988.43l-81-26s-60.22 10-23.23 45.39c25.41 24.33 73.75 36.93 73.75 36.93a33 33 0 0045.72-20.23c3.9-13.15 2.39-27.27-15.24-36.09z" id="path148" fill="#ff6628"/>
    <path class="cls-15" d="M858.89 996.01l32.92-4.38a8.33 8.33 0 006.91-9.53l-18.26-72a8.33 8.33 0 00-9.16-7.39l-32.92 4.38a8.32 8.32 0 00-6.91 9.53l18.25 72a8.34 8.34 0 009.17 7.39z" id="path150" fill="#1c1c1c"/>
    <path class="cls-6" d="M891.42 988.62a5.41 5.41 0 004.47-6.18l-18.25-72a5.41 5.41 0 00-5.94-4.79l-32.93 4.38a5.4 5.4 0 00-4.47 6.18l18.25 72a5.4 5.4 0 005.93 4.79z" id="path152" fill="#fff"/>
    <path class="cls-15" d="M868.54 904.76l.19 1.48a3.66 3.66 0 01-3 4.2l-19.88 2.64a3.67 3.67 0 01-4-3.25l-.19-1.48z" id="path154" fill="#1c1c1c"/>
    <path class="cls-7" d="M889.56 938.84a13.91 13.91 0 00-5-3 5.13 5.13 0 00-5.39 1.48c-1.29 1.73-.89 4.15-.34 6.23a73.61 73.61 0 0020.37 34.33 24.29 24.29 0 007.44 5.21c3.76 1.49 8.6 1.18 11.23-2.26 2.26-2.94.7-5.89-.88-8.76a117.31 117.31 0 00-27.38-33.18z" id="path156" fill="#ff6628"/>
    <path class="cls-7" d="M887.57 980.67a28.06 28.06 0 0011.86 19.22 24.77 24.77 0 0022.23 2.7c1.68-.64-11.53-24.73-12.91-26.78a106 106 0 00-9.1-11.81c-3.55-4-6.53-7.18-9.47-.83a31.46 31.46 0 00-2.61 17.5z" id="path158" fill="#ff6628"/>
    <path class="cls-16" d="M892.31 942.55a5.31 5.31 0 01-8.76-4.19M884.6 959a43.78 43.78 0 004.95 7.07c-4.4 8.92-3 19.77 2.87 27.83" id="path160" fill="none" stroke="#1c1c1c" stroke-linecap="round" stroke-linejoin="round"/>
    <path class="cls-7" d="M843.66 958.97c-3.5-.47-7.15-1-9.65-3.3a7.49 7.49 0 01-.7-10 7.35 7.35 0 018.56-1.93c2.6 1.24 4.2 3.84 5.38 6.55a7.23 7.23 0 01.63 5.38c-.67 1.88-3.16 3.39-4.43 2.25" id="path162" fill="#ff6628"/>
    <path class="cls-7" d="M847.02 972.73c-3.49-.48-7.15-1-9.65-3.31a7.49 7.49 0 01-.69-10 7.36 7.36 0 018.56-1.93c2.59 1.24 4.2 3.85 5.38 6.55a7.28 7.28 0 01.62 5.38c-.66 1.89-3.16 3.4-4.42 2.26" id="path164" fill="#ff6628"/>
    <path class="cls-7" d="M853.21 983.34a5.35 5.35 0 01-4.23 1.07 12.63 12.63 0 01-6.43-2.67 6.88 6.88 0 01-.64-9.19 6.77 6.77 0 017.85-1.77c2.38 1.14 3.85 3.53 4.93 6 .07.15.14.31.2.47a5.27 5.27 0 01-1.68 6.08z" id="path166" fill="#ff6628"/>
    <path class="cls-11" d="M1089.58 1058.62s.12 24.62 13.07 61.89c21.59 62.12 94.5 111 96 75 3-72-13.43-154.91-13.43-154.91l-91.87 7.41z" id="path168" fill="#2e2e2e"/>
    <path class="cls-11" d="M1191.21 1050.93h-160.78c-15.09-45.76 8.35-154 8.35-154a16.46 16.46 0 0116.45-16.45h121.47a16.45 16.45 0 0116.45 16.45l-12.7 64.71z" id="path170" fill="#2e2e2e"/>
    <path class="cls-6" d="M1082.92 880.44l5.49 71.52 6.35 82.64 22.71-73.18 25.13-80.98z" id="path172" fill="#fff"/>
    <path class="cls-7" d="M1111.39 912.26l6.08-28.33h-20.76l5.09 28.33-13.39 39.7 6.35 82.64 22.71-73.18z" id="path174" fill="#ff6628"/>
    <path class="cls-11" d="M1044.21 997.62l-73.6-47.69s40-71.24 86.55-69.47c46.55 1.77-12.95 117.16-12.95 117.16z" id="path176" fill="#2e2e2e"/>
    <path class="cls-6" d="M1094.56 904.01l13.45-15.71 12.25 19.25 22-24.62.78-5.36a10.4 10.4 0 00-9.87-7.14h-39.96a10.4 10.4 0 00-9.87 7.14l.31 10.07z" id="path178" fill="#fff"/>
    <path class="cls-11" d="M1125.65 832.19l13.35-2.61 5.32-43a12.92 12.92 0 00-10.76-14.33l-42.45-6.82.66 16.29zm-57.64-34.05c0 12.69 5.39 23 12 23s12.05-10.28 12.05-23-5.39-18-12.05-18c-6.66 0-12 5.32-12 18z" id="path180" fill="#2e2e2e"/>
    <path class="cls-7" d="M1092.55 798.63V875l15.87 10 23.87-10v-76.37z" id="path182" fill="#ff6628"/>
    <path d="M1092.55 848.15v23.9c6.92-7 17.92-17.76 24.21-23.9z" id="path184" fill="#9e392e"/>
    <path class="cls-7" d="M1077.51 780.43l-6.32 55.05a21 21 0 0027.59 22.23c11.08-3.83 21.18-9.24 22.44-16.4 2.5-14.16.74-44.66.16-53.35a3.06 3.06 0 00-2.47-2.81l-37.76-7.38a3.08 3.08 0 00-3.64 2.66z" id="path186" fill="#ff6628"/>
    <path class="cls-11" d="M1068.1 788.94c10.16 5 40 0 45.19-10.53 5.19-10.53-13-24.07-26.48-27.46-11-2.77-22.6-.57-27.77 9.92-5.17 10.49-1.11 23.06 9.06 28.07z" id="path188" fill="#2e2e2e"/>
    <path class="cls-11" d="M1098.63 772.62c0 6.66 5 14.18 13.95 14.18s18.3-7.52 18.3-14.18-7.22-12.05-16.12-12.05c-8.9 0-16.13 5.34-16.13 12.05z" id="path190" fill="#2e2e2e"/>
    <path class="cls-11" d="M1072.13 791.47h38.73a10.41 10.41 0 0110.14 12.82l-1.52 6.4s-2.93 11.4 15 12.38l-2-39.1h-58.75z" id="path192" fill="#2e2e2e"/>
    <path d="M1139.07 803.84a.48.48 0 00.41-.2.5.5 0 00-.11-.7l-12.75-9.5a.501.501 0 10-.59.81l12.75 9.5a.52.52 0 00.29.09zm-1.5 6.78a.48.48 0 00.41-.2.5.5 0 00-.11-.7l-12.75-9.5a.501.501 0 10-.59.81l12.75 9.5a.52.52 0 00.29.09z" id="path194" fill="#666"/>
    <circle class="cls-7" cx="1132.78" cy="826.16" r="9.61" id="circle196" fill="#ff6628"/>
    <path class="cls-11" d="M1127.28 826.82a.49.49 0 00.49-.42 5.94 5.94 0 0110.79-2.37.5.5 0 00.7.13.49.49 0 00.13-.69 6.94 6.94 0 00-12.61 2.77.5.5 0 00.41.57z" id="path198" fill="#2e2e2e"/>
    <path class="cls-11" d="M1136.97 829.06a.48.48 0 00.47-.34 6.88 6.88 0 00-3-7.93.5.5 0 00-.68.19.49.49 0 00.19.68 5.94 5.94 0 012.6 6.74.49.49 0 00.31.63z" id="path200" fill="#2e2e2e"/>
    <circle class="cls-11" cx="1098.57" cy="812.59" r="1.75" id="circle202" fill="#2e2e2e"/>
    <circle class="cls-11" cx="1081.07" cy="812.59" r="1.75" id="circle204" fill="#2e2e2e"/>
    <ellipse class="cls-11" cx="-470.471" cy="1279.65" rx="2.34" ry="7.75" transform="rotate(-74.2)" id="ellipse206" fill="#2e2e2e"/>
    <ellipse class="cls-11" cx="823.19" cy="1064.189" rx="7.75" ry="2.34" transform="rotate(-15.8)" id="ellipse208" fill="#2e2e2e"/>
    <path class="cls-11" d="M1089.07 828.09a.49.49 0 00.49-.38.5.5 0 00-.37-.6l-4.21-1a1.46 1.46 0 01-.54-1.57l5.87-21.11a.52.52 0 00-.35-.62.51.51 0 00-.62.35l-5.86 21.12a2.44 2.44 0 001 2.72l.16.06 4.29 1zm5.79 9.14a9.06 9.06 0 002.59-.37 9.27 9.27 0 006-5.85.52.52 0 00-.32-.64.5.5 0 00-.63.32 8.15 8.15 0 01-12.74 3.83.5.5 0 10-.61.79 9.24 9.24 0 005.71 1.92z" id="path210" fill="#2e2e2e"/>
    <path class="cls-6" d="M1105.74 769.87a4.37 4.37 0 01-1.08-2.72 6.87 6.87 0 012.39-5.38c-.22-.25-.45-.48-.66-.7a38.76 38.76 0 00-26.34-11.29.49.49 0 01-.49-.51.51.51 0 01.51-.49 39.75 39.75 0 0127 11.59l.74.77a7.77 7.77 0 01.78-.48 12.91 12.91 0 017.56-1.19 23.14 23.14 0 0113.48 6.23.49.49 0 010 .7.5.5 0 01-.71 0 22.06 22.06 0 00-12.89-5.95 12 12 0 00-7 1.06c-.21.12-.41.24-.6.37a10.29 10.29 0 012.23 4.24c.42 1.9-.25 4.16-2.11 4.65a2.82 2.82 0 01-.65.08 3.11 3.11 0 01-2.16-.98zm-.08-2.78a3.37 3.37 0 00.81 2.1 2 2 0 001.9.63c1.21-.32 1.7-2.05 1.38-3.47a9.23 9.23 0 00-2-3.83 5.86 5.86 0 00-2.09 4.57z" id="path212" fill="#fff"/>
    <path d="M1107.76 888.09l12.5 20.21 22.54-28.1m-35.21 8.06l-13.39 15.93-11.72-24.22" id="path214" fill="none" stroke="#e3e3e3" stroke-linecap="round" stroke-linejoin="round"/>
    <path class="cls-11" d="M946.62 1044.53c10.76 8.93 27 5.91 39.59-.41.3-.15.21 6.27.51 6.11 20.49-10.71 37.49-35.28 46.49-56.61.2-.47.39-.94.58-1.41 7-17.31 15.68-99.82-22.66-87-15 5-29.06 27.32-38 39.48a262.27 262.27 0 00-29 50.51c-3.51 8.11-6.65 16.59-7 25.43-.35 8.84 2.69 18.24 9.49 23.9z" id="path216" fill="#2e2e2e"/>
    <path class="cls-13" d="M1065.76 885.93l-17.83 17.41 20.83 17.59-23 20 35 98" id="path218" fill="none" stroke="#666" stroke-linecap="round" stroke-linejoin="round"/>
    <path class="cls-6" d="M955.42 1049.56c-18.92-3.54-38.54-15.22-50.33-21l11.67-64 40.33 16z" id="path220" fill="#fff"/>
    <path class="cls-11" d="M905.77 1049.08c22.11 11.35 100.46 32.79 118.15-18.25 4.92-14.18-18-33.13-36.36-42.83l-62.14-22.07z" id="path222" fill="#2e2e2e"/>
    <path class="cls-11" d="M1096.85 1048.06s-6.09 45.35-23.5 85.69c-23.52 54.5-60.21 86.45-75.69 61.8-10.49-16.69 6.15-39.22 11.48-85.79 7-60.89 3.68-126.85 3.68-126.85z" id="path224" fill="#2e2e2e"/>
    <path class="cls-14" d="M966.64 981.68a310.52 310.52 0 00-41.33-15.42" id="path226" fill="none" stroke="#fff" stroke-linecap="round" stroke-linejoin="round"/>
    <path class="cls-16" d="M845.33 957.94a7.83 7.83 0 01-2.25.35 16.7 16.7 0 01-8.34-2m14.52 15.08a7.06 7.06 0 01-.64.42 8.64 8.64 0 01-5.73.76 10.55 10.55 0 01-6-3.5" id="path228" fill="none" stroke="#1c1c1c" stroke-linecap="round" stroke-linejoin="round"/>
    <path class="cls-13" d="M1155.34 885.56l14.99 20.39-23.38 16.78 21.58 22.79-52.77 98.41" id="path230" fill="none" stroke="#666" stroke-linecap="round" stroke-linejoin="round"/>
    <path class="cls-14" d="M1019.91 948.54a443.09 443.09 0 00-4.56 77.8" id="path232" fill="none" stroke="#fff" stroke-linecap="round" stroke-linejoin="round"/>
    <path class="cls-13" d="M1029.45 1261.81l-10.9 133.68m-3.8 46.55l-9.27 113.73m152.67-306.22l24.16 343.83" id="path234" fill="none" stroke="#666" stroke-linecap="round" stroke-linejoin="round"/>
    <path class="cls-6" d="M1068.47 1035.85h27.42a9.05 9.05 0 008.7-8.2l8.69-66.8h-62.2l8.69 66.8a9.05 9.05 0 008.7 8.2z" id="path236" fill="#fff"/>
    <path class="cls-3" d="M1102.3 954.33h-40.24v-4.25a7.25 7.25 0 017.25-7.25h25.75a7.25 7.25 0 017.25 7.25v4.25z" id="path238" fill="#e3e3e3"/>
    <path class="cls-3" d="M1117.01 963.33h-69.66v-2a9.53 9.53 0 019.53-9.53h50.59a9.53 9.53 0 019.53 9.53v2z" id="path240" fill="#e3e3e3"/>
    <path class="cls-6" d="M1062.98 952.82h24a.5.5 0 00.5-.5.5.5 0 00-.5-.5h-24a.5.5 0 00-.5.5.5.5 0 00.5.5z" id="path242" fill="#fff"/>
    <path class="cls-7" d="M1040.21 998.76c.71 3.56 4.74 4.94 8.53 5.29-1.81 1.3-3 3-3 5.1.36 7.34 8 8.11 11.76 7.25a5.7 5.7 0 00-2.48 3.28c-.65 2.45.79 5.08 2.87 6.54a15.68 15.68 0 007.16 2.27q1.4.17 2.79.27a7.31 7.31 0 002.6 5.9 15.73 15.73 0 007.36 3 49 49 0 0021-.54q1.31 2.32 2.69 4.62a167.42 167.42 0 009.94 14.69 169.48 169.48 0 0058.42 49.08c9 4.57 19.22 8.39 29.08 6.15 11-2.51 19.32-12.53 21.79-23.53 2-9 1.17-22-4.17-29.85-4.61-6.79-11.6-13.28-17.24-19.31a252.14 252.14 0 00-45.68-38.55 248.41 248.41 0 00-29.7-16.77c-5.77-2.75-17.15-6-27.54-7a79.32 79.32 0 00-50.81 13.45c-2.95 2.08-6.15 5.12-5.37 8.66z" id="path244" fill="#ff6628"/>
    <path class="cls-15" d="M1101.52 1041.78a167.42 167.42 0 009.94 14.69 150.37 150.37 0 0031.36-61.19l-16.52-4a132.93 132.93 0 01-24.78 50.5zm-44.7-38.16a68.41 68.41 0 0024.55-5.7.502.502 0 00-.4-.92 67.17 67.17 0 01-30.61 5.58.52.52 0 00-.53.48.5.5 0 00.47.52c2.17.11 4.35.12 6.52.04zm20.2 25.68a62.72 62.72 0 0016.81-3 .523.523 0 00-.31-1 61.84 61.84 0 01-24.68 2.8.52.52 0 00-.55.45.51.51 0 00.46.55 63.36 63.36 0 008.27.2zm-9.35-11.84a53.55 53.55 0 0018.46-4.13.51.51 0 00.27-.65.5.5 0 00-.66-.27 52.51 52.51 0 01-27.61 3.59.52.52 0 00-.57.43.5.5 0 00.43.57 54.14 54.14 0 009.68.46z" id="path246" fill="#1c1c1c"/>
    <circle class="cls-15" cx="1131.2" cy="1001.62" r="18.29" id="circle248" fill="#1c1c1c"/>
    <circle class="cls-6" cx="1131.2" cy="1001.62" r="12.07" id="circle250" fill="#fff"/>
    <circle class="cls-11" cx="1131.2" cy="1001.62" r="1.3" id="circle252" fill="#2e2e2e"/>
    <path class="cls-15" d="M1129.928 992.818l.996-.084.725 8.64-.996.084z" id="path254" fill="#1c1c1c"/>
    <path class="cls-15" d="M1126.28 1006.45l5.21-4.18-.62-.78-5.21 4.18z" id="path256" fill="#1c1c1c"/>
    <path class="cls-6" d="M1143.63 1037.13c3.14-8.16 5.56-16.59 9.14-24.57 1.82-4 5.08-10.07 7.21-14-7.46-5.23-11.07-8.29-12.34-9l-38.66 65c0 .06 10.42 12.26 18.45 19.86 4.72-12.65 11.35-24.7 16.2-37.29z" id="path258" fill="#fff"/>
    <path class="cls-11" d="M1238.36 1106.81c-2.54 12.15-11.87 23.12-24 25.89-10.85 2.47-22.06-1.74-32-6.77-25.18-12.75-70-56.84-70.1-57l41.67-77.67c5.84 3.24 95.79 61.36 84.43 115.55z" id="path260" fill="#2e2e2e"/>
    <ellipse class="cls-13" cx="-336.384" cy="1523.326" rx="3.5" ry="4.83" transform="rotate(-59)" id="ellipse262" fill="none" stroke="#666" stroke-linecap="round" stroke-linejoin="round"/>
    <ellipse class="cls-13" cx="-339.778" cy="1530.156" rx="3.5" ry="4.83" transform="rotate(-59.3)" id="ellipse264" fill="none" stroke="#666" stroke-linecap="round" stroke-linejoin="round"/>
    <path class="cls-14" d="M1158.57 994.83a168.05 168.05 0 0159.56 52.72m-33.18-100.93a252.06 252.06 0 008.14 71.55m-76.57 43.26l-4.21 7.5s41 56.66 93.5 64.66" id="path266" fill="none" stroke="#fff" stroke-linecap="round" stroke-linejoin="round"/>
    <path class="cls-13" d="M1011.64 1202.25a100.63 100.63 0 0050.2-59.8m46.93-13.83a137.61 137.61 0 0071.36 76.75" id="path268" fill="none" stroke="#666" stroke-linecap="round" stroke-linejoin="round"/>
</svg>
