<svg xmlns="http://www.w3.org/2000/svg" width="4.176" height="4.234" viewBox="0 0 4.176 0.398">
    <path d="M4.175.762c0 .21-.13.37-.343.39-.333.03-.589.16-.717.487-.042.107-.037.221-.06.33-.045.225-.199.346-.425.333a.384.384 0 01-.37-.383.765.765 0 00-.715-.742c-.303-.016-.48-.26-.406-.513a.4.4 0 01.423-.299.397.397 0 01.366.364c.014.147.034.29.115.416.17.263.49.402.762.33a.73.73 0 00.567-.679c.01-.172.058-.32.224-.4.285-.14.581.048.58.366zM0-.36c0-.226.133-.38.36-.4.314-.028.557-.154.687-.456.044-.1.05-.209.063-.316.026-.215.157-.354.34-.374.212-.022.373.07.437.254.02.054.024.113.03.17.054.422.31.668.73.7.238.016.4.182.4.411a.403.403 0 01-.36.397c-.22.022-.398-.116-.44-.35-.03-.163-.042-.326-.149-.468a.699.699 0 00-.79-.268.721.721 0 00-.504.635.961.961 0 01-.025.172.393.393 0 01-.444.296A.393.393 0 010-.36z" fill="#1a7aff"/>
    <path d="M1.94 1.912a.403.403 0 01-.37.402.395.395 0 01-.42-.312c-.017-.064-.017-.132-.028-.197-.062-.353-.319-.583-.686-.614-.25-.02-.412-.16-.43-.368C-.017.57.146.39.421.367c.334-.027.59-.233.667-.542.022-.088.021-.18.04-.27a.398.398 0 01.396-.33.415.415 0 01.388.313c.063.251-.119.483-.396.504C1.176.07.926.265.84.574a.725.725 0 00.64.922c.05.005.1.006.148.017a.402.402 0 01.313.4zM4.16-.392c.003.24-.116.38-.352.414-.143.02-.289.027-.414.115a.738.738 0 00-.332.585c-.017.26-.135.402-.346.438a.397.397 0 01-.455-.313c-.044-.224.093-.445.31-.48.185-.03.37-.047.522-.175a.732.732 0 00.238-.787.717.717 0 00-.646-.507c-.14-.008-.26-.04-.354-.152a.41.41 0 01-.04-.467c.09-.154.237-.22.424-.19.16.027.28.147.313.315.014.07.015.141.03.21a.717.717 0 00.607.582c.041.006.083.01.124.014.233.023.367.167.37.398z" fill="#71acfd"/>
</svg>
